<?xml version="1.0" encoding="us-ascii" standalone="no"?><svg xmlns="http://www.w3.org/2000/svg" xmlns:xlink="http://www.w3.org/1999/xlink" contentStyleType="text/css" height="352px" preserveAspectRatio="none" style="width:238px;height:352px;background:#FFFFFF;" version="1.1" viewBox="0 0 238 352" width="238px" zoomAndPan="magnify"><defs/><g><!--class GreenSpaceUI--><g id="elem_GreenSpaceUI"><rect codeLine="12" fill="#F1F1F1" height="48" id="GreenSpaceUI" rx="2.5" ry="2.5" style="stroke:#181818;stroke-width:0.5;" width="124" x="57" y="7"/><ellipse cx="72" cy="23" fill="#ADD1B2" rx="11" ry="11" style="stroke:#181818;stroke-width:1.0;"/><path d="M74.7656,18.875 Q74.9219,18.6563 75.1094,18.5469 Q75.2969,18.4375 75.5156,18.4375 Q75.8906,18.4375 76.125,18.7031 Q76.3594,18.9531 76.3594,19.5625 L76.3594,21.0156 Q76.3594,21.625 76.125,21.8906 Q75.8906,22.1563 75.5156,22.1563 Q75.1719,22.1563 74.9688,21.9531 Q74.7656,21.7656 74.6563,21.25 Q74.6094,20.8906 74.4219,20.7031 Q74.0938,20.3281 73.4844,20.1094 Q72.875,19.8906 72.25,19.8906 Q71.4844,19.8906 70.8438,20.2188 Q70.2188,20.5469 69.7188,21.2969 Q69.2344,22.0469 69.2344,23.0781 L69.2344,24.1719 Q69.2344,25.4063 70.125,26.2344 Q71.0156,27.0469 72.6094,27.0469 Q73.5469,27.0469 74.2031,26.7969 Q74.5938,26.6406 75.0156,26.2031 Q75.2813,25.9375 75.4219,25.8594 Q75.5781,25.7813 75.7813,25.7813 Q76.1094,25.7813 76.3594,26.0469 Q76.625,26.2969 76.625,26.6406 Q76.625,26.9844 76.2813,27.3906 Q75.7813,27.9688 74.9844,28.2969 Q73.9063,28.75 72.6094,28.75 Q71.0938,28.75 69.8906,28.125 Q68.9063,27.625 68.2188,26.5625 Q67.5313,25.4844 67.5313,24.2031 L67.5313,23.0469 Q67.5313,21.7188 68.1406,20.5781 Q68.7656,19.4219 69.8594,18.8125 Q70.9531,18.1875 72.1875,18.1875 Q72.9219,18.1875 73.5625,18.3594 Q74.2188,18.5156 74.7656,18.875 Z " fill="#000000"/><text fill="#000000" font-family="sans-serif" font-size="14" lengthAdjust="spacing" textLength="92" x="86" y="28.7969">GreenSpaceUI</text><line style="stroke:#181818;stroke-width:0.5;" x1="58" x2="180" y1="39" y2="39"/><line style="stroke:#181818;stroke-width:0.5;" x1="58" x2="180" y1="47" y2="47"/></g><!--class GreenSpaceController--><g id="elem_GreenSpaceController"><rect codeLine="16" fill="#F1F1F1" height="85.2422" id="GreenSpaceController" rx="2.5" ry="2.5" style="stroke:#181818;stroke-width:0.5;" width="224" x="7" y="115"/><ellipse cx="44.5" cy="131" fill="#ADD1B2" rx="11" ry="11" style="stroke:#181818;stroke-width:1.0;"/><path d="M47.2656,126.875 Q47.4219,126.6563 47.6094,126.5469 Q47.7969,126.4375 48.0156,126.4375 Q48.3906,126.4375 48.625,126.7031 Q48.8594,126.9531 48.8594,127.5625 L48.8594,129.0156 Q48.8594,129.625 48.625,129.8906 Q48.3906,130.1563 48.0156,130.1563 Q47.6719,130.1563 47.4688,129.9531 Q47.2656,129.7656 47.1563,129.25 Q47.1094,128.8906 46.9219,128.7031 Q46.5938,128.3281 45.9844,128.1094 Q45.375,127.8906 44.75,127.8906 Q43.9844,127.8906 43.3438,128.2188 Q42.7188,128.5469 42.2188,129.2969 Q41.7344,130.0469 41.7344,131.0781 L41.7344,132.1719 Q41.7344,133.4063 42.625,134.2344 Q43.5156,135.0469 45.1094,135.0469 Q46.0469,135.0469 46.7031,134.7969 Q47.0938,134.6406 47.5156,134.2031 Q47.7813,133.9375 47.9219,133.8594 Q48.0781,133.7813 48.2813,133.7813 Q48.6094,133.7813 48.8594,134.0469 Q49.125,134.2969 49.125,134.6406 Q49.125,134.9844 48.7813,135.3906 Q48.2813,135.9688 47.4844,136.2969 Q46.4063,136.75 45.1094,136.75 Q43.5938,136.75 42.3906,136.125 Q41.4063,135.625 40.7188,134.5625 Q40.0313,133.4844 40.0313,132.2031 L40.0313,131.0469 Q40.0313,129.7188 40.6406,128.5781 Q41.2656,127.4219 42.3594,126.8125 Q43.4531,126.1875 44.6875,126.1875 Q45.4219,126.1875 46.0625,126.3594 Q46.7188,126.5156 47.2656,126.875 Z " fill="#000000"/><text fill="#000000" font-family="sans-serif" font-size="14" lengthAdjust="spacing" textLength="142" x="63.5" y="136.7969">GreenSpaceController</text><line style="stroke:#181818;stroke-width:0.5;" x1="8" x2="230" y1="147" y2="147"/><line style="stroke:#181818;stroke-width:0.5;" x1="8" x2="230" y1="155" y2="155"/><text fill="#000000" font-family="sans-serif" font-size="14" lengthAdjust="spacing" textLength="184" x="13" y="174.1074">+listAll()  : List&lt;GreenSpace&gt;</text><text fill="#000000" font-family="sans-serif" font-size="14" lengthAdjust="spacing" textLength="212" x="13" y="192.7285">+retrieveManagedGreenSpaces()</text></g><!--class GreenSpaceRepository--><g id="elem_GreenSpaceRepository"><rect codeLine="20" fill="#F1F1F1" height="85.2422" id="GreenSpaceRepository" rx="2.5" ry="2.5" style="stroke:#181818;stroke-width:0.5;" width="196" x="21" y="260"/><ellipse cx="43.2" cy="276" fill="#ADD1B2" rx="11" ry="11" style="stroke:#181818;stroke-width:1.0;"/><path d="M45.9656,271.875 Q46.1219,271.6563 46.3094,271.5469 Q46.4969,271.4375 46.7156,271.4375 Q47.0906,271.4375 47.325,271.7031 Q47.5594,271.9531 47.5594,272.5625 L47.5594,274.0156 Q47.5594,274.625 47.325,274.8906 Q47.0906,275.1563 46.7156,275.1563 Q46.3719,275.1563 46.1688,274.9531 Q45.9656,274.7656 45.8563,274.25 Q45.8094,273.8906 45.6219,273.7031 Q45.2938,273.3281 44.6844,273.1094 Q44.075,272.8906 43.45,272.8906 Q42.6844,272.8906 42.0438,273.2188 Q41.4188,273.5469 40.9188,274.2969 Q40.4344,275.0469 40.4344,276.0781 L40.4344,277.1719 Q40.4344,278.4063 41.325,279.2344 Q42.2156,280.0469 43.8094,280.0469 Q44.7469,280.0469 45.4031,279.7969 Q45.7938,279.6406 46.2156,279.2031 Q46.4813,278.9375 46.6219,278.8594 Q46.7781,278.7813 46.9813,278.7813 Q47.3094,278.7813 47.5594,279.0469 Q47.825,279.2969 47.825,279.6406 Q47.825,279.9844 47.4813,280.3906 Q46.9813,280.9688 46.1844,281.2969 Q45.1063,281.75 43.8094,281.75 Q42.2938,281.75 41.0906,281.125 Q40.1063,280.625 39.4188,279.5625 Q38.7313,278.4844 38.7313,277.2031 L38.7313,276.0469 Q38.7313,274.7188 39.3406,273.5781 Q39.9656,272.4219 41.0594,271.8125 Q42.1531,271.1875 43.3875,271.1875 Q44.1219,271.1875 44.7625,271.3594 Q45.4188,271.5156 45.9656,271.875 Z " fill="#000000"/><text fill="#000000" font-family="sans-serif" font-size="14" lengthAdjust="spacing" textLength="148" x="58.8" y="281.7969">GreenSpaceRepository</text><line style="stroke:#181818;stroke-width:0.5;" x1="22" x2="216" y1="292" y2="292"/><line style="stroke:#181818;stroke-width:0.5;" x1="22" x2="216" y1="300" y2="300"/><text fill="#000000" font-family="sans-serif" font-size="14" lengthAdjust="spacing" textLength="180" x="27" y="319.1074">+listAll() : List&lt;GreenSpace&gt;</text><text fill="#000000" font-family="sans-serif" font-size="14" lengthAdjust="spacing" textLength="184" x="27" y="337.7285">+getManagedGreenSpaces()</text></g><!--link GreenSpaceUI to GreenSpaceController--><g id="link_GreenSpaceUI_GreenSpaceController"><path codeLine="25" d="M119,55.13 C119,71.86 119,88.94 119,108.86 " fill="none" id="GreenSpaceUI-to-GreenSpaceController" style="stroke:#181818;stroke-width:1.0;"/><polygon fill="#181818" points="119,114.86,123,105.86,119,109.86,115,105.86,119,114.86" style="stroke:#181818;stroke-width:1.0;"/></g><!--link GreenSpaceController to GreenSpaceRepository--><g id="link_GreenSpaceController_GreenSpaceRepository"><path codeLine="26" d="M119,200.25 C119,219.04 119,235.18 119,253.95 " fill="none" id="GreenSpaceController-to-GreenSpaceRepository" style="stroke:#181818;stroke-width:1.0;"/><polygon fill="#181818" points="119,259.95,123,250.95,119,254.95,115,250.95,119,259.95" style="stroke:#181818;stroke-width:1.0;"/></g><!--SRC=[TP31QiD034Jl-WhTd502FPSI23sKG7gfwGTiRMMzH5ujMgN5BVttRdgn4xP7yMQ66JNv569owaOS9Ketg8o4fcU2cIJNdPodrYOcLEhCHSzBGHvSBvyXUZmwpal28P9DYJ09JvS3cWeKDO65gsENyyvCm_lPQDz9RCCNuJr0mtGqD44DVZ3imwLEa0W0VoPyLgBObiRqjiTl-Ac09uccmanQ17UbHROTysgD-827SZpEqctXIgK7VT2BY-K9_GppQbtoRzDVAKaE9ZhTf5V3FTa_kN2rPBFPLXT0TTQrUcu4lm00]--></g></svg>