<?xml version="1.0" encoding="us-ascii" standalone="no"?><svg xmlns="http://www.w3.org/2000/svg" xmlns:xlink="http://www.w3.org/1999/xlink" contentStyleType="text/css" height="480px" preserveAspectRatio="none" style="width:703px;height:480px;background:#FFFFFF;" version="1.1" viewBox="0 0 703 480" width="703px" zoomAndPan="magnify"><defs/><g><text fill="#000000" font-family="sans-serif" font-size="14" font-weight="bold" lengthAdjust="spacing" textLength="430" x="132.75" y="44.4082">Design for US027 - List all green spaces managed by the GSM</text><rect fill="#FFFFFF" height="231.6191" style="stroke:#181818;stroke-width:1.0;" width="10" x="18.5" y="147.543"/><rect fill="#FFFFFF" height="191.0371" style="stroke:#181818;stroke-width:1.0;" width="10" x="205.5" y="188.125"/><rect fill="#FFFFFF" height="111.1641" style="stroke:#181818;stroke-width:1.0;" width="10" x="380.5" y="236.707"/><rect fill="#FFFFFF" height="31.291" style="stroke:#181818;stroke-width:1.0;" width="10" x="605.5" y="267.998"/><line style="stroke:#181818;stroke-width:0.5;stroke-dasharray:5.0,5.0;" x1="23" x2="23" y1="137.543" y2="397.1621"/><line style="stroke:#181818;stroke-width:0.5;stroke-dasharray:5.0,5.0;" x1="210.5" x2="210.5" y1="137.543" y2="397.1621"/><line style="stroke:#181818;stroke-width:0.5;stroke-dasharray:5.0,5.0;" x1="385.5" x2="385.5" y1="137.543" y2="397.1621"/><line style="stroke:#181818;stroke-width:0.5;stroke-dasharray:5.0,5.0;" x1="610.5" x2="610.5" y1="137.543" y2="397.1621"/><text fill="#000000" font-family="sans-serif" font-size="14" lengthAdjust="spacing" textLength="31" x="5" y="134.0293">GSM</text><ellipse cx="23.5" cy="67.4219" fill="#E2E2F0" rx="8" ry="8" style="stroke:#181818;stroke-width:0.5;"/><path d="M23.5,75.4219 L23.5,102.4219 M10.5,83.4219 L36.5,83.4219 M23.5,102.4219 L10.5,117.4219 M23.5,102.4219 L36.5,117.4219 " fill="none" style="stroke:#181818;stroke-width:0.5;"/><text fill="#000000" font-family="sans-serif" font-size="14" lengthAdjust="spacing" textLength="31" x="5" y="411.2695">GSM</text><ellipse cx="23.5" cy="423.2832" fill="#E2E2F0" rx="8" ry="8" style="stroke:#181818;stroke-width:0.5;"/><path d="M23.5,431.2832 L23.5,458.2832 M10.5,439.2832 L36.5,439.2832 M23.5,458.2832 L10.5,473.2832 M23.5,458.2832 L36.5,473.2832 " fill="none" style="stroke:#181818;stroke-width:0.5;"/><rect fill="#E2E2F0" height="32.6211" rx="2.5" ry="2.5" style="stroke:#181818;stroke-width:0.5;" width="106" x="157.5" y="103.9219"/><text fill="#000000" font-family="sans-serif" font-size="14" lengthAdjust="spacing" textLength="92" x="164.5" y="126.0293">GreenSpaceUI</text><rect fill="#E2E2F0" height="32.6211" rx="2.5" ry="2.5" style="stroke:#181818;stroke-width:0.5;" width="106" x="157.5" y="396.1621"/><text fill="#000000" font-family="sans-serif" font-size="14" lengthAdjust="spacing" textLength="92" x="164.5" y="418.2695">GreenSpaceUI</text><rect fill="#E2E2F0" height="32.6211" rx="2.5" ry="2.5" style="stroke:#181818;stroke-width:0.5;" width="156" x="307.5" y="103.9219"/><text fill="#000000" font-family="sans-serif" font-size="14" lengthAdjust="spacing" textLength="142" x="314.5" y="126.0293">GreenSpaceController</text><rect fill="#E2E2F0" height="32.6211" rx="2.5" ry="2.5" style="stroke:#181818;stroke-width:0.5;" width="156" x="307.5" y="396.1621"/><text fill="#000000" font-family="sans-serif" font-size="14" lengthAdjust="spacing" textLength="142" x="314.5" y="418.2695">GreenSpaceController</text><rect fill="#E2E2F0" height="32.6211" rx="2.5" ry="2.5" style="stroke:#181818;stroke-width:0.5;" width="162" x="529.5" y="103.9219"/><text fill="#000000" font-family="sans-serif" font-size="14" lengthAdjust="spacing" textLength="148" x="536.5" y="126.0293">GreenSpaceRepository</text><rect fill="#E2E2F0" height="32.6211" rx="2.5" ry="2.5" style="stroke:#181818;stroke-width:0.5;" width="162" x="529.5" y="396.1621"/><text fill="#000000" font-family="sans-serif" font-size="14" lengthAdjust="spacing" textLength="148" x="536.5" y="418.2695">GreenSpaceRepository</text><rect fill="#FFFFFF" height="231.6191" style="stroke:#181818;stroke-width:1.0;" width="10" x="18.5" y="147.543"/><rect fill="#FFFFFF" height="191.0371" style="stroke:#181818;stroke-width:1.0;" width="10" x="205.5" y="188.125"/><rect fill="#FFFFFF" height="111.1641" style="stroke:#181818;stroke-width:1.0;" width="10" x="380.5" y="236.707"/><rect fill="#FFFFFF" height="31.291" style="stroke:#181818;stroke-width:1.0;" width="10" x="605.5" y="267.998"/><polygon fill="#181818" points="193.5,184.125,203.5,188.125,193.5,192.125,197.5,188.125" style="stroke:#181818;stroke-width:1.0;"/><line style="stroke:#181818;stroke-width:1.0;" x1="28.5" x2="199.5" y1="188.125" y2="188.125"/><text fill="#000000" font-family="sans-serif" font-size="13" font-weight="bold" lengthAdjust="spacing" textLength="7" x="35.5" y="174.2168">1</text><text fill="#000000" font-family="sans-serif" font-size="13" lengthAdjust="spacing" textLength="83" x="46.5" y="165.5713">Request list of</text><text fill="#000000" font-family="sans-serif" font-size="13" lengthAdjust="spacing" textLength="135" x="46.5" y="182.8623">managed green spaces</text><polygon fill="#181818" points="368.5,232.707,378.5,236.707,368.5,240.707,372.5,236.707" style="stroke:#181818;stroke-width:1.0;"/><line style="stroke:#181818;stroke-width:1.0;" x1="215.5" x2="374.5" y1="236.707" y2="236.707"/><text fill="#000000" font-family="sans-serif" font-size="13" font-weight="bold" lengthAdjust="spacing" textLength="7" x="222.5" y="222.7988">2</text><text fill="#000000" font-family="sans-serif" font-size="13" lengthAdjust="spacing" textLength="83" x="233.5" y="214.1533">Request list of</text><text fill="#000000" font-family="sans-serif" font-size="13" lengthAdjust="spacing" textLength="135" x="233.5" y="231.4443">managed green spaces</text><polygon fill="#181818" points="593.5,263.998,603.5,267.998,593.5,271.998,597.5,267.998" style="stroke:#181818;stroke-width:1.0;"/><line style="stroke:#181818;stroke-width:1.0;" x1="390.5" x2="599.5" y1="267.998" y2="267.998"/><text fill="#000000" font-family="sans-serif" font-size="13" font-weight="bold" lengthAdjust="spacing" textLength="7" x="397.5" y="262.7354">3</text><text fill="#000000" font-family="sans-serif" font-size="13" lengthAdjust="spacing" textLength="185" x="408.5" y="262.7354">Retrieve managed green spaces</text><polygon fill="#181818" points="401.5,295.2891,391.5,299.2891,401.5,303.2891,397.5,299.2891" style="stroke:#181818;stroke-width:1.0;"/><line style="stroke:#181818;stroke-width:1.0;stroke-dasharray:2.0,2.0;" x1="395.5" x2="609.5" y1="299.2891" y2="299.2891"/><text fill="#000000" font-family="sans-serif" font-size="13" font-weight="bold" lengthAdjust="spacing" textLength="7" x="407.5" y="294.0264">4</text><text fill="#000000" font-family="sans-serif" font-size="13" lengthAdjust="spacing" textLength="174" x="418.5" y="294.0264">List of managed green spaces</text><polygon fill="#181818" points="226.5,343.8711,216.5,347.8711,226.5,351.8711,222.5,347.8711" style="stroke:#181818;stroke-width:1.0;"/><line style="stroke:#181818;stroke-width:1.0;stroke-dasharray:2.0,2.0;" x1="220.5" x2="384.5" y1="347.8711" y2="347.8711"/><text fill="#000000" font-family="sans-serif" font-size="13" font-weight="bold" lengthAdjust="spacing" textLength="7" x="232.5" y="333.9629">5</text><text fill="#000000" font-family="sans-serif" font-size="13" lengthAdjust="spacing" textLength="92" x="243.5" y="325.3174">List of managed</text><text fill="#000000" font-family="sans-serif" font-size="13" lengthAdjust="spacing" textLength="78" x="247.5" y="342.6084">green spaces</text><polygon fill="#181818" points="34.5,375.1621,24.5,379.1621,34.5,383.1621,30.5,379.1621" style="stroke:#181818;stroke-width:1.0;"/><line style="stroke:#181818;stroke-width:1.0;stroke-dasharray:2.0,2.0;" x1="28.5" x2="209.5" y1="379.1621" y2="379.1621"/><text fill="#000000" font-family="sans-serif" font-size="13" font-weight="bold" lengthAdjust="spacing" textLength="7" x="40.5" y="373.8994">6</text><text fill="#000000" font-family="sans-serif" font-size="13" lengthAdjust="spacing" textLength="142" x="51.5" y="373.8994">Green Spaces displayed</text><text fill="#888888" font-family="sans-serif" font-size="10" lengthAdjust="spacing" textLength="82" x="613.5" y="15.791">Design for US027</text><!--SRC=[fL8xQyCm4DxzAuxiXjAbaA5B2w4GBn7PiboiYoDG94Kw1_plQzajaHoR1Zhg7j_hn8ermIS5rHWuMGzxyVBw1YLiLM10hQ7nH0Q2mve2ND1WGnAE7V2PO2EguameoJz05DYoDUtbIBueiEQ-tay3Xc79eMTLAuU6ORM9328IxBzMmqHIM1hzi8QzrPhyPENUM5hTaRD1zOgwoMfi36BL3NbqLqJHvNicQGqxkhRKvwDZIFO41_CRJ9fMWfGQIXyvz5twVoYI0EQAEMMq7CdOAxeHFCin99K_eLpqiltnC8ikwM_yLFt3CIRe1_C4_cn6yHmHNLJhSHJ4-Ekb2avZHp85ou-QqOZg6m00]--></g></svg>