<?xml version="1.0" encoding="us-ascii" standalone="no"?><svg xmlns="http://www.w3.org/2000/svg" xmlns:xlink="http://www.w3.org/1999/xlink" contentStyleType="text/css" height="1080px" preserveAspectRatio="none" style="width:484px;height:1080px;background:#FFFFFF;" version="1.1" viewBox="0 0 484 1080" width="484px" zoomAndPan="magnify"><defs/><g><!--cluster Not yet concrete use cases--><g id="cluster_Not yet concrete use cases"><rect fill="none" height="259" rx="2.5" ry="2.5" style="stroke:#181818;stroke-width:1.0;" width="207" x="199.5" y="19"/><text fill="#000000" font-family="sans-serif" font-size="14" font-weight="bold" lengthAdjust="spacing" textLength="191" x="207.5" y="36.1074">Not yet concrete use cases</text></g><!--cluster emp--><g id="cluster_emp"><rect fill="none" height="449" rx="2.5" ry="2.5" style="stroke:#181818;stroke-width:1.0;" width="309" x="148.5" y="625"/><text fill="#000000" font-family="sans-serif" font-size="14" font-weight="bold" lengthAdjust="spacing" textLength="238" x="184" y="642.1074">Employees and team management</text></g><!--cluster Vehicles and machines management--><g id="cluster_Vehicles and machines management"><rect fill="none" height="299" rx="2.5" ry="2.5" style="stroke:#181818;stroke-width:1.0;" width="350" x="128" y="302"/><text fill="#000000" font-family="sans-serif" font-size="14" font-weight="bold" lengthAdjust="spacing" textLength="255" x="175.5" y="319.1074">Vehicles and machines management</text></g><g id="elem_GMN8"><path d="M226.5,56.5 L226.5,64.96 L84.05,50.05 L226.5,72.96 L226.5,101.082 A0,0 0 0 0 226.5,101.082 L379.5,101.082 A0,0 0 0 0 379.5,101.082 L379.5,66.5 L369.5,56.5 L226.5,56.5 A0,0 0 0 0 226.5,56.5 " fill="#FEFFDD" style="stroke:#181818;stroke-width:0.5;"/><path d="M369.5,56.5 L369.5,66.5 L379.5,66.5 L369.5,56.5 " fill="#FEFFDD" style="stroke:#181818;stroke-width:0.5;"/><text fill="#000000" font-family="sans-serif" font-size="13" lengthAdjust="spacing" textLength="132" x="232.5" y="75.5283">Actor identified but still</text><text fill="#000000" font-family="sans-serif" font-size="13" lengthAdjust="spacing" textLength="132" x="232.5" y="92.8193">no concrete use cases</text></g><g id="elem_GMN11"><path d="M226.5,136.5 L226.5,155 L60.87,159 L226.5,163 L226.5,181.082 A0,0 0 0 0 226.5,181.082 L379.5,181.082 A0,0 0 0 0 379.5,181.082 L379.5,146.5 L369.5,136.5 L226.5,136.5 A0,0 0 0 0 226.5,136.5 " fill="#FEFFDD" style="stroke:#181818;stroke-width:0.5;"/><path d="M369.5,136.5 L369.5,146.5 L379.5,146.5 L369.5,136.5 " fill="#FEFFDD" style="stroke:#181818;stroke-width:0.5;"/><text fill="#000000" font-family="sans-serif" font-size="13" lengthAdjust="spacing" textLength="132" x="232.5" y="155.5283">Actor identified but still</text><text fill="#000000" font-family="sans-serif" font-size="13" lengthAdjust="spacing" textLength="132" x="232.5" y="172.8193">no concrete use cases</text></g><g id="elem_GMN14"><path d="M226.5,216.5 L226.5,245.05 L59.76,271.17 L226.5,253.05 L226.5,261.082 A0,0 0 0 0 226.5,261.082 L379.5,261.082 A0,0 0 0 0 379.5,261.082 L379.5,226.5 L369.5,216.5 L226.5,216.5 A0,0 0 0 0 226.5,216.5 " fill="#FEFFDD" style="stroke:#181818;stroke-width:0.5;"/><path d="M369.5,216.5 L369.5,226.5 L379.5,226.5 L369.5,216.5 " fill="#FEFFDD" style="stroke:#181818;stroke-width:0.5;"/><text fill="#000000" font-family="sans-serif" font-size="13" lengthAdjust="spacing" textLength="132" x="232.5" y="235.5283">Actor identified but still</text><text fill="#000000" font-family="sans-serif" font-size="13" lengthAdjust="spacing" textLength="132" x="232.5" y="252.8193">no concrete use cases</text></g><g id="elem_UC1"><ellipse cx="303.1884" cy="684.0377" fill="#F1F1F1" rx="95.6884" ry="21.5377" style="stroke:#181818;stroke-width:0.5;"/><text fill="#000000" font-family="sans-serif" font-size="14" lengthAdjust="spacing" textLength="148" x="226.7253" y="688.6811">UC1 - To register a skill</text></g><g id="elem_UC2"><ellipse cx="303.0286" cy="762.2057" fill="#F1F1F1" rx="94.0286" ry="21.2057" style="stroke:#181818;stroke-width:0.5;"/><text fill="#000000" font-family="sans-serif" font-size="14" lengthAdjust="spacing" textLength="144" x="228.0286" y="767.0094">UC2 - To register a job</text></g><g id="elem_UC3"><ellipse cx="302.772" cy="844.1544" fill="#F1F1F1" rx="118.772" ry="26.1544" style="stroke:#181818;stroke-width:0.5;"/><text fill="#000000" font-family="sans-serif" font-size="14" lengthAdjust="spacing" textLength="200" x="202.772" y="847.9513">UC3 - To register a collaborator</text></g><g id="elem_UC4"><ellipse cx="303.2329" cy="935.1466" fill="#F1F1F1" rx="138.7329" ry="30.1466" style="stroke:#181818;stroke-width:0.5;"/><text fill="#000000" font-family="sans-serif" font-size="14" lengthAdjust="spacing" textLength="243" x="181.7329" y="938.9434">UC4 - To assign skills to a collaborator</text></g><g id="elem_UC5"><ellipse cx="302.8509" cy="1028.8702" fill="#F1F1F1" rx="129.8509" ry="28.3702" style="stroke:#181818;stroke-width:0.5;"/><text fill="#000000" font-family="sans-serif" font-size="14" lengthAdjust="spacing" textLength="224" x="190.8509" y="1032.6671">UC5 - To generate a team proposal</text></g><g id="elem_UC6"><ellipse cx="302.7713" cy="362.8543" fill="#F1F1F1" rx="104.7713" ry="23.3543" style="stroke:#181818;stroke-width:0.5;"/><text fill="#000000" font-family="sans-serif" font-size="14" lengthAdjust="spacing" textLength="169" x="218.2713" y="366.6511">UC6 - To register a vehicle</text></g><g id="elem_UC7"><ellipse cx="302.7939" cy="451.9588" fill="#F1F1F1" rx="137.7939" ry="29.9588" style="stroke:#181818;stroke-width:0.5;"/><text fill="#000000" font-family="sans-serif" font-size="14" lengthAdjust="spacing" textLength="241" x="182.2939" y="455.7557">UC7 - To register a vehicle's check-up</text></g><g id="elem_UC8"><ellipse cx="303.103" cy="551.2206" fill="#F1F1F1" rx="159.103" ry="34.2206" style="stroke:#181818;stroke-width:0.5;"/><text fill="#000000" font-family="sans-serif" font-size="14" lengthAdjust="spacing" textLength="286" x="160.103" y="555.0175">UC8 - To list the vehicles in need of check-up</text></g><!--entity hrm--><g id="elem_hrm"><ellipse cx="45" cy="813" fill="#F1F1F1" rx="8" ry="8" style="stroke:#181818;stroke-width:0.5;"/><path d="M45,821 L45,848 M32,829 L58,829 M45,848 L32,863 M45,848 L58,863 " fill="none" style="stroke:#181818;stroke-width:0.5;"/><text fill="#000000" font-family="sans-serif" font-size="14" lengthAdjust="spacing" textLength="30" x="30" y="879.6074">HRM</text></g><!--entity vfm--><g id="elem_vfm"><ellipse cx="45" cy="421" fill="#F1F1F1" rx="8" ry="8" style="stroke:#181818;stroke-width:0.5;"/><path d="M45,429 L45,456 M32,437 L58,437 M45,456 L32,471 M45,456 L58,471 " fill="none" style="stroke:#181818;stroke-width:0.5;"/><text fill="#000000" font-family="sans-serif" font-size="14" lengthAdjust="spacing" textLength="29" x="30.5" y="487.6074">VFM</text></g><!--entity Collaborator--><g id="elem_Collaborator"><ellipse cx="45" cy="14" fill="#F1F1F1" rx="8" ry="8" style="stroke:#181818;stroke-width:0.5;"/><path d="M45,22 L45,49 M32,30 L58,30 M45,49 L32,64 M45,49 L58,64 " fill="none" style="stroke:#181818;stroke-width:0.5;"/><text fill="#000000" font-family="sans-serif" font-size="14" lengthAdjust="spacing" textLength="78" x="6" y="80.6074">Collaborator</text></g><!--entity GSM--><g id="elem_GSM"><ellipse cx="45" cy="128" fill="#F1F1F1" rx="8" ry="8" style="stroke:#181818;stroke-width:0.5;"/><path d="M45,136 L45,163 M32,144 L58,144 M45,163 L32,178 M45,163 L58,178 " fill="none" style="stroke:#181818;stroke-width:0.5;"/><text fill="#000000" font-family="sans-serif" font-size="14" lengthAdjust="spacing" textLength="31" x="29.5" y="194.6074">GSM</text></g><!--entity GSU--><g id="elem_GSU"><ellipse cx="45" cy="242" fill="#F1F1F1" rx="8" ry="8" style="stroke:#181818;stroke-width:0.5;"/><path d="M45,250 L45,277 M32,258 L58,258 M45,277 L32,292 M45,277 L58,292 " fill="none" style="stroke:#181818;stroke-width:0.5;"/><text fill="#000000" font-family="sans-serif" font-size="14" lengthAdjust="spacing" textLength="29" x="30.5" y="308.6074">GSU</text></g><!--link hrm to UC1--><g id="link_hrm_UC1"><path d="M60.11,805.13 C71.96,777.99 91.57,743.15 120,723 C146.1,704.5 173.318,695.504 204.148,690.164 " fill="none" id="hrm-to-UC1" style="stroke:#181818;stroke-width:1.0;"/><polygon fill="#181818" points="210.06,689.14,200.5094,686.7347,205.1334,689.9933,201.8747,694.6173,210.06,689.14" style="stroke:#181818;stroke-width:1.0;"/></g><!--link hrm to UC2--><g id="link_hrm_UC2"><path d="M60.01,833.74 C74.38,823.69 97.71,808.67 120,800 C152.34,787.42 183.7067,779.7727 216.0667,773.8927 " fill="none" id="hrm-to-UC2" style="stroke:#181818;stroke-width:1.0;"/><polygon fill="#181818" points="221.97,772.82,212.3999,770.4934,217.0506,773.7139,213.8301,778.3646,221.97,772.82" style="stroke:#181818;stroke-width:1.0;"/></g><!--link hrm to UC3--><g id="link_hrm_UC3"><path d="M60.13,844 C84.08,844 128.83,844 177.68,844 " fill="none" id="hrm-to-UC3" style="stroke:#181818;stroke-width:1.0;"/><polygon fill="#181818" points="183.68,844,174.68,840,178.68,844,174.68,848,183.68,844" style="stroke:#181818;stroke-width:1.0;"/></g><!--link hrm to UC4--><g id="link_hrm_UC4"><path d="M60.1,854.04 C74.54,863.92 97.92,878.81 120,888 C145.76,898.73 168.8003,906.0308 195.8103,913.0008 " fill="none" id="hrm-to-UC4" style="stroke:#181818;stroke-width:1.0;"/><polygon fill="#181818" points="201.62,914.5,193.9049,908.3781,196.7786,913.2507,191.906,916.1243,201.62,914.5" style="stroke:#181818;stroke-width:1.0;"/></g><!--link hrm to UC5--><g id="link_hrm_UC5"><path d="M57.28,883.7 C68.26,915.2 88.04,957.96 120,983 C139.63,998.38 157.9983,1007.0305 182.2183,1013.9105 " fill="none" id="hrm-to-UC5" style="stroke:#181818;stroke-width:1.0;"/><polygon fill="#181818" points="187.99,1015.55,180.4255,1009.243,183.1803,1014.1837,178.2395,1016.9385,187.99,1015.55" style="stroke:#181818;stroke-width:1.0;"/></g><!--link vfm to UC6--><g id="link_vfm_UC6"><path d="M59.62,441.03 C73.87,430.09 97.28,413.57 120,404 C150,391.37 178.6222,383.5449 209.4522,377.2249 " fill="none" id="vfm-to-UC6" style="stroke:#181818;stroke-width:1.0;"/><polygon fill="#181818" points="215.33,376.02,205.7101,373.9089,210.4319,377.0241,207.3166,381.7459,215.33,376.02" style="stroke:#181818;stroke-width:1.0;"/></g><!--link vfm to UC7--><g id="link_vfm_UC7"><path d="M59.76,452 C80.53,452 116.04,452 158.91,452 " fill="none" id="vfm-to-UC7" style="stroke:#181818;stroke-width:1.0;"/><polygon fill="#181818" points="164.91,452,155.91,448,159.91,452,155.91,456,164.91,452" style="stroke:#181818;stroke-width:1.0;"/></g><!--link vfm to UC8--><g id="link_vfm_UC8"><path d="M59.51,462.27 C73.85,472.76 97.51,488.9 120,499 C143.53,509.57 163.9943,516.8453 189.0243,524.2153 " fill="none" id="vfm-to-UC8" style="stroke:#181818;stroke-width:1.0;"/><polygon fill="#181818" points="194.78,525.91,187.2763,519.5308,189.9836,524.4977,185.0167,527.205,194.78,525.91" style="stroke:#181818;stroke-width:1.0;"/></g><!--SRC=[hPDDRzim38Rl-XM4Bpdbi7oV1WnPjrswmxhqpiYqhKOM3Kdf41JzxwC_qYHoT-fyC43oVLvJ8Zq91-CQz5X3pOvrvRacYFv8wb9fK1-mf8TuiWIUT4HNMbAJYo9KcFCVuqeeq0PIIasYYQBU1O8jokkhmLAKIbag8aG6RyegGcvQFyDE4907TMGFsOzVzraR1QXyVLru_2O5IJyNr-ajMujxzYZ1LVhxm_rDj9EFlBKFsK-ESA88cfts50cEqgUMPaFseXnBek-HY_47ldIM9YSNJM4eX_qnGeZ6sgxi-1rNHIw7rbSbxkS-FsWwSjtz1rTulRsqkxgnV28AW2A9r2uEEjcEMloxqL3Tl7JEujQQGRRRVe8f_9QPKsb290y8iZlMTdgfflBPIFx4-q4yIyNpaLXVJMkWvYcrw2aCmPIkxoQqQ_aklKZfPK-Nv4Xq95Ht4utdXWEUpxNiCDbWc4u_lvtp4i-IU9x4YoHUAlLwCun7geosmongr9Ln4bpDOpI8rUYoddkFeULL2gp_1Km2w8hqONfi1dQTifkUjK92hEXC1Z0E7CacofOc7flEe_szXpElqiGwJMpQM_aB]--></g></svg>