<?xml version="1.0" encoding="us-ascii" standalone="no"?><svg xmlns="http://www.w3.org/2000/svg" xmlns:xlink="http://www.w3.org/1999/xlink" contentStyleType="text/css" height="1026px" preserveAspectRatio="none" style="width:1318px;height:1026px;background:#FFFFFF;" version="1.1" viewBox="0 0 1318 1026" width="1318px" zoomAndPan="magnify"><defs/><g><text fill="#000000" font-family="sans-serif" font-size="14" font-weight="bold" lengthAdjust="spacing" textLength="267" x="524.5" y="30.1074">Loop of Registration of a Skill Process</text><rect fill="#FFFFFF" height="785.6055" style="stroke:#181818;stroke-width:1.0;" width="10" x="43" y="133.2422"/><rect fill="#FFFFFF" height="283.9492" style="stroke:#181818;stroke-width:1.0;" width="10" x="323" y="156.5332"/><rect fill="#FFFFFF" height="189.7461" style="stroke:#181818;stroke-width:1.0;" width="10" x="323" y="471.7734"/><rect fill="#FFFFFF" height="163.4551" style="stroke:#181818;stroke-width:1.0;" width="10" x="323" y="692.8105"/><rect fill="#FFFFFF" height="31.291" style="stroke:#181818;stroke-width:1.0;" width="10" x="323" y="887.5566"/><rect fill="#FFFFFF" height="158.7852" style="stroke:#181818;stroke-width:1.0;" width="10" x="479" y="224.1152"/><rect fill="#FFFFFF" height="93.873" style="stroke:#181818;stroke-width:1.0;" width="10" x="479" y="503.0645"/><rect fill="#FFFFFF" height="93.873" style="stroke:#181818;stroke-width:1.0;" width="10" x="479" y="724.1016"/><rect fill="#FFFFFF" height="31.291" style="stroke:#181818;stroke-width:1.0;" width="10" x="614.5" y="257.7363"/><rect fill="#FFFFFF" height="31.291" style="stroke:#181818;stroke-width:1.0;" width="10" x="721.5" y="320.3184"/><rect fill="#FFFFFF" height="31.291" style="stroke:#181818;stroke-width:1.0;" width="10" x="837" y="534.3555"/><rect fill="#FFFFFF" height="31.291" style="stroke:#181818;stroke-width:1.0;" width="10" x="837" y="755.3926"/><rect fill="none" height="755.3145" style="stroke:#000000;stroke-width:1.5;" width="909" x="10" y="171.5332"/><rect fill="none" height="207.0371" style="stroke:#000000;stroke-width:1.5;" width="889" x="20" y="397.9004"/><rect fill="none" height="207.0371" style="stroke:#000000;stroke-width:1.5;" width="889" x="20" y="618.9375"/><line style="stroke:#181818;stroke-width:0.5;stroke-dasharray:5.0,5.0;" x1="48" x2="48" y1="123.2422" y2="943.8477"/><line style="stroke:#181818;stroke-width:0.5;stroke-dasharray:5.0,5.0;" x1="328" x2="328" y1="123.2422" y2="943.8477"/><line style="stroke:#181818;stroke-width:0.5;stroke-dasharray:5.0,5.0;" x1="484" x2="484" y1="222.6348" y2="943.8477"/><line style="stroke:#181818;stroke-width:0.5;stroke-dasharray:5.0,5.0;" x1="619" x2="619" y1="123.2422" y2="943.8477"/><line style="stroke:#181818;stroke-width:0.5;stroke-dasharray:5.0,5.0;" x1="726" x2="726" y1="123.2422" y2="943.8477"/><line style="stroke:#181818;stroke-width:0.5;stroke-dasharray:5.0,5.0;" x1="842" x2="842" y1="123.2422" y2="943.8477"/><line style="stroke:#181818;stroke-width:0.5;stroke-dasharray:5.0,5.0;" x1="977" x2="977" y1="123.2422" y2="943.8477"/><line style="stroke:#181818;stroke-width:0.5;stroke-dasharray:5.0,5.0;" x1="1124" x2="1124" y1="123.2422" y2="943.8477"/><line style="stroke:#181818;stroke-width:0.5;stroke-dasharray:5.0,5.0;" x1="1257" x2="1257" y1="123.2422" y2="943.8477"/><text fill="#000000" font-family="sans-serif" font-size="14" lengthAdjust="spacing" textLength="30" x="30" y="119.7285">HRM</text><ellipse cx="48" cy="53.1211" fill="#E3E3E3" rx="8" ry="8" style="stroke:#181818;stroke-width:0.5;"/><path d="M48,61.1211 L48,88.1211 M35,69.1211 L61,69.1211 M48,88.1211 L35,103.1211 M48,88.1211 L61,103.1211 " fill="none" style="stroke:#181818;stroke-width:0.5;"/><text fill="#000000" font-family="sans-serif" font-size="14" lengthAdjust="spacing" textLength="30" x="30" y="957.9551">HRM</text><ellipse cx="48" cy="969.9688" fill="#E3E3E3" rx="8" ry="8" style="stroke:#181818;stroke-width:0.5;"/><path d="M48,977.9688 L48,1004.9688 M35,985.9688 L61,985.9688 M48,1004.9688 L35,1019.9688 M48,1004.9688 L61,1019.9688 " fill="none" style="stroke:#181818;stroke-width:0.5;"/><rect fill="#E3E3E3" height="32.6211" rx="2.5" ry="2.5" style="stroke:#181818;stroke-width:0.5;" width="104" x="276" y="89.6211"/><text fill="#000000" font-family="sans-serif" font-size="14" lengthAdjust="spacing" textLength="90" x="283" y="111.7285">:CreateTaskUI</text><rect fill="#E3E3E3" height="32.6211" rx="2.5" ry="2.5" style="stroke:#181818;stroke-width:0.5;" width="104" x="276" y="942.8477"/><text fill="#000000" font-family="sans-serif" font-size="14" lengthAdjust="spacing" textLength="90" x="283" y="964.9551">:CreateTaskUI</text><rect fill="#E3E3E3" height="32.6211" rx="2.5" ry="2.5" style="stroke:#181818;stroke-width:0.5;" width="154" x="407" y="942.8477"/><text fill="#000000" font-family="sans-serif" font-size="14" lengthAdjust="spacing" textLength="140" x="414" y="964.9551">:CreateTaskController</text><rect fill="#E3E3E3" height="32.6211" rx="2.5" ry="2.5" style="stroke:#181818;stroke-width:0.5;" width="97" x="571" y="89.6211"/><text fill="#000000" font-family="sans-serif" font-size="14" lengthAdjust="spacing" textLength="83" x="578" y="111.7285">:Repositories</text><rect fill="#E3E3E3" height="32.6211" rx="2.5" ry="2.5" style="stroke:#181818;stroke-width:0.5;" width="97" x="571" y="942.8477"/><text fill="#000000" font-family="sans-serif" font-size="14" lengthAdjust="spacing" textLength="83" x="578" y="964.9551">:Repositories</text><rect fill="#E3E3E3" height="51.2422" rx="2.5" ry="2.5" style="stroke:#181818;stroke-width:0.5;" width="97" x="678" y="71"/><text fill="#000000" font-family="sans-serif" font-size="14" lengthAdjust="spacing" textLength="74" x="689.5" y="93.1074">repositories</text><text fill="#000000" font-family="sans-serif" font-size="14" lengthAdjust="spacing" textLength="83" x="685" y="111.7285">:Repositories</text><rect fill="#E3E3E3" height="51.2422" rx="2.5" ry="2.5" style="stroke:#181818;stroke-width:0.5;" width="97" x="678" y="942.8477"/><text fill="#000000" font-family="sans-serif" font-size="14" lengthAdjust="spacing" textLength="74" x="689.5" y="964.9551">repositories</text><text fill="#000000" font-family="sans-serif" font-size="14" lengthAdjust="spacing" textLength="83" x="685" y="983.5762">:Repositories</text><rect fill="#E3E3E3" height="32.6211" rx="2.5" ry="2.5" style="stroke:#181818;stroke-width:0.5;" width="114" x="785" y="89.6211"/><text fill="#000000" font-family="sans-serif" font-size="14" lengthAdjust="spacing" textLength="100" x="792" y="111.7285">SkillsRepository</text><rect fill="#E3E3E3" height="32.6211" rx="2.5" ry="2.5" style="stroke:#181818;stroke-width:0.5;" width="114" x="785" y="942.8477"/><text fill="#000000" font-family="sans-serif" font-size="14" lengthAdjust="spacing" textLength="100" x="792" y="964.9551">SkillsRepository</text><rect fill="#E3E3E3" height="32.6211" rx="2.5" ry="2.5" style="stroke:#181818;stroke-width:0.5;" width="137" x="909" y="89.6211"/><text fill="#000000" font-family="sans-serif" font-size="14" lengthAdjust="spacing" textLength="123" x="916" y="111.7285">:ApplicationSession</text><rect fill="#E3E3E3" height="32.6211" rx="2.5" ry="2.5" style="stroke:#181818;stroke-width:0.5;" width="137" x="909" y="942.8477"/><text fill="#000000" font-family="sans-serif" font-size="14" lengthAdjust="spacing" textLength="123" x="916" y="964.9551">:ApplicationSession</text><rect fill="#E3E3E3" height="51.2422" rx="2.5" ry="2.5" style="stroke:#181818;stroke-width:0.5;" width="137" x="1056" y="71"/><text fill="#000000" font-family="sans-serif" font-size="14" lengthAdjust="spacing" textLength="74" x="1087.5" y="93.1074">appSession</text><text fill="#000000" font-family="sans-serif" font-size="14" lengthAdjust="spacing" textLength="123" x="1063" y="111.7285">:ApplicationSession</text><rect fill="#E3E3E3" height="51.2422" rx="2.5" ry="2.5" style="stroke:#181818;stroke-width:0.5;" width="137" x="1056" y="942.8477"/><text fill="#000000" font-family="sans-serif" font-size="14" lengthAdjust="spacing" textLength="74" x="1087.5" y="964.9551">appSession</text><text fill="#000000" font-family="sans-serif" font-size="14" lengthAdjust="spacing" textLength="123" x="1063" y="983.5762">:ApplicationSession</text><rect fill="#E3E3E3" height="51.2422" rx="2.5" ry="2.5" style="stroke:#181818;stroke-width:0.5;" width="109" x="1203" y="71"/><text fill="#000000" font-family="sans-serif" font-size="14" lengthAdjust="spacing" textLength="95" x="1210" y="93.1074">currentSession</text><text fill="#000000" font-family="sans-serif" font-size="14" lengthAdjust="spacing" textLength="83" x="1216" y="111.7285">:UserSession</text><rect fill="#E3E3E3" height="51.2422" rx="2.5" ry="2.5" style="stroke:#181818;stroke-width:0.5;" width="109" x="1203" y="942.8477"/><text fill="#000000" font-family="sans-serif" font-size="14" lengthAdjust="spacing" textLength="95" x="1210" y="964.9551">currentSession</text><text fill="#000000" font-family="sans-serif" font-size="14" lengthAdjust="spacing" textLength="83" x="1216" y="983.5762">:UserSession</text><rect fill="#FFFFFF" height="785.6055" style="stroke:#181818;stroke-width:1.0;" width="10" x="43" y="133.2422"/><rect fill="#FFFFFF" height="283.9492" style="stroke:#181818;stroke-width:1.0;" width="10" x="323" y="156.5332"/><rect fill="#FFFFFF" height="189.7461" style="stroke:#181818;stroke-width:1.0;" width="10" x="323" y="471.7734"/><rect fill="#FFFFFF" height="163.4551" style="stroke:#181818;stroke-width:1.0;" width="10" x="323" y="692.8105"/><rect fill="#FFFFFF" height="31.291" style="stroke:#181818;stroke-width:1.0;" width="10" x="323" y="887.5566"/><rect fill="#FFFFFF" height="158.7852" style="stroke:#181818;stroke-width:1.0;" width="10" x="479" y="224.1152"/><rect fill="#FFFFFF" height="93.873" style="stroke:#181818;stroke-width:1.0;" width="10" x="479" y="503.0645"/><rect fill="#FFFFFF" height="93.873" style="stroke:#181818;stroke-width:1.0;" width="10" x="479" y="724.1016"/><rect fill="#FFFFFF" height="31.291" style="stroke:#181818;stroke-width:1.0;" width="10" x="614.5" y="257.7363"/><rect fill="#FFFFFF" height="31.291" style="stroke:#181818;stroke-width:1.0;" width="10" x="721.5" y="320.3184"/><rect fill="#FFFFFF" height="31.291" style="stroke:#181818;stroke-width:1.0;" width="10" x="837" y="534.3555"/><rect fill="#FFFFFF" height="31.291" style="stroke:#181818;stroke-width:1.0;" width="10" x="837" y="755.3926"/><polygon fill="#181818" points="311,152.5332,321,156.5332,311,160.5332,315,156.5332" style="stroke:#181818;stroke-width:1.0;"/><line style="stroke:#181818;stroke-width:1.0;" x1="53" x2="317" y1="156.5332" y2="156.5332"/><text fill="#000000" font-family="sans-serif" font-size="13" font-weight="bold" lengthAdjust="spacing" textLength="7" x="60" y="151.2705">1</text><text fill="#000000" font-family="sans-serif" font-size="13" lengthAdjust="spacing" textLength="130" x="71" y="151.2705">asks to register a Skill</text><path d="M10,171.5332 L83,171.5332 L83,180.8242 L73,190.8242 L10,190.8242 L10,171.5332 " fill="#EEEEEE" style="stroke:#000000;stroke-width:1.5;"/><rect fill="none" height="755.3145" style="stroke:#000000;stroke-width:1.5;" width="909" x="10" y="171.5332"/><text fill="#000000" font-family="sans-serif" font-size="13" font-weight="bold" lengthAdjust="spacing" textLength="28" x="25" y="186.5615">loop</text><polygon fill="#181818" points="395,210.1152,405,214.1152,395,218.1152,399,214.1152" style="stroke:#181818;stroke-width:1.0;"/><line style="stroke:#181818;stroke-width:1.0;" x1="333" x2="401" y1="214.1152" y2="214.1152"/><text fill="#000000" font-family="sans-serif" font-size="13" font-weight="bold" lengthAdjust="spacing" textLength="7" x="340" y="208.8525">2</text><text fill="#000000" font-family="sans-serif" font-size="13" lengthAdjust="spacing" textLength="36" x="351" y="208.8525">create</text><rect fill="#E3E3E3" height="32.6211" rx="2.5" ry="2.5" style="stroke:#181818;stroke-width:0.5;" width="154" x="407" y="190.8242"/><text fill="#000000" font-family="sans-serif" font-size="14" lengthAdjust="spacing" textLength="140" x="414" y="212.9316">:CreateTaskController</text><polygon fill="#181818" points="602.5,253.7363,612.5,257.7363,602.5,261.7363,606.5,257.7363" style="stroke:#181818;stroke-width:1.0;"/><line style="stroke:#181818;stroke-width:1.0;" x1="489" x2="608.5" y1="257.7363" y2="257.7363"/><text fill="#000000" font-family="sans-serif" font-size="13" font-weight="bold" lengthAdjust="spacing" textLength="7" x="496" y="252.4736">3</text><text fill="#000000" font-family="sans-serif" font-size="13" lengthAdjust="spacing" textLength="75" x="507" y="252.4736">getInstance()</text><polygon fill="#181818" points="500,285.0273,490,289.0273,500,293.0273,496,289.0273" style="stroke:#181818;stroke-width:1.0;"/><line style="stroke:#181818;stroke-width:1.0;stroke-dasharray:2.0,2.0;" x1="494" x2="618.5" y1="289.0273" y2="289.0273"/><text fill="#000000" font-family="sans-serif" font-size="13" font-weight="bold" lengthAdjust="spacing" textLength="7" x="506" y="283.7646">4</text><text fill="#000000" font-family="sans-serif" font-size="13" lengthAdjust="spacing" textLength="67" x="517" y="283.7646">repositories</text><polygon fill="#181818" points="709.5,316.3184,719.5,320.3184,709.5,324.3184,713.5,320.3184" style="stroke:#181818;stroke-width:1.0;"/><line style="stroke:#181818;stroke-width:1.0;" x1="489" x2="715.5" y1="320.3184" y2="320.3184"/><text fill="#000000" font-family="sans-serif" font-size="13" font-weight="bold" lengthAdjust="spacing" textLength="7" x="496" y="315.0557">5</text><text fill="#000000" font-family="sans-serif" font-size="13" lengthAdjust="spacing" textLength="120" x="507" y="315.0557">getSkillsRepository()</text><polygon fill="#181818" points="500,347.6094,490,351.6094,500,355.6094,496,351.6094" style="stroke:#181818;stroke-width:1.0;"/><line style="stroke:#181818;stroke-width:1.0;stroke-dasharray:2.0,2.0;" x1="494" x2="725.5" y1="351.6094" y2="351.6094"/><text fill="#000000" font-family="sans-serif" font-size="13" font-weight="bold" lengthAdjust="spacing" textLength="7" x="506" y="346.3467">6</text><text fill="#000000" font-family="sans-serif" font-size="13" lengthAdjust="spacing" textLength="92" x="517" y="346.3467">skillsRepository</text><polygon fill="#181818" points="344,378.9004,334,382.9004,344,386.9004,340,382.9004" style="stroke:#181818;stroke-width:1.0;"/><line style="stroke:#181818;stroke-width:1.0;stroke-dasharray:2.0,2.0;" x1="338" x2="483" y1="382.9004" y2="382.9004"/><text fill="#000000" font-family="sans-serif" font-size="13" font-weight="bold" lengthAdjust="spacing" textLength="7" x="350" y="377.6377">7</text><text fill="#000000" font-family="sans-serif" font-size="13" lengthAdjust="spacing" textLength="4" x="361" y="377.6377">&#160;</text><path d="M20,397.9004 L93,397.9004 L93,407.1914 L83,417.1914 L20,417.1914 L20,397.9004 " fill="#EEEEEE" style="stroke:#000000;stroke-width:1.5;"/><rect fill="none" height="207.0371" style="stroke:#000000;stroke-width:1.5;" width="889" x="20" y="397.9004"/><text fill="#000000" font-family="sans-serif" font-size="13" font-weight="bold" lengthAdjust="spacing" textLength="28" x="35" y="412.9287">loop</text><text fill="#000000" font-family="sans-serif" font-size="11" font-weight="bold" lengthAdjust="spacing" textLength="107" x="108" y="411.7705">[if boolean == false]</text><polygon fill="#181818" points="64,436.4824,54,440.4824,64,444.4824,60,440.4824" style="stroke:#181818;stroke-width:1.0;"/><line style="stroke:#181818;stroke-width:1.0;stroke-dasharray:2.0,2.0;" x1="58" x2="327" y1="440.4824" y2="440.4824"/><text fill="#000000" font-family="sans-serif" font-size="13" font-weight="bold" lengthAdjust="spacing" textLength="7" x="70" y="435.2197">8</text><text fill="#000000" font-family="sans-serif" font-size="13" lengthAdjust="spacing" textLength="91" x="81" y="435.2197">requests skill Id</text><polygon fill="#181818" points="311,467.7734,321,471.7734,311,475.7734,315,471.7734" style="stroke:#181818;stroke-width:1.0;"/><line style="stroke:#181818;stroke-width:1.0;" x1="53" x2="317" y1="471.7734" y2="471.7734"/><text fill="#000000" font-family="sans-serif" font-size="13" font-weight="bold" lengthAdjust="spacing" textLength="7" x="60" y="466.5107">9</text><text fill="#000000" font-family="sans-serif" font-size="13" lengthAdjust="spacing" textLength="76" x="71" y="466.5107">inputs skill Id</text><polygon fill="#181818" points="467,499.0645,477,503.0645,467,507.0645,471,503.0645" style="stroke:#181818;stroke-width:1.0;"/><line style="stroke:#181818;stroke-width:1.0;" x1="333" x2="473" y1="503.0645" y2="503.0645"/><text fill="#000000" font-family="sans-serif" font-size="13" font-weight="bold" lengthAdjust="spacing" textLength="14" x="340" y="497.8018">10</text><text fill="#000000" font-family="sans-serif" font-size="13" lengthAdjust="spacing" textLength="101" x="358" y="497.8018">skillExists(skillId)</text><polygon fill="#181818" points="825,530.3555,835,534.3555,825,538.3555,829,534.3555" style="stroke:#181818;stroke-width:1.0;"/><line style="stroke:#181818;stroke-width:1.0;" x1="489" x2="831" y1="534.3555" y2="534.3555"/><text fill="#000000" font-family="sans-serif" font-size="13" font-weight="bold" lengthAdjust="spacing" textLength="14" x="496" y="529.0928">11</text><text fill="#000000" font-family="sans-serif" font-size="13" lengthAdjust="spacing" textLength="76" x="514" y="529.0928">exists(skillId)</text><polygon fill="#181818" points="500,561.6465,490,565.6465,500,569.6465,496,565.6465" style="stroke:#181818;stroke-width:1.0;"/><line style="stroke:#181818;stroke-width:1.0;stroke-dasharray:2.0,2.0;" x1="494" x2="841" y1="565.6465" y2="565.6465"/><text fill="#000000" font-family="sans-serif" font-size="13" font-weight="bold" lengthAdjust="spacing" textLength="14" x="506" y="560.3838">12</text><text fill="#000000" font-family="sans-serif" font-size="13" lengthAdjust="spacing" textLength="89" x="524" y="560.3838">returns boolean</text><polygon fill="#181818" points="344,592.9375,334,596.9375,344,600.9375,340,596.9375" style="stroke:#181818;stroke-width:1.0;"/><line style="stroke:#181818;stroke-width:1.0;stroke-dasharray:2.0,2.0;" x1="338" x2="483" y1="596.9375" y2="596.9375"/><text fill="#000000" font-family="sans-serif" font-size="13" font-weight="bold" lengthAdjust="spacing" textLength="14" x="350" y="591.6748">13</text><text fill="#000000" font-family="sans-serif" font-size="13" lengthAdjust="spacing" textLength="89" x="368" y="591.6748">returns boolean</text><path d="M20,618.9375 L93,618.9375 L93,628.2285 L83,638.2285 L20,638.2285 L20,618.9375 " fill="#EEEEEE" style="stroke:#000000;stroke-width:1.5;"/><rect fill="none" height="207.0371" style="stroke:#000000;stroke-width:1.5;" width="889" x="20" y="618.9375"/><text fill="#000000" font-family="sans-serif" font-size="13" font-weight="bold" lengthAdjust="spacing" textLength="28" x="35" y="633.9658">loop</text><text fill="#000000" font-family="sans-serif" font-size="11" font-weight="bold" lengthAdjust="spacing" textLength="107" x="108" y="632.8076">[if boolean == false]</text><polygon fill="#181818" points="64,657.5195,54,661.5195,64,665.5195,60,661.5195" style="stroke:#181818;stroke-width:1.0;"/><line style="stroke:#181818;stroke-width:1.0;stroke-dasharray:2.0,2.0;" x1="58" x2="327" y1="661.5195" y2="661.5195"/><text fill="#000000" font-family="sans-serif" font-size="13" font-weight="bold" lengthAdjust="spacing" textLength="14" x="70" y="656.2568">14</text><text fill="#000000" font-family="sans-serif" font-size="13" lengthAdjust="spacing" textLength="131" x="88" y="656.2568">asks for the skill name</text><polygon fill="#181818" points="311,688.8105,321,692.8105,311,696.8105,315,692.8105" style="stroke:#181818;stroke-width:1.0;"/><line style="stroke:#181818;stroke-width:1.0;" x1="53" x2="317" y1="692.8105" y2="692.8105"/><text fill="#000000" font-family="sans-serif" font-size="13" font-weight="bold" lengthAdjust="spacing" textLength="14" x="60" y="687.5479">15</text><text fill="#000000" font-family="sans-serif" font-size="13" lengthAdjust="spacing" textLength="98" x="78" y="687.5479">inputs skill name</text><polygon fill="#181818" points="467,720.1016,477,724.1016,467,728.1016,471,724.1016" style="stroke:#181818;stroke-width:1.0;"/><line style="stroke:#181818;stroke-width:1.0;" x1="333" x2="473" y1="724.1016" y2="724.1016"/><text fill="#000000" font-family="sans-serif" font-size="13" font-weight="bold" lengthAdjust="spacing" textLength="14" x="340" y="718.8389">16</text><text fill="#000000" font-family="sans-serif" font-size="13" lengthAdjust="spacing" textLength="109" x="358" y="718.8389">nameExists(name)</text><polygon fill="#181818" points="825,751.3926,835,755.3926,825,759.3926,829,755.3926" style="stroke:#181818;stroke-width:1.0;"/><line style="stroke:#181818;stroke-width:1.0;" x1="489" x2="831" y1="755.3926" y2="755.3926"/><text fill="#000000" font-family="sans-serif" font-size="13" font-weight="bold" lengthAdjust="spacing" textLength="14" x="496" y="750.1299">17</text><text fill="#000000" font-family="sans-serif" font-size="13" lengthAdjust="spacing" textLength="75" x="514" y="750.1299">exists(name)</text><polygon fill="#181818" points="500,782.6836,490,786.6836,500,790.6836,496,786.6836" style="stroke:#181818;stroke-width:1.0;"/><line style="stroke:#181818;stroke-width:1.0;stroke-dasharray:2.0,2.0;" x1="494" x2="841" y1="786.6836" y2="786.6836"/><text fill="#000000" font-family="sans-serif" font-size="13" font-weight="bold" lengthAdjust="spacing" textLength="14" x="506" y="781.4209">18</text><text fill="#000000" font-family="sans-serif" font-size="13" lengthAdjust="spacing" textLength="89" x="524" y="781.4209">returns boolean</text><polygon fill="#181818" points="344,813.9746,334,817.9746,344,821.9746,340,817.9746" style="stroke:#181818;stroke-width:1.0;"/><line style="stroke:#181818;stroke-width:1.0;stroke-dasharray:2.0,2.0;" x1="338" x2="483" y1="817.9746" y2="817.9746"/><text fill="#000000" font-family="sans-serif" font-size="13" font-weight="bold" lengthAdjust="spacing" textLength="14" x="350" y="812.7119">19</text><text fill="#000000" font-family="sans-serif" font-size="13" lengthAdjust="spacing" textLength="89" x="368" y="812.7119">returns boolean</text><polygon fill="#181818" points="64,852.2656,54,856.2656,64,860.2656,60,856.2656" style="stroke:#181818;stroke-width:1.0;"/><line style="stroke:#181818;stroke-width:1.0;stroke-dasharray:2.0,2.0;" x1="58" x2="327" y1="856.2656" y2="856.2656"/><text fill="#000000" font-family="sans-serif" font-size="13" font-weight="bold" lengthAdjust="spacing" textLength="14" x="70" y="851.0029">20</text><text fill="#000000" font-family="sans-serif" font-size="13" lengthAdjust="spacing" textLength="228" x="88" y="851.0029">asks for confirmation on the registration</text><polygon fill="#181818" points="311,883.5566,321,887.5566,311,891.5566,315,887.5566" style="stroke:#181818;stroke-width:1.0;"/><line style="stroke:#181818;stroke-width:1.0;stroke-dasharray:2.0,2.0;" x1="53" x2="317" y1="887.5566" y2="887.5566"/><text fill="#000000" font-family="sans-serif" font-size="13" font-weight="bold" lengthAdjust="spacing" textLength="14" x="60" y="882.2939">21</text><text fill="#000000" font-family="sans-serif" font-size="13" lengthAdjust="spacing" textLength="46" x="78" y="882.2939">negates</text><polygon fill="#181818" points="59,914.8477,49,918.8477,59,922.8477,55,918.8477" style="stroke:#181818;stroke-width:1.0;"/><line style="stroke:#181818;stroke-width:1.0;stroke-dasharray:2.0,2.0;" x1="53" x2="327" y1="918.8477" y2="918.8477"/><text fill="#000000" font-family="sans-serif" font-size="13" font-weight="bold" lengthAdjust="spacing" textLength="14" x="65" y="913.585">22</text><text fill="#000000" font-family="sans-serif" font-size="13" lengthAdjust="spacing" textLength="225" x="83" y="913.585">rollbacks and runs the UI from the start</text><!--SRC=[fLPTZzem47pthrZnqkCa_W3ILK8KgKYSYWYyLQfCiWaMYPtQJdltxxisWNpdSgfVmCdiUBmpicEkGkPSymmo9LLuqIf3iBf0PXvlSXvUUOA1VKyHD8QMooIj0yo5H-gla0d4F3N8hB24t2cLWuhXW8amLdChb7Hp3i5Lf2dijGhH6COBgsIHdL4pzkKY8eHOANjMRuo7LccOVJ-ype0RM7rxPRIW5Q78kRGmMwurSej7RgwdhOUSjeE8jP9MgpH5xP7hus7NmXumLqRGaWADnpmUl0V2RPbqDajqhUAdx1BiTwjZiy9ltLJ4jtKs-vQKLPwd8lGj2wX7zEE1lrRx5fBdUGcWzGUgEaLXeJLAMnMU3EfwHR09WjKFHeCi47-eWxxv3Cf14rXyfMx3ak1N0rPHC9pDgE_-LkYKWl2OF0Z9gWhY1h4Hf_Fb-PbuG-zS0_6ezUOrNhadhhp7Ck9Aq6wbeTo6-3Jlf-ppke7iOrwKWfTGJqAZBCBfIzmtuM9pKzsEov1w7xJ6AyzHwJCjeY6DdgYhoPizLDDrmpaE8eQpKYbo2IylvSdGzfjuNPPS_tuNQAov2OLjr80EBDoIL1_rXD8nLKnXRaIpFvbGTdBpHbatJ_x_DffFJMaZgPiziU48KJEVT4RqAdSyYqgUHbjeQUwjPoFjwwMi-Vq1Mpi1zNSee_zDX3zNOZh_xGLBxoJFa4tBmg3_7OvfhhkoqdJtT_xfSwdkzWX3nvDFs3jYxMHNHqnrddveLgXaB7HMNlRIcwTh7m1iYdlUlBjOYGaX6eVgg6KtJRH9kklFzELYWCi8T47xTM884jD7pYrLbcv5rfN2QbD_xxcj_mC0]--></g></svg>