<?xml version="1.0" encoding="us-ascii" standalone="no"?><svg xmlns="http://www.w3.org/2000/svg" xmlns:xlink="http://www.w3.org/1999/xlink" contentStyleType="text/css" height="575.2px" preserveAspectRatio="none" style="width:1575px;height:575px;background:#FFFFFF;" version="1.1" viewBox="0 0 1575 575" width="1575.2px" zoomAndPan="magnify"><defs/><g><text fill="#000000" font-family="sans-serif" font-size="11.2" font-weight="bold" lengthAdjust="spacing" textLength="116.8" x="723.8" y="20.0859">US001 Class Diagram</text><!--class ApplicationSession--><g id="elem_ApplicationSession"><rect codeLine="12" fill="#F1F1F1" height="68.1938" id="ApplicationSession" rx="2" ry="2" style="stroke:#181818;stroke-width:0.4000000000000001;" width="120.8" x="984" y="362.8969"/><ellipse cx="996" cy="375.6969" fill="#ADD1B2" rx="8.8" ry="8.8" style="stroke:#181818;stroke-width:0.8000000000000002;"/><path d="M998.8125,376.7844 Q998.6375,379.4844 997.725,380.3844 Q996.925,381.1844 995.825,381.1844 Q994.725,381.1844 993.925,380.3844 Q992.5375,378.9969 992.5375,376.0844 Q992.5375,372.7094 994.025,371.2094 Q994.8375,370.4094 995.875,370.4094 Q996.975,370.4094 997.625,371.0469 Q998.8,372.2344 998.75,374.4469 L997.15,374.4469 Q997.1,372.6219 996.575,372.0969 Q996.325,371.8344 995.875,371.8344 Q995.4875,371.8344 995.175,372.1469 Q994.175,373.1469 994.175,375.9844 Q994.175,378.4469 995.025,379.2844 Q995.3875,379.6469 995.825,379.6469 Q996.2125,379.6469 996.575,379.2844 Q997.05,378.8219 997.1,376.7844 L998.8125,376.7844 Z " fill="#000000"/><text fill="#000000" font-family="sans-serif" font-size="11.2" lengthAdjust="spacing" textLength="95.2" x="1007.2" y="380.3344">ApplicationSession</text><line style="stroke:#181818;stroke-width:0.4000000000000001;" x1="984.8" x2="1104" y1="388.4969" y2="388.4969"/><line style="stroke:#181818;stroke-width:0.4000000000000001;" x1="984.8" x2="1104" y1="394.8969" y2="394.8969"/><text fill="#000000" font-family="sans-serif" font-size="11.2" lengthAdjust="spacing" textLength="102.4" x="988.8" y="410.1828">+static getInstance()</text><text fill="#000000" font-family="sans-serif" font-size="11.2" lengthAdjust="spacing" textLength="108.8" x="988.8" y="425.0797">+getCurrentSession()</text></g><!--class UserSession--><g id="elem_UserSession"><rect codeLine="18" fill="#F1F1F1" height="53.2969" id="UserSession" rx="2" ry="2" style="stroke:#181818;stroke-width:0.4000000000000001;" width="90.4" x="1124" y="516.4969"/><ellipse cx="1136.72" cy="529.2969" fill="#ADD1B2" rx="8.8" ry="8.8" style="stroke:#181818;stroke-width:0.8000000000000002;"/><path d="M1139.5325,530.3844 Q1139.3575,533.0844 1138.445,533.9844 Q1137.645,534.7844 1136.545,534.7844 Q1135.445,534.7844 1134.645,533.9844 Q1133.2575,532.5969 1133.2575,529.6844 Q1133.2575,526.3094 1134.745,524.8094 Q1135.5575,524.0094 1136.595,524.0094 Q1137.695,524.0094 1138.345,524.6469 Q1139.52,525.8344 1139.47,528.0469 L1137.87,528.0469 Q1137.82,526.2219 1137.295,525.6969 Q1137.045,525.4344 1136.595,525.4344 Q1136.2075,525.4344 1135.895,525.7469 Q1134.895,526.7469 1134.895,529.5844 Q1134.895,532.0469 1135.745,532.8844 Q1136.1075,533.2469 1136.545,533.2469 Q1136.9325,533.2469 1137.295,532.8844 Q1137.77,532.4219 1137.82,530.3844 L1139.5325,530.3844 Z " fill="#000000"/><text fill="#000000" font-family="sans-serif" font-size="11.2" lengthAdjust="spacing" textLength="63.2" x="1148.08" y="533.9344">UserSession</text><line style="stroke:#181818;stroke-width:0.4000000000000001;" x1="1124.8" x2="1213.6" y1="542.0969" y2="542.0969"/><line style="stroke:#181818;stroke-width:0.4000000000000001;" x1="1124.8" x2="1213.6" y1="548.4969" y2="548.4969"/><text fill="#000000" font-family="sans-serif" font-size="11.2" lengthAdjust="spacing" textLength="80.8" x="1128.8" y="563.7828">+getUserEmail()</text></g><!--class Vehicle--><g id="elem_Vehicle"><rect codeLine="24" fill="#F1F1F1" height="187.3688" id="Vehicle" rx="2" ry="2" style="stroke:#181818;stroke-width:0.4000000000000001;" width="153.6" x="1416.4" y="37.2969"/><ellipse cx="1471.4" cy="50.0969" fill="#ADD1B2" rx="8.8" ry="8.8" style="stroke:#181818;stroke-width:0.8000000000000002;"/><path d="M1474.2125,51.1844 Q1474.0375,53.8844 1473.125,54.7844 Q1472.325,55.5844 1471.225,55.5844 Q1470.125,55.5844 1469.325,54.7844 Q1467.9375,53.3969 1467.9375,50.4844 Q1467.9375,47.1094 1469.425,45.6094 Q1470.2375,44.8094 1471.275,44.8094 Q1472.375,44.8094 1473.025,45.4469 Q1474.2,46.6344 1474.15,48.8469 L1472.55,48.8469 Q1472.5,47.0219 1471.975,46.4969 Q1471.725,46.2344 1471.275,46.2344 Q1470.8875,46.2344 1470.575,46.5469 Q1469.575,47.5469 1469.575,50.3844 Q1469.575,52.8469 1470.425,53.6844 Q1470.7875,54.0469 1471.225,54.0469 Q1471.6125,54.0469 1471.975,53.6844 Q1472.45,53.2219 1472.5,51.1844 L1474.2125,51.1844 Z " fill="#000000"/><text fill="#000000" font-family="sans-serif" font-size="11.2" lengthAdjust="spacing" textLength="36.8" x="1487.8" y="54.7344">Vehicle</text><line style="stroke:#181818;stroke-width:0.4000000000000001;" x1="1417.2" x2="1569.2" y1="62.8969" y2="62.8969"/><text fill="#000000" font-family="sans-serif" font-size="11.2" lengthAdjust="spacing" textLength="73.6" x="1421.2" y="78.1828">-String plateId;</text><text fill="#000000" font-family="sans-serif" font-size="11.2" lengthAdjust="spacing" textLength="69.6" x="1421.2" y="93.0797">-String brand;</text><text fill="#000000" font-family="sans-serif" font-size="11.2" lengthAdjust="spacing" textLength="70.4" x="1421.2" y="107.9766">-String model;</text><text fill="#000000" font-family="sans-serif" font-size="11.2" lengthAdjust="spacing" textLength="61.6" x="1421.2" y="122.8734">-String type;</text><text fill="#000000" font-family="sans-serif" font-size="11.2" lengthAdjust="spacing" textLength="64.8" x="1421.2" y="137.7703">-double tare;</text><text fill="#000000" font-family="sans-serif" font-size="11.2" lengthAdjust="spacing" textLength="76.8" x="1421.2" y="152.6672">-double weight;</text><text fill="#000000" font-family="sans-serif" font-size="11.2" lengthAdjust="spacing" textLength="61.6" x="1421.2" y="167.5641">-int mileage;</text><text fill="#000000" font-family="sans-serif" font-size="11.2" lengthAdjust="spacing" textLength="101.6" x="1421.2" y="182.4609">-Date register_date;</text><text fill="#000000" font-family="sans-serif" font-size="11.2" lengthAdjust="spacing" textLength="116.8" x="1421.2" y="197.3578">-Date acquisition_date;</text><text fill="#000000" font-family="sans-serif" font-size="11.2" lengthAdjust="spacing" textLength="144" x="1421.2" y="212.2547">-int maintenance_frequency;</text><line style="stroke:#181818;stroke-width:0.4000000000000001;" x1="1417.2" x2="1569.2" y1="218.2656" y2="218.2656"/></g><!--class VehicleRepository--><g id="elem_VehicleRepository"><rect codeLine="39" fill="#F1F1F1" height="112.8844" id="VehicleRepository" rx="2" ry="2" style="stroke:#181818;stroke-width:0.4000000000000001;" width="869.6" x="5.6" y="340.4969"/><ellipse cx="391.4" cy="353.2969" fill="#ADD1B2" rx="8.8" ry="8.8" style="stroke:#181818;stroke-width:0.8000000000000002;"/><path d="M394.2125,354.3844 Q394.0375,357.0844 393.125,357.9844 Q392.325,358.7844 391.225,358.7844 Q390.125,358.7844 389.325,357.9844 Q387.9375,356.5969 387.9375,353.6844 Q387.9375,350.3094 389.425,348.8094 Q390.2375,348.0094 391.275,348.0094 Q392.375,348.0094 393.025,348.6469 Q394.2,349.8344 394.15,352.0469 L392.55,352.0469 Q392.5,350.2219 391.975,349.6969 Q391.725,349.4344 391.275,349.4344 Q390.8875,349.4344 390.575,349.7469 Q389.575,350.7469 389.575,353.5844 Q389.575,356.0469 390.425,356.8844 Q390.7875,357.2469 391.225,357.2469 Q391.6125,357.2469 391.975,356.8844 Q392.45,356.4219 392.5,354.3844 L394.2125,354.3844 Z " fill="#000000"/><text fill="#000000" font-family="sans-serif" font-size="11.2" lengthAdjust="spacing" textLength="91.2" x="407.8" y="357.9344">VehicleRepository</text><line style="stroke:#181818;stroke-width:0.4000000000000001;" x1="6.4" x2="874.4" y1="366.0969" y2="366.0969"/><text fill="#000000" font-family="sans-serif" font-size="11.2" lengthAdjust="spacing" textLength="115.2" x="10.4" y="381.3828">-List&lt;Vehicle&gt; vehicles</text><line style="stroke:#181818;stroke-width:0.4000000000000001;" x1="6.4" x2="874.4" y1="387.3938" y2="387.3938"/><text fill="#000000" font-family="sans-serif" font-size="11.2" lengthAdjust="spacing" textLength="105.6" x="10.4" y="402.6797">+VehicleRepository()</text><text fill="#000000" font-family="sans-serif" font-size="11.2" lengthAdjust="spacing" textLength="860" x="10.4" y="417.5766">+add(String plateId, String brand, String model, String type, double tare, double weight, int mileage, Date register_date, Date acquisition_date, int maintenance_frequency)</text><text fill="#000000" font-family="sans-serif" font-size="11.2" lengthAdjust="spacing" textLength="118.4" x="10.4" y="432.4734">+remove(String plateId)</text><text fill="#000000" font-family="sans-serif" font-size="11.2" lengthAdjust="spacing" textLength="108.8" x="10.4" y="447.3703">+exists(String plateId)</text></g><!--class Repositories--><g id="elem_Repositories"><rect codeLine="50" fill="#F1F1F1" height="68.1938" id="Repositories" rx="2" ry="2" style="stroke:#181818;stroke-width:0.4000000000000001;" width="155.2" x="654" y="248.4969"/><ellipse cx="696.6" cy="261.2969" fill="#ADD1B2" rx="8.8" ry="8.8" style="stroke:#181818;stroke-width:0.8000000000000002;"/><path d="M699.4125,262.3844 Q699.2375,265.0844 698.325,265.9844 Q697.525,266.7844 696.425,266.7844 Q695.325,266.7844 694.525,265.9844 Q693.1375,264.5969 693.1375,261.6844 Q693.1375,258.3094 694.625,256.8094 Q695.4375,256.0094 696.475,256.0094 Q697.575,256.0094 698.225,256.6469 Q699.4,257.8344 699.35,260.0469 L697.75,260.0469 Q697.7,258.2219 697.175,257.6969 Q696.925,257.4344 696.475,257.4344 Q696.0875,257.4344 695.775,257.7469 Q694.775,258.7469 694.775,261.5844 Q694.775,264.0469 695.625,264.8844 Q695.9875,265.2469 696.425,265.2469 Q696.8125,265.2469 697.175,264.8844 Q697.65,264.4219 697.7,262.3844 L699.4125,262.3844 Z " fill="#000000"/><text fill="#000000" font-family="sans-serif" font-size="11.2" lengthAdjust="spacing" textLength="63.2" x="713" y="265.9344">Repositories</text><line style="stroke:#181818;stroke-width:0.4000000000000001;" x1="654.8" x2="808.4" y1="274.0969" y2="274.0969"/><line style="stroke:#181818;stroke-width:0.4000000000000001;" x1="654.8" x2="808.4" y1="280.4969" y2="280.4969"/><text fill="#000000" font-family="sans-serif" font-size="11.2" lengthAdjust="spacing" textLength="75.2" x="658.8" y="295.7828">-Repositories()</text><text fill="#000000" font-family="sans-serif" font-size="11.2" lengthAdjust="spacing" textLength="145.6" x="658.8" y="310.6797">+getInstance() : Repositories</text></g><!--class VehicleController--><g id="elem_VehicleController"><rect codeLine="55" fill="#F1F1F1" height="97.9875" id="VehicleController" rx="2" ry="2" style="stroke:#181818;stroke-width:0.4000000000000001;" width="912.8" x="475.2" y="82.0969"/><ellipse cx="885" cy="94.8969" fill="#ADD1B2" rx="8.8" ry="8.8" style="stroke:#181818;stroke-width:0.8000000000000002;"/><path d="M887.8125,95.9844 Q887.6375,98.6844 886.725,99.5844 Q885.925,100.3844 884.825,100.3844 Q883.725,100.3844 882.925,99.5844 Q881.5375,98.1969 881.5375,95.2844 Q881.5375,91.9094 883.025,90.4094 Q883.8375,89.6094 884.875,89.6094 Q885.975,89.6094 886.625,90.2469 Q887.8,91.4344 887.75,93.6469 L886.15,93.6469 Q886.1,91.8219 885.575,91.2969 Q885.325,91.0344 884.875,91.0344 Q884.4875,91.0344 884.175,91.3469 Q883.175,92.3469 883.175,95.1844 Q883.175,97.6469 884.025,98.4844 Q884.3875,98.8469 884.825,98.8469 Q885.2125,98.8469 885.575,98.4844 Q886.05,98.0219 886.1,95.9844 L887.8125,95.9844 Z " fill="#000000"/><text fill="#000000" font-family="sans-serif" font-size="11.2" lengthAdjust="spacing" textLength="86.4" x="901.4" y="99.5344">VehicleController</text><line style="stroke:#181818;stroke-width:0.4000000000000001;" x1="476" x2="1387.2" y1="107.6969" y2="107.6969"/><text fill="#000000" font-family="sans-serif" font-size="11.2" lengthAdjust="spacing" textLength="188" x="480" y="122.9828">-VehicleRepository vehicleRepository</text><line style="stroke:#181818;stroke-width:0.4000000000000001;" x1="476" x2="1387.2" y1="128.9938" y2="128.9938"/><text fill="#000000" font-family="sans-serif" font-size="11.2" lengthAdjust="spacing" textLength="119.2" x="480" y="144.2797">-getVehicleRepository()</text><text fill="#000000" font-family="sans-serif" font-size="11.2" lengthAdjust="spacing" textLength="903.2" x="480" y="159.1766">+createVehicle(String plateId, String brand, String model,String type, double tare, double weight, int mileage,Date register_date, Date acquisition_date, int maintenance_frequency)</text><text fill="#000000" font-family="sans-serif" font-size="11.2" lengthAdjust="spacing" textLength="101.6" x="480" y="174.0734">+plateExists(plateId)</text></g><!--class CreateVehicleUI--><g id="elem_CreateVehicleUI"><rect codeLine="62" fill="#F1F1F1" height="38.4" id="CreateVehicleUI" rx="2" ry="2" style="stroke:#181818;stroke-width:0.4000000000000001;" width="106.4" x="340.8" y="111.6969"/><ellipse cx="352.8" cy="124.4969" fill="#ADD1B2" rx="8.8" ry="8.8" style="stroke:#181818;stroke-width:0.8000000000000002;"/><path d="M355.6125,125.5844 Q355.4375,128.2844 354.525,129.1844 Q353.725,129.9844 352.625,129.9844 Q351.525,129.9844 350.725,129.1844 Q349.3375,127.7969 349.3375,124.8844 Q349.3375,121.5094 350.825,120.0094 Q351.6375,119.2094 352.675,119.2094 Q353.775,119.2094 354.425,119.8469 Q355.6,121.0344 355.55,123.2469 L353.95,123.2469 Q353.9,121.4219 353.375,120.8969 Q353.125,120.6344 352.675,120.6344 Q352.2875,120.6344 351.975,120.9469 Q350.975,121.9469 350.975,124.7844 Q350.975,127.2469 351.825,128.0844 Q352.1875,128.4469 352.625,128.4469 Q353.0125,128.4469 353.375,128.0844 Q353.85,127.6219 353.9,125.5844 L355.6125,125.5844 Z " fill="#000000"/><text fill="#000000" font-family="sans-serif" font-size="11.2" lengthAdjust="spacing" textLength="80.8" x="364" y="129.1344">CreateVehicleUI</text><line style="stroke:#181818;stroke-width:0.4000000000000001;" x1="341.6" x2="446.4" y1="137.2969" y2="137.2969"/><line style="stroke:#181818;stroke-width:0.4000000000000001;" x1="341.6" x2="446.4" y1="143.6969" y2="143.6969"/></g><!--class Skill--><g id="elem_Skill"><rect fill="#F1F1F1" height="38.4" id="Skill" rx="2" ry="2" style="stroke:#181818;stroke-width:0.4000000000000001;" width="45.6" x="877.6" y="524.0969"/><ellipse cx="889.6" cy="536.8969" fill="#ADD1B2" rx="8.8" ry="8.8" style="stroke:#181818;stroke-width:0.8000000000000002;"/><path d="M892.4125,537.9844 Q892.2375,540.6844 891.325,541.5844 Q890.525,542.3844 889.425,542.3844 Q888.325,542.3844 887.525,541.5844 Q886.1375,540.1969 886.1375,537.2844 Q886.1375,533.9094 887.625,532.4094 Q888.4375,531.6094 889.475,531.6094 Q890.575,531.6094 891.225,532.2469 Q892.4,533.4344 892.35,535.6469 L890.75,535.6469 Q890.7,533.8219 890.175,533.2969 Q889.925,533.0344 889.475,533.0344 Q889.0875,533.0344 888.775,533.3469 Q887.775,534.3469 887.775,537.1844 Q887.775,539.6469 888.625,540.4844 Q888.9875,540.8469 889.425,540.8469 Q889.8125,540.8469 890.175,540.4844 Q890.65,540.0219 890.7,537.9844 L892.4125,537.9844 Z " fill="#000000"/><text fill="#000000" font-family="sans-serif" font-size="11.2" lengthAdjust="spacing" textLength="20" x="900.8" y="541.5344">Skill</text><line style="stroke:#181818;stroke-width:0.4000000000000001;" x1="878.4" x2="922.4" y1="549.6969" y2="549.6969"/><line style="stroke:#181818;stroke-width:0.4000000000000001;" x1="878.4" x2="922.4" y1="556.0969" y2="556.0969"/></g><!--link Repositories to Repositories--><g id="link_Repositories_Repositories"><path codeLine="65" d="M809.424,261.9449 C825.584,264.1129 837.2,270.9609 837.2,282.4969 C837.2,294.0329 830.3414,300.2426 814.1814,302.4106 " fill="none" id="Repositories-to-Repositories" style="stroke:#181818;stroke-width:0.8000000000000002;"/><polygon fill="#181818" points="809.424,303.0489,816.9856,305.2631,813.3885,302.517,816.1346,298.9199,809.424,303.0489" style="stroke:#181818;stroke-width:0.8000000000000002;"/><text fill="#000000" font-family="sans-serif" font-size="10.4" lengthAdjust="spacing" textLength="39.2" x="842" y="286.9195">instance</text></g><!--link ApplicationSession to ApplicationSession--><g id="link_ApplicationSession_ApplicationSession"><path codeLine="66" d="M1104.928,380.5529 C1120.8,381.5209 1132.8,386.9689 1132.8,396.8969 C1132.8,406.8249 1125.5911,411.9807 1109.7191,412.9487 " fill="none" id="ApplicationSession-to-ApplicationSession" style="stroke:#181818;stroke-width:0.8000000000000002;"/><polygon fill="#181818" points="1104.928,413.2409,1112.3094,415.9966,1108.9206,412.9974,1111.9198,409.6085,1104.928,413.2409" style="stroke:#181818;stroke-width:0.8000000000000002;"/><text fill="#000000" font-family="sans-serif" font-size="10.4" lengthAdjust="spacing" textLength="39.2" x="1137.6" y="401.3195">instance</text></g><!--link CreateVehicleUI to VehicleController--><g id="link_CreateVehicleUI_VehicleController"><path codeLine="68" d="M447.28,130.8969 C456.152,130.8969 460.8,130.8969 470.376,130.8969 " fill="none" id="CreateVehicleUI-to-VehicleController" style="stroke:#181818;stroke-width:0.8000000000000002;stroke-dasharray:7.0,7.0;"/><polygon fill="#181818" points="475.176,130.8969,467.976,127.6969,471.176,130.8969,467.976,134.0969,475.176,130.8969" style="stroke:#181818;stroke-width:0.8000000000000002;"/></g><!--link VehicleController to Repositories--><g id="link_VehicleController_Repositories"><path codeLine="70" d="M867.496,179.7769 C837.672,202.1449 806.7844,225.3134 779.8964,245.4734 " fill="none" id="VehicleController-to-Repositories" style="stroke:#181818;stroke-width:0.8000000000000002;stroke-dasharray:7.0,7.0;"/><polygon fill="#181818" points="776.056,248.3529,783.7363,246.594,779.2563,245.9533,779.897,241.4734,776.056,248.3529" style="stroke:#181818;stroke-width:0.8000000000000002;"/><text fill="#000000" font-family="sans-serif" font-size="10.4" lengthAdjust="spacing" textLength="53.6" x="767.376" y="210.8875">repositories</text></g><!--link Repositories to VehicleRepository--><g id="link_Repositories_VehicleRepository"><path codeLine="72" d="M653.944,313.3769 C632.384,321.7289 612.724,329.3473 588.66,338.6673 " fill="none" id="Repositories-to-VehicleRepository" style="stroke:#181818;stroke-width:0.8000000000000002;"/><polygon fill="#181818" points="584.184,340.4009,592.0537,340.7845,587.914,338.9562,589.7423,334.8165,584.184,340.4009" style="stroke:#181818;stroke-width:0.8000000000000002;"/><text fill="#000000" font-family="sans-serif" font-size="10.4" lengthAdjust="spacing" textLength="5.6" x="593.123" y="331.5038">1</text></g><!--link VehicleController to VehicleRepository--><g id="link_VehicleController_VehicleRepository"><path codeLine="74" d="M775.392,179.7129 C670.584,211.9209 551.6,248.4969 551.6,248.4969 C551.6,248.4969 516.8161,294.663 485.3281,336.463 " fill="none" id="VehicleController-to-VehicleRepository" style="stroke:#181818;stroke-width:0.8000000000000002;stroke-dasharray:7.0,7.0;"/><polygon fill="#181818" points="482.44,340.2969,489.3281,336.4714,484.8467,337.1019,484.2162,332.6206,482.44,340.2969" style="stroke:#181818;stroke-width:0.8000000000000002;"/><text fill="#000000" font-family="sans-serif" font-size="10.4" lengthAdjust="spacing" textLength="86.4" x="552.4" y="286.9195">vehiclesRepository</text></g><!--link ApplicationSession to UserSession--><g id="link_ApplicationSession_UserSession"><path codeLine="76" d="M1073.032,430.9209 C1095.416,456.8809 1122.9547,488.8366 1143.5867,512.7806 " fill="none" id="ApplicationSession-to-UserSession" style="stroke:#181818;stroke-width:0.8000000000000002;"/><polygon fill="#181818" points="1146.72,516.4169,1144.4442,508.8736,1144.1089,513.3866,1139.5959,513.0513,1146.72,516.4169" style="stroke:#181818;stroke-width:0.8000000000000002;"/><text fill="#000000" font-family="sans-serif" font-size="10.4" lengthAdjust="spacing" textLength="57.6" x="1126" y="489.3195">userSession</text><text fill="#000000" font-family="sans-serif" font-size="10.4" lengthAdjust="spacing" textLength="5.6" x="1136.143" y="507.4615">1</text></g><!--link VehicleController to ApplicationSession--><g id="link_VehicleController_ApplicationSession"><path codeLine="77" d="M952.16,179.8809 C974.784,232.9129 1008.6519,312.3141 1028.3479,358.4661 " fill="none" id="VehicleController-to-ApplicationSession" style="stroke:#181818;stroke-width:0.8000000000000002;stroke-dasharray:7.0,7.0;"/><polygon fill="#181818" points="1030.232,362.8809,1030.3491,355.0027,1028.6619,359.2019,1024.4627,357.5147,1030.232,362.8809" style="stroke:#181818;stroke-width:0.8000000000000002;"/></g><!--link VehicleController to UserSession--><g id="link_VehicleController_UserSession"><path codeLine="78" d="M989.36,179.8649 C1063.312,241.5289 1182,340.4969 1182,340.4969 C1182,340.4969 1190.8,477.2969 1190.8,477.2969 C1190.8,477.2969 1190.8,492.4969 1190.8,492.4969 C1190.8,492.4969 1187.6405,499.8189 1182.4085,511.9229 " fill="none" id="VehicleController-to-UserSession" style="stroke:#181818;stroke-width:0.8000000000000002;stroke-dasharray:7.0,7.0;"/><polygon fill="#181818" points="1180.504,516.3289,1186.2981,510.9895,1182.0911,512.6572,1180.4234,508.4502,1180.504,516.3289" style="stroke:#181818;stroke-width:0.8000000000000002;"/></g><!--link VehicleController to Skill--><g id="link_VehicleController_Skill"><path codeLine="79" d="M927.944,179.8249 C921.048,270.6169 906.7634,458.6786 902.1714,519.1666 " fill="none" id="VehicleController-to-Skill" style="stroke:#181818;stroke-width:0.8000000000000002;"/><polygon fill="#181818" points="901.808,523.9529,905.5438,517.0158,902.1108,519.9644,899.1622,516.5313,901.808,523.9529" style="stroke:#181818;stroke-width:0.8000000000000002;"/><text fill="#000000" font-family="sans-serif" font-size="10.4" lengthAdjust="spacing" textLength="22.4" x="915.6" y="401.3195">uses</text></g><!--link VehicleRepository to Skill--><g id="link_VehicleRepository_Skill"><path codeLine="80" d="M617.264,453.3689 C716.528,484.6169 825.1814,518.8238 872.8134,533.8158 " fill="none" id="VehicleRepository-to-Skill" style="stroke:#181818;stroke-width:0.8000000000000002;"/><polygon fill="#181818" points="877.392,535.2569,871.4849,530.0429,873.5765,534.056,869.5634,536.1476,877.392,535.2569" style="stroke:#181818;stroke-width:0.8000000000000002;"/><text fill="#000000" font-family="sans-serif" font-size="10.4" lengthAdjust="spacing" textLength="42.4" x="739.6" y="489.3195">manages</text></g><!--SRC=[hLJFRzem6Btxhx1weTD2HQzqGgfe3qWxBMBNoZWVmSAnKzkXOzF-ztqc1kmuhRHf753otlVpFSSJknUgPOOrjD5AyvtH3L1dEY1NfcLypseetL42DS0TKxMC0-oELVfDg9fkcRGn8uK2Tso1jbeU_GkPZ93QE4sSS5X-NSvcztGfcRNqIR0QuqXKZtlYqJaZDfs35TUg53-1pWYPIDWwwZGrejuvMWa_gD2Aa5CEVMnRAJZpK0dMUkONeVZxJAr3cDCQt4hXi-9m-obGY2qxOq2va8JCxtF9jGKph8K97dvkc91zR0Z-3Zl19PpYfhJ43L2kLZBSedf8m8rXQW0rkWAPGbwuW5Iwsw1qZfa1yWPUYu09vMWZ9A2J0Nd2vkXdBQm3yrBXMqmm_je9AxnWCNSgm_0Vb5VgPMlWjGF5Zmyat_ORj1fBQ7EalK3JhzZiIs0NzD0_s5wyBEbi0wkgsrIn8X6hI7GgOecAM9qY5QQ8DIb6v2Z6bIZU5o4CRA3H1nZC73ZuWGriniNgNHGGOC_29M1yFgzdbiwJeEj13S8kjN96ImdcN3ItwJ14-a3iywuxt03k4EY_yUcVRFgFBfrcVExjkFXm4MqPhxLUeMH89SvC5wbJS-pOUq7osyP7Zw1H3Xbsl5lapX6IctcNpM7YOv0DVND_at-WeuMl4qH7P7xvREFiiOr3h-YUnEGkkZN7MuvSrUE1wmzB-VRbNaZPDxKaNoKEQPZ2yuLo_G40]--></g></svg>