<?xml version="1.0" encoding="us-ascii" standalone="no"?><svg xmlns="http://www.w3.org/2000/svg" xmlns:xlink="http://www.w3.org/1999/xlink" contentStyleType="text/css" height="291px" preserveAspectRatio="none" style="width:738px;height:291px;background:#FFFFFF;" version="1.1" viewBox="0 0 738 291" width="738px" zoomAndPan="magnify"><defs/><g><rect fill="#FFFFFF" height="195.7852" style="stroke:#181818;stroke-width:1.0;" width="10" x="58" y="48.6211"/><rect fill="#FFFFFF" height="163.4941" style="stroke:#181818;stroke-width:1.0;" width="10" x="339" y="71.9121"/><line style="stroke:#181818;stroke-width:0.5;stroke-dasharray:5.0,5.0;" x1="63" x2="63" y1="38.6211" y2="253.4063"/><line style="stroke:#181818;stroke-width:0.5;stroke-dasharray:5.0,5.0;" x1="344" x2="344" y1="38.6211" y2="253.4063"/><line style="stroke:#181818;stroke-width:0.5;stroke-dasharray:5.0,5.0;" x1="678" x2="678" y1="111.7227" y2="253.4063"/><rect fill="#E2E2F0" height="32.6211" rx="2.5" ry="2.5" style="stroke:#181818;stroke-width:0.5;" width="116" x="5" y="5"/><text fill="#000000" font-family="sans-serif" font-size="14" lengthAdjust="spacing" textLength="102" x="12" y="27.1074">:TeamController</text><rect fill="#E2E2F0" height="32.6211" rx="2.5" ry="2.5" style="stroke:#181818;stroke-width:0.5;" width="116" x="5" y="252.4063"/><text fill="#000000" font-family="sans-serif" font-size="14" lengthAdjust="spacing" textLength="102" x="12" y="274.5137">:TeamController</text><rect fill="#E2E2F0" height="32.6211" rx="2.5" ry="2.5" style="stroke:#181818;stroke-width:0.5;" width="98" x="295" y="5"/><text fill="#000000" font-family="sans-serif" font-size="14" lengthAdjust="spacing" textLength="84" x="302" y="27.1074">:Organization</text><rect fill="#E2E2F0" height="32.6211" rx="2.5" ry="2.5" style="stroke:#181818;stroke-width:0.5;" width="98" x="295" y="252.4063"/><text fill="#000000" font-family="sans-serif" font-size="14" lengthAdjust="spacing" textLength="84" x="302" y="274.5137">:Organization</text><rect fill="#E2E2F0" height="32.6211" rx="2.5" ry="2.5" style="stroke:#181818;stroke-width:0.5;" width="107" x="625" y="252.4063"/><text fill="#000000" font-family="sans-serif" font-size="14" lengthAdjust="spacing" textLength="93" x="632" y="274.5137">:TeamRequest</text><rect fill="#FFFFFF" height="195.7852" style="stroke:#181818;stroke-width:1.0;" width="10" x="58" y="48.6211"/><rect fill="#FFFFFF" height="163.4941" style="stroke:#181818;stroke-width:1.0;" width="10" x="339" y="71.9121"/><polygon fill="#181818" points="327,67.9121,337,71.9121,327,75.9121,331,71.9121" style="stroke:#181818;stroke-width:1.0;"/><line style="stroke:#181818;stroke-width:1.0;" x1="68" x2="333" y1="71.9121" y2="71.9121"/><text fill="#000000" font-family="sans-serif" font-size="13" font-weight="bold" lengthAdjust="spacing" textLength="7" x="75" y="66.6494">1</text><text fill="#000000" font-family="sans-serif" font-size="13" lengthAdjust="spacing" textLength="241" x="86" y="66.6494">generateTeamRequest(maxSize, skillList)</text><polygon fill="#181818" points="613,99.2031,623,103.2031,613,107.2031,617,103.2031" style="stroke:#181818;stroke-width:1.0;"/><line style="stroke:#181818;stroke-width:1.0;" x1="349" x2="619" y1="103.2031" y2="103.2031"/><text fill="#000000" font-family="sans-serif" font-size="13" font-weight="bold" lengthAdjust="spacing" textLength="7" x="356" y="97.9404">2</text><text fill="#000000" font-family="sans-serif" font-size="13" lengthAdjust="spacing" textLength="241" x="367" y="97.9404">generateTeamRequest(maxSize, skillList)</text><rect fill="#E2E2F0" height="32.6211" rx="2.5" ry="2.5" style="stroke:#181818;stroke-width:0.5;" width="107" x="625" y="79.9121"/><text fill="#000000" font-family="sans-serif" font-size="14" lengthAdjust="spacing" textLength="93" x="632" y="102.0195">:TeamRequest</text><line style="stroke:#181818;stroke-width:1.0;stroke-dasharray:2.0,2.0;" x1="349" x2="391" y1="146.8242" y2="146.8242"/><line style="stroke:#181818;stroke-width:1.0;stroke-dasharray:2.0,2.0;" x1="391" x2="391" y1="146.8242" y2="159.8242"/><line style="stroke:#181818;stroke-width:1.0;stroke-dasharray:2.0,2.0;" x1="350" x2="391" y1="159.8242" y2="159.8242"/><polygon fill="#181818" points="360,155.8242,350,159.8242,360,163.8242,356,159.8242" style="stroke:#181818;stroke-width:1.0;"/><text fill="#000000" font-family="sans-serif" font-size="13" font-weight="bold" lengthAdjust="spacing" textLength="7" x="356" y="141.5615">3</text><text fill="#000000" font-family="sans-serif" font-size="13" lengthAdjust="spacing" textLength="186" x="367" y="141.5615">addTeamRequest(teamRequest)</text><line style="stroke:#181818;stroke-width:1.0;stroke-dasharray:2.0,2.0;" x1="349" x2="391" y1="191.1152" y2="191.1152"/><line style="stroke:#181818;stroke-width:1.0;stroke-dasharray:2.0,2.0;" x1="391" x2="391" y1="191.1152" y2="204.1152"/><line style="stroke:#181818;stroke-width:1.0;stroke-dasharray:2.0,2.0;" x1="350" x2="391" y1="204.1152" y2="204.1152"/><polygon fill="#181818" points="360,200.1152,350,204.1152,360,208.1152,356,204.1152" style="stroke:#181818;stroke-width:1.0;"/><text fill="#000000" font-family="sans-serif" font-size="13" font-weight="bold" lengthAdjust="spacing" textLength="7" x="356" y="185.8525">4</text><text fill="#000000" font-family="sans-serif" font-size="13" lengthAdjust="spacing" textLength="208" x="367" y="185.8525">validateTeamRequest(teamRequest)</text><polygon fill="#181818" points="79,231.4063,69,235.4063,79,239.4063,75,235.4063" style="stroke:#181818;stroke-width:1.0;"/><line style="stroke:#181818;stroke-width:1.0;stroke-dasharray:2.0,2.0;" x1="73" x2="343" y1="235.4063" y2="235.4063"/><text fill="#000000" font-family="sans-serif" font-size="13" font-weight="bold" lengthAdjust="spacing" textLength="7" x="85" y="230.1436">5</text><text fill="#000000" font-family="sans-serif" font-size="13" lengthAdjust="spacing" textLength="77" x="96" y="230.1436">teamRequest</text><!--SRC=[dP3BQWCn34NtynKYcxIXwUndaKstXKAJ7r1iCH7rOofhGiZNnswBQq9f85ePVC-vifS7rIaDVJyv33fxzsoYxnDzpXGChItZAEYx3cUDOVPxacv2KJOyvJmiXXsXVub19Jf7iW1CeEOgyoOZ1ZwZSWnVYIZZ7vhtqfhqso6vqoWVKQa8uMVKm7fJU1XWf42IxnlsmUDfosTwWlJ1phroqiVALb-fXsQABbjLLgixjDLG5qDhMrX_p_zHHtHihtflela_1cXIDMIfVUu5]--></g></svg>