<?xml version="1.0" encoding="us-ascii" standalone="no"?><svg xmlns="http://www.w3.org/2000/svg" xmlns:xlink="http://www.w3.org/1999/xlink" contentStyleType="text/css" height="649px" preserveAspectRatio="none" style="width:792px;height:649px;background:#FFFFFF;" version="1.1" viewBox="0 0 792 649" width="792px" zoomAndPan="magnify"><defs/><g><!--class Team--><g id="elem_Team"><rect codeLine="12" fill="#F1F1F1" height="141.1055" id="Team" rx="2.5" ry="2.5" style="stroke:#181818;stroke-width:0.5;" width="177" x="178.5" y="318"/><ellipse cx="244.75" cy="334" fill="#ADD1B2" rx="11" ry="11" style="stroke:#181818;stroke-width:1.0;"/><path d="M247.5156,329.875 Q247.6719,329.6563 247.8594,329.5469 Q248.0469,329.4375 248.2656,329.4375 Q248.6406,329.4375 248.875,329.7031 Q249.1094,329.9531 249.1094,330.5625 L249.1094,332.0156 Q249.1094,332.625 248.875,332.8906 Q248.6406,333.1563 248.2656,333.1563 Q247.9219,333.1563 247.7188,332.9531 Q247.5156,332.7656 247.4063,332.25 Q247.3594,331.8906 247.1719,331.7031 Q246.8438,331.3281 246.2344,331.1094 Q245.625,330.8906 245,330.8906 Q244.2344,330.8906 243.5938,331.2188 Q242.9688,331.5469 242.4688,332.2969 Q241.9844,333.0469 241.9844,334.0781 L241.9844,335.1719 Q241.9844,336.4063 242.875,337.2344 Q243.7656,338.0469 245.3594,338.0469 Q246.2969,338.0469 246.9531,337.7969 Q247.3438,337.6406 247.7656,337.2031 Q248.0313,336.9375 248.1719,336.8594 Q248.3281,336.7813 248.5313,336.7813 Q248.8594,336.7813 249.1094,337.0469 Q249.375,337.2969 249.375,337.6406 Q249.375,337.9844 249.0313,338.3906 Q248.5313,338.9688 247.7344,339.2969 Q246.6563,339.75 245.3594,339.75 Q243.8438,339.75 242.6406,339.125 Q241.6563,338.625 240.9688,337.5625 Q240.2813,336.4844 240.2813,335.2031 L240.2813,334.0469 Q240.2813,332.7188 240.8906,331.5781 Q241.5156,330.4219 242.6094,329.8125 Q243.7031,329.1875 244.9375,329.1875 Q245.6719,329.1875 246.3125,329.3594 Q246.9688,329.5156 247.5156,329.875 Z " fill="#000000"/><text fill="#000000" font-family="sans-serif" font-size="14" lengthAdjust="spacing" textLength="36" x="265.25" y="339.7969">Team</text><line style="stroke:#181818;stroke-width:0.5;" x1="179.5" x2="354.5" y1="350" y2="350"/><text fill="#000000" font-family="sans-serif" font-size="14" lengthAdjust="spacing" textLength="16" x="184.5" y="369.1074">-id</text><text fill="#000000" font-family="sans-serif" font-size="14" lengthAdjust="spacing" textLength="59" x="184.5" y="387.7285">-max-size</text><text fill="#000000" font-family="sans-serif" font-size="14" lengthAdjust="spacing" textLength="35" x="184.5" y="406.3496">-skills</text><line style="stroke:#181818;stroke-width:0.5;" x1="179.5" x2="354.5" y1="413.8633" y2="413.8633"/><text fill="#000000" font-family="sans-serif" font-size="14" lengthAdjust="spacing" textLength="165" x="184.5" y="432.9707">+Team(id, max-size, skills)</text><text fill="#000000" font-family="sans-serif" font-size="14" lengthAdjust="spacing" textLength="112" x="184.5" y="451.5918">+getTeamById(id)</text></g><!--class Skill--><g id="elem_Skill"><rect codeLine="21" fill="#F1F1F1" height="122.4844" id="Skill" rx="2.5" ry="2.5" style="stroke:#181818;stroke-width:0.5;" width="186" x="390" y="520"/><ellipse cx="466.25" cy="536" fill="#ADD1B2" rx="11" ry="11" style="stroke:#181818;stroke-width:1.0;"/><path d="M469.0156,531.875 Q469.1719,531.6563 469.3594,531.5469 Q469.5469,531.4375 469.7656,531.4375 Q470.1406,531.4375 470.375,531.7031 Q470.6094,531.9531 470.6094,532.5625 L470.6094,534.0156 Q470.6094,534.625 470.375,534.8906 Q470.1406,535.1563 469.7656,535.1563 Q469.4219,535.1563 469.2188,534.9531 Q469.0156,534.7656 468.9063,534.25 Q468.8594,533.8906 468.6719,533.7031 Q468.3438,533.3281 467.7344,533.1094 Q467.125,532.8906 466.5,532.8906 Q465.7344,532.8906 465.0938,533.2188 Q464.4688,533.5469 463.9688,534.2969 Q463.4844,535.0469 463.4844,536.0781 L463.4844,537.1719 Q463.4844,538.4063 464.375,539.2344 Q465.2656,540.0469 466.8594,540.0469 Q467.7969,540.0469 468.4531,539.7969 Q468.8438,539.6406 469.2656,539.2031 Q469.5313,538.9375 469.6719,538.8594 Q469.8281,538.7813 470.0313,538.7813 Q470.3594,538.7813 470.6094,539.0469 Q470.875,539.2969 470.875,539.6406 Q470.875,539.9844 470.5313,540.3906 Q470.0313,540.9688 469.2344,541.2969 Q468.1563,541.75 466.8594,541.75 Q465.3438,541.75 464.1406,541.125 Q463.1563,540.625 462.4688,539.5625 Q461.7813,538.4844 461.7813,537.2031 L461.7813,536.0469 Q461.7813,534.7188 462.3906,533.5781 Q463.0156,532.4219 464.1094,531.8125 Q465.2031,531.1875 466.4375,531.1875 Q467.1719,531.1875 467.8125,531.3594 Q468.4688,531.5156 469.0156,531.875 Z " fill="#000000"/><text fill="#000000" font-family="sans-serif" font-size="14" lengthAdjust="spacing" textLength="25" x="486.75" y="541.7969">Skill</text><line style="stroke:#181818;stroke-width:0.5;" x1="391" x2="575" y1="552" y2="552"/><text fill="#000000" font-family="sans-serif" font-size="14" lengthAdjust="spacing" textLength="35" x="396" y="571.1074">-int id</text><text fill="#000000" font-family="sans-serif" font-size="14" lengthAdjust="spacing" textLength="105" x="396" y="589.7285">-String skillName</text><line style="stroke:#181818;stroke-width:0.5;" x1="391" x2="575" y1="597.2422" y2="597.2422"/><text fill="#000000" font-family="sans-serif" font-size="14" lengthAdjust="spacing" textLength="101" x="396" y="616.3496">+getSkillById(id)</text><text fill="#000000" font-family="sans-serif" font-size="14" lengthAdjust="spacing" textLength="174" x="396" y="634.9707">+getSkillByName(skillName)</text></g><!--class SkillList--><g id="elem_SkillList"><rect codeLine="28" fill="#F1F1F1" height="103.8633" id="SkillList" rx="2.5" ry="2.5" style="stroke:#181818;stroke-width:0.5;" width="135" x="415.5" y="336.5"/><ellipse cx="455.7" cy="352.5" fill="#ADD1B2" rx="11" ry="11" style="stroke:#181818;stroke-width:1.0;"/><path d="M458.4656,348.375 Q458.6219,348.1563 458.8094,348.0469 Q458.9969,347.9375 459.2156,347.9375 Q459.5906,347.9375 459.825,348.2031 Q460.0594,348.4531 460.0594,349.0625 L460.0594,350.5156 Q460.0594,351.125 459.825,351.3906 Q459.5906,351.6563 459.2156,351.6563 Q458.8719,351.6563 458.6688,351.4531 Q458.4656,351.2656 458.3563,350.75 Q458.3094,350.3906 458.1219,350.2031 Q457.7938,349.8281 457.1844,349.6094 Q456.575,349.3906 455.95,349.3906 Q455.1844,349.3906 454.5438,349.7188 Q453.9188,350.0469 453.4188,350.7969 Q452.9344,351.5469 452.9344,352.5781 L452.9344,353.6719 Q452.9344,354.9063 453.825,355.7344 Q454.7156,356.5469 456.3094,356.5469 Q457.2469,356.5469 457.9031,356.2969 Q458.2938,356.1406 458.7156,355.7031 Q458.9813,355.4375 459.1219,355.3594 Q459.2781,355.2813 459.4813,355.2813 Q459.8094,355.2813 460.0594,355.5469 Q460.325,355.7969 460.325,356.1406 Q460.325,356.4844 459.9813,356.8906 Q459.4813,357.4688 458.6844,357.7969 Q457.6063,358.25 456.3094,358.25 Q454.7938,358.25 453.5906,357.625 Q452.6063,357.125 451.9188,356.0625 Q451.2313,354.9844 451.2313,353.7031 L451.2313,352.5469 Q451.2313,351.2188 451.8406,350.0781 Q452.4656,348.9219 453.5594,348.3125 Q454.6531,347.6875 455.8875,347.6875 Q456.6219,347.6875 457.2625,347.8594 Q457.9188,348.0156 458.4656,348.375 Z " fill="#000000"/><text fill="#000000" font-family="sans-serif" font-size="14" lengthAdjust="spacing" textLength="47" x="475.3" y="358.2969">SkillList</text><line style="stroke:#181818;stroke-width:0.5;" x1="416.5" x2="549.5" y1="368.5" y2="368.5"/><text fill="#000000" font-family="sans-serif" font-size="14" lengthAdjust="spacing" textLength="35" x="421.5" y="387.6074">-int id</text><text fill="#000000" font-family="sans-serif" font-size="14" lengthAdjust="spacing" textLength="60" x="421.5" y="406.2285">-int skillID</text><line style="stroke:#181818;stroke-width:0.5;" x1="416.5" x2="549.5" y1="413.7422" y2="413.7422"/><text fill="#000000" font-family="sans-serif" font-size="14" lengthAdjust="spacing" textLength="123" x="421.5" y="432.8496">+getSkillListById(id)</text></g><!--class SkillRepository--><g id="elem_SkillRepository"><rect codeLine="34" fill="#F1F1F1" height="66.6211" id="SkillRepository" rx="2.5" ry="2.5" style="stroke:#181818;stroke-width:0.5;" width="125" x="541.5" y="190"/><ellipse cx="556.5" cy="206" fill="#ADD1B2" rx="11" ry="11" style="stroke:#181818;stroke-width:1.0;"/><path d="M559.2656,201.875 Q559.4219,201.6563 559.6094,201.5469 Q559.7969,201.4375 560.0156,201.4375 Q560.3906,201.4375 560.625,201.7031 Q560.8594,201.9531 560.8594,202.5625 L560.8594,204.0156 Q560.8594,204.625 560.625,204.8906 Q560.3906,205.1563 560.0156,205.1563 Q559.6719,205.1563 559.4688,204.9531 Q559.2656,204.7656 559.1563,204.25 Q559.1094,203.8906 558.9219,203.7031 Q558.5938,203.3281 557.9844,203.1094 Q557.375,202.8906 556.75,202.8906 Q555.9844,202.8906 555.3438,203.2188 Q554.7188,203.5469 554.2188,204.2969 Q553.7344,205.0469 553.7344,206.0781 L553.7344,207.1719 Q553.7344,208.4063 554.625,209.2344 Q555.5156,210.0469 557.1094,210.0469 Q558.0469,210.0469 558.7031,209.7969 Q559.0938,209.6406 559.5156,209.2031 Q559.7813,208.9375 559.9219,208.8594 Q560.0781,208.7813 560.2813,208.7813 Q560.6094,208.7813 560.8594,209.0469 Q561.125,209.2969 561.125,209.6406 Q561.125,209.9844 560.7813,210.3906 Q560.2813,210.9688 559.4844,211.2969 Q558.4063,211.75 557.1094,211.75 Q555.5938,211.75 554.3906,211.125 Q553.4063,210.625 552.7188,209.5625 Q552.0313,208.4844 552.0313,207.2031 L552.0313,206.0469 Q552.0313,204.7188 552.6406,203.5781 Q553.2656,202.4219 554.3594,201.8125 Q555.4531,201.1875 556.6875,201.1875 Q557.4219,201.1875 558.0625,201.3594 Q558.7188,201.5156 559.2656,201.875 Z " fill="#000000"/><text fill="#000000" font-family="sans-serif" font-size="14" lengthAdjust="spacing" textLength="93" x="570.5" y="211.7969">SkillRepository</text><line style="stroke:#181818;stroke-width:0.5;" x1="542.5" x2="665.5" y1="222" y2="222"/><line style="stroke:#181818;stroke-width:0.5;" x1="542.5" x2="665.5" y1="230" y2="230"/><text fill="#000000" font-family="sans-serif" font-size="14" lengthAdjust="spacing" textLength="101" x="547.5" y="249.1074">+getSkillById(id)</text></g><!--class TeamRepository--><g id="elem_TeamRepository"><rect codeLine="38" fill="#F1F1F1" height="66.6211" id="TeamRepository" rx="2.5" ry="2.5" style="stroke:#181818;stroke-width:0.5;" width="136" x="370" y="190"/><ellipse cx="385" cy="206" fill="#ADD1B2" rx="11" ry="11" style="stroke:#181818;stroke-width:1.0;"/><path d="M387.7656,201.875 Q387.9219,201.6563 388.1094,201.5469 Q388.2969,201.4375 388.5156,201.4375 Q388.8906,201.4375 389.125,201.7031 Q389.3594,201.9531 389.3594,202.5625 L389.3594,204.0156 Q389.3594,204.625 389.125,204.8906 Q388.8906,205.1563 388.5156,205.1563 Q388.1719,205.1563 387.9688,204.9531 Q387.7656,204.7656 387.6563,204.25 Q387.6094,203.8906 387.4219,203.7031 Q387.0938,203.3281 386.4844,203.1094 Q385.875,202.8906 385.25,202.8906 Q384.4844,202.8906 383.8438,203.2188 Q383.2188,203.5469 382.7188,204.2969 Q382.2344,205.0469 382.2344,206.0781 L382.2344,207.1719 Q382.2344,208.4063 383.125,209.2344 Q384.0156,210.0469 385.6094,210.0469 Q386.5469,210.0469 387.2031,209.7969 Q387.5938,209.6406 388.0156,209.2031 Q388.2813,208.9375 388.4219,208.8594 Q388.5781,208.7813 388.7813,208.7813 Q389.1094,208.7813 389.3594,209.0469 Q389.625,209.2969 389.625,209.6406 Q389.625,209.9844 389.2813,210.3906 Q388.7813,210.9688 387.9844,211.2969 Q386.9063,211.75 385.6094,211.75 Q384.0938,211.75 382.8906,211.125 Q381.9063,210.625 381.2188,209.5625 Q380.5313,208.4844 380.5313,207.2031 L380.5313,206.0469 Q380.5313,204.7188 381.1406,203.5781 Q381.7656,202.4219 382.8594,201.8125 Q383.9531,201.1875 385.1875,201.1875 Q385.9219,201.1875 386.5625,201.3594 Q387.2188,201.5156 387.7656,201.875 Z " fill="#000000"/><text fill="#000000" font-family="sans-serif" font-size="14" lengthAdjust="spacing" textLength="104" x="399" y="211.7969">TeamRepository</text><line style="stroke:#181818;stroke-width:0.5;" x1="371" x2="505" y1="222" y2="222"/><line style="stroke:#181818;stroke-width:0.5;" x1="371" x2="505" y1="230" y2="230"/><text fill="#000000" font-family="sans-serif" font-size="14" lengthAdjust="spacing" textLength="112" x="376" y="249.1074">+getTeamById(id)</text></g><!--class Repositories--><g id="elem_Repositories"><rect codeLine="42" fill="#F1F1F1" height="122.4844" id="Repositories" rx="2.5" ry="2.5" style="stroke:#181818;stroke-width:0.5;" width="194" x="495" y="7"/><ellipse cx="548.25" cy="23" fill="#ADD1B2" rx="11" ry="11" style="stroke:#181818;stroke-width:1.0;"/><path d="M551.0156,18.875 Q551.1719,18.6563 551.3594,18.5469 Q551.5469,18.4375 551.7656,18.4375 Q552.1406,18.4375 552.375,18.7031 Q552.6094,18.9531 552.6094,19.5625 L552.6094,21.0156 Q552.6094,21.625 552.375,21.8906 Q552.1406,22.1563 551.7656,22.1563 Q551.4219,22.1563 551.2188,21.9531 Q551.0156,21.7656 550.9063,21.25 Q550.8594,20.8906 550.6719,20.7031 Q550.3438,20.3281 549.7344,20.1094 Q549.125,19.8906 548.5,19.8906 Q547.7344,19.8906 547.0938,20.2188 Q546.4688,20.5469 545.9688,21.2969 Q545.4844,22.0469 545.4844,23.0781 L545.4844,24.1719 Q545.4844,25.4063 546.375,26.2344 Q547.2656,27.0469 548.8594,27.0469 Q549.7969,27.0469 550.4531,26.7969 Q550.8438,26.6406 551.2656,26.2031 Q551.5313,25.9375 551.6719,25.8594 Q551.8281,25.7813 552.0313,25.7813 Q552.3594,25.7813 552.6094,26.0469 Q552.875,26.2969 552.875,26.6406 Q552.875,26.9844 552.5313,27.3906 Q552.0313,27.9688 551.2344,28.2969 Q550.1563,28.75 548.8594,28.75 Q547.3438,28.75 546.1406,28.125 Q545.1563,27.625 544.4688,26.5625 Q543.7813,25.4844 543.7813,24.2031 L543.7813,23.0469 Q543.7813,21.7188 544.3906,20.5781 Q545.0156,19.4219 546.1094,18.8125 Q547.2031,18.1875 548.4375,18.1875 Q549.1719,18.1875 549.8125,18.3594 Q550.4688,18.5156 551.0156,18.875 Z " fill="#000000"/><text fill="#000000" font-family="sans-serif" font-size="14" lengthAdjust="spacing" textLength="79" x="568.75" y="28.7969">Repositories</text><line style="stroke:#181818;stroke-width:0.5;" x1="496" x2="688" y1="39" y2="39"/><line style="stroke:#181818;stroke-width:0.5;" x1="496" x2="688" y1="47" y2="47"/><text fill="#000000" font-family="sans-serif" font-size="14" lengthAdjust="spacing" textLength="94" x="501" y="66.1074">-Repositories()</text><text fill="#000000" font-family="sans-serif" font-size="14" lengthAdjust="spacing" textLength="182" x="501" y="84.7285">+getInstance() : Repositories</text><text fill="#000000" font-family="sans-serif" font-size="14" lengthAdjust="spacing" textLength="123" x="501" y="103.3496">+getSkillListById(id)</text><text fill="#000000" font-family="sans-serif" font-size="14" lengthAdjust="spacing" textLength="112" x="501" y="121.9707">+getTeamById(id)</text></g><!--class TeamUI--><g id="elem_TeamUI"><rect codeLine="51" fill="#F1F1F1" height="48" id="TeamUI" rx="2.5" ry="2.5" style="stroke:#181818;stroke-width:0.5;" width="80" x="7" y="44"/><ellipse cx="22" cy="60" fill="#ADD1B2" rx="11" ry="11" style="stroke:#181818;stroke-width:1.0;"/><path d="M24.7656,55.875 Q24.9219,55.6563 25.1094,55.5469 Q25.2969,55.4375 25.5156,55.4375 Q25.8906,55.4375 26.125,55.7031 Q26.3594,55.9531 26.3594,56.5625 L26.3594,58.0156 Q26.3594,58.625 26.125,58.8906 Q25.8906,59.1563 25.5156,59.1563 Q25.1719,59.1563 24.9688,58.9531 Q24.7656,58.7656 24.6563,58.25 Q24.6094,57.8906 24.4219,57.7031 Q24.0938,57.3281 23.4844,57.1094 Q22.875,56.8906 22.25,56.8906 Q21.4844,56.8906 20.8438,57.2188 Q20.2188,57.5469 19.7188,58.2969 Q19.2344,59.0469 19.2344,60.0781 L19.2344,61.1719 Q19.2344,62.4063 20.125,63.2344 Q21.0156,64.0469 22.6094,64.0469 Q23.5469,64.0469 24.2031,63.7969 Q24.5938,63.6406 25.0156,63.2031 Q25.2813,62.9375 25.4219,62.8594 Q25.5781,62.7813 25.7813,62.7813 Q26.1094,62.7813 26.3594,63.0469 Q26.625,63.2969 26.625,63.6406 Q26.625,63.9844 26.2813,64.3906 Q25.7813,64.9688 24.9844,65.2969 Q23.9063,65.75 22.6094,65.75 Q21.0938,65.75 19.8906,65.125 Q18.9063,64.625 18.2188,63.5625 Q17.5313,62.4844 17.5313,61.2031 L17.5313,60.0469 Q17.5313,58.7188 18.1406,57.5781 Q18.7656,56.4219 19.8594,55.8125 Q20.9531,55.1875 22.1875,55.1875 Q22.9219,55.1875 23.5625,55.3594 Q24.2188,55.5156 24.7656,55.875 Z " fill="#000000"/><text fill="#000000" font-family="sans-serif" font-size="14" lengthAdjust="spacing" textLength="48" x="36" y="65.7969">TeamUI</text><line style="stroke:#181818;stroke-width:0.5;" x1="8" x2="86" y1="76" y2="76"/><line style="stroke:#181818;stroke-width:0.5;" x1="8" x2="86" y1="84" y2="84"/></g><!--class CreateTeamController--><g id="elem_CreateTeamController"><rect codeLine="54" fill="#F1F1F1" height="85.2422" id="CreateTeamController" rx="2.5" ry="2.5" style="stroke:#181818;stroke-width:0.5;" width="269" x="122.5" y="25.5"/><ellipse cx="182.25" cy="41.5" fill="#ADD1B2" rx="11" ry="11" style="stroke:#181818;stroke-width:1.0;"/><path d="M185.0156,37.375 Q185.1719,37.1563 185.3594,37.0469 Q185.5469,36.9375 185.7656,36.9375 Q186.1406,36.9375 186.375,37.2031 Q186.6094,37.4531 186.6094,38.0625 L186.6094,39.5156 Q186.6094,40.125 186.375,40.3906 Q186.1406,40.6563 185.7656,40.6563 Q185.4219,40.6563 185.2188,40.4531 Q185.0156,40.2656 184.9063,39.75 Q184.8594,39.3906 184.6719,39.2031 Q184.3438,38.8281 183.7344,38.6094 Q183.125,38.3906 182.5,38.3906 Q181.7344,38.3906 181.0938,38.7188 Q180.4688,39.0469 179.9688,39.7969 Q179.4844,40.5469 179.4844,41.5781 L179.4844,42.6719 Q179.4844,43.9063 180.375,44.7344 Q181.2656,45.5469 182.8594,45.5469 Q183.7969,45.5469 184.4531,45.2969 Q184.8438,45.1406 185.2656,44.7031 Q185.5313,44.4375 185.6719,44.3594 Q185.8281,44.2813 186.0313,44.2813 Q186.3594,44.2813 186.6094,44.5469 Q186.875,44.7969 186.875,45.1406 Q186.875,45.4844 186.5313,45.8906 Q186.0313,46.4688 185.2344,46.7969 Q184.1563,47.25 182.8594,47.25 Q181.3438,47.25 180.1406,46.625 Q179.1563,46.125 178.4688,45.0625 Q177.7813,43.9844 177.7813,42.7031 L177.7813,41.5469 Q177.7813,40.2188 178.3906,39.0781 Q179.0156,37.9219 180.1094,37.3125 Q181.2031,36.6875 182.4375,36.6875 Q183.1719,36.6875 183.8125,36.8594 Q184.4688,37.0156 185.0156,37.375 Z " fill="#000000"/><text fill="#000000" font-family="sans-serif" font-size="14" lengthAdjust="spacing" textLength="141" x="202.75" y="47.2969">CreateTeamController</text><line style="stroke:#181818;stroke-width:0.5;" x1="123.5" x2="390.5" y1="57.5" y2="57.5"/><line style="stroke:#181818;stroke-width:0.5;" x1="123.5" x2="390.5" y1="65.5" y2="65.5"/><text fill="#000000" font-family="sans-serif" font-size="14" lengthAdjust="spacing" textLength="257" x="128.5" y="84.6074">+CreateTeamProposal(TeamRepository)</text><text fill="#000000" font-family="sans-serif" font-size="14" lengthAdjust="spacing" textLength="98" x="128.5" y="103.2285">-getSkillById(id)</text></g><!--link TeamUI to CreateTeamController--><g id="link_TeamUI_CreateTeamController"><path codeLine="59" d="M87.31,68 C102.87,68 117,68 117,68 C117,68 113.07,68 116.49,68 " fill="none" id="TeamUI-to-CreateTeamController" style="stroke:#181818;stroke-width:1.0;stroke-dasharray:7.0,7.0;"/><polygon fill="#181818" points="122.49,68,113.49,64,117.49,68,113.49,72,122.49,68" style="stroke:#181818;stroke-width:1.0;"/></g><!--link CreateTeamController to Repositories--><g id="link_CreateTeamController_Repositories"><path codeLine="61" d="M391.81,68 C426.26,68 456.64,68 488.79,68 " fill="none" id="CreateTeamController-to-Repositories" style="stroke:#181818;stroke-width:1.0;stroke-dasharray:7.0,7.0;"/><polygon fill="#181818" points="494.79,68,485.79,64,489.79,68,485.79,72,494.79,68" style="stroke:#181818;stroke-width:1.0;"/><text fill="#000000" font-family="sans-serif" font-size="13" lengthAdjust="spacing" textLength="67" x="409.75" y="61.0283">repositories</text></g><!--link Repositories to Repositories--><g id="link_Repositories_Repositories"><path codeLine="63" d="M689.28,51.72 C709.48,53.43 724,58.86 724,68 C724,77.14 715.4586,82.0639 695.2586,83.7739 " fill="none" id="Repositories-to-Repositories" style="stroke:#181818;stroke-width:1.0;"/><polygon fill="#181818" points="689.28,84.28,698.5853,87.5066,694.2622,83.8582,697.9105,79.5351,689.28,84.28" style="stroke:#181818;stroke-width:1.0;"/><text fill="#000000" font-family="sans-serif" font-size="13" lengthAdjust="spacing" textLength="49" x="730" y="73.5283">instance</text></g><!--link Repositories to SkillRepository--><g id="link_Repositories_SkillRepository"><path codeLine="65" d="M596.71,129.23 C598.32,149.89 599.6018,166.2483 600.9818,183.8783 " fill="none" id="Repositories-to-SkillRepository" style="stroke:#181818;stroke-width:1.0;"/><polygon fill="#181818" points="601.45,189.86,604.7355,180.5753,601.0598,184.8752,596.7599,181.1996,601.45,189.86" style="stroke:#181818;stroke-width:1.0;"/><text fill="#000000" font-family="sans-serif" font-size="13" lengthAdjust="spacing" textLength="7" x="593.2589" y="178.658">1</text></g><!--link SkillRepository to SkillList--><g id="link_SkillRepository_SkillList"><path codeLine="66" d="M579.8,257.09 C562.98,279.76 543.7759,305.622 524.5459,331.532 " fill="none" id="SkillRepository-to-SkillList" style="stroke:#181818;stroke-width:1.0;"/><polygon fill="#181818" points="520.97,336.35,529.5458,331.5069,523.9499,332.335,523.1218,326.7391,520.97,336.35" style="stroke:#181818;stroke-width:1.0;"/><text fill="#000000" font-family="sans-serif" font-size="13" lengthAdjust="spacing" textLength="7" x="567.8659" y="278.6753">1</text><text fill="#000000" font-family="sans-serif" font-size="13" lengthAdjust="spacing" textLength="5" x="520.7363" y="325.2572">*</text></g><!--link SkillList to Skill--><g id="link_SkillList_Skill"><path codeLine="67" d="M483,440.55 C483,464.91 483,488.22 483,513.67 " fill="none" id="SkillList-to-Skill" style="stroke:#181818;stroke-width:1.0;"/><polygon fill="#181818" points="483,519.67,487,510.67,483,514.67,479,510.67,483,519.67" style="stroke:#181818;stroke-width:1.0;"/><text fill="#000000" font-family="sans-serif" font-size="13" lengthAdjust="spacing" textLength="7" x="475.5516" y="462.3637">1</text><text fill="#000000" font-family="sans-serif" font-size="13" lengthAdjust="spacing" textLength="5" x="477.7109" y="508.613">*</text></g><!--link Repositories to TeamRepository--><g id="link_Repositories_TeamRepository"><path codeLine="68" d="M531.58,129.23 C510.85,149.89 492.691,167.9958 474.991,185.6258 " fill="none" id="Repositories-to-TeamRepository" style="stroke:#181818;stroke-width:1.0;"/><polygon fill="#181818" points="470.74,189.86,479.9394,186.3427,474.2825,186.3315,474.2937,180.6746,470.74,189.86" style="stroke:#181818;stroke-width:1.0;"/><text fill="#000000" font-family="sans-serif" font-size="13" lengthAdjust="spacing" textLength="5" x="471.6935" y="178.658">*</text></g><!--link TeamRepository to Team--><g id="link_TeamRepository_Team"><path codeLine="69" d="M403.81,257.09 C385.48,274.56 366.5133,292.6405 344.3433,313.7705 " fill="none" id="TeamRepository-to-Team" style="stroke:#181818;stroke-width:1.0;"/><polygon fill="#181818" points="340,317.91,349.2746,314.5962,343.6194,314.4604,343.7552,308.8052,340,317.91" style="stroke:#181818;stroke-width:1.0;"/><text fill="#000000" font-family="sans-serif" font-size="13" lengthAdjust="spacing" textLength="7" x="390.0965" y="278.6753">1</text><text fill="#000000" font-family="sans-serif" font-size="13" lengthAdjust="spacing" textLength="5" x="342.2703" y="306.7917">*</text></g><!--link CreateTeamController to Team--><g id="link_CreateTeamController_Team"><path codeLine="70" d="M258.31,110.64 C259.96,163.25 262.6424,248.5529 264.6224,311.8529 " fill="none" id="CreateTeamController-to-Team" style="stroke:#181818;stroke-width:1.0;stroke-dasharray:7.0,7.0;"/><polygon fill="#181818" points="264.81,317.85,268.5267,308.7293,264.6537,312.8524,260.5306,308.9795,264.81,317.85" style="stroke:#181818;stroke-width:1.0;"/></g><!--link CreateTeamController to SkillList--><g id="link_CreateTeamController_SkillList"><path codeLine="71" d="M278.31,110.72 C306.59,166.11 353,257 353,257 C353,257 391.3355,295.4892 427.7555,332.0492 " fill="none" id="CreateTeamController-to-SkillList" style="stroke:#181818;stroke-width:1.0;stroke-dasharray:7.0,7.0;"/><polygon fill="#181818" points="431.99,336.3,428.4721,327.1008,428.4613,332.7577,422.8044,332.7468,431.99,336.3" style="stroke:#181818;stroke-width:1.0;"/><text fill="#000000" font-family="sans-serif" font-size="13" lengthAdjust="spacing" textLength="21" x="402.7246" y="325.2005">has</text></g><!--SRC=[VLD1JiCm4BplAwnSca2BuDe34fHB98GGXGUOP9jQTUp8tWe2wj-nev0ugI6dU6TsPtRYBEn1g8ORNhDQArtiZQwHaJaYZ4Z3YmElS4kjH6Qm8Aug6HBidfVwGwYAxRYq8IA5GceRP8sMhJ_08W9gGng2ha9oQ- -8Z7W_4kQ5LblnXUmQO25nHumqCwBQ4ok5joEq0e2kYRsYw_y6vfuL4sN_KlFFbNKZ-gDJaj92TxhiMb9HBWVMiYTaFQ52yfpxDYyTBuFJhzZMqqOrHQFYrfbtUNI3ddYDCCxgkePXyx8dfqER5mkq7eMbk9u_T5tvGrUPpVMDWVzWv0issWhIfkq7HpoUmdJZ3V601gv0E_WEYsaGGAwikra5fXbRJqZ_xVAdWT3oM-x41rCRWvpGrpTQaT5IeXbM6S5devq5BjFfqbc_HIoaNklgDge145Lsx4bCQ_UB1Rl315oTaKMVsfpecCbDCl_6CF_cdjDnBvBnYi5usSvm5j5ns3Gac5sKS8g7uaduAFw17PhikGry_W00]--></g></svg>