<?xml version="1.0" encoding="us-ascii" standalone="no"?><svg xmlns="http://www.w3.org/2000/svg" xmlns:xlink="http://www.w3.org/1999/xlink" contentStyleType="text/css" height="1339px" preserveAspectRatio="none" style="width:1833px;height:1339px;background:#FFFFFF;" version="1.1" viewBox="0 0 1833 1339" width="1833px" zoomAndPan="magnify"><defs/><g><rect fill="#FFFFFF" height="1144.4668" style="stroke:#181818;stroke-width:1.0;" width="10" x="128" y="93.6211"/><rect fill="#FFFFFF" height="325.2402" style="stroke:#181818;stroke-width:1.0;" width="10" x="629" y="116.9121"/><rect fill="#FFFFFF" height="281.6191" style="stroke:#181818;stroke-width:1.0;" width="10" x="629" y="473.4434"/><rect fill="#FFFFFF" height="48.582" style="stroke:#181818;stroke-width:1.0;" width="10" x="629" y="812.6445"/><rect fill="#FFFFFF" height="338.5703" style="stroke:#181818;stroke-width:1.0;" width="10" x="629" y="899.5176"/><rect fill="#FFFFFF" height="219.0371" style="stroke:#181818;stroke-width:1.0;" width="10" x="912" y="191.8242"/><rect fill="#FFFFFF" height="219.0371" style="stroke:#181818;stroke-width:1.0;" width="10" x="912" y="504.7344"/><rect fill="#FFFFFF" height="275.9883" style="stroke:#181818;stroke-width:1.0;" width="10" x="912" y="930.8086"/><rect fill="#FFFFFF" height="31.291" style="stroke:#181818;stroke-width:1.0;" width="10" x="1047.5" y="223.1152"/><rect fill="#FFFFFF" height="31.291" style="stroke:#181818;stroke-width:1.0;" width="10" x="1047.5" y="536.0254"/><rect fill="#FFFFFF" height="31.291" style="stroke:#181818;stroke-width:1.0;" width="10" x="1154.5" y="285.6973"/><rect fill="#FFFFFF" height="31.291" style="stroke:#181818;stroke-width:1.0;" width="10" x="1154.5" y="598.6074"/><rect fill="#FFFFFF" height="31.291" style="stroke:#181818;stroke-width:1.0;" width="10" x="1292" y="348.2793"/><rect fill="#FFFFFF" height="213.4063" style="stroke:#181818;stroke-width:1.0;" width="10" x="1292" y="962.0996"/><rect fill="#FFFFFF" height="31.291" style="stroke:#181818;stroke-width:1.0;" width="10" x="1435.5" y="661.1895"/><rect fill="#FFFFFF" height="140.8242" style="stroke:#181818;stroke-width:1.0;" width="10" x="1621.5" y="1003.3906"/><rect fill="#FFFFFF" height="80.582" style="stroke:#181818;stroke-width:1.0;" width="10" x="1626.5" y="1063.6328"/><rect fill="#FFFFFF" height="36.291" style="stroke:#181818;stroke-width:1.0;" width="10" x="1631.5" y="1107.9238"/><rect fill="none" height="99.1641" style="stroke:#000000;stroke-width:1.5;" width="686" x="10" y="770.0625"/><line style="stroke:#181818;stroke-width:0.5;stroke-dasharray:5.0,5.0;" x1="133" x2="133" y1="83.6211" y2="1256.0879"/><line style="stroke:#181818;stroke-width:0.5;stroke-dasharray:5.0,5.0;" x1="634" x2="634" y1="83.6211" y2="1256.0879"/><line style="stroke:#181818;stroke-width:0.5;stroke-dasharray:5.0,5.0;" x1="917" x2="917" y1="156.7227" y2="1256.0879"/><line style="stroke:#181818;stroke-width:0.5;stroke-dasharray:5.0,5.0;" x1="1052" x2="1052" y1="83.6211" y2="1256.0879"/><line style="stroke:#181818;stroke-width:0.5;stroke-dasharray:5.0,5.0;" x1="1159" x2="1159" y1="83.6211" y2="1256.0879"/><line style="stroke:#181818;stroke-width:0.5;stroke-dasharray:5.0,5.0;" x1="1297" x2="1297" y1="83.6211" y2="1256.0879"/><line style="stroke:#181818;stroke-width:0.5;stroke-dasharray:5.0,5.0;" x1="1440" x2="1440" y1="83.6211" y2="1256.0879"/><line style="stroke:#181818;stroke-width:0.5;stroke-dasharray:5.0,5.0;" x1="1626" x2="1626" y1="1011.2207" y2="1256.0879"/><text fill="#000000" font-family="sans-serif" font-size="14" lengthAdjust="spacing" textLength="220" x="20" y="80.1074">Human Resources Manager (HRM)</text><ellipse cx="133" cy="13.5" fill="#E3E3E3" rx="8" ry="8" style="stroke:#181818;stroke-width:0.5;"/><path d="M133,21.5 L133,48.5 M120,29.5 L146,29.5 M133,48.5 L120,63.5 M133,48.5 L146,63.5 " fill="none" style="stroke:#181818;stroke-width:0.5;"/><text fill="#000000" font-family="sans-serif" font-size="14" lengthAdjust="spacing" textLength="220" x="20" y="1270.1953">Human Resources Manager (HRM)</text><ellipse cx="133" cy="1282.209" fill="#E3E3E3" rx="8" ry="8" style="stroke:#181818;stroke-width:0.5;"/><path d="M133,1290.209 L133,1317.209 M120,1298.209 L146,1298.209 M133,1317.209 L120,1332.209 M133,1317.209 L146,1332.209 " fill="none" style="stroke:#181818;stroke-width:0.5;"/><rect fill="#E3E3E3" height="32.6211" rx="2.5" ry="2.5" style="stroke:#181818;stroke-width:0.5;" width="104" x="582" y="50"/><text fill="#000000" font-family="sans-serif" font-size="14" lengthAdjust="spacing" textLength="90" x="589" y="72.1074">:AssignSkillsUI</text><rect fill="#E3E3E3" height="32.6211" rx="2.5" ry="2.5" style="stroke:#181818;stroke-width:0.5;" width="104" x="582" y="1255.0879"/><text fill="#000000" font-family="sans-serif" font-size="14" lengthAdjust="spacing" textLength="90" x="589" y="1277.1953">:AssignSkillsUI</text><rect fill="#E3E3E3" height="32.6211" rx="2.5" ry="2.5" style="stroke:#181818;stroke-width:0.5;" width="154" x="840" y="1255.0879"/><text fill="#000000" font-family="sans-serif" font-size="14" lengthAdjust="spacing" textLength="140" x="847" y="1277.1953">:AssignSkillsController</text><rect fill="#E3E3E3" height="32.6211" rx="2.5" ry="2.5" style="stroke:#181818;stroke-width:0.5;" width="97" x="1004" y="50"/><text fill="#000000" font-family="sans-serif" font-size="14" lengthAdjust="spacing" textLength="83" x="1011" y="72.1074">:Repositories</text><rect fill="#E3E3E3" height="32.6211" rx="2.5" ry="2.5" style="stroke:#181818;stroke-width:0.5;" width="97" x="1004" y="1255.0879"/><text fill="#000000" font-family="sans-serif" font-size="14" lengthAdjust="spacing" textLength="83" x="1011" y="1277.1953">:Repositories</text><rect fill="#E3E3E3" height="51.2422" rx="2.5" ry="2.5" style="stroke:#181818;stroke-width:0.5;" width="97" x="1111" y="31.3789"/><text fill="#000000" font-family="sans-serif" font-size="14" lengthAdjust="spacing" textLength="74" x="1122.5" y="53.4863">repositories</text><text fill="#000000" font-family="sans-serif" font-size="14" lengthAdjust="spacing" textLength="83" x="1118" y="72.1074">:Repositories</text><rect fill="#E3E3E3" height="51.2422" rx="2.5" ry="2.5" style="stroke:#181818;stroke-width:0.5;" width="97" x="1111" y="1255.0879"/><text fill="#000000" font-family="sans-serif" font-size="14" lengthAdjust="spacing" textLength="74" x="1122.5" y="1277.1953">repositories</text><text fill="#000000" font-family="sans-serif" font-size="14" lengthAdjust="spacing" textLength="83" x="1118" y="1295.8164">:Repositories</text><rect fill="#E3E3E3" height="51.2422" rx="2.5" ry="2.5" style="stroke:#181818;stroke-width:0.5;" width="158" x="1218" y="31.3789"/><text fill="#000000" font-family="sans-serif" font-size="14" lengthAdjust="spacing" textLength="144" x="1225" y="53.4863">colaboratorRepository:</text><text fill="#000000" font-family="sans-serif" font-size="14" lengthAdjust="spacing" textLength="143" x="1225.5" y="72.1074">ColaboratorRepository</text><rect fill="#E3E3E3" height="51.2422" rx="2.5" ry="2.5" style="stroke:#181818;stroke-width:0.5;" width="158" x="1218" y="1255.0879"/><text fill="#000000" font-family="sans-serif" font-size="14" lengthAdjust="spacing" textLength="144" x="1225" y="1277.1953">colaboratorRepository:</text><text fill="#000000" font-family="sans-serif" font-size="14" lengthAdjust="spacing" textLength="143" x="1225.5" y="1295.8164">ColaboratorRepository</text><rect fill="#E3E3E3" height="51.2422" rx="2.5" ry="2.5" style="stroke:#181818;stroke-width:0.5;" width="109" x="1386" y="31.3789"/><text fill="#000000" font-family="sans-serif" font-size="14" lengthAdjust="spacing" textLength="95" x="1393" y="53.4863">skillRepository:</text><text fill="#000000" font-family="sans-serif" font-size="14" lengthAdjust="spacing" textLength="93" x="1394" y="72.1074">SkillRepository</text><rect fill="#E3E3E3" height="51.2422" rx="2.5" ry="2.5" style="stroke:#181818;stroke-width:0.5;" width="109" x="1386" y="1255.0879"/><text fill="#000000" font-family="sans-serif" font-size="14" lengthAdjust="spacing" textLength="95" x="1393" y="1277.1953">skillRepository:</text><text fill="#000000" font-family="sans-serif" font-size="14" lengthAdjust="spacing" textLength="93" x="1394" y="1295.8164">SkillRepository</text><rect fill="#E3E3E3" height="51.2422" rx="2.5" ry="2.5" style="stroke:#181818;stroke-width:0.5;" width="93" x="1580" y="1255.0879"/><text fill="#000000" font-family="sans-serif" font-size="14" lengthAdjust="spacing" textLength="79" x="1587" y="1277.1953">collaborator:</text><text fill="#000000" font-family="sans-serif" font-size="14" lengthAdjust="spacing" textLength="78" x="1587.5" y="1295.8164">Collaborator</text><rect fill="#FFFFFF" height="1144.4668" style="stroke:#181818;stroke-width:1.0;" width="10" x="128" y="93.6211"/><rect fill="#FFFFFF" height="325.2402" style="stroke:#181818;stroke-width:1.0;" width="10" x="629" y="116.9121"/><rect fill="#FFFFFF" height="281.6191" style="stroke:#181818;stroke-width:1.0;" width="10" x="629" y="473.4434"/><rect fill="#FFFFFF" height="48.582" style="stroke:#181818;stroke-width:1.0;" width="10" x="629" y="812.6445"/><rect fill="#FFFFFF" height="338.5703" style="stroke:#181818;stroke-width:1.0;" width="10" x="629" y="899.5176"/><rect fill="#FFFFFF" height="219.0371" style="stroke:#181818;stroke-width:1.0;" width="10" x="912" y="191.8242"/><rect fill="#FFFFFF" height="219.0371" style="stroke:#181818;stroke-width:1.0;" width="10" x="912" y="504.7344"/><rect fill="#FFFFFF" height="275.9883" style="stroke:#181818;stroke-width:1.0;" width="10" x="912" y="930.8086"/><rect fill="#FFFFFF" height="31.291" style="stroke:#181818;stroke-width:1.0;" width="10" x="1047.5" y="223.1152"/><rect fill="#FFFFFF" height="31.291" style="stroke:#181818;stroke-width:1.0;" width="10" x="1047.5" y="536.0254"/><rect fill="#FFFFFF" height="31.291" style="stroke:#181818;stroke-width:1.0;" width="10" x="1154.5" y="285.6973"/><rect fill="#FFFFFF" height="31.291" style="stroke:#181818;stroke-width:1.0;" width="10" x="1154.5" y="598.6074"/><rect fill="#FFFFFF" height="31.291" style="stroke:#181818;stroke-width:1.0;" width="10" x="1292" y="348.2793"/><rect fill="#FFFFFF" height="213.4063" style="stroke:#181818;stroke-width:1.0;" width="10" x="1292" y="962.0996"/><rect fill="#FFFFFF" height="31.291" style="stroke:#181818;stroke-width:1.0;" width="10" x="1435.5" y="661.1895"/><rect fill="#FFFFFF" height="140.8242" style="stroke:#181818;stroke-width:1.0;" width="10" x="1621.5" y="1003.3906"/><rect fill="#FFFFFF" height="80.582" style="stroke:#181818;stroke-width:1.0;" width="10" x="1626.5" y="1063.6328"/><rect fill="#FFFFFF" height="36.291" style="stroke:#181818;stroke-width:1.0;" width="10" x="1631.5" y="1107.9238"/><polygon fill="#181818" points="617,112.9121,627,116.9121,617,120.9121,621,116.9121" style="stroke:#181818;stroke-width:1.0;"/><line style="stroke:#181818;stroke-width:1.0;" x1="138" x2="623" y1="116.9121" y2="116.9121"/><text fill="#000000" font-family="sans-serif" font-size="13" font-weight="bold" lengthAdjust="spacing" textLength="7" x="145" y="111.6494">1</text><text fill="#000000" font-family="sans-serif" font-size="13" lengthAdjust="spacing" textLength="203" x="156" y="111.6494">asks to add a skill to a collaborator</text><polygon fill="#181818" points="828,144.2031,838,148.2031,828,152.2031,832,148.2031" style="stroke:#181818;stroke-width:1.0;"/><line style="stroke:#181818;stroke-width:1.0;" x1="639" x2="834" y1="148.2031" y2="148.2031"/><text fill="#000000" font-family="sans-serif" font-size="13" font-weight="bold" lengthAdjust="spacing" textLength="7" x="646" y="142.9404">2</text><text fill="#000000" font-family="sans-serif" font-size="13" lengthAdjust="spacing" textLength="36" x="657" y="142.9404">create</text><rect fill="#E3E3E3" height="32.6211" rx="2.5" ry="2.5" style="stroke:#181818;stroke-width:0.5;" width="154" x="840" y="124.9121"/><text fill="#000000" font-family="sans-serif" font-size="14" lengthAdjust="spacing" textLength="140" x="847" y="147.0195">:AssignSkillsController</text><polygon fill="#181818" points="900,187.8242,910,191.8242,900,195.8242,904,191.8242" style="stroke:#181818;stroke-width:1.0;"/><line style="stroke:#181818;stroke-width:1.0;" x1="639" x2="906" y1="191.8242" y2="191.8242"/><text fill="#000000" font-family="sans-serif" font-size="13" font-weight="bold" lengthAdjust="spacing" textLength="7" x="646" y="186.5615">3</text><text fill="#000000" font-family="sans-serif" font-size="13" lengthAdjust="spacing" textLength="102" x="657" y="186.5615">getCollaborators()</text><polygon fill="#181818" points="1035.5,219.1152,1045.5,223.1152,1035.5,227.1152,1039.5,223.1152" style="stroke:#181818;stroke-width:1.0;"/><line style="stroke:#181818;stroke-width:1.0;" x1="922" x2="1041.5" y1="223.1152" y2="223.1152"/><text fill="#000000" font-family="sans-serif" font-size="13" font-weight="bold" lengthAdjust="spacing" textLength="7" x="929" y="217.8525">4</text><text fill="#000000" font-family="sans-serif" font-size="13" lengthAdjust="spacing" textLength="75" x="940" y="217.8525">getInstance()</text><polygon fill="#181818" points="933,250.4063,923,254.4063,933,258.4063,929,254.4063" style="stroke:#181818;stroke-width:1.0;"/><line style="stroke:#181818;stroke-width:1.0;stroke-dasharray:2.0,2.0;" x1="927" x2="1051.5" y1="254.4063" y2="254.4063"/><text fill="#000000" font-family="sans-serif" font-size="13" font-weight="bold" lengthAdjust="spacing" textLength="7" x="939" y="249.1436">5</text><text fill="#000000" font-family="sans-serif" font-size="13" lengthAdjust="spacing" textLength="67" x="950" y="249.1436">repositories</text><polygon fill="#181818" points="1142.5,281.6973,1152.5,285.6973,1142.5,289.6973,1146.5,285.6973" style="stroke:#181818;stroke-width:1.0;"/><line style="stroke:#181818;stroke-width:1.0;" x1="922" x2="1148.5" y1="285.6973" y2="285.6973"/><text fill="#000000" font-family="sans-serif" font-size="13" font-weight="bold" lengthAdjust="spacing" textLength="7" x="929" y="280.4346">6</text><text fill="#000000" font-family="sans-serif" font-size="13" lengthAdjust="spacing" textLength="164" x="940" y="280.4346">getCollaboratorsRepository()</text><polygon fill="#181818" points="933,312.9883,923,316.9883,933,320.9883,929,316.9883" style="stroke:#181818;stroke-width:1.0;"/><line style="stroke:#181818;stroke-width:1.0;stroke-dasharray:2.0,2.0;" x1="927" x2="1158.5" y1="316.9883" y2="316.9883"/><text fill="#000000" font-family="sans-serif" font-size="13" font-weight="bold" lengthAdjust="spacing" textLength="7" x="939" y="311.7256">7</text><text fill="#000000" font-family="sans-serif" font-size="13" lengthAdjust="spacing" textLength="156" x="950" y="311.7256">getCollaboratorsRepository</text><polygon fill="#181818" points="1280,344.2793,1290,348.2793,1280,352.2793,1284,348.2793" style="stroke:#181818;stroke-width:1.0;"/><line style="stroke:#181818;stroke-width:1.0;" x1="922" x2="1286" y1="348.2793" y2="348.2793"/><text fill="#000000" font-family="sans-serif" font-size="13" font-weight="bold" lengthAdjust="spacing" textLength="7" x="929" y="343.0166">8</text><text fill="#000000" font-family="sans-serif" font-size="13" lengthAdjust="spacing" textLength="123" x="940" y="343.0166">getCollaboratorsList()</text><polygon fill="#181818" points="933,375.5703,923,379.5703,933,383.5703,929,379.5703" style="stroke:#181818;stroke-width:1.0;"/><line style="stroke:#181818;stroke-width:1.0;stroke-dasharray:2.0,2.0;" x1="927" x2="1296" y1="379.5703" y2="379.5703"/><text fill="#000000" font-family="sans-serif" font-size="13" font-weight="bold" lengthAdjust="spacing" textLength="7" x="939" y="374.3076">9</text><text fill="#000000" font-family="sans-serif" font-size="13" lengthAdjust="spacing" textLength="95" x="950" y="374.3076">collaboratorsList</text><polygon fill="#181818" points="650,406.8613,640,410.8613,650,414.8613,646,410.8613" style="stroke:#181818;stroke-width:1.0;"/><line style="stroke:#181818;stroke-width:1.0;stroke-dasharray:2.0,2.0;" x1="644" x2="916" y1="410.8613" y2="410.8613"/><text fill="#000000" font-family="sans-serif" font-size="13" font-weight="bold" lengthAdjust="spacing" textLength="14" x="656" y="405.5986">10</text><text fill="#000000" font-family="sans-serif" font-size="13" lengthAdjust="spacing" textLength="95" x="674" y="405.5986">collaboratorsList</text><polygon fill="#181818" points="149,438.1523,139,442.1523,149,446.1523,145,442.1523" style="stroke:#181818;stroke-width:1.0;"/><line style="stroke:#181818;stroke-width:1.0;stroke-dasharray:2.0,2.0;" x1="143" x2="633" y1="442.1523" y2="442.1523"/><text fill="#000000" font-family="sans-serif" font-size="13" font-weight="bold" lengthAdjust="spacing" textLength="14" x="155" y="436.8896">11</text><text fill="#000000" font-family="sans-serif" font-size="13" lengthAdjust="spacing" textLength="328" x="173" y="436.8896">type the IDnumber of the Collaborator to assign the skills</text><polygon fill="#181818" points="617,469.4434,627,473.4434,617,477.4434,621,473.4434" style="stroke:#181818;stroke-width:1.0;"/><line style="stroke:#181818;stroke-width:1.0;" x1="138" x2="623" y1="473.4434" y2="473.4434"/><text fill="#000000" font-family="sans-serif" font-size="13" font-weight="bold" lengthAdjust="spacing" textLength="14" x="145" y="468.1807">12</text><text fill="#000000" font-family="sans-serif" font-size="13" lengthAdjust="spacing" textLength="454" x="163" y="468.1807">selects a colaborator and request to assign one or more skills to a collaborator</text><polygon fill="#181818" points="900,500.7344,910,504.7344,900,508.7344,904,504.7344" style="stroke:#181818;stroke-width:1.0;"/><line style="stroke:#181818;stroke-width:1.0;" x1="639" x2="906" y1="504.7344" y2="504.7344"/><text fill="#000000" font-family="sans-serif" font-size="13" font-weight="bold" lengthAdjust="spacing" textLength="14" x="646" y="499.4717">13</text><text fill="#000000" font-family="sans-serif" font-size="13" lengthAdjust="spacing" textLength="72" x="664" y="499.4717">getSkillList()</text><polygon fill="#181818" points="1035.5,532.0254,1045.5,536.0254,1035.5,540.0254,1039.5,536.0254" style="stroke:#181818;stroke-width:1.0;"/><line style="stroke:#181818;stroke-width:1.0;" x1="922" x2="1041.5" y1="536.0254" y2="536.0254"/><text fill="#000000" font-family="sans-serif" font-size="13" font-weight="bold" lengthAdjust="spacing" textLength="14" x="929" y="530.7627">14</text><text fill="#000000" font-family="sans-serif" font-size="13" lengthAdjust="spacing" textLength="75" x="947" y="530.7627">getInstance()</text><polygon fill="#181818" points="933,563.3164,923,567.3164,933,571.3164,929,567.3164" style="stroke:#181818;stroke-width:1.0;"/><line style="stroke:#181818;stroke-width:1.0;stroke-dasharray:2.0,2.0;" x1="927" x2="1051.5" y1="567.3164" y2="567.3164"/><text fill="#000000" font-family="sans-serif" font-size="13" font-weight="bold" lengthAdjust="spacing" textLength="14" x="939" y="562.0537">15</text><text fill="#000000" font-family="sans-serif" font-size="13" lengthAdjust="spacing" textLength="67" x="957" y="562.0537">repositories</text><polygon fill="#181818" points="1142.5,594.6074,1152.5,598.6074,1142.5,602.6074,1146.5,598.6074" style="stroke:#181818;stroke-width:1.0;"/><line style="stroke:#181818;stroke-width:1.0;" x1="922" x2="1148.5" y1="598.6074" y2="598.6074"/><text fill="#000000" font-family="sans-serif" font-size="13" font-weight="bold" lengthAdjust="spacing" textLength="14" x="929" y="593.3447">16</text><text fill="#000000" font-family="sans-serif" font-size="13" lengthAdjust="spacing" textLength="113" x="947" y="593.3447">getSkillRepository()</text><polygon fill="#181818" points="933,625.8984,923,629.8984,933,633.8984,929,629.8984" style="stroke:#181818;stroke-width:1.0;"/><line style="stroke:#181818;stroke-width:1.0;stroke-dasharray:2.0,2.0;" x1="927" x2="1158.5" y1="629.8984" y2="629.8984"/><text fill="#000000" font-family="sans-serif" font-size="13" font-weight="bold" lengthAdjust="spacing" textLength="14" x="939" y="624.6357">17</text><text fill="#000000" font-family="sans-serif" font-size="13" lengthAdjust="spacing" textLength="85" x="957" y="624.6357">skillRepository</text><polygon fill="#181818" points="1423.5,657.1895,1433.5,661.1895,1423.5,665.1895,1427.5,661.1895" style="stroke:#181818;stroke-width:1.0;"/><line style="stroke:#181818;stroke-width:1.0;" x1="922" x2="1429.5" y1="661.1895" y2="661.1895"/><text fill="#000000" font-family="sans-serif" font-size="13" font-weight="bold" lengthAdjust="spacing" textLength="14" x="929" y="655.9268">18</text><text fill="#000000" font-family="sans-serif" font-size="13" lengthAdjust="spacing" textLength="57" x="947" y="655.9268">listSkills()</text><polygon fill="#181818" points="933,688.4805,923,692.4805,933,696.4805,929,692.4805" style="stroke:#181818;stroke-width:1.0;"/><line style="stroke:#181818;stroke-width:1.0;stroke-dasharray:2.0,2.0;" x1="927" x2="1439.5" y1="692.4805" y2="692.4805"/><text fill="#000000" font-family="sans-serif" font-size="13" font-weight="bold" lengthAdjust="spacing" textLength="14" x="939" y="687.2178">19</text><text fill="#000000" font-family="sans-serif" font-size="13" lengthAdjust="spacing" textLength="30" x="957" y="687.2178">skills</text><polygon fill="#181818" points="650,719.7715,640,723.7715,650,727.7715,646,723.7715" style="stroke:#181818;stroke-width:1.0;"/><line style="stroke:#181818;stroke-width:1.0;stroke-dasharray:2.0,2.0;" x1="644" x2="916" y1="723.7715" y2="723.7715"/><text fill="#000000" font-family="sans-serif" font-size="13" font-weight="bold" lengthAdjust="spacing" textLength="14" x="656" y="718.5088">20</text><text fill="#000000" font-family="sans-serif" font-size="13" lengthAdjust="spacing" textLength="30" x="674" y="718.5088">skills</text><polygon fill="#181818" points="149,751.0625,139,755.0625,149,759.0625,145,755.0625" style="stroke:#181818;stroke-width:1.0;"/><line style="stroke:#181818;stroke-width:1.0;stroke-dasharray:2.0,2.0;" x1="143" x2="633" y1="755.0625" y2="755.0625"/><text fill="#000000" font-family="sans-serif" font-size="13" font-weight="bold" lengthAdjust="spacing" textLength="14" x="155" y="749.7998">21</text><text fill="#000000" font-family="sans-serif" font-size="13" lengthAdjust="spacing" textLength="399" x="173" y="749.7998">shows all types of skills that can be assigned and asks to select one</text><path d="M10,770.0625 L83,770.0625 L83,779.3535 L73,789.3535 L10,789.3535 L10,770.0625 " fill="#EEEEEE" style="stroke:#000000;stroke-width:1.5;"/><rect fill="none" height="99.1641" style="stroke:#000000;stroke-width:1.5;" width="686" x="10" y="770.0625"/><text fill="#000000" font-family="sans-serif" font-size="13" font-weight="bold" lengthAdjust="spacing" textLength="28" x="25" y="785.0908">loop</text><polygon fill="#181818" points="617,808.6445,627,812.6445,617,816.6445,621,812.6445" style="stroke:#181818;stroke-width:1.0;"/><line style="stroke:#181818;stroke-width:1.0;" x1="138" x2="623" y1="812.6445" y2="812.6445"/><text fill="#000000" font-family="sans-serif" font-size="13" font-weight="bold" lengthAdjust="spacing" textLength="14" x="145" y="807.3818">22</text><text fill="#000000" font-family="sans-serif" font-size="13" lengthAdjust="spacing" textLength="87" x="163" y="807.3818">selects a skills</text><polygon fill="#181818" points="149,857.2266,139,861.2266,149,865.2266,145,861.2266" style="stroke:#181818;stroke-width:1.0;"/><line style="stroke:#181818;stroke-width:1.0;stroke-dasharray:2.0,2.0;" x1="143" x2="633" y1="861.2266" y2="861.2266"/><text fill="#000000" font-family="sans-serif" font-size="13" font-weight="bold" lengthAdjust="spacing" textLength="14" x="155" y="847.3184">23</text><text fill="#000000" font-family="sans-serif" font-size="13" lengthAdjust="spacing" textLength="201" x="173" y="838.6729">asks if you want to add more skills</text><text fill="#000000" font-family="sans-serif" font-size="13" lengthAdjust="spacing" textLength="137" x="177" y="855.9639">or continue the program</text><polygon fill="#181818" points="617,895.5176,627,899.5176,617,903.5176,621,899.5176" style="stroke:#181818;stroke-width:1.0;"/><line style="stroke:#181818;stroke-width:1.0;" x1="138" x2="623" y1="899.5176" y2="899.5176"/><text fill="#000000" font-family="sans-serif" font-size="13" font-weight="bold" lengthAdjust="spacing" textLength="14" x="145" y="894.2549">24</text><text fill="#000000" font-family="sans-serif" font-size="13" lengthAdjust="spacing" textLength="115" x="163" y="894.2549">selects a skill (skill)</text><polygon fill="#181818" points="900,926.8086,910,930.8086,900,934.8086,904,930.8086" style="stroke:#181818;stroke-width:1.0;"/><line style="stroke:#181818;stroke-width:1.0;" x1="639" x2="906" y1="930.8086" y2="930.8086"/><text fill="#000000" font-family="sans-serif" font-size="13" font-weight="bold" lengthAdjust="spacing" textLength="14" x="646" y="925.5459">25</text><text fill="#000000" font-family="sans-serif" font-size="13" lengthAdjust="spacing" textLength="236" x="664" y="925.5459">assignSkill(skill, IDnumberOfColaborator)</text><polygon fill="#181818" points="1280,958.0996,1290,962.0996,1280,966.0996,1284,962.0996" style="stroke:#181818;stroke-width:1.0;"/><line style="stroke:#181818;stroke-width:1.0;" x1="922" x2="1286" y1="962.0996" y2="962.0996"/><text fill="#000000" font-family="sans-serif" font-size="13" font-weight="bold" lengthAdjust="spacing" textLength="14" x="929" y="956.8369">26</text><text fill="#000000" font-family="sans-serif" font-size="13" lengthAdjust="spacing" textLength="236" x="947" y="956.8369">assignSkill(skill, IDnumberOfColaborator)</text><polygon fill="#181818" points="1568,989.3906,1578,993.3906,1568,997.3906,1572,993.3906" style="stroke:#181818;stroke-width:1.0;"/><line style="stroke:#181818;stroke-width:1.0;" x1="1302" x2="1574" y1="993.3906" y2="993.3906"/><text fill="#000000" font-family="sans-serif" font-size="13" font-weight="bold" lengthAdjust="spacing" textLength="14" x="1309" y="988.1279">27</text><text fill="#000000" font-family="sans-serif" font-size="13" lengthAdjust="spacing" textLength="236" x="1327" y="988.1279">assignSkill(skill, IDnumberOfColaborator)</text><rect fill="#E3E3E3" height="51.2422" rx="2.5" ry="2.5" style="stroke:#181818;stroke-width:0.5;" width="93" x="1580" y="970.0996"/><text fill="#000000" font-family="sans-serif" font-size="14" lengthAdjust="spacing" textLength="79" x="1587" y="992.207">collaborator:</text><text fill="#000000" font-family="sans-serif" font-size="14" lengthAdjust="spacing" textLength="78" x="1587.5" y="1010.8281">Collaborator</text><line style="stroke:#181818;stroke-width:1.0;" x1="1631.5" x2="1678.5" y1="1050.6328" y2="1050.6328"/><line style="stroke:#181818;stroke-width:1.0;" x1="1678.5" x2="1678.5" y1="1050.6328" y2="1063.6328"/><line style="stroke:#181818;stroke-width:1.0;" x1="1637.5" x2="1678.5" y1="1063.6328" y2="1063.6328"/><polygon fill="#181818" points="1647.5,1059.6328,1637.5,1063.6328,1647.5,1067.6328,1643.5,1063.6328" style="stroke:#181818;stroke-width:1.0;"/><text fill="#000000" font-family="sans-serif" font-size="13" font-weight="bold" lengthAdjust="spacing" textLength="14" x="1643.5" y="1045.3701">28</text><text fill="#000000" font-family="sans-serif" font-size="13" lengthAdjust="spacing" textLength="113" x="1661.5" y="1045.3701">validateSkills(skills)</text><line style="stroke:#181818;stroke-width:1.0;" x1="1636.5" x2="1683.5" y1="1094.9238" y2="1094.9238"/><line style="stroke:#181818;stroke-width:1.0;" x1="1683.5" x2="1683.5" y1="1094.9238" y2="1107.9238"/><line style="stroke:#181818;stroke-width:1.0;" x1="1642.5" x2="1683.5" y1="1107.9238" y2="1107.9238"/><polygon fill="#181818" points="1652.5,1103.9238,1642.5,1107.9238,1652.5,1111.9238,1648.5,1107.9238" style="stroke:#181818;stroke-width:1.0;"/><text fill="#000000" font-family="sans-serif" font-size="13" font-weight="bold" lengthAdjust="spacing" textLength="14" x="1648.5" y="1089.6611">29</text><text fill="#000000" font-family="sans-serif" font-size="13" lengthAdjust="spacing" textLength="160" x="1666.5" y="1089.6611">addCollaboratorSkills(skills)</text><polygon fill="#181818" points="1313,1140.2148,1303,1144.2148,1313,1148.2148,1309,1144.2148" style="stroke:#181818;stroke-width:1.0;"/><line style="stroke:#181818;stroke-width:1.0;stroke-dasharray:2.0,2.0;" x1="1307" x2="1625.5" y1="1144.2148" y2="1144.2148"/><text fill="#000000" font-family="sans-serif" font-size="13" font-weight="bold" lengthAdjust="spacing" textLength="14" x="1319" y="1138.9521">30</text><text fill="#000000" font-family="sans-serif" font-size="13" lengthAdjust="spacing" textLength="67" x="1337" y="1138.9521">collaborator</text><polygon fill="#181818" points="933,1171.5059,923,1175.5059,933,1179.5059,929,1175.5059" style="stroke:#181818;stroke-width:1.0;"/><line style="stroke:#181818;stroke-width:1.0;stroke-dasharray:2.0,2.0;" x1="927" x2="1296" y1="1175.5059" y2="1175.5059"/><text fill="#000000" font-family="sans-serif" font-size="13" font-weight="bold" lengthAdjust="spacing" textLength="14" x="939" y="1170.2432">31</text><text fill="#000000" font-family="sans-serif" font-size="13" lengthAdjust="spacing" textLength="67" x="957" y="1170.2432">collaborator</text><polygon fill="#181818" points="650,1202.7969,640,1206.7969,650,1210.7969,646,1206.7969" style="stroke:#181818;stroke-width:1.0;"/><line style="stroke:#181818;stroke-width:1.0;stroke-dasharray:2.0,2.0;" x1="644" x2="916" y1="1206.7969" y2="1206.7969"/><text fill="#000000" font-family="sans-serif" font-size="13" font-weight="bold" lengthAdjust="spacing" textLength="14" x="656" y="1201.5342">32</text><text fill="#000000" font-family="sans-serif" font-size="13" lengthAdjust="spacing" textLength="67" x="674" y="1201.5342">collaborator</text><polygon fill="#181818" points="144,1234.0879,134,1238.0879,144,1242.0879,140,1238.0879" style="stroke:#181818;stroke-width:1.0;"/><line style="stroke:#181818;stroke-width:1.0;stroke-dasharray:2.0,2.0;" x1="138" x2="633" y1="1238.0879" y2="1238.0879"/><text fill="#000000" font-family="sans-serif" font-size="13" font-weight="bold" lengthAdjust="spacing" textLength="14" x="150" y="1232.8252">33</text><text fill="#000000" font-family="sans-serif" font-size="13" lengthAdjust="spacing" textLength="158" x="168" y="1232.8252">displays operation success</text><!--SRC=[jLTDRzim3BtxLn0zDSNw1tmeK7W36gp5YgIzzQBQIYB4aJn9Rf5_FugE7Ld-YDrjkhIsoSSdYOzap5x8WcbsW8EIAjrfTU1WTSaZqtmfMBfdMxwsnvo3vgbbSflx1cR7ClKfv1OsB3SyYbXfbImFxrpZ_wbL6guUoWEJiE96bJhb1fwOH4mDrm-hfyKLC0FuJuHuLgIYODB2LNnlZDZAzLxakNbTaj7hSiGcKT9gbUTSastoideCh5UyK4OW8S4DsQn-FBTDj6Vn9hiEpu_tBssFLENiNMc6HetrCNwJIT_xYbWdgd7yMzxhzXloM__iE6Bm9aeLitaa5_zxH9SXFfZbTDWHd1O-mEqTdYt4wBCtO1MmB0C6n8iU0wJQjG74YsbUkeLW2EckuEO6OLFDqMh810sstFhapVMYPTl4eKjjVNABG10CpwV2Mag3QPho0AO5vGwpyzKjXt9xeXQ3dn4TyuoFmzN4NDhqxF9ymMD4AUTwcHBicUem_1ZnVlYQUTASQGlwKHWxnZaPFDt4FrwN6Y7i6DTav9Jh51u7zC4ebxf9YK0eYHZiiS1YkEEm_5vLCr0RUlPFWjH1HOW-aMBEUU95SmhfbPpXEHPLKsciWMKomzJxNN9ZlH1ASi2F1wNhK5FLEQGwAZJTsnmHd2UsK6ipnVQVX7RUrwY-UjO4oGsiG8b1GP-252foWakzQMeCCUHuYrKddBdRgh7CsIvvXFirqSnzJe_hAJmEDJOUW_9tGE1cfpvHTwx5eTIDatSjgXspaEB4yivFqkCPIRBkZvLedHwZ_hX-GyoLAYvfFzZKO6CDzq24n0QEgeHFDnESchTN8jwagnafJaT2bbL5AxJQukWsKAVgjrncKrZ3DVrPN1eBpgKdFXqgPMlb_QsfihystkYqY4QAIlymqDV1vWIyA9TaKjPMVUwkLPff5lfx9Xr6hV8_LSE-KqWqXW-MYmonJmMbogJ5PF1-QdDAp0IEcET-AmwepWxsZpZtSsyIyKjtrQFJ-II_x3paE4q2ZUOd-OR3tgIEC8hSdVWknJhNLvHh9aoHioDsXu9Z0A4ac3B5tx1cQAwaII-Al3VkvzOV]--></g></svg>