<?xml version="1.0" encoding="us-ascii" standalone="no"?><svg xmlns="http://www.w3.org/2000/svg" xmlns:xlink="http://www.w3.org/1999/xlink" contentStyleType="text/css" height="497px" preserveAspectRatio="none" style="width:588px;height:497px;background:#FFFFFF;" version="1.1" viewBox="0 0 588 497" width="588px" zoomAndPan="magnify"><defs/><g><!--class AgendaUI--><g id="elem_AgendaUI"><rect codeLine="8" fill="#F1F1F1" height="48" id="AgendaUI" rx="2.5" ry="2.5" style="stroke:#181818;stroke-width:0.5;" width="93" x="254" y="7"/><ellipse cx="269" cy="23" fill="#ADD1B2" rx="11" ry="11" style="stroke:#181818;stroke-width:1.0;"/><path d="M271.7656,18.875 Q271.9219,18.6563 272.1094,18.5469 Q272.2969,18.4375 272.5156,18.4375 Q272.8906,18.4375 273.125,18.7031 Q273.3594,18.9531 273.3594,19.5625 L273.3594,21.0156 Q273.3594,21.625 273.125,21.8906 Q272.8906,22.1563 272.5156,22.1563 Q272.1719,22.1563 271.9688,21.9531 Q271.7656,21.7656 271.6563,21.25 Q271.6094,20.8906 271.4219,20.7031 Q271.0938,20.3281 270.4844,20.1094 Q269.875,19.8906 269.25,19.8906 Q268.4844,19.8906 267.8438,20.2188 Q267.2188,20.5469 266.7188,21.2969 Q266.2344,22.0469 266.2344,23.0781 L266.2344,24.1719 Q266.2344,25.4063 267.125,26.2344 Q268.0156,27.0469 269.6094,27.0469 Q270.5469,27.0469 271.2031,26.7969 Q271.5938,26.6406 272.0156,26.2031 Q272.2813,25.9375 272.4219,25.8594 Q272.5781,25.7813 272.7813,25.7813 Q273.1094,25.7813 273.3594,26.0469 Q273.625,26.2969 273.625,26.6406 Q273.625,26.9844 273.2813,27.3906 Q272.7813,27.9688 271.9844,28.2969 Q270.9063,28.75 269.6094,28.75 Q268.0938,28.75 266.8906,28.125 Q265.9063,27.625 265.2188,26.5625 Q264.5313,25.4844 264.5313,24.2031 L264.5313,23.0469 Q264.5313,21.7188 265.1406,20.5781 Q265.7656,19.4219 266.8594,18.8125 Q267.9531,18.1875 269.1875,18.1875 Q269.9219,18.1875 270.5625,18.3594 Q271.2188,18.5156 271.7656,18.875 Z " fill="#000000"/><text fill="#000000" font-family="sans-serif" font-size="14" lengthAdjust="spacing" textLength="61" x="283" y="28.7969">AgendaUI</text><line style="stroke:#181818;stroke-width:0.5;" x1="255" x2="346" y1="39" y2="39"/><line style="stroke:#181818;stroke-width:0.5;" x1="255" x2="346" y1="47" y2="47"/></g><!--class AgendaController--><g id="elem_AgendaController"><rect codeLine="11" fill="#F1F1F1" height="103.8633" id="AgendaController" rx="2.5" ry="2.5" style="stroke:#181818;stroke-width:0.5;" width="311" x="145" y="115"/><ellipse cx="240.75" cy="131" fill="#ADD1B2" rx="11" ry="11" style="stroke:#181818;stroke-width:1.0;"/><path d="M243.5156,126.875 Q243.6719,126.6563 243.8594,126.5469 Q244.0469,126.4375 244.2656,126.4375 Q244.6406,126.4375 244.875,126.7031 Q245.1094,126.9531 245.1094,127.5625 L245.1094,129.0156 Q245.1094,129.625 244.875,129.8906 Q244.6406,130.1563 244.2656,130.1563 Q243.9219,130.1563 243.7188,129.9531 Q243.5156,129.7656 243.4063,129.25 Q243.3594,128.8906 243.1719,128.7031 Q242.8438,128.3281 242.2344,128.1094 Q241.625,127.8906 241,127.8906 Q240.2344,127.8906 239.5938,128.2188 Q238.9688,128.5469 238.4688,129.2969 Q237.9844,130.0469 237.9844,131.0781 L237.9844,132.1719 Q237.9844,133.4063 238.875,134.2344 Q239.7656,135.0469 241.3594,135.0469 Q242.2969,135.0469 242.9531,134.7969 Q243.3438,134.6406 243.7656,134.2031 Q244.0313,133.9375 244.1719,133.8594 Q244.3281,133.7813 244.5313,133.7813 Q244.8594,133.7813 245.1094,134.0469 Q245.375,134.2969 245.375,134.6406 Q245.375,134.9844 245.0313,135.3906 Q244.5313,135.9688 243.7344,136.2969 Q242.6563,136.75 241.3594,136.75 Q239.8438,136.75 238.6406,136.125 Q237.6563,135.625 236.9688,134.5625 Q236.2813,133.4844 236.2813,132.2031 L236.2813,131.0469 Q236.2813,129.7188 236.8906,128.5781 Q237.5156,127.4219 238.6094,126.8125 Q239.7031,126.1875 240.9375,126.1875 Q241.6719,126.1875 242.3125,126.3594 Q242.9688,126.5156 243.5156,126.875 Z " fill="#000000"/><text fill="#000000" font-family="sans-serif" font-size="14" lengthAdjust="spacing" textLength="111" x="261.25" y="136.7969">AgendaController</text><line style="stroke:#181818;stroke-width:0.5;" x1="146" x2="455" y1="147" y2="147"/><line style="stroke:#181818;stroke-width:0.5;" x1="146" x2="455" y1="155" y2="155"/><text fill="#000000" font-family="sans-serif" font-size="14" lengthAdjust="spacing" textLength="299" x="151" y="174.1074">+retrieveAvailableEntries() : List&lt;AgendaEntry&gt;</text><text fill="#000000" font-family="sans-serif" font-size="14" lengthAdjust="spacing" textLength="202" x="151" y="192.7285">+getVehicleList() : List&lt;Vehicle&gt;</text><text fill="#000000" font-family="sans-serif" font-size="14" lengthAdjust="spacing" textLength="138" x="151" y="211.3496">+addVehicleToEntry()</text></g><!--class AgendaRepository--><g id="elem_AgendaRepository"><rect codeLine="17" fill="#F1F1F1" height="85.2422" id="AgendaRepository" rx="2.5" ry="2.5" style="stroke:#181818;stroke-width:0.5;" width="283" x="7" y="279"/><ellipse cx="85.75" cy="295" fill="#ADD1B2" rx="11" ry="11" style="stroke:#181818;stroke-width:1.0;"/><path d="M88.5156,290.875 Q88.6719,290.6563 88.8594,290.5469 Q89.0469,290.4375 89.2656,290.4375 Q89.6406,290.4375 89.875,290.7031 Q90.1094,290.9531 90.1094,291.5625 L90.1094,293.0156 Q90.1094,293.625 89.875,293.8906 Q89.6406,294.1563 89.2656,294.1563 Q88.9219,294.1563 88.7188,293.9531 Q88.5156,293.7656 88.4063,293.25 Q88.3594,292.8906 88.1719,292.7031 Q87.8438,292.3281 87.2344,292.1094 Q86.625,291.8906 86,291.8906 Q85.2344,291.8906 84.5938,292.2188 Q83.9688,292.5469 83.4688,293.2969 Q82.9844,294.0469 82.9844,295.0781 L82.9844,296.1719 Q82.9844,297.4063 83.875,298.2344 Q84.7656,299.0469 86.3594,299.0469 Q87.2969,299.0469 87.9531,298.7969 Q88.3438,298.6406 88.7656,298.2031 Q89.0313,297.9375 89.1719,297.8594 Q89.3281,297.7813 89.5313,297.7813 Q89.8594,297.7813 90.1094,298.0469 Q90.375,298.2969 90.375,298.6406 Q90.375,298.9844 90.0313,299.3906 Q89.5313,299.9688 88.7344,300.2969 Q87.6563,300.75 86.3594,300.75 Q84.8438,300.75 83.6406,300.125 Q82.6563,299.625 81.9688,298.5625 Q81.2813,297.4844 81.2813,296.2031 L81.2813,295.0469 Q81.2813,293.7188 81.8906,292.5781 Q82.5156,291.4219 83.6094,290.8125 Q84.7031,290.1875 85.9375,290.1875 Q86.6719,290.1875 87.3125,290.3594 Q87.9688,290.5156 88.5156,290.875 Z " fill="#000000"/><text fill="#000000" font-family="sans-serif" font-size="14" lengthAdjust="spacing" textLength="117" x="106.25" y="300.7969">AgendaRepository</text><line style="stroke:#181818;stroke-width:0.5;" x1="8" x2="289" y1="311" y2="311"/><line style="stroke:#181818;stroke-width:0.5;" x1="8" x2="289" y1="319" y2="319"/><text fill="#000000" font-family="sans-serif" font-size="14" lengthAdjust="spacing" textLength="271" x="13" y="338.1074">+getAvailableEntries() : List&lt;AgendaEntry&gt;</text><text fill="#000000" font-family="sans-serif" font-size="14" lengthAdjust="spacing" textLength="138" x="13" y="356.7285">+addVehicleToEntry()</text></g><!--class VehicleRepository--><g id="elem_VehicleRepository"><rect codeLine="22" fill="#F1F1F1" height="66.6211" id="VehicleRepository" rx="2.5" ry="2.5" style="stroke:#181818;stroke-width:0.5;" width="256" x="325.5" y="288"/><ellipse cx="392.25" cy="304" fill="#ADD1B2" rx="11" ry="11" style="stroke:#181818;stroke-width:1.0;"/><path d="M395.0156,299.875 Q395.1719,299.6563 395.3594,299.5469 Q395.5469,299.4375 395.7656,299.4375 Q396.1406,299.4375 396.375,299.7031 Q396.6094,299.9531 396.6094,300.5625 L396.6094,302.0156 Q396.6094,302.625 396.375,302.8906 Q396.1406,303.1563 395.7656,303.1563 Q395.4219,303.1563 395.2188,302.9531 Q395.0156,302.7656 394.9063,302.25 Q394.8594,301.8906 394.6719,301.7031 Q394.3438,301.3281 393.7344,301.1094 Q393.125,300.8906 392.5,300.8906 Q391.7344,300.8906 391.0938,301.2188 Q390.4688,301.5469 389.9688,302.2969 Q389.4844,303.0469 389.4844,304.0781 L389.4844,305.1719 Q389.4844,306.4063 390.375,307.2344 Q391.2656,308.0469 392.8594,308.0469 Q393.7969,308.0469 394.4531,307.7969 Q394.8438,307.6406 395.2656,307.2031 Q395.5313,306.9375 395.6719,306.8594 Q395.8281,306.7813 396.0313,306.7813 Q396.3594,306.7813 396.6094,307.0469 Q396.875,307.2969 396.875,307.6406 Q396.875,307.9844 396.5313,308.3906 Q396.0313,308.9688 395.2344,309.2969 Q394.1563,309.75 392.8594,309.75 Q391.3438,309.75 390.1406,309.125 Q389.1563,308.625 388.4688,307.5625 Q387.7813,306.4844 387.7813,305.2031 L387.7813,304.0469 Q387.7813,302.7188 388.3906,301.5781 Q389.0156,300.4219 390.1094,299.8125 Q391.2031,299.1875 392.4375,299.1875 Q393.1719,299.1875 393.8125,299.3594 Q394.4688,299.5156 395.0156,299.875 Z " fill="#000000"/><text fill="#000000" font-family="sans-serif" font-size="14" lengthAdjust="spacing" textLength="114" x="412.75" y="309.7969">VehicleRepository</text><line style="stroke:#181818;stroke-width:0.5;" x1="326.5" x2="580.5" y1="320" y2="320"/><line style="stroke:#181818;stroke-width:0.5;" x1="326.5" x2="580.5" y1="328" y2="328"/><text fill="#000000" font-family="sans-serif" font-size="14" lengthAdjust="spacing" textLength="244" x="331.5" y="347.1074">+getAvailableVehicles() : List&lt;Vehicle&gt;</text></g><!--class AgendaEntry--><g id="elem_AgendaEntry"><rect codeLine="26" fill="#F1F1F1" height="66.6211" id="AgendaEntry" rx="2.5" ry="2.5" style="stroke:#181818;stroke-width:0.5;" width="114" x="91.5" y="424"/><ellipse cx="106.5" cy="440" fill="#ADD1B2" rx="11" ry="11" style="stroke:#181818;stroke-width:1.0;"/><path d="M109.2656,435.875 Q109.4219,435.6563 109.6094,435.5469 Q109.7969,435.4375 110.0156,435.4375 Q110.3906,435.4375 110.625,435.7031 Q110.8594,435.9531 110.8594,436.5625 L110.8594,438.0156 Q110.8594,438.625 110.625,438.8906 Q110.3906,439.1563 110.0156,439.1563 Q109.6719,439.1563 109.4688,438.9531 Q109.2656,438.7656 109.1563,438.25 Q109.1094,437.8906 108.9219,437.7031 Q108.5938,437.3281 107.9844,437.1094 Q107.375,436.8906 106.75,436.8906 Q105.9844,436.8906 105.3438,437.2188 Q104.7188,437.5469 104.2188,438.2969 Q103.7344,439.0469 103.7344,440.0781 L103.7344,441.1719 Q103.7344,442.4063 104.625,443.2344 Q105.5156,444.0469 107.1094,444.0469 Q108.0469,444.0469 108.7031,443.7969 Q109.0938,443.6406 109.5156,443.2031 Q109.7813,442.9375 109.9219,442.8594 Q110.0781,442.7813 110.2813,442.7813 Q110.6094,442.7813 110.8594,443.0469 Q111.125,443.2969 111.125,443.6406 Q111.125,443.9844 110.7813,444.3906 Q110.2813,444.9688 109.4844,445.2969 Q108.4063,445.75 107.1094,445.75 Q105.5938,445.75 104.3906,445.125 Q103.4063,444.625 102.7188,443.5625 Q102.0313,442.4844 102.0313,441.2031 L102.0313,440.0469 Q102.0313,438.7188 102.6406,437.5781 Q103.2656,436.4219 104.3594,435.8125 Q105.4531,435.1875 106.6875,435.1875 Q107.4219,435.1875 108.0625,435.3594 Q108.7188,435.5156 109.2656,435.875 Z " fill="#000000"/><text fill="#000000" font-family="sans-serif" font-size="14" lengthAdjust="spacing" textLength="82" x="120.5" y="445.7969">AgendaEntry</text><line style="stroke:#181818;stroke-width:0.5;" x1="92.5" x2="204.5" y1="456" y2="456"/><line style="stroke:#181818;stroke-width:0.5;" x1="92.5" x2="204.5" y1="464" y2="464"/><text fill="#000000" font-family="sans-serif" font-size="14" lengthAdjust="spacing" textLength="88" x="97.5" y="483.1074">+addVehicle()</text></g><!--link AgendaUI to AgendaController--><g id="link_AgendaUI_AgendaController"><path codeLine="30" d="M300.5,55.04 C300.5,71.5 300.5,88.3 300.5,108.96 " fill="none" id="AgendaUI-to-AgendaController" style="stroke:#181818;stroke-width:1.0;"/><polygon fill="#181818" points="300.5,114.96,304.5,105.96,300.5,109.96,296.5,105.96,300.5,114.96" style="stroke:#181818;stroke-width:1.0;"/></g><!--link AgendaController to AgendaRepository--><g id="link_AgendaController_AgendaRepository"><path codeLine="31" d="M249.46,219.2 C230.14,238.59 212.6357,256.1504 194.2957,274.5504 " fill="none" id="AgendaController-to-AgendaRepository" style="stroke:#181818;stroke-width:1.0;"/><polygon fill="#181818" points="190.06,278.8,199.2466,275.2495,193.5898,275.2587,193.5805,269.6019,190.06,278.8" style="stroke:#181818;stroke-width:1.0;"/></g><!--link AgendaController to VehicleRepository--><g id="link_AgendaController_VehicleRepository"><path codeLine="32" d="M351.87,219.2 C374.62,241.88 396.451,263.6337 416.491,283.6137 " fill="none" id="AgendaController-to-VehicleRepository" style="stroke:#181818;stroke-width:1.0;"/><polygon fill="#181818" points="420.74,287.85,417.1907,278.6629,417.1992,284.3198,411.5423,284.3283,420.74,287.85" style="stroke:#181818;stroke-width:1.0;"/></g><!--link AgendaRepository to AgendaEntry--><g id="link_AgendaRepository_AgendaEntry"><path codeLine="33" d="M148.5,364.16 C148.5,383.37 148.5,399.84 148.5,417.8 " fill="none" id="AgendaRepository-to-AgendaEntry" style="stroke:#181818;stroke-width:1.0;"/><polygon fill="#181818" points="148.5,423.8,152.5,414.8,148.5,418.8,144.5,414.8,148.5,423.8" style="stroke:#181818;stroke-width:1.0;"/></g><!--SRC=[ZP1DImCn48Rl-HMvsI85poA5HJmKF5drFisEQUYOX6IiHF6_cwHBKxjByJZpVip3n9sn7WAyImzg1nhNd0XbGCLWDQ68HqFSGky-ZTNo3IYUAcGiSl8elQDK1d4r8Rh0Jfoa546C7NCmcm_6bN9sRRvGtWXH5Tbfj3syhEIt-FcxktUMWoF2aBNh39ixS8_T7Wp1Xl31baMSpUMjV3IHxmwniaxB7D38hxWrYh2epJOiYmNwVfYUNStDvkSKJ-XTDEn2gXIvzDy05zi7vKBzu8WJv6UCjRpcsyd3hUDt5ulbwArYzEVcQbpJhX6-6BshbLK-yGi0]--></g></svg>