<?xml version="1.0" encoding="us-ascii" standalone="no"?><svg xmlns="http://www.w3.org/2000/svg" xmlns:xlink="http://www.w3.org/1999/xlink" contentStyleType="text/css" height="948px" preserveAspectRatio="none" style="width:1157px;height:948px;background:#FFFFFF;" version="1.1" viewBox="0 0 1157 948" width="1157px" zoomAndPan="magnify"><defs/><g><text fill="#000000" font-family="sans-serif" font-size="14" font-weight="bold" lengthAdjust="spacing" textLength="441" x="354.25" y="44.4082">US026 - Assign one or more vehicles to an entry in the Agenda.</text><rect fill="#FFFFFF" height="699.6934" style="stroke:#181818;stroke-width:1.0;" width="10" x="90" y="147.543"/><rect fill="#FFFFFF" height="173.7461" style="stroke:#181818;stroke-width:1.0;" width="10" x="394" y="170.834"/><rect fill="#FFFFFF" height="471.3652" style="stroke:#181818;stroke-width:1.0;" width="10" x="394" y="375.8711"/><rect fill="#FFFFFF" height="93.873" style="stroke:#181818;stroke-width:1.0;" width="10" x="600" y="202.125"/><rect fill="#FFFFFF" height="93.873" style="stroke:#181818;stroke-width:1.0;" width="10" x="600" y="407.1621"/><rect fill="#FFFFFF" height="156.4551" style="stroke:#181818;stroke-width:1.0;" width="10" x="600" y="652.4902"/><rect fill="#FFFFFF" height="31.291" style="stroke:#181818;stroke-width:1.0;" width="10" x="806" y="233.416"/><rect fill="#FFFFFF" height="93.873" style="stroke:#181818;stroke-width:1.0;" width="10" x="806" y="683.7813"/><rect fill="#FFFFFF" height="31.291" style="stroke:#181818;stroke-width:1.0;" width="10" x="949.5" y="438.4531"/><rect fill="#FFFFFF" height="31.291" style="stroke:#181818;stroke-width:1.0;" width="10" x="1075.5" y="715.0723"/><rect fill="none" height="269.6191" style="stroke:#000000;stroke-width:1.5;" width="1130.5" x="10" y="547.3262"/><line style="stroke:#181818;stroke-width:0.5;stroke-dasharray:5.0,5.0;" x1="95" x2="95" y1="137.543" y2="865.2363"/><line style="stroke:#181818;stroke-width:0.5;stroke-dasharray:5.0,5.0;" x1="398.5" x2="398.5" y1="137.543" y2="865.2363"/><line style="stroke:#181818;stroke-width:0.5;stroke-dasharray:5.0,5.0;" x1="604.5" x2="604.5" y1="137.543" y2="865.2363"/><line style="stroke:#181818;stroke-width:0.5;stroke-dasharray:5.0,5.0;" x1="810.5" x2="810.5" y1="137.543" y2="865.2363"/><line style="stroke:#181818;stroke-width:0.5;stroke-dasharray:5.0,5.0;" x1="954.5" x2="954.5" y1="137.543" y2="865.2363"/><line style="stroke:#181818;stroke-width:0.5;stroke-dasharray:5.0,5.0;" x1="1080.5" x2="1080.5" y1="137.543" y2="865.2363"/><text fill="#000000" font-family="sans-serif" font-size="14" lengthAdjust="spacing" textLength="144" x="20" y="134.0293">Green Space Manager</text><ellipse cx="95" cy="67.4219" fill="#E2E2F0" rx="8" ry="8" style="stroke:#181818;stroke-width:0.5;"/><path d="M95,75.4219 L95,102.4219 M82,83.4219 L108,83.4219 M95,102.4219 L82,117.4219 M95,102.4219 L108,117.4219 " fill="none" style="stroke:#181818;stroke-width:0.5;"/><text fill="#000000" font-family="sans-serif" font-size="14" lengthAdjust="spacing" textLength="144" x="20" y="879.3438">Green Space Manager</text><ellipse cx="95" cy="891.3574" fill="#E2E2F0" rx="8" ry="8" style="stroke:#181818;stroke-width:0.5;"/><path d="M95,899.3574 L95,926.3574 M82,907.3574 L108,907.3574 M95,926.3574 L82,941.3574 M95,926.3574 L108,941.3574 " fill="none" style="stroke:#181818;stroke-width:0.5;"/><rect fill="#E2E2F0" height="32.6211" rx="2.5" ry="2.5" style="stroke:#181818;stroke-width:0.5;" width="79" x="359.5" y="103.9219"/><text fill="#000000" font-family="sans-serif" font-size="14" lengthAdjust="spacing" textLength="65" x="366.5" y="126.0293">Agenda UI</text><rect fill="#E2E2F0" height="32.6211" rx="2.5" ry="2.5" style="stroke:#181818;stroke-width:0.5;" width="79" x="359.5" y="864.2363"/><text fill="#000000" font-family="sans-serif" font-size="14" lengthAdjust="spacing" textLength="65" x="366.5" y="886.3438">Agenda UI</text><rect fill="#E2E2F0" height="32.6211" rx="2.5" ry="2.5" style="stroke:#181818;stroke-width:0.5;" width="129" x="540.5" y="103.9219"/><text fill="#000000" font-family="sans-serif" font-size="14" lengthAdjust="spacing" textLength="115" x="547.5" y="126.0293">Agenda Controller</text><rect fill="#E2E2F0" height="32.6211" rx="2.5" ry="2.5" style="stroke:#181818;stroke-width:0.5;" width="129" x="540.5" y="864.2363"/><text fill="#000000" font-family="sans-serif" font-size="14" lengthAdjust="spacing" textLength="115" x="547.5" y="886.3438">Agenda Controller</text><rect fill="#E2E2F0" height="32.6211" rx="2.5" ry="2.5" style="stroke:#181818;stroke-width:0.5;" width="135" x="743.5" y="103.9219"/><text fill="#000000" font-family="sans-serif" font-size="14" lengthAdjust="spacing" textLength="121" x="750.5" y="126.0293">Agenda Repository</text><rect fill="#E2E2F0" height="32.6211" rx="2.5" ry="2.5" style="stroke:#181818;stroke-width:0.5;" width="135" x="743.5" y="864.2363"/><text fill="#000000" font-family="sans-serif" font-size="14" lengthAdjust="spacing" textLength="121" x="750.5" y="886.3438">Agenda Repository</text><rect fill="#E2E2F0" height="32.6211" rx="2.5" ry="2.5" style="stroke:#181818;stroke-width:0.5;" width="132" x="888.5" y="103.9219"/><text fill="#000000" font-family="sans-serif" font-size="14" lengthAdjust="spacing" textLength="118" x="895.5" y="126.0293">Vehicle Repository</text><rect fill="#E2E2F0" height="32.6211" rx="2.5" ry="2.5" style="stroke:#181818;stroke-width:0.5;" width="132" x="888.5" y="864.2363"/><text fill="#000000" font-family="sans-serif" font-size="14" lengthAdjust="spacing" textLength="118" x="895.5" y="886.3438">Vehicle Repository</text><rect fill="#E2E2F0" height="32.6211" rx="2.5" ry="2.5" style="stroke:#181818;stroke-width:0.5;" width="100" x="1030.5" y="103.9219"/><text fill="#000000" font-family="sans-serif" font-size="14" lengthAdjust="spacing" textLength="86" x="1037.5" y="126.0293">Agenda Entry</text><rect fill="#E2E2F0" height="32.6211" rx="2.5" ry="2.5" style="stroke:#181818;stroke-width:0.5;" width="100" x="1030.5" y="864.2363"/><text fill="#000000" font-family="sans-serif" font-size="14" lengthAdjust="spacing" textLength="86" x="1037.5" y="886.3438">Agenda Entry</text><rect fill="#FFFFFF" height="699.6934" style="stroke:#181818;stroke-width:1.0;" width="10" x="90" y="147.543"/><rect fill="#FFFFFF" height="173.7461" style="stroke:#181818;stroke-width:1.0;" width="10" x="394" y="170.834"/><rect fill="#FFFFFF" height="471.3652" style="stroke:#181818;stroke-width:1.0;" width="10" x="394" y="375.8711"/><rect fill="#FFFFFF" height="93.873" style="stroke:#181818;stroke-width:1.0;" width="10" x="600" y="202.125"/><rect fill="#FFFFFF" height="93.873" style="stroke:#181818;stroke-width:1.0;" width="10" x="600" y="407.1621"/><rect fill="#FFFFFF" height="156.4551" style="stroke:#181818;stroke-width:1.0;" width="10" x="600" y="652.4902"/><rect fill="#FFFFFF" height="31.291" style="stroke:#181818;stroke-width:1.0;" width="10" x="806" y="233.416"/><rect fill="#FFFFFF" height="93.873" style="stroke:#181818;stroke-width:1.0;" width="10" x="806" y="683.7813"/><rect fill="#FFFFFF" height="31.291" style="stroke:#181818;stroke-width:1.0;" width="10" x="949.5" y="438.4531"/><rect fill="#FFFFFF" height="31.291" style="stroke:#181818;stroke-width:1.0;" width="10" x="1075.5" y="715.0723"/><polygon fill="#181818" points="382,166.834,392,170.834,382,174.834,386,170.834" style="stroke:#181818;stroke-width:1.0;"/><line style="stroke:#181818;stroke-width:1.0;" x1="100" x2="388" y1="170.834" y2="170.834"/><text fill="#000000" font-family="sans-serif" font-size="13" lengthAdjust="spacing" textLength="275" x="107" y="165.5713">Request to assign vehicle(s) to an agenda entry</text><polygon fill="#181818" points="588,198.125,598,202.125,588,206.125,592,202.125" style="stroke:#181818;stroke-width:1.0;"/><line style="stroke:#181818;stroke-width:1.0;" x1="404" x2="594" y1="202.125" y2="202.125"/><text fill="#000000" font-family="sans-serif" font-size="13" lengthAdjust="spacing" textLength="177" x="411" y="196.8623">Retrieve list of available entries</text><polygon fill="#181818" points="794,229.416,804,233.416,794,237.416,798,233.416" style="stroke:#181818;stroke-width:1.0;"/><line style="stroke:#181818;stroke-width:1.0;" x1="610" x2="800" y1="233.416" y2="233.416"/><text fill="#000000" font-family="sans-serif" font-size="13" lengthAdjust="spacing" textLength="177" x="617" y="228.1533">Retrieve list of available entries</text><polygon fill="#181818" points="621,260.707,611,264.707,621,268.707,617,264.707" style="stroke:#181818;stroke-width:1.0;"/><line style="stroke:#181818;stroke-width:1.0;stroke-dasharray:2.0,2.0;" x1="615" x2="810" y1="264.707" y2="264.707"/><text fill="#000000" font-family="sans-serif" font-size="13" lengthAdjust="spacing" textLength="131" x="627" y="259.4443">List of available entries</text><polygon fill="#181818" points="415,291.998,405,295.998,415,299.998,411,295.998" style="stroke:#181818;stroke-width:1.0;"/><line style="stroke:#181818;stroke-width:1.0;stroke-dasharray:2.0,2.0;" x1="409" x2="604" y1="295.998" y2="295.998"/><text fill="#000000" font-family="sans-serif" font-size="13" lengthAdjust="spacing" textLength="131" x="421" y="290.7354">List of available entries</text><polygon fill="#181818" points="111,340.5801,101,344.5801,111,348.5801,107,344.5801" style="stroke:#181818;stroke-width:1.0;"/><line style="stroke:#181818;stroke-width:1.0;stroke-dasharray:2.0,2.0;" x1="105" x2="398" y1="344.5801" y2="344.5801"/><text fill="#000000" font-family="sans-serif" font-size="13" lengthAdjust="spacing" textLength="181" x="117" y="322.0264">Shows available agenda entries</text><text fill="#000000" font-family="sans-serif" font-size="13" lengthAdjust="spacing" textLength="188" x="121" y="339.3174">and asks for the selection of one</text><polygon fill="#181818" points="382,371.8711,392,375.8711,382,379.8711,386,375.8711" style="stroke:#181818;stroke-width:1.0;"/><line style="stroke:#181818;stroke-width:1.0;" x1="100" x2="388" y1="375.8711" y2="375.8711"/><text fill="#000000" font-family="sans-serif" font-size="13" lengthAdjust="spacing" textLength="148" x="107" y="370.6084">Selects one agenda entry</text><polygon fill="#181818" points="588,403.1621,598,407.1621,588,411.1621,592,407.1621" style="stroke:#181818;stroke-width:1.0;"/><line style="stroke:#181818;stroke-width:1.0;" x1="404" x2="594" y1="407.1621" y2="407.1621"/><text fill="#000000" font-family="sans-serif" font-size="13" lengthAdjust="spacing" textLength="126" x="411" y="401.8994">Requests vehicles list</text><polygon fill="#181818" points="937.5,434.4531,947.5,438.4531,937.5,442.4531,941.5,438.4531" style="stroke:#181818;stroke-width:1.0;"/><line style="stroke:#181818;stroke-width:1.0;" x1="610" x2="943.5" y1="438.4531" y2="438.4531"/><text fill="#000000" font-family="sans-serif" font-size="13" lengthAdjust="spacing" textLength="126" x="617" y="433.1904">Requests vehicles list</text><polygon fill="#181818" points="621,465.7441,611,469.7441,621,473.7441,617,469.7441" style="stroke:#181818;stroke-width:1.0;"/><line style="stroke:#181818;stroke-width:1.0;stroke-dasharray:2.0,2.0;" x1="615" x2="953.5" y1="469.7441" y2="469.7441"/><text fill="#000000" font-family="sans-serif" font-size="13" lengthAdjust="spacing" textLength="138" x="627" y="464.4814">List of available vehicles</text><polygon fill="#181818" points="415,497.0352,405,501.0352,415,505.0352,411,501.0352" style="stroke:#181818;stroke-width:1.0;"/><line style="stroke:#181818;stroke-width:1.0;stroke-dasharray:2.0,2.0;" x1="409" x2="604" y1="501.0352" y2="501.0352"/><text fill="#000000" font-family="sans-serif" font-size="13" lengthAdjust="spacing" textLength="138" x="421" y="495.7725">List of available vehicles</text><polygon fill="#181818" points="111,528.3262,101,532.3262,111,536.3262,107,532.3262" style="stroke:#181818;stroke-width:1.0;"/><line style="stroke:#181818;stroke-width:1.0;stroke-dasharray:2.0,2.0;" x1="105" x2="393" y1="532.3262" y2="532.3262"/><text fill="#000000" font-family="sans-serif" font-size="13" lengthAdjust="spacing" textLength="138" x="117" y="527.0635">List of available vehicles</text><path d="M10,547.3262 L83,547.3262 L83,556.6172 L73,566.6172 L10,566.6172 L10,547.3262 " fill="#EEEEEE" style="stroke:#000000;stroke-width:1.5;"/><rect fill="none" height="269.6191" style="stroke:#000000;stroke-width:1.5;" width="1130.5" x="10" y="547.3262"/><text fill="#000000" font-family="sans-serif" font-size="13" font-weight="bold" lengthAdjust="spacing" textLength="28" x="25" y="562.3545">loop</text><text fill="#000000" font-family="sans-serif" font-size="11" font-weight="bold" lengthAdjust="spacing" textLength="209" x="98" y="561.1963">[While there are vehicles to be added]</text><polygon fill="#181818" points="111,585.9082,101,589.9082,111,593.9082,107,589.9082" style="stroke:#181818;stroke-width:1.0;"/><line style="stroke:#181818;stroke-width:1.0;stroke-dasharray:2.0,2.0;" x1="105" x2="393" y1="589.9082" y2="589.9082"/><text fill="#000000" font-family="sans-serif" font-size="13" lengthAdjust="spacing" textLength="194" x="117" y="584.6455">Asks for the selection of a vehicle</text><polygon fill="#181818" points="382,617.1992,392,621.1992,382,625.1992,386,621.1992" style="stroke:#181818;stroke-width:1.0;"/><line style="stroke:#181818;stroke-width:1.0;" x1="100" x2="388" y1="621.1992" y2="621.1992"/><text fill="#000000" font-family="sans-serif" font-size="13" lengthAdjust="spacing" textLength="87" x="107" y="615.9365">Selects vehicle</text><polygon fill="#181818" points="588,648.4902,598,652.4902,588,656.4902,592,652.4902" style="stroke:#181818;stroke-width:1.0;"/><line style="stroke:#181818;stroke-width:1.0;" x1="404" x2="594" y1="652.4902" y2="652.4902"/><text fill="#000000" font-family="sans-serif" font-size="13" lengthAdjust="spacing" textLength="160" x="411" y="647.2275">Add vehicle to agenda entry</text><polygon fill="#181818" points="794,679.7813,804,683.7813,794,687.7813,798,683.7813" style="stroke:#181818;stroke-width:1.0;"/><line style="stroke:#181818;stroke-width:1.0;" x1="610" x2="800" y1="683.7813" y2="683.7813"/><text fill="#000000" font-family="sans-serif" font-size="13" lengthAdjust="spacing" textLength="160" x="617" y="678.5186">Add vehicle to agenda entry</text><polygon fill="#181818" points="1063.5,711.0723,1073.5,715.0723,1063.5,719.0723,1067.5,715.0723" style="stroke:#181818;stroke-width:1.0;"/><line style="stroke:#181818;stroke-width:1.0;" x1="816" x2="1069.5" y1="715.0723" y2="715.0723"/><text fill="#000000" font-family="sans-serif" font-size="13" lengthAdjust="spacing" textLength="66" x="823" y="709.8096">Add vehicle</text><polygon fill="#181818" points="827,742.3633,817,746.3633,827,750.3633,823,746.3633" style="stroke:#181818;stroke-width:1.0;"/><line style="stroke:#181818;stroke-width:1.0;stroke-dasharray:2.0,2.0;" x1="821" x2="1079.5" y1="746.3633" y2="746.3633"/><text fill="#000000" font-family="sans-serif" font-size="13" lengthAdjust="spacing" textLength="79" x="833" y="741.1006">updated entry</text><polygon fill="#181818" points="621,773.6543,611,777.6543,621,781.6543,617,777.6543" style="stroke:#181818;stroke-width:1.0;"/><line style="stroke:#181818;stroke-width:1.0;stroke-dasharray:2.0,2.0;" x1="615" x2="810" y1="777.6543" y2="777.6543"/><text fill="#000000" font-family="sans-serif" font-size="13" lengthAdjust="spacing" textLength="79" x="627" y="772.3916">updated entry</text><polygon fill="#181818" points="415,804.9453,405,808.9453,415,812.9453,411,808.9453" style="stroke:#181818;stroke-width:1.0;"/><line style="stroke:#181818;stroke-width:1.0;stroke-dasharray:2.0,2.0;" x1="409" x2="604" y1="808.9453" y2="808.9453"/><text fill="#000000" font-family="sans-serif" font-size="13" lengthAdjust="spacing" textLength="79" x="421" y="803.6826">updated entry</text><polygon fill="#181818" points="106,843.2363,96,847.2363,106,851.2363,102,847.2363" style="stroke:#181818;stroke-width:1.0;"/><line style="stroke:#181818;stroke-width:1.0;stroke-dasharray:2.0,2.0;" x1="100" x2="398" y1="847.2363" y2="847.2363"/><text fill="#000000" font-family="sans-serif" font-size="13" lengthAdjust="spacing" textLength="157" x="112" y="841.9736">Confirmation of assignment</text><text fill="#888888" font-family="sans-serif" font-size="10" lengthAdjust="spacing" textLength="32" x="1117.5" y="15.791">US026</text><!--SRC=[hPN1Zjf038RlUGgBq-w1gkgX1mv8Q5MjaDfB4UrbBoPZoAXX9ZipKEtRrpC9mII11RONf1dixtViFmxcmJeOFJiY0uiASu8VQ713RWJeOUEtMOKkw5nNQ0ACPXio2c4vJt_Nf-LyCER9ck1iMJQe-lPuEPZpaohhDPVq9dBYvMdqBofqNb8tlBdknpVqRwmjmUcS1HqOjLny_l8LnZ3pNcyCM4F0ZTbQHx2liHw21JH0CGkqWL1G0_gK5OIAN4t9C0zwZu5I-pB-WV6qxHLCkEpN7VcGUBLS8_7W7niHh2jEMaTUs-yMreAFZKq2mMdQ4vIQPUmQS8-wn1K_PoHgybscc4kFrsh4njv5JnCHZF5msT_FyXIT9yfAJ_jy0w_t_B6tJ8l3cy2Yi7-zm8ZfCEs5nsKKZ_AFXpMR9lh2KqciO4tKPpFr5NcAVMSiKffFzlke1PB7_D6zSLetZbsyK5SWvUidCw-Uze4hcoMX_yi5GpgzVcH3HhYRLLfRmUz2SmRRWvSATXRBYg-K8ZMaEZlhB3mmiWjcQaFUiSnCgKDisa8N_7VBkhW1sziJKxcfJrdTt7gPo_1njv9TfJXUDTgzWKd29UEUOkvqvJkrY0Rp4Q9zXfp1OMljjjZw8NrEjWmTN3ZoaW7_0000]--></g></svg>