<?xml version="1.0" encoding="us-ascii" standalone="no"?><svg xmlns="http://www.w3.org/2000/svg" xmlns:xlink="http://www.w3.org/1999/xlink" contentStyleType="text/css" height="411px" preserveAspectRatio="none" style="width:761px;height:411px;background:#FFFFFF;" version="1.1" viewBox="0 0 761 411" width="761px" zoomAndPan="magnify"><defs/><g><rect fill="#FFFFFF" height="208.4063" style="stroke:#181818;stroke-width:1.0;" width="10" x="209" y="90.5332"/><rect fill="#FFFFFF" height="188.1152" style="stroke:#181818;stroke-width:1.0;" width="10" x="538.5" y="158.1152"/><rect fill="#FFFFFF" height="80.582" style="stroke:#181818;stroke-width:1.0;" width="10" x="543.5" y="218.3574"/><rect fill="#FFFFFF" height="36.291" style="stroke:#181818;stroke-width:1.0;" width="10" x="548.5" y="262.6484"/><rect fill="none" height="201.4063" style="stroke:#000000;stroke-width:1.5;" width="630.5" x="125" y="105.5332"/><line style="stroke:#181818;stroke-width:0.5;stroke-dasharray:5.0,5.0;" x1="214" x2="214" y1="57.2422" y2="355.2305"/><line style="stroke:#181818;stroke-width:0.5;stroke-dasharray:5.0,5.0;" x1="543" x2="543" y1="165.9453" y2="355.2305"/><rect fill="#E3E3E3" height="51.2422" rx="2.5" ry="2.5" style="stroke:#181818;stroke-width:0.5;" width="158" x="135" y="5"/><text fill="#000000" font-family="sans-serif" font-size="14" lengthAdjust="spacing" textLength="144" x="142" y="27.1074">colaboratorRepository:</text><text fill="#000000" font-family="sans-serif" font-size="14" lengthAdjust="spacing" textLength="143" x="142.5" y="45.7285">ColaboratorRepository</text><rect fill="#E3E3E3" height="51.2422" rx="2.5" ry="2.5" style="stroke:#181818;stroke-width:0.5;" width="158" x="135" y="354.2305"/><text fill="#000000" font-family="sans-serif" font-size="14" lengthAdjust="spacing" textLength="144" x="142" y="376.3379">colaboratorRepository:</text><text fill="#000000" font-family="sans-serif" font-size="14" lengthAdjust="spacing" textLength="143" x="142.5" y="394.959">ColaboratorRepository</text><rect fill="#E3E3E3" height="51.2422" rx="2.5" ry="2.5" style="stroke:#181818;stroke-width:0.5;" width="93" x="497" y="354.2305"/><text fill="#000000" font-family="sans-serif" font-size="14" lengthAdjust="spacing" textLength="79" x="504" y="376.3379">collaborator:</text><text fill="#000000" font-family="sans-serif" font-size="14" lengthAdjust="spacing" textLength="78" x="504.5" y="394.959">Collaborator</text><rect fill="#FFFFFF" height="208.4063" style="stroke:#181818;stroke-width:1.0;" width="10" x="209" y="90.5332"/><rect fill="#FFFFFF" height="188.1152" style="stroke:#181818;stroke-width:1.0;" width="10" x="538.5" y="158.1152"/><rect fill="#FFFFFF" height="80.582" style="stroke:#181818;stroke-width:1.0;" width="10" x="543.5" y="218.3574"/><rect fill="#FFFFFF" height="36.291" style="stroke:#181818;stroke-width:1.0;" width="10" x="548.5" y="262.6484"/><polygon fill="#181818" points="197,86.5332,207,90.5332,197,94.5332,201,90.5332" style="stroke:#181818;stroke-width:1.0;"/><line style="stroke:#181818;stroke-width:1.0;" x1="0" x2="203" y1="90.5332" y2="90.5332"/><text fill="#000000" font-family="sans-serif" font-size="13" font-weight="bold" lengthAdjust="spacing" textLength="14" x="7" y="85.2705">26</text><text fill="#000000" font-family="sans-serif" font-size="13" lengthAdjust="spacing" textLength="172" x="25" y="85.2705">assignSkill(collaborator,skills)</text><path d="M125,105.5332 L255,105.5332 L255,114.8242 L245,124.8242 L125,124.8242 L125,105.5332 " fill="#EEEEEE" style="stroke:#000000;stroke-width:1.5;"/><rect fill="none" height="201.4063" style="stroke:#000000;stroke-width:1.5;" width="630.5" x="125" y="105.5332"/><text fill="#000000" font-family="sans-serif" font-size="13" font-weight="bold" lengthAdjust="spacing" textLength="85" x="140" y="120.5615">Assing a Skill</text><polygon fill="#181818" points="485,144.1152,495,148.1152,485,152.1152,489,148.1152" style="stroke:#181818;stroke-width:1.0;"/><line style="stroke:#181818;stroke-width:1.0;" x1="219" x2="491" y1="148.1152" y2="148.1152"/><text fill="#000000" font-family="sans-serif" font-size="13" font-weight="bold" lengthAdjust="spacing" textLength="14" x="226" y="142.8525">27</text><text fill="#000000" font-family="sans-serif" font-size="13" lengthAdjust="spacing" textLength="236" x="244" y="142.8525">assignSkill(skill, IDnumberOfColaborator)</text><rect fill="#E3E3E3" height="51.2422" rx="2.5" ry="2.5" style="stroke:#181818;stroke-width:0.5;" width="93" x="497" y="124.8242"/><text fill="#000000" font-family="sans-serif" font-size="14" lengthAdjust="spacing" textLength="79" x="504" y="146.9316">collaborator:</text><text fill="#000000" font-family="sans-serif" font-size="14" lengthAdjust="spacing" textLength="78" x="504.5" y="165.5527">Collaborator</text><line style="stroke:#181818;stroke-width:1.0;" x1="548.5" x2="595.5" y1="205.3574" y2="205.3574"/><line style="stroke:#181818;stroke-width:1.0;" x1="595.5" x2="595.5" y1="205.3574" y2="218.3574"/><line style="stroke:#181818;stroke-width:1.0;" x1="554.5" x2="595.5" y1="218.3574" y2="218.3574"/><polygon fill="#181818" points="564.5,214.3574,554.5,218.3574,564.5,222.3574,560.5,218.3574" style="stroke:#181818;stroke-width:1.0;"/><text fill="#000000" font-family="sans-serif" font-size="13" font-weight="bold" lengthAdjust="spacing" textLength="14" x="560.5" y="200.0947">28</text><text fill="#000000" font-family="sans-serif" font-size="13" lengthAdjust="spacing" textLength="113" x="578.5" y="200.0947">validateSkills(skills)</text><line style="stroke:#181818;stroke-width:1.0;" x1="553.5" x2="600.5" y1="249.6484" y2="249.6484"/><line style="stroke:#181818;stroke-width:1.0;" x1="600.5" x2="600.5" y1="249.6484" y2="262.6484"/><line style="stroke:#181818;stroke-width:1.0;" x1="559.5" x2="600.5" y1="262.6484" y2="262.6484"/><polygon fill="#181818" points="569.5,258.6484,559.5,262.6484,569.5,266.6484,565.5,262.6484" style="stroke:#181818;stroke-width:1.0;"/><text fill="#000000" font-family="sans-serif" font-size="13" font-weight="bold" lengthAdjust="spacing" textLength="14" x="565.5" y="244.3857">29</text><text fill="#000000" font-family="sans-serif" font-size="13" lengthAdjust="spacing" textLength="160" x="583.5" y="244.3857">addCollaboratorSkills(skills)</text><polygon fill="#181818" points="225,294.9395,215,298.9395,225,302.9395,221,298.9395" style="stroke:#181818;stroke-width:1.0;"/><line style="stroke:#181818;stroke-width:1.0;stroke-dasharray:2.0,2.0;" x1="219" x2="537.5" y1="298.9395" y2="298.9395"/><text fill="#000000" font-family="sans-serif" font-size="13" font-weight="bold" lengthAdjust="spacing" textLength="14" x="231" y="293.6768">30</text><text fill="#000000" font-family="sans-serif" font-size="13" lengthAdjust="spacing" textLength="67" x="249" y="293.6768">collaborator</text><polygon fill="#181818" points="11,333.2305,1,337.2305,11,341.2305,7,337.2305" style="stroke:#181818;stroke-width:1.0;"/><line style="stroke:#181818;stroke-width:1.0;stroke-dasharray:2.0,2.0;" x1="5" x2="213" y1="337.2305" y2="337.2305"/><text fill="#000000" font-family="sans-serif" font-size="13" font-weight="bold" lengthAdjust="spacing" textLength="14" x="17" y="331.9678">31</text><text fill="#000000" font-family="sans-serif" font-size="13" lengthAdjust="spacing" textLength="67" x="35" y="331.9678">collaborator</text><!--SRC=[ZP71Ri8m38RlUGgB4o1wuR19rJHfWXrsOeBhBYOn9MgQL4dAnDil95kL0klcK-BV_hyuThNKBLfie37QyACr3O6t7J7NAoto6YlQ-RCYiCGzwahb1Uw8mdnANS41bIF6GjfBBblK7YRSADmRYzxOBRN6oN0ubnzwTIy_0NImshw-ttZqnQcrlyQEN6VOUQExPayMbW-iU8v-PIXpijAxMYerpUiNxf9oiq7V8sF8lJoXf_GS1Y4gQxeMNe9Hc1KXUaNXKWA1bFlEvp24Hiu2tjO9iZbaFp1BW9uv60Y-8qzUqqeueP8Yz4QOc_vC1LcCs_yFWqBattz5kp6xZ_o3sUziz9s2VZ5dOs8cfCMI5j7wgIZI7eVOBm00]--></g></svg>