<?xml version="1.0" encoding="us-ascii" standalone="no"?><svg xmlns="http://www.w3.org/2000/svg" xmlns:xlink="http://www.w3.org/1999/xlink" contentStyleType="text/css" height="926px" preserveAspectRatio="none" style="width:1281px;height:926px;background:#FFFFFF;" version="1.1" viewBox="0 0 1281 926" width="1281px" zoomAndPan="magnify"><defs/><g><rect fill="#FFFFFF" height="731.6152" style="stroke:#181818;stroke-width:1.0;" width="10" x="128" y="93.6211"/><rect fill="#FFFFFF" height="185.7461" style="stroke:#181818;stroke-width:1.0;" width="10" x="622" y="116.9121"/><rect fill="#FFFFFF" height="142.125" style="stroke:#181818;stroke-width:1.0;" width="10" x="622" y="333.9492"/><rect fill="#FFFFFF" height="48.582" style="stroke:#181818;stroke-width:1.0;" width="10" x="622" y="533.6563"/><rect fill="#FFFFFF" height="204.707" style="stroke:#181818;stroke-width:1.0;" width="10" x="622" y="620.5293"/><rect fill="#FFFFFF" height="79.543" style="stroke:#181818;stroke-width:1.0;" width="10" x="905" y="191.8242"/><rect fill="#FFFFFF" height="79.543" style="stroke:#181818;stroke-width:1.0;" width="10" x="905" y="365.2402"/><rect fill="#FFFFFF" height="142.125" style="stroke:#181818;stroke-width:1.0;" width="10" x="905" y="651.8203"/><rect fill="#FFFFFF" height="79.543" style="stroke:#181818;stroke-width:1.0;" width="10" x="1188" y="683.1113"/><rect fill="none" height="99.1641" style="stroke:#000000;stroke-width:1.5;" width="679" x="10" y="491.0742"/><line style="stroke:#181818;stroke-width:0.5;stroke-dasharray:5.0,5.0;" x1="133" x2="133" y1="83.6211" y2="843.2363"/><line style="stroke:#181818;stroke-width:0.5;stroke-dasharray:5.0,5.0;" x1="627" x2="627" y1="83.6211" y2="843.2363"/><line style="stroke:#181818;stroke-width:0.5;stroke-dasharray:5.0,5.0;" x1="910" x2="910" y1="156.7227" y2="843.2363"/><line style="stroke:#181818;stroke-width:0.5;stroke-dasharray:5.0,5.0;" x1="1193" x2="1193" y1="83.6211" y2="843.2363"/><text fill="#000000" font-family="sans-serif" font-size="14" lengthAdjust="spacing" textLength="220" x="20" y="80.1074">Human Resources Manager (HRM)</text><ellipse cx="133" cy="13.5" fill="#E3E3E3" rx="8" ry="8" style="stroke:#181818;stroke-width:0.5;"/><path d="M133,21.5 L133,48.5 M120,29.5 L146,29.5 M133,48.5 L120,63.5 M133,48.5 L146,63.5 " fill="none" style="stroke:#181818;stroke-width:0.5;"/><text fill="#000000" font-family="sans-serif" font-size="14" lengthAdjust="spacing" textLength="220" x="20" y="857.3438">Human Resources Manager (HRM)</text><ellipse cx="133" cy="869.3574" fill="#E3E3E3" rx="8" ry="8" style="stroke:#181818;stroke-width:0.5;"/><path d="M133,877.3574 L133,904.3574 M120,885.3574 L146,885.3574 M133,904.3574 L120,919.3574 M133,904.3574 L146,919.3574 " fill="none" style="stroke:#181818;stroke-width:0.5;"/><rect fill="#E3E3E3" height="32.6211" rx="2.5" ry="2.5" style="stroke:#181818;stroke-width:0.5;" width="104" x="575" y="50"/><text fill="#000000" font-family="sans-serif" font-size="14" lengthAdjust="spacing" textLength="90" x="582" y="72.1074">:AssignSkillsUI</text><rect fill="#E3E3E3" height="32.6211" rx="2.5" ry="2.5" style="stroke:#181818;stroke-width:0.5;" width="104" x="575" y="842.2363"/><text fill="#000000" font-family="sans-serif" font-size="14" lengthAdjust="spacing" textLength="90" x="582" y="864.3438">:AssignSkillsUI</text><rect fill="#E3E3E3" height="32.6211" rx="2.5" ry="2.5" style="stroke:#181818;stroke-width:0.5;" width="154" x="833" y="842.2363"/><text fill="#000000" font-family="sans-serif" font-size="14" lengthAdjust="spacing" textLength="140" x="840" y="864.3438">:AssignSkillsController</text><rect fill="#E3E3E3" height="51.2422" rx="2.5" ry="2.5" style="stroke:#181818;stroke-width:0.5;" width="158" x="1114" y="31.3789"/><text fill="#000000" font-family="sans-serif" font-size="14" lengthAdjust="spacing" textLength="144" x="1121" y="53.4863">colaboratorRepository:</text><text fill="#000000" font-family="sans-serif" font-size="14" lengthAdjust="spacing" textLength="143" x="1121.5" y="72.1074">ColaboratorRepository</text><rect fill="#E3E3E3" height="51.2422" rx="2.5" ry="2.5" style="stroke:#181818;stroke-width:0.5;" width="158" x="1114" y="842.2363"/><text fill="#000000" font-family="sans-serif" font-size="14" lengthAdjust="spacing" textLength="144" x="1121" y="864.3438">colaboratorRepository:</text><text fill="#000000" font-family="sans-serif" font-size="14" lengthAdjust="spacing" textLength="143" x="1121.5" y="882.9648">ColaboratorRepository</text><rect fill="#FFFFFF" height="731.6152" style="stroke:#181818;stroke-width:1.0;" width="10" x="128" y="93.6211"/><rect fill="#FFFFFF" height="185.7461" style="stroke:#181818;stroke-width:1.0;" width="10" x="622" y="116.9121"/><rect fill="#FFFFFF" height="142.125" style="stroke:#181818;stroke-width:1.0;" width="10" x="622" y="333.9492"/><rect fill="#FFFFFF" height="48.582" style="stroke:#181818;stroke-width:1.0;" width="10" x="622" y="533.6563"/><rect fill="#FFFFFF" height="204.707" style="stroke:#181818;stroke-width:1.0;" width="10" x="622" y="620.5293"/><rect fill="#FFFFFF" height="79.543" style="stroke:#181818;stroke-width:1.0;" width="10" x="905" y="191.8242"/><rect fill="#FFFFFF" height="79.543" style="stroke:#181818;stroke-width:1.0;" width="10" x="905" y="365.2402"/><rect fill="#FFFFFF" height="142.125" style="stroke:#181818;stroke-width:1.0;" width="10" x="905" y="651.8203"/><rect fill="#FFFFFF" height="79.543" style="stroke:#181818;stroke-width:1.0;" width="10" x="1188" y="683.1113"/><polygon fill="#181818" points="610,112.9121,620,116.9121,610,120.9121,614,116.9121" style="stroke:#181818;stroke-width:1.0;"/><line style="stroke:#181818;stroke-width:1.0;" x1="138" x2="616" y1="116.9121" y2="116.9121"/><text fill="#000000" font-family="sans-serif" font-size="13" font-weight="bold" lengthAdjust="spacing" textLength="7" x="145" y="111.6494">1</text><text fill="#000000" font-family="sans-serif" font-size="13" lengthAdjust="spacing" textLength="203" x="156" y="111.6494">asks to add a skill to a collaborator</text><polygon fill="#181818" points="821,144.2031,831,148.2031,821,152.2031,825,148.2031" style="stroke:#181818;stroke-width:1.0;"/><line style="stroke:#181818;stroke-width:1.0;" x1="632" x2="827" y1="148.2031" y2="148.2031"/><text fill="#000000" font-family="sans-serif" font-size="13" font-weight="bold" lengthAdjust="spacing" textLength="7" x="639" y="142.9404">2</text><text fill="#000000" font-family="sans-serif" font-size="13" lengthAdjust="spacing" textLength="36" x="650" y="142.9404">create</text><rect fill="#E3E3E3" height="32.6211" rx="2.5" ry="2.5" style="stroke:#181818;stroke-width:0.5;" width="154" x="833" y="124.9121"/><text fill="#000000" font-family="sans-serif" font-size="14" lengthAdjust="spacing" textLength="140" x="840" y="147.0195">:AssignSkillsController</text><polygon fill="#181818" points="893,187.8242,903,191.8242,893,195.8242,897,191.8242" style="stroke:#181818;stroke-width:1.0;"/><line style="stroke:#181818;stroke-width:1.0;" x1="632" x2="899" y1="191.8242" y2="191.8242"/><text fill="#000000" font-family="sans-serif" font-size="13" font-weight="bold" lengthAdjust="spacing" textLength="7" x="639" y="186.5615">3</text><text fill="#000000" font-family="sans-serif" font-size="13" lengthAdjust="spacing" textLength="102" x="650" y="186.5615">getCollaborators()</text><rect fill="none" height="43.252" style="stroke:#000000;stroke-width:1.5;" width="160" x="830" y="199.8242"/><path d="M830,199.8242 L892,199.8242 L892,208.8242 L882,218.8242 L830,218.8242 L830,199.8242 " fill="#EEEEEE" style="stroke:#000000;stroke-width:2.0;"/><text fill="#000000" font-family="sans-serif" font-size="13" font-weight="bold" lengthAdjust="spacing" textLength="17" x="843" y="215.8525">ref</text><text fill="#000000" font-family="sans-serif" font-size="12" lengthAdjust="spacing" textLength="100" x="860" y="235.7734">Get a Collaborator</text><polygon fill="#181818" points="643,267.3672,633,271.3672,643,275.3672,639,271.3672" style="stroke:#181818;stroke-width:1.0;"/><line style="stroke:#181818;stroke-width:1.0;stroke-dasharray:2.0,2.0;" x1="637" x2="909" y1="271.3672" y2="271.3672"/><text fill="#000000" font-family="sans-serif" font-size="13" font-weight="bold" lengthAdjust="spacing" textLength="7" x="649" y="266.1045">4</text><text fill="#000000" font-family="sans-serif" font-size="13" lengthAdjust="spacing" textLength="95" x="660" y="266.1045">collaboratorsList</text><polygon fill="#181818" points="149,298.6582,139,302.6582,149,306.6582,145,302.6582" style="stroke:#181818;stroke-width:1.0;"/><line style="stroke:#181818;stroke-width:1.0;stroke-dasharray:2.0,2.0;" x1="143" x2="626" y1="302.6582" y2="302.6582"/><text fill="#000000" font-family="sans-serif" font-size="13" font-weight="bold" lengthAdjust="spacing" textLength="7" x="155" y="297.3955">5</text><text fill="#000000" font-family="sans-serif" font-size="13" lengthAdjust="spacing" textLength="328" x="166" y="297.3955">type the IDnumber of the Collaborator to assign the skills</text><polygon fill="#181818" points="610,329.9492,620,333.9492,610,337.9492,614,333.9492" style="stroke:#181818;stroke-width:1.0;"/><line style="stroke:#181818;stroke-width:1.0;" x1="138" x2="616" y1="333.9492" y2="333.9492"/><text fill="#000000" font-family="sans-serif" font-size="13" font-weight="bold" lengthAdjust="spacing" textLength="7" x="145" y="328.6865">6</text><text fill="#000000" font-family="sans-serif" font-size="13" lengthAdjust="spacing" textLength="454" x="156" y="328.6865">selects a colaborator and request to assign one or more skills to a collaborator</text><polygon fill="#181818" points="893,361.2402,903,365.2402,893,369.2402,897,365.2402" style="stroke:#181818;stroke-width:1.0;"/><line style="stroke:#181818;stroke-width:1.0;" x1="632" x2="899" y1="365.2402" y2="365.2402"/><text fill="#000000" font-family="sans-serif" font-size="13" font-weight="bold" lengthAdjust="spacing" textLength="7" x="639" y="359.9775">7</text><text fill="#000000" font-family="sans-serif" font-size="13" lengthAdjust="spacing" textLength="72" x="650" y="359.9775">getSkillList()</text><rect fill="none" height="43.252" style="stroke:#000000;stroke-width:1.5;" width="160" x="830" y="373.2402"/><path d="M830,373.2402 L892,373.2402 L892,382.2402 L882,392.2402 L830,392.2402 L830,373.2402 " fill="#EEEEEE" style="stroke:#000000;stroke-width:2.0;"/><text fill="#000000" font-family="sans-serif" font-size="13" font-weight="bold" lengthAdjust="spacing" textLength="17" x="843" y="389.2686">ref</text><text fill="#000000" font-family="sans-serif" font-size="12" lengthAdjust="spacing" textLength="49" x="885.5" y="409.1895">Skills list</text><polygon fill="#181818" points="643,440.7832,633,444.7832,643,448.7832,639,444.7832" style="stroke:#181818;stroke-width:1.0;"/><line style="stroke:#181818;stroke-width:1.0;stroke-dasharray:2.0,2.0;" x1="637" x2="909" y1="444.7832" y2="444.7832"/><text fill="#000000" font-family="sans-serif" font-size="13" font-weight="bold" lengthAdjust="spacing" textLength="7" x="649" y="439.5205">8</text><text fill="#000000" font-family="sans-serif" font-size="13" lengthAdjust="spacing" textLength="30" x="660" y="439.5205">skills</text><polygon fill="#181818" points="149,472.0742,139,476.0742,149,480.0742,145,476.0742" style="stroke:#181818;stroke-width:1.0;"/><line style="stroke:#181818;stroke-width:1.0;stroke-dasharray:2.0,2.0;" x1="143" x2="626" y1="476.0742" y2="476.0742"/><text fill="#000000" font-family="sans-serif" font-size="13" font-weight="bold" lengthAdjust="spacing" textLength="7" x="155" y="470.8115">9</text><text fill="#000000" font-family="sans-serif" font-size="13" lengthAdjust="spacing" textLength="399" x="166" y="470.8115">shows all types of skills that can be assigned and asks to select one</text><path d="M10,491.0742 L83,491.0742 L83,500.3652 L73,510.3652 L10,510.3652 L10,491.0742 " fill="#EEEEEE" style="stroke:#000000;stroke-width:1.5;"/><rect fill="none" height="99.1641" style="stroke:#000000;stroke-width:1.5;" width="679" x="10" y="491.0742"/><text fill="#000000" font-family="sans-serif" font-size="13" font-weight="bold" lengthAdjust="spacing" textLength="28" x="25" y="506.1025">loop</text><polygon fill="#181818" points="610,529.6563,620,533.6563,610,537.6563,614,533.6563" style="stroke:#181818;stroke-width:1.0;"/><line style="stroke:#181818;stroke-width:1.0;" x1="138" x2="616" y1="533.6563" y2="533.6563"/><text fill="#000000" font-family="sans-serif" font-size="13" font-weight="bold" lengthAdjust="spacing" textLength="14" x="145" y="528.3936">10</text><text fill="#000000" font-family="sans-serif" font-size="13" lengthAdjust="spacing" textLength="87" x="163" y="528.3936">selects a skills</text><polygon fill="#181818" points="149,578.2383,139,582.2383,149,586.2383,145,582.2383" style="stroke:#181818;stroke-width:1.0;"/><line style="stroke:#181818;stroke-width:1.0;stroke-dasharray:2.0,2.0;" x1="143" x2="626" y1="582.2383" y2="582.2383"/><text fill="#000000" font-family="sans-serif" font-size="13" font-weight="bold" lengthAdjust="spacing" textLength="14" x="155" y="568.3301">11</text><text fill="#000000" font-family="sans-serif" font-size="13" lengthAdjust="spacing" textLength="201" x="173" y="559.6846">asks if you want to add more skills</text><text fill="#000000" font-family="sans-serif" font-size="13" lengthAdjust="spacing" textLength="137" x="173" y="576.9756">or continue the program</text><polygon fill="#181818" points="610,616.5293,620,620.5293,610,624.5293,614,620.5293" style="stroke:#181818;stroke-width:1.0;"/><line style="stroke:#181818;stroke-width:1.0;" x1="138" x2="616" y1="620.5293" y2="620.5293"/><text fill="#000000" font-family="sans-serif" font-size="13" font-weight="bold" lengthAdjust="spacing" textLength="14" x="145" y="615.2666">12</text><text fill="#000000" font-family="sans-serif" font-size="13" lengthAdjust="spacing" textLength="115" x="163" y="615.2666">selects a skill (skill)</text><polygon fill="#181818" points="893,647.8203,903,651.8203,893,655.8203,897,651.8203" style="stroke:#181818;stroke-width:1.0;"/><line style="stroke:#181818;stroke-width:1.0;" x1="632" x2="899" y1="651.8203" y2="651.8203"/><text fill="#000000" font-family="sans-serif" font-size="13" font-weight="bold" lengthAdjust="spacing" textLength="14" x="639" y="646.5576">13</text><text fill="#000000" font-family="sans-serif" font-size="13" lengthAdjust="spacing" textLength="236" x="657" y="646.5576">assignSkill(skill, IDnumberOfColaborator)</text><polygon fill="#181818" points="1176,679.1113,1186,683.1113,1176,687.1113,1180,683.1113" style="stroke:#181818;stroke-width:1.0;"/><line style="stroke:#181818;stroke-width:1.0;" x1="915" x2="1182" y1="683.1113" y2="683.1113"/><text fill="#000000" font-family="sans-serif" font-size="13" font-weight="bold" lengthAdjust="spacing" textLength="14" x="922" y="677.8486">14</text><text fill="#000000" font-family="sans-serif" font-size="13" lengthAdjust="spacing" textLength="236" x="940" y="677.8486">assignSkill(skill, IDnumberOfColaborator)</text><rect fill="none" height="43.252" style="stroke:#000000;stroke-width:1.5;" width="164" x="1111" y="691.1113"/><path d="M1111,691.1113 L1173,691.1113 L1173,700.1113 L1163,710.1113 L1111,710.1113 L1111,691.1113 " fill="#EEEEEE" style="stroke:#000000;stroke-width:2.0;"/><text fill="#000000" font-family="sans-serif" font-size="13" font-weight="bold" lengthAdjust="spacing" textLength="17" x="1124" y="707.1396">ref</text><text fill="#000000" font-family="sans-serif" font-size="12" lengthAdjust="spacing" textLength="71" x="1157.5" y="727.0605">Assign Skills</text><polygon fill="#181818" points="926,758.6543,916,762.6543,926,766.6543,922,762.6543" style="stroke:#181818;stroke-width:1.0;"/><line style="stroke:#181818;stroke-width:1.0;stroke-dasharray:2.0,2.0;" x1="920" x2="1192" y1="762.6543" y2="762.6543"/><text fill="#000000" font-family="sans-serif" font-size="13" font-weight="bold" lengthAdjust="spacing" textLength="14" x="932" y="757.3916">15</text><text fill="#000000" font-family="sans-serif" font-size="13" lengthAdjust="spacing" textLength="67" x="950" y="757.3916">collaborator</text><polygon fill="#181818" points="643,789.9453,633,793.9453,643,797.9453,639,793.9453" style="stroke:#181818;stroke-width:1.0;"/><line style="stroke:#181818;stroke-width:1.0;stroke-dasharray:2.0,2.0;" x1="637" x2="909" y1="793.9453" y2="793.9453"/><text fill="#000000" font-family="sans-serif" font-size="13" font-weight="bold" lengthAdjust="spacing" textLength="14" x="649" y="788.6826">16</text><text fill="#000000" font-family="sans-serif" font-size="13" lengthAdjust="spacing" textLength="67" x="667" y="788.6826">collaborator</text><polygon fill="#181818" points="144,821.2363,134,825.2363,144,829.2363,140,825.2363" style="stroke:#181818;stroke-width:1.0;"/><line style="stroke:#181818;stroke-width:1.0;stroke-dasharray:2.0,2.0;" x1="138" x2="626" y1="825.2363" y2="825.2363"/><text fill="#000000" font-family="sans-serif" font-size="13" font-weight="bold" lengthAdjust="spacing" textLength="14" x="150" y="819.9736">17</text><text fill="#000000" font-family="sans-serif" font-size="13" lengthAdjust="spacing" textLength="158" x="168" y="819.9736">displays operation success</text><!--SRC=[dLRBRjim4BppAnOvsK7p0pe4ADoYCP2WXTFSSg6bjKoO8bKk5SD_toLbox9ZIcfviKGkzpMp8zDEcLewMK5bZSstpbO8tZKeg3kfPRwJ9RxwWqPmc7jfIjqteAqix5wP4ZPI4meX6szDKwtHyNFkhOExfwQI1bP8jd4v4hn8mpuTp9vMB_Cxa0Jy8DYVLxcgfV5mbtqbKgLvtIcjwMqPZTwM0pOBQxopMgEBjelVg-TBwzngkRPESaOhh2qfVZXaxsPnQx_riVh-IuXOXVgG7cEM0ewBN-3XaPE2Z8rt1Dw2B0gGG26X-0eSjFD-ljevv8gwpR3O6RiCkT_VizlS8LkbJDYWHB_eHQ3P_CAslxgOiJD9izDok07xmHX5SvYuVg3delifZLv5KupQn6eVOhEpYvRIioAVl5xWLT5Y-FHJdpaYevo1FzGy65k4vRUMsM0tyRrVQGGy4Z8UHHAGk14jW7wJHOIQ1unQsdHkfIaOZJyDak-5i0Q13olhJg6c4cw8J76KGa-lY7JPgV_ZIpkce5E8fOXm0VvLLuVmJ859Mxld7eS9PLWfG7bgu5Pwo5cfrdXiCnQn_QVnRW4AlK_XUjhMrjPZ85_LaXI5wm9YDce31zl0FaZRKNXwN7Wtp8sS5L6PfcLkxMp9Sft8-nO60qd3BFxCnnJjJA_isD18WlRsbswQVcvw6ZmNdwkVg5qjKnwZRlzBm779Z1-2QN8PJ4Trilrm7KT2ZCdZe4486BdHjZcVehtzKHdADwcxOkhmfIAT-SpiAXJLMXvu56jazyeQe2RdFmgK4kmeeKBqTiAd-Iy0]--></g></svg>