<?xml version="1.0" encoding="us-ascii" standalone="no"?><svg xmlns="http://www.w3.org/2000/svg" xmlns:xlink="http://www.w3.org/1999/xlink" contentStyleType="text/css" height="719px" preserveAspectRatio="none" style="width:1423px;height:719px;background:#FFFFFF;" version="1.1" viewBox="0 0 1423 719" width="1423px" zoomAndPan="magnify"><defs/><g><!--class AssignSkillUI--><g id="elem_AssignSkillUI"><rect codeLine="11" fill="#F1F1F1" height="48" id="AssignSkillUI" rx="2.5" ry="2.5" style="stroke:#181818;stroke-width:0.5;" width="111" x="59.5" y="181"/><ellipse cx="74.5" cy="197" fill="#ADD1B2" rx="11" ry="11" style="stroke:#181818;stroke-width:1.0;"/><path d="M77.2656,192.875 Q77.4219,192.6563 77.6094,192.5469 Q77.7969,192.4375 78.0156,192.4375 Q78.3906,192.4375 78.625,192.7031 Q78.8594,192.9531 78.8594,193.5625 L78.8594,195.0156 Q78.8594,195.625 78.625,195.8906 Q78.3906,196.1563 78.0156,196.1563 Q77.6719,196.1563 77.4688,195.9531 Q77.2656,195.7656 77.1563,195.25 Q77.1094,194.8906 76.9219,194.7031 Q76.5938,194.3281 75.9844,194.1094 Q75.375,193.8906 74.75,193.8906 Q73.9844,193.8906 73.3438,194.2188 Q72.7188,194.5469 72.2188,195.2969 Q71.7344,196.0469 71.7344,197.0781 L71.7344,198.1719 Q71.7344,199.4063 72.625,200.2344 Q73.5156,201.0469 75.1094,201.0469 Q76.0469,201.0469 76.7031,200.7969 Q77.0938,200.6406 77.5156,200.2031 Q77.7813,199.9375 77.9219,199.8594 Q78.0781,199.7813 78.2813,199.7813 Q78.6094,199.7813 78.8594,200.0469 Q79.125,200.2969 79.125,200.6406 Q79.125,200.9844 78.7813,201.3906 Q78.2813,201.9688 77.4844,202.2969 Q76.4063,202.75 75.1094,202.75 Q73.5938,202.75 72.3906,202.125 Q71.4063,201.625 70.7188,200.5625 Q70.0313,199.4844 70.0313,198.2031 L70.0313,197.0469 Q70.0313,195.7188 70.6406,194.5781 Q71.2656,193.4219 72.3594,192.8125 Q73.4531,192.1875 74.6875,192.1875 Q75.4219,192.1875 76.0625,192.3594 Q76.7188,192.5156 77.2656,192.875 Z " fill="#000000"/><text fill="#000000" font-family="sans-serif" font-size="14" lengthAdjust="spacing" textLength="79" x="88.5" y="202.7969">AssignSkillUI</text><line style="stroke:#181818;stroke-width:0.5;" x1="60.5" x2="169.5" y1="213" y2="213"/><line style="stroke:#181818;stroke-width:0.5;" x1="60.5" x2="169.5" y1="221" y2="221"/></g><!--class AssignSkillController--><g id="elem_AssignSkillController"><rect codeLine="15" fill="#F1F1F1" height="103.8633" id="AssignSkillController" rx="2.5" ry="2.5" style="stroke:#181818;stroke-width:0.5;" width="401" x="205.5" y="153"/><ellipse cx="337.25" cy="169" fill="#ADD1B2" rx="11" ry="11" style="stroke:#181818;stroke-width:1.0;"/><path d="M340.0156,164.875 Q340.1719,164.6563 340.3594,164.5469 Q340.5469,164.4375 340.7656,164.4375 Q341.1406,164.4375 341.375,164.7031 Q341.6094,164.9531 341.6094,165.5625 L341.6094,167.0156 Q341.6094,167.625 341.375,167.8906 Q341.1406,168.1563 340.7656,168.1563 Q340.4219,168.1563 340.2188,167.9531 Q340.0156,167.7656 339.9063,167.25 Q339.8594,166.8906 339.6719,166.7031 Q339.3438,166.3281 338.7344,166.1094 Q338.125,165.8906 337.5,165.8906 Q336.7344,165.8906 336.0938,166.2188 Q335.4688,166.5469 334.9688,167.2969 Q334.4844,168.0469 334.4844,169.0781 L334.4844,170.1719 Q334.4844,171.4063 335.375,172.2344 Q336.2656,173.0469 337.8594,173.0469 Q338.7969,173.0469 339.4531,172.7969 Q339.8438,172.6406 340.2656,172.2031 Q340.5313,171.9375 340.6719,171.8594 Q340.8281,171.7813 341.0313,171.7813 Q341.3594,171.7813 341.6094,172.0469 Q341.875,172.2969 341.875,172.6406 Q341.875,172.9844 341.5313,173.3906 Q341.0313,173.9688 340.2344,174.2969 Q339.1563,174.75 337.8594,174.75 Q336.3438,174.75 335.1406,174.125 Q334.1563,173.625 333.4688,172.5625 Q332.7813,171.4844 332.7813,170.2031 L332.7813,169.0469 Q332.7813,167.7188 333.3906,166.5781 Q334.0156,165.4219 335.1094,164.8125 Q336.2031,164.1875 337.4375,164.1875 Q338.1719,164.1875 338.8125,164.3594 Q339.4688,164.5156 340.0156,164.875 Z " fill="#000000"/><text fill="#000000" font-family="sans-serif" font-size="14" lengthAdjust="spacing" textLength="129" x="357.75" y="174.7969">AssignSkillController</text><line style="stroke:#181818;stroke-width:0.5;" x1="206.5" x2="605.5" y1="185" y2="185"/><line style="stroke:#181818;stroke-width:0.5;" x1="206.5" x2="605.5" y1="193" y2="193"/><text fill="#000000" font-family="sans-serif" font-size="14" lengthAdjust="spacing" textLength="389" x="211.5" y="212.1074">+AssignSkillController(collaboratorRepository, skillRepository)</text><text fill="#000000" font-family="sans-serif" font-size="14" lengthAdjust="spacing" textLength="123" x="211.5" y="230.7285">+getCollaborators()</text><text fill="#000000" font-family="sans-serif" font-size="14" lengthAdjust="spacing" textLength="129" x="211.5" y="249.3496">+getSkills(skillName)</text></g><!--class Repositories--><g id="elem_Repositories"><rect codeLine="21" fill="#F1F1F1" height="66.6211" id="Repositories" rx="2.5" ry="2.5" style="stroke:#181818;stroke-width:0.5;" width="610" x="710" y="171.5"/><ellipse cx="971.25" cy="187.5" fill="#ADD1B2" rx="11" ry="11" style="stroke:#181818;stroke-width:1.0;"/><path d="M974.0156,183.375 Q974.1719,183.1563 974.3594,183.0469 Q974.5469,182.9375 974.7656,182.9375 Q975.1406,182.9375 975.375,183.2031 Q975.6094,183.4531 975.6094,184.0625 L975.6094,185.5156 Q975.6094,186.125 975.375,186.3906 Q975.1406,186.6563 974.7656,186.6563 Q974.4219,186.6563 974.2188,186.4531 Q974.0156,186.2656 973.9063,185.75 Q973.8594,185.3906 973.6719,185.2031 Q973.3438,184.8281 972.7344,184.6094 Q972.125,184.3906 971.5,184.3906 Q970.7344,184.3906 970.0938,184.7188 Q969.4688,185.0469 968.9688,185.7969 Q968.4844,186.5469 968.4844,187.5781 L968.4844,188.6719 Q968.4844,189.9063 969.375,190.7344 Q970.2656,191.5469 971.8594,191.5469 Q972.7969,191.5469 973.4531,191.2969 Q973.8438,191.1406 974.2656,190.7031 Q974.5313,190.4375 974.6719,190.3594 Q974.8281,190.2813 975.0313,190.2813 Q975.3594,190.2813 975.6094,190.5469 Q975.875,190.7969 975.875,191.1406 Q975.875,191.4844 975.5313,191.8906 Q975.0313,192.4688 974.2344,192.7969 Q973.1563,193.25 971.8594,193.25 Q970.3438,193.25 969.1406,192.625 Q968.1563,192.125 967.4688,191.0625 Q966.7813,189.9844 966.7813,188.7031 L966.7813,187.5469 Q966.7813,186.2188 967.3906,185.0781 Q968.0156,183.9219 969.1094,183.3125 Q970.2031,182.6875 971.4375,182.6875 Q972.1719,182.6875 972.8125,182.8594 Q973.4688,183.0156 974.0156,183.375 Z " fill="#000000"/><text fill="#000000" font-family="sans-serif" font-size="14" lengthAdjust="spacing" textLength="79" x="991.75" y="193.2969">Repositories</text><line style="stroke:#181818;stroke-width:0.5;" x1="711" x2="1319" y1="203.5" y2="203.5"/><line style="stroke:#181818;stroke-width:0.5;" x1="711" x2="1319" y1="211.5" y2="211.5"/><text fill="#000000" font-family="sans-serif" font-size="14" lengthAdjust="spacing" textLength="598" x="716" y="230.6074">Repositories()+ getInstance() : Repositories+ getCollaboratorRepository()+ getSkillRepository()</text></g><!--class CollaboratorRepository--><g id="elem_CollaboratorRepository"><rect codeLine="26" fill="#F1F1F1" height="66.6211" id="CollaboratorRepository" rx="2.5" ry="2.5" style="stroke:#181818;stroke-width:0.5;" width="178" x="510" y="336"/><ellipse cx="525" cy="352" fill="#ADD1B2" rx="11" ry="11" style="stroke:#181818;stroke-width:1.0;"/><path d="M527.7656,347.875 Q527.9219,347.6563 528.1094,347.5469 Q528.2969,347.4375 528.5156,347.4375 Q528.8906,347.4375 529.125,347.7031 Q529.3594,347.9531 529.3594,348.5625 L529.3594,350.0156 Q529.3594,350.625 529.125,350.8906 Q528.8906,351.1563 528.5156,351.1563 Q528.1719,351.1563 527.9688,350.9531 Q527.7656,350.7656 527.6563,350.25 Q527.6094,349.8906 527.4219,349.7031 Q527.0938,349.3281 526.4844,349.1094 Q525.875,348.8906 525.25,348.8906 Q524.4844,348.8906 523.8438,349.2188 Q523.2188,349.5469 522.7188,350.2969 Q522.2344,351.0469 522.2344,352.0781 L522.2344,353.1719 Q522.2344,354.4063 523.125,355.2344 Q524.0156,356.0469 525.6094,356.0469 Q526.5469,356.0469 527.2031,355.7969 Q527.5938,355.6406 528.0156,355.2031 Q528.2813,354.9375 528.4219,354.8594 Q528.5781,354.7813 528.7813,354.7813 Q529.1094,354.7813 529.3594,355.0469 Q529.625,355.2969 529.625,355.6406 Q529.625,355.9844 529.2813,356.3906 Q528.7813,356.9688 527.9844,357.2969 Q526.9063,357.75 525.6094,357.75 Q524.0938,357.75 522.8906,357.125 Q521.9063,356.625 521.2188,355.5625 Q520.5313,354.4844 520.5313,353.2031 L520.5313,352.0469 Q520.5313,350.7188 521.1406,349.5781 Q521.7656,348.4219 522.8594,347.8125 Q523.9531,347.1875 525.1875,347.1875 Q525.9219,347.1875 526.5625,347.3594 Q527.2188,347.5156 527.7656,347.875 Z " fill="#000000"/><text fill="#000000" font-family="sans-serif" font-size="14" lengthAdjust="spacing" textLength="146" x="539" y="357.7969">CollaboratorRepository</text><line style="stroke:#181818;stroke-width:0.5;" x1="511" x2="687" y1="368" y2="368"/><line style="stroke:#181818;stroke-width:0.5;" x1="511" x2="687" y1="376" y2="376"/><text fill="#000000" font-family="sans-serif" font-size="14" lengthAdjust="spacing" textLength="158" x="516" y="395.1074">+getCollaborators(name)</text></g><!--class SkillRepository--><g id="elem_SkillRepository"><rect codeLine="30" fill="#F1F1F1" height="66.6211" id="SkillRepository" rx="2.5" ry="2.5" style="stroke:#181818;stroke-width:0.5;" width="141" x="335.5" y="7"/><ellipse cx="357.7" cy="23" fill="#ADD1B2" rx="11" ry="11" style="stroke:#181818;stroke-width:1.0;"/><path d="M360.4656,18.875 Q360.6219,18.6563 360.8094,18.5469 Q360.9969,18.4375 361.2156,18.4375 Q361.5906,18.4375 361.825,18.7031 Q362.0594,18.9531 362.0594,19.5625 L362.0594,21.0156 Q362.0594,21.625 361.825,21.8906 Q361.5906,22.1563 361.2156,22.1563 Q360.8719,22.1563 360.6688,21.9531 Q360.4656,21.7656 360.3563,21.25 Q360.3094,20.8906 360.1219,20.7031 Q359.7938,20.3281 359.1844,20.1094 Q358.575,19.8906 357.95,19.8906 Q357.1844,19.8906 356.5438,20.2188 Q355.9188,20.5469 355.4188,21.2969 Q354.9344,22.0469 354.9344,23.0781 L354.9344,24.1719 Q354.9344,25.4063 355.825,26.2344 Q356.7156,27.0469 358.3094,27.0469 Q359.2469,27.0469 359.9031,26.7969 Q360.2938,26.6406 360.7156,26.2031 Q360.9813,25.9375 361.1219,25.8594 Q361.2781,25.7813 361.4813,25.7813 Q361.8094,25.7813 362.0594,26.0469 Q362.325,26.2969 362.325,26.6406 Q362.325,26.9844 361.9813,27.3906 Q361.4813,27.9688 360.6844,28.2969 Q359.6063,28.75 358.3094,28.75 Q356.7938,28.75 355.5906,28.125 Q354.6063,27.625 353.9188,26.5625 Q353.2313,25.4844 353.2313,24.2031 L353.2313,23.0469 Q353.2313,21.7188 353.8406,20.5781 Q354.4656,19.4219 355.5594,18.8125 Q356.6531,18.1875 357.8875,18.1875 Q358.6219,18.1875 359.2625,18.3594 Q359.9188,18.5156 360.4656,18.875 Z " fill="#000000"/><text fill="#000000" font-family="sans-serif" font-size="14" lengthAdjust="spacing" textLength="93" x="373.3" y="28.7969">SkillRepository</text><line style="stroke:#181818;stroke-width:0.5;" x1="336.5" x2="475.5" y1="39" y2="39"/><line style="stroke:#181818;stroke-width:0.5;" x1="336.5" x2="475.5" y1="47" y2="47"/><text fill="#000000" font-family="sans-serif" font-size="14" lengthAdjust="spacing" textLength="129" x="341.5" y="66.1074">+getSkills(skillName)</text></g><!--class Skill--><g id="elem_Skill"><rect codeLine="34" fill="#F1F1F1" height="66.6211" id="Skill" rx="2.5" ry="2.5" style="stroke:#181818;stroke-width:0.5;" width="71" x="247.5" y="646"/><ellipse cx="268.8" cy="662" fill="#ADD1B2" rx="11" ry="11" style="stroke:#181818;stroke-width:1.0;"/><path d="M271.5656,657.875 Q271.7219,657.6563 271.9094,657.5469 Q272.0969,657.4375 272.3156,657.4375 Q272.6906,657.4375 272.925,657.7031 Q273.1594,657.9531 273.1594,658.5625 L273.1594,660.0156 Q273.1594,660.625 272.925,660.8906 Q272.6906,661.1563 272.3156,661.1563 Q271.9719,661.1563 271.7688,660.9531 Q271.5656,660.7656 271.4563,660.25 Q271.4094,659.8906 271.2219,659.7031 Q270.8938,659.3281 270.2844,659.1094 Q269.675,658.8906 269.05,658.8906 Q268.2844,658.8906 267.6438,659.2188 Q267.0188,659.5469 266.5188,660.2969 Q266.0344,661.0469 266.0344,662.0781 L266.0344,663.1719 Q266.0344,664.4063 266.925,665.2344 Q267.8156,666.0469 269.4094,666.0469 Q270.3469,666.0469 271.0031,665.7969 Q271.3938,665.6406 271.8156,665.2031 Q272.0813,664.9375 272.2219,664.8594 Q272.3781,664.7813 272.5813,664.7813 Q272.9094,664.7813 273.1594,665.0469 Q273.425,665.2969 273.425,665.6406 Q273.425,665.9844 273.0813,666.3906 Q272.5813,666.9688 271.7844,667.2969 Q270.7063,667.75 269.4094,667.75 Q267.8938,667.75 266.6906,667.125 Q265.7063,666.625 265.0188,665.5625 Q264.3313,664.4844 264.3313,663.2031 L264.3313,662.0469 Q264.3313,660.7188 264.9406,659.5781 Q265.5656,658.4219 266.6594,657.8125 Q267.7531,657.1875 268.9875,657.1875 Q269.7219,657.1875 270.3625,657.3594 Q271.0188,657.5156 271.5656,657.875 Z " fill="#000000"/><text fill="#000000" font-family="sans-serif" font-size="14" lengthAdjust="spacing" textLength="25" x="284.2" y="667.7969">Skill</text><line style="stroke:#181818;stroke-width:0.5;" x1="248.5" x2="317.5" y1="678" y2="678"/><text fill="#000000" font-family="sans-serif" font-size="14" lengthAdjust="spacing" textLength="59" x="253.5" y="697.1074">skillName</text><line style="stroke:#181818;stroke-width:0.5;" x1="248.5" x2="317.5" y1="704.6211" y2="704.6211"/></g><!--class Collaborator--><g id="elem_Collaborator"><rect codeLine="39" fill="#F1F1F1" height="85.2422" id="Collaborator" rx="2.5" ry="2.5" style="stroke:#181818;stroke-width:0.5;" width="545" x="240.5" y="482"/><ellipse cx="469.75" cy="498" fill="#ADD1B2" rx="11" ry="11" style="stroke:#181818;stroke-width:1.0;"/><path d="M472.5156,493.875 Q472.6719,493.6563 472.8594,493.5469 Q473.0469,493.4375 473.2656,493.4375 Q473.6406,493.4375 473.875,493.7031 Q474.1094,493.9531 474.1094,494.5625 L474.1094,496.0156 Q474.1094,496.625 473.875,496.8906 Q473.6406,497.1563 473.2656,497.1563 Q472.9219,497.1563 472.7188,496.9531 Q472.5156,496.7656 472.4063,496.25 Q472.3594,495.8906 472.1719,495.7031 Q471.8438,495.3281 471.2344,495.1094 Q470.625,494.8906 470,494.8906 Q469.2344,494.8906 468.5938,495.2188 Q467.9688,495.5469 467.4688,496.2969 Q466.9844,497.0469 466.9844,498.0781 L466.9844,499.1719 Q466.9844,500.4063 467.875,501.2344 Q468.7656,502.0469 470.3594,502.0469 Q471.2969,502.0469 471.9531,501.7969 Q472.3438,501.6406 472.7656,501.2031 Q473.0313,500.9375 473.1719,500.8594 Q473.3281,500.7813 473.5313,500.7813 Q473.8594,500.7813 474.1094,501.0469 Q474.375,501.2969 474.375,501.6406 Q474.375,501.9844 474.0313,502.3906 Q473.5313,502.9688 472.7344,503.2969 Q471.6563,503.75 470.3594,503.75 Q468.8438,503.75 467.6406,503.125 Q466.6563,502.625 465.9688,501.5625 Q465.2813,500.4844 465.2813,499.2031 L465.2813,498.0469 Q465.2813,496.7188 465.8906,495.5781 Q466.5156,494.4219 467.6094,493.8125 Q468.7031,493.1875 469.9375,493.1875 Q470.6719,493.1875 471.3125,493.3594 Q471.9688,493.5156 472.5156,493.875 Z " fill="#000000"/><text fill="#000000" font-family="sans-serif" font-size="14" lengthAdjust="spacing" textLength="78" x="490.25" y="503.7969">Collaborator</text><line style="stroke:#181818;stroke-width:0.5;" x1="241.5" x2="784.5" y1="514" y2="514"/><text fill="#000000" font-family="sans-serif" font-size="14" lengthAdjust="spacing" textLength="35" x="246.5" y="533.1074">name</text><line style="stroke:#181818;stroke-width:0.5;" x1="241.5" x2="784.5" y1="540.6211" y2="540.6211"/><text fill="#000000" font-family="sans-serif" font-size="14" lengthAdjust="spacing" textLength="533" x="246.5" y="559.7285">List&lt;Skill&gt; skillList+ assignSkill(collaboratorName, skillName)+ validateSkill(skillName)</text></g><!--class HRM--><g id="elem_HRM"><rect fill="#F1F1F1" height="48" id="HRM" rx="2.5" ry="2.5" style="stroke:#181818;stroke-width:0.5;" width="62" x="808" y="345.5"/><ellipse cx="823" cy="361.5" fill="#ADD1B2" rx="11" ry="11" style="stroke:#181818;stroke-width:1.0;"/><path d="M825.7656,357.375 Q825.9219,357.1563 826.1094,357.0469 Q826.2969,356.9375 826.5156,356.9375 Q826.8906,356.9375 827.125,357.2031 Q827.3594,357.4531 827.3594,358.0625 L827.3594,359.5156 Q827.3594,360.125 827.125,360.3906 Q826.8906,360.6563 826.5156,360.6563 Q826.1719,360.6563 825.9688,360.4531 Q825.7656,360.2656 825.6563,359.75 Q825.6094,359.3906 825.4219,359.2031 Q825.0938,358.8281 824.4844,358.6094 Q823.875,358.3906 823.25,358.3906 Q822.4844,358.3906 821.8438,358.7188 Q821.2188,359.0469 820.7188,359.7969 Q820.2344,360.5469 820.2344,361.5781 L820.2344,362.6719 Q820.2344,363.9063 821.125,364.7344 Q822.0156,365.5469 823.6094,365.5469 Q824.5469,365.5469 825.2031,365.2969 Q825.5938,365.1406 826.0156,364.7031 Q826.2813,364.4375 826.4219,364.3594 Q826.5781,364.2813 826.7813,364.2813 Q827.1094,364.2813 827.3594,364.5469 Q827.625,364.7969 827.625,365.1406 Q827.625,365.4844 827.2813,365.8906 Q826.7813,366.4688 825.9844,366.7969 Q824.9063,367.25 823.6094,367.25 Q822.0938,367.25 820.8906,366.625 Q819.9063,366.125 819.2188,365.0625 Q818.5313,363.9844 818.5313,362.7031 L818.5313,361.5469 Q818.5313,360.2188 819.1406,359.0781 Q819.7656,357.9219 820.8594,357.3125 Q821.9531,356.6875 823.1875,356.6875 Q823.9219,356.6875 824.5625,356.8594 Q825.2188,357.0156 825.7656,357.375 Z " fill="#000000"/><text fill="#000000" font-family="sans-serif" font-size="14" lengthAdjust="spacing" textLength="30" x="837" y="367.2969">HRM</text><line style="stroke:#181818;stroke-width:0.5;" x1="809" x2="869" y1="377.5" y2="377.5"/><line style="stroke:#181818;stroke-width:0.5;" x1="809" x2="869" y1="385.5" y2="385.5"/></g><!--link AssignSkillUI to AssignSkillController--><g id="link_AssignSkillUI_AssignSkillController"><path codeLine="45" d="M170.58,205 C184.64,205 191.88,205 199.45,205 " fill="none" id="AssignSkillUI-to-AssignSkillController" style="stroke:#181818;stroke-width:1.0;stroke-dasharray:7.0,7.0;"/><polygon fill="#181818" points="205.45,205,196.45,201,200.45,205,196.45,209,205.45,205" style="stroke:#181818;stroke-width:1.0;"/></g><!--link AssignSkillController to Repositories--><g id="link_AssignSkillController_Repositories"><path codeLine="46" d="M606.67,205 C639.86,205 668.91,205 703.97,205 " fill="none" id="AssignSkillController-to-Repositories" style="stroke:#181818;stroke-width:1.0;stroke-dasharray:7.0,7.0;"/><polygon fill="#181818" points="709.97,205,700.97,201,704.97,205,700.97,209,709.97,205" style="stroke:#181818;stroke-width:1.0;"/><text fill="#000000" font-family="sans-serif" font-size="13" lengthAdjust="spacing" textLength="67" x="624.75" y="198.0283">repositories</text></g><!--link Repositories to SkillRepository--><g id="link_Repositories_SkillRepository"><path codeLine="47" d="M893.1,171.47 C768.33,138.18 584.4972,89.1267 482.5472,61.9267 " fill="none" id="Repositories-to-SkillRepository" style="stroke:#181818;stroke-width:1.0;"/><polygon fill="#181818" points="476.75,60.38,484.4147,66.5648,481.581,61.6689,486.477,58.8352,476.75,60.38" style="stroke:#181818;stroke-width:1.0;"/><text fill="#000000" font-family="sans-serif" font-size="13" lengthAdjust="spacing" textLength="7" x="484.407" y="58.6164">1</text></g><!--link Repositories to CollaboratorRepository--><g id="link_Repositories_CollaboratorRepository"><path codeLine="48" d="M931.32,238.69 C858.95,266.96 760.4688,305.4272 688.1388,333.6772 " fill="none" id="Repositories-to-CollaboratorRepository" style="stroke:#181818;stroke-width:1.0;"/><polygon fill="#181818" points="682.55,335.86,692.3885,336.3116,687.2074,334.041,689.478,328.8598,682.55,335.86" style="stroke:#181818;stroke-width:1.0;"/><text fill="#000000" font-family="sans-serif" font-size="13" lengthAdjust="spacing" textLength="7" x="691.3098" y="324.658">1</text></g><!--link Repositories to Repositories--><g id="link_Repositories_Repositories"><path codeLine="49" d="M1320.21,192.65 C1341.81,195.45 1355,199.57 1355,205 C1355,210.43 1347.7602,213.7787 1326.1602,216.5787 " fill="none" id="Repositories-to-Repositories" style="stroke:#181818;stroke-width:1.0;"/><polygon fill="#181818" points="1320.21,217.35,1329.6495,220.1598,1325.1685,216.7072,1328.6211,212.2262,1320.21,217.35" style="stroke:#181818;stroke-width:1.0;"/><text fill="#000000" font-family="sans-serif" font-size="13" lengthAdjust="spacing" textLength="49" x="1361" y="210.5283">instance</text></g><!--link SkillRepository to Skill--><g id="link_SkillRepository_Skill"><path codeLine="51" d="M335.39,63.13 C229.53,95.56 42,153 42,153 C42,153 6,204 6,204 C6,204 6,204 6,525.5 C6,525.5 167.2879,614.5891 242.0979,655.9091 " fill="none" id="SkillRepository-to-Skill" style="stroke:#181818;stroke-width:1.0;"/><polygon fill="#181818" points="247.35,658.81,241.4058,650.9572,242.9732,656.3926,237.5379,657.96,247.35,658.81" style="stroke:#181818;stroke-width:1.0;"/><text fill="#000000" font-family="sans-serif" font-size="13" lengthAdjust="spacing" textLength="7" x="232.2753" y="649.887">1</text></g><!--link CollaboratorRepository to Collaborator--><g id="link_CollaboratorRepository_Collaborator"><path codeLine="52" d="M580.55,403.32 C567.62,426.33 553.1692,452.0292 539.2792,476.7492 " fill="none" id="CollaboratorRepository-to-Collaborator" style="stroke:#181818;stroke-width:1.0;"/><polygon fill="#181818" points="536.34,481.98,544.2359,476.0932,538.7893,477.621,537.2615,472.1743,536.34,481.98" style="stroke:#181818;stroke-width:1.0;"/><text fill="#000000" font-family="sans-serif" font-size="13" lengthAdjust="spacing" textLength="7" x="532.502" y="470.8809">1</text></g><!--link AssignSkillController to Collaborator--><g id="link_AssignSkillController_Collaborator"><path codeLine="54" d="M410.42,257.25 C415.46,315.62 423,403 423,403 C423,403 452.1897,442.0827 478.1797,476.8827 " fill="none" id="AssignSkillController-to-Collaborator" style="stroke:#181818;stroke-width:1.0;stroke-dasharray:7.0,7.0;"/><polygon fill="#181818" points="481.77,481.69,479.5895,472.0856,478.7781,477.6839,473.1797,476.8726,481.77,481.69" style="stroke:#181818;stroke-width:1.0;"/><text fill="#000000" font-family="sans-serif" font-size="13" lengthAdjust="spacing" textLength="67" x="424" y="375.0283">collaborator</text><text fill="#000000" font-family="sans-serif" font-size="13" lengthAdjust="spacing" textLength="7" x="469.452" y="470.8652">1</text></g><!--link AssignSkillController to Skill--><g id="link_AssignSkillController_Skill"><path codeLine="55" d="M372.01,257.27 C319.09,337.08 223,482 223,482 C223,482 223,567 223,567 C223,567 244.9267,607.7565 262.6367,640.6665 " fill="none" id="AssignSkillController-to-Skill" style="stroke:#181818;stroke-width:1.0;stroke-dasharray:7.0,7.0;"/><polygon fill="#181818" points="265.48,645.95,264.7375,636.1292,263.1106,641.547,257.6927,639.9202,265.48,645.95" style="stroke:#181818;stroke-width:1.0;"/><text fill="#000000" font-family="sans-serif" font-size="13" lengthAdjust="spacing" textLength="23" x="256" y="448.0283">skill</text><text fill="#000000" font-family="sans-serif" font-size="13" lengthAdjust="spacing" textLength="7" x="254.3417" y="634.7657">1</text></g><!--link Collaborator to Skill--><g id="link_Collaborator_Skill"><path codeLine="56" d="M450.46,567.11 C408.15,595.25 358.7954,628.0764 323.6854,651.4364 " fill="none" id="Collaborator-to-Skill" style="stroke:#181818;stroke-width:1.0;"/><polygon fill="#181818" points="318.69,654.76,328.3988,653.1048,322.8528,651.9903,323.9673,646.4444,318.69,654.76" style="stroke:#181818;stroke-width:1.0;"/><text fill="#000000" font-family="sans-serif" font-size="13" lengthAdjust="spacing" textLength="21" x="406" y="612.0283">has</text><text fill="#000000" font-family="sans-serif" font-size="13" lengthAdjust="spacing" textLength="7" x="432.9349" y="589.2879">1</text><text fill="#000000" font-family="sans-serif" font-size="13" lengthAdjust="spacing" textLength="5" x="326.5667" y="645.0017">*</text></g><!--link AssignSkillController to CollaboratorRepository--><g id="link_AssignSkillController_CollaboratorRepository"><path codeLine="57" d="M466.8,257.19 C497.41,282.96 529.0003,309.5655 555.7703,332.1055 " fill="none" id="AssignSkillController-to-CollaboratorRepository" style="stroke:#181818;stroke-width:1.0;stroke-dasharray:7.0,7.0;"/><polygon fill="#181818" points="560.36,335.97,556.0517,327.1134,556.5352,332.7496,550.8991,333.2331,560.36,335.97" style="stroke:#181818;stroke-width:1.0;"/><text fill="#000000" font-family="sans-serif" font-size="13" lengthAdjust="spacing" textLength="129" x="521" y="302.0283">collaboratorRepository</text><text fill="#000000" font-family="sans-serif" font-size="13" lengthAdjust="spacing" textLength="7" x="545.0637" y="324.7896">1</text></g><!--reverse link SkillRepository to AssignSkillController--><g id="link_SkillRepository_AssignSkillController"><path codeLine="58" d="M406,80.38 C406,102.92 406,127.26 406,152.92 " fill="none" id="SkillRepository-backto-AssignSkillController" style="stroke:#181818;stroke-width:1.0;stroke-dasharray:7.0,7.0;"/><polygon fill="#181818" points="406,74.38,402,83.38,406,79.38,410,83.38,406,74.38" style="stroke:#181818;stroke-width:1.0;"/><text fill="#000000" font-family="sans-serif" font-size="13" lengthAdjust="spacing" textLength="85" x="407" y="119.0283">skillRepository</text><text fill="#000000" font-family="sans-serif" font-size="13" lengthAdjust="spacing" textLength="7" x="398.3984" y="95.75">1</text></g><!--link HRM to Skill--><g id="link_HRM_Skill"><path codeLine="59" d="M834.73,393.81 C825.19,445.86 803,567 803,567 C803,567 442.0867,644.3921 324.6067,669.5821 " fill="none" id="HRM-to-Skill" style="stroke:#181818;stroke-width:1.0;"/><polygon fill="#181818" points="318.74,670.84,328.3786,672.8642,323.6289,669.7917,326.7014,665.042,318.74,670.84" style="stroke:#181818;stroke-width:1.0;"/><text fill="#000000" font-family="sans-serif" font-size="13" lengthAdjust="spacing" textLength="7" x="825.9332" y="415.4593">1</text><text fill="#000000" font-family="sans-serif" font-size="13" lengthAdjust="spacing" textLength="7" x="326.4654" y="684.9028">1</text></g><!--SRC=[bLD1Ri8m4BplArPS2AMWzeegf8fBaTeUG7s02TjWOUp8DgrenD_hc41iObGrbyIUcTtnZjCtMovBfjaETqggVAFLZj3gFK6Bb2pVieAMzY08DUMMoKA41BDXQ_NDPO6VJ9WG4LoIFPI4fHA7UW7z1AYqLH2eSi6CURPMyzNUqZnNSib_21y0-e8-BLg5cXSRYsjUs-5A0dWDFXl32xdSSY4-vXKS8G7CbBHQ2K6w0dJFC0rckNknbTBCAhsWKXdkFWxtQ6fUkp5eYXHaPu72P07WIvlCAz_PZXnqF3kxLE9ai088rzd0o-VIk9ddb0rm4l4xNLjRZNGPctMcBetJEgnkdKTwunVvLULGrprkhAfys2SixSSnwdRmoerzyfhfQUxrnX1P6rWKKrsm2SZt7U8N4tpDB9suiQFeik1uchu7aDojwL5o4_TdjCieHHoDfjXxx5sFB4rAntB5xJJdpHK1kCubQWutGayrXrid7tUvpa6OmnzAl-yafcF9mzxCNKlRCFCFAy6fObF1C6zKsu-JEPsT1WLU5c-DrMYwlm00]--></g></svg>