<?xml version="1.0" encoding="us-ascii" standalone="no"?><svg xmlns="http://www.w3.org/2000/svg" xmlns:xlink="http://www.w3.org/1999/xlink" contentStyleType="text/css" height="472px" preserveAspectRatio="none" style="width:543px;height:472px;background:#FFFFFF;" version="1.1" viewBox="0 0 543 472" width="543px" zoomAndPan="magnify"><defs/><g><text fill="#000000" font-family="sans-serif" font-size="14" font-weight="bold" lengthAdjust="spacing" textLength="344" x="95.5" y="40.6357">US008 - List the vehicles needing check-up</text><rect fill="#FFFFFF" height="241.51" style="stroke:#181818;stroke-width:1.0;" width="10" x="13.5" y="141.2344"/><rect fill="#FFFFFF" height="211.359" style="stroke:#181818;stroke-width:1.0;" width="10" x="330.5" y="162.3854"/><line style="stroke:#181818;stroke-width:0.5;stroke-dasharray:5.0,5.0;" x1="18" x2="18" y1="131.2344" y2="391.7444"/><line style="stroke:#181818;stroke-width:0.5;stroke-dasharray:5.0,5.0;" x1="335" x2="335" y1="131.2344" y2="391.7444"/><text fill="#000000" font-family="sans-serif" font-size="14" lengthAdjust="spacing" textLength="20" x="5.5" y="127.9326">FM</text><ellipse cx="18.5" cy="63.4375" fill="#E3E3E3" rx="8" ry="8" style="stroke:#181818;stroke-width:0.5;"/><path d="M18.5,71.4375 L18.5,98.4375 M5.5,79.4375 L31.5,79.4375 M18.5,98.4375 L5.5,113.4375 M18.5,98.4375 L31.5,113.4375 " fill="none" style="stroke:#181818;stroke-width:0.5;"/><text fill="#000000" font-family="sans-serif" font-size="14" lengthAdjust="spacing" textLength="20" x="5.5" y="403.7395">FM</text><ellipse cx="18.5" cy="415.5413" fill="#E3E3E3" rx="8" ry="8" style="stroke:#181818;stroke-width:0.5;"/><path d="M18.5,423.5413 L18.5,450.5413 M5.5,431.5413 L31.5,431.5413 M18.5,450.5413 L5.5,465.5413 M18.5,450.5413 L31.5,465.5413 " fill="none" style="stroke:#181818;stroke-width:0.5;"/><rect fill="#E3E3E3" height="30.2969" rx="2.5" ry="2.5" style="stroke:#181818;stroke-width:0.5;" width="71" x="300" y="99.9375"/><text fill="#000000" font-family="sans-serif" font-size="14" lengthAdjust="spacing" textLength="57" x="307" y="119.9326">:System</text><rect fill="#E3E3E3" height="30.2969" rx="2.5" ry="2.5" style="stroke:#181818;stroke-width:0.5;" width="71" x="300" y="390.7444"/><text fill="#000000" font-family="sans-serif" font-size="14" lengthAdjust="spacing" textLength="57" x="307" y="410.7395">:System</text><rect fill="#FFFFFF" height="241.51" style="stroke:#181818;stroke-width:1.0;" width="10" x="13.5" y="141.2344"/><rect fill="#FFFFFF" height="211.359" style="stroke:#181818;stroke-width:1.0;" width="10" x="330.5" y="162.3854"/><polygon fill="#181818" points="318.5,158.3854,328.5,162.3854,318.5,166.3854,322.5,162.3854" style="stroke:#181818;stroke-width:1.0;"/><line style="stroke:#181818;stroke-width:1.0;" x1="23.5" x2="324.5" y1="162.3854" y2="162.3854"/><text fill="#000000" font-family="sans-serif" font-size="13" font-weight="bold" lengthAdjust="spacing" textLength="9" x="30.5" y="157.3158">1</text><text fill="#000000" font-family="sans-serif" font-size="13" lengthAdjust="spacing" textLength="275" x="43.5" y="157.3158">Request list of vehicles needing check-up.</text><polygon fill="#181818" points="318.5,187.5364,328.5,191.5364,318.5,195.5364,322.5,191.5364" style="stroke:#181818;stroke-width:1.0;"/><line style="stroke:#181818;stroke-width:1.0;" x1="23.5" x2="324.5" y1="191.5364" y2="191.5364"/><text fill="#000000" font-family="sans-serif" font-size="13" font-weight="bold" lengthAdjust="spacing" textLength="9" x="30.5" y="186.4668">2</text><text fill="#000000" font-family="sans-serif" font-size="13" lengthAdjust="spacing" textLength="248" x="43.5" y="186.4668">Selects order in which to view the list.</text><line style="stroke:#181818;stroke-width:1.0;stroke-dasharray:2.0,2.0;" x1="340.5" x2="382.5" y1="235.8384" y2="235.8384"/><line style="stroke:#181818;stroke-width:1.0;stroke-dasharray:2.0,2.0;" x1="382.5" x2="382.5" y1="235.8384" y2="248.8384"/><line style="stroke:#181818;stroke-width:1.0;stroke-dasharray:2.0,2.0;" x1="341.5" x2="382.5" y1="248.8384" y2="248.8384"/><polygon fill="#181818" points="351.5,244.8384,341.5,248.8384,351.5,252.8384,347.5,248.8384" style="stroke:#181818;stroke-width:1.0;"/><text fill="#000000" font-family="sans-serif" font-size="13" font-weight="bold" lengthAdjust="spacing" textLength="9" x="347.5" y="223.1933">3</text><text fill="#000000" font-family="sans-serif" font-size="13" lengthAdjust="spacing" textLength="127" x="360.5" y="215.6178">Retrieval of vehicle</text><text fill="#000000" font-family="sans-serif" font-size="13" lengthAdjust="spacing" textLength="80" x="364.5" y="230.7688">information.</text><path d="M345,261.8384 L345,346.8384 L531,346.8384 L531,271.8384 L521,261.8384 L345,261.8384 " fill="#FAFAFA" style="stroke:#181818;stroke-width:0.5;"/><path d="M521,261.8384 L521,271.8384 L531,271.8384 L521,261.8384 " fill="#FAFAFA" style="stroke:#181818;stroke-width:0.5;"/><text fill="#000000" font-family="sans-serif" font-size="13" lengthAdjust="spacing" textLength="165" x="351" y="278.9198">Lists the vehicles details:</text><text fill="#000000" font-family="sans-serif" font-size="13" lengthAdjust="spacing" textLength="87" x="351" y="294.0708">Plate number</text><text fill="#000000" font-family="sans-serif" font-size="13" lengthAdjust="spacing" textLength="38" x="351" y="309.2218">Brand</text><text fill="#000000" font-family="sans-serif" font-size="13" lengthAdjust="spacing" textLength="39" x="351" y="324.3728">Model</text><text fill="#000000" font-family="sans-serif" font-size="13" lengthAdjust="spacing" textLength="48" x="351" y="339.5238">Reason</text><polygon fill="#181818" points="34.5,369.7444,24.5,373.7444,34.5,377.7444,30.5,373.7444" style="stroke:#181818;stroke-width:1.0;"/><line style="stroke:#181818;stroke-width:1.0;" x1="28.5" x2="334.5" y1="373.7444" y2="373.7444"/><text fill="#000000" font-family="sans-serif" font-size="13" font-weight="bold" lengthAdjust="spacing" textLength="9" x="40.5" y="368.6748">4</text><text fill="#000000" font-family="sans-serif" font-size="13" lengthAdjust="spacing" textLength="103" x="53.5" y="368.6748">Returns the list.</text><text fill="#888888" font-family="sans-serif" font-size="10" lengthAdjust="spacing" textLength="31" x="504" y="14.2822">US008</text><!--SRC=[TP2zRiCm38HtFGMHtK768aE63fqQe8ZHpGihqvOGYN8asa7Ulf9ZvAye9m7adRwxTBGyO4GFFd3G9WPF874abMwR0VKHUwhbuWWYQK7ktUD1CjY6i-KUEdI9b18h-VIxtcpUe89FcmJ444nah7QKW8dQSguDwMCr3ieGjXIl2eMZ11xz3qMbK4k8iFhOhm0JT5xb7yLgEo0BhBRr9GdvUNTzpWexeL0vLf2dyr3jbZLiuK2daJAGArIX-nzgFQjlTei_BFFYMfFBnIG8iUIm3EViQa02J9RES_houVgcNvJLCvf4InEw1ww6iriNeaUnWUzw3fafsjx8NL-AJizDjoHeNTes_ELAYckl3Rz7vBRXVMZ9DNmWJ87_iErAoXbhZ9nUGhJqMiql]--></g></svg>