<?xml version="1.0" encoding="us-ascii" standalone="no"?><svg xmlns="http://www.w3.org/2000/svg" xmlns:xlink="http://www.w3.org/1999/xlink" contentStyleType="text/css" height="622px" preserveAspectRatio="none" style="width:689px;height:622px;background:#FFFFFF;" version="1.1" viewBox="0 0 689 622" width="689px" zoomAndPan="magnify"><defs><filter height="300%" id="f1sidh3o1z5uo3" width="300%" x="-1" y="-1"><feGaussianBlur result="blurOut" stdDeviation="2.0"/><feColorMatrix in="blurOut" result="blurOut2" type="matrix" values="0 0 0 0 0 0 0 0 0 0 0 0 0 0 0 0 0 0 .4 0"/><feOffset dx="4.0" dy="4.0" in="blurOut2" result="blurOut3"/><feBlend in="SourceGraphic" in2="blurOut3" mode="normal"/></filter></defs><g><text fill="#000000" font-family="sans-serif" font-size="14" font-weight="bold" lengthAdjust="spacing" textLength="460" x="110.5" y="44.4082">US024 - Postpone an entry in the Agenda to a specific future date.</text><rect fill="#FFFFFF" filter="url(#f1sidh3o1z5uo3)" height="370.9102" style="stroke:#181818;stroke-width:1.0;" width="10" x="18.5" y="150.543"/><rect fill="#FFFFFF" filter="url(#f1sidh3o1z5uo3)" height="115.873" style="stroke:#181818;stroke-width:1.0;" width="10" x="328.5" y="173.834"/><rect fill="#FFFFFF" filter="url(#f1sidh3o1z5uo3)" height="200.4551" style="stroke:#181818;stroke-width:1.0;" width="10" x="328.5" y="320.998"/><line style="stroke:#181818;stroke-width:0.5;stroke-dasharray:5.0,5.0;" x1="23" x2="23" y1="140.543" y2="539.4531"/><line style="stroke:#181818;stroke-width:0.5;stroke-dasharray:5.0,5.0;" x1="333" x2="333" y1="140.543" y2="539.4531"/><text fill="#000000" font-family="sans-serif" font-size="14" lengthAdjust="spacing" textLength="31" x="5" y="137.0293">GSM</text><ellipse cx="23.5" cy="67.4219" fill="#E2E2F0" filter="url(#f1sidh3o1z5uo3)" rx="8" ry="8" style="stroke:#181818;stroke-width:0.5;"/><path d="M23.5,75.4219 L23.5,102.4219 M10.5,83.4219 L36.5,83.4219 M23.5,102.4219 L10.5,117.4219 M23.5,102.4219 L36.5,117.4219 " fill="none" filter="url(#f1sidh3o1z5uo3)" style="stroke:#181818;stroke-width:0.5;"/><text fill="#000000" font-family="sans-serif" font-size="14" lengthAdjust="spacing" textLength="31" x="5" y="553.5605">GSM</text><ellipse cx="23.5" cy="565.5742" fill="#E2E2F0" filter="url(#f1sidh3o1z5uo3)" rx="8" ry="8" style="stroke:#181818;stroke-width:0.5;"/><path d="M23.5,573.5742 L23.5,600.5742 M10.5,581.5742 L36.5,581.5742 M23.5,600.5742 L10.5,615.5742 M23.5,600.5742 L36.5,615.5742 " fill="none" filter="url(#f1sidh3o1z5uo3)" style="stroke:#181818;stroke-width:0.5;"/><rect fill="#E2E2F0" filter="url(#f1sidh3o1z5uo3)" height="32.6211" rx="2.5" ry="2.5" style="stroke:#181818;stroke-width:0.5;" width="64" x="300" y="103.9219"/><text fill="#000000" font-family="sans-serif" font-size="14" lengthAdjust="spacing" textLength="50" x="307" y="126.0293">:System</text><rect fill="#E2E2F0" filter="url(#f1sidh3o1z5uo3)" height="32.6211" rx="2.5" ry="2.5" style="stroke:#181818;stroke-width:0.5;" width="64" x="300" y="538.4531"/><text fill="#000000" font-family="sans-serif" font-size="14" lengthAdjust="spacing" textLength="50" x="307" y="560.5605">:System</text><rect fill="#FFFFFF" filter="url(#f1sidh3o1z5uo3)" height="370.9102" style="stroke:#181818;stroke-width:1.0;" width="10" x="18.5" y="150.543"/><rect fill="#FFFFFF" filter="url(#f1sidh3o1z5uo3)" height="115.873" style="stroke:#181818;stroke-width:1.0;" width="10" x="328.5" y="173.834"/><rect fill="#FFFFFF" filter="url(#f1sidh3o1z5uo3)" height="200.4551" style="stroke:#181818;stroke-width:1.0;" width="10" x="328.5" y="320.998"/><polygon fill="#181818" points="316.5,169.834,326.5,173.834,316.5,177.834,320.5,173.834" style="stroke:#181818;stroke-width:1.0;"/><line style="stroke:#181818;stroke-width:1.0;" x1="28.5" x2="322.5" y1="173.834" y2="173.834"/><text fill="#000000" font-family="sans-serif" font-size="13" font-weight="bold" lengthAdjust="spacing" textLength="7" x="35.5" y="168.5713">1</text><text fill="#000000" font-family="sans-serif" font-size="13" lengthAdjust="spacing" textLength="217" x="46.5" y="168.5713">Request to postpone an agenda entry</text><line style="stroke:#181818;stroke-width:1.0;stroke-dasharray:2.0,2.0;" x1="338.5" x2="380.5" y1="205.125" y2="205.125"/><line style="stroke:#181818;stroke-width:1.0;stroke-dasharray:2.0,2.0;" x1="380.5" x2="380.5" y1="205.125" y2="218.125"/><line style="stroke:#181818;stroke-width:1.0;stroke-dasharray:2.0,2.0;" x1="339.5" x2="380.5" y1="218.125" y2="218.125"/><polygon fill="#181818" points="349.5,214.125,339.5,218.125,349.5,222.125,345.5,218.125" style="stroke:#181818;stroke-width:1.0;"/><text fill="#000000" font-family="sans-serif" font-size="13" font-weight="bold" lengthAdjust="spacing" textLength="7" x="345.5" y="199.8623">2</text><text fill="#000000" font-family="sans-serif" font-size="13" lengthAdjust="spacing" textLength="211" x="356.5" y="199.8623">Retrieve current agenda entry details</text><path d="M343,231.125 L343,258.125 L674,258.125 L674,241.125 L664,231.125 L343,231.125 " fill="#FEFFDD" filter="url(#f1sidh3o1z5uo3)" style="stroke:#181818;stroke-width:0.5;"/><path d="M664,231.125 L664,241.125 L674,241.125 L664,231.125 " fill="#FEFFDD" style="stroke:#181818;stroke-width:0.5;"/><text fill="#000000" font-family="sans-serif" font-size="13" lengthAdjust="spacing" textLength="310" x="349" y="250.1533">Includes task, team, equipment, duration, status, etc.</text><polygon fill="#181818" points="39.5,285.707,29.5,289.707,39.5,293.707,35.5,289.707" style="stroke:#181818;stroke-width:1.0;"/><line style="stroke:#181818;stroke-width:1.0;" x1="33.5" x2="332.5" y1="289.707" y2="289.707"/><text fill="#000000" font-family="sans-serif" font-size="13" font-weight="bold" lengthAdjust="spacing" textLength="7" x="45.5" y="284.4443">3</text><text fill="#000000" font-family="sans-serif" font-size="13" lengthAdjust="spacing" textLength="210" x="56.5" y="284.4443">Returns current agenda entry details</text><polygon fill="#181818" points="316.5,316.998,326.5,320.998,316.5,324.998,320.5,320.998" style="stroke:#181818;stroke-width:1.0;"/><line style="stroke:#181818;stroke-width:1.0;" x1="28.5" x2="322.5" y1="320.998" y2="320.998"/><text fill="#000000" font-family="sans-serif" font-size="13" font-weight="bold" lengthAdjust="spacing" textLength="7" x="35.5" y="315.7354">4</text><text fill="#000000" font-family="sans-serif" font-size="13" lengthAdjust="spacing" textLength="270" x="46.5" y="315.7354">Provide new date and reason for postponement</text><line style="stroke:#181818;stroke-width:1.0;stroke-dasharray:2.0,2.0;" x1="338.5" x2="380.5" y1="352.2891" y2="352.2891"/><line style="stroke:#181818;stroke-width:1.0;stroke-dasharray:2.0,2.0;" x1="380.5" x2="380.5" y1="352.2891" y2="365.2891"/><line style="stroke:#181818;stroke-width:1.0;stroke-dasharray:2.0,2.0;" x1="339.5" x2="380.5" y1="365.2891" y2="365.2891"/><polygon fill="#181818" points="349.5,361.2891,339.5,365.2891,349.5,369.2891,345.5,365.2891" style="stroke:#181818;stroke-width:1.0;"/><text fill="#000000" font-family="sans-serif" font-size="13" font-weight="bold" lengthAdjust="spacing" textLength="7" x="345.5" y="347.0264">5</text><text fill="#000000" font-family="sans-serif" font-size="13" lengthAdjust="spacing" textLength="103" x="356.5" y="347.0264">Validate new date</text><path d="M343,378.2891 L343,405.2891 L663,405.2891 L663,388.2891 L653,378.2891 L343,378.2891 " fill="#FEFFDD" filter="url(#f1sidh3o1z5uo3)" style="stroke:#181818;stroke-width:0.5;"/><path d="M653,378.2891 L653,388.2891 L663,388.2891 L653,378.2891 " fill="#FEFFDD" style="stroke:#181818;stroke-width:0.5;"/><text fill="#000000" font-family="sans-serif" font-size="13" lengthAdjust="spacing" textLength="299" x="349" y="397.3174">Ensure new date does not conflict with other entries</text><line style="stroke:#181818;stroke-width:1.0;" x1="338.5" x2="380.5" y1="436.8711" y2="436.8711"/><line style="stroke:#181818;stroke-width:1.0;" x1="380.5" x2="380.5" y1="436.8711" y2="449.8711"/><line style="stroke:#181818;stroke-width:1.0;" x1="339.5" x2="380.5" y1="449.8711" y2="449.8711"/><polygon fill="#181818" points="349.5,445.8711,339.5,449.8711,349.5,453.8711,345.5,449.8711" style="stroke:#181818;stroke-width:1.0;"/><text fill="#000000" font-family="sans-serif" font-size="13" font-weight="bold" lengthAdjust="spacing" textLength="7" x="345.5" y="431.6084">6</text><text fill="#000000" font-family="sans-serif" font-size="13" lengthAdjust="spacing" textLength="268" x="356.5" y="431.6084">Update agenda entry with new date and status</text><path d="M343,462.8711 L343,489.8711 L539,489.8711 L539,472.8711 L529,462.8711 L343,462.8711 " fill="#FEFFDD" filter="url(#f1sidh3o1z5uo3)" style="stroke:#181818;stroke-width:0.5;"/><path d="M529,462.8711 L529,472.8711 L539,472.8711 L529,462.8711 " fill="#FEFFDD" style="stroke:#181818;stroke-width:0.5;"/><text fill="#000000" font-family="sans-serif" font-size="13" lengthAdjust="spacing" textLength="175" x="349" y="481.8994">Change status to "Postponed"</text><polygon fill="#181818" points="34.5,517.4531,24.5,521.4531,34.5,525.4531,30.5,521.4531" style="stroke:#181818;stroke-width:1.0;"/><line style="stroke:#181818;stroke-width:1.0;" x1="28.5" x2="332.5" y1="521.4531" y2="521.4531"/><text fill="#000000" font-family="sans-serif" font-size="13" font-weight="bold" lengthAdjust="spacing" textLength="7" x="40.5" y="516.1904">7</text><text fill="#000000" font-family="sans-serif" font-size="13" lengthAdjust="spacing" textLength="172" x="51.5" y="516.1904">Confirmation of postponement</text><text fill="#888888" font-family="sans-serif" font-size="10" lengthAdjust="spacing" textLength="32" x="649" y="15.791">US024</text><!--SRC=[bPD1Yzim48Nl_XM3pybIIazxM2XBANieB0tR-rGQsqFiaQiP9UJVLvOTD-ccXEeafAUFDsz6kcSPCU80Gv3WkXW6WWPxfKhNgn7T7blQsQadYEGCfUql1TgX3qUM5YmcgYfZoygttOUFds0Bhq5j34A00YGMJy02rX5yRaayWWL0q94SD-oWIPOYWKUZXweZz1HdKeN9WgJX9yKAdOK8zTVTjnfGeTMXoawC7Oye1lNZxgH6GxcSjzNqXW-PMjGLv9Kti7rQ1F08t-bN8hN9q7ZX6MURnNfvjv8MD2nh0MslcHQP3WGknPWHLpJmPCYzhWG9cHgvxGn2ymVo8gvFdXGCTRy18nmsaCtoE6JE1doAQ1na0sfeIVEbkOTtlfvAnSLJYgBtBNdwkzIRkRt6S61F87GiVSkX-Jmdg46WoNqwXpcP_Uy0Vs3F1NgctmlhY-WqGAiP7t9mMGikIDEpCpYoTH3o1CPICvFUY6hblOrpJPSX5S9LkNFmzxmzT_dhq2AUvgm-VmvV_xDTpzatnw5qUAAzY_D6cowEfd7_3G00]--></g></svg>