<?xml version="1.0" encoding="us-ascii" standalone="no"?><svg xmlns="http://www.w3.org/2000/svg" xmlns:xlink="http://www.w3.org/1999/xlink" contentStyleType="text/css" height="756px" preserveAspectRatio="none" style="width:734px;height:756px;background:#FFFFFF;" version="1.1" viewBox="0 0 734 756" width="734px" zoomAndPan="magnify"><defs/><g><text fill="#000000" font-family="sans-serif" font-size="14" font-weight="bold" lengthAdjust="spacing" textLength="146" x="287" y="25.1074">US001 Class Diagram</text><!--class ApplicationSession--><g id="elem_ApplicationSession"><rect codeLine="12" fill="#F1F1F1" height="85.2422" id="ApplicationSession" rx="2.5" ry="2.5" style="stroke:#181818;stroke-width:0.5;" width="151" x="479.5" y="379.1211"/><ellipse cx="494.5" cy="395.1211" fill="#ADD1B2" rx="11" ry="11" style="stroke:#181818;stroke-width:1.0;"/><path d="M498.0156,396.4805 Q497.7969,399.8555 496.6563,400.9805 Q495.6563,401.9805 494.2813,401.9805 Q492.9063,401.9805 491.9063,400.9805 Q490.1719,399.2461 490.1719,395.6055 Q490.1719,391.3867 492.0313,389.5117 Q493.0469,388.5117 494.3438,388.5117 Q495.7188,388.5117 496.5313,389.3086 Q498,390.793 497.9375,393.5586 L495.9375,393.5586 Q495.875,391.2773 495.2188,390.6211 Q494.9063,390.293 494.3438,390.293 Q493.8594,390.293 493.4688,390.6836 Q492.2188,391.9336 492.2188,395.4805 Q492.2188,398.5586 493.2813,399.6055 Q493.7344,400.0586 494.2813,400.0586 Q494.7656,400.0586 495.2188,399.6055 Q495.8125,399.0273 495.875,396.4805 L498.0156,396.4805 Z " fill="#000000"/><text fill="#000000" font-family="sans-serif" font-size="14" lengthAdjust="spacing" textLength="119" x="508.5" y="400.918">ApplicationSession</text><line style="stroke:#181818;stroke-width:0.5;" x1="480.5" x2="629.5" y1="411.1211" y2="411.1211"/><line style="stroke:#181818;stroke-width:0.5;" x1="480.5" x2="629.5" y1="419.1211" y2="419.1211"/><text fill="#000000" font-family="sans-serif" font-size="14" lengthAdjust="spacing" textLength="128" x="485.5" y="438.2285">+static getInstance()</text><text fill="#000000" font-family="sans-serif" font-size="14" lengthAdjust="spacing" textLength="136" x="485.5" y="456.8496">+getCurrentSession()</text></g><!--class UserSession--><g id="elem_UserSession"><rect codeLine="18" fill="#F1F1F1" height="66.6211" id="UserSession" rx="2.5" ry="2.5" style="stroke:#181818;stroke-width:0.5;" width="113" x="561.5" y="636.1211"/><ellipse cx="577.4" cy="652.1211" fill="#ADD1B2" rx="11" ry="11" style="stroke:#181818;stroke-width:1.0;"/><path d="M580.9156,653.4805 Q580.6969,656.8555 579.5563,657.9805 Q578.5563,658.9805 577.1813,658.9805 Q575.8063,658.9805 574.8063,657.9805 Q573.0719,656.2461 573.0719,652.6055 Q573.0719,648.3867 574.9313,646.5117 Q575.9469,645.5117 577.2438,645.5117 Q578.6188,645.5117 579.4313,646.3086 Q580.9,647.793 580.8375,650.5586 L578.8375,650.5586 Q578.775,648.2773 578.1188,647.6211 Q577.8063,647.293 577.2438,647.293 Q576.7594,647.293 576.3688,647.6836 Q575.1188,648.9336 575.1188,652.4805 Q575.1188,655.5586 576.1813,656.6055 Q576.6344,657.0586 577.1813,657.0586 Q577.6656,657.0586 578.1188,656.6055 Q578.7125,656.0273 578.775,653.4805 L580.9156,653.4805 Z " fill="#000000"/><text fill="#000000" font-family="sans-serif" font-size="14" lengthAdjust="spacing" textLength="79" x="591.6" y="657.918">UserSession</text><line style="stroke:#181818;stroke-width:0.5;" x1="562.5" x2="673.5" y1="668.1211" y2="668.1211"/><line style="stroke:#181818;stroke-width:0.5;" x1="562.5" x2="673.5" y1="676.1211" y2="676.1211"/><text fill="#000000" font-family="sans-serif" font-size="14" lengthAdjust="spacing" textLength="101" x="567.5" y="695.2285">+getUserEmail()</text></g><!--class Skill--><g id="elem_Skill"><rect codeLine="24" fill="#F1F1F1" height="159.7266" id="Skill" rx="2.5" ry="2.5" style="stroke:#181818;stroke-width:0.5;" width="255" x="187.5" y="589.6211"/><ellipse cx="298.25" cy="605.6211" fill="#ADD1B2" rx="11" ry="11" style="stroke:#181818;stroke-width:1.0;"/><path d="M301.7656,606.9805 Q301.5469,610.3555 300.4063,611.4805 Q299.4063,612.4805 298.0313,612.4805 Q296.6563,612.4805 295.6563,611.4805 Q293.9219,609.7461 293.9219,606.1055 Q293.9219,601.8867 295.7813,600.0117 Q296.7969,599.0117 298.0938,599.0117 Q299.4688,599.0117 300.2813,599.8086 Q301.75,601.293 301.6875,604.0586 L299.6875,604.0586 Q299.625,601.7773 298.9688,601.1211 Q298.6563,600.793 298.0938,600.793 Q297.6094,600.793 297.2188,601.1836 Q295.9688,602.4336 295.9688,605.9805 Q295.9688,609.0586 297.0313,610.1055 Q297.4844,610.5586 298.0313,610.5586 Q298.5156,610.5586 298.9688,610.1055 Q299.5625,609.5273 299.625,606.9805 L301.7656,606.9805 Z " fill="#000000"/><text fill="#000000" font-family="sans-serif" font-size="14" lengthAdjust="spacing" textLength="25" x="318.75" y="611.418">Skill</text><line style="stroke:#181818;stroke-width:0.5;" x1="188.5" x2="441.5" y1="621.6211" y2="621.6211"/><text fill="#000000" font-family="sans-serif" font-size="14" lengthAdjust="spacing" textLength="35" x="193.5" y="640.7285">-int id</text><text fill="#000000" font-family="sans-serif" font-size="14" lengthAdjust="spacing" textLength="115" x="193.5" y="659.3496">-String description</text><line style="stroke:#181818;stroke-width:0.5;" x1="188.5" x2="441.5" y1="666.8633" y2="666.8633"/><text fill="#000000" font-family="sans-serif" font-size="14" lengthAdjust="spacing" textLength="74" x="193.5" y="685.9707">+getSkillId()</text><text fill="#000000" font-family="sans-serif" font-size="14" lengthAdjust="spacing" textLength="134" x="193.5" y="704.5918">+getSkillDescription()</text><text fill="#000000" font-family="sans-serif" font-size="14" lengthAdjust="spacing" textLength="243" x="193.5" y="723.2129">+setSkillDescription(String description)</text><text fill="#000000" font-family="sans-serif" font-size="14" lengthAdjust="spacing" textLength="171" x="193.5" y="741.834">+isValidName(String name)</text></g><!--class SkillsRepository--><g id="elem_SkillsRepository"><rect codeLine="35" fill="#F1F1F1" height="178.3477" id="SkillsRepository" rx="2.5" ry="2.5" style="stroke:#181818;stroke-width:0.5;" width="245" x="92.5" y="332.6211"/><ellipse cx="160.75" cy="348.6211" fill="#ADD1B2" rx="11" ry="11" style="stroke:#181818;stroke-width:1.0;"/><path d="M164.2656,349.9805 Q164.0469,353.3555 162.9063,354.4805 Q161.9063,355.4805 160.5313,355.4805 Q159.1563,355.4805 158.1563,354.4805 Q156.4219,352.7461 156.4219,349.1055 Q156.4219,344.8867 158.2813,343.0117 Q159.2969,342.0117 160.5938,342.0117 Q161.9688,342.0117 162.7813,342.8086 Q164.25,344.293 164.1875,347.0586 L162.1875,347.0586 Q162.125,344.7773 161.4688,344.1211 Q161.1563,343.793 160.5938,343.793 Q160.1094,343.793 159.7188,344.1836 Q158.4688,345.4336 158.4688,348.9805 Q158.4688,352.0586 159.5313,353.1055 Q159.9844,353.5586 160.5313,353.5586 Q161.0156,353.5586 161.4688,353.1055 Q162.0625,352.5273 162.125,349.9805 L164.2656,349.9805 Z " fill="#000000"/><text fill="#000000" font-family="sans-serif" font-size="14" lengthAdjust="spacing" textLength="100" x="181.25" y="354.418">SkillsRepository</text><line style="stroke:#181818;stroke-width:0.5;" x1="93.5" x2="336.5" y1="364.6211" y2="364.6211"/><text fill="#000000" font-family="sans-serif" font-size="14" lengthAdjust="spacing" textLength="102" x="98.5" y="383.7285">-List&lt;Skill&gt; skills</text><line style="stroke:#181818;stroke-width:0.5;" x1="93.5" x2="336.5" y1="391.2422" y2="391.2422"/><text fill="#000000" font-family="sans-serif" font-size="14" lengthAdjust="spacing" textLength="118" x="98.5" y="410.3496">+SkillsRepository()</text><text fill="#000000" font-family="sans-serif" font-size="14" lengthAdjust="spacing" textLength="213" x="98.5" y="428.9707">+add(int skillId, String description)</text><text fill="#000000" font-family="sans-serif" font-size="14" lengthAdjust="spacing" textLength="233" x="98.5" y="447.5918">+update(int skillId, String description)</text><text fill="#000000" font-family="sans-serif" font-size="14" lengthAdjust="spacing" textLength="118" x="98.5" y="466.2129">+remove(int skillId)</text><text fill="#000000" font-family="sans-serif" font-size="14" lengthAdjust="spacing" textLength="106" x="98.5" y="484.834">+exists(int skillId)</text><text fill="#000000" font-family="sans-serif" font-size="14" lengthAdjust="spacing" textLength="163" x="98.5" y="503.4551">+exists(String description)</text></g><!--class Repositories--><g id="elem_Repositories"><rect codeLine="48" fill="#F1F1F1" height="85.2422" id="Repositories" rx="2.5" ry="2.5" style="stroke:#181818;stroke-width:0.5;" width="194" x="118" y="217.6211"/><ellipse cx="171.25" cy="233.6211" fill="#ADD1B2" rx="11" ry="11" style="stroke:#181818;stroke-width:1.0;"/><path d="M174.7656,234.9805 Q174.5469,238.3555 173.4063,239.4805 Q172.4063,240.4805 171.0313,240.4805 Q169.6563,240.4805 168.6563,239.4805 Q166.9219,237.7461 166.9219,234.1055 Q166.9219,229.8867 168.7813,228.0117 Q169.7969,227.0117 171.0938,227.0117 Q172.4688,227.0117 173.2813,227.8086 Q174.75,229.293 174.6875,232.0586 L172.6875,232.0586 Q172.625,229.7773 171.9688,229.1211 Q171.6563,228.793 171.0938,228.793 Q170.6094,228.793 170.2188,229.1836 Q168.9688,230.4336 168.9688,233.9805 Q168.9688,237.0586 170.0313,238.1055 Q170.4844,238.5586 171.0313,238.5586 Q171.5156,238.5586 171.9688,238.1055 Q172.5625,237.5273 172.625,234.9805 L174.7656,234.9805 Z " fill="#000000"/><text fill="#000000" font-family="sans-serif" font-size="14" lengthAdjust="spacing" textLength="79" x="191.75" y="239.418">Repositories</text><line style="stroke:#181818;stroke-width:0.5;" x1="119" x2="311" y1="249.6211" y2="249.6211"/><line style="stroke:#181818;stroke-width:0.5;" x1="119" x2="311" y1="257.6211" y2="257.6211"/><text fill="#000000" font-family="sans-serif" font-size="14" lengthAdjust="spacing" textLength="94" x="124" y="276.7285">-Repositories()</text><text fill="#000000" font-family="sans-serif" font-size="14" lengthAdjust="spacing" textLength="182" x="124" y="295.3496">+getInstance() : Repositories</text></g><!--class RegisterSkillController--><g id="elem_RegisterSkillController"><rect codeLine="53" fill="#F1F1F1" height="141.1055" id="RegisterSkillController" rx="2.5" ry="2.5" style="stroke:#181818;stroke-width:0.5;" width="274" x="277" y="46.6211"/><ellipse cx="339.75" cy="62.6211" fill="#ADD1B2" rx="11" ry="11" style="stroke:#181818;stroke-width:1.0;"/><path d="M343.2656,63.9805 Q343.0469,67.3555 341.9063,68.4805 Q340.9063,69.4805 339.5313,69.4805 Q338.1563,69.4805 337.1563,68.4805 Q335.4219,66.7461 335.4219,63.1055 Q335.4219,58.8867 337.2813,57.0117 Q338.2969,56.0117 339.5938,56.0117 Q340.9688,56.0117 341.7813,56.8086 Q343.25,58.293 343.1875,61.0586 L341.1875,61.0586 Q341.125,58.7773 340.4688,58.1211 Q340.1563,57.793 339.5938,57.793 Q339.1094,57.793 338.7188,58.1836 Q337.4688,59.4336 337.4688,62.9805 Q337.4688,66.0586 338.5313,67.1055 Q338.9844,67.5586 339.5313,67.5586 Q340.0156,67.5586 340.4688,67.1055 Q341.0625,66.5273 341.125,63.9805 L343.2656,63.9805 Z " fill="#000000"/><text fill="#000000" font-family="sans-serif" font-size="14" lengthAdjust="spacing" textLength="140" x="360.25" y="68.418">RegisterSkillController</text><line style="stroke:#181818;stroke-width:0.5;" x1="278" x2="550" y1="78.6211" y2="78.6211"/><text fill="#000000" font-family="sans-serif" font-size="14" lengthAdjust="spacing" textLength="207" x="283" y="97.7285">-SkillsRepository skillsRepository</text><line style="stroke:#181818;stroke-width:0.5;" x1="278" x2="550" y1="105.2422" y2="105.2422"/><text fill="#000000" font-family="sans-serif" font-size="14" lengthAdjust="spacing" textLength="135" x="283" y="124.3496">-getSkillsRepository()</text><text fill="#000000" font-family="sans-serif" font-size="14" lengthAdjust="spacing" textLength="262" x="283" y="142.9707">+registerSkill(int skillId, String description)</text><text fill="#000000" font-family="sans-serif" font-size="14" lengthAdjust="spacing" textLength="130" x="283" y="161.5918">+skillExists(int skillId)</text><text fill="#000000" font-family="sans-serif" font-size="14" lengthAdjust="spacing" textLength="194" x="283" y="180.2129">+descExists(String description)</text></g><!--class RegisterSkillUI--><g id="elem_RegisterSkillUI"><rect codeLine="62" fill="#F1F1F1" height="48" id="RegisterSkillUI" rx="2.5" ry="2.5" style="stroke:#181818;stroke-width:0.5;" width="122" x="120" y="93.1211"/><ellipse cx="135" cy="109.1211" fill="#ADD1B2" rx="11" ry="11" style="stroke:#181818;stroke-width:1.0;"/><path d="M138.5156,110.4805 Q138.2969,113.8555 137.1563,114.9805 Q136.1563,115.9805 134.7813,115.9805 Q133.4063,115.9805 132.4063,114.9805 Q130.6719,113.2461 130.6719,109.6055 Q130.6719,105.3867 132.5313,103.5117 Q133.5469,102.5117 134.8438,102.5117 Q136.2188,102.5117 137.0313,103.3086 Q138.5,104.793 138.4375,107.5586 L136.4375,107.5586 Q136.375,105.2773 135.7188,104.6211 Q135.4063,104.293 134.8438,104.293 Q134.3594,104.293 133.9688,104.6836 Q132.7188,105.9336 132.7188,109.4805 Q132.7188,112.5586 133.7813,113.6055 Q134.2344,114.0586 134.7813,114.0586 Q135.2656,114.0586 135.7188,113.6055 Q136.3125,113.0273 136.375,110.4805 L138.5156,110.4805 Z " fill="#000000"/><text fill="#000000" font-family="sans-serif" font-size="14" lengthAdjust="spacing" textLength="90" x="149" y="114.918">RegisterSkillUI</text><line style="stroke:#181818;stroke-width:0.5;" x1="121" x2="241" y1="125.1211" y2="125.1211"/><line style="stroke:#181818;stroke-width:0.5;" x1="121" x2="241" y1="133.1211" y2="133.1211"/></g><!--link Repositories to Repositories--><g id="link_Repositories_Repositories"><path codeLine="65" d="M312.28,234.4311 C332.48,237.1411 347,245.7011 347,260.1211 C347,274.5411 338.4267,282.3033 318.2267,285.0133 " fill="none" id="Repositories-to-Repositories" style="stroke:#181818;stroke-width:1.0;"/><polygon fill="#181818" points="312.28,285.8111,321.732,288.5789,317.2356,285.1463,320.6682,280.6499,312.28,285.8111" style="stroke:#181818;stroke-width:1.0;"/><text fill="#000000" font-family="sans-serif" font-size="13" lengthAdjust="spacing" textLength="49" x="353" y="265.6494">instance</text></g><!--link ApplicationSession to ApplicationSession--><g id="link_ApplicationSession_ApplicationSession"><path codeLine="66" d="M630.66,397.8511 C650.5,399.2611 665.5,407.1811 665.5,421.6211 C665.5,436.0611 656.4849,443.5558 636.6449,444.9658 " fill="none" id="ApplicationSession-to-ApplicationSession" style="stroke:#181818;stroke-width:1.0;"/><polygon fill="#181818" points="630.66,445.3911,639.9209,448.743,635.6474,445.0366,639.3538,440.7631,630.66,445.3911" style="stroke:#181818;stroke-width:1.0;"/><text fill="#000000" font-family="sans-serif" font-size="13" lengthAdjust="spacing" textLength="49" x="671.5" y="427.1494">instance</text></g><!--link RegisterSkillUI to RegisterSkillController--><g id="link_RegisterSkillUI_RegisterSkillController"><path codeLine="68" d="M242.2,117.1211 C251.82,117.1211 258.67,117.1211 258.67,117.1211 C258.67,117.1211 260.25,117.1211 270.68,117.1211 " fill="none" id="RegisterSkillUI-to-RegisterSkillController" style="stroke:#181818;stroke-width:1.0;stroke-dasharray:7.0,7.0;"/><polygon fill="#181818" points="276.68,117.1211,267.68,113.1211,271.68,117.1211,267.68,121.1211,276.68,117.1211" style="stroke:#181818;stroke-width:1.0;"/></g><!--link RegisterSkillController to Repositories--><g id="link_RegisterSkillController_Repositories"><path codeLine="70" d="M315.67,187.7911 C301.27,197.9911 291.7353,204.7519 278.4853,214.1419 " fill="none" id="RegisterSkillController-to-Repositories" style="stroke:#181818;stroke-width:1.0;stroke-dasharray:7.0,7.0;"/><polygon fill="#181818" points="273.59,217.6111,283.2458,215.6708,277.6695,214.7201,278.6202,209.1437,273.59,217.6111" style="stroke:#181818;stroke-width:1.0;"/><text fill="#000000" font-family="sans-serif" font-size="13" lengthAdjust="spacing" textLength="67" x="226.63" y="198.7294">repositories</text></g><!--link Repositories to SkillsRepository--><g id="link_Repositories_SkillsRepository"><path codeLine="72" d="M215,303.0311 C215,312.1611 215,316.1611 215,326.3511 " fill="none" id="Repositories-to-SkillsRepository" style="stroke:#181818;stroke-width:1.0;"/><polygon fill="#181818" points="215,332.3511,219,323.3511,215,327.3511,211,323.3511,215,332.3511" style="stroke:#181818;stroke-width:1.0;"/><text fill="#000000" font-family="sans-serif" font-size="13" lengthAdjust="spacing" textLength="7" x="207.4674" y="324.8459">1</text></g><!--link RegisterSkillController to SkillsRepository--><g id="link_RegisterSkillController_SkillsRepository"><path codeLine="74" d="M276.78,179.6511 C265.9,184.5311 259,187.6211 259,187.6211 C259,187.6211 6,217.6211 6,217.6211 C6,217.6211 6,302.6211 6,302.6211 C6,302.6211 41.4956,322.6606 86.9856,348.3506 " fill="none" id="RegisterSkillController-to-SkillsRepository" style="stroke:#181818;stroke-width:1.0;stroke-dasharray:7.0,7.0;"/><polygon fill="#181818" points="92.21,351.3011,86.3403,343.3925,87.8563,348.8424,82.4064,350.3584,92.21,351.3011" style="stroke:#181818;stroke-width:1.0;"/><text fill="#000000" font-family="sans-serif" font-size="13" lengthAdjust="spacing" textLength="92" x="7" y="265.6494">skillsRepository</text></g><!--link ApplicationSession to UserSession--><g id="link_ApplicationSession_UserSession"><path codeLine="76" d="M565.69,464.3511 C578.08,512.7411 596.7621,585.6885 608.0921,629.9485 " fill="none" id="ApplicationSession-to-UserSession" style="stroke:#181818;stroke-width:1.0;"/><polygon fill="#181818" points="609.58,635.7611,611.2231,626.0503,608.34,630.9173,603.473,628.0342,609.58,635.7611" style="stroke:#181818;stroke-width:1.0;"/><text fill="#000000" font-family="sans-serif" font-size="13" lengthAdjust="spacing" textLength="72" x="589" y="555.6494">userSession</text><text fill="#000000" font-family="sans-serif" font-size="13" lengthAdjust="spacing" textLength="7" x="600.3078" y="624.7784">1</text></g><!--link RegisterSkillController to ApplicationSession--><g id="link_RegisterSkillController_ApplicationSession"><path codeLine="77" d="M446.53,187.9011 C474.01,246.8711 509.9443,323.9733 532.9243,373.2533 " fill="none" id="RegisterSkillController-to-ApplicationSession" style="stroke:#181818;stroke-width:1.0;stroke-dasharray:7.0,7.0;"/><polygon fill="#181818" points="535.46,378.6911,535.2816,368.8439,533.3469,374.1596,528.0312,372.2248,535.46,378.6911" style="stroke:#181818;stroke-width:1.0;"/></g><!--link RegisterSkillController to UserSession--><g id="link_RegisterSkillController_UserSession"><path codeLine="78" d="M515.62,187.7611 C607.02,250.3911 727,332.6211 727,332.6211 C727,332.6211 727,510.6211 727,510.6211 C727,510.6211 675.9173,584.6625 643.9873,630.9425 " fill="none" id="RegisterSkillController-to-UserSession" style="stroke:#181818;stroke-width:1.0;stroke-dasharray:7.0,7.0;"/><polygon fill="#181818" points="640.58,635.8811,648.9834,630.7447,643.4194,631.7656,642.3986,626.2016,640.58,635.8811" style="stroke:#181818;stroke-width:1.0;"/></g><!--link RegisterSkillController to Skill--><g id="link_RegisterSkillController_Skill"><path codeLine="79" d="M405.68,187.8711 C399.45,240.1211 392,302.6211 392,302.6211 C392,302.6211 355,510.6211 355,510.6211 C355,510.6211 346.5522,543.9945 336.5922,583.3445 " fill="none" id="RegisterSkillController-to-Skill" style="stroke:#181818;stroke-width:1.0;"/><polygon fill="#181818" points="335.12,589.1611,341.2061,581.4177,336.3469,584.314,333.4507,579.4547,335.12,589.1611" style="stroke:#181818;stroke-width:1.0;"/><text fill="#000000" font-family="sans-serif" font-size="13" lengthAdjust="spacing" textLength="28" x="388" y="427.1494">uses</text></g><!--link SkillsRepository to Skill--><g id="link_SkillsRepository_Skill"><path codeLine="80" d="M250.82,510.7411 C261.24,536.3811 270.3,558.673 280.49,583.733 " fill="none" id="SkillsRepository-to-Skill" style="stroke:#181818;stroke-width:1.0;"/><polygon fill="#181818" points="282.75,589.2911,283.0653,579.4473,280.8666,584.6594,275.6545,582.4607,282.75,589.2911" style="stroke:#181818;stroke-width:1.0;"/><text fill="#000000" font-family="sans-serif" font-size="13" lengthAdjust="spacing" textLength="53" x="269" y="555.6494">manages</text></g><!--SRC=[ZLNBRjim4BppAnQvE46RmBaQXO70yS50qKC4zyvA6tbXYXIuT5ktwBztgKTCIx9XdwITsU7iaA9dl2TRQwyhg9nr-Swx2Y7u0weJKkjyhqlCmj4WUCo3jgL92RpJXVj5jeHtRJX535aCnngXTkOONzHi0dG-E1KeYFmscy-VOMKqCxoIBeMd4hqy0YyXUFfn2BZ9dSte3y9SgPd1zm31WQTo5w2WQ9ISLQhfWPUwDfJhMCgGEI9_5SZl4t2GSWubXesLPvlZ_KC7IMrry1vjw9e4-TTBRXdzK4iQOdbTQJ8jjoDdUp86MjeZa0r0HVUIoJYINO6SUweRqusOQ3LTcwBtqrTUJzGUuWbeBDoHYRzhGyKtNM5FilBye8Q6-GrhnnISF_RUlnA7Bmsu16uuhUQGtnlJHN4Vn-LsbCzmqTMXBdJ06yaUA_VpZDm1-5iCycLWIZ6T-sC2GlxOhxIO7exJWO756UbqIjwmb7Nbf4GpAsU3TyQWxwL7CVEWqDBwdPy8sASBt9XUmrXVIYhorrVIcfvjkv6P13eBy75v7kX2ZduRcHf_aP4zKKrwr735f-MbW0VS9FcdaIUVxjneWBldkz7NS4LTv4URkXXlw-JytMh9pIAjX-IUkRRgn1LtZRwzGJOQQc-knWQhqMGfez9M_YSamVy0]--></g></svg>