<?xml version="1.0" encoding="us-ascii" standalone="no"?><svg xmlns="http://www.w3.org/2000/svg" xmlns:xlink="http://www.w3.org/1999/xlink" contentStyleType="text/css" height="527px" preserveAspectRatio="none" style="width:569px;height:527px;background:#FFFFFF;" version="1.1" viewBox="0 0 569 527" width="569px" zoomAndPan="magnify"><defs/><g><rect fill="#FFFFFF" height="341.9102" style="stroke:#181818;stroke-width:1.0;" width="10" x="33" y="93.6211"/><rect fill="#FFFFFF" height="62.582" style="stroke:#181818;stroke-width:1.0;" width="10" x="347" y="116.9121"/><rect fill="#FFFFFF" height="215.7461" style="stroke:#181818;stroke-width:1.0;" width="10" x="347" y="210.7852"/><rect fill="none" height="126.1641" style="stroke:#000000;stroke-width:1.5;" width="486" x="10" y="270.0762"/><line style="stroke:#181818;stroke-width:0.5;stroke-dasharray:5.0,5.0;" x1="38" x2="38" y1="83.6211" y2="444.5313"/><line style="stroke:#181818;stroke-width:0.5;stroke-dasharray:5.0,5.0;" x1="352" x2="352" y1="83.6211" y2="444.5313"/><line style="stroke:#181818;stroke-width:0.5;stroke-dasharray:5.0,5.0;" x1="505" x2="505" y1="83.6211" y2="444.5313"/><text fill="#000000" font-family="sans-serif" font-size="14" lengthAdjust="spacing" textLength="30" x="20" y="80.1074">HRM</text><ellipse cx="38" cy="13.5" fill="#E2E2F0" rx="8" ry="8" style="stroke:#181818;stroke-width:0.5;"/><path d="M38,21.5 L38,48.5 M25,29.5 L51,29.5 M38,48.5 L25,63.5 M38,48.5 L51,63.5 " fill="none" style="stroke:#181818;stroke-width:0.5;"/><text fill="#000000" font-family="sans-serif" font-size="14" lengthAdjust="spacing" textLength="30" x="20" y="458.6387">HRM</text><ellipse cx="38" cy="470.6523" fill="#E2E2F0" rx="8" ry="8" style="stroke:#181818;stroke-width:0.5;"/><path d="M38,478.6523 L38,505.6523 M25,486.6523 L51,486.6523 M38,505.6523 L25,520.6523 M38,505.6523 L51,520.6523 " fill="none" style="stroke:#181818;stroke-width:0.5;"/><rect fill="#E2E2F0" height="32.6211" rx="2.5" ry="2.5" style="stroke:#181818;stroke-width:0.5;" width="66" x="319" y="50"/><text fill="#000000" font-family="sans-serif" font-size="14" lengthAdjust="spacing" textLength="52" x="326" y="72.1074">:TeamUI</text><rect fill="#E2E2F0" height="32.6211" rx="2.5" ry="2.5" style="stroke:#181818;stroke-width:0.5;" width="66" x="319" y="443.5313"/><text fill="#000000" font-family="sans-serif" font-size="14" lengthAdjust="spacing" textLength="52" x="326" y="465.6387">:TeamUI</text><rect fill="#E2E2F0" height="32.6211" rx="2.5" ry="2.5" style="stroke:#181818;stroke-width:0.5;" width="116" x="447" y="50"/><text fill="#000000" font-family="sans-serif" font-size="14" lengthAdjust="spacing" textLength="102" x="454" y="72.1074">:TeamController</text><rect fill="#E2E2F0" height="32.6211" rx="2.5" ry="2.5" style="stroke:#181818;stroke-width:0.5;" width="116" x="447" y="443.5313"/><text fill="#000000" font-family="sans-serif" font-size="14" lengthAdjust="spacing" textLength="102" x="454" y="465.6387">:TeamController</text><rect fill="#FFFFFF" height="341.9102" style="stroke:#181818;stroke-width:1.0;" width="10" x="33" y="93.6211"/><rect fill="#FFFFFF" height="62.582" style="stroke:#181818;stroke-width:1.0;" width="10" x="347" y="116.9121"/><rect fill="#FFFFFF" height="215.7461" style="stroke:#181818;stroke-width:1.0;" width="10" x="347" y="210.7852"/><polygon fill="#181818" points="335,112.9121,345,116.9121,335,120.9121,339,116.9121" style="stroke:#181818;stroke-width:1.0;"/><line style="stroke:#181818;stroke-width:1.0;" x1="43" x2="341" y1="116.9121" y2="116.9121"/><text fill="#000000" font-family="sans-serif" font-size="13" font-weight="bold" lengthAdjust="spacing" textLength="7" x="50" y="111.6494">1</text><text fill="#000000" font-family="sans-serif" font-size="13" lengthAdjust="spacing" textLength="107" x="61" y="111.6494">generation request</text><polygon fill="#181818" points="493,144.2031,503,148.2031,493,152.2031,497,148.2031" style="stroke:#181818;stroke-width:1.0;"/><line style="stroke:#181818;stroke-width:1.0;" x1="357" x2="499" y1="148.2031" y2="148.2031"/><text fill="#000000" font-family="sans-serif" font-size="13" font-weight="bold" lengthAdjust="spacing" textLength="7" x="364" y="142.9404">2</text><text fill="#000000" font-family="sans-serif" font-size="13" lengthAdjust="spacing" textLength="36" x="375" y="142.9404">create</text><polygon fill="#181818" points="54,175.4941,44,179.4941,54,183.4941,50,179.4941" style="stroke:#181818;stroke-width:1.0;"/><line style="stroke:#181818;stroke-width:1.0;stroke-dasharray:2.0,2.0;" x1="48" x2="351" y1="179.4941" y2="179.4941"/><text fill="#000000" font-family="sans-serif" font-size="13" font-weight="bold" lengthAdjust="spacing" textLength="7" x="60" y="174.2314">3</text><text fill="#000000" font-family="sans-serif" font-size="13" lengthAdjust="spacing" textLength="149" x="71" y="174.2314">requests team's max size</text><polygon fill="#181818" points="335,206.7852,345,210.7852,335,214.7852,339,210.7852" style="stroke:#181818;stroke-width:1.0;"/><line style="stroke:#181818;stroke-width:1.0;" x1="43" x2="341" y1="210.7852" y2="210.7852"/><text fill="#000000" font-family="sans-serif" font-size="13" font-weight="bold" lengthAdjust="spacing" textLength="7" x="50" y="205.5225">4</text><text fill="#000000" font-family="sans-serif" font-size="13" lengthAdjust="spacing" textLength="216" x="61" y="205.5225">types requested data(max team size)</text><line style="stroke:#181818;stroke-width:1.0;stroke-dasharray:2.0,2.0;" x1="357" x2="399" y1="242.0762" y2="242.0762"/><line style="stroke:#181818;stroke-width:1.0;stroke-dasharray:2.0,2.0;" x1="399" x2="399" y1="242.0762" y2="255.0762"/><line style="stroke:#181818;stroke-width:1.0;stroke-dasharray:2.0,2.0;" x1="358" x2="399" y1="255.0762" y2="255.0762"/><polygon fill="#181818" points="368,251.0762,358,255.0762,368,259.0762,364,255.0762" style="stroke:#181818;stroke-width:1.0;"/><text fill="#000000" font-family="sans-serif" font-size="13" font-weight="bold" lengthAdjust="spacing" textLength="7" x="364" y="236.8135">5</text><text fill="#000000" font-family="sans-serif" font-size="13" lengthAdjust="spacing" textLength="118" x="375" y="236.8135">KeepData(max-size)</text><path d="M10,270.0762 L225,270.0762 L225,279.3672 L215,289.3672 L10,289.3672 L10,270.0762 " fill="#EEEEEE" style="stroke:#000000;stroke-width:1.5;"/><rect fill="none" height="126.1641" style="stroke:#000000;stroke-width:1.5;" width="486" x="10" y="270.0762"/><text fill="#000000" font-family="sans-serif" font-size="13" font-weight="bold" lengthAdjust="spacing" textLength="170" x="25" y="285.1045">loop until all skills inserted</text><polygon fill="#181818" points="54,308.6582,44,312.6582,54,316.6582,50,312.6582" style="stroke:#181818;stroke-width:1.0;"/><line style="stroke:#181818;stroke-width:1.0;stroke-dasharray:2.0,2.0;" x1="48" x2="346" y1="312.6582" y2="312.6582"/><text fill="#000000" font-family="sans-serif" font-size="13" font-weight="bold" lengthAdjust="spacing" textLength="7" x="60" y="307.3955">6</text><text fill="#000000" font-family="sans-serif" font-size="13" lengthAdjust="spacing" textLength="116" x="71" y="307.3955">request skill needed</text><polygon fill="#181818" points="335,339.9492,345,343.9492,335,347.9492,339,343.9492" style="stroke:#181818;stroke-width:1.0;"/><line style="stroke:#181818;stroke-width:1.0;" x1="43" x2="341" y1="343.9492" y2="343.9492"/><text fill="#000000" font-family="sans-serif" font-size="13" font-weight="bold" lengthAdjust="spacing" textLength="7" x="50" y="338.6865">7</text><text fill="#000000" font-family="sans-serif" font-size="13" lengthAdjust="spacing" textLength="153" x="61" y="338.6865">types requested data(skill)</text><line style="stroke:#181818;stroke-width:1.0;stroke-dasharray:2.0,2.0;" x1="357" x2="399" y1="375.2402" y2="375.2402"/><line style="stroke:#181818;stroke-width:1.0;stroke-dasharray:2.0,2.0;" x1="399" x2="399" y1="375.2402" y2="388.2402"/><line style="stroke:#181818;stroke-width:1.0;stroke-dasharray:2.0,2.0;" x1="358" x2="399" y1="388.2402" y2="388.2402"/><polygon fill="#181818" points="368,384.2402,358,388.2402,368,392.2402,364,388.2402" style="stroke:#181818;stroke-width:1.0;"/><text fill="#000000" font-family="sans-serif" font-size="13" font-weight="bold" lengthAdjust="spacing" textLength="7" x="364" y="369.9775">8</text><text fill="#000000" font-family="sans-serif" font-size="13" lengthAdjust="spacing" textLength="109" x="375" y="369.9775">KeepData(skillList)</text><polygon fill="#181818" points="54,422.5313,44,426.5313,54,430.5313,50,426.5313" style="stroke:#181818;stroke-width:1.0;"/><line style="stroke:#181818;stroke-width:1.0;stroke-dasharray:2.0,2.0;" x1="48" x2="351" y1="426.5313" y2="426.5313"/><text fill="#000000" font-family="sans-serif" font-size="13" font-weight="bold" lengthAdjust="spacing" textLength="7" x="60" y="421.2686">9</text><text fill="#000000" font-family="sans-serif" font-size="13" lengthAdjust="spacing" textLength="269" x="71" y="421.2686">shows inserted data and requests confirmation</text><!--SRC=[TP6xKiCm44LxVyLEcf0Yk7T10mLCe67W0nPviJNenMh5w-kHP18d8V6C6-qvTw_bvIWIOjUsmQ2JPCsbyhQDz9x8ALht6WT6spIOnBjaNuWRLE8PRXyV02ECR9k0B5hfa0DWqJqHskUxHHbAqYU6rzu9UsE89qYLHFs1GZKjlx2-AYvqC90ZHj7U0PTEKPgPBl6Gdu8MGsL1CUNHV9pFIs2trVE-N64PmU8NHFr3JKy7WOVxvJjGtBhKGu-25qKjATLVdUcpYzWGXPi_RJqP1HhOfm36-m39YJQ0na1yqyP4q2uIvtKLFFif4msEgDz3z-gVwr-zrR_mexgLkjTH9f9SFtK-SRTnz9zpwxe4CFExErVUlMgszKSUNVWl]--></g></svg>