<?xml version="1.0" encoding="us-ascii" standalone="no"?><svg xmlns="http://www.w3.org/2000/svg" xmlns:xlink="http://www.w3.org/1999/xlink" contentStyleType="text/css" height="926px" preserveAspectRatio="none" style="width:1335px;height:926px;background:#FFFFFF;" version="1.1" viewBox="0 0 1335 926" width="1335px" zoomAndPan="magnify"><defs/><g><text fill="#000000" font-family="sans-serif" font-size="14" font-weight="bold" lengthAdjust="spacing" textLength="229" x="549" y="44.4082">US005 - Generate Team Proposal</text><rect fill="#FFFFFF" height="677.8594" style="stroke:#181818;stroke-width:1.0;" width="10" x="33" y="147.543"/><rect fill="#FFFFFF" height="62.582" style="stroke:#181818;stroke-width:1.0;" width="10" x="347" y="170.834"/><rect fill="#FFFFFF" height="215.7461" style="stroke:#181818;stroke-width:1.0;" width="10" x="347" y="264.707"/><rect fill="#FFFFFF" height="313.6582" style="stroke:#181818;stroke-width:1.0;" width="10" x="347" y="511.7441"/><rect fill="#FFFFFF" height="226.0762" style="stroke:#181818;stroke-width:1.0;" width="10" x="635" y="568.0352"/><rect fill="#FFFFFF" height="163.4941" style="stroke:#181818;stroke-width:1.0;" width="10" x="923" y="599.3262"/><rect fill="none" height="126.1641" style="stroke:#000000;stroke-width:1.5;" width="486" x="10" y="323.998"/><line style="stroke:#181818;stroke-width:0.5;stroke-dasharray:5.0,5.0;" x1="38" x2="38" y1="137.543" y2="843.4023"/><line style="stroke:#181818;stroke-width:0.5;stroke-dasharray:5.0,5.0;" x1="352" x2="352" y1="137.543" y2="843.4023"/><line style="stroke:#181818;stroke-width:0.5;stroke-dasharray:5.0,5.0;" x1="640" x2="640" y1="137.543" y2="843.4023"/><line style="stroke:#181818;stroke-width:0.5;stroke-dasharray:5.0,5.0;" x1="928" x2="928" y1="137.543" y2="843.4023"/><line style="stroke:#181818;stroke-width:0.5;stroke-dasharray:5.0,5.0;" x1="1269" x2="1269" y1="639.1367" y2="843.4023"/><text fill="#000000" font-family="sans-serif" font-size="14" lengthAdjust="spacing" textLength="30" x="20" y="134.0293">HRM</text><ellipse cx="38" cy="67.4219" fill="#E2E2F0" rx="8" ry="8" style="stroke:#181818;stroke-width:0.5;"/><path d="M38,75.4219 L38,102.4219 M25,83.4219 L51,83.4219 M38,102.4219 L25,117.4219 M38,102.4219 L51,117.4219 " fill="none" style="stroke:#181818;stroke-width:0.5;"/><text fill="#000000" font-family="sans-serif" font-size="14" lengthAdjust="spacing" textLength="30" x="20" y="857.5098">HRM</text><ellipse cx="38" cy="869.5234" fill="#E2E2F0" rx="8" ry="8" style="stroke:#181818;stroke-width:0.5;"/><path d="M38,877.5234 L38,904.5234 M25,885.5234 L51,885.5234 M38,904.5234 L25,919.5234 M38,904.5234 L51,919.5234 " fill="none" style="stroke:#181818;stroke-width:0.5;"/><rect fill="#E2E2F0" height="32.6211" rx="2.5" ry="2.5" style="stroke:#181818;stroke-width:0.5;" width="66" x="319" y="103.9219"/><text fill="#000000" font-family="sans-serif" font-size="14" lengthAdjust="spacing" textLength="52" x="326" y="126.0293">:TeamUI</text><rect fill="#E2E2F0" height="32.6211" rx="2.5" ry="2.5" style="stroke:#181818;stroke-width:0.5;" width="66" x="319" y="842.4023"/><text fill="#000000" font-family="sans-serif" font-size="14" lengthAdjust="spacing" textLength="52" x="326" y="864.5098">:TeamUI</text><rect fill="#E2E2F0" height="32.6211" rx="2.5" ry="2.5" style="stroke:#181818;stroke-width:0.5;" width="116" x="582" y="103.9219"/><text fill="#000000" font-family="sans-serif" font-size="14" lengthAdjust="spacing" textLength="102" x="589" y="126.0293">:TeamController</text><rect fill="#E2E2F0" height="32.6211" rx="2.5" ry="2.5" style="stroke:#181818;stroke-width:0.5;" width="116" x="582" y="842.4023"/><text fill="#000000" font-family="sans-serif" font-size="14" lengthAdjust="spacing" textLength="102" x="589" y="864.5098">:TeamController</text><rect fill="#E2E2F0" height="32.6211" rx="2.5" ry="2.5" style="stroke:#181818;stroke-width:0.5;" width="98" x="879" y="103.9219"/><text fill="#000000" font-family="sans-serif" font-size="14" lengthAdjust="spacing" textLength="84" x="886" y="126.0293">:Organization</text><rect fill="#E2E2F0" height="32.6211" rx="2.5" ry="2.5" style="stroke:#181818;stroke-width:0.5;" width="98" x="879" y="842.4023"/><text fill="#000000" font-family="sans-serif" font-size="14" lengthAdjust="spacing" textLength="84" x="886" y="864.5098">:Organization</text><rect fill="#E2E2F0" height="32.6211" rx="2.5" ry="2.5" style="stroke:#181818;stroke-width:0.5;" width="107" x="1216" y="842.4023"/><text fill="#000000" font-family="sans-serif" font-size="14" lengthAdjust="spacing" textLength="93" x="1223" y="864.5098">:TeamRequest</text><rect fill="#FFFFFF" height="677.8594" style="stroke:#181818;stroke-width:1.0;" width="10" x="33" y="147.543"/><rect fill="#FFFFFF" height="62.582" style="stroke:#181818;stroke-width:1.0;" width="10" x="347" y="170.834"/><rect fill="#FFFFFF" height="215.7461" style="stroke:#181818;stroke-width:1.0;" width="10" x="347" y="264.707"/><rect fill="#FFFFFF" height="313.6582" style="stroke:#181818;stroke-width:1.0;" width="10" x="347" y="511.7441"/><rect fill="#FFFFFF" height="226.0762" style="stroke:#181818;stroke-width:1.0;" width="10" x="635" y="568.0352"/><rect fill="#FFFFFF" height="163.4941" style="stroke:#181818;stroke-width:1.0;" width="10" x="923" y="599.3262"/><polygon fill="#181818" points="335,166.834,345,170.834,335,174.834,339,170.834" style="stroke:#181818;stroke-width:1.0;"/><line style="stroke:#181818;stroke-width:1.0;" x1="43" x2="341" y1="170.834" y2="170.834"/><text fill="#000000" font-family="sans-serif" font-size="13" font-weight="bold" lengthAdjust="spacing" textLength="7" x="136" y="165.5713">1</text><text fill="#000000" font-family="sans-serif" font-size="13" lengthAdjust="spacing" textLength="107" x="147" y="165.5713">generation request</text><polygon fill="#181818" points="628,198.125,638,202.125,628,206.125,632,202.125" style="stroke:#181818;stroke-width:1.0;"/><line style="stroke:#181818;stroke-width:1.0;" x1="357" x2="634" y1="202.125" y2="202.125"/><text fill="#000000" font-family="sans-serif" font-size="13" font-weight="bold" lengthAdjust="spacing" textLength="7" x="475" y="196.8623">2</text><text fill="#000000" font-family="sans-serif" font-size="13" lengthAdjust="spacing" textLength="36" x="486" y="196.8623">create</text><polygon fill="#181818" points="54,229.416,44,233.416,54,237.416,50,233.416" style="stroke:#181818;stroke-width:1.0;"/><line style="stroke:#181818;stroke-width:1.0;stroke-dasharray:2.0,2.0;" x1="48" x2="351" y1="233.416" y2="233.416"/><text fill="#000000" font-family="sans-serif" font-size="13" font-weight="bold" lengthAdjust="spacing" textLength="7" x="117.5" y="228.1533">3</text><text fill="#000000" font-family="sans-serif" font-size="13" lengthAdjust="spacing" textLength="149" x="128.5" y="228.1533">requests team's max size</text><polygon fill="#181818" points="335,260.707,345,264.707,335,268.707,339,264.707" style="stroke:#181818;stroke-width:1.0;"/><line style="stroke:#181818;stroke-width:1.0;" x1="43" x2="341" y1="264.707" y2="264.707"/><text fill="#000000" font-family="sans-serif" font-size="13" font-weight="bold" lengthAdjust="spacing" textLength="7" x="81.5" y="259.4443">4</text><text fill="#000000" font-family="sans-serif" font-size="13" lengthAdjust="spacing" textLength="216" x="92.5" y="259.4443">types requested data(max team size)</text><line style="stroke:#181818;stroke-width:1.0;stroke-dasharray:2.0,2.0;" x1="357" x2="399" y1="295.998" y2="295.998"/><line style="stroke:#181818;stroke-width:1.0;stroke-dasharray:2.0,2.0;" x1="399" x2="399" y1="295.998" y2="308.998"/><line style="stroke:#181818;stroke-width:1.0;stroke-dasharray:2.0,2.0;" x1="358" x2="399" y1="308.998" y2="308.998"/><polygon fill="#181818" points="368,304.998,358,308.998,368,312.998,364,308.998" style="stroke:#181818;stroke-width:1.0;"/><text fill="#000000" font-family="sans-serif" font-size="13" font-weight="bold" lengthAdjust="spacing" textLength="7" x="364" y="290.7354">5</text><text fill="#000000" font-family="sans-serif" font-size="13" lengthAdjust="spacing" textLength="118" x="375" y="290.7354">KeepData(max-size)</text><path d="M10,323.998 L225,323.998 L225,333.2891 L215,343.2891 L10,343.2891 L10,323.998 " fill="#EEEEEE" style="stroke:#000000;stroke-width:1.5;"/><rect fill="none" height="126.1641" style="stroke:#000000;stroke-width:1.5;" width="486" x="10" y="323.998"/><text fill="#000000" font-family="sans-serif" font-size="13" font-weight="bold" lengthAdjust="spacing" textLength="170" x="25" y="339.0264">loop until all skills inserted</text><polygon fill="#181818" points="54,362.5801,44,366.5801,54,370.5801,50,366.5801" style="stroke:#181818;stroke-width:1.0;"/><line style="stroke:#181818;stroke-width:1.0;stroke-dasharray:2.0,2.0;" x1="48" x2="346" y1="366.5801" y2="366.5801"/><text fill="#000000" font-family="sans-serif" font-size="13" font-weight="bold" lengthAdjust="spacing" textLength="7" x="131.5" y="361.3174">6</text><text fill="#000000" font-family="sans-serif" font-size="13" lengthAdjust="spacing" textLength="116" x="142.5" y="361.3174">request skill needed</text><polygon fill="#181818" points="335,393.8711,345,397.8711,335,401.8711,339,397.8711" style="stroke:#181818;stroke-width:1.0;"/><line style="stroke:#181818;stroke-width:1.0;" x1="43" x2="341" y1="397.8711" y2="397.8711"/><text fill="#000000" font-family="sans-serif" font-size="13" font-weight="bold" lengthAdjust="spacing" textLength="7" x="113" y="392.6084">7</text><text fill="#000000" font-family="sans-serif" font-size="13" lengthAdjust="spacing" textLength="153" x="124" y="392.6084">types requested data(skill)</text><line style="stroke:#181818;stroke-width:1.0;stroke-dasharray:2.0,2.0;" x1="357" x2="399" y1="429.1621" y2="429.1621"/><line style="stroke:#181818;stroke-width:1.0;stroke-dasharray:2.0,2.0;" x1="399" x2="399" y1="429.1621" y2="442.1621"/><line style="stroke:#181818;stroke-width:1.0;stroke-dasharray:2.0,2.0;" x1="358" x2="399" y1="442.1621" y2="442.1621"/><polygon fill="#181818" points="368,438.1621,358,442.1621,368,446.1621,364,442.1621" style="stroke:#181818;stroke-width:1.0;"/><text fill="#000000" font-family="sans-serif" font-size="13" font-weight="bold" lengthAdjust="spacing" textLength="7" x="364" y="423.8994">8</text><text fill="#000000" font-family="sans-serif" font-size="13" lengthAdjust="spacing" textLength="109" x="375" y="423.8994">KeepData(skillList)</text><polygon fill="#181818" points="54,476.4531,44,480.4531,54,484.4531,50,480.4531" style="stroke:#181818;stroke-width:1.0;"/><line style="stroke:#181818;stroke-width:1.0;stroke-dasharray:2.0,2.0;" x1="48" x2="351" y1="480.4531" y2="480.4531"/><text fill="#000000" font-family="sans-serif" font-size="13" font-weight="bold" lengthAdjust="spacing" textLength="7" x="57.5" y="475.1904">9</text><text fill="#000000" font-family="sans-serif" font-size="13" lengthAdjust="spacing" textLength="269" x="68.5" y="475.1904">shows inserted data and requests confirmation</text><polygon fill="#181818" points="335,507.7441,345,511.7441,335,515.7441,339,511.7441" style="stroke:#181818;stroke-width:1.0;"/><line style="stroke:#181818;stroke-width:1.0;" x1="43" x2="341" y1="511.7441" y2="511.7441"/><text fill="#000000" font-family="sans-serif" font-size="13" font-weight="bold" lengthAdjust="spacing" textLength="14" x="109.5" y="506.4814">10</text><text fill="#000000" font-family="sans-serif" font-size="13" lengthAdjust="spacing" textLength="153" x="127.5" y="506.4814">confirms and submits data</text><polygon fill="#181818" points="623,564.0352,633,568.0352,623,572.0352,627,568.0352" style="stroke:#181818;stroke-width:1.0;"/><line style="stroke:#181818;stroke-width:1.0;" x1="357" x2="629" y1="568.0352" y2="568.0352"/><text fill="#000000" font-family="sans-serif" font-size="13" font-weight="bold" lengthAdjust="spacing" textLength="14" x="366.5" y="562.7725">11</text><text fill="#000000" font-family="sans-serif" font-size="13" lengthAdjust="spacing" textLength="241" x="384.5" y="562.7725">generateTeamRequest(maxSize, skillList)</text><polygon fill="#181818" points="911,595.3262,921,599.3262,911,603.3262,915,599.3262" style="stroke:#181818;stroke-width:1.0;"/><line style="stroke:#181818;stroke-width:1.0;" x1="645" x2="917" y1="599.3262" y2="599.3262"/><text fill="#000000" font-family="sans-serif" font-size="13" font-weight="bold" lengthAdjust="spacing" textLength="14" x="654.5" y="594.0635">12</text><text fill="#000000" font-family="sans-serif" font-size="13" lengthAdjust="spacing" textLength="241" x="672.5" y="594.0635">generateTeamRequest(maxSize, skillList)</text><polygon fill="#181818" points="1204,626.6172,1214,630.6172,1204,634.6172,1208,630.6172" style="stroke:#181818;stroke-width:1.0;"/><line style="stroke:#181818;stroke-width:1.0;" x1="933" x2="1210" y1="630.6172" y2="630.6172"/><text fill="#000000" font-family="sans-serif" font-size="13" font-weight="bold" lengthAdjust="spacing" textLength="14" x="945" y="625.3545">13</text><text fill="#000000" font-family="sans-serif" font-size="13" lengthAdjust="spacing" textLength="241" x="963" y="625.3545">generateTeamRequest(maxSize, skillList)</text><rect fill="#E2E2F0" height="32.6211" rx="2.5" ry="2.5" style="stroke:#181818;stroke-width:0.5;" width="107" x="1216" y="607.3262"/><text fill="#000000" font-family="sans-serif" font-size="14" lengthAdjust="spacing" textLength="93" x="1223" y="629.4336">:TeamRequest</text><line style="stroke:#181818;stroke-width:1.0;stroke-dasharray:2.0,2.0;" x1="933" x2="975" y1="674.2383" y2="674.2383"/><line style="stroke:#181818;stroke-width:1.0;stroke-dasharray:2.0,2.0;" x1="975" x2="975" y1="674.2383" y2="687.2383"/><line style="stroke:#181818;stroke-width:1.0;stroke-dasharray:2.0,2.0;" x1="934" x2="975" y1="687.2383" y2="687.2383"/><polygon fill="#181818" points="944,683.2383,934,687.2383,944,691.2383,940,687.2383" style="stroke:#181818;stroke-width:1.0;"/><text fill="#000000" font-family="sans-serif" font-size="13" font-weight="bold" lengthAdjust="spacing" textLength="14" x="940" y="668.9756">14</text><text fill="#000000" font-family="sans-serif" font-size="13" lengthAdjust="spacing" textLength="186" x="958" y="668.9756">addTeamRequest(teamRequest)</text><line style="stroke:#181818;stroke-width:1.0;stroke-dasharray:2.0,2.0;" x1="933" x2="975" y1="718.5293" y2="718.5293"/><line style="stroke:#181818;stroke-width:1.0;stroke-dasharray:2.0,2.0;" x1="975" x2="975" y1="718.5293" y2="731.5293"/><line style="stroke:#181818;stroke-width:1.0;stroke-dasharray:2.0,2.0;" x1="934" x2="975" y1="731.5293" y2="731.5293"/><polygon fill="#181818" points="944,727.5293,934,731.5293,944,735.5293,940,731.5293" style="stroke:#181818;stroke-width:1.0;"/><text fill="#000000" font-family="sans-serif" font-size="13" font-weight="bold" lengthAdjust="spacing" textLength="14" x="940" y="713.2666">15</text><text fill="#000000" font-family="sans-serif" font-size="13" lengthAdjust="spacing" textLength="208" x="958" y="713.2666">validateTeamRequest(teamRequest)</text><polygon fill="#181818" points="656,758.8203,646,762.8203,656,766.8203,652,762.8203" style="stroke:#181818;stroke-width:1.0;"/><line style="stroke:#181818;stroke-width:1.0;stroke-dasharray:2.0,2.0;" x1="650" x2="927" y1="762.8203" y2="762.8203"/><text fill="#000000" font-family="sans-serif" font-size="13" font-weight="bold" lengthAdjust="spacing" textLength="14" x="739" y="757.5576">16</text><text fill="#000000" font-family="sans-serif" font-size="13" lengthAdjust="spacing" textLength="77" x="757" y="757.5576">teamRequest</text><polygon fill="#181818" points="368,790.1113,358,794.1113,368,798.1113,364,794.1113" style="stroke:#181818;stroke-width:1.0;"/><line style="stroke:#181818;stroke-width:1.0;stroke-dasharray:2.0,2.0;" x1="362" x2="639" y1="794.1113" y2="794.1113"/><text fill="#000000" font-family="sans-serif" font-size="13" font-weight="bold" lengthAdjust="spacing" textLength="14" x="451" y="788.8486">17</text><text fill="#000000" font-family="sans-serif" font-size="13" lengthAdjust="spacing" textLength="77" x="469" y="788.8486">teamRequest</text><polygon fill="#181818" points="49,821.4023,39,825.4023,49,829.4023,45,825.4023" style="stroke:#181818;stroke-width:1.0;"/><line style="stroke:#181818;stroke-width:1.0;stroke-dasharray:2.0,2.0;" x1="43" x2="351" y1="825.4023" y2="825.4023"/><text fill="#000000" font-family="sans-serif" font-size="13" font-weight="bold" lengthAdjust="spacing" textLength="14" x="107" y="820.1396">18</text><text fill="#000000" font-family="sans-serif" font-size="13" lengthAdjust="spacing" textLength="158" x="125" y="820.1396">displays operation success</text><text fill="#888888" font-family="sans-serif" font-size="10" lengthAdjust="spacing" textLength="32" x="1295" y="15.791">US005</text><!--SRC=[dLJ1RXCn4BtxAqQzb5Q4zC8b1oG44Y2eG2tzWAazR2oyjh6zXLRvU6Psarrdau1W3z5c_TwRDyzZdwzBYNcrN4Q7ldIjUw53kypqeoElQM4iDWbRfR0hmNVjFIMbreI64jpTNbszLCKMHyCxBE0TUKfO2BuIjl0bXHWoEeMwX0JlRwu1CwnJgoAcOhMDN1FELWA- -t0cYwMpHnRV15zIS8xI0D8ppEVKeBTFM6pmFIAaveZCZRILow2HLFvkFOFOwAxVQyeP6thjRED1ao_SBdkt3zAI-5Ry0ujNOXDMq0pTSb58W_I4baQ07q4AGJDU9-AbwJD_5xtLZisksELvXXP_GRPFf0pj2UwNBu-HyevB1WmMV2PKKUdv5oVyZ18VYUBRBMqnC0JKfD15S254w7on3j0vuBYSos1zfiJbUk39LWOqU29JGIlxf_ptl8i3yPdT7lN9vZ8WoPl1yv5iyphyd5ptHG0PFsQkW_zcKzlluppmlRotmDpJStVVMcQBtc7AcytcOFUtqqBL94hijvpwSvWrD0dgAGejKZpP_wYrfoS70wf7vCHWkhpy3zbHOJI6njJaCht_YVM0pffPtRzI-r0hr0Ygzh1kL_ARpiwCL- -xFZ95ncQ-8H_vPecx8vyxhVc-c8zCzPUflm40]--></g></svg>