<?xml version="1.0" encoding="us-ascii" standalone="no"?><svg xmlns="http://www.w3.org/2000/svg" xmlns:xlink="http://www.w3.org/1999/xlink" contentStyleType="text/css" height="537px" preserveAspectRatio="none" style="width:551px;height:537px;background:#FFFFFF;" version="1.1" viewBox="0 0 551 537" width="551px" zoomAndPan="magnify"><defs/><g><text fill="#000000" font-family="sans-serif" font-size="14" font-weight="bold" lengthAdjust="spacing" textLength="197" x="173" y="40.6357">Generate Team Proposal</text><rect fill="#FFFFFF" height="306.812" style="stroke:#181818;stroke-width:1.0;" width="10" x="19.5" y="141.2344"/><rect fill="#FFFFFF" height="73.453" style="stroke:#181818;stroke-width:1.0;" width="10" x="304.5" y="212.6874"/><rect fill="#FFFFFF" height="58.302" style="stroke:#181818;stroke-width:1.0;" width="10" x="304.5" y="380.7444"/><line style="stroke:#181818;stroke-width:0.5;stroke-dasharray:5.0,5.0;" x1="24" x2="24" y1="131.2344" y2="457.0464"/><line style="stroke:#181818;stroke-width:0.5;stroke-dasharray:5.0,5.0;" x1="309.5" x2="309.5" y1="131.2344" y2="457.0464"/><text fill="#000000" font-family="sans-serif" font-size="14" lengthAdjust="spacing" textLength="33" x="5" y="127.9326">HRM</text><ellipse cx="24.5" cy="63.4375" fill="#E2E2F0" rx="8" ry="8" style="stroke:#181818;stroke-width:0.5;"/><path d="M24.5,71.4375 L24.5,98.4375 M11.5,79.4375 L37.5,79.4375 M24.5,98.4375 L11.5,113.4375 M24.5,98.4375 L37.5,113.4375 " fill="none" style="stroke:#181818;stroke-width:0.5;"/><text fill="#000000" font-family="sans-serif" font-size="14" lengthAdjust="spacing" textLength="33" x="5" y="469.0415">HRM</text><ellipse cx="24.5" cy="480.8433" fill="#E2E2F0" rx="8" ry="8" style="stroke:#181818;stroke-width:0.5;"/><path d="M24.5,488.8433 L24.5,515.8433 M11.5,496.8433 L37.5,496.8433 M24.5,515.8433 L11.5,530.8433 M24.5,515.8433 L37.5,530.8433 " fill="none" style="stroke:#181818;stroke-width:0.5;"/><rect fill="#E2E2F0" height="30.2969" rx="2.5" ry="2.5" style="stroke:#181818;stroke-width:0.5;" width="66" x="276.5" y="99.9375"/><text fill="#000000" font-family="sans-serif" font-size="14" lengthAdjust="spacing" textLength="52" x="283.5" y="119.9326">System</text><rect fill="#E2E2F0" height="30.2969" rx="2.5" ry="2.5" style="stroke:#181818;stroke-width:0.5;" width="66" x="276.5" y="456.0464"/><text fill="#000000" font-family="sans-serif" font-size="14" lengthAdjust="spacing" textLength="52" x="283.5" y="476.0415">System</text><rect fill="#FFFFFF" height="306.812" style="stroke:#181818;stroke-width:1.0;" width="10" x="19.5" y="141.2344"/><rect fill="#FFFFFF" height="73.453" style="stroke:#181818;stroke-width:1.0;" width="10" x="304.5" y="212.6874"/><rect fill="#FFFFFF" height="58.302" style="stroke:#181818;stroke-width:1.0;" width="10" x="304.5" y="380.7444"/><path d="M314,146.2344 L314,186.2344 L539,186.2344 L539,156.2344 L529,146.2344 L314,146.2344 " fill="#FEFFDD" style="stroke:#181818;stroke-width:0.5;"/><path d="M529,146.2344 L529,156.2344 L539,156.2344 L529,146.2344 " fill="#FEFFDD" style="stroke:#181818;stroke-width:0.5;"/><text fill="#000000" font-family="sans-serif" font-size="13" lengthAdjust="spacing" textLength="186" x="320" y="163.3158">US003 ensures collaborators</text><text fill="#000000" font-family="sans-serif" font-size="13" lengthAdjust="spacing" textLength="200" x="324" y="178.4668">are inserted into the database.</text><polygon fill="#181818" points="292.5,208.6874,302.5,212.6874,292.5,216.6874,296.5,212.6874" style="stroke:#181818;stroke-width:1.0;"/><line style="stroke:#181818;stroke-width:1.0;" x1="29.5" x2="298.5" y1="212.6874" y2="212.6874"/><text fill="#000000" font-family="sans-serif" font-size="13" font-weight="bold" lengthAdjust="spacing" textLength="9" x="75.5" y="207.6178">1</text><text fill="#000000" font-family="sans-serif" font-size="13" lengthAdjust="spacing" textLength="170" x="88.5" y="207.6178">Team Generation Request</text><polygon fill="#181818" points="40.5,252.9894,30.5,256.9894,40.5,260.9894,36.5,256.9894" style="stroke:#181818;stroke-width:1.0;"/><line style="stroke:#181818;stroke-width:1.0;stroke-dasharray:2.0,2.0;" x1="34.5" x2="303.5" y1="256.9894" y2="256.9894"/><text fill="#000000" font-family="sans-serif" font-size="13" font-weight="bold" lengthAdjust="spacing" textLength="9" x="41.5" y="244.3443">2</text><text fill="#000000" font-family="sans-serif" font-size="13" lengthAdjust="spacing" textLength="147" x="98" y="236.7688">Request for input Data</text><text fill="#000000" font-family="sans-serif" font-size="13" lengthAdjust="spacing" textLength="234" x="58.5" y="251.9198">(Team size &amp; Set of Skills Required)</text><polygon fill="#181818" points="297.5,282.1404,307.5,286.1404,297.5,290.1404,301.5,286.1404" style="stroke:#181818;stroke-width:1.0;"/><line style="stroke:#181818;stroke-width:1.0;" x1="29.5" x2="303.5" y1="286.1404" y2="286.1404"/><text fill="#000000" font-family="sans-serif" font-size="13" font-weight="bold" lengthAdjust="spacing" textLength="9" x="90.5" y="281.0708">3</text><text fill="#000000" font-family="sans-serif" font-size="13" lengthAdjust="spacing" textLength="145" x="103.5" y="281.0708">Sends requested data.</text><path d="M314,299.1404 L314,339.1404 L518,339.1404 L518,309.1404 L508,299.1404 L314,299.1404 " fill="#FEFFDD" style="stroke:#181818;stroke-width:0.5;"/><path d="M508,299.1404 L508,309.1404 L518,309.1404 L508,299.1404 " fill="#FEFFDD" style="stroke:#181818;stroke-width:0.5;"/><text fill="#000000" font-family="sans-serif" font-size="13" lengthAdjust="spacing" textLength="179" x="320" y="316.2218">System checks for flaws on</text><text fill="#000000" font-family="sans-serif" font-size="13" lengthAdjust="spacing" textLength="118" x="320" y="331.3728">the received data.</text><polygon fill="#181818" points="40.5,376.7444,30.5,380.7444,40.5,384.7444,36.5,380.7444" style="stroke:#181818;stroke-width:1.0;"/><line style="stroke:#181818;stroke-width:1.0;stroke-dasharray:2.0,2.0;" x1="34.5" x2="303.5" y1="380.7444" y2="380.7444"/><text fill="#000000" font-family="sans-serif" font-size="13" font-weight="bold" lengthAdjust="spacing" textLength="9" x="85" y="368.0993">4</text><text fill="#000000" font-family="sans-serif" font-size="13" lengthAdjust="spacing" textLength="123" x="112" y="360.5238">Shows all data and</text><text fill="#000000" font-family="sans-serif" font-size="13" lengthAdjust="spacing" textLength="147" x="102" y="375.6748">requests confirmation.</text><polygon fill="#181818" points="292.5,405.8954,302.5,409.8954,292.5,413.8954,296.5,409.8954" style="stroke:#181818;stroke-width:1.0;"/><line style="stroke:#181818;stroke-width:1.0;" x1="29.5" x2="298.5" y1="409.8954" y2="409.8954"/><text fill="#000000" font-family="sans-serif" font-size="13" font-weight="bold" lengthAdjust="spacing" textLength="9" x="112.5" y="404.8258">5</text><text fill="#000000" font-family="sans-serif" font-size="13" lengthAdjust="spacing" textLength="96" x="125.5" y="404.8258">Confirms data.</text><polygon fill="#181818" points="40.5,435.0464,30.5,439.0464,40.5,443.0464,36.5,439.0464" style="stroke:#181818;stroke-width:1.0;"/><line style="stroke:#181818;stroke-width:1.0;stroke-dasharray:2.0,2.0;" x1="34.5" x2="308.5" y1="439.0464" y2="439.0464"/><text fill="#000000" font-family="sans-serif" font-size="13" font-weight="bold" lengthAdjust="spacing" textLength="9" x="72.5" y="433.9768">6</text><text fill="#000000" font-family="sans-serif" font-size="13" lengthAdjust="spacing" textLength="181" x="85.5" y="433.9768">Displays operation success.</text><text fill="#888888" font-family="sans-serif" font-size="10" lengthAdjust="spacing" textLength="31" x="512" y="14.2822">US005</text><!--SRC=[RP8_JmCn3CNtV0fF_1dQ8Y6M3aY8Ih1KGXniB6xErukQImxR1ogV7b_QWWwnHR7ztkyvEMzLUrak5dt4f4CNvpvt2w7tWPAdMHrmozWvXuFcD7GROkTQmfeONgkhgnkdGIF10oLYL88NmWwUEFTPC3hqcXaUdzU00YrthaVMu4DlNb3jHQaRAx8N9xkGh6hJ9_CrYU2MxcBO9l2KrBnDC7oCFgEOIzbE7BQjGcv6bMM1kWPACZ09-1mZRhAHPPQt1CW48GcnKcq7pQ0jGOsA6nIQErE5sUr1gIGvvWevmVE89VgBKAZt0ZERiC7bgGCQosnX1eMLAOFvNXGn2Ly4Pr1HmQrs8KOfGu6flfoOLvHg0Ju86kk8E7SrJSp_otzSgc_9xwIGD14_1Ip0Mnh3CdaA7p-Iam1LcwqLOon5m5GR-n5YN6Pg0dTb6_Ff6YRizuS- -SzX5SG-cjta_hHN6Rotb_wRxXi0]--></g></svg>