<?xml version="1.0" encoding="us-ascii" standalone="no"?><svg xmlns="http://www.w3.org/2000/svg" xmlns:xlink="http://www.w3.org/1999/xlink" contentStyleType="text/css" height="622px" preserveAspectRatio="none" style="width:651px;height:622px;background:#FFFFFF;" version="1.1" viewBox="0 0 651 622" width="651px" zoomAndPan="magnify"><defs><filter height="300%" id="f15a8fwxrwl33r" width="300%" x="-1" y="-1"><feGaussianBlur result="blurOut" stdDeviation="2.0"/><feColorMatrix in="blurOut" result="blurOut2" type="matrix" values="0 0 0 0 0 0 0 0 0 0 0 0 0 0 0 0 0 0 .4 0"/><feOffset dx="4.0" dy="4.0" in="blurOut2" result="blurOut3"/><feBlend in="SourceGraphic" in2="blurOut3" mode="normal"/></filter></defs><g><text fill="#000000" font-family="sans-serif" font-size="14" font-weight="bold" lengthAdjust="spacing" textLength="266" x="188.5" y="44.4082">US025 - Cancel an entry in the Agenda</text><rect fill="#FFFFFF" filter="url(#f15a8fwxrwl33r)" height="370.9102" style="stroke:#181818;stroke-width:1.0;" width="10" x="18.5" y="150.543"/><rect fill="#FFFFFF" filter="url(#f15a8fwxrwl33r)" height="115.873" style="stroke:#181818;stroke-width:1.0;" width="10" x="290.5" y="173.834"/><rect fill="#FFFFFF" filter="url(#f15a8fwxrwl33r)" height="200.4551" style="stroke:#181818;stroke-width:1.0;" width="10" x="290.5" y="320.998"/><line style="stroke:#181818;stroke-width:0.5;stroke-dasharray:5.0,5.0;" x1="23" x2="23" y1="140.543" y2="539.4531"/><line style="stroke:#181818;stroke-width:0.5;stroke-dasharray:5.0,5.0;" x1="295" x2="295" y1="140.543" y2="539.4531"/><text fill="#000000" font-family="sans-serif" font-size="14" lengthAdjust="spacing" textLength="31" x="5" y="137.0293">GSM</text><ellipse cx="23.5" cy="67.4219" fill="#E2E2F0" filter="url(#f15a8fwxrwl33r)" rx="8" ry="8" style="stroke:#181818;stroke-width:0.5;"/><path d="M23.5,75.4219 L23.5,102.4219 M10.5,83.4219 L36.5,83.4219 M23.5,102.4219 L10.5,117.4219 M23.5,102.4219 L36.5,117.4219 " fill="none" filter="url(#f15a8fwxrwl33r)" style="stroke:#181818;stroke-width:0.5;"/><text fill="#000000" font-family="sans-serif" font-size="14" lengthAdjust="spacing" textLength="31" x="5" y="553.5605">GSM</text><ellipse cx="23.5" cy="565.5742" fill="#E2E2F0" filter="url(#f15a8fwxrwl33r)" rx="8" ry="8" style="stroke:#181818;stroke-width:0.5;"/><path d="M23.5,573.5742 L23.5,600.5742 M10.5,581.5742 L36.5,581.5742 M23.5,600.5742 L10.5,615.5742 M23.5,600.5742 L36.5,615.5742 " fill="none" filter="url(#f15a8fwxrwl33r)" style="stroke:#181818;stroke-width:0.5;"/><rect fill="#E2E2F0" filter="url(#f15a8fwxrwl33r)" height="32.6211" rx="2.5" ry="2.5" style="stroke:#181818;stroke-width:0.5;" width="64" x="262" y="103.9219"/><text fill="#000000" font-family="sans-serif" font-size="14" lengthAdjust="spacing" textLength="50" x="269" y="126.0293">:System</text><rect fill="#E2E2F0" filter="url(#f15a8fwxrwl33r)" height="32.6211" rx="2.5" ry="2.5" style="stroke:#181818;stroke-width:0.5;" width="64" x="262" y="538.4531"/><text fill="#000000" font-family="sans-serif" font-size="14" lengthAdjust="spacing" textLength="50" x="269" y="560.5605">:System</text><rect fill="#FFFFFF" filter="url(#f15a8fwxrwl33r)" height="370.9102" style="stroke:#181818;stroke-width:1.0;" width="10" x="18.5" y="150.543"/><rect fill="#FFFFFF" filter="url(#f15a8fwxrwl33r)" height="115.873" style="stroke:#181818;stroke-width:1.0;" width="10" x="290.5" y="173.834"/><rect fill="#FFFFFF" filter="url(#f15a8fwxrwl33r)" height="200.4551" style="stroke:#181818;stroke-width:1.0;" width="10" x="290.5" y="320.998"/><polygon fill="#181818" points="278.5,169.834,288.5,173.834,278.5,177.834,282.5,173.834" style="stroke:#181818;stroke-width:1.0;"/><line style="stroke:#181818;stroke-width:1.0;" x1="28.5" x2="284.5" y1="173.834" y2="173.834"/><text fill="#000000" font-family="sans-serif" font-size="13" font-weight="bold" lengthAdjust="spacing" textLength="7" x="35.5" y="168.5713">1</text><text fill="#000000" font-family="sans-serif" font-size="13" lengthAdjust="spacing" textLength="202" x="46.5" y="168.5713">Request to cancel an agenda entry</text><line style="stroke:#181818;stroke-width:1.0;stroke-dasharray:2.0,2.0;" x1="300.5" x2="342.5" y1="205.125" y2="205.125"/><line style="stroke:#181818;stroke-width:1.0;stroke-dasharray:2.0,2.0;" x1="342.5" x2="342.5" y1="205.125" y2="218.125"/><line style="stroke:#181818;stroke-width:1.0;stroke-dasharray:2.0,2.0;" x1="301.5" x2="342.5" y1="218.125" y2="218.125"/><polygon fill="#181818" points="311.5,214.125,301.5,218.125,311.5,222.125,307.5,218.125" style="stroke:#181818;stroke-width:1.0;"/><text fill="#000000" font-family="sans-serif" font-size="13" font-weight="bold" lengthAdjust="spacing" textLength="7" x="307.5" y="199.8623">2</text><text fill="#000000" font-family="sans-serif" font-size="13" lengthAdjust="spacing" textLength="211" x="318.5" y="199.8623">Retrieve current agenda entry details</text><path d="M305,231.125 L305,258.125 L636,258.125 L636,241.125 L626,231.125 L305,231.125 " fill="#FEFFDD" filter="url(#f15a8fwxrwl33r)" style="stroke:#181818;stroke-width:0.5;"/><path d="M626,231.125 L626,241.125 L636,241.125 L626,231.125 " fill="#FEFFDD" style="stroke:#181818;stroke-width:0.5;"/><text fill="#000000" font-family="sans-serif" font-size="13" lengthAdjust="spacing" textLength="310" x="311" y="250.1533">Includes task, team, equipment, duration, status, etc.</text><polygon fill="#181818" points="39.5,285.707,29.5,289.707,39.5,293.707,35.5,289.707" style="stroke:#181818;stroke-width:1.0;"/><line style="stroke:#181818;stroke-width:1.0;" x1="33.5" x2="294.5" y1="289.707" y2="289.707"/><text fill="#000000" font-family="sans-serif" font-size="13" font-weight="bold" lengthAdjust="spacing" textLength="7" x="45.5" y="284.4443">3</text><text fill="#000000" font-family="sans-serif" font-size="13" lengthAdjust="spacing" textLength="210" x="56.5" y="284.4443">Returns current agenda entry details</text><polygon fill="#181818" points="278.5,316.998,288.5,320.998,278.5,324.998,282.5,320.998" style="stroke:#181818;stroke-width:1.0;"/><line style="stroke:#181818;stroke-width:1.0;" x1="28.5" x2="284.5" y1="320.998" y2="320.998"/><text fill="#000000" font-family="sans-serif" font-size="13" font-weight="bold" lengthAdjust="spacing" textLength="7" x="35.5" y="315.7354">4</text><text fill="#000000" font-family="sans-serif" font-size="13" lengthAdjust="spacing" textLength="232" x="46.5" y="315.7354">Confirm cancellation of the agenda entry</text><line style="stroke:#181818;stroke-width:1.0;stroke-dasharray:2.0,2.0;" x1="300.5" x2="342.5" y1="352.2891" y2="352.2891"/><line style="stroke:#181818;stroke-width:1.0;stroke-dasharray:2.0,2.0;" x1="342.5" x2="342.5" y1="352.2891" y2="365.2891"/><line style="stroke:#181818;stroke-width:1.0;stroke-dasharray:2.0,2.0;" x1="301.5" x2="342.5" y1="365.2891" y2="365.2891"/><polygon fill="#181818" points="311.5,361.2891,301.5,365.2891,311.5,369.2891,307.5,365.2891" style="stroke:#181818;stroke-width:1.0;"/><text fill="#000000" font-family="sans-serif" font-size="13" font-weight="bold" lengthAdjust="spacing" textLength="7" x="307.5" y="347.0264">5</text><text fill="#000000" font-family="sans-serif" font-size="13" lengthAdjust="spacing" textLength="189" x="318.5" y="347.0264">Validate the cancellation request</text><path d="M305,378.2891 L305,405.2891 L499,405.2891 L499,388.2891 L489,378.2891 L305,378.2891 " fill="#FEFFDD" filter="url(#f15a8fwxrwl33r)" style="stroke:#181818;stroke-width:0.5;"/><path d="M489,378.2891 L489,388.2891 L499,388.2891 L489,378.2891 " fill="#FEFFDD" style="stroke:#181818;stroke-width:0.5;"/><text fill="#000000" font-family="sans-serif" font-size="13" lengthAdjust="spacing" textLength="173" x="311" y="397.3174">Ensure entry can be canceled</text><line style="stroke:#181818;stroke-width:1.0;" x1="300.5" x2="342.5" y1="436.8711" y2="436.8711"/><line style="stroke:#181818;stroke-width:1.0;" x1="342.5" x2="342.5" y1="436.8711" y2="449.8711"/><line style="stroke:#181818;stroke-width:1.0;" x1="301.5" x2="342.5" y1="449.8711" y2="449.8711"/><polygon fill="#181818" points="311.5,445.8711,301.5,449.8711,311.5,453.8711,307.5,449.8711" style="stroke:#181818;stroke-width:1.0;"/><text fill="#000000" font-family="sans-serif" font-size="13" font-weight="bold" lengthAdjust="spacing" textLength="7" x="307.5" y="431.6084">6</text><text fill="#000000" font-family="sans-serif" font-size="13" lengthAdjust="spacing" textLength="243" x="318.5" y="431.6084">Update agenda entry status to "Canceled"</text><path d="M305,462.8711 L305,489.8711 L609,489.8711 L609,472.8711 L599,462.8711 L305,462.8711 " fill="#FEFFDD" filter="url(#f15a8fwxrwl33r)" style="stroke:#181818;stroke-width:0.5;"/><path d="M599,462.8711 L599,472.8711 L609,472.8711 L599,462.8711 " fill="#FEFFDD" style="stroke:#181818;stroke-width:0.5;"/><text fill="#000000" font-family="sans-serif" font-size="13" lengthAdjust="spacing" textLength="283" x="311" y="481.8994">Change status to "Canceled", do not delete entry</text><polygon fill="#181818" points="34.5,517.4531,24.5,521.4531,34.5,525.4531,30.5,521.4531" style="stroke:#181818;stroke-width:1.0;"/><line style="stroke:#181818;stroke-width:1.0;" x1="28.5" x2="294.5" y1="521.4531" y2="521.4531"/><text fill="#000000" font-family="sans-serif" font-size="13" font-weight="bold" lengthAdjust="spacing" textLength="7" x="40.5" y="516.1904">7</text><text fill="#000000" font-family="sans-serif" font-size="13" lengthAdjust="spacing" textLength="159" x="51.5" y="516.1904">Confirmation of cancellation</text><text fill="#888888" font-family="sans-serif" font-size="10" lengthAdjust="spacing" textLength="32" x="611" y="15.791">US025</text><!--SRC=[fPDDJoCn38Rl-HNMd5kqGkB20MbLhLOSk531tIJkJDJ46Hm7r7zFveFP5efws9oYiVtuzUjCtdlkKJ12J9ni9oaIx31aCda9zMZtsD9M3u50o2fo6uuJSeSklNjkGQMGCUgrPZvjVrtVm1eso9O280EnoW4yWtO4lrjYXwOZT2HJii6YYKjy8J5eDGaqVxSF3M26DaTJcwctlaTMQ6wtXwmKn-1qDKEDVqEbCTj0FVK2wxiv0MxXaLuBPGLDO1TPE2gPr8rL2sS6mtncpFgKgEBfZS0MaOeueO4ZHH_oGk1KgUBRJY7j_a7ksORYA8DYtgz02UCAgbJVnyfPWIk2wXEl82jgoJMezkgRhhjntb5J4SwN9JdwEkfPrpQ9TrxYR5aOfGpwXpN-btdF6BmRSWVI2LscHLqoxW_d8ZHFLW7myiaXTyQUfUwf7zkU63DPEpoDPZCZcalzDrtz5-XiQTrQ6iggoO6KZXmwjxBPuiNQOpD-MjNHf-71Vm00]--></g></svg>