<?xml version="1.0" encoding="us-ascii" standalone="no"?><svg xmlns="http://www.w3.org/2000/svg" xmlns:xlink="http://www.w3.org/1999/xlink" contentStyleType="text/css" height="428px" preserveAspectRatio="none" style="width:474px;height:428px;background:#FFFFFF;" version="1.1" viewBox="0 0 474 428" width="474px" zoomAndPan="magnify"><defs/><g><text fill="#000000" font-family="sans-serif" font-size="14" font-weight="bold" lengthAdjust="spacing" textLength="303" x="81.5" y="44.4082">US023 - List the vehicles needing check-up</text><rect fill="#FFFFFF" height="179.7461" style="stroke:#181818;stroke-width:1.0;" width="10" x="17" y="147.543"/><rect fill="#FFFFFF" height="31.291" style="stroke:#181818;stroke-width:1.0;" width="10" x="425" y="170.834"/><rect fill="#FFFFFF" height="31.291" style="stroke:#181818;stroke-width:1.0;" width="10" x="425" y="233.416"/><rect fill="#FFFFFF" height="31.291" style="stroke:#181818;stroke-width:1.0;" width="10" x="425" y="295.998"/><line style="stroke:#181818;stroke-width:0.5;stroke-dasharray:5.0,5.0;" x1="22" x2="22" y1="137.543" y2="345.2891"/><line style="stroke:#181818;stroke-width:0.5;stroke-dasharray:5.0,5.0;" x1="430" x2="430" y1="137.543" y2="345.2891"/><text fill="#000000" font-family="sans-serif" font-size="14" lengthAdjust="spacing" textLength="28" x="5" y="134.0293">user</text><ellipse cx="22" cy="67.4219" fill="#E3E3E3" rx="8" ry="8" style="stroke:#181818;stroke-width:0.5;"/><path d="M22,75.4219 L22,102.4219 M9,83.4219 L35,83.4219 M22,102.4219 L9,117.4219 M22,102.4219 L35,117.4219 " fill="none" style="stroke:#181818;stroke-width:0.5;"/><text fill="#000000" font-family="sans-serif" font-size="14" lengthAdjust="spacing" textLength="28" x="5" y="359.3965">user</text><ellipse cx="22" cy="371.4102" fill="#E3E3E3" rx="8" ry="8" style="stroke:#181818;stroke-width:0.5;"/><path d="M22,379.4102 L22,406.4102 M9,387.4102 L35,387.4102 M22,406.4102 L9,421.4102 M22,406.4102 L35,421.4102 " fill="none" style="stroke:#181818;stroke-width:0.5;"/><rect fill="#E3E3E3" height="32.6211" rx="2.5" ry="2.5" style="stroke:#181818;stroke-width:0.5;" width="64" x="398" y="103.9219"/><text fill="#000000" font-family="sans-serif" font-size="14" lengthAdjust="spacing" textLength="50" x="405" y="126.0293">:System</text><rect fill="#E3E3E3" height="32.6211" rx="2.5" ry="2.5" style="stroke:#181818;stroke-width:0.5;" width="64" x="398" y="344.2891"/><text fill="#000000" font-family="sans-serif" font-size="14" lengthAdjust="spacing" textLength="50" x="405" y="366.3965">:System</text><rect fill="#FFFFFF" height="179.7461" style="stroke:#181818;stroke-width:1.0;" width="10" x="17" y="147.543"/><rect fill="#FFFFFF" height="31.291" style="stroke:#181818;stroke-width:1.0;" width="10" x="425" y="170.834"/><rect fill="#FFFFFF" height="31.291" style="stroke:#181818;stroke-width:1.0;" width="10" x="425" y="233.416"/><rect fill="#FFFFFF" height="31.291" style="stroke:#181818;stroke-width:1.0;" width="10" x="425" y="295.998"/><polygon fill="#181818" points="413,166.834,423,170.834,413,174.834,417,170.834" style="stroke:#181818;stroke-width:1.0;"/><line style="stroke:#181818;stroke-width:1.0;" x1="27" x2="419" y1="170.834" y2="170.834"/><text fill="#000000" font-family="sans-serif" font-size="13" font-weight="bold" lengthAdjust="spacing" textLength="7" x="34" y="165.5713">1</text><text fill="#000000" font-family="sans-serif" font-size="13" lengthAdjust="spacing" textLength="205" x="45" y="165.5713">Request to add a Team to an entry.</text><polygon fill="#181818" points="38,198.125,28,202.125,38,206.125,34,202.125" style="stroke:#181818;stroke-width:1.0;"/><line style="stroke:#181818;stroke-width:1.0;stroke-dasharray:2.0,2.0;" x1="32" x2="429" y1="202.125" y2="202.125"/><text fill="#000000" font-family="sans-serif" font-size="13" font-weight="bold" lengthAdjust="spacing" textLength="7" x="44" y="196.8623">2</text><text fill="#000000" font-family="sans-serif" font-size="13" lengthAdjust="spacing" textLength="279" x="55" y="196.8623">displays list of all Teams and asks to select one</text><polygon fill="#181818" points="413,229.416,423,233.416,413,237.416,417,233.416" style="stroke:#181818;stroke-width:1.0;"/><line style="stroke:#181818;stroke-width:1.0;" x1="27" x2="419" y1="233.416" y2="233.416"/><text fill="#000000" font-family="sans-serif" font-size="13" font-weight="bold" lengthAdjust="spacing" textLength="7" x="34" y="228.1533">3</text><text fill="#000000" font-family="sans-serif" font-size="13" lengthAdjust="spacing" textLength="223" x="45" y="228.1533">User selects a team to add to an entry</text><polygon fill="#181818" points="38,260.707,28,264.707,38,268.707,34,264.707" style="stroke:#181818;stroke-width:1.0;"/><line style="stroke:#181818;stroke-width:1.0;stroke-dasharray:2.0,2.0;" x1="32" x2="429" y1="264.707" y2="264.707"/><text fill="#000000" font-family="sans-serif" font-size="13" font-weight="bold" lengthAdjust="spacing" textLength="7" x="44" y="259.4443">4</text><text fill="#000000" font-family="sans-serif" font-size="13" lengthAdjust="spacing" textLength="363" x="55" y="259.4443">displays list of all Entries in the agenda and asks to select one</text><polygon fill="#181818" points="413,291.998,423,295.998,413,299.998,417,295.998" style="stroke:#181818;stroke-width:1.0;"/><line style="stroke:#181818;stroke-width:1.0;" x1="27" x2="419" y1="295.998" y2="295.998"/><text fill="#000000" font-family="sans-serif" font-size="13" font-weight="bold" lengthAdjust="spacing" textLength="7" x="34" y="290.7354">5</text><text fill="#000000" font-family="sans-serif" font-size="13" lengthAdjust="spacing" textLength="234" x="45" y="290.7354">User selects an entry to add the team to</text><polygon fill="#181818" points="33,323.2891,23,327.2891,33,331.2891,29,327.2891" style="stroke:#181818;stroke-width:1.0;"/><line style="stroke:#181818;stroke-width:1.0;stroke-dasharray:2.0,2.0;" x1="27" x2="429" y1="327.2891" y2="327.2891"/><text fill="#000000" font-family="sans-serif" font-size="13" font-weight="bold" lengthAdjust="spacing" textLength="7" x="39" y="322.0264">6</text><text fill="#000000" font-family="sans-serif" font-size="13" lengthAdjust="spacing" textLength="194" x="50" y="322.0264">displays message of (In)success.</text><text fill="#888888" font-family="sans-serif" font-size="10" lengthAdjust="spacing" textLength="32" x="434" y="15.791">US023</text><!--SRC=[jPA_JiCm4CPtFyMf4mof46mTs1YGc2XzWCE-DbOSE_WkHNbxpaw8AY5OAZnTxi_llYysTpuEcB67FiLasvnw0iaZ6Luh0zeEJxINAH1aieBn52uRk4MNFdqymH43ap7YHLiF-xlx1sZWnRE0j0HdQhqDn129N6ctBTck6GVJ4ZhAyuJ1KL8S-tVAng2Lb64pCkKD84C9Z6uLR_s0KM2psqyirDVg7DOfVqQXkTr0FIM6vd5fWXsyqiT8HLe2T0uGtaZDbAy852LFspgvmXOwB6VXD8giw9tpF0IS648nd8w08LGcAr7vt76XCmNzXv0YhIX7lotv8VfG4ZD2iI3VajN0XV9r_ZhnJyhoUby-rllJHn0T_fkPHVjgHpSkzgwmqnEpwYwERfxZBO_MQcPhp1zwvzf5lZwZBm00]--></g></svg>