<?xml version="1.0" encoding="us-ascii" standalone="no"?><svg xmlns="http://www.w3.org/2000/svg" xmlns:xlink="http://www.w3.org/1999/xlink" contentStyleType="text/css" height="791px" preserveAspectRatio="none" style="width:979px;height:791px;background:#FFFFFF;" version="1.1" viewBox="0 0 979 791" width="979px" zoomAndPan="magnify"><defs/><g><!--class PostponeAnEntryUI--><g id="elem_PostponeAnEntryUI"><rect codeLine="11" fill="#F1F1F1" height="48" id="PostponeAnEntryUI" rx="2.5" ry="2.5" style="stroke:#181818;stroke-width:0.5;" width="154" x="7" y="35"/><ellipse cx="22" cy="51" fill="#ADD1B2" rx="11" ry="11" style="stroke:#181818;stroke-width:1.0;"/><path d="M24.7656,46.875 Q24.9219,46.6563 25.1094,46.5469 Q25.2969,46.4375 25.5156,46.4375 Q25.8906,46.4375 26.125,46.7031 Q26.3594,46.9531 26.3594,47.5625 L26.3594,49.0156 Q26.3594,49.625 26.125,49.8906 Q25.8906,50.1563 25.5156,50.1563 Q25.1719,50.1563 24.9688,49.9531 Q24.7656,49.7656 24.6563,49.25 Q24.6094,48.8906 24.4219,48.7031 Q24.0938,48.3281 23.4844,48.1094 Q22.875,47.8906 22.25,47.8906 Q21.4844,47.8906 20.8438,48.2188 Q20.2188,48.5469 19.7188,49.2969 Q19.2344,50.0469 19.2344,51.0781 L19.2344,52.1719 Q19.2344,53.4063 20.125,54.2344 Q21.0156,55.0469 22.6094,55.0469 Q23.5469,55.0469 24.2031,54.7969 Q24.5938,54.6406 25.0156,54.2031 Q25.2813,53.9375 25.4219,53.8594 Q25.5781,53.7813 25.7813,53.7813 Q26.1094,53.7813 26.3594,54.0469 Q26.625,54.2969 26.625,54.6406 Q26.625,54.9844 26.2813,55.3906 Q25.7813,55.9688 24.9844,56.2969 Q23.9063,56.75 22.6094,56.75 Q21.0938,56.75 19.8906,56.125 Q18.9063,55.625 18.2188,54.5625 Q17.5313,53.4844 17.5313,52.2031 L17.5313,51.0469 Q17.5313,49.7188 18.1406,48.5781 Q18.7656,47.4219 19.8594,46.8125 Q20.9531,46.1875 22.1875,46.1875 Q22.9219,46.1875 23.5625,46.3594 Q24.2188,46.5156 24.7656,46.875 Z " fill="#000000"/><text fill="#000000" font-family="sans-serif" font-size="14" lengthAdjust="spacing" textLength="122" x="36" y="56.7969">PostponeAnEntryUI</text><line style="stroke:#181818;stroke-width:0.5;" x1="8" x2="160" y1="67" y2="67"/><line style="stroke:#181818;stroke-width:0.5;" x1="8" x2="160" y1="75" y2="75"/></g><!--class PostponeAnEntryController--><g id="elem_PostponeAnEntryController"><rect codeLine="15" fill="#F1F1F1" height="103.8633" id="PostponeAnEntryController" rx="2.5" ry="2.5" style="stroke:#181818;stroke-width:0.5;" width="318" x="196" y="7"/><ellipse cx="264.75" cy="23" fill="#ADD1B2" rx="11" ry="11" style="stroke:#181818;stroke-width:1.0;"/><path d="M267.5156,18.875 Q267.6719,18.6563 267.8594,18.5469 Q268.0469,18.4375 268.2656,18.4375 Q268.6406,18.4375 268.875,18.7031 Q269.1094,18.9531 269.1094,19.5625 L269.1094,21.0156 Q269.1094,21.625 268.875,21.8906 Q268.6406,22.1563 268.2656,22.1563 Q267.9219,22.1563 267.7188,21.9531 Q267.5156,21.7656 267.4063,21.25 Q267.3594,20.8906 267.1719,20.7031 Q266.8438,20.3281 266.2344,20.1094 Q265.625,19.8906 265,19.8906 Q264.2344,19.8906 263.5938,20.2188 Q262.9688,20.5469 262.4688,21.2969 Q261.9844,22.0469 261.9844,23.0781 L261.9844,24.1719 Q261.9844,25.4063 262.875,26.2344 Q263.7656,27.0469 265.3594,27.0469 Q266.2969,27.0469 266.9531,26.7969 Q267.3438,26.6406 267.7656,26.2031 Q268.0313,25.9375 268.1719,25.8594 Q268.3281,25.7813 268.5313,25.7813 Q268.8594,25.7813 269.1094,26.0469 Q269.375,26.2969 269.375,26.6406 Q269.375,26.9844 269.0313,27.3906 Q268.5313,27.9688 267.7344,28.2969 Q266.6563,28.75 265.3594,28.75 Q263.8438,28.75 262.6406,28.125 Q261.6563,27.625 260.9688,26.5625 Q260.2813,25.4844 260.2813,24.2031 L260.2813,23.0469 Q260.2813,21.7188 260.8906,20.5781 Q261.5156,19.4219 262.6094,18.8125 Q263.7031,18.1875 264.9375,18.1875 Q265.6719,18.1875 266.3125,18.3594 Q266.9688,18.5156 267.5156,18.875 Z " fill="#000000"/><text fill="#000000" font-family="sans-serif" font-size="14" lengthAdjust="spacing" textLength="172" x="285.25" y="28.7969">PostponeAnEntryController</text><line style="stroke:#181818;stroke-width:0.5;" x1="197" x2="513" y1="39" y2="39"/><text fill="#000000" font-family="sans-serif" font-size="14" lengthAdjust="spacing" textLength="242" x="202" y="58.1074">-AgendaRepository agendaRepository</text><line style="stroke:#181818;stroke-width:0.5;" x1="197" x2="513" y1="65.6211" y2="65.6211"/><text fill="#000000" font-family="sans-serif" font-size="14" lengthAdjust="spacing" textLength="306" x="202" y="84.7285">+PostponeAnEntryController(agendaRepository)</text><text fill="#000000" font-family="sans-serif" font-size="14" lengthAdjust="spacing" textLength="214" x="202" y="103.3496">+getPlannedAndPostponedTask()</text></g><!--class Repositories--><g id="elem_Repositories"><rect codeLine="21" fill="#F1F1F1" height="103.8633" id="Repositories" rx="2.5" ry="2.5" style="stroke:#181818;stroke-width:0.5;" width="258" x="618" y="7"/><ellipse cx="703.25" cy="23" fill="#ADD1B2" rx="11" ry="11" style="stroke:#181818;stroke-width:1.0;"/><path d="M706.0156,18.875 Q706.1719,18.6563 706.3594,18.5469 Q706.5469,18.4375 706.7656,18.4375 Q707.1406,18.4375 707.375,18.7031 Q707.6094,18.9531 707.6094,19.5625 L707.6094,21.0156 Q707.6094,21.625 707.375,21.8906 Q707.1406,22.1563 706.7656,22.1563 Q706.4219,22.1563 706.2188,21.9531 Q706.0156,21.7656 705.9063,21.25 Q705.8594,20.8906 705.6719,20.7031 Q705.3438,20.3281 704.7344,20.1094 Q704.125,19.8906 703.5,19.8906 Q702.7344,19.8906 702.0938,20.2188 Q701.4688,20.5469 700.9688,21.2969 Q700.4844,22.0469 700.4844,23.0781 L700.4844,24.1719 Q700.4844,25.4063 701.375,26.2344 Q702.2656,27.0469 703.8594,27.0469 Q704.7969,27.0469 705.4531,26.7969 Q705.8438,26.6406 706.2656,26.2031 Q706.5313,25.9375 706.6719,25.8594 Q706.8281,25.7813 707.0313,25.7813 Q707.3594,25.7813 707.6094,26.0469 Q707.875,26.2969 707.875,26.6406 Q707.875,26.9844 707.5313,27.3906 Q707.0313,27.9688 706.2344,28.2969 Q705.1563,28.75 703.8594,28.75 Q702.3438,28.75 701.1406,28.125 Q700.1563,27.625 699.4688,26.5625 Q698.7813,25.4844 698.7813,24.2031 L698.7813,23.0469 Q698.7813,21.7188 699.3906,20.5781 Q700.0156,19.4219 701.1094,18.8125 Q702.2031,18.1875 703.4375,18.1875 Q704.1719,18.1875 704.8125,18.3594 Q705.4688,18.5156 706.0156,18.875 Z " fill="#000000"/><text fill="#000000" font-family="sans-serif" font-size="14" lengthAdjust="spacing" textLength="79" x="723.75" y="28.7969">Repositories</text><line style="stroke:#181818;stroke-width:0.5;" x1="619" x2="875" y1="39" y2="39"/><line style="stroke:#181818;stroke-width:0.5;" x1="619" x2="875" y1="47" y2="47"/><text fill="#000000" font-family="sans-serif" font-size="14" lengthAdjust="spacing" textLength="181" x="624" y="66.1074">-Repositories(): Repositories</text><text fill="#000000" font-family="sans-serif" font-size="14" lengthAdjust="spacing" textLength="182" x="624" y="84.7285">+getInstance() : Repositories</text><text fill="#000000" font-family="sans-serif" font-size="14" lengthAdjust="spacing" textLength="246" x="624" y="103.3496">+getAgendaRepository() : Repositories</text></g><!--class AgendaRepository--><g id="elem_AgendaRepository"><rect codeLine="28" fill="#F1F1F1" height="66.6211" id="AgendaRepository" rx="2.5" ry="2.5" style="stroke:#181818;stroke-width:0.5;" width="226" x="445" y="337"/><ellipse cx="495.25" cy="353" fill="#ADD1B2" rx="11" ry="11" style="stroke:#181818;stroke-width:1.0;"/><path d="M498.0156,348.875 Q498.1719,348.6563 498.3594,348.5469 Q498.5469,348.4375 498.7656,348.4375 Q499.1406,348.4375 499.375,348.7031 Q499.6094,348.9531 499.6094,349.5625 L499.6094,351.0156 Q499.6094,351.625 499.375,351.8906 Q499.1406,352.1563 498.7656,352.1563 Q498.4219,352.1563 498.2188,351.9531 Q498.0156,351.7656 497.9063,351.25 Q497.8594,350.8906 497.6719,350.7031 Q497.3438,350.3281 496.7344,350.1094 Q496.125,349.8906 495.5,349.8906 Q494.7344,349.8906 494.0938,350.2188 Q493.4688,350.5469 492.9688,351.2969 Q492.4844,352.0469 492.4844,353.0781 L492.4844,354.1719 Q492.4844,355.4063 493.375,356.2344 Q494.2656,357.0469 495.8594,357.0469 Q496.7969,357.0469 497.4531,356.7969 Q497.8438,356.6406 498.2656,356.2031 Q498.5313,355.9375 498.6719,355.8594 Q498.8281,355.7813 499.0313,355.7813 Q499.3594,355.7813 499.6094,356.0469 Q499.875,356.2969 499.875,356.6406 Q499.875,356.9844 499.5313,357.3906 Q499.0313,357.9688 498.2344,358.2969 Q497.1563,358.75 495.8594,358.75 Q494.3438,358.75 493.1406,358.125 Q492.1563,357.625 491.4688,356.5625 Q490.7813,355.4844 490.7813,354.2031 L490.7813,353.0469 Q490.7813,351.7188 491.3906,350.5781 Q492.0156,349.4219 493.1094,348.8125 Q494.2031,348.1875 495.4375,348.1875 Q496.1719,348.1875 496.8125,348.3594 Q497.4688,348.5156 498.0156,348.875 Z " fill="#000000"/><text fill="#000000" font-family="sans-serif" font-size="14" lengthAdjust="spacing" textLength="117" x="515.75" y="358.7969">AgendaRepository</text><line style="stroke:#181818;stroke-width:0.5;" x1="446" x2="670" y1="369" y2="369"/><line style="stroke:#181818;stroke-width:0.5;" x1="446" x2="670" y1="377" y2="377"/><text fill="#000000" font-family="sans-serif" font-size="14" lengthAdjust="spacing" textLength="214" x="451" y="396.1074">+getPlannedAndPostponedTask()</text></g><!--class Entry--><g id="elem_Entry"><rect codeLine="33" fill="#F1F1F1" height="159.7266" id="Entry" rx="2.5" ry="2.5" style="stroke:#181818;stroke-width:0.5;" width="128" x="494" y="625"/><ellipse cx="537.35" cy="641" fill="#ADD1B2" rx="11" ry="11" style="stroke:#181818;stroke-width:1.0;"/><path d="M540.1156,636.875 Q540.2719,636.6563 540.4594,636.5469 Q540.6469,636.4375 540.8656,636.4375 Q541.2406,636.4375 541.475,636.7031 Q541.7094,636.9531 541.7094,637.5625 L541.7094,639.0156 Q541.7094,639.625 541.475,639.8906 Q541.2406,640.1563 540.8656,640.1563 Q540.5219,640.1563 540.3188,639.9531 Q540.1156,639.7656 540.0063,639.25 Q539.9594,638.8906 539.7719,638.7031 Q539.4438,638.3281 538.8344,638.1094 Q538.225,637.8906 537.6,637.8906 Q536.8344,637.8906 536.1938,638.2188 Q535.5688,638.5469 535.0688,639.2969 Q534.5844,640.0469 534.5844,641.0781 L534.5844,642.1719 Q534.5844,643.4063 535.475,644.2344 Q536.3656,645.0469 537.9594,645.0469 Q538.8969,645.0469 539.5531,644.7969 Q539.9438,644.6406 540.3656,644.2031 Q540.6313,643.9375 540.7719,643.8594 Q540.9281,643.7813 541.1313,643.7813 Q541.4594,643.7813 541.7094,644.0469 Q541.975,644.2969 541.975,644.6406 Q541.975,644.9844 541.6313,645.3906 Q541.1313,645.9688 540.3344,646.2969 Q539.2563,646.75 537.9594,646.75 Q536.4438,646.75 535.2406,646.125 Q534.2563,645.625 533.5688,644.5625 Q532.8813,643.4844 532.8813,642.2031 L532.8813,641.0469 Q532.8813,639.7188 533.4906,638.5781 Q534.1156,637.4219 535.2094,636.8125 Q536.3031,636.1875 537.5375,636.1875 Q538.2719,636.1875 538.9125,636.3594 Q539.5688,636.5156 540.1156,636.875 Z " fill="#000000"/><text fill="#000000" font-family="sans-serif" font-size="14" lengthAdjust="spacing" textLength="33" x="557.65" y="646.7969">Entry</text><line style="stroke:#181818;stroke-width:0.5;" x1="495" x2="621" y1="657" y2="657"/><text fill="#000000" font-family="sans-serif" font-size="14" lengthAdjust="spacing" textLength="27" x="500" y="676.1074">-title</text><text fill="#000000" font-family="sans-serif" font-size="14" lengthAdjust="spacing" textLength="74" x="500" y="694.7285">-description</text><text fill="#000000" font-family="sans-serif" font-size="14" lengthAdjust="spacing" textLength="90" x="500" y="713.3496">-urgencyLevel</text><text fill="#000000" font-family="sans-serif" font-size="14" lengthAdjust="spacing" textLength="116" x="500" y="731.9707">-expectedDuration</text><text fill="#000000" font-family="sans-serif" font-size="14" lengthAdjust="spacing" textLength="36" x="500" y="750.5918">-state</text><text fill="#000000" font-family="sans-serif" font-size="14" lengthAdjust="spacing" textLength="82" x="500" y="769.2129">-greenSpace</text><line style="stroke:#181818;stroke-width:0.5;" x1="495" x2="621" y1="776.7266" y2="776.7266"/></g><!--class EntryDto--><g id="elem_EntryDto"><rect codeLine="43" fill="#F1F1F1" height="103.8633" id="EntryDto" rx="2.5" ry="2.5" style="stroke:#181818;stroke-width:0.5;" width="87" x="178.5" y="172"/><ellipse cx="193.5" cy="188" fill="#ADD1B2" rx="11" ry="11" style="stroke:#181818;stroke-width:1.0;"/><path d="M196.2656,183.875 Q196.4219,183.6563 196.6094,183.5469 Q196.7969,183.4375 197.0156,183.4375 Q197.3906,183.4375 197.625,183.7031 Q197.8594,183.9531 197.8594,184.5625 L197.8594,186.0156 Q197.8594,186.625 197.625,186.8906 Q197.3906,187.1563 197.0156,187.1563 Q196.6719,187.1563 196.4688,186.9531 Q196.2656,186.7656 196.1563,186.25 Q196.1094,185.8906 195.9219,185.7031 Q195.5938,185.3281 194.9844,185.1094 Q194.375,184.8906 193.75,184.8906 Q192.9844,184.8906 192.3438,185.2188 Q191.7188,185.5469 191.2188,186.2969 Q190.7344,187.0469 190.7344,188.0781 L190.7344,189.1719 Q190.7344,190.4063 191.625,191.2344 Q192.5156,192.0469 194.1094,192.0469 Q195.0469,192.0469 195.7031,191.7969 Q196.0938,191.6406 196.5156,191.2031 Q196.7813,190.9375 196.9219,190.8594 Q197.0781,190.7813 197.2813,190.7813 Q197.6094,190.7813 197.8594,191.0469 Q198.125,191.2969 198.125,191.6406 Q198.125,191.9844 197.7813,192.3906 Q197.2813,192.9688 196.4844,193.2969 Q195.4063,193.75 194.1094,193.75 Q192.5938,193.75 191.3906,193.125 Q190.4063,192.625 189.7188,191.5625 Q189.0313,190.4844 189.0313,189.2031 L189.0313,188.0469 Q189.0313,186.7188 189.6406,185.5781 Q190.2656,184.4219 191.3594,183.8125 Q192.4531,183.1875 193.6875,183.1875 Q194.4219,183.1875 195.0625,183.3594 Q195.7188,183.5156 196.2656,183.875 Z " fill="#000000"/><text fill="#000000" font-family="sans-serif" font-size="14" lengthAdjust="spacing" textLength="55" x="207.5" y="193.7969">EntryDto</text><line style="stroke:#181818;stroke-width:0.5;" x1="179.5" x2="264.5" y1="204" y2="204"/><text fill="#000000" font-family="sans-serif" font-size="14" lengthAdjust="spacing" textLength="72" x="184.5" y="223.1074">+TaskEntry</text><text fill="#000000" font-family="sans-serif" font-size="14" lengthAdjust="spacing" textLength="38" x="184.5" y="241.7285">+Date</text><text fill="#000000" font-family="sans-serif" font-size="14" lengthAdjust="spacing" textLength="39" x="184.5" y="260.3496">+Time</text><line style="stroke:#181818;stroke-width:0.5;" x1="179.5" x2="264.5" y1="267.8633" y2="267.8633"/></g><!--link AgendaRepository to Entry--><g id="link_AgendaRepository_Entry"><path codeLine="50" d="M558,404.29 C558,455.16 558,548.56 558,618.91 " fill="none" id="AgendaRepository-to-Entry" style="stroke:#181818;stroke-width:1.0;"/><polygon fill="#181818" points="558,624.91,562,615.91,558,619.91,554,615.91,558,624.91" style="stroke:#181818;stroke-width:1.0;"/><text fill="#000000" font-family="sans-serif" font-size="13" lengthAdjust="spacing" textLength="49" x="559" y="529.0283">contains</text><text fill="#000000" font-family="sans-serif" font-size="13" lengthAdjust="spacing" textLength="5" x="552.7695" y="613.7974">*</text></g><!--link PostponeAnEntryUI to PostponeAnEntryController--><g id="link_PostponeAnEntryUI_PostponeAnEntryController"><path codeLine="51" d="M161,59 C169.03,59 174.33,59 174.33,59 C174.33,59 177.38,59 189.74,59 " fill="none" id="PostponeAnEntryUI-to-PostponeAnEntryController" style="stroke:#181818;stroke-width:1.0;stroke-dasharray:7.0,7.0;"/><polygon fill="#181818" points="195.74,59,186.74,55,190.74,59,186.74,63,195.74,59" style="stroke:#181818;stroke-width:1.0;"/></g><!--link PostponeAnEntryController to Repositories--><g id="link_PostponeAnEntryController_Repositories"><path codeLine="52" d="M514.16,59 C548.62,59 578.67,59 611.81,59 " fill="none" id="PostponeAnEntryController-to-Repositories" style="stroke:#181818;stroke-width:1.0;stroke-dasharray:7.0,7.0;"/><polygon fill="#181818" points="617.81,59,608.81,55,612.81,59,608.81,63,617.81,59" style="stroke:#181818;stroke-width:1.0;"/><text fill="#000000" font-family="sans-serif" font-size="13" lengthAdjust="spacing" textLength="67" x="532.5" y="52.0283">repositories</text></g><!--link PostponeAnEntryUI to EntryDto--><g id="link_PostponeAnEntryUI_EntryDto"><path codeLine="53" d="M103.48,83.01 C122.95,106 149.6423,137.5414 174.8723,167.3314 " fill="none" id="PostponeAnEntryUI-to-EntryDto" style="stroke:#181818;stroke-width:1.0;stroke-dasharray:7.0,7.0;"/><polygon fill="#181818" points="178.75,171.91,175.9858,162.457,175.5186,168.0945,169.881,167.6273,178.75,171.91" style="stroke:#181818;stroke-width:1.0;"/></g><!--link PostponeAnEntryController to EntryDto--><g id="link_PostponeAnEntryController_EntryDto"><path codeLine="54" d="M313.28,111.13 C297.51,130.45 283.3629,147.7909 267.5929,167.1209 " fill="none" id="PostponeAnEntryController-to-EntryDto" style="stroke:#181818;stroke-width:1.0;stroke-dasharray:7.0,7.0;"/><polygon fill="#181818" points="263.8,171.77,272.5887,167.3249,266.9607,167.8958,266.3899,162.2678,263.8,171.77" style="stroke:#181818;stroke-width:1.0;"/></g><!--link Repositories to Repositories--><g id="link_Repositories_Repositories"><path codeLine="55" d="M876.25,44.84 C896.88,46.91 911,51.63 911,59 C911,66.37 902.85,70.491 882.22,72.561 " fill="none" id="Repositories-to-Repositories" style="stroke:#181818;stroke-width:1.0;"/><polygon fill="#181818" points="876.25,73.16,885.6044,76.2415,881.225,72.6608,884.8057,68.2814,876.25,73.16" style="stroke:#181818;stroke-width:1.0;"/><text fill="#000000" font-family="sans-serif" font-size="13" lengthAdjust="spacing" textLength="49" x="917" y="64.5283">instance</text></g><!--link Repositories to Entry--><g id="link_Repositories_Entry"><path codeLine="56" d="M744.49,111.13 C742.14,158.93 739,223 739,223 C739,223 739,223 739,564 C739,564 678.8862,610.4994 626.8162,650.7694 " fill="none" id="Repositories-to-Entry" style="stroke:#181818;stroke-width:1.0;"/><polygon fill="#181818" points="622.07,654.44,631.6364,652.0982,626.0252,651.3811,626.7422,645.7699,622.07,654.44" style="stroke:#181818;stroke-width:1.0;"/><text fill="#000000" font-family="sans-serif" font-size="13" lengthAdjust="spacing" textLength="7" x="736.72" y="132.9539">1</text><text fill="#000000" font-family="sans-serif" font-size="13" lengthAdjust="spacing" textLength="5" x="630.1832" y="644.3048">*</text></g><!--link Repositories to AgendaRepository--><g id="link_Repositories_AgendaRepository"><path codeLine="57" d="M715.79,111.11 C676.68,175.15 613.9367,277.8991 581.0567,331.7491 " fill="none" id="Repositories-to-AgendaRepository" style="stroke:#181818;stroke-width:1.0;"/><polygon fill="#181818" points="577.93,336.87,586.034,331.2732,580.5356,332.6026,579.2062,327.1042,577.93,336.87" style="stroke:#181818;stroke-width:1.0;"/><text fill="#000000" font-family="sans-serif" font-size="13" lengthAdjust="spacing" textLength="7" x="574.1647" y="325.6699">1</text></g><!--link PostponeAnEntryController to Entry--><g id="link_PostponeAnEntryController_Entry"><path codeLine="59" d="M357.2,111.13 C359.25,158.93 362,223 362,223 C362,223 362,223 362,564 C362,564 431.7777,613.8425 488.9377,654.6725 " fill="none" id="PostponeAnEntryController-to-Entry" style="stroke:#181818;stroke-width:1.0;stroke-dasharray:7.0,7.0;"/><polygon fill="#181818" points="493.82,658.16,488.8215,649.6738,489.7514,655.2537,484.1715,656.1836,493.82,658.16" style="stroke:#181818;stroke-width:1.0;"/><text fill="#000000" font-family="sans-serif" font-size="13" lengthAdjust="spacing" textLength="31" x="363" y="449.0283">Entry</text></g><!--link PostponeAnEntryController to AgendaRepository--><g id="link_PostponeAnEntryController_AgendaRepository"><path codeLine="60" d="M388.52,111.11 C430.53,175.15 497.9893,278.0029 533.3093,331.8529 " fill="none" id="PostponeAnEntryController-to-AgendaRepository" style="stroke:#181818;stroke-width:1.0;stroke-dasharray:7.0,7.0;"/><polygon fill="#181818" points="536.6,336.87,535.0087,327.1505,533.8578,332.6891,528.3192,331.5381,536.6,336.87" style="stroke:#181818;stroke-width:1.0;"/><text fill="#000000" font-family="sans-serif" font-size="13" lengthAdjust="spacing" textLength="106" x="498" y="229.5283">AgendaRepository</text><text fill="#000000" font-family="sans-serif" font-size="13" lengthAdjust="spacing" textLength="7" x="524.6978" y="325.6699">1</text></g><!--SRC=[ZLDDZzf03BtxLrXSWA94xPK34bfwGDh3gcn_m3JnXX73E9enswRH_lTEXWNoGL1p6CdsUxQVxKpzGTjIENN48rlEzewFXE9E1BT8gRA3AcWdbI5qb8coXMa3_5xb_5lR0j-KyUs8qPQaAWbBDbLZmFHEa9qmj5YPKTwlHPp-THBQPcnt-Y_XLu2feJT1ONIws0lckcb7imM877nXBoLRMjllLbprSrl31um4dpYyR0ov6f9rGJPNFwXahuLTXQhd00pVOZp7h4-OVp8AaXUZhALyRVCBFNzL_Z0Ba8zBSrUY9ezrv2OTvso-xDYtz5lhmqeocirn3DANDuJUnZGOHVq_Ik2g1EDapgGeGxI4SxcQEVdCwJAkxUeykL0rgvxfdSpDIt_Ai5_ADoUdklYWM5ev2qTaT-5GgTL8x6CZNCEYQJAQiDWqnCMhFbBKF52R92kSV9cSsKiCnoTAMm-3qy9qXUFt0ACHJDFKhReBNuR_ghMCkxKkSXvcRi4w1P91GVrvDLtSvDkaEu5UcXWBcFxO0F2XuBHfxPmnr3vdViouNoUG-wv_]--></g></svg>