<?xml version="1.0" encoding="us-ascii" standalone="no"?><svg xmlns="http://www.w3.org/2000/svg" xmlns:xlink="http://www.w3.org/1999/xlink" contentStyleType="text/css" height="1508px" preserveAspectRatio="none" style="width:1759px;height:1508px;background:#FFFFFF;" version="1.1" viewBox="0 0 1759 1508" width="1759px" zoomAndPan="magnify"><defs/><g><rect fill="#FFFFFF" height="1276.4277" style="stroke:#181818;stroke-width:1.0;" width="10" x="47" y="112.2422"/><rect fill="#FFFFFF" height="638.2383" style="stroke:#181818;stroke-width:1.0;" width="10" x="459" y="135.5332"/><rect fill="#FFFFFF" height="31.291" style="stroke:#181818;stroke-width:1.0;" width="10" x="459" y="805.0625"/><rect fill="#FFFFFF" height="31.291" style="stroke:#181818;stroke-width:1.0;" width="10" x="459" y="867.6445"/><rect fill="#FFFFFF" height="458.4434" style="stroke:#181818;stroke-width:1.0;" width="10" x="459" y="930.2266"/><rect fill="#FFFFFF" height="544.3652" style="stroke:#181818;stroke-width:1.0;" width="10" x="704" y="198.1152"/><rect fill="#FFFFFF" height="395.8613" style="stroke:#181818;stroke-width:1.0;" width="10" x="704" y="961.5176"/><rect fill="#FFFFFF" height="31.291" style="stroke:#181818;stroke-width:1.0;" width="10" x="855.5" y="229.4063"/><rect fill="#FFFFFF" height="31.291" style="stroke:#181818;stroke-width:1.0;" width="10" x="955" y="291.9883"/><rect fill="#FFFFFF" height="31.291" style="stroke:#181818;stroke-width:1.0;" width="10" x="955" y="992.8086"/><rect fill="#FFFFFF" height="294.0371" style="stroke:#181818;stroke-width:1.0;" width="10" x="1039" y="417.1523"/><rect fill="#FFFFFF" height="36.291" style="stroke:#181818;stroke-width:1.0;" width="10" x="1044" y="575.3164"/><rect fill="#FFFFFF" height="31.291" style="stroke:#181818;stroke-width:1.0;" width="10" x="1230" y="354.5703"/><rect fill="#FFFFFF" height="30" style="stroke:#181818;stroke-width:1.0;" width="10" x="1230" y="506.0254"/><rect fill="#FFFFFF" height="270.6973" style="stroke:#181818;stroke-width:1.0;" width="10" x="1230" y="1055.3906"/><rect fill="#FFFFFF" height="130.873" style="stroke:#181818;stroke-width:1.0;" width="10" x="1235" y="1156.9238"/><rect fill="#FFFFFF" height="42.291" style="stroke:#181818;stroke-width:1.0;" width="10" x="1240" y="1201.2148"/><rect fill="#FFFFFF" height="30" style="stroke:#181818;stroke-width:1.0;" width="10" x="1489" y="642.8984"/><rect fill="none" height="217.4551" style="stroke:#000000;stroke-width:1.5;" width="750.5" x="1003" y="463.4434"/><line style="stroke:#181818;stroke-width:0.5;stroke-dasharray:5.0,5.0;" x1="52" x2="52" y1="102.2422" y2="1406.6699"/><line style="stroke:#181818;stroke-width:0.5;stroke-dasharray:5.0,5.0;" x1="464" x2="464" y1="102.2422" y2="1406.6699"/><line style="stroke:#181818;stroke-width:0.5;stroke-dasharray:5.0,5.0;" x1="709" x2="709" y1="102.2422" y2="1406.6699"/><line style="stroke:#181818;stroke-width:0.5;stroke-dasharray:5.0,5.0;" x1="860" x2="860" y1="102.2422" y2="1406.6699"/><line style="stroke:#181818;stroke-width:0.5;stroke-dasharray:5.0,5.0;" x1="960" x2="960" y1="102.2422" y2="1406.6699"/><line style="stroke:#181818;stroke-width:0.5;stroke-dasharray:5.0,5.0;" x1="1044" x2="1044" y1="102.2422" y2="1406.6699"/><line style="stroke:#181818;stroke-width:0.5;stroke-dasharray:5.0,5.0;" x1="1234.5" x2="1234.5" y1="102.2422" y2="1406.6699"/><line style="stroke:#181818;stroke-width:0.5;stroke-dasharray:5.0,5.0;" x1="1493.5" x2="1493.5" y1="102.2422" y2="1406.6699"/><line style="stroke:#181818;stroke-width:0.5;stroke-dasharray:5.0,5.0;" x1="1582.5" x2="1582.5" y1="1104.5117" y2="1406.6699"/><line style="stroke:#181818;stroke-width:0.5;stroke-dasharray:5.0,5.0;" x1="1680.5" x2="1680.5" y1="102.2422" y2="1406.6699"/><text fill="#000000" font-family="sans-serif" font-size="14" lengthAdjust="spacing" textLength="84" x="5" y="80.1074">Green Space</text><text fill="#000000" font-family="sans-serif" font-size="14" lengthAdjust="spacing" textLength="56" x="23" y="98.7285">Manager</text><ellipse cx="52" cy="13.5" fill="#E3E3E3" rx="8" ry="8" style="stroke:#181818;stroke-width:0.5;"/><path d="M52,21.5 L52,48.5 M39,29.5 L65,29.5 M52,48.5 L39,63.5 M52,48.5 L65,63.5 " fill="none" style="stroke:#181818;stroke-width:0.5;"/><text fill="#000000" font-family="sans-serif" font-size="14" lengthAdjust="spacing" textLength="84" x="5" y="1420.7773">Green Space</text><text fill="#000000" font-family="sans-serif" font-size="14" lengthAdjust="spacing" textLength="56" x="23" y="1439.3984">Manager</text><ellipse cx="52" cy="1451.4121" fill="#E3E3E3" rx="8" ry="8" style="stroke:#181818;stroke-width:0.5;"/><path d="M52,1459.4121 L52,1486.4121 M39,1467.4121 L65,1467.4121 M52,1486.4121 L39,1501.4121 M52,1486.4121 L65,1501.4121 " fill="none" style="stroke:#181818;stroke-width:0.5;"/><rect fill="#E3E3E3" height="32.6211" rx="2.5" ry="2.5" style="stroke:#181818;stroke-width:0.5;" width="140" x="394" y="68.6211"/><text fill="#000000" font-family="sans-serif" font-size="14" lengthAdjust="spacing" textLength="126" x="401" y="90.7285">:PostponeAnEntryUI</text><rect fill="#E3E3E3" height="32.6211" rx="2.5" ry="2.5" style="stroke:#181818;stroke-width:0.5;" width="140" x="394" y="1405.6699"/><text fill="#000000" font-family="sans-serif" font-size="14" lengthAdjust="spacing" textLength="126" x="401" y="1427.7773">:PostponeAnEntryUI</text><rect fill="#E3E3E3" height="32.6211" rx="2.5" ry="2.5" style="stroke:#181818;stroke-width:0.5;" width="190" x="614" y="68.6211"/><text fill="#000000" font-family="sans-serif" font-size="14" lengthAdjust="spacing" textLength="176" x="621" y="90.7285">:PostponeAnEntryController</text><rect fill="#E3E3E3" height="32.6211" rx="2.5" ry="2.5" style="stroke:#181818;stroke-width:0.5;" width="190" x="614" y="1405.6699"/><text fill="#000000" font-family="sans-serif" font-size="14" lengthAdjust="spacing" textLength="176" x="621" y="1427.7773">:PostponeAnEntryController</text><rect fill="#E3E3E3" height="32.6211" rx="2.5" ry="2.5" style="stroke:#181818;stroke-width:0.5;" width="93" x="814" y="68.6211"/><text fill="#000000" font-family="sans-serif" font-size="14" lengthAdjust="spacing" textLength="79" x="821" y="90.7285">Repositories</text><rect fill="#E3E3E3" height="32.6211" rx="2.5" ry="2.5" style="stroke:#181818;stroke-width:0.5;" width="93" x="814" y="1405.6699"/><text fill="#000000" font-family="sans-serif" font-size="14" lengthAdjust="spacing" textLength="79" x="821" y="1427.7773">Repositories</text><rect fill="#E3E3E3" height="51.2422" rx="2.5" ry="2.5" style="stroke:#181818;stroke-width:0.5;" width="86" x="917" y="50"/><text fill="#000000" font-family="sans-serif" font-size="14" lengthAdjust="spacing" textLength="63" x="928.5" y="72.1074">repository</text><text fill="#000000" font-family="sans-serif" font-size="14" lengthAdjust="spacing" textLength="72" x="924" y="90.7285">:Repository</text><rect fill="#E3E3E3" height="51.2422" rx="2.5" ry="2.5" style="stroke:#181818;stroke-width:0.5;" width="86" x="917" y="1405.6699"/><text fill="#000000" font-family="sans-serif" font-size="14" lengthAdjust="spacing" textLength="63" x="928.5" y="1427.7773">repository</text><text fill="#000000" font-family="sans-serif" font-size="14" lengthAdjust="spacing" textLength="72" x="924" y="1446.3984">:Repository</text><rect fill="#E3E3E3" height="32.6211" rx="2.5" ry="2.5" style="stroke:#181818;stroke-width:0.5;" width="62" x="1013" y="68.6211"/><text fill="#000000" font-family="sans-serif" font-size="14" lengthAdjust="spacing" textLength="48" x="1020" y="90.7285">:Entries</text><rect fill="#E3E3E3" height="32.6211" rx="2.5" ry="2.5" style="stroke:#181818;stroke-width:0.5;" width="62" x="1013" y="1405.6699"/><text fill="#000000" font-family="sans-serif" font-size="14" lengthAdjust="spacing" textLength="48" x="1020" y="1427.7773">:Entries</text><rect fill="#E3E3E3" height="32.6211" rx="2.5" ry="2.5" style="stroke:#181818;stroke-width:0.5;" width="135" x="1167.5" y="68.6211"/><text fill="#000000" font-family="sans-serif" font-size="14" lengthAdjust="spacing" textLength="121" x="1174.5" y="90.7285">:AgendaRepository</text><rect fill="#E3E3E3" height="32.6211" rx="2.5" ry="2.5" style="stroke:#181818;stroke-width:0.5;" width="135" x="1167.5" y="1405.6699"/><text fill="#000000" font-family="sans-serif" font-size="14" lengthAdjust="spacing" textLength="121" x="1174.5" y="1427.7773">:AgendaRepository</text><rect fill="#E3E3E3" height="51.2422" rx="2.5" ry="2.5" style="stroke:#181818;stroke-width:0.5;" width="107" x="1440.5" y="50"/><text fill="#000000" font-family="sans-serif" font-size="14" lengthAdjust="spacing" textLength="85" x="1451.5" y="72.1074">EntryDTOList</text><text fill="#000000" font-family="sans-serif" font-size="14" lengthAdjust="spacing" textLength="89" x="1451.5" y="90.7285">:EntryDTOList</text><rect fill="#E3E3E3" height="51.2422" rx="2.5" ry="2.5" style="stroke:#181818;stroke-width:0.5;" width="107" x="1440.5" y="1405.6699"/><text fill="#000000" font-family="sans-serif" font-size="14" lengthAdjust="spacing" textLength="85" x="1451.5" y="1427.7773">EntryDTOList</text><text fill="#000000" font-family="sans-serif" font-size="14" lengthAdjust="spacing" textLength="89" x="1451.5" y="1446.3984">:EntryDTOList</text><rect fill="#E3E3E3" height="51.2422" rx="2.5" ry="2.5" style="stroke:#181818;stroke-width:0.5;" width="51" x="1557.5" y="1405.6699"/><text fill="#000000" font-family="sans-serif" font-size="14" lengthAdjust="spacing" textLength="33" x="1566.5" y="1427.7773">Entry</text><text fill="#000000" font-family="sans-serif" font-size="14" lengthAdjust="spacing" textLength="37" x="1564.5" y="1446.3984">:Entry</text><rect fill="#E3E3E3" height="32.6211" rx="2.5" ry="2.5" style="stroke:#181818;stroke-width:0.5;" width="125" x="1618.5" y="68.6211"/><text fill="#000000" font-family="sans-serif" font-size="14" lengthAdjust="spacing" textLength="111" x="1625.5" y="90.7285">objDto: EntrysDto</text><rect fill="#E3E3E3" height="32.6211" rx="2.5" ry="2.5" style="stroke:#181818;stroke-width:0.5;" width="125" x="1618.5" y="1405.6699"/><text fill="#000000" font-family="sans-serif" font-size="14" lengthAdjust="spacing" textLength="111" x="1625.5" y="1427.7773">objDto: EntrysDto</text><rect fill="#FFFFFF" height="1276.4277" style="stroke:#181818;stroke-width:1.0;" width="10" x="47" y="112.2422"/><rect fill="#FFFFFF" height="638.2383" style="stroke:#181818;stroke-width:1.0;" width="10" x="459" y="135.5332"/><rect fill="#FFFFFF" height="31.291" style="stroke:#181818;stroke-width:1.0;" width="10" x="459" y="805.0625"/><rect fill="#FFFFFF" height="31.291" style="stroke:#181818;stroke-width:1.0;" width="10" x="459" y="867.6445"/><rect fill="#FFFFFF" height="458.4434" style="stroke:#181818;stroke-width:1.0;" width="10" x="459" y="930.2266"/><rect fill="#FFFFFF" height="544.3652" style="stroke:#181818;stroke-width:1.0;" width="10" x="704" y="198.1152"/><rect fill="#FFFFFF" height="395.8613" style="stroke:#181818;stroke-width:1.0;" width="10" x="704" y="961.5176"/><rect fill="#FFFFFF" height="31.291" style="stroke:#181818;stroke-width:1.0;" width="10" x="855.5" y="229.4063"/><rect fill="#FFFFFF" height="31.291" style="stroke:#181818;stroke-width:1.0;" width="10" x="955" y="291.9883"/><rect fill="#FFFFFF" height="31.291" style="stroke:#181818;stroke-width:1.0;" width="10" x="955" y="992.8086"/><rect fill="#FFFFFF" height="294.0371" style="stroke:#181818;stroke-width:1.0;" width="10" x="1039" y="417.1523"/><rect fill="#FFFFFF" height="36.291" style="stroke:#181818;stroke-width:1.0;" width="10" x="1044" y="575.3164"/><rect fill="#FFFFFF" height="31.291" style="stroke:#181818;stroke-width:1.0;" width="10" x="1230" y="354.5703"/><rect fill="#FFFFFF" height="30" style="stroke:#181818;stroke-width:1.0;" width="10" x="1230" y="506.0254"/><rect fill="#FFFFFF" height="270.6973" style="stroke:#181818;stroke-width:1.0;" width="10" x="1230" y="1055.3906"/><rect fill="#FFFFFF" height="130.873" style="stroke:#181818;stroke-width:1.0;" width="10" x="1235" y="1156.9238"/><rect fill="#FFFFFF" height="42.291" style="stroke:#181818;stroke-width:1.0;" width="10" x="1240" y="1201.2148"/><rect fill="#FFFFFF" height="30" style="stroke:#181818;stroke-width:1.0;" width="10" x="1489" y="642.8984"/><polygon fill="#181818" points="447,131.5332,457,135.5332,447,139.5332,451,135.5332" style="stroke:#181818;stroke-width:1.0;"/><line style="stroke:#181818;stroke-width:1.0;" x1="57" x2="453" y1="135.5332" y2="135.5332"/><text fill="#000000" font-family="sans-serif" font-size="13" font-weight="bold" lengthAdjust="spacing" textLength="7" x="64" y="130.2705">1</text><text fill="#000000" font-family="sans-serif" font-size="13" lengthAdjust="spacing" textLength="173" x="75" y="130.2705">asks to postpone a task entry</text><polygon fill="#181818" points="697,162.8242,707,166.8242,697,170.8242,701,166.8242" style="stroke:#181818;stroke-width:1.0;"/><line style="stroke:#181818;stroke-width:1.0;" x1="469" x2="703" y1="166.8242" y2="166.8242"/><text fill="#000000" font-family="sans-serif" font-size="13" font-weight="bold" lengthAdjust="spacing" textLength="7" x="476" y="161.5615">2</text><text fill="#000000" font-family="sans-serif" font-size="13" lengthAdjust="spacing" textLength="36" x="487" y="161.5615">create</text><polygon fill="#181818" points="692,194.1152,702,198.1152,692,202.1152,696,198.1152" style="stroke:#181818;stroke-width:1.0;"/><line style="stroke:#181818;stroke-width:1.0;" x1="469" x2="698" y1="198.1152" y2="198.1152"/><text fill="#000000" font-family="sans-serif" font-size="13" font-weight="bold" lengthAdjust="spacing" textLength="7" x="476" y="192.8525">3</text><text fill="#000000" font-family="sans-serif" font-size="13" lengthAdjust="spacing" textLength="205" x="487" y="192.8525">getPlannedAndPostponedAnEntry()</text><polygon fill="#181818" points="843.5,225.4063,853.5,229.4063,843.5,233.4063,847.5,229.4063" style="stroke:#181818;stroke-width:1.0;"/><line style="stroke:#181818;stroke-width:1.0;" x1="714" x2="849.5" y1="229.4063" y2="229.4063"/><text fill="#000000" font-family="sans-serif" font-size="13" font-weight="bold" lengthAdjust="spacing" textLength="7" x="721" y="224.1436">4</text><text fill="#000000" font-family="sans-serif" font-size="13" lengthAdjust="spacing" textLength="75" x="732" y="224.1436">getInstance()</text><polygon fill="#181818" points="725,256.6973,715,260.6973,725,264.6973,721,260.6973" style="stroke:#181818;stroke-width:1.0;"/><line style="stroke:#181818;stroke-width:1.0;stroke-dasharray:2.0,2.0;" x1="719" x2="859.5" y1="260.6973" y2="260.6973"/><text fill="#000000" font-family="sans-serif" font-size="13" font-weight="bold" lengthAdjust="spacing" textLength="7" x="731" y="255.4346">5</text><text fill="#000000" font-family="sans-serif" font-size="13" lengthAdjust="spacing" textLength="67" x="742" y="255.4346">repositories</text><polygon fill="#181818" points="943,287.9883,953,291.9883,943,295.9883,947,291.9883" style="stroke:#181818;stroke-width:1.0;"/><line style="stroke:#181818;stroke-width:1.0;" x1="714" x2="949" y1="291.9883" y2="291.9883"/><text fill="#000000" font-family="sans-serif" font-size="13" font-weight="bold" lengthAdjust="spacing" textLength="7" x="721" y="286.7256">6</text><text fill="#000000" font-family="sans-serif" font-size="13" lengthAdjust="spacing" textLength="132" x="732" y="286.7256">getAgendaRepository()</text><polygon fill="#181818" points="725,319.2793,715,323.2793,725,327.2793,721,323.2793" style="stroke:#181818;stroke-width:1.0;"/><line style="stroke:#181818;stroke-width:1.0;stroke-dasharray:2.0,2.0;" x1="719" x2="959" y1="323.2793" y2="323.2793"/><text fill="#000000" font-family="sans-serif" font-size="13" font-weight="bold" lengthAdjust="spacing" textLength="7" x="731" y="318.0166">7</text><text fill="#000000" font-family="sans-serif" font-size="13" lengthAdjust="spacing" textLength="106" x="742" y="318.0166">AgendaRepository</text><polygon fill="#181818" points="1218,350.5703,1228,354.5703,1218,358.5703,1222,354.5703" style="stroke:#181818;stroke-width:1.0;"/><line style="stroke:#181818;stroke-width:1.0;" x1="714" x2="1224" y1="354.5703" y2="354.5703"/><text fill="#000000" font-family="sans-serif" font-size="13" font-weight="bold" lengthAdjust="spacing" textLength="7" x="721" y="349.3076">8</text><text fill="#000000" font-family="sans-serif" font-size="13" lengthAdjust="spacing" textLength="205" x="732" y="349.3076">getPlannedAndPostponedAnEntry()</text><polygon fill="#181818" points="725,381.8613,715,385.8613,725,389.8613,721,385.8613" style="stroke:#181818;stroke-width:1.0;"/><line style="stroke:#181818;stroke-width:1.0;stroke-dasharray:2.0,2.0;" x1="719" x2="1234" y1="385.8613" y2="385.8613"/><text fill="#000000" font-family="sans-serif" font-size="13" font-weight="bold" lengthAdjust="spacing" textLength="7" x="731" y="380.5986">9</text><text fill="#000000" font-family="sans-serif" font-size="13" lengthAdjust="spacing" textLength="62" x="742" y="380.5986">EntriesList</text><polygon fill="#181818" points="1027,413.1523,1037,417.1523,1027,421.1523,1031,417.1523" style="stroke:#181818;stroke-width:1.0;"/><line style="stroke:#181818;stroke-width:1.0;" x1="714" x2="1033" y1="417.1523" y2="417.1523"/><text fill="#000000" font-family="sans-serif" font-size="13" font-weight="bold" lengthAdjust="spacing" textLength="14" x="721" y="411.8896">10</text><text fill="#000000" font-family="sans-serif" font-size="13" lengthAdjust="spacing" textLength="131" x="739" y="411.8896">ToDTOList(EntriesList)</text><polygon fill="#181818" points="1482,444.4434,1492,448.4434,1482,452.4434,1486,448.4434" style="stroke:#181818;stroke-width:1.0;"/><line style="stroke:#181818;stroke-width:1.0;" x1="1049" x2="1488" y1="448.4434" y2="448.4434"/><text fill="#000000" font-family="sans-serif" font-size="13" font-weight="bold" lengthAdjust="spacing" textLength="14" x="1056" y="443.1807">11</text><text fill="#000000" font-family="sans-serif" font-size="13" lengthAdjust="spacing" textLength="46" x="1074" y="443.1807">Create()</text><path d="M1003,463.4434 L1076,463.4434 L1076,472.7344 L1066,482.7344 L1003,482.7344 L1003,463.4434 " fill="#EEEEEE" style="stroke:#000000;stroke-width:1.5;"/><rect fill="none" height="217.4551" style="stroke:#000000;stroke-width:1.5;" width="750.5" x="1003" y="463.4434"/><text fill="#000000" font-family="sans-serif" font-size="13" font-weight="bold" lengthAdjust="spacing" textLength="28" x="1018" y="478.4717">loop</text><text fill="#000000" font-family="sans-serif" font-size="11" font-weight="bold" lengthAdjust="spacing" textLength="251" x="1091" y="477.3135">[for each green space in the green space list]</text><polygon fill="#181818" points="1218,502.0254,1228,506.0254,1218,510.0254,1222,506.0254" style="stroke:#181818;stroke-width:1.0;"/><line style="stroke:#181818;stroke-width:1.0;" x1="1049" x2="1224" y1="506.0254" y2="506.0254"/><text fill="#000000" font-family="sans-serif" font-size="13" font-weight="bold" lengthAdjust="spacing" textLength="14" x="1056" y="500.7627">12</text><text fill="#000000" font-family="sans-serif" font-size="13" lengthAdjust="spacing" textLength="76" x="1074" y="500.7627">Entry = get(i)</text><line style="stroke:#181818;stroke-width:1.0;" x1="1049" x2="1096" y1="562.3164" y2="562.3164"/><line style="stroke:#181818;stroke-width:1.0;" x1="1096" x2="1096" y1="562.3164" y2="575.3164"/><line style="stroke:#181818;stroke-width:1.0;" x1="1055" x2="1096" y1="575.3164" y2="575.3164"/><polygon fill="#181818" points="1065,571.3164,1055,575.3164,1065,579.3164,1061,575.3164" style="stroke:#181818;stroke-width:1.0;"/><text fill="#000000" font-family="sans-serif" font-size="13" font-weight="bold" lengthAdjust="spacing" textLength="14" x="1061" y="557.0537">13</text><text fill="#000000" font-family="sans-serif" font-size="13" lengthAdjust="spacing" textLength="149" x="1079" y="557.0537">EntryDTO = toDTO(Entry)</text><polygon fill="#181818" points="1669,607.6074,1679,611.6074,1669,615.6074,1673,611.6074" style="stroke:#181818;stroke-width:1.0;"/><line style="stroke:#181818;stroke-width:1.0;" x1="1049" x2="1675" y1="611.6074" y2="611.6074"/><text fill="#000000" font-family="sans-serif" font-size="13" font-weight="bold" lengthAdjust="spacing" textLength="14" x="1056" y="606.3447">14</text><text fill="#000000" font-family="sans-serif" font-size="13" lengthAdjust="spacing" textLength="56" x="1074" y="606.3447">create(...)</text><polygon fill="#181818" points="1477,638.8984,1487,642.8984,1477,646.8984,1481,642.8984" style="stroke:#181818;stroke-width:1.0;"/><line style="stroke:#181818;stroke-width:1.0;" x1="1049" x2="1483" y1="642.8984" y2="642.8984"/><text fill="#000000" font-family="sans-serif" font-size="13" font-weight="bold" lengthAdjust="spacing" textLength="14" x="1056" y="637.6357">15</text><text fill="#000000" font-family="sans-serif" font-size="13" lengthAdjust="spacing" textLength="80" x="1074" y="637.6357">add(EntryDto)</text><polygon fill="#181818" points="725,707.1895,715,711.1895,725,715.1895,721,711.1895" style="stroke:#181818;stroke-width:1.0;"/><line style="stroke:#181818;stroke-width:1.0;" x1="719" x2="1043" y1="711.1895" y2="711.1895"/><text fill="#000000" font-family="sans-serif" font-size="13" font-weight="bold" lengthAdjust="spacing" textLength="14" x="731" y="705.9268">16</text><text fill="#000000" font-family="sans-serif" font-size="13" lengthAdjust="spacing" textLength="72" x="749" y="705.9268">EntryDtoList</text><polygon fill="#181818" points="480,738.4805,470,742.4805,480,746.4805,476,742.4805" style="stroke:#181818;stroke-width:1.0;"/><line style="stroke:#181818;stroke-width:1.0;stroke-dasharray:2.0,2.0;" x1="474" x2="708" y1="742.4805" y2="742.4805"/><text fill="#000000" font-family="sans-serif" font-size="13" font-weight="bold" lengthAdjust="spacing" textLength="14" x="486" y="737.2178">17</text><text fill="#000000" font-family="sans-serif" font-size="13" lengthAdjust="spacing" textLength="57" x="504" y="737.2178">EntryDTO</text><polygon fill="#181818" points="68,769.7715,58,773.7715,68,777.7715,64,773.7715" style="stroke:#181818;stroke-width:1.0;"/><line style="stroke:#181818;stroke-width:1.0;stroke-dasharray:2.0,2.0;" x1="62" x2="463" y1="773.7715" y2="773.7715"/><text fill="#000000" font-family="sans-serif" font-size="13" font-weight="bold" lengthAdjust="spacing" textLength="14" x="74" y="768.5088">18</text><text fill="#000000" font-family="sans-serif" font-size="13" lengthAdjust="spacing" textLength="126" x="92" y="768.5088">shows a list of entries</text><polygon fill="#181818" points="447,801.0625,457,805.0625,447,809.0625,451,805.0625" style="stroke:#181818;stroke-width:1.0;"/><line style="stroke:#181818;stroke-width:1.0;" x1="57" x2="453" y1="805.0625" y2="805.0625"/><text fill="#000000" font-family="sans-serif" font-size="13" font-weight="bold" lengthAdjust="spacing" textLength="14" x="64" y="799.7998">19</text><text fill="#000000" font-family="sans-serif" font-size="13" lengthAdjust="spacing" textLength="93" x="82" y="799.7998">selects an entry</text><polygon fill="#181818" points="68,832.3535,58,836.3535,68,840.3535,64,836.3535" style="stroke:#181818;stroke-width:1.0;"/><line style="stroke:#181818;stroke-width:1.0;stroke-dasharray:2.0,2.0;" x1="62" x2="463" y1="836.3535" y2="836.3535"/><text fill="#000000" font-family="sans-serif" font-size="13" font-weight="bold" lengthAdjust="spacing" textLength="14" x="74" y="831.0908">20</text><text fill="#000000" font-family="sans-serif" font-size="13" lengthAdjust="spacing" textLength="203" x="92" y="831.0908">requests data (new date, new time)</text><polygon fill="#181818" points="447,863.6445,457,867.6445,447,871.6445,451,867.6445" style="stroke:#181818;stroke-width:1.0;"/><line style="stroke:#181818;stroke-width:1.0;" x1="57" x2="453" y1="867.6445" y2="867.6445"/><text fill="#000000" font-family="sans-serif" font-size="13" font-weight="bold" lengthAdjust="spacing" textLength="14" x="64" y="862.3818">21</text><text fill="#000000" font-family="sans-serif" font-size="13" lengthAdjust="spacing" textLength="61" x="82" y="862.3818">types data</text><polygon fill="#181818" points="68,894.9355,58,898.9355,68,902.9355,64,898.9355" style="stroke:#181818;stroke-width:1.0;"/><line style="stroke:#181818;stroke-width:1.0;stroke-dasharray:2.0,2.0;" x1="62" x2="463" y1="898.9355" y2="898.9355"/><text fill="#000000" font-family="sans-serif" font-size="13" font-weight="bold" lengthAdjust="spacing" textLength="14" x="74" y="893.6729">22</text><text fill="#000000" font-family="sans-serif" font-size="13" lengthAdjust="spacing" textLength="360" x="92" y="893.6729">shows all data and requests confirmation (new date, new time)</text><polygon fill="#181818" points="447,926.2266,457,930.2266,447,934.2266,451,930.2266" style="stroke:#181818;stroke-width:1.0;"/><line style="stroke:#181818;stroke-width:1.0;" x1="57" x2="453" y1="930.2266" y2="930.2266"/><text fill="#000000" font-family="sans-serif" font-size="13" font-weight="bold" lengthAdjust="spacing" textLength="14" x="64" y="924.9639">23</text><text fill="#000000" font-family="sans-serif" font-size="13" lengthAdjust="spacing" textLength="78" x="82" y="924.9639">confirms data</text><polygon fill="#181818" points="692,957.5176,702,961.5176,692,965.5176,696,961.5176" style="stroke:#181818;stroke-width:1.0;"/><line style="stroke:#181818;stroke-width:1.0;" x1="469" x2="698" y1="961.5176" y2="961.5176"/><text fill="#000000" font-family="sans-serif" font-size="13" font-weight="bold" lengthAdjust="spacing" textLength="14" x="476" y="956.2549">24</text><text fill="#000000" font-family="sans-serif" font-size="13" lengthAdjust="spacing" textLength="109" x="494" y="956.2549">save updated entry</text><polygon fill="#181818" points="943,988.8086,953,992.8086,943,996.8086,947,992.8086" style="stroke:#181818;stroke-width:1.0;"/><line style="stroke:#181818;stroke-width:1.0;" x1="714" x2="949" y1="992.8086" y2="992.8086"/><text fill="#000000" font-family="sans-serif" font-size="13" font-weight="bold" lengthAdjust="spacing" textLength="14" x="721" y="987.5459">25</text><text fill="#000000" font-family="sans-serif" font-size="13" lengthAdjust="spacing" textLength="132" x="739" y="987.5459">getAgendaRepository()</text><polygon fill="#181818" points="725,1020.0996,715,1024.0996,725,1028.0996,721,1024.0996" style="stroke:#181818;stroke-width:1.0;"/><line style="stroke:#181818;stroke-width:1.0;stroke-dasharray:2.0,2.0;" x1="719" x2="959" y1="1024.0996" y2="1024.0996"/><text fill="#000000" font-family="sans-serif" font-size="13" font-weight="bold" lengthAdjust="spacing" textLength="14" x="731" y="1018.8369">26</text><text fill="#000000" font-family="sans-serif" font-size="13" lengthAdjust="spacing" textLength="106" x="749" y="1018.8369">AgendaRepository</text><polygon fill="#181818" points="1218,1051.3906,1228,1055.3906,1218,1059.3906,1222,1055.3906" style="stroke:#181818;stroke-width:1.0;"/><line style="stroke:#181818;stroke-width:1.0;" x1="714" x2="1224" y1="1055.3906" y2="1055.3906"/><text fill="#000000" font-family="sans-serif" font-size="13" font-weight="bold" lengthAdjust="spacing" textLength="14" x="721" y="1050.1279">27</text><text fill="#000000" font-family="sans-serif" font-size="13" lengthAdjust="spacing" textLength="109" x="739" y="1050.1279">save updated entry</text><polygon fill="#181818" points="1545.5,1082.6816,1555.5,1086.6816,1545.5,1090.6816,1549.5,1086.6816" style="stroke:#181818;stroke-width:1.0;"/><line style="stroke:#181818;stroke-width:1.0;" x1="1240" x2="1551.5" y1="1086.6816" y2="1086.6816"/><text fill="#000000" font-family="sans-serif" font-size="13" font-weight="bold" lengthAdjust="spacing" textLength="14" x="1247" y="1081.4189">28</text><text fill="#000000" font-family="sans-serif" font-size="13" lengthAdjust="spacing" textLength="197" x="1265" y="1081.4189">updatedEntry(new date, new time)</text><rect fill="#E3E3E3" height="51.2422" rx="2.5" ry="2.5" style="stroke:#181818;stroke-width:0.5;" width="51" x="1557.5" y="1063.3906"/><text fill="#000000" font-family="sans-serif" font-size="14" lengthAdjust="spacing" textLength="33" x="1566.5" y="1085.498">Entry</text><text fill="#000000" font-family="sans-serif" font-size="14" lengthAdjust="spacing" textLength="37" x="1564.5" y="1104.1191">:Entry</text><line style="stroke:#181818;stroke-width:1.0;stroke-dasharray:2.0,2.0;" x1="1240" x2="1287" y1="1143.9238" y2="1143.9238"/><line style="stroke:#181818;stroke-width:1.0;stroke-dasharray:2.0,2.0;" x1="1287" x2="1287" y1="1143.9238" y2="1156.9238"/><line style="stroke:#181818;stroke-width:1.0;stroke-dasharray:2.0,2.0;" x1="1246" x2="1287" y1="1156.9238" y2="1156.9238"/><polygon fill="#181818" points="1256,1152.9238,1246,1156.9238,1256,1160.9238,1252,1156.9238" style="stroke:#181818;stroke-width:1.0;"/><text fill="#000000" font-family="sans-serif" font-size="13" font-weight="bold" lengthAdjust="spacing" textLength="14" x="1252" y="1138.6611">29</text><text fill="#000000" font-family="sans-serif" font-size="13" lengthAdjust="spacing" textLength="217" x="1270" y="1138.6611">validatePostponement(postponement)</text><line style="stroke:#181818;stroke-width:1.0;stroke-dasharray:2.0,2.0;" x1="1245" x2="1292" y1="1188.2148" y2="1188.2148"/><line style="stroke:#181818;stroke-width:1.0;stroke-dasharray:2.0,2.0;" x1="1292" x2="1292" y1="1188.2148" y2="1201.2148"/><line style="stroke:#181818;stroke-width:1.0;stroke-dasharray:2.0,2.0;" x1="1251" x2="1292" y1="1201.2148" y2="1201.2148"/><polygon fill="#181818" points="1261,1197.2148,1251,1201.2148,1261,1205.2148,1257,1201.2148" style="stroke:#181818;stroke-width:1.0;"/><text fill="#000000" font-family="sans-serif" font-size="13" font-weight="bold" lengthAdjust="spacing" textLength="14" x="1257" y="1182.9521">30</text><text fill="#000000" font-family="sans-serif" font-size="13" lengthAdjust="spacing" textLength="200" x="1275" y="1182.9521">savePostponement(postponement)</text><line style="stroke:#181818;stroke-width:1.0;stroke-dasharray:2.0,2.0;" x1="1250" x2="1292" y1="1242.5059" y2="1242.5059"/><line style="stroke:#181818;stroke-width:1.0;stroke-dasharray:2.0,2.0;" x1="1292" x2="1292" y1="1242.5059" y2="1255.5059"/><line style="stroke:#181818;stroke-width:1.0;stroke-dasharray:2.0,2.0;" x1="1245" x2="1292" y1="1255.5059" y2="1255.5059"/><polygon fill="#181818" points="1255,1251.5059,1245,1255.5059,1255,1259.5059,1251,1255.5059" style="stroke:#181818;stroke-width:1.0;"/><text fill="#000000" font-family="sans-serif" font-size="13" font-weight="bold" lengthAdjust="spacing" textLength="14" x="1257" y="1237.2432">31</text><text fill="#000000" font-family="sans-serif" font-size="13" lengthAdjust="spacing" textLength="4" x="1275" y="1237.2432">&#160;</text><line style="stroke:#181818;stroke-width:1.0;stroke-dasharray:2.0,2.0;" x1="1245" x2="1287" y1="1286.7969" y2="1286.7969"/><line style="stroke:#181818;stroke-width:1.0;stroke-dasharray:2.0,2.0;" x1="1287" x2="1287" y1="1286.7969" y2="1299.7969"/><line style="stroke:#181818;stroke-width:1.0;stroke-dasharray:2.0,2.0;" x1="1240" x2="1287" y1="1299.7969" y2="1299.7969"/><polygon fill="#181818" points="1250,1295.7969,1240,1299.7969,1250,1303.7969,1246,1299.7969" style="stroke:#181818;stroke-width:1.0;"/><text fill="#000000" font-family="sans-serif" font-size="13" font-weight="bold" lengthAdjust="spacing" textLength="14" x="1252" y="1281.5342">32</text><text fill="#000000" font-family="sans-serif" font-size="13" lengthAdjust="spacing" textLength="4" x="1270" y="1281.5342">&#160;</text><polygon fill="#181818" points="725,1322.0879,715,1326.0879,725,1330.0879,721,1326.0879" style="stroke:#181818;stroke-width:1.0;"/><line style="stroke:#181818;stroke-width:1.0;stroke-dasharray:2.0,2.0;" x1="719" x2="1234" y1="1326.0879" y2="1326.0879"/><text fill="#000000" font-family="sans-serif" font-size="13" font-weight="bold" lengthAdjust="spacing" textLength="14" x="731" y="1320.8252">33</text><text fill="#000000" font-family="sans-serif" font-size="13" lengthAdjust="spacing" textLength="31" x="749" y="1320.8252">Entry</text><polygon fill="#181818" points="480,1353.3789,470,1357.3789,480,1361.3789,476,1357.3789" style="stroke:#181818;stroke-width:1.0;"/><line style="stroke:#181818;stroke-width:1.0;stroke-dasharray:2.0,2.0;" x1="474" x2="708" y1="1357.3789" y2="1357.3789"/><text fill="#000000" font-family="sans-serif" font-size="13" font-weight="bold" lengthAdjust="spacing" textLength="14" x="486" y="1352.1162">34</text><text fill="#000000" font-family="sans-serif" font-size="13" lengthAdjust="spacing" textLength="31" x="504" y="1352.1162">Entry</text><polygon fill="#181818" points="63,1384.6699,53,1388.6699,63,1392.6699,59,1388.6699" style="stroke:#181818;stroke-width:1.0;"/><line style="stroke:#181818;stroke-width:1.0;stroke-dasharray:2.0,2.0;" x1="57" x2="463" y1="1388.6699" y2="1388.6699"/><text fill="#000000" font-family="sans-serif" font-size="13" font-weight="bold" lengthAdjust="spacing" textLength="14" x="69" y="1383.4072">35</text><text fill="#000000" font-family="sans-serif" font-size="13" lengthAdjust="spacing" textLength="158" x="87" y="1383.4072">displays operation success</text><!--SRC=[lLPDJ-Cm4BtdLuouR8iMVa2aHOfWLLKBsegM6nUJJ5ilYPsrNTZ- -nqx7pY94me7ScYJUERDcmy_HpzpKJB52YYaaEbUoGB1g0D6kbqfMVhCThWsnnn1OMgOsEM-WTwpJBvoiOCjopL64JiOAGx54wee-hRd6S9MIlCa_qKiDLB1sK8X2bWJCiAZW3icA80w0wOXkRcB2DRmb9TC63YBLrARKWfCn4zXrF5XwUmUbjDcrv9-PPxNiDUR-zkkmpsMKdEYmr4xa_R5SSrjXfH3rqEr1eyYVhDspglRPDCZP6aqs7V9ghUQx51ah8VoSB_echbKRZQ_RxasLAZOVtOUT1y5N8YW-tSscsJzgsiZd_xS61c3iz5qw-mM3ipsYBymWwuL4T15Dt1nHIM7cEoUDHW9PLrkO63e7Q25SjQjFxK8wejS2S0sWI1IXRGSNjkXMULC2CmIaJKjpUgUpkQjKnl4DRPzRI-7H8Y1VbO1baBJ3AVemNKWGuFGiRHN2FtYBG_bJLV7DyFJupIPsE6ggFUdPYm5Duu3pWx78zb76oCwH6kOqS1-e6dTwQ1P7p2qU1x1UWlPQH_ZDe1fgD6M8uIDh7VBpCCQOMGtQP-GHI4m0edXsirjBnzxvLAM974AYDOUTaxSj1CtBi3iiVCgxoVZXQ5awaq9FsnLPtmOh9DvVx5Nc94mz5U7eRmeah55SWKwJiIRAC_2rQVQrxFBoylv5B7toioohE92kZIFnlbOjPe84rgcSHyBRSUcAOgHKnDd-GSchX78fgvHmBKhLbRuoCkgQqo7g7pL9APsF41kdPussk5tTHdvQgmnfmEP_CI808U3AVnxG4r-6JCCPW9VxHr-1tjdU87pGDp1KM2E9LOG9uQjSyppAYuJsHkJL8ejLmKpd8Jqiunga15ImzD6inU4GsaZPLu1JpXaFYNF9qZqXsNwNQaUodKWwscL2RBq5VlAVMESdnDuZLj9_rWRfx1QcYyivzQvEL0AeZehlOT9h4aT78rfI_DbyQRCtX7ohm3qpk3Z9v03gZYcgE7jrP6EZEioPqSDiaHLYOG-f2dgqQyhx-lJUsk_QVy3]--></g></svg>