<?xml version="1.0" encoding="us-ascii" standalone="no"?><svg xmlns="http://www.w3.org/2000/svg" xmlns:xlink="http://www.w3.org/1999/xlink" contentStyleType="text/css" height="652px" preserveAspectRatio="none" style="width:905px;height:652px;background:#FFFFFF;" version="1.1" viewBox="0 0 905 652" width="905px" zoomAndPan="magnify"><defs/><g><!--class Vehicle--><g id="elem_Vehicle"><rect codeLine="12" fill="#F1F1F1" height="308.6953" id="Vehicle" rx="2.5" ry="2.5" style="stroke:#181818;stroke-width:0.5;" width="218" x="576" y="337"/><ellipse cx="657.75" cy="353" fill="#ADD1B2" rx="11" ry="11" style="stroke:#181818;stroke-width:1.0;"/><path d="M660.5156,348.875 Q660.6719,348.6563 660.8594,348.5469 Q661.0469,348.4375 661.2656,348.4375 Q661.6406,348.4375 661.875,348.7031 Q662.1094,348.9531 662.1094,349.5625 L662.1094,351.0156 Q662.1094,351.625 661.875,351.8906 Q661.6406,352.1563 661.2656,352.1563 Q660.9219,352.1563 660.7188,351.9531 Q660.5156,351.7656 660.4063,351.25 Q660.3594,350.8906 660.1719,350.7031 Q659.8438,350.3281 659.2344,350.1094 Q658.625,349.8906 658,349.8906 Q657.2344,349.8906 656.5938,350.2188 Q655.9688,350.5469 655.4688,351.2969 Q654.9844,352.0469 654.9844,353.0781 L654.9844,354.1719 Q654.9844,355.4063 655.875,356.2344 Q656.7656,357.0469 658.3594,357.0469 Q659.2969,357.0469 659.9531,356.7969 Q660.3438,356.6406 660.7656,356.2031 Q661.0313,355.9375 661.1719,355.8594 Q661.3281,355.7813 661.5313,355.7813 Q661.8594,355.7813 662.1094,356.0469 Q662.375,356.2969 662.375,356.6406 Q662.375,356.9844 662.0313,357.3906 Q661.5313,357.9688 660.7344,358.2969 Q659.6563,358.75 658.3594,358.75 Q656.8438,358.75 655.6406,358.125 Q654.6563,357.625 653.9688,356.5625 Q653.2813,355.4844 653.2813,354.2031 L653.2813,353.0469 Q653.2813,351.7188 653.8906,350.5781 Q654.5156,349.4219 655.6094,348.8125 Q656.7031,348.1875 657.9375,348.1875 Q658.6719,348.1875 659.3125,348.3594 Q659.9688,348.5156 660.5156,348.875 Z " fill="#000000"/><text fill="#000000" font-family="sans-serif" font-size="14" lengthAdjust="spacing" textLength="46" x="678.25" y="358.7969">Vehicle</text><line style="stroke:#181818;stroke-width:0.5;" x1="577" x2="793" y1="369" y2="369"/><text fill="#000000" font-family="sans-serif" font-size="14" lengthAdjust="spacing" textLength="16" x="582" y="388.1074">-id</text><text fill="#000000" font-family="sans-serif" font-size="14" lengthAdjust="spacing" textLength="42" x="582" y="406.7285">-brand</text><text fill="#000000" font-family="sans-serif" font-size="14" lengthAdjust="spacing" textLength="43" x="582" y="425.3496">-model</text><text fill="#000000" font-family="sans-serif" font-size="14" lengthAdjust="spacing" textLength="32" x="582" y="443.9707">-type</text><text fill="#000000" font-family="sans-serif" font-size="14" lengthAdjust="spacing" textLength="30" x="582" y="462.5918">-tare</text><text fill="#000000" font-family="sans-serif" font-size="14" lengthAdjust="spacing" textLength="45" x="582" y="481.2129">-weight</text><text fill="#000000" font-family="sans-serif" font-size="14" lengthAdjust="spacing" textLength="30" x="582" y="499.834">-kms</text><text fill="#000000" font-family="sans-serif" font-size="14" lengthAdjust="spacing" textLength="89" x="582" y="518.4551">-register_date</text><text fill="#000000" font-family="sans-serif" font-size="14" lengthAdjust="spacing" textLength="108" x="582" y="537.0762">-acquisition_date</text><text fill="#000000" font-family="sans-serif" font-size="14" lengthAdjust="spacing" textLength="86" x="582" y="555.6973">-maintenance</text><line style="stroke:#181818;stroke-width:0.5;" x1="577" x2="793" y1="563.2109" y2="563.2109"/><text fill="#000000" font-family="sans-serif" font-size="14" lengthAdjust="spacing" textLength="201" x="582" y="582.3184">+Vehicle(id, brand, model , tyre,</text><text fill="#000000" font-family="sans-serif" font-size="14" lengthAdjust="spacing" textLength="202" x="586" y="600.9395">tare, weight, kms, register_date,</text><text fill="#000000" font-family="sans-serif" font-size="14" lengthAdjust="spacing" textLength="197" x="586" y="619.5605">acquisition_date, maintenance)</text><text fill="#000000" font-family="sans-serif" font-size="14" lengthAdjust="spacing" textLength="154" x="582" y="638.1816">+getVehicleByPlateId(id)</text></g><!--class Sorting--><g id="elem_Sorting"><rect codeLine="28" fill="#F1F1F1" height="85.2422" id="Sorting" rx="2.5" ry="2.5" style="stroke:#181818;stroke-width:0.5;" width="144" x="196" y="449"/><ellipse cx="241.25" cy="465" fill="#ADD1B2" rx="11" ry="11" style="stroke:#181818;stroke-width:1.0;"/><path d="M244.0156,460.875 Q244.1719,460.6563 244.3594,460.5469 Q244.5469,460.4375 244.7656,460.4375 Q245.1406,460.4375 245.375,460.7031 Q245.6094,460.9531 245.6094,461.5625 L245.6094,463.0156 Q245.6094,463.625 245.375,463.8906 Q245.1406,464.1563 244.7656,464.1563 Q244.4219,464.1563 244.2188,463.9531 Q244.0156,463.7656 243.9063,463.25 Q243.8594,462.8906 243.6719,462.7031 Q243.3438,462.3281 242.7344,462.1094 Q242.125,461.8906 241.5,461.8906 Q240.7344,461.8906 240.0938,462.2188 Q239.4688,462.5469 238.9688,463.2969 Q238.4844,464.0469 238.4844,465.0781 L238.4844,466.1719 Q238.4844,467.4063 239.375,468.2344 Q240.2656,469.0469 241.8594,469.0469 Q242.7969,469.0469 243.4531,468.7969 Q243.8438,468.6406 244.2656,468.2031 Q244.5313,467.9375 244.6719,467.8594 Q244.8281,467.7813 245.0313,467.7813 Q245.3594,467.7813 245.6094,468.0469 Q245.875,468.2969 245.875,468.6406 Q245.875,468.9844 245.5313,469.3906 Q245.0313,469.9688 244.2344,470.2969 Q243.1563,470.75 241.8594,470.75 Q240.3438,470.75 239.1406,470.125 Q238.1563,469.625 237.4688,468.5625 Q236.7813,467.4844 236.7813,466.2031 L236.7813,465.0469 Q236.7813,463.7188 237.3906,462.5781 Q238.0156,461.4219 239.1094,460.8125 Q240.2031,460.1875 241.4375,460.1875 Q242.1719,460.1875 242.8125,460.3594 Q243.4688,460.5156 244.0156,460.875 Z " fill="#000000"/><text fill="#000000" font-family="sans-serif" font-size="14" lengthAdjust="spacing" textLength="45" x="261.75" y="470.7969">Sorting</text><line style="stroke:#181818;stroke-width:0.5;" x1="197" x2="339" y1="481" y2="481"/><text fill="#000000" font-family="sans-serif" font-size="14" lengthAdjust="spacing" textLength="115" x="202" y="500.1074">-String description</text><line style="stroke:#181818;stroke-width:0.5;" x1="197" x2="339" y1="507.6211" y2="507.6211"/><text fill="#000000" font-family="sans-serif" font-size="14" lengthAdjust="spacing" textLength="132" x="202" y="526.7285">+Sorting(description)</text></g><!--class SortingRepository--><g id="elem_SortingRepository"><rect codeLine="34" fill="#F1F1F1" height="66.6211" id="SortingRepository" rx="2.5" ry="2.5" style="stroke:#181818;stroke-width:0.5;" width="251" x="319.5" y="209"/><ellipse cx="384.25" cy="225" fill="#ADD1B2" rx="11" ry="11" style="stroke:#181818;stroke-width:1.0;"/><path d="M387.0156,220.875 Q387.1719,220.6563 387.3594,220.5469 Q387.5469,220.4375 387.7656,220.4375 Q388.1406,220.4375 388.375,220.7031 Q388.6094,220.9531 388.6094,221.5625 L388.6094,223.0156 Q388.6094,223.625 388.375,223.8906 Q388.1406,224.1563 387.7656,224.1563 Q387.4219,224.1563 387.2188,223.9531 Q387.0156,223.7656 386.9063,223.25 Q386.8594,222.8906 386.6719,222.7031 Q386.3438,222.3281 385.7344,222.1094 Q385.125,221.8906 384.5,221.8906 Q383.7344,221.8906 383.0938,222.2188 Q382.4688,222.5469 381.9688,223.2969 Q381.4844,224.0469 381.4844,225.0781 L381.4844,226.1719 Q381.4844,227.4063 382.375,228.2344 Q383.2656,229.0469 384.8594,229.0469 Q385.7969,229.0469 386.4531,228.7969 Q386.8438,228.6406 387.2656,228.2031 Q387.5313,227.9375 387.6719,227.8594 Q387.8281,227.7813 388.0313,227.7813 Q388.3594,227.7813 388.6094,228.0469 Q388.875,228.2969 388.875,228.6406 Q388.875,228.9844 388.5313,229.3906 Q388.0313,229.9688 387.2344,230.2969 Q386.1563,230.75 384.8594,230.75 Q383.3438,230.75 382.1406,230.125 Q381.1563,229.625 380.4688,228.5625 Q379.7813,227.4844 379.7813,226.2031 L379.7813,225.0469 Q379.7813,223.7188 380.3906,222.5781 Q381.0156,221.4219 382.1094,220.8125 Q383.2031,220.1875 384.4375,220.1875 Q385.1719,220.1875 385.8125,220.3594 Q386.4688,220.5156 387.0156,220.875 Z " fill="#000000"/><text fill="#000000" font-family="sans-serif" font-size="14" lengthAdjust="spacing" textLength="113" x="404.75" y="230.7969">SortingRepository</text><line style="stroke:#181818;stroke-width:0.5;" x1="320.5" x2="569.5" y1="241" y2="241"/><line style="stroke:#181818;stroke-width:0.5;" x1="320.5" x2="569.5" y1="249" y2="249"/><text fill="#000000" font-family="sans-serif" font-size="14" lengthAdjust="spacing" textLength="239" x="325.5" y="268.1074">+getSortingByDescription(description)</text></g><!--class VehicleRepository--><g id="elem_VehicleRepository"><rect codeLine="38" fill="#F1F1F1" height="66.6211" id="VehicleRepository" rx="2.5" ry="2.5" style="stroke:#181818;stroke-width:0.5;" width="166" x="677" y="209"/><ellipse cx="701" cy="225" fill="#ADD1B2" rx="11" ry="11" style="stroke:#181818;stroke-width:1.0;"/><path d="M703.7656,220.875 Q703.9219,220.6563 704.1094,220.5469 Q704.2969,220.4375 704.5156,220.4375 Q704.8906,220.4375 705.125,220.7031 Q705.3594,220.9531 705.3594,221.5625 L705.3594,223.0156 Q705.3594,223.625 705.125,223.8906 Q704.8906,224.1563 704.5156,224.1563 Q704.1719,224.1563 703.9688,223.9531 Q703.7656,223.7656 703.6563,223.25 Q703.6094,222.8906 703.4219,222.7031 Q703.0938,222.3281 702.4844,222.1094 Q701.875,221.8906 701.25,221.8906 Q700.4844,221.8906 699.8438,222.2188 Q699.2188,222.5469 698.7188,223.2969 Q698.2344,224.0469 698.2344,225.0781 L698.2344,226.1719 Q698.2344,227.4063 699.125,228.2344 Q700.0156,229.0469 701.6094,229.0469 Q702.5469,229.0469 703.2031,228.7969 Q703.5938,228.6406 704.0156,228.2031 Q704.2813,227.9375 704.4219,227.8594 Q704.5781,227.7813 704.7813,227.7813 Q705.1094,227.7813 705.3594,228.0469 Q705.625,228.2969 705.625,228.6406 Q705.625,228.9844 705.2813,229.3906 Q704.7813,229.9688 703.9844,230.2969 Q702.9063,230.75 701.6094,230.75 Q700.0938,230.75 698.8906,230.125 Q697.9063,229.625 697.2188,228.5625 Q696.5313,227.4844 696.5313,226.2031 L696.5313,225.0469 Q696.5313,223.7188 697.1406,222.5781 Q697.7656,221.4219 698.8594,220.8125 Q699.9531,220.1875 701.1875,220.1875 Q701.9219,220.1875 702.5625,220.3594 Q703.2188,220.5156 703.7656,220.875 Z " fill="#000000"/><text fill="#000000" font-family="sans-serif" font-size="14" lengthAdjust="spacing" textLength="114" x="717" y="230.7969">VehicleRepository</text><line style="stroke:#181818;stroke-width:0.5;" x1="678" x2="842" y1="241" y2="241"/><line style="stroke:#181818;stroke-width:0.5;" x1="678" x2="842" y1="249" y2="249"/><text fill="#000000" font-family="sans-serif" font-size="14" lengthAdjust="spacing" textLength="154" x="683" y="268.1074">+getVehicleByPlateId(id)</text></g><!--class Repositories--><g id="elem_Repositories"><rect codeLine="42" fill="#F1F1F1" height="141.1055" id="Repositories" rx="2.5" ry="2.5" style="stroke:#181818;stroke-width:0.5;" width="251" x="551.5" y="7"/><ellipse cx="633.25" cy="23" fill="#ADD1B2" rx="11" ry="11" style="stroke:#181818;stroke-width:1.0;"/><path d="M636.0156,18.875 Q636.1719,18.6563 636.3594,18.5469 Q636.5469,18.4375 636.7656,18.4375 Q637.1406,18.4375 637.375,18.7031 Q637.6094,18.9531 637.6094,19.5625 L637.6094,21.0156 Q637.6094,21.625 637.375,21.8906 Q637.1406,22.1563 636.7656,22.1563 Q636.4219,22.1563 636.2188,21.9531 Q636.0156,21.7656 635.9063,21.25 Q635.8594,20.8906 635.6719,20.7031 Q635.3438,20.3281 634.7344,20.1094 Q634.125,19.8906 633.5,19.8906 Q632.7344,19.8906 632.0938,20.2188 Q631.4688,20.5469 630.9688,21.2969 Q630.4844,22.0469 630.4844,23.0781 L630.4844,24.1719 Q630.4844,25.4063 631.375,26.2344 Q632.2656,27.0469 633.8594,27.0469 Q634.7969,27.0469 635.4531,26.7969 Q635.8438,26.6406 636.2656,26.2031 Q636.5313,25.9375 636.6719,25.8594 Q636.8281,25.7813 637.0313,25.7813 Q637.3594,25.7813 637.6094,26.0469 Q637.875,26.2969 637.875,26.6406 Q637.875,26.9844 637.5313,27.3906 Q637.0313,27.9688 636.2344,28.2969 Q635.1563,28.75 633.8594,28.75 Q632.3438,28.75 631.1406,28.125 Q630.1563,27.625 629.4688,26.5625 Q628.7813,25.4844 628.7813,24.2031 L628.7813,23.0469 Q628.7813,21.7188 629.3906,20.5781 Q630.0156,19.4219 631.1094,18.8125 Q632.2031,18.1875 633.4375,18.1875 Q634.1719,18.1875 634.8125,18.3594 Q635.4688,18.5156 636.0156,18.875 Z " fill="#000000"/><text fill="#000000" font-family="sans-serif" font-size="14" lengthAdjust="spacing" textLength="79" x="653.75" y="28.7969">Repositories</text><line style="stroke:#181818;stroke-width:0.5;" x1="552.5" x2="801.5" y1="39" y2="39"/><line style="stroke:#181818;stroke-width:0.5;" x1="552.5" x2="801.5" y1="47" y2="47"/><text fill="#000000" font-family="sans-serif" font-size="14" lengthAdjust="spacing" textLength="94" x="557.5" y="66.1074">-Repositories()</text><text fill="#000000" font-family="sans-serif" font-size="14" lengthAdjust="spacing" textLength="182" x="557.5" y="84.7285">+getInstance() : Repositories</text><text fill="#000000" font-family="sans-serif" font-size="14" lengthAdjust="spacing" textLength="239" x="557.5" y="103.3496">+getSortingByDescription(description)</text><text fill="#000000" font-family="sans-serif" font-size="14" lengthAdjust="spacing" textLength="83" x="557.5" y="121.9707">+getSorting()</text><text fill="#000000" font-family="sans-serif" font-size="14" lengthAdjust="spacing" textLength="154" x="557.5" y="140.5918">+getVehicleByPlateId(id)</text></g><g id="elem_GMN7"><path d="M376.5,469 L376.5,513.582 A0,0 0 0 0 376.5,513.582 L513.5,513.582 A0,0 0 0 0 513.5,513.582 L513.5,479 L503.5,469 L449,469 L445,276.04 L441,469 L376.5,469 A0,0 0 0 0 376.5,469 " fill="#FEFFDD" style="stroke:#181818;stroke-width:0.5;"/><path d="M503.5,469 L503.5,479 L513.5,479 L503.5,469 " fill="#FEFFDD" style="stroke:#181818;stroke-width:0.5;"/><text fill="#000000" font-family="sans-serif" font-size="13" lengthAdjust="spacing" textLength="116" x="382.5" y="488.0283">- used for displaying</text><text fill="#000000" font-family="sans-serif" font-size="13" lengthAdjust="spacing" textLength="82" x="382.5" y="505.3193">the sorting list</text></g><!--class VehicleListUI--><g id="elem_VehicleListUI"><rect codeLine="55" fill="#F1F1F1" height="48" id="VehicleListUI" rx="2.5" ry="2.5" style="stroke:#181818;stroke-width:0.5;" width="112" x="7" y="53.5"/><ellipse cx="22" cy="69.5" fill="#ADD1B2" rx="11" ry="11" style="stroke:#181818;stroke-width:1.0;"/><path d="M24.7656,65.375 Q24.9219,65.1563 25.1094,65.0469 Q25.2969,64.9375 25.5156,64.9375 Q25.8906,64.9375 26.125,65.2031 Q26.3594,65.4531 26.3594,66.0625 L26.3594,67.5156 Q26.3594,68.125 26.125,68.3906 Q25.8906,68.6563 25.5156,68.6563 Q25.1719,68.6563 24.9688,68.4531 Q24.7656,68.2656 24.6563,67.75 Q24.6094,67.3906 24.4219,67.2031 Q24.0938,66.8281 23.4844,66.6094 Q22.875,66.3906 22.25,66.3906 Q21.4844,66.3906 20.8438,66.7188 Q20.2188,67.0469 19.7188,67.7969 Q19.2344,68.5469 19.2344,69.5781 L19.2344,70.6719 Q19.2344,71.9063 20.125,72.7344 Q21.0156,73.5469 22.6094,73.5469 Q23.5469,73.5469 24.2031,73.2969 Q24.5938,73.1406 25.0156,72.7031 Q25.2813,72.4375 25.4219,72.3594 Q25.5781,72.2813 25.7813,72.2813 Q26.1094,72.2813 26.3594,72.5469 Q26.625,72.7969 26.625,73.1406 Q26.625,73.4844 26.2813,73.8906 Q25.7813,74.4688 24.9844,74.7969 Q23.9063,75.25 22.6094,75.25 Q21.0938,75.25 19.8906,74.625 Q18.9063,74.125 18.2188,73.0625 Q17.5313,71.9844 17.5313,70.7031 L17.5313,69.5469 Q17.5313,68.2188 18.1406,67.0781 Q18.7656,65.9219 19.8594,65.3125 Q20.9531,64.6875 22.1875,64.6875 Q22.9219,64.6875 23.5625,64.8594 Q24.2188,65.0156 24.7656,65.375 Z " fill="#000000"/><text fill="#000000" font-family="sans-serif" font-size="14" lengthAdjust="spacing" textLength="80" x="36" y="75.2969">VehicleListUI</text><line style="stroke:#181818;stroke-width:0.5;" x1="8" x2="118" y1="85.5" y2="85.5"/><line style="stroke:#181818;stroke-width:0.5;" x1="8" x2="118" y1="93.5" y2="93.5"/></g><!--class CreateVehicleController--><g id="elem_CreateVehicleController"><rect codeLine="58" fill="#F1F1F1" height="103.8633" id="CreateVehicleController" rx="2.5" ry="2.5" style="stroke:#181818;stroke-width:0.5;" width="294" x="154" y="25.5"/><ellipse cx="221.25" cy="41.5" fill="#ADD1B2" rx="11" ry="11" style="stroke:#181818;stroke-width:1.0;"/><path d="M224.0156,37.375 Q224.1719,37.1563 224.3594,37.0469 Q224.5469,36.9375 224.7656,36.9375 Q225.1406,36.9375 225.375,37.2031 Q225.6094,37.4531 225.6094,38.0625 L225.6094,39.5156 Q225.6094,40.125 225.375,40.3906 Q225.1406,40.6563 224.7656,40.6563 Q224.4219,40.6563 224.2188,40.4531 Q224.0156,40.2656 223.9063,39.75 Q223.8594,39.3906 223.6719,39.2031 Q223.3438,38.8281 222.7344,38.6094 Q222.125,38.3906 221.5,38.3906 Q220.7344,38.3906 220.0938,38.7188 Q219.4688,39.0469 218.9688,39.7969 Q218.4844,40.5469 218.4844,41.5781 L218.4844,42.6719 Q218.4844,43.9063 219.375,44.7344 Q220.2656,45.5469 221.8594,45.5469 Q222.7969,45.5469 223.4531,45.2969 Q223.8438,45.1406 224.2656,44.7031 Q224.5313,44.4375 224.6719,44.3594 Q224.8281,44.2813 225.0313,44.2813 Q225.3594,44.2813 225.6094,44.5469 Q225.875,44.7969 225.875,45.1406 Q225.875,45.4844 225.5313,45.8906 Q225.0313,46.4688 224.2344,46.7969 Q223.1563,47.25 221.8594,47.25 Q220.3438,47.25 219.1406,46.625 Q218.1563,46.125 217.4688,45.0625 Q216.7813,43.9844 216.7813,42.7031 L216.7813,41.5469 Q216.7813,40.2188 217.3906,39.0781 Q218.0156,37.9219 219.1094,37.3125 Q220.2031,36.6875 221.4375,36.6875 Q222.1719,36.6875 222.8125,36.8594 Q223.4688,37.0156 224.0156,37.375 Z " fill="#000000"/><text fill="#000000" font-family="sans-serif" font-size="14" lengthAdjust="spacing" textLength="151" x="241.75" y="47.2969">CreateVehicleController</text><line style="stroke:#181818;stroke-width:0.5;" x1="155" x2="447" y1="57.5" y2="57.5"/><line style="stroke:#181818;stroke-width:0.5;" x1="155" x2="447" y1="65.5" y2="65.5"/><text fill="#000000" font-family="sans-serif" font-size="14" lengthAdjust="spacing" textLength="282" x="160" y="84.6074">+CreateVehicleController(SortingRepository)</text><text fill="#000000" font-family="sans-serif" font-size="14" lengthAdjust="spacing" textLength="83" x="160" y="103.2285">+getSorting()</text><text fill="#000000" font-family="sans-serif" font-size="14" lengthAdjust="spacing" textLength="236" x="160" y="121.8496">-getSortingByDescription(description)</text></g><!--link VehicleListUI to CreateVehicleController--><g id="link_VehicleListUI_CreateVehicleController"><path codeLine="64" d="M119.39,77.5 C132.31,77.5 142.33,77.5 142.33,77.5 C142.33,77.5 140.84,77.5 147.7,77.5 " fill="none" id="VehicleListUI-to-CreateVehicleController" style="stroke:#181818;stroke-width:1.0;stroke-dasharray:7.0,7.0;"/><polygon fill="#181818" points="153.7,77.5,144.7,73.5,148.7,77.5,144.7,81.5,153.7,77.5" style="stroke:#181818;stroke-width:1.0;"/></g><!--link CreateVehicleController to Repositories--><g id="link_CreateVehicleController_Repositories"><path codeLine="66" d="M448.26,77.5 C482.33,77.5 512.27,77.5 545.32,77.5 " fill="none" id="CreateVehicleController-to-Repositories" style="stroke:#181818;stroke-width:1.0;stroke-dasharray:7.0,7.0;"/><polygon fill="#181818" points="551.32,77.5,542.32,73.5,546.32,77.5,542.32,81.5,551.32,77.5" style="stroke:#181818;stroke-width:1.0;"/><text fill="#000000" font-family="sans-serif" font-size="13" lengthAdjust="spacing" textLength="67" x="466.25" y="70.5283">repositories</text></g><!--link Repositories to Repositories--><g id="link_Repositories_Repositories"><path codeLine="68" d="M802.83,60.15 C823.38,62.64 837.5,68.42 837.5,77.5 C837.5,86.58 829.3364,91.6383 808.7864,94.1283 " fill="none" id="Repositories-to-Repositories" style="stroke:#181818;stroke-width:1.0;"/><polygon fill="#181818" points="802.83,94.85,812.2458,97.7384,807.7937,94.2486,811.2835,89.7965,802.83,94.85" style="stroke:#181818;stroke-width:1.0;"/><text fill="#000000" font-family="sans-serif" font-size="13" lengthAdjust="spacing" textLength="49" x="843.5" y="83.0283">instance</text></g><!--link Repositories to SortingRepository--><g id="link_Repositories_SortingRepository"><path codeLine="70" d="M577.94,148.1 C547.89,169.21 521.1994,187.9606 496.3494,205.4206 " fill="none" id="Repositories-to-SortingRepository" style="stroke:#181818;stroke-width:1.0;"/><polygon fill="#181818" points="491.44,208.87,501.1036,206.9688,495.5311,205.9955,496.5044,200.423,491.44,208.87" style="stroke:#181818;stroke-width:1.0;"/><text fill="#000000" font-family="sans-serif" font-size="13" lengthAdjust="spacing" textLength="7" x="492.8938" y="197.6699">1</text></g><!--link Repositories to VehicleRepository--><g id="link_Repositories_VehicleRepository"><path codeLine="71" d="M712.44,148.1 C723.19,169.21 731.7776,186.0632 740.6676,203.5232 " fill="none" id="Repositories-to-VehicleRepository" style="stroke:#181818;stroke-width:1.0;"/><polygon fill="#181818" points="743.39,208.87,742.8709,199.0348,741.1213,204.4143,735.7418,202.6647,743.39,208.87" style="stroke:#181818;stroke-width:1.0;"/><text fill="#000000" font-family="sans-serif" font-size="13" lengthAdjust="spacing" textLength="5" x="734.6277" y="197.6699">*</text></g><!--link VehicleRepository to Vehicle--><g id="link_VehicleRepository_Vehicle"><path codeLine="73" d="M750.12,276.04 C745.11,292.55 740.3644,308.1792 733.4244,331.0192 " fill="none" id="VehicleRepository-to-Vehicle" style="stroke:#181818;stroke-width:1.0;"/><polygon fill="#181818" points="731.68,336.76,738.1238,329.3117,733.1336,331.976,730.4693,326.9858,731.68,336.76" style="stroke:#181818;stroke-width:1.0;"/><text fill="#000000" font-family="sans-serif" font-size="13" lengthAdjust="spacing" textLength="7" x="740.7367" y="297.6164">1</text><text fill="#000000" font-family="sans-serif" font-size="13" lengthAdjust="spacing" textLength="5" x="728.82" y="325.8958">*</text></g><!--link SortingRepository to Sorting--><g id="link_SortingRepository_Sorting"><path codeLine="74" d="M414.92,276.2 C390.12,303.16 359,337 359,337 C359,337 322.6397,398.3388 295.6897,443.7988 " fill="none" id="SortingRepository-to-Sorting" style="stroke:#181818;stroke-width:1.0;"/><polygon fill="#181818" points="292.63,448.96,300.6604,443.258,295.1798,444.659,293.7788,439.1784,292.63,448.96" style="stroke:#181818;stroke-width:1.0;"/><text fill="#000000" font-family="sans-serif" font-size="13" lengthAdjust="spacing" textLength="7" x="402.1484" y="297.539">1</text><text fill="#000000" font-family="sans-serif" font-size="13" lengthAdjust="spacing" textLength="5" x="291.157" y="437.8577">*</text></g><!--link CreateVehicleController to Sorting--><g id="link_CreateVehicleController_Sorting"><path codeLine="76" d="M296.89,129.85 C290.28,212.36 277.899,366.8891 271.819,442.8091 " fill="none" id="CreateVehicleController-to-Sorting" style="stroke:#181818;stroke-width:1.0;stroke-dasharray:7.0,7.0;"/><polygon fill="#181818" points="271.34,448.79,276.0457,440.138,271.7391,443.806,268.0712,439.4994,271.34,448.79" style="stroke:#181818;stroke-width:1.0;"/></g><!--link CreateVehicleController to Vehicle--><g id="link_CreateVehicleController_Vehicle"><path codeLine="77" d="M413.19,129.52 C493.69,166.12 588,209 588,209 C588,209 607.4451,265.4374 630.1451,331.3074 " fill="none" id="CreateVehicleController-to-Vehicle" style="stroke:#181818;stroke-width:1.0;stroke-dasharray:7.0,7.0;"/><polygon fill="#181818" points="632.1,336.98,632.9494,327.1678,630.4709,332.2528,625.3859,329.7743,632.1,336.98" style="stroke:#181818;stroke-width:1.0;"/></g><!--SRC=[bLF1Rjim3BthAuHSucpEi5rx6D1sbm0x50ksqu11iHXRY2ow4eF26_RlanpPbUquw7oYz1x9nqTvxKxADCAAcjTeiAWiri39de6z8eqeJgA4FRKQk8M2X2brId2LaFYYJCcFGhiKqSe0jGtm1dKR3cnz1KHBo9AiGWldxeciEfm9TWMQlVeD_2DZQmr7ueJSgh8YBbMGez0mnhea_WCgLNYPVnZttvOh6OE35QQFQvIWOnm4zA6mVVW2eNuyd6eN8mkbSWJsbnJKKqNnV5PE1HNfTIsK8J325C2wg_Uzjap9_28dloZXkLTX8VzfEWbvx9w7nlcuP-1C6-PfhqtiLGB5TW_ja_QidVHzD-nlRzJUcnusrXkrzsxxemHNMDLSFBsKYimiWUPrla63NXFQDbRi94JmeVtochjG9wgzNkVsA4EE0ZVCarvcYIixuoWObMtutOZqFwgdrEmDjXiau0SamfhZSUvRr7rs8FaHhN_Rhj6YzPmEeGguYplJ_a4mC9A7cXC3lthi-yxRCDZpQC4BYV0Z6hAeDTZ1tmKycobSd7lxvbsFHNxulDISiINLFcUqxpl_WoHBP2DmEoEhkFufqJDNdrPNjZAdlLlD7-imMV9-Gxr90fl_BIaheZU7xpatAF7o7m00]--></g></svg>