<?xml version="1.0" encoding="us-ascii" standalone="no"?><svg xmlns="http://www.w3.org/2000/svg" xmlns:xlink="http://www.w3.org/1999/xlink" contentStyleType="text/css" height="390px" preserveAspectRatio="none" style="width:664px;height:390px;background:#FFFFFF;" version="1.1" viewBox="0 0 664 390" width="664px" zoomAndPan="magnify"><defs/><g><!--class Runnable--><g id="elem_Runnable"><rect codeLine="11" fill="#F1F1F1" height="66.6211" id="Runnable" rx="2.5" ry="2.5" style="stroke:#181818;stroke-width:0.5;" width="93" x="21.5" y="7"/><ellipse cx="36.5" cy="23" fill="#B4A7E5" rx="11" ry="11" style="stroke:#181818;stroke-width:1.0;"/><path d="M37.5156,27.875 L38.25,27.875 L38.25,29.8594 L34.7188,29.8594 L34.7188,27.875 L35.4531,27.875 L35.4531,18.375 L34.7188,18.375 L34.7188,16.3906 L38.25,16.3906 L38.25,18.375 L37.5156,18.375 L37.5156,27.875 Z " fill="#000000"/><text fill="#000000" font-family="sans-serif" font-size="14" font-style="italic" lengthAdjust="spacing" textLength="61" x="50.5" y="28.7969">Runnable</text><line style="stroke:#181818;stroke-width:0.5;" x1="22.5" x2="113.5" y1="39" y2="39"/><line style="stroke:#181818;stroke-width:0.5;" x1="22.5" x2="113.5" y1="47" y2="47"/><text fill="#000000" font-family="sans-serif" font-size="14" lengthAdjust="spacing" textLength="39" x="27.5" y="66.1074">+run()</text></g><!--class TeamController--><g id="elem_TeamController"><rect codeLine="15" fill="#F1F1F1" height="85.2422" id="TeamController" rx="2.5" ry="2.5" style="stroke:#181818;stroke-width:0.5;" width="216" x="7" y="143.5"/><ellipse cx="61.75" cy="159.5" fill="#ADD1B2" rx="11" ry="11" style="stroke:#181818;stroke-width:1.0;"/><path d="M65.2656,160.8594 Q65.0469,164.2344 63.9063,165.3594 Q62.9063,166.3594 61.5313,166.3594 Q60.1563,166.3594 59.1563,165.3594 Q57.4219,163.625 57.4219,159.9844 Q57.4219,155.7656 59.2813,153.8906 Q60.2969,152.8906 61.5938,152.8906 Q62.9688,152.8906 63.7813,153.6875 Q65.25,155.1719 65.1875,157.9375 L63.1875,157.9375 Q63.125,155.6563 62.4688,155 Q62.1563,154.6719 61.5938,154.6719 Q61.1094,154.6719 60.7188,155.0625 Q59.4688,156.3125 59.4688,159.8594 Q59.4688,162.9375 60.5313,163.9844 Q60.9844,164.4375 61.5313,164.4375 Q62.0156,164.4375 62.4688,163.9844 Q63.0625,163.4063 63.125,160.8594 L65.2656,160.8594 Z " fill="#000000"/><text fill="#000000" font-family="sans-serif" font-size="14" lengthAdjust="spacing" textLength="98" x="82.25" y="165.2969">TeamController</text><line style="stroke:#181818;stroke-width:0.5;" x1="8" x2="222" y1="175.5" y2="175.5"/><line style="stroke:#181818;stroke-width:0.5;" x1="8" x2="222" y1="183.5" y2="183.5"/><text fill="#000000" font-family="sans-serif" font-size="14" lengthAdjust="spacing" textLength="134" x="13" y="202.6074">+getAllTeams(teams)</text><text fill="#000000" font-family="sans-serif" font-size="14" lengthAdjust="spacing" textLength="204" x="13" y="221.2285">+getTeamMembersEmails(team)</text></g><!--class TeamRepository--><g id="elem_TeamRepository"><rect codeLine="21" fill="#F1F1F1" height="85.2422" id="TeamRepository" rx="2.5" ry="2.5" style="stroke:#181818;stroke-width:0.5;" width="216" x="7" y="298"/><ellipse cx="58.75" cy="314" fill="#ADD1B2" rx="11" ry="11" style="stroke:#181818;stroke-width:1.0;"/><path d="M62.2656,315.3594 Q62.0469,318.7344 60.9063,319.8594 Q59.9063,320.8594 58.5313,320.8594 Q57.1563,320.8594 56.1563,319.8594 Q54.4219,318.125 54.4219,314.4844 Q54.4219,310.2656 56.2813,308.3906 Q57.2969,307.3906 58.5938,307.3906 Q59.9688,307.3906 60.7813,308.1875 Q62.25,309.6719 62.1875,312.4375 L60.1875,312.4375 Q60.125,310.1563 59.4688,309.5 Q59.1563,309.1719 58.5938,309.1719 Q58.1094,309.1719 57.7188,309.5625 Q56.4688,310.8125 56.4688,314.3594 Q56.4688,317.4375 57.5313,318.4844 Q57.9844,318.9375 58.5313,318.9375 Q59.0156,318.9375 59.4688,318.4844 Q60.0625,317.9063 60.125,315.3594 L62.2656,315.3594 Z " fill="#000000"/><text fill="#000000" font-family="sans-serif" font-size="14" lengthAdjust="spacing" textLength="104" x="79.25" y="319.7969">TeamRepository</text><line style="stroke:#181818;stroke-width:0.5;" x1="8" x2="222" y1="330" y2="330"/><line style="stroke:#181818;stroke-width:0.5;" x1="8" x2="222" y1="338" y2="338"/><text fill="#000000" font-family="sans-serif" font-size="14" lengthAdjust="spacing" textLength="134" x="13" y="357.1074">+getAllTeams(teams)</text><text fill="#000000" font-family="sans-serif" font-size="14" lengthAdjust="spacing" textLength="204" x="13" y="375.7285">+getTeamMembersEmails(team)</text></g><!--class AgendaController--><g id="elem_AgendaController"><rect codeLine="27" fill="#F1F1F1" height="103.8633" id="AgendaController" rx="2.5" ry="2.5" style="stroke:#181818;stroke-width:0.5;" width="282" x="258" y="134"/><ellipse cx="339.25" cy="150" fill="#ADD1B2" rx="11" ry="11" style="stroke:#181818;stroke-width:1.0;"/><path d="M342.7656,151.3594 Q342.5469,154.7344 341.4063,155.8594 Q340.4063,156.8594 339.0313,156.8594 Q337.6563,156.8594 336.6563,155.8594 Q334.9219,154.125 334.9219,150.4844 Q334.9219,146.2656 336.7813,144.3906 Q337.7969,143.3906 339.0938,143.3906 Q340.4688,143.3906 341.2813,144.1875 Q342.75,145.6719 342.6875,148.4375 L340.6875,148.4375 Q340.625,146.1563 339.9688,145.5 Q339.6563,145.1719 339.0938,145.1719 Q338.6094,145.1719 338.2188,145.5625 Q336.9688,146.8125 336.9688,150.3594 Q336.9688,153.4375 338.0313,154.4844 Q338.4844,154.9375 339.0313,154.9375 Q339.5156,154.9375 339.9688,154.4844 Q340.5625,153.9063 340.625,151.3594 L342.7656,151.3594 Z " fill="#000000"/><text fill="#000000" font-family="sans-serif" font-size="14" lengthAdjust="spacing" textLength="111" x="359.75" y="155.7969">AgendaController</text><line style="stroke:#181818;stroke-width:0.5;" x1="259" x2="539" y1="166" y2="166"/><line style="stroke:#181818;stroke-width:0.5;" x1="259" x2="539" y1="174" y2="174"/><text fill="#000000" font-family="sans-serif" font-size="14" lengthAdjust="spacing" textLength="162" x="264" y="193.1074">+updateEntry(entry,team)</text><text fill="#000000" font-family="sans-serif" font-size="14" lengthAdjust="spacing" textLength="146" x="264" y="211.7285">+getAllAgendaEntries()</text><text fill="#000000" font-family="sans-serif" font-size="14" lengthAdjust="spacing" textLength="270" x="264" y="230.3496">+sendEmailToTeamMembers(emails,entry)</text></g><!--class AgendaRepository--><g id="elem_AgendaRepository"><rect codeLine="33" fill="#F1F1F1" height="85.2422" id="AgendaRepository" rx="2.5" ry="2.5" style="stroke:#181818;stroke-width:0.5;" width="160" x="288" y="298"/><ellipse cx="307.95" cy="314" fill="#ADD1B2" rx="11" ry="11" style="stroke:#181818;stroke-width:1.0;"/><path d="M311.4656,315.3594 Q311.2469,318.7344 310.1063,319.8594 Q309.1063,320.8594 307.7313,320.8594 Q306.3563,320.8594 305.3563,319.8594 Q303.6219,318.125 303.6219,314.4844 Q303.6219,310.2656 305.4813,308.3906 Q306.4969,307.3906 307.7938,307.3906 Q309.1688,307.3906 309.9813,308.1875 Q311.45,309.6719 311.3875,312.4375 L309.3875,312.4375 Q309.325,310.1563 308.6688,309.5 Q308.3563,309.1719 307.7938,309.1719 Q307.3094,309.1719 306.9188,309.5625 Q305.6688,310.8125 305.6688,314.3594 Q305.6688,317.4375 306.7313,318.4844 Q307.1844,318.9375 307.7313,318.9375 Q308.2156,318.9375 308.6688,318.4844 Q309.2625,317.9063 309.325,315.3594 L311.4656,315.3594 Z " fill="#000000"/><text fill="#000000" font-family="sans-serif" font-size="14" lengthAdjust="spacing" textLength="117" x="323.05" y="319.7969">AgendaRepository</text><line style="stroke:#181818;stroke-width:0.5;" x1="289" x2="447" y1="330" y2="330"/><line style="stroke:#181818;stroke-width:0.5;" x1="289" x2="447" y1="338" y2="338"/><text fill="#000000" font-family="sans-serif" font-size="14" lengthAdjust="spacing" textLength="146" x="294" y="357.1074">+getAllAgendaEntries()</text><text fill="#000000" font-family="sans-serif" font-size="14" lengthAdjust="spacing" textLength="148" x="294" y="375.7285">+saveEntry(entry,team)</text></g><!--class Agenda--><g id="elem_Agenda"><rect codeLine="38" fill="#F1F1F1" height="66.6211" id="Agenda" rx="2.5" ry="2.5" style="stroke:#181818;stroke-width:0.5;" width="174" x="483" y="307"/><ellipse cx="541.25" cy="323" fill="#ADD1B2" rx="11" ry="11" style="stroke:#181818;stroke-width:1.0;"/><path d="M544.7656,324.3594 Q544.5469,327.7344 543.4063,328.8594 Q542.4063,329.8594 541.0313,329.8594 Q539.6563,329.8594 538.6563,328.8594 Q536.9219,327.125 536.9219,323.4844 Q536.9219,319.2656 538.7813,317.3906 Q539.7969,316.3906 541.0938,316.3906 Q542.4688,316.3906 543.2813,317.1875 Q544.75,318.6719 544.6875,321.4375 L542.6875,321.4375 Q542.625,319.1563 541.9688,318.5 Q541.6563,318.1719 541.0938,318.1719 Q540.6094,318.1719 540.2188,318.5625 Q538.9688,319.8125 538.9688,323.3594 Q538.9688,326.4375 540.0313,327.4844 Q540.4844,327.9375 541.0313,327.9375 Q541.5156,327.9375 541.9688,327.4844 Q542.5625,326.9063 542.625,324.3594 L544.7656,324.3594 Z " fill="#000000"/><text fill="#000000" font-family="sans-serif" font-size="14" lengthAdjust="spacing" textLength="49" x="561.75" y="328.7969">Agenda</text><line style="stroke:#181818;stroke-width:0.5;" x1="484" x2="656" y1="339" y2="339"/><line style="stroke:#181818;stroke-width:0.5;" x1="484" x2="656" y1="347" y2="347"/><text fill="#000000" font-family="sans-serif" font-size="14" lengthAdjust="spacing" textLength="162" x="489" y="366.1074">+updateEntry(entry,team)</text></g><!--class AddTeamToAgendaEntryGUI--><g id="elem_AddTeamToAgendaEntryGUI"><rect codeLine="42" fill="#F1F1F1" height="66.6211" id="AddTeamToAgendaEntryGUI" rx="2.5" ry="2.5" style="stroke:#181818;stroke-width:0.5;" width="215" x="149.5" y="7"/><ellipse cx="164.5" cy="23" fill="#ADD1B2" rx="11" ry="11" style="stroke:#181818;stroke-width:1.0;"/><path d="M168.0156,24.3594 Q167.7969,27.7344 166.6563,28.8594 Q165.6563,29.8594 164.2813,29.8594 Q162.9063,29.8594 161.9063,28.8594 Q160.1719,27.125 160.1719,23.4844 Q160.1719,19.2656 162.0313,17.3906 Q163.0469,16.3906 164.3438,16.3906 Q165.7188,16.3906 166.5313,17.1875 Q168,18.6719 167.9375,21.4375 L165.9375,21.4375 Q165.875,19.1563 165.2188,18.5 Q164.9063,18.1719 164.3438,18.1719 Q163.8594,18.1719 163.4688,18.5625 Q162.2188,19.8125 162.2188,23.3594 Q162.2188,26.4375 163.2813,27.4844 Q163.7344,27.9375 164.2813,27.9375 Q164.7656,27.9375 165.2188,27.4844 Q165.8125,26.9063 165.875,24.3594 L168.0156,24.3594 Z " fill="#000000"/><text fill="#000000" font-family="sans-serif" font-size="14" lengthAdjust="spacing" textLength="183" x="178.5" y="28.7969">AddTeamToAgendaEntryGUI</text><line style="stroke:#181818;stroke-width:0.5;" x1="150.5" x2="363.5" y1="39" y2="39"/><line style="stroke:#181818;stroke-width:0.5;" x1="150.5" x2="363.5" y1="47" y2="47"/><text fill="#000000" font-family="sans-serif" font-size="14" lengthAdjust="spacing" textLength="35" x="155.5" y="66.1074">run();</text></g><!--link Runnable to AddTeamToAgendaEntryGUI--><g id="link_Runnable_AddTeamToAgendaEntryGUI"><path codeLine="46" d="M114.78,40.5 C124.05,40.5 131,40.5 131,40.5 C131,40.5 120.96,40.5 131.22,40.5 " fill="none" id="Runnable-to-AddTeamToAgendaEntryGUI" style="stroke:#181818;stroke-width:1.0;"/><polygon fill="none" points="149.22,40.5,131.22,34.5,131.22,46.5,149.22,40.5" style="stroke:#181818;stroke-width:1.0;"/></g><!--link AddTeamToAgendaEntryGUI to AgendaController--><g id="link_AddTeamToAgendaEntryGUI_AgendaController"><path codeLine="48" d="M289.22,74.06 C306.73,91.76 324.5599,109.775 344.2999,129.725 " fill="none" id="AddTeamToAgendaEntryGUI-to-AgendaController" style="stroke:#181818;stroke-width:1.0;stroke-dasharray:7.0,7.0;"/><polygon fill="#181818" points="348.52,133.99,345.0332,124.779,345.0032,130.4358,339.3464,130.4059,348.52,133.99" style="stroke:#181818;stroke-width:1.0;"/></g><!--link AddTeamToAgendaEntryGUI to TeamController--><g id="link_AddTeamToAgendaEntryGUI_TeamController"><path codeLine="49" d="M224.78,74.06 C204.48,94.57 182.3103,116.9752 160.4903,139.0252 " fill="none" id="AddTeamToAgendaEntryGUI-to-TeamController" style="stroke:#181818;stroke-width:1.0;stroke-dasharray:7.0,7.0;"/><polygon fill="#181818" points="156.27,143.29,165.4437,139.7063,159.7869,139.736,159.7573,134.0792,156.27,143.29" style="stroke:#181818;stroke-width:1.0;"/></g><!--link TeamController to TeamRepository--><g id="link_TeamController_TeamRepository"><path codeLine="50" d="M115,228.67 C115,250.19 115,270.37 115,291.88 " fill="none" id="TeamController-to-TeamRepository" style="stroke:#181818;stroke-width:1.0;stroke-dasharray:7.0,7.0;"/><polygon fill="#181818" points="115,297.88,119,288.88,115,292.88,111,288.88,115,297.88" style="stroke:#181818;stroke-width:1.0;"/></g><!--link AgendaController to Agenda--><g id="link_AgendaController_Agenda"><path codeLine="51" d="M456.42,238.2 C481.84,260.88 506.5015,282.8771 528.9115,302.8571 " fill="none" id="AgendaController-to-Agenda" style="stroke:#181818;stroke-width:1.0;stroke-dasharray:7.0,7.0;"/><polygon fill="#181818" points="533.39,306.85,529.3342,297.875,529.6579,303.5226,524.0103,303.8463,533.39,306.85" style="stroke:#181818;stroke-width:1.0;"/></g><!--link AgendaController to AgendaRepository--><g id="link_AgendaController_AgendaRepository"><path codeLine="52" d="M388.59,238.2 C384.65,257.59 381.4151,273.5202 377.6751,291.9202 " fill="none" id="AgendaController-to-AgendaRepository" style="stroke:#181818;stroke-width:1.0;stroke-dasharray:7.0,7.0;"/><polygon fill="#181818" points="376.48,297.8,382.1925,289.7771,377.4759,292.9002,374.3528,288.1836,376.48,297.8" style="stroke:#181818;stroke-width:1.0;"/></g><!--SRC=[fLBBRi8m4BplL_X68YZglH8Igb35eHUW7x0aIx1ml96zQPNI_dlZK9440XTyiBGxipFZnyWVj2tGOQvojfpi7UUan9K4BL9WSi2Crb8PKeuIGPkPBi7lCUKlRJErG-ExYD6Mf2f85MogKC1e06Gd39sfnA3tSn6djwNGCc6xrj-adW56XdQYX9NJsLvKgaCSpHP0Mo6tmuJKghGMjtNK8wXwZLrfenX-0HfPjI7CNzcAOsF87M6SaSoD2MqVITZZfXSQxvHloVb5ZjgSm1ZwIYigs6jXLpsYDC_8fjXBLHOf2YtgJXLHs2UdeN-JqqI0DVdwU6DVrutwXZj-4JM6aqOXlZGS27-jYvy3AIw4xkHjcMaQWcsujQZUFfP7QDxd9H3FB_VqCxl51xW1gEbqTdMHTydzdm3zyineBmakrJkMzx2E0lm1]--></g></svg>