<?xml version="1.0" encoding="us-ascii" standalone="no"?><svg xmlns="http://www.w3.org/2000/svg" xmlns:xlink="http://www.w3.org/1999/xlink" contentStyleType="text/css" height="1147px" preserveAspectRatio="none" style="width:1272px;height:1147px;background:#FFFFFF;" version="1.1" viewBox="0 0 1272 1147" width="1272px" zoomAndPan="magnify"><defs/><g><text fill="#000000" font-family="sans-serif" font-size="14" font-weight="bold" lengthAdjust="spacing" textLength="205" x="529.5" y="44.4082">US022 &#180;'Add Entry to Agenda&#180;'</text><rect fill="#FFFFFF" height="906.8574" style="stroke:#181818;stroke-width:1.0;" width="10" x="32.5" y="147.543"/><rect fill="#FFFFFF" height="186.4551" style="stroke:#181818;stroke-width:1.0;" width="10" x="423.5" y="170.834"/><rect fill="#FFFFFF" height="186.4551" style="stroke:#181818;stroke-width:1.0;" width="10" x="423.5" y="388.5801"/><rect fill="#FFFFFF" height="31.291" style="stroke:#181818;stroke-width:1.0;" width="10" x="423.5" y="606.3262"/><rect fill="#FFFFFF" height="31.291" style="stroke:#181818;stroke-width:1.0;" width="10" x="423.5" y="820.3633"/><rect fill="#FFFFFF" height="31.291" style="stroke:#181818;stroke-width:1.0;" width="10" x="423.5" y="945.5273"/><rect fill="#FFFFFF" height="47.291" style="stroke:#181818;stroke-width:1.0;" width="10" x="423.5" y="1008.1094"/><rect fill="#FFFFFF" height="61.291" style="stroke:#181818;stroke-width:1.0;" width="10" x="710.5" y="419.8711"/><rect fill="#FFFFFF" height="31.291" style="stroke:#181818;stroke-width:1.0;" width="10" x="710.5" y="512.4531"/><rect fill="#FFFFFF" height="31.291" style="stroke:#181818;stroke-width:1.0;" width="10" x="710.5" y="637.6172"/><rect fill="#FFFFFF" height="31.291" style="stroke:#181818;stroke-width:1.0;" width="10" x="710.5" y="700.1992"/><rect fill="#FFFFFF" height="57.582" style="stroke:#181818;stroke-width:1.0;" width="10" x="710.5" y="762.7813"/><rect fill="#FFFFFF" height="31.291" style="stroke:#181818;stroke-width:1.0;" width="10" x="710.5" y="976.8184"/><rect fill="#FFFFFF" height="61.291" style="stroke:#181818;stroke-width:1.0;" width="10" x="843" y="202.125"/><rect fill="#FFFFFF" height="31.291" style="stroke:#181818;stroke-width:1.0;" width="10" x="843" y="294.707"/><rect fill="#FFFFFF" height="31.291" style="stroke:#181818;stroke-width:1.0;" width="10" x="843" y="851.6543"/><rect fill="#FFFFFF" height="31.291" style="stroke:#181818;stroke-width:1.0;" width="10" x="843" y="914.2363"/><rect fill="#FFFFFF" height="61.291" style="stroke:#181818;stroke-width:1.0;" width="10" x="978.5" y="451.1621"/><rect fill="#FFFFFF" height="31.291" style="stroke:#181818;stroke-width:1.0;" width="10" x="978.5" y="731.4902"/><rect fill="#FFFFFF" height="61.291" style="stroke:#181818;stroke-width:1.0;" width="10" x="1117" y="233.416"/><rect fill="#FFFFFF" height="31.291" style="stroke:#181818;stroke-width:1.0;" width="10" x="1117" y="882.9453"/><rect fill="#FFFFFF" height="31.291" style="stroke:#181818;stroke-width:1.0;" width="10" x="1221.5" y="668.9082"/><rect fill="none" height="269.6191" style="stroke:#000000;stroke-width:1.5;" width="1183" x="10" y="777.7813"/><line style="stroke:#181818;stroke-width:0.5;stroke-dasharray:5.0,5.0;" x1="37" x2="37" y1="137.543" y2="1064.4004"/><line style="stroke:#181818;stroke-width:0.5;stroke-dasharray:5.0,5.0;" x1="428" x2="428" y1="137.543" y2="1064.4004"/><line style="stroke:#181818;stroke-width:0.5;stroke-dasharray:5.0,5.0;" x1="715" x2="715" y1="137.543" y2="1064.4004"/><line style="stroke:#181818;stroke-width:0.5;stroke-dasharray:5.0,5.0;" x1="848" x2="848" y1="137.543" y2="1064.4004"/><line style="stroke:#181818;stroke-width:0.5;stroke-dasharray:5.0,5.0;" x1="983" x2="983" y1="137.543" y2="1064.4004"/><line style="stroke:#181818;stroke-width:0.5;stroke-dasharray:5.0,5.0;" x1="1122" x2="1122" y1="137.543" y2="1064.4004"/><line style="stroke:#181818;stroke-width:0.5;stroke-dasharray:5.0,5.0;" x1="1226" x2="1226" y1="137.543" y2="1064.4004"/><text fill="#000000" font-family="sans-serif" font-size="14" lengthAdjust="spacing" textLength="29" x="20" y="134.0293">User</text><ellipse cx="37.5" cy="67.4219" fill="#E3E3E3" rx="8" ry="8" style="stroke:#181818;stroke-width:0.5;"/><path d="M37.5,75.4219 L37.5,102.4219 M24.5,83.4219 L50.5,83.4219 M37.5,102.4219 L24.5,117.4219 M37.5,102.4219 L50.5,117.4219 " fill="none" style="stroke:#181818;stroke-width:0.5;"/><text fill="#000000" font-family="sans-serif" font-size="14" lengthAdjust="spacing" textLength="29" x="20" y="1078.5078">User</text><ellipse cx="37.5" cy="1090.5215" fill="#E3E3E3" rx="8" ry="8" style="stroke:#181818;stroke-width:0.5;"/><path d="M37.5,1098.5215 L37.5,1125.5215 M24.5,1106.5215 L50.5,1106.5215 M37.5,1125.5215 L24.5,1140.5215 M37.5,1125.5215 L50.5,1140.5215 " fill="none" style="stroke:#181818;stroke-width:0.5;"/><rect fill="#E3E3E3" height="32.6211" rx="2.5" ry="2.5" style="stroke:#181818;stroke-width:0.5;" width="201" x="328" y="103.9219"/><text fill="#000000" font-family="sans-serif" font-size="14" lengthAdjust="spacing" textLength="187" x="335" y="126.0293">:AddTeamToAgendaEntryGUI</text><rect fill="#E3E3E3" height="32.6211" rx="2.5" ry="2.5" style="stroke:#181818;stroke-width:0.5;" width="201" x="328" y="1063.4004"/><text fill="#000000" font-family="sans-serif" font-size="14" lengthAdjust="spacing" textLength="187" x="335" y="1085.5078">:AddTeamToAgendaEntryGUI</text><rect fill="#E3E3E3" height="32.6211" rx="2.5" ry="2.5" style="stroke:#181818;stroke-width:0.5;" width="129" x="651" y="103.9219"/><text fill="#000000" font-family="sans-serif" font-size="14" lengthAdjust="spacing" textLength="115" x="658" y="126.0293">:AgendaController</text><rect fill="#E3E3E3" height="32.6211" rx="2.5" ry="2.5" style="stroke:#181818;stroke-width:0.5;" width="129" x="651" y="1063.4004"/><text fill="#000000" font-family="sans-serif" font-size="14" lengthAdjust="spacing" textLength="115" x="658" y="1085.5078">:AgendaController</text><rect fill="#E3E3E3" height="32.6211" rx="2.5" ry="2.5" style="stroke:#181818;stroke-width:0.5;" width="116" x="790" y="103.9219"/><text fill="#000000" font-family="sans-serif" font-size="14" lengthAdjust="spacing" textLength="102" x="797" y="126.0293">:TeamController</text><rect fill="#E3E3E3" height="32.6211" rx="2.5" ry="2.5" style="stroke:#181818;stroke-width:0.5;" width="116" x="790" y="1063.4004"/><text fill="#000000" font-family="sans-serif" font-size="14" lengthAdjust="spacing" textLength="102" x="797" y="1085.5078">:TeamController</text><rect fill="#E3E3E3" height="32.6211" rx="2.5" ry="2.5" style="stroke:#181818;stroke-width:0.5;" width="135" x="916" y="103.9219"/><text fill="#000000" font-family="sans-serif" font-size="14" lengthAdjust="spacing" textLength="121" x="923" y="126.0293">:AgendaRepository</text><rect fill="#E3E3E3" height="32.6211" rx="2.5" ry="2.5" style="stroke:#181818;stroke-width:0.5;" width="135" x="916" y="1063.4004"/><text fill="#000000" font-family="sans-serif" font-size="14" lengthAdjust="spacing" textLength="121" x="923" y="1085.5078">:AgendaRepository</text><rect fill="#E3E3E3" height="32.6211" rx="2.5" ry="2.5" style="stroke:#181818;stroke-width:0.5;" width="122" x="1061" y="103.9219"/><text fill="#000000" font-family="sans-serif" font-size="14" lengthAdjust="spacing" textLength="108" x="1068" y="126.0293">:TeamRepository</text><rect fill="#E3E3E3" height="32.6211" rx="2.5" ry="2.5" style="stroke:#181818;stroke-width:0.5;" width="122" x="1061" y="1063.4004"/><text fill="#000000" font-family="sans-serif" font-size="14" lengthAdjust="spacing" textLength="108" x="1068" y="1085.5078">:TeamRepository</text><rect fill="#E3E3E3" height="32.6211" rx="2.5" ry="2.5" style="stroke:#181818;stroke-width:0.5;" width="67" x="1193" y="103.9219"/><text fill="#000000" font-family="sans-serif" font-size="14" lengthAdjust="spacing" textLength="53" x="1200" y="126.0293">:Agenda</text><rect fill="#E3E3E3" height="32.6211" rx="2.5" ry="2.5" style="stroke:#181818;stroke-width:0.5;" width="67" x="1193" y="1063.4004"/><text fill="#000000" font-family="sans-serif" font-size="14" lengthAdjust="spacing" textLength="53" x="1200" y="1085.5078">:Agenda</text><rect fill="#FFFFFF" height="906.8574" style="stroke:#181818;stroke-width:1.0;" width="10" x="32.5" y="147.543"/><rect fill="#FFFFFF" height="186.4551" style="stroke:#181818;stroke-width:1.0;" width="10" x="423.5" y="170.834"/><rect fill="#FFFFFF" height="186.4551" style="stroke:#181818;stroke-width:1.0;" width="10" x="423.5" y="388.5801"/><rect fill="#FFFFFF" height="31.291" style="stroke:#181818;stroke-width:1.0;" width="10" x="423.5" y="606.3262"/><rect fill="#FFFFFF" height="31.291" style="stroke:#181818;stroke-width:1.0;" width="10" x="423.5" y="820.3633"/><rect fill="#FFFFFF" height="31.291" style="stroke:#181818;stroke-width:1.0;" width="10" x="423.5" y="945.5273"/><rect fill="#FFFFFF" height="47.291" style="stroke:#181818;stroke-width:1.0;" width="10" x="423.5" y="1008.1094"/><rect fill="#FFFFFF" height="61.291" style="stroke:#181818;stroke-width:1.0;" width="10" x="710.5" y="419.8711"/><rect fill="#FFFFFF" height="31.291" style="stroke:#181818;stroke-width:1.0;" width="10" x="710.5" y="512.4531"/><rect fill="#FFFFFF" height="31.291" style="stroke:#181818;stroke-width:1.0;" width="10" x="710.5" y="637.6172"/><rect fill="#FFFFFF" height="31.291" style="stroke:#181818;stroke-width:1.0;" width="10" x="710.5" y="700.1992"/><rect fill="#FFFFFF" height="57.582" style="stroke:#181818;stroke-width:1.0;" width="10" x="710.5" y="762.7813"/><rect fill="#FFFFFF" height="31.291" style="stroke:#181818;stroke-width:1.0;" width="10" x="710.5" y="976.8184"/><rect fill="#FFFFFF" height="61.291" style="stroke:#181818;stroke-width:1.0;" width="10" x="843" y="202.125"/><rect fill="#FFFFFF" height="31.291" style="stroke:#181818;stroke-width:1.0;" width="10" x="843" y="294.707"/><rect fill="#FFFFFF" height="31.291" style="stroke:#181818;stroke-width:1.0;" width="10" x="843" y="851.6543"/><rect fill="#FFFFFF" height="31.291" style="stroke:#181818;stroke-width:1.0;" width="10" x="843" y="914.2363"/><rect fill="#FFFFFF" height="61.291" style="stroke:#181818;stroke-width:1.0;" width="10" x="978.5" y="451.1621"/><rect fill="#FFFFFF" height="31.291" style="stroke:#181818;stroke-width:1.0;" width="10" x="978.5" y="731.4902"/><rect fill="#FFFFFF" height="61.291" style="stroke:#181818;stroke-width:1.0;" width="10" x="1117" y="233.416"/><rect fill="#FFFFFF" height="31.291" style="stroke:#181818;stroke-width:1.0;" width="10" x="1117" y="882.9453"/><rect fill="#FFFFFF" height="31.291" style="stroke:#181818;stroke-width:1.0;" width="10" x="1221.5" y="668.9082"/><polygon fill="#181818" points="411.5,166.834,421.5,170.834,411.5,174.834,415.5,170.834" style="stroke:#181818;stroke-width:1.0;"/><line style="stroke:#181818;stroke-width:1.0;" x1="42.5" x2="417.5" y1="170.834" y2="170.834"/><text fill="#000000" font-family="sans-serif" font-size="13" font-weight="bold" lengthAdjust="spacing" textLength="7" x="49.5" y="165.5713">1</text><text fill="#000000" font-family="sans-serif" font-size="13" lengthAdjust="spacing" textLength="237" x="60.5" y="165.5713">Request to add a team to a agenda entry</text><polygon fill="#181818" points="831,198.125,841,202.125,831,206.125,835,202.125" style="stroke:#181818;stroke-width:1.0;"/><line style="stroke:#181818;stroke-width:1.0;" x1="433.5" x2="837" y1="202.125" y2="202.125"/><text fill="#000000" font-family="sans-serif" font-size="13" font-weight="bold" lengthAdjust="spacing" textLength="7" x="440.5" y="196.8623">2</text><text fill="#000000" font-family="sans-serif" font-size="13" lengthAdjust="spacing" textLength="116" x="451.5" y="196.8623">getAllTeams(teams)</text><polygon fill="#181818" points="1105,229.416,1115,233.416,1105,237.416,1109,233.416" style="stroke:#181818;stroke-width:1.0;"/><line style="stroke:#181818;stroke-width:1.0;" x1="853" x2="1111" y1="233.416" y2="233.416"/><text fill="#000000" font-family="sans-serif" font-size="13" font-weight="bold" lengthAdjust="spacing" textLength="7" x="860" y="228.1533">3</text><text fill="#000000" font-family="sans-serif" font-size="13" lengthAdjust="spacing" textLength="116" x="871" y="228.1533">getAllTeams(teams)</text><polygon fill="#181818" points="864,290.707,854,294.707,864,298.707,860,294.707" style="stroke:#181818;stroke-width:1.0;"/><line style="stroke:#181818;stroke-width:1.0;stroke-dasharray:2.0,2.0;" x1="858" x2="1121" y1="294.707" y2="294.707"/><text fill="#000000" font-family="sans-serif" font-size="13" font-weight="bold" lengthAdjust="spacing" textLength="7" x="870" y="289.4443">4</text><text fill="#000000" font-family="sans-serif" font-size="13" lengthAdjust="spacing" textLength="132" x="881" y="289.4443">returns list of all teams</text><polygon fill="#181818" points="444.5,321.998,434.5,325.998,444.5,329.998,440.5,325.998" style="stroke:#181818;stroke-width:1.0;"/><line style="stroke:#181818;stroke-width:1.0;stroke-dasharray:2.0,2.0;" x1="438.5" x2="847" y1="325.998" y2="325.998"/><text fill="#000000" font-family="sans-serif" font-size="13" font-weight="bold" lengthAdjust="spacing" textLength="7" x="450.5" y="320.7354">5</text><text fill="#000000" font-family="sans-serif" font-size="13" lengthAdjust="spacing" textLength="132" x="461.5" y="320.7354">returns list of all teams</text><polygon fill="#181818" points="53.5,353.2891,43.5,357.2891,53.5,361.2891,49.5,357.2891" style="stroke:#181818;stroke-width:1.0;"/><line style="stroke:#181818;stroke-width:1.0;stroke-dasharray:2.0,2.0;" x1="47.5" x2="427.5" y1="357.2891" y2="357.2891"/><text fill="#000000" font-family="sans-serif" font-size="13" font-weight="bold" lengthAdjust="spacing" textLength="7" x="59.5" y="352.0264">6</text><text fill="#000000" font-family="sans-serif" font-size="13" lengthAdjust="spacing" textLength="155" x="70.5" y="352.0264">asks user to select a team</text><polygon fill="#181818" points="411.5,384.5801,421.5,388.5801,411.5,392.5801,415.5,388.5801" style="stroke:#181818;stroke-width:1.0;"/><line style="stroke:#181818;stroke-width:1.0;" x1="42.5" x2="417.5" y1="388.5801" y2="388.5801"/><text fill="#000000" font-family="sans-serif" font-size="13" font-weight="bold" lengthAdjust="spacing" textLength="7" x="49.5" y="383.3174">7</text><text fill="#000000" font-family="sans-serif" font-size="13" lengthAdjust="spacing" textLength="86" x="60.5" y="383.3174">selects a team</text><polygon fill="#181818" points="698.5,415.8711,708.5,419.8711,698.5,423.8711,702.5,419.8711" style="stroke:#181818;stroke-width:1.0;"/><line style="stroke:#181818;stroke-width:1.0;" x1="433.5" x2="704.5" y1="419.8711" y2="419.8711"/><text fill="#000000" font-family="sans-serif" font-size="13" font-weight="bold" lengthAdjust="spacing" textLength="7" x="440.5" y="414.6084">8</text><text fill="#000000" font-family="sans-serif" font-size="13" lengthAdjust="spacing" textLength="126" x="451.5" y="414.6084">getAllAgendaEntries()</text><polygon fill="#181818" points="966.5,447.1621,976.5,451.1621,966.5,455.1621,970.5,451.1621" style="stroke:#181818;stroke-width:1.0;"/><line style="stroke:#181818;stroke-width:1.0;" x1="720.5" x2="972.5" y1="451.1621" y2="451.1621"/><text fill="#000000" font-family="sans-serif" font-size="13" font-weight="bold" lengthAdjust="spacing" textLength="7" x="727.5" y="445.8994">9</text><text fill="#000000" font-family="sans-serif" font-size="13" lengthAdjust="spacing" textLength="126" x="738.5" y="445.8994">getAllAgendaEntries()</text><polygon fill="#181818" points="731.5,508.4531,721.5,512.4531,731.5,516.4531,727.5,512.4531" style="stroke:#181818;stroke-width:1.0;"/><line style="stroke:#181818;stroke-width:1.0;stroke-dasharray:2.0,2.0;" x1="725.5" x2="982.5" y1="512.4531" y2="512.4531"/><text fill="#000000" font-family="sans-serif" font-size="13" font-weight="bold" lengthAdjust="spacing" textLength="14" x="737.5" y="507.1904">10</text><text fill="#000000" font-family="sans-serif" font-size="13" lengthAdjust="spacing" textLength="153" x="755.5" y="507.1904">returns all agendas entries</text><polygon fill="#181818" points="444.5,539.7441,434.5,543.7441,444.5,547.7441,440.5,543.7441" style="stroke:#181818;stroke-width:1.0;"/><line style="stroke:#181818;stroke-width:1.0;stroke-dasharray:2.0,2.0;" x1="438.5" x2="714.5" y1="543.7441" y2="543.7441"/><text fill="#000000" font-family="sans-serif" font-size="13" font-weight="bold" lengthAdjust="spacing" textLength="14" x="450.5" y="538.4814">11</text><text fill="#000000" font-family="sans-serif" font-size="13" lengthAdjust="spacing" textLength="153" x="468.5" y="538.4814">returns all agendas entries</text><polygon fill="#181818" points="53.5,571.0352,43.5,575.0352,53.5,579.0352,49.5,575.0352" style="stroke:#181818;stroke-width:1.0;"/><line style="stroke:#181818;stroke-width:1.0;stroke-dasharray:2.0,2.0;" x1="47.5" x2="427.5" y1="575.0352" y2="575.0352"/><text fill="#000000" font-family="sans-serif" font-size="13" font-weight="bold" lengthAdjust="spacing" textLength="14" x="59.5" y="569.7725">12</text><text fill="#000000" font-family="sans-serif" font-size="13" lengthAdjust="spacing" textLength="339" x="77.5" y="569.7725">asks user to select a agenda entry to the the desired team</text><polygon fill="#181818" points="411.5,602.3262,421.5,606.3262,411.5,610.3262,415.5,606.3262" style="stroke:#181818;stroke-width:1.0;"/><line style="stroke:#181818;stroke-width:1.0;" x1="42.5" x2="417.5" y1="606.3262" y2="606.3262"/><text fill="#000000" font-family="sans-serif" font-size="13" font-weight="bold" lengthAdjust="spacing" textLength="14" x="49.5" y="601.0635">13</text><text fill="#000000" font-family="sans-serif" font-size="13" lengthAdjust="spacing" textLength="86" x="67.5" y="601.0635">selects a team</text><polygon fill="#181818" points="698.5,633.6172,708.5,637.6172,698.5,641.6172,702.5,637.6172" style="stroke:#181818;stroke-width:1.0;"/><line style="stroke:#181818;stroke-width:1.0;" x1="428.5" x2="704.5" y1="637.6172" y2="637.6172"/><text fill="#000000" font-family="sans-serif" font-size="13" font-weight="bold" lengthAdjust="spacing" textLength="14" x="435.5" y="632.3545">14</text><text fill="#000000" font-family="sans-serif" font-size="13" lengthAdjust="spacing" textLength="140" x="453.5" y="632.3545">updateEntry(entry,team)</text><polygon fill="#181818" points="1209.5,664.9082,1219.5,668.9082,1209.5,672.9082,1213.5,668.9082" style="stroke:#181818;stroke-width:1.0;"/><line style="stroke:#181818;stroke-width:1.0;" x1="715.5" x2="1215.5" y1="668.9082" y2="668.9082"/><text fill="#000000" font-family="sans-serif" font-size="13" font-weight="bold" lengthAdjust="spacing" textLength="14" x="722.5" y="663.6455">15</text><text fill="#000000" font-family="sans-serif" font-size="13" lengthAdjust="spacing" textLength="140" x="740.5" y="663.6455">updateEntry(entry,team)</text><polygon fill="#181818" points="731.5,696.1992,721.5,700.1992,731.5,704.1992,727.5,700.1992" style="stroke:#181818;stroke-width:1.0;"/><line style="stroke:#181818;stroke-width:1.0;stroke-dasharray:2.0,2.0;" x1="725.5" x2="1225.5" y1="700.1992" y2="700.1992"/><text fill="#000000" font-family="sans-serif" font-size="13" font-weight="bold" lengthAdjust="spacing" textLength="14" x="737.5" y="694.9365">16</text><text fill="#000000" font-family="sans-serif" font-size="13" lengthAdjust="spacing" textLength="123" x="755.5" y="694.9365">returns updated entry</text><polygon fill="#181818" points="966.5,727.4902,976.5,731.4902,966.5,735.4902,970.5,731.4902" style="stroke:#181818;stroke-width:1.0;"/><line style="stroke:#181818;stroke-width:1.0;" x1="715.5" x2="972.5" y1="731.4902" y2="731.4902"/><text fill="#000000" font-family="sans-serif" font-size="13" font-weight="bold" lengthAdjust="spacing" textLength="14" x="722.5" y="726.2275">17</text><text fill="#000000" font-family="sans-serif" font-size="13" lengthAdjust="spacing" textLength="140" x="740.5" y="726.2275">updateEntry(entry,team)</text><polygon fill="#181818" points="731.5,758.7813,721.5,762.7813,731.5,766.7813,727.5,762.7813" style="stroke:#181818;stroke-width:1.0;"/><line style="stroke:#181818;stroke-width:1.0;stroke-dasharray:2.0,2.0;" x1="725.5" x2="982.5" y1="762.7813" y2="762.7813"/><text fill="#000000" font-family="sans-serif" font-size="13" font-weight="bold" lengthAdjust="spacing" textLength="14" x="737.5" y="757.5186">18</text><text fill="#000000" font-family="sans-serif" font-size="13" lengthAdjust="spacing" textLength="182" x="755.5" y="757.5186">returns (in)success of operation</text><path d="M10,777.7813 L71,777.7813 L71,787.0723 L61,797.0723 L10,797.0723 L10,777.7813 " fill="#EEEEEE" style="stroke:#000000;stroke-width:1.5;"/><rect fill="none" height="269.6191" style="stroke:#000000;stroke-width:1.5;" width="1183" x="10" y="777.7813"/><text fill="#000000" font-family="sans-serif" font-size="13" font-weight="bold" lengthAdjust="spacing" textLength="16" x="25" y="792.8096">alt</text><text fill="#000000" font-family="sans-serif" font-size="11" font-weight="bold" lengthAdjust="spacing" textLength="65" x="86" y="791.6514">[if success]</text><polygon fill="#181818" points="444.5,816.3633,434.5,820.3633,444.5,824.3633,440.5,820.3633" style="stroke:#181818;stroke-width:1.0;"/><line style="stroke:#181818;stroke-width:1.0;" x1="438.5" x2="714.5" y1="820.3633" y2="820.3633"/><text fill="#000000" font-family="sans-serif" font-size="13" font-weight="bold" lengthAdjust="spacing" textLength="14" x="450.5" y="815.1006">19</text><text fill="#000000" font-family="sans-serif" font-size="13" lengthAdjust="spacing" textLength="164" x="468.5" y="815.1006">returns success of operation</text><polygon fill="#181818" points="831,847.6543,841,851.6543,831,855.6543,835,851.6543" style="stroke:#181818;stroke-width:1.0;"/><line style="stroke:#181818;stroke-width:1.0;" x1="428.5" x2="837" y1="851.6543" y2="851.6543"/><text fill="#000000" font-family="sans-serif" font-size="13" font-weight="bold" lengthAdjust="spacing" textLength="14" x="435.5" y="846.3916">20</text><text fill="#000000" font-family="sans-serif" font-size="13" lengthAdjust="spacing" textLength="181" x="453.5" y="846.3916">getTeamMembersEmails(team)</text><polygon fill="#181818" points="1105,878.9453,1115,882.9453,1105,886.9453,1109,882.9453" style="stroke:#181818;stroke-width:1.0;"/><line style="stroke:#181818;stroke-width:1.0;" x1="848" x2="1111" y1="882.9453" y2="882.9453"/><text fill="#000000" font-family="sans-serif" font-size="13" font-weight="bold" lengthAdjust="spacing" textLength="14" x="855" y="877.6826">21</text><text fill="#000000" font-family="sans-serif" font-size="13" lengthAdjust="spacing" textLength="181" x="873" y="877.6826">getTeamMembersEmails(team)</text><polygon fill="#181818" points="864,910.2363,854,914.2363,864,918.2363,860,914.2363" style="stroke:#181818;stroke-width:1.0;"/><line style="stroke:#181818;stroke-width:1.0;stroke-dasharray:2.0,2.0;" x1="858" x2="1121" y1="914.2363" y2="914.2363"/><text fill="#000000" font-family="sans-serif" font-size="13" font-weight="bold" lengthAdjust="spacing" textLength="14" x="870" y="908.9736">22</text><text fill="#000000" font-family="sans-serif" font-size="13" lengthAdjust="spacing" textLength="208" x="888" y="908.9736">returns list of team members emails</text><polygon fill="#181818" points="444.5,941.5273,434.5,945.5273,444.5,949.5273,440.5,945.5273" style="stroke:#181818;stroke-width:1.0;"/><line style="stroke:#181818;stroke-width:1.0;stroke-dasharray:2.0,2.0;" x1="438.5" x2="847" y1="945.5273" y2="945.5273"/><text fill="#000000" font-family="sans-serif" font-size="13" font-weight="bold" lengthAdjust="spacing" textLength="14" x="450.5" y="940.2646">23</text><text fill="#000000" font-family="sans-serif" font-size="13" lengthAdjust="spacing" textLength="208" x="468.5" y="940.2646">returns list of team members emails</text><polygon fill="#181818" points="698.5,972.8184,708.5,976.8184,698.5,980.8184,702.5,976.8184" style="stroke:#181818;stroke-width:1.0;"/><line style="stroke:#181818;stroke-width:1.0;" x1="428.5" x2="704.5" y1="976.8184" y2="976.8184"/><text fill="#000000" font-family="sans-serif" font-size="13" font-weight="bold" lengthAdjust="spacing" textLength="14" x="435.5" y="971.5557">24</text><text fill="#000000" font-family="sans-serif" font-size="13" lengthAdjust="spacing" textLength="240" x="453.5" y="971.5557">sendEmailToTeamMembers(emails,entry)</text><polygon fill="#181818" points="444.5,1004.1094,434.5,1008.1094,444.5,1012.1094,440.5,1008.1094" style="stroke:#181818;stroke-width:1.0;"/><line style="stroke:#181818;stroke-width:1.0;" x1="438.5" x2="714.5" y1="1008.1094" y2="1008.1094"/><text fill="#000000" font-family="sans-serif" font-size="13" font-weight="bold" lengthAdjust="spacing" textLength="14" x="450.5" y="1002.8467">25</text><text fill="#000000" font-family="sans-serif" font-size="13" lengthAdjust="spacing" textLength="164" x="468.5" y="1002.8467">returns success of operation</text><polygon fill="#181818" points="53.5,1035.4004,43.5,1039.4004,53.5,1043.4004,49.5,1039.4004" style="stroke:#181818;stroke-width:1.0;"/><line style="stroke:#181818;stroke-width:1.0;stroke-dasharray:2.0,2.0;" x1="47.5" x2="422.5" y1="1039.4004" y2="1039.4004"/><text fill="#000000" font-family="sans-serif" font-size="13" font-weight="bold" lengthAdjust="spacing" textLength="14" x="59.5" y="1034.1377">26</text><text fill="#000000" font-family="sans-serif" font-size="13" lengthAdjust="spacing" textLength="288" x="77.5" y="1034.1377">informs user that the team was added to the entry</text><text fill="#888888" font-family="sans-serif" font-size="10" lengthAdjust="spacing" textLength="32" x="1232" y="15.791">US022</text><!--SRC=[jPPBRjim48RtEiKWczf00XHPPb70A8AWYsuI-m1JScmJfaYLGpNmlNg2dgnyM0_BYYqdhG0lHCvyd1T_cNVALEYmXD8QAxREbWJUrLHmkrEXsE66NlnU4pWI7ir6zmruYzA-AhE1DMgcel3A1zFLo-VxU_Zp-zD2IdWqtkt1MrXio4WCgyMMK9BBPWNMtfgw_46kA51uw-1cnUHk01bgBi91NWbLeV5myn20Iy9oQJCiiPzMtxAn6Xedcwys65cj3qWK0wl86zXuCKfwfigo2X7kCycDa0OstesIid_AL_r2Jp5H24_DSFSb908Fy4m_Qs8V2uUXYWW-qDCRO680nUIJMuTHwJsXL4Hv4L0RyWkjOtGyYnIUjrQjPqYvMGi-qTDDzNJjcgHHdeExGoYEVEqCWrOXCxi6r3hbnQC8Tp7CfbZNSSLHaIA30mDv5mSkp6KeCfCEutwe-XYaN-ckQTcD6x_J-4yQX5s3kf5MnBEHIgFehILdTuNpQ9lwoDmcxBKfbZ4F6wTf2-XHYBiOwx1HKydNjAf_BUA6trBwIMBbI7wibHCxMLSoR2PPcgL0RgFt_CAnPpfy7VF8lrdhbje6jtt8RDdJaY5nwXX-D4etDeXjd3DbvbmBGSpnVjkA77fbJUUaFQWr76pUEQM38Jrxu8LytbJYAARVANxk-B54fREmJfwGDtNw2guNPrMyfzSdmfe-GcK-1YYTyu-bU-e9OkgLvA0AgI9BswlHBADlqwY-_tx-htbfb4wPjNLb8tPRz5dLOerUury8AQEmPQqxliCXwo8z_PIu-0i0]--></g></svg>