<?xml version="1.0" encoding="us-ascii" standalone="no"?><svg xmlns="http://www.w3.org/2000/svg" xmlns:xlink="http://www.w3.org/1999/xlink" contentStyleType="text/css" height="441px" preserveAspectRatio="none" style="width:395px;height:441px;background:#FFFFFF;" version="1.1" viewBox="0 0 395 441" width="395px" zoomAndPan="magnify"><defs/><g><text fill="#000000" font-family="sans-serif" font-size="14" font-weight="bold" lengthAdjust="spacing" textLength="353" x="17.25" y="44.4082">US027 - List all green spaces managed by the GSM</text><rect fill="#FFFFFF" height="201.7461" style="stroke:#181818;stroke-width:1.0;" width="10" x="18.5" y="147.543"/><rect fill="#FFFFFF" height="169.4551" style="stroke:#181818;stroke-width:1.0;" width="10" x="280.5" y="170.834"/><line style="stroke:#181818;stroke-width:0.5;stroke-dasharray:5.0,5.0;" x1="23" x2="23" y1="137.543" y2="358.2891"/><line style="stroke:#181818;stroke-width:0.5;stroke-dasharray:5.0,5.0;" x1="285.5" x2="285.5" y1="137.543" y2="358.2891"/><text fill="#000000" font-family="sans-serif" font-size="14" lengthAdjust="spacing" textLength="31" x="5" y="134.0293">GSM</text><ellipse cx="23.5" cy="67.4219" fill="#E3E3E3" rx="8" ry="8" style="stroke:#181818;stroke-width:0.5;"/><path d="M23.5,75.4219 L23.5,102.4219 M10.5,83.4219 L36.5,83.4219 M23.5,102.4219 L10.5,117.4219 M23.5,102.4219 L36.5,117.4219 " fill="none" style="stroke:#181818;stroke-width:0.5;"/><text fill="#000000" font-family="sans-serif" font-size="14" lengthAdjust="spacing" textLength="31" x="5" y="372.3965">GSM</text><ellipse cx="23.5" cy="384.4102" fill="#E3E3E3" rx="8" ry="8" style="stroke:#181818;stroke-width:0.5;"/><path d="M23.5,392.4102 L23.5,419.4102 M10.5,400.4102 L36.5,400.4102 M23.5,419.4102 L10.5,434.4102 M23.5,419.4102 L36.5,434.4102 " fill="none" style="stroke:#181818;stroke-width:0.5;"/><rect fill="#E3E3E3" height="32.6211" rx="2.5" ry="2.5" style="stroke:#181818;stroke-width:0.5;" width="60" x="255.5" y="103.9219"/><text fill="#000000" font-family="sans-serif" font-size="14" lengthAdjust="spacing" textLength="46" x="262.5" y="126.0293">System</text><rect fill="#E3E3E3" height="32.6211" rx="2.5" ry="2.5" style="stroke:#181818;stroke-width:0.5;" width="60" x="255.5" y="357.2891"/><text fill="#000000" font-family="sans-serif" font-size="14" lengthAdjust="spacing" textLength="46" x="262.5" y="379.3965">System</text><rect fill="#FFFFFF" height="201.7461" style="stroke:#181818;stroke-width:1.0;" width="10" x="18.5" y="147.543"/><rect fill="#FFFFFF" height="169.4551" style="stroke:#181818;stroke-width:1.0;" width="10" x="280.5" y="170.834"/><polygon fill="#181818" points="268.5,166.834,278.5,170.834,268.5,174.834,272.5,170.834" style="stroke:#181818;stroke-width:1.0;"/><line style="stroke:#181818;stroke-width:1.0;" x1="28.5" x2="274.5" y1="170.834" y2="170.834"/><text fill="#000000" font-family="sans-serif" font-size="13" font-weight="bold" lengthAdjust="spacing" textLength="7" x="35.5" y="165.5713">1</text><text fill="#000000" font-family="sans-serif" font-size="13" lengthAdjust="spacing" textLength="222" x="46.5" y="165.5713">Request list of managed green spaces</text><polygon fill="#181818" points="268.5,198.125,278.5,202.125,268.5,206.125,272.5,202.125" style="stroke:#181818;stroke-width:1.0;"/><line style="stroke:#181818;stroke-width:1.0;" x1="28.5" x2="274.5" y1="202.125" y2="202.125"/><text fill="#000000" font-family="sans-serif" font-size="13" font-weight="bold" lengthAdjust="spacing" textLength="7" x="35.5" y="196.8623">2</text><text fill="#000000" font-family="sans-serif" font-size="13" lengthAdjust="spacing" textLength="192" x="46.5" y="196.8623">Navigate to green spaces section</text><polygon fill="#181818" points="39.5,229.416,29.5,233.416,39.5,237.416,35.5,233.416" style="stroke:#181818;stroke-width:1.0;"/><line style="stroke:#181818;stroke-width:1.0;stroke-dasharray:2.0,2.0;" x1="33.5" x2="279.5" y1="233.416" y2="233.416"/><text fill="#000000" font-family="sans-serif" font-size="13" font-weight="bold" lengthAdjust="spacing" textLength="7" x="45.5" y="228.1533">3</text><text fill="#000000" font-family="sans-serif" font-size="13" lengthAdjust="spacing" textLength="193" x="56.5" y="228.1533">Green spaces interface displayed</text><polygon fill="#181818" points="268.5,260.707,278.5,264.707,268.5,268.707,272.5,264.707" style="stroke:#181818;stroke-width:1.0;"/><line style="stroke:#181818;stroke-width:1.0;" x1="28.5" x2="274.5" y1="264.707" y2="264.707"/><text fill="#000000" font-family="sans-serif" font-size="13" font-weight="bold" lengthAdjust="spacing" textLength="7" x="35.5" y="259.4443">4</text><text fill="#000000" font-family="sans-serif" font-size="13" lengthAdjust="spacing" textLength="165" x="46.5" y="259.4443">Select filter criteria (optional)</text><line style="stroke:#181818;stroke-width:1.0;stroke-dasharray:2.0,2.0;" x1="290.5" x2="332.5" y1="295.998" y2="295.998"/><line style="stroke:#181818;stroke-width:1.0;stroke-dasharray:2.0,2.0;" x1="332.5" x2="332.5" y1="295.998" y2="308.998"/><line style="stroke:#181818;stroke-width:1.0;stroke-dasharray:2.0,2.0;" x1="291.5" x2="332.5" y1="308.998" y2="308.998"/><polygon fill="#181818" points="301.5,304.998,291.5,308.998,301.5,312.998,297.5,308.998" style="stroke:#181818;stroke-width:1.0;"/><text fill="#000000" font-family="sans-serif" font-size="13" font-weight="bold" lengthAdjust="spacing" textLength="7" x="297.5" y="290.7354">5</text><text fill="#000000" font-family="sans-serif" font-size="13" lengthAdjust="spacing" textLength="68" x="308.5" y="290.7354">Apply filters</text><polygon fill="#181818" points="39.5,336.2891,29.5,340.2891,39.5,344.2891,35.5,340.2891" style="stroke:#181818;stroke-width:1.0;"/><line style="stroke:#181818;stroke-width:1.0;stroke-dasharray:2.0,2.0;" x1="33.5" x2="284.5" y1="340.2891" y2="340.2891"/><text fill="#000000" font-family="sans-serif" font-size="13" font-weight="bold" lengthAdjust="spacing" textLength="7" x="45.5" y="335.0264">6</text><text fill="#000000" font-family="sans-serif" font-size="13" lengthAdjust="spacing" textLength="167" x="56.5" y="335.0264">Display filtered green spaces</text><text fill="#888888" font-family="sans-serif" font-size="10" lengthAdjust="spacing" textLength="32" x="355.5" y="15.791">US027</text><!--SRC=[RP39JiCm48RlVeevmY4IueBK0n8IKY_G0n4FC8qdoQZUi2T5UNic2wL4zSMMvliNJpbnI9ZHWuyXDdsEda3oGAPS9WcR4tPKo-W8CZM2eNFNGEdHncyE7RJe2XaZB8f-rW-FJr316nS1T0wwJ1IWg1yLy1ZKrC9n1Ea9zlMxwGajvKLdS90O1d-aR0ms4lE409QPr5pXXXC6WNeiGdwQBAyPvpFAOcecMVMy3dVmGLy3QI4tjOhjfSTrkJ-7rHBqR7mEUEPkGYJ-_rZH3N4CisRjLgbEvJlONuCSX7AhJx1SaiEHxAsWcfmwGijESMWowyK8Tp5DCUZkjqc_mfUKtBZgoiqwhqlkocoNO6cxXXy0]--></g></svg>