<?xml version="1.0" encoding="us-ascii" standalone="no"?><svg xmlns="http://www.w3.org/2000/svg" xmlns:xlink="http://www.w3.org/1999/xlink" contentStyleType="text/css" height="559px" preserveAspectRatio="none" style="width:438px;height:559px;background:#FFFFFF;" version="1.1" viewBox="0 0 438 559" width="438px" zoomAndPan="magnify"><defs/><g><text fill="#000000" font-family="sans-serif" font-size="14" font-weight="bold" lengthAdjust="spacing" textLength="351" x="44.5" y="30.1074">System Sequence Diagram (SSD) - Alternative One</text><rect fill="#FFFFFF" height="334.541" style="stroke:#181818;stroke-width:1.0;" width="10" x="43" y="133.2422"/><rect fill="#FFFFFF" height="31.291" style="stroke:#181818;stroke-width:1.0;" width="10" x="374" y="156.5332"/><rect fill="#FFFFFF" height="83.873" style="stroke:#181818;stroke-width:1.0;" width="10" x="374" y="219.1152"/><rect fill="#FFFFFF" height="54.9219" style="stroke:#181818;stroke-width:1.0;" width="10" x="374" y="334.2793"/><rect fill="#FFFFFF" height="31.291" style="stroke:#181818;stroke-width:1.0;" width="10" x="374" y="427.4922"/><rect fill="none" height="163.0859" style="stroke:#000000;stroke-width:1.5;" width="421" x="10" y="234.1152"/><rect fill="none" height="81.873" style="stroke:#000000;stroke-width:1.5;" width="401" x="20" y="260.4063"/><line style="stroke:#181818;stroke-width:0.5;stroke-dasharray:5.0,5.0;" x1="48" x2="48" y1="123.2422" y2="476.7832"/><line style="stroke:#181818;stroke-width:0.5;stroke-dasharray:5.0,5.0;" x1="379" x2="379" y1="123.2422" y2="476.7832"/><text fill="#000000" font-family="sans-serif" font-size="14" lengthAdjust="spacing" textLength="30" x="30" y="119.7285">HRM</text><ellipse cx="48" cy="53.1211" fill="#E3E3E3" rx="8" ry="8" style="stroke:#181818;stroke-width:0.5;"/><path d="M48,61.1211 L48,88.1211 M35,69.1211 L61,69.1211 M48,88.1211 L35,103.1211 M48,88.1211 L61,103.1211 " fill="none" style="stroke:#181818;stroke-width:0.5;"/><text fill="#000000" font-family="sans-serif" font-size="14" lengthAdjust="spacing" textLength="30" x="30" y="490.8906">HRM</text><ellipse cx="48" cy="502.9043" fill="#E3E3E3" rx="8" ry="8" style="stroke:#181818;stroke-width:0.5;"/><path d="M48,510.9043 L48,537.9043 M35,518.9043 L61,518.9043 M48,537.9043 L35,552.9043 M48,537.9043 L61,552.9043 " fill="none" style="stroke:#181818;stroke-width:0.5;"/><rect fill="#E3E3E3" height="32.6211" rx="2.5" ry="2.5" style="stroke:#181818;stroke-width:0.5;" width="64" x="347" y="89.6211"/><text fill="#000000" font-family="sans-serif" font-size="14" lengthAdjust="spacing" textLength="50" x="354" y="111.7285">:System</text><rect fill="#E3E3E3" height="32.6211" rx="2.5" ry="2.5" style="stroke:#181818;stroke-width:0.5;" width="64" x="347" y="475.7832"/><text fill="#000000" font-family="sans-serif" font-size="14" lengthAdjust="spacing" textLength="50" x="354" y="497.8906">:System</text><rect fill="#FFFFFF" height="334.541" style="stroke:#181818;stroke-width:1.0;" width="10" x="43" y="133.2422"/><rect fill="#FFFFFF" height="31.291" style="stroke:#181818;stroke-width:1.0;" width="10" x="374" y="156.5332"/><rect fill="#FFFFFF" height="83.873" style="stroke:#181818;stroke-width:1.0;" width="10" x="374" y="219.1152"/><rect fill="#FFFFFF" height="54.9219" style="stroke:#181818;stroke-width:1.0;" width="10" x="374" y="334.2793"/><rect fill="#FFFFFF" height="31.291" style="stroke:#181818;stroke-width:1.0;" width="10" x="374" y="427.4922"/><polygon fill="#181818" points="362,152.5332,372,156.5332,362,160.5332,366,156.5332" style="stroke:#181818;stroke-width:1.0;"/><line style="stroke:#181818;stroke-width:1.0;" x1="53" x2="368" y1="156.5332" y2="156.5332"/><text fill="#000000" font-family="sans-serif" font-size="13" font-weight="bold" lengthAdjust="spacing" textLength="7" x="60" y="151.2705">1</text><text fill="#000000" font-family="sans-serif" font-size="13" lengthAdjust="spacing" textLength="155" x="71" y="151.2705">asks to register a new skill</text><polygon fill="#181818" points="64,183.8242,54,187.8242,64,191.8242,60,187.8242" style="stroke:#181818;stroke-width:1.0;"/><line style="stroke:#181818;stroke-width:1.0;stroke-dasharray:2.0,2.0;" x1="58" x2="378" y1="187.8242" y2="187.8242"/><text fill="#000000" font-family="sans-serif" font-size="13" font-weight="bold" lengthAdjust="spacing" textLength="7" x="70" y="182.5615">2</text><text fill="#000000" font-family="sans-serif" font-size="13" lengthAdjust="spacing" textLength="150" x="81" y="182.5615">requests data (skill name)</text><polygon fill="#181818" points="362,215.1152,372,219.1152,362,223.1152,366,219.1152" style="stroke:#181818;stroke-width:1.0;"/><line style="stroke:#181818;stroke-width:1.0;" x1="53" x2="368" y1="219.1152" y2="219.1152"/><text fill="#000000" font-family="sans-serif" font-size="13" font-weight="bold" lengthAdjust="spacing" textLength="7" x="60" y="213.8525">3</text><text fill="#000000" font-family="sans-serif" font-size="13" lengthAdjust="spacing" textLength="122" x="71" y="213.8525">types requested data</text><path d="M10,234.1152 L71,234.1152 L71,243.4063 L61,253.4063 L10,253.4063 L10,234.1152 " fill="#EEEEEE" style="stroke:#000000;stroke-width:1.5;"/><rect fill="none" height="163.0859" style="stroke:#000000;stroke-width:1.5;" width="421" x="10" y="234.1152"/><text fill="#000000" font-family="sans-serif" font-size="13" font-weight="bold" lengthAdjust="spacing" textLength="16" x="25" y="249.1436">alt</text><text fill="#000000" font-family="sans-serif" font-size="11" font-weight="bold" lengthAdjust="spacing" textLength="200" x="86" y="247.9854">[if data_contains_invalid_characters]</text><path d="M20,260.4063 L93,260.4063 L93,269.6973 L83,279.6973 L20,279.6973 L20,260.4063 " fill="#EEEEEE" style="stroke:#000000;stroke-width:1.5;"/><rect fill="none" height="81.873" style="stroke:#000000;stroke-width:1.5;" width="401" x="20" y="260.4063"/><text fill="#000000" font-family="sans-serif" font-size="13" font-weight="bold" lengthAdjust="spacing" textLength="28" x="35" y="275.4346">loop</text><polygon fill="#181818" points="64,298.9883,54,302.9883,64,306.9883,60,302.9883" style="stroke:#181818;stroke-width:1.0;"/><line style="stroke:#181818;stroke-width:1.0;stroke-dasharray:2.0,2.0;" x1="58" x2="378" y1="302.9883" y2="302.9883"/><text fill="#000000" font-family="sans-serif" font-size="13" font-weight="bold" lengthAdjust="spacing" textLength="7" x="70" y="297.7256">4</text><text fill="#000000" font-family="sans-serif" font-size="13" lengthAdjust="spacing" textLength="286" x="81" y="297.7256">prompts to re-enter skill without invalid characters</text><polygon fill="#181818" points="362,330.2793,372,334.2793,362,338.2793,366,334.2793" style="stroke:#181818;stroke-width:1.0;"/><line style="stroke:#181818;stroke-width:1.0;" x1="53" x2="368" y1="334.2793" y2="334.2793"/><text fill="#000000" font-family="sans-serif" font-size="13" font-weight="bold" lengthAdjust="spacing" textLength="7" x="60" y="329.0166">5</text><text fill="#000000" font-family="sans-serif" font-size="13" lengthAdjust="spacing" textLength="122" x="71" y="329.0166">types requested data</text><line style="stroke:#000000;stroke-width:1.0;stroke-dasharray:2.0,2.0;" x1="10" x2="431" y1="350.2793" y2="350.2793"/><text fill="#000000" font-family="sans-serif" font-size="11" font-weight="bold" lengthAdjust="spacing" textLength="141" x="15" y="362.1494">[if data_inserted_is_valid]</text><polygon fill="#181818" points="64,385.2012,54,389.2012,64,393.2012,60,389.2012" style="stroke:#181818;stroke-width:1.0;"/><line style="stroke:#181818;stroke-width:1.0;stroke-dasharray:2.0,2.0;" x1="58" x2="378" y1="389.2012" y2="389.2012"/><text fill="#000000" font-family="sans-serif" font-size="13" font-weight="bold" lengthAdjust="spacing" textLength="7" x="70" y="383.9385">6</text><text fill="#000000" font-family="sans-serif" font-size="13" lengthAdjust="spacing" textLength="232" x="81" y="383.9385">shows all data and asks for confirmation</text><polygon fill="#181818" points="362,423.4922,372,427.4922,362,431.4922,366,427.4922" style="stroke:#181818;stroke-width:1.0;"/><line style="stroke:#181818;stroke-width:1.0;" x1="53" x2="368" y1="427.4922" y2="427.4922"/><text fill="#000000" font-family="sans-serif" font-size="13" font-weight="bold" lengthAdjust="spacing" textLength="7" x="60" y="422.2295">7</text><text fill="#000000" font-family="sans-serif" font-size="13" lengthAdjust="spacing" textLength="78" x="71" y="422.2295">confirms data</text><polygon fill="#181818" points="64,454.7832,54,458.7832,64,462.7832,60,458.7832" style="stroke:#181818;stroke-width:1.0;"/><line style="stroke:#181818;stroke-width:1.0;stroke-dasharray:2.0,2.0;" x1="58" x2="378" y1="458.7832" y2="458.7832"/><text fill="#000000" font-family="sans-serif" font-size="13" font-weight="bold" lengthAdjust="spacing" textLength="7" x="70" y="453.5205">8</text><text fill="#000000" font-family="sans-serif" font-size="13" lengthAdjust="spacing" textLength="158" x="81" y="453.5205">displays operation success</text><!--SRC=[ZLBDRjim3BxhAOYSqaDU88S11JfWbw50_G069pEs49bIHJg1txwqdJ-ipZ2T28dVdqWv1ivOi8S-SV9TIJs1be6St5uo-YEsLEaO2GfvHMxZOuDqsAHpu1OE68MSqw3MMesYr4D5dmEn9tWBs4xjswfwUu4Tl4QbmgZXHF3E1iD14m_z7ofMUqq5Dhy-Vcy01NxsEQQHo9cY1Xyoii9clqZC7Kiv0yC9bUuGTwrWz-DgQc-Geu0c2zG6kog0m7G6InNZdUJAUe7jZE76jZUiHHCLQ50HjZCM67jwSGrzurYreMCckH9HCpDzbtSO5S9XVgrzOiN0KWS-OGnDxJiRWxSCuc9AsO6TTSFPvflradj7FELUN9-3TcamaOKJ7ZWdkfKuq_N_Hvgw_wOWRXpPmjoIMIWg1gc3rBEDVqIHBfq5qApFdu_SB2CzsDhO3nr2wMsr4Z-nFscx9pEvmEN9CDRzD45on54WPIgpCiZWFOcixC8N]--></g></svg>