<?xml version="1.0" encoding="us-ascii" standalone="no"?><svg xmlns="http://www.w3.org/2000/svg" xmlns:xlink="http://www.w3.org/1999/xlink" contentStyleType="text/css" height="2335px" preserveAspectRatio="none" style="width:628px;height:2335px;background:#FFFFFF;" version="1.1" viewBox="0 0 628 2335" width="628px" zoomAndPan="magnify"><defs><filter height="300%" id="f2ct7g8m0z6wk" width="300%" x="-1" y="-1"><feGaussianBlur result="blurOut" stdDeviation="2.0"/><feColorMatrix in="blurOut" result="blurOut2" type="matrix" values="0 0 0 0 0 0 0 0 0 0 0 0 0 0 0 0 0 0 .4 0"/><feOffset dx="4.0" dy="4.0" in="blurOut2" result="blurOut3"/><feBlend in="SourceGraphic" in2="blurOut3" mode="normal"/></filter></defs><g><text fill="#000000" font-family="sans-serif" font-size="14" font-weight="bold" lengthAdjust="spacing" textLength="99" x="257.5" y="25.1074">Class Diagram</text><!--cluster Not yet concrete use cases--><g id="cluster_Not yet concrete use cases"><rect fill="none" filter="url(#f2ct7g8m0z6wk)" height="99" rx="2.5" ry="2.5" style="stroke:#181818;stroke-width:1.0;" width="207" x="268.5" y="46.6211"/><text fill="#000000" font-family="sans-serif" font-size="14" font-weight="bold" lengthAdjust="spacing" textLength="191" x="276.5" y="63.7285">Not yet concrete use cases</text></g><!--cluster emp--><g id="cluster_emp"><rect fill="none" filter="url(#f2ct7g8m0z6wk)" height="451" rx="2.5" ry="2.5" style="stroke:#181818;stroke-width:1.0;" width="312" x="216" y="1872.6211"/><text fill="#000000" font-family="sans-serif" font-size="14" font-weight="bold" lengthAdjust="spacing" textLength="238" x="253" y="1889.7285">Employees and team management</text></g><!--cluster Vehicles and machines management--><g id="cluster_Vehicles and machines management"><rect fill="none" filter="url(#f2ct7g8m0z6wk)" height="299" rx="2.5" ry="2.5" style="stroke:#181818;stroke-width:1.0;" width="350" x="197" y="1549.6211"/><text fill="#000000" font-family="sans-serif" font-size="14" font-weight="bold" lengthAdjust="spacing" textLength="255" x="244.5" y="1566.7285">Vehicles and machines management</text></g><!--cluster Collaborator--><g id="cluster_Collaborator"><rect fill="none" filter="url(#f2ct7g8m0z6wk)" height="230" rx="2.5" ry="2.5" style="stroke:#181818;stroke-width:1.0;" width="395" x="174.5" y="1295.6211"/><text fill="#000000" font-family="sans-serif" font-size="14" font-weight="bold" lengthAdjust="spacing" textLength="87" x="328.5" y="1312.7285">Collaborator</text></g><!--cluster gsm_additional--><g id="cluster_gsm_additional"><rect fill="none" filter="url(#f2ct7g8m0z6wk)" height="1102" rx="2.5" ry="2.5" style="stroke:#181818;stroke-width:1.0;" width="488" x="128" y="169.6211"/><text fill="#000000" font-family="sans-serif" font-size="14" font-weight="bold" lengthAdjust="spacing" textLength="165" x="289.5" y="186.7285">Functionalities for GSM</text></g><g id="elem_GMN8"><path d="M295.5,84.1211 L295.5,102.6211 L59.55,106.6211 L295.5,110.6211 L295.5,128.7031 A0,0 0 0 0 295.5,128.7031 L448.5,128.7031 A0,0 0 0 0 448.5,128.7031 L448.5,94.1211 L438.5,84.1211 L295.5,84.1211 A0,0 0 0 0 295.5,84.1211 " fill="#FEFFDD" filter="url(#f2ct7g8m0z6wk)" style="stroke:#181818;stroke-width:0.5;"/><path d="M438.5,84.1211 L438.5,94.1211 L448.5,94.1211 L438.5,84.1211 " fill="#FEFFDD" style="stroke:#181818;stroke-width:0.5;"/><text fill="#000000" font-family="sans-serif" font-size="13" lengthAdjust="spacing" textLength="132" x="301.5" y="103.1494">Actor identified but still</text><text fill="#000000" font-family="sans-serif" font-size="13" lengthAdjust="spacing" textLength="132" x="301.5" y="120.4404">no concrete use cases</text></g><g id="elem_UC1"><ellipse cx="372.1884" cy="1931.6588" fill="#F1F1F1" filter="url(#f2ct7g8m0z6wk)" rx="95.6884" ry="21.5377" style="stroke:#181818;stroke-width:0.5;"/><text fill="#000000" font-family="sans-serif" font-size="14" lengthAdjust="spacing" textLength="148" x="295.7253" y="1936.3022">UC1 - To register a skill</text></g><g id="elem_UC2"><ellipse cx="372.0286" cy="2009.8268" fill="#F1F1F1" filter="url(#f2ct7g8m0z6wk)" rx="94.0286" ry="21.2057" style="stroke:#181818;stroke-width:0.5;"/><text fill="#000000" font-family="sans-serif" font-size="14" lengthAdjust="spacing" textLength="144" x="297.0286" y="2014.6305">UC2 - To register a job</text></g><g id="elem_UC3"><ellipse cx="372.1469" cy="2092.5505" fill="#F1F1F1" filter="url(#f2ct7g8m0z6wk)" rx="120.1469" ry="26.4294" style="stroke:#181818;stroke-width:0.5;"/><text fill="#000000" font-family="sans-serif" font-size="14" lengthAdjust="spacing" textLength="203" x="270.6469" y="2096.3474">UC3 - To register a Collaborator</text></g><g id="elem_UC4"><ellipse cx="372.1428" cy="2184.5497" fill="#F1F1F1" filter="url(#f2ct7g8m0z6wk)" rx="140.1428" ry="30.4286" style="stroke:#181818;stroke-width:0.5;"/><text fill="#000000" font-family="sans-serif" font-size="14" lengthAdjust="spacing" textLength="246" x="249.1428" y="2188.3465">UC4 - To assign skills to a Collaborator</text></g><g id="elem_UC5"><ellipse cx="371.8509" cy="2278.4913" fill="#F1F1F1" filter="url(#f2ct7g8m0z6wk)" rx="129.8509" ry="28.3702" style="stroke:#181818;stroke-width:0.5;"/><text fill="#000000" font-family="sans-serif" font-size="14" lengthAdjust="spacing" textLength="224" x="259.8509" y="2282.2882">UC5 - To generate a team proposal</text></g><g id="elem_UC6"><ellipse cx="371.7713" cy="1610.4754" fill="#F1F1F1" filter="url(#f2ct7g8m0z6wk)" rx="104.7713" ry="23.3543" style="stroke:#181818;stroke-width:0.5;"/><text fill="#000000" font-family="sans-serif" font-size="14" lengthAdjust="spacing" textLength="169" x="287.2713" y="1614.2722">UC6 - To register a vehicle</text></g><g id="elem_UC7"><ellipse cx="371.7939" cy="1699.5799" fill="#F1F1F1" filter="url(#f2ct7g8m0z6wk)" rx="137.7939" ry="29.9588" style="stroke:#181818;stroke-width:0.5;"/><text fill="#000000" font-family="sans-serif" font-size="14" lengthAdjust="spacing" textLength="241" x="251.2939" y="1703.3768">UC7 - To register a vehicle's check-up</text></g><g id="elem_UC8"><ellipse cx="372.103" cy="1798.8417" fill="#F1F1F1" filter="url(#f2ct7g8m0z6wk)" rx="159.103" ry="34.2206" style="stroke:#181818;stroke-width:0.5;"/><text fill="#000000" font-family="sans-serif" font-size="14" lengthAdjust="spacing" textLength="286" x="229.103" y="1802.6386">UC8 - To list the vehicles in need of check-up</text></g><g id="elem_UC28"><ellipse cx="372.1712" cy="1371.8553" fill="#F1F1F1" filter="url(#f2ct7g8m0z6wk)" rx="181.6712" ry="38.7342" style="stroke:#181818;stroke-width:0.5;"/><text fill="#000000" font-family="sans-serif" font-size="14" lengthAdjust="spacing" textLength="333" x="205.6712" y="1375.6522">UC28 - To consult tasks assigned between two dates</text></g><g id="elem_UC29"><ellipse cx="372.1405" cy="1477.7492" fill="#F1F1F1" filter="url(#f2ct7g8m0z6wk)" rx="148.6405" ry="32.1281" style="stroke:#181818;stroke-width:0.5;"/><text fill="#000000" font-family="sans-serif" font-size="14" lengthAdjust="spacing" textLength="264" x="240.1405" y="1481.5461">UC29 - To record the completion of a task</text></g><g id="elem_US20"><ellipse cx="371.991" cy="241.8193" fill="#F1F1F1" filter="url(#f2ct7g8m0z6wk)" rx="161.491" ry="34.6982" style="stroke:#181818;stroke-width:0.5;"/><text fill="#000000" font-family="sans-serif" font-size="14" lengthAdjust="spacing" textLength="291" x="226.491" y="245.6162">UC20 - To register a green space and its area</text></g><g id="elem_US21"><ellipse cx="372.2422" cy="344.7695" fill="#F1F1F1" filter="url(#f2ct7g8m0z6wk)" rx="156.2422" ry="33.6484" style="stroke:#181818;stroke-width:0.5;"/><text fill="#000000" font-family="sans-serif" font-size="14" lengthAdjust="spacing" textLength="280" x="232.2422" y="348.5664">UC21 - To add a new entry to the To-Do List</text></g><g id="elem_US22"><ellipse cx="372.1933" cy="445.5598" fill="#F1F1F1" filter="url(#f2ct7g8m0z6wk)" rx="147.6933" ry="31.9387" style="stroke:#181818;stroke-width:0.5;"/><text fill="#000000" font-family="sans-serif" font-size="14" lengthAdjust="spacing" textLength="262" x="241.1933" y="449.3566">UC22 - To add a new entry in the Agenda</text></g><g id="elem_US23"><ellipse cx="371.7945" cy="550.68" fill="#F1F1F1" filter="url(#f2ct7g8m0z6wk)" rx="178.2945" ry="38.0589" style="stroke:#181818;stroke-width:0.5;"/><text fill="#000000" font-family="sans-serif" font-size="14" lengthAdjust="spacing" textLength="326" x="208.7945" y="554.4769">UC23 - To assign a Team to an entry in the Agenda</text></g><g id="elem_US24"><ellipse cx="371.8714" cy="671.5954" fill="#F1F1F1" filter="url(#f2ct7g8m0z6wk)" rx="227.8714" ry="47.9743" style="stroke:#181818;stroke-width:0.5;"/><text fill="#000000" font-family="sans-serif" font-size="14" lengthAdjust="spacing" textLength="428" x="157.8714" y="675.3923">UC24 - To postpone an entry in the Agenda to a specific future date</text></g><g id="elem_US25"><ellipse cx="371.8011" cy="786.6813" fill="#F1F1F1" filter="url(#f2ct7g8m0z6wk)" rx="145.8011" ry="31.5602" style="stroke:#181818;stroke-width:0.5;"/><text fill="#000000" font-family="sans-serif" font-size="14" lengthAdjust="spacing" textLength="258" x="242.8011" y="790.4782">UC25 - To cancel an entry in the Agenda</text></g><g id="elem_US26"><ellipse cx="372.0744" cy="899.836" fill="#F1F1F1" filter="url(#f2ct7g8m0z6wk)" rx="219.0744" ry="46.2149" style="stroke:#181818;stroke-width:0.5;"/><text fill="#000000" font-family="sans-serif" font-size="14" lengthAdjust="spacing" textLength="410" x="167.0744" y="903.6329">UC26 - To assign one or more vehicles to an entry in the Agenda</text></g><g id="elem_US27"><ellipse cx="371.8285" cy="1012.5868" fill="#F1F1F1" filter="url(#f2ct7g8m0z6wk)" rx="145.3285" ry="31.4657" style="stroke:#181818;stroke-width:0.5;"/><text fill="#000000" font-family="sans-serif" font-size="14" lengthAdjust="spacing" textLength="257" x="243.3285" y="1016.3837">UC27 - To list all green spaces managed</text></g><g id="elem_US28"><ellipse cx="372.1712" cy="1117.8553" fill="#F1F1F1" filter="url(#f2ct7g8m0z6wk)" rx="181.6712" ry="38.7342" style="stroke:#181818;stroke-width:0.5;"/><text fill="#000000" font-family="sans-serif" font-size="14" lengthAdjust="spacing" textLength="333" x="205.6712" y="1121.6522">UC28 - To consult tasks assigned between two dates</text></g><g id="elem_US29"><ellipse cx="372.1405" cy="1223.7492" fill="#F1F1F1" filter="url(#f2ct7g8m0z6wk)" rx="148.6405" ry="32.1281" style="stroke:#181818;stroke-width:0.5;"/><text fill="#000000" font-family="sans-serif" font-size="14" lengthAdjust="spacing" textLength="264" x="240.1405" y="1227.5461">UC29 - To record the completion of a task</text></g><!--entity hrm--><g id="elem_hrm"><ellipse cx="45" cy="2060.1211" fill="#F1F1F1" filter="url(#f2ct7g8m0z6wk)" rx="8" ry="8" style="stroke:#181818;stroke-width:0.5;"/><path d="M45,2068.1211 L45,2095.1211 M32,2076.1211 L58,2076.1211 M45,2095.1211 L32,2110.1211 M45,2095.1211 L58,2110.1211 " fill="none" filter="url(#f2ct7g8m0z6wk)" style="stroke:#181818;stroke-width:0.5;"/><text fill="#000000" font-family="sans-serif" font-size="14" lengthAdjust="spacing" textLength="30" x="30" y="2129.7285">HRM</text></g><!--entity vfm--><g id="elem_vfm"><ellipse cx="45" cy="1667.1211" fill="#F1F1F1" filter="url(#f2ct7g8m0z6wk)" rx="8" ry="8" style="stroke:#181818;stroke-width:0.5;"/><path d="M45,1675.1211 L45,1702.1211 M32,1683.1211 L58,1683.1211 M45,1702.1211 L32,1717.1211 M45,1702.1211 L58,1717.1211 " fill="none" filter="url(#f2ct7g8m0z6wk)" style="stroke:#181818;stroke-width:0.5;"/><text fill="#000000" font-family="sans-serif" font-size="14" lengthAdjust="spacing" textLength="29" x="30.5" y="1736.7285">VFM</text></g><!--entity collaborator--><g id="elem_collaborator"><ellipse cx="45" cy="1392.1211" fill="#F1F1F1" filter="url(#f2ct7g8m0z6wk)" rx="8" ry="8" style="stroke:#181818;stroke-width:0.5;"/><path d="M45,1400.1211 L45,1427.1211 M32,1408.1211 L58,1408.1211 M45,1427.1211 L32,1442.1211 M45,1427.1211 L58,1442.1211 " fill="none" filter="url(#f2ct7g8m0z6wk)" style="stroke:#181818;stroke-width:0.5;"/><text fill="#000000" font-family="sans-serif" font-size="14" lengthAdjust="spacing" textLength="78" x="6" y="1461.7285">Collaborator</text></g><!--entity GSM--><g id="elem_GSM"><ellipse cx="45" cy="697.1211" fill="#F1F1F1" filter="url(#f2ct7g8m0z6wk)" rx="8" ry="8" style="stroke:#181818;stroke-width:0.5;"/><path d="M45,705.1211 L45,732.1211 M32,713.1211 L58,713.1211 M45,732.1211 L32,747.1211 M45,732.1211 L58,747.1211 " fill="none" filter="url(#f2ct7g8m0z6wk)" style="stroke:#181818;stroke-width:0.5;"/><text fill="#000000" font-family="sans-serif" font-size="14" lengthAdjust="spacing" textLength="31" x="29.5" y="766.7285">GSM</text></g><!--entity GSU--><g id="elem_GSU"><ellipse cx="45" cy="74.1211" fill="#F1F1F1" filter="url(#f2ct7g8m0z6wk)" rx="8" ry="8" style="stroke:#181818;stroke-width:0.5;"/><path d="M45,82.1211 L45,109.1211 M32,90.1211 L58,90.1211 M45,109.1211 L32,124.1211 M45,109.1211 L58,124.1211 " fill="none" filter="url(#f2ct7g8m0z6wk)" style="stroke:#181818;stroke-width:0.5;"/><text fill="#000000" font-family="sans-serif" font-size="14" lengthAdjust="spacing" textLength="29" x="30.5" y="143.7285">GSU</text></g><!--link hrm to UC1--><g id="link_hrm_UC1"><path d="M60.04,2052.7111 C71.77,2025.4311 91.25,1990.8711 120,1971.6211 C166.02,1940.8111 221.2468,1930.8873 271.7068,1928.4773 " fill="none" id="hrm-to-UC1" style="stroke:#181818;stroke-width:1.0;"/><polygon fill="#181818" points="277.7,1928.1911,268.5194,1924.625,272.7057,1928.4296,268.9011,1932.6159,277.7,1928.1911" style="stroke:#181818;stroke-width:1.0;"/></g><!--link hrm to UC2--><g id="link_hrm_UC2"><path d="M60.19,2081.9211 C74.51,2071.6911 97.64,2056.6611 120,2048.6211 C171.66,2030.0411 226.4724,2020.9234 275.2824,2015.8334 " fill="none" id="hrm-to-UC2" style="stroke:#181818;stroke-width:1.0;"/><polygon fill="#181818" points="281.25,2015.2111,271.8837,2012.1661,276.277,2015.7297,272.7134,2020.123,281.25,2015.2111" style="stroke:#181818;stroke-width:1.0;"/></g><!--link hrm to UC3--><g id="link_hrm_UC3"><path d="M60.38,2092.6211 C93.74,2092.6211 173.06,2092.6211 245.86,2092.6211 " fill="none" id="hrm-to-UC3" style="stroke:#181818;stroke-width:1.0;"/><polygon fill="#181818" points="251.86,2092.6211,242.86,2088.6211,246.86,2092.6211,242.86,2096.6211,251.86,2092.6211" style="stroke:#181818;stroke-width:1.0;"/></g><!--link hrm to UC4--><g id="link_hrm_UC4"><path d="M60.25,2103.1511 C74.62,2113.2611 97.78,2128.1911 120,2136.6211 C160.75,2152.0911 201.2889,2161.722 243.0489,2168.992 " fill="none" id="hrm-to-UC4" style="stroke:#181818;stroke-width:1.0;"/><polygon fill="#181818" points="248.96,2170.0211,240.7794,2164.5368,244.0341,2169.1635,239.4073,2172.4182,248.96,2170.0211" style="stroke:#181818;stroke-width:1.0;"/></g><!--link hrm to UC5--><g id="link_hrm_UC5"><path d="M56.99,2133.8211 C67.72,2165.8111 87.3,2208.6311 120,2232.6211 C155.01,2258.3011 194.0492,2270.2206 236.2492,2276.1906 " fill="none" id="hrm-to-UC5" style="stroke:#181818;stroke-width:1.0;"/><polygon fill="#181818" points="242.19,2277.0311,233.839,2271.8099,237.2393,2276.3307,232.7184,2279.731,242.19,2277.0311" style="stroke:#181818;stroke-width:1.0;"/></g><!--link vfm to UC6--><g id="link_vfm_UC6"><path d="M59.51,1688.3711 C73.66,1677.2011 97,1660.5011 120,1651.6211 C167.98,1633.0811 218.3215,1623.6357 265.4215,1618.0657 " fill="none" id="vfm-to-UC6" style="stroke:#181818;stroke-width:1.0;"/><polygon fill="#181818" points="271.38,1617.3611,261.9725,1614.4457,266.4146,1617.9483,262.912,1622.3904,271.38,1617.3611" style="stroke:#181818;stroke-width:1.0;"/></g><!--link vfm to UC7--><g id="link_vfm_UC7"><path d="M59.55,1699.6211 C89.64,1699.6211 158.84,1699.6211 227.81,1699.6211 " fill="none" id="vfm-to-UC7" style="stroke:#181818;stroke-width:1.0;"/><polygon fill="#181818" points="233.81,1699.6211,224.81,1695.6211,228.81,1699.6211,224.81,1703.6211,233.81,1699.6211" style="stroke:#181818;stroke-width:1.0;"/></g><!--link vfm to UC8--><g id="link_vfm_UC8"><path d="M59.63,1710.4311 C73.88,1721.2011 97.29,1737.4211 120,1746.6211 C157.02,1761.6211 193.0473,1771.3206 231.8673,1779.1106 " fill="none" id="vfm-to-UC8" style="stroke:#181818;stroke-width:1.0;"/><polygon fill="#181818" points="237.75,1780.2911,229.7129,1774.5985,232.8477,1779.3074,228.1389,1782.4422,237.75,1780.2911" style="stroke:#181818;stroke-width:1.0;"/></g><!--link collaborator to UC28--><g id="link_collaborator_UC28"><path d="M84.24,1418.3811 C119.81,1412.5811 169.1682,1404.5365 221.7382,1395.9665 " fill="none" id="collaborator-to-UC28" style="stroke:#181818;stroke-width:1.0;"/><polygon fill="#181818" points="227.66,1395.0011,218.1337,1392.5013,222.7251,1395.8056,219.4208,1400.397,227.66,1395.0011" style="stroke:#181818;stroke-width:1.0;"/></g><!--link collaborator to UC29--><g id="link_collaborator_UC29"><path d="M84.24,1430.8611 C125.6,1437.6011 187.6783,1447.7252 247.0883,1457.4152 " fill="none" id="collaborator-to-UC29" style="stroke:#181818;stroke-width:1.0;"/><polygon fill="#181818" points="253.01,1458.3811,244.7713,1452.9845,248.0752,1457.5762,243.4835,1460.8801,253.01,1458.3811" style="stroke:#181818;stroke-width:1.0;"/></g><!--link GSM to US20--><g id="link_GSM_US20"><path d="M47.25,688.5111 C51.07,591.0011 65.9,349.7111 120,293.6211 C144.25,268.4811 171.3953,255.2598 205.4753,247.0898 " fill="none" id="GSM-to-US20" style="stroke:#181818;stroke-width:1.0;"/><polygon fill="#181818" points="211.31,245.6911,201.6255,243.8994,206.4478,246.8567,203.4905,251.679,211.31,245.6911" style="stroke:#181818;stroke-width:1.0;"/></g><!--link GSM to US21--><g id="link_GSM_US21"><path d="M49.6,688.3711 C57.43,608.3111 78.75,436.1511 120,395.6211 C145.93,370.1411 175.0294,357.0272 210.6194,349.2172 " fill="none" id="GSM-to-US21" style="stroke:#181818;stroke-width:1.0;"/><polygon fill="#181818" points="216.48,347.9311,206.8318,345.9532,211.5962,349.0028,208.5465,353.7672,216.48,347.9311" style="stroke:#181818;stroke-width:1.0;"/></g><!--link GSM to US22--><g id="link_GSM_US22"><path d="M46.8,688.4511 C50.18,635.4811 64.34,544.3511 120,494.6211 C148.72,468.9611 180.9049,456.178 218.6949,449.018 " fill="none" id="GSM-to-US22" style="stroke:#181818;stroke-width:1.0;"/><polygon fill="#181818" points="224.59,447.9011,215.0027,445.6464,219.6774,448.8319,216.4919,453.5066,224.59,447.9011" style="stroke:#181818;stroke-width:1.0;"/></g><!--link GSM to US23--><g id="link_GSM_US23"><path d="M60.52,688.3611 C72.34,660.7911 91.72,625.9911 120,605.6211 C145.97,586.9111 171.3025,575.9166 202.6625,567.5566 " fill="none" id="GSM-to-US23" style="stroke:#181818;stroke-width:1.0;"/><polygon fill="#181818" points="208.46,566.0111,198.7334,564.4643,203.6287,567.299,200.794,572.1944,208.46,566.0111" style="stroke:#181818;stroke-width:1.0;"/></g><!--link GSM to US24--><g id="link_GSM_US24"><path d="M60.81,726.9811 C86.27,722.4311 135.1532,713.7046 191.7232,703.6146 " fill="none" id="GSM-to-US24" style="stroke:#181818;stroke-width:1.0;"/><polygon fill="#181818" points="197.63,702.5611,188.0675,700.2036,192.7077,703.4391,189.4722,708.0793,197.63,702.5611" style="stroke:#181818;stroke-width:1.0;"/></g><!--link GSM to US25--><g id="link_GSM_US25"><path d="M60.81,732.2211 C95.45,738.2911 178.5402,752.8644 252.3602,765.8144 " fill="none" id="GSM-to-US25" style="stroke:#181818;stroke-width:1.0;"/><polygon fill="#181818" points="258.27,766.8511,250.0965,761.3562,253.3452,765.9872,248.7142,769.2358,258.27,766.8511" style="stroke:#181818;stroke-width:1.0;"/></g><!--link GSM to US26--><g id="link_GSM_US26"><path d="M60.58,761.6811 C73.06,785.5511 93.24,817.1011 120,835.6211 C142.74,851.3611 163.3487,861.3312 190.1887,870.2912 " fill="none" id="GSM-to-US26" style="stroke:#181818;stroke-width:1.0;"/><polygon fill="#181818" points="195.88,872.1911,188.6097,865.5471,191.1373,870.6078,186.0765,873.1354,195.88,872.1911" style="stroke:#181818;stroke-width:1.0;"/></g><!--link GSM to US27--><g id="link_GSM_US27"><path d="M46.97,770.8611 C50.56,823.4311 64.97,913.3711 120,962.6211 C149.3,988.8411 182.4414,1001.8125 220.9914,1008.9925 " fill="none" id="GSM-to-US27" style="stroke:#181818;stroke-width:1.0;"/><polygon fill="#181818" points="226.89,1010.0911,218.7746,1004.5108,221.9745,1009.1756,217.3097,1012.3755,226.89,1010.0911" style="stroke:#181818;stroke-width:1.0;"/></g><!--link GSM to US28--><g id="link_GSM_US28"><path d="M49.73,770.8611 C57.77,850.4611 79.4,1021.0111 120,1061.6211 C141.47,1083.0911 163.506,1095.3444 192.716,1104.3444 " fill="none" id="GSM-to-US28" style="stroke:#181818;stroke-width:1.0;"/><polygon fill="#181818" points="198.45,1106.1111,191.0268,1099.6383,193.6717,1104.6388,188.6712,1107.2837,198.45,1106.1111" style="stroke:#181818;stroke-width:1.0;"/></g><!--link GSM to US29--><g id="link_GSM_US29"><path d="M47.08,770.7811 C50.54,869.6311 64.67,1116.5211 120,1173.6211 C147.13,1201.6211 179.2636,1215.1912 217.5136,1222.3912 " fill="none" id="GSM-to-US29" style="stroke:#181818;stroke-width:1.0;"/><polygon fill="#181818" points="223.41,1223.5011,215.3053,1217.9053,218.4963,1222.5762,213.8254,1225.7672,223.41,1223.5011" style="stroke:#181818;stroke-width:1.0;"/></g><!--SRC=[hLGzRzim4DtrAmvUEXb8vCyi1OAaQOUcGvraBHZgBB6cI86aOXX1_tkFbEJAPDmChIRnyTvzFzgTK0qph8PQAyqhesk4BPCMCtkyQXZViH8txY0H37B7L2d71hPYXTuBLO8pBMQP4uuiRoIp5cu5AyaconXtsi3ao_Vx2J0BbQa7wEckWrws0yIrbEnP6-OFT3Ev6G6JtkZpvlxuzvXbsJ4pc7pJ3Wxeo8_Y1Xr2Qn4uisWdhracSUl0QJ2Yh1mKmXE5LfdIPDc1UXkS0dtN8OGeK3cn5LZ0S-l0EY5bk5RwZIWPgWAyk-pN-N3ZX3_LZTG7H0kCc0xzG9YYfjSKDZG7w-Or1AGWFWPC7cykOGeFv1XBOHrIfu1c8cMmfzlOF4_CV-hdtZYFZMU9ySaCEjOiPiqx5WrUbAhBnlhQtsJFO_QYOvUeaEoGMA4JZT6DjcoeQn5ej3ymdNuyrlddd4VdMNIUH-U57z9u64zO2IxxMTICLqBHOJIFP13Bf5aldOy-vMLCM9qZVB30A-IxQTlqt5NCNNTSIKnm5GvC2qA1GbfGMjx8nphuy0BhQrx6m2e6rg4h9tqv6M7IWxpFYzHWMqcfCRkp_IPurQ3R8ofmUmq53TSEYxTE75qDpU7Q5A54haaVw5NZYsF1zy2_2loJ5wFVW_NPcwjuv7Uj2g9aKZX1hTnsxqk8KThw1oiAqTsdTLyaiooDhzJIkubXXuIZHXXaNSgR_2BnqIkPmX1TuHvepSp1AyUN_w2djng-all1Gwhj_6qFj1FUmpLfgZZ6JyIUpqvqo-31wyxhLltDJoB_lDS_oTKrMk4PVlSYs0OvlQWSjgrh3OQj63mdJqFUlmsSAOxodRmM2NjvKf_FZ0PSQpDIpxlL9YBELoCbCYd7Sn_UYs9Wh_wFNZR_g9TDhnTQxauCmpQEWCiOo6DW5WFp65Z4m386LZ6mZW6lqjy0]--></g></svg>