<?xml version="1.0" encoding="us-ascii" standalone="no"?><svg xmlns="http://www.w3.org/2000/svg" xmlns:xlink="http://www.w3.org/1999/xlink" contentStyleType="text/css" height="653px" preserveAspectRatio="none" style="width:680px;height:653px;background:#FFFFFF;" version="1.1" viewBox="0 0 680 653" width="680px" zoomAndPan="magnify"><defs/><g><!--class GreenSpace--><g id="elem_GreenSpace"><rect codeLine="13" fill="#F1F1F1" height="148.3477" id="GreenSpace" rx="2.5" ry="2.5" style="stroke:#181818;stroke-width:0.5;" width="86" x="559.23" y="346"/><text fill="#000000" font-family="sans-serif" font-size="14" lengthAdjust="spacing" textLength="80" x="562.23" y="366.1074">GreenSpace</text><line style="stroke:#181818;stroke-width:0.5;" x1="560.23" x2="644.23" y1="374.6211" y2="374.6211"/><text fill="#000000" font-family="sans-serif" font-size="14" lengthAdjust="spacing" textLength="35" x="565.23" y="393.7285">name</text><text fill="#000000" font-family="sans-serif" font-size="14" lengthAdjust="spacing" textLength="27" x="565.23" y="412.3496">type</text><text fill="#000000" font-family="sans-serif" font-size="14" lengthAdjust="spacing" textLength="69" x="565.23" y="430.9707">description</text><text fill="#000000" font-family="sans-serif" font-size="14" lengthAdjust="spacing" textLength="29" x="565.23" y="449.5918">area</text><text fill="#000000" font-family="sans-serif" font-size="14" lengthAdjust="spacing" textLength="56" x="565.23" y="468.2129">manager</text><text fill="#000000" font-family="sans-serif" font-size="14" lengthAdjust="spacing" textLength="51" x="565.23" y="486.834">address</text></g><!--class Agenda--><g id="elem_Agenda"><rect codeLine="22" fill="#F1F1F1" height="73.8633" id="Agenda" rx="2.5" ry="2.5" style="stroke:#181818;stroke-width:0.5;" width="55" x="546.73" y="573"/><text fill="#000000" font-family="sans-serif" font-size="14" lengthAdjust="spacing" textLength="49" x="549.73" y="593.1074">Agenda</text><line style="stroke:#181818;stroke-width:0.5;" x1="547.73" x2="600.73" y1="601.6211" y2="601.6211"/><text fill="#000000" font-family="sans-serif" font-size="14" lengthAdjust="spacing" textLength="31" x="552.73" y="620.7285">diary</text><text fill="#000000" font-family="sans-serif" font-size="14" lengthAdjust="spacing" textLength="43" x="552.73" y="639.3496">entries</text></g><!--class ToDoListEntry--><g id="elem_ToDoListEntry"><rect codeLine="27" fill="#F1F1F1" height="55.2422" id="ToDoListEntry" rx="2.5" ry="2.5" style="stroke:#181818;stroke-width:0.5;" width="96" x="282.23" y="109.5"/><text fill="#000000" font-family="sans-serif" font-size="14" lengthAdjust="spacing" textLength="90" x="285.23" y="129.6074">ToDoListEntry</text><line style="stroke:#181818;stroke-width:0.5;" x1="283.23" x2="377.23" y1="138.1211" y2="138.1211"/><text fill="#000000" font-family="sans-serif" font-size="14" lengthAdjust="spacing" textLength="31" x="288.23" y="157.2285">-task</text></g><!--class ToDoList--><g id="elem_ToDoList"><rect codeLine="31" fill="#F1F1F1" height="55.2422" id="ToDoList" rx="2.5" ry="2.5" style="stroke:#181818;stroke-width:0.5;" width="63" x="166.73" y="582.5"/><text fill="#000000" font-family="sans-serif" font-size="14" lengthAdjust="spacing" textLength="57" x="169.73" y="602.6074">ToDoList</text><line style="stroke:#181818;stroke-width:0.5;" x1="167.73" x2="228.73" y1="611.1211" y2="611.1211"/><text fill="#000000" font-family="sans-serif" font-size="14" lengthAdjust="spacing" textLength="48" x="172.73" y="630.2285">-entries</text></g><!--class Task--><g id="elem_Task"><rect codeLine="36" fill="#F1F1F1" height="148.3477" id="Task" rx="2.5" ry="2.5" style="stroke:#181818;stroke-width:0.5;" width="123" x="136.73" y="346"/><text fill="#000000" font-family="sans-serif" font-size="14" lengthAdjust="spacing" textLength="31" x="182.73" y="366.1074">Task</text><line style="stroke:#181818;stroke-width:0.5;" x1="137.73" x2="258.73" y1="374.6211" y2="374.6211"/><text fill="#000000" font-family="sans-serif" font-size="14" lengthAdjust="spacing" textLength="61" x="142.73" y="393.7285">reference</text><text fill="#000000" font-family="sans-serif" font-size="14" lengthAdjust="spacing" textLength="69" x="142.73" y="412.3496">description</text><text fill="#000000" font-family="sans-serif" font-size="14" lengthAdjust="spacing" textLength="38" x="142.73" y="430.9707">status</text><text fill="#000000" font-family="sans-serif" font-size="14" lengthAdjust="spacing" textLength="51" x="142.73" y="449.5918">urgency</text><text fill="#000000" font-family="sans-serif" font-size="14" lengthAdjust="spacing" textLength="111" x="142.73" y="468.2129">expectedDuration</text><text fill="#000000" font-family="sans-serif" font-size="14" lengthAdjust="spacing" textLength="77" x="142.73" y="486.834">greenSpace</text></g><!--class User--><g id="elem_User"><rect codeLine="45" fill="#F1F1F1" height="260.0742" id="User" rx="2.5" ry="2.5" style="stroke:#181818;stroke-width:0.5;" width="129" x="543.73" y="7"/><text fill="#000000" font-family="sans-serif" font-size="14" lengthAdjust="spacing" textLength="29" x="593.73" y="27.1074">User</text><line style="stroke:#181818;stroke-width:0.5;" x1="544.73" x2="671.73" y1="35.6211" y2="35.6211"/><text fill="#000000" font-family="sans-serif" font-size="14" lengthAdjust="spacing" textLength="35" x="549.73" y="54.7285">name</text><text fill="#000000" font-family="sans-serif" font-size="14" lengthAdjust="spacing" textLength="58" x="549.73" y="73.3496">birthDate</text><text fill="#000000" font-family="sans-serif" font-size="14" lengthAdjust="spacing" textLength="93" x="549.73" y="91.9707">admissionDate</text><text fill="#000000" font-family="sans-serif" font-size="14" lengthAdjust="spacing" textLength="51" x="549.73" y="110.5918">address</text><text fill="#000000" font-family="sans-serif" font-size="14" lengthAdjust="spacing" textLength="89" x="549.73" y="129.2129">phoneNumber</text><text fill="#000000" font-family="sans-serif" font-size="14" lengthAdjust="spacing" textLength="33" x="549.73" y="147.834">email</text><text fill="#000000" font-family="sans-serif" font-size="14" lengthAdjust="spacing" textLength="104" x="549.73" y="166.4551">taxPayerNumber</text><text fill="#000000" font-family="sans-serif" font-size="14" lengthAdjust="spacing" textLength="117" x="549.73" y="185.0762">idDocTypeNumber</text><text fill="#000000" font-family="sans-serif" font-size="14" lengthAdjust="spacing" textLength="19" x="549.73" y="203.6973">job</text><text fill="#000000" font-family="sans-serif" font-size="14" lengthAdjust="spacing" textLength="30" x="549.73" y="222.3184">skills</text><text fill="#000000" font-family="sans-serif" font-size="14" lengthAdjust="spacing" textLength="26" x="549.73" y="240.9395">task</text><text fill="#000000" font-family="sans-serif" font-size="14" lengthAdjust="spacing" textLength="43" x="549.73" y="259.5605">idType</text></g><!--class Team--><g id="elem_Team"><rect codeLine="60" fill="#F1F1F1" height="55.2422" id="Team" rx="2.5" ry="2.5" style="stroke:#181818;stroke-width:0.5;" width="47" x="406.73" y="582.5"/><text fill="#000000" font-family="sans-serif" font-size="14" lengthAdjust="spacing" textLength="36" x="412.23" y="602.6074">Team</text><line style="stroke:#181818;stroke-width:0.5;" x1="407.73" x2="452.73" y1="611.1211" y2="611.1211"/><text fill="#000000" font-family="sans-serif" font-size="14" lengthAdjust="spacing" textLength="35" x="412.73" y="630.2285">name</text></g><!--class AgendaEntry--><g id="elem_AgendaEntry"><rect fill="#F1F1F1" height="36.6211" id="AgendaEntry" rx="2.5" ry="2.5" style="stroke:#181818;stroke-width:0.5;" width="88" x="429.23" y="401.5"/><text fill="#000000" font-family="sans-serif" font-size="14" lengthAdjust="spacing" textLength="82" x="432.23" y="421.6074">AgendaEntry</text><line style="stroke:#181818;stroke-width:0.5;" x1="430.23" x2="516.23" y1="430.1211" y2="430.1211"/></g><!--link AgendaEntry to Team--><g id="link_AgendaEntry_Team"><path codeLine="67" d="M462.48,438.81 C451.13,458.74 433.97,492.4 427.23,524 C423.13,543.21 424.1,565.4 425.98,582.29 " fill="none" id="AgendaEntry-Team" style="stroke:#181818;stroke-width:1.0;"/><polygon fill="#000000" points="430.9973,538.4912,436.0755,530.4498,430.3791,529.0007,430.9973,538.4912" style="stroke:#000000;stroke-width:1.0;"/><text fill="#000000" font-family="sans-serif" font-size="13" lengthAdjust="spacing" textLength="89" x="441.23" y="539.0283">are assigned to</text><text fill="#000000" font-family="sans-serif" font-size="13" lengthAdjust="spacing" textLength="20" x="436.9034" y="460.2679">1..*</text><text fill="#000000" font-family="sans-serif" font-size="13" lengthAdjust="spacing" textLength="7" x="417.2847" y="571.4027">1</text></g><!--link Task to ToDoList--><g id="link_Task_ToDoList"><path codeLine="68" d="M198.23,494.22 C198.23,525.15 198.23,559.24 198.23,582.17 " fill="none" id="Task-ToDoList" style="stroke:#181818;stroke-width:1.0;"/><polygon fill="#000000" points="203.23,538.6455,206.1689,529.6004,200.2911,529.6004,203.23,538.6455" style="stroke:#000000;stroke-width:1.0;"/><text fill="#000000" font-family="sans-serif" font-size="13" lengthAdjust="spacing" textLength="49" x="212.23" y="539.0283">exists in</text><text fill="#000000" font-family="sans-serif" font-size="13" lengthAdjust="spacing" textLength="7" x="190.8855" y="516.3883">1</text><text fill="#000000" font-family="sans-serif" font-size="13" lengthAdjust="spacing" textLength="20" x="176.0425" y="571.2565">1..*</text></g><!--link ToDoList to ToDoListEntry--><g id="link_ToDoList_ToDoListEntry"><path codeLine="69" d="M229.75,587.76 C244.37,576.24 260.6,560.73 270.23,543 C339.75,414.94 336.4,232.27 332.31,164.57 " fill="none" id="ToDoList-ToDoListEntry" style="stroke:#181818;stroke-width:1.0;"/><polygon fill="#000000" points="333.4077,415.2862,328.421,423.3846,334.1335,424.769,333.4077,415.2862" style="stroke:#000000;stroke-width:1.0;"/><text fill="#000000" font-family="sans-serif" font-size="13" lengthAdjust="spacing" textLength="49" x="341.23" y="425.5283">contains</text><text fill="#000000" font-family="sans-serif" font-size="13" lengthAdjust="spacing" textLength="7" x="237.8484" y="577.6853">1</text><text fill="#000000" font-family="sans-serif" font-size="13" lengthAdjust="spacing" textLength="20" x="310.4785" y="186.9452">1..*</text></g><!--link ToDoListEntry to ToDoList--><g id="link_ToDoListEntry_ToDoList"><path codeLine="74" d="M282.13,155.45 C212.98,183.48 88.1,245.77 36.23,346 C6,404.42 6.04,435.56 36.23,494 C63.53,546.86 127.59,580.7 166.48,597.15 " fill="none" id="ToDoListEntry-ToDoList" style="stroke:#181818;stroke-width:1.0;"/><polygon fill="#000000" points="39.9635,424.9825,45.0977,416.9767,39.4115,415.4879,39.9635,424.9825" style="stroke:#000000;stroke-width:1.0;"/><text fill="#000000" font-family="sans-serif" font-size="13" lengthAdjust="spacing" textLength="68" x="50.23" y="425.5283">has to be in</text><text fill="#000000" font-family="sans-serif" font-size="13" lengthAdjust="spacing" textLength="7" x="267.2288" y="154.0057">1</text><text fill="#000000" font-family="sans-serif" font-size="13" lengthAdjust="spacing" textLength="7" x="151.7691" y="589.5133">1</text></g><!--link ToDoListEntry to Task--><g id="link_ToDoListEntry_Task"><path codeLine="70" d="M313.22,164.5 C293.85,195.44 262.05,248.56 240.23,297 C233.24,312.52 226.69,329.58 220.95,345.89 " fill="none" id="ToDoListEntry-Task" style="stroke:#181818;stroke-width:1.0;"/><polygon fill="#000000" points="242.963,311.1021,249.6835,304.3726,244.4445,301.7076,242.963,311.1021" style="stroke:#000000;stroke-width:1.0;"/><text fill="#000000" font-family="sans-serif" font-size="13" lengthAdjust="spacing" textLength="49" x="254.23" y="312.0283">contains</text><text fill="#000000" font-family="sans-serif" font-size="13" lengthAdjust="spacing" textLength="7" x="301.4771" y="186.859">1</text><text fill="#000000" font-family="sans-serif" font-size="13" lengthAdjust="spacing" textLength="7" x="215.842" y="334.7836">1</text></g><!--link ToDoListEntry to AgendaEntry--><g id="link_ToDoListEntry_AgendaEntry"><path codeLine="71" d="M334.94,164.68 C342.07,200.7 357.77,266.13 385.23,316 C403.72,349.58 434.34,382.16 454.15,401.39 " fill="none" id="ToDoListEntry-AgendaEntry" style="stroke:#181818;stroke-width:1.0;"/><polygon fill="#000000" points="392.479,311.1112,391.0354,301.7108,385.7857,304.3546,392.479,311.1112" style="stroke:#000000;stroke-width:1.0;"/><text fill="#000000" font-family="sans-serif" font-size="13" lengthAdjust="spacing" textLength="49" x="399.23" y="312.0283">exists in</text><text fill="#000000" font-family="sans-serif" font-size="13" lengthAdjust="spacing" textLength="7" x="328.2047" y="186.628">1</text><text fill="#000000" font-family="sans-serif" font-size="13" lengthAdjust="spacing" textLength="7" x="440.2349" y="390.2185">1</text></g><!--link ToDoListEntry to GreenSpace--><g id="link_ToDoListEntry_GreenSpace"><path codeLine="72" d="M356.86,164.71 C396.02,204.09 471.32,280.19 534.23,346 C542.25,354.39 550.73,363.39 558.88,372.1 " fill="none" id="ToDoListEntry-GreenSpace" style="stroke:#181818;stroke-width:1.0;"/><polygon fill="#000000" points="509.7189,310.2271,505.5127,301.6972,501.3022,305.7986,509.7189,310.2271" style="stroke:#000000;stroke-width:1.0;"/><text fill="#000000" font-family="sans-serif" font-size="13" lengthAdjust="spacing" textLength="61" x="515.23" y="312.0283">made for a</text><text fill="#000000" font-family="sans-serif" font-size="13" lengthAdjust="spacing" textLength="20" x="340.4978" y="186.6646">1..*</text><text fill="#000000" font-family="sans-serif" font-size="13" lengthAdjust="spacing" textLength="7" x="544.1205" y="359.7824">1</text></g><!--link AgendaEntry to Agenda--><g id="link_AgendaEntry_Agenda"><path codeLine="73" d="M484.6,438.52 C497.52,458.74 518.95,493.18 535.23,524 C543.49,539.65 551.79,557.38 558.6,572.59 " fill="none" id="AgendaEntry-Agenda" style="stroke:#181818;stroke-width:1.0;"/><polygon fill="#000000" points="552.6461,538.023,550.8483,528.6839,545.7023,531.5242,552.6461,538.023" style="stroke:#000000;stroke-width:1.0;"/><text fill="#000000" font-family="sans-serif" font-size="13" lengthAdjust="spacing" textLength="60" x="559.23" y="539.0283">belongs to</text><text fill="#000000" font-family="sans-serif" font-size="13" lengthAdjust="spacing" textLength="20" x="464.9853" y="460.2419">1..*</text><text fill="#000000" font-family="sans-serif" font-size="13" lengthAdjust="spacing" textLength="7" x="548.312" y="561.7643">1</text></g><!--link User to GreenSpace--><g id="link_User_GreenSpace"><path codeLine="75" d="M605.47,267.4 C604.89,294.33 604.3,321.82 603.79,345.85 " fill="none" id="User-GreenSpace" style="stroke:#181818;stroke-width:1.0;"/><polygon fill="#000000" points="610.1229,311.6444,613.2549,302.6643,607.3784,302.5384,610.1229,311.6444" style="stroke:#000000;stroke-width:1.0;"/><text fill="#000000" font-family="sans-serif" font-size="13" lengthAdjust="spacing" textLength="53" x="619.23" y="312.0283">manages</text><text fill="#000000" font-family="sans-serif" font-size="13" lengthAdjust="spacing" textLength="7" x="598.1277" y="289.0303">1</text><text fill="#000000" font-family="sans-serif" font-size="13" lengthAdjust="spacing" textLength="20" x="582.9592" y="334.7397">1..*</text></g><!--SRC=[ZLDDYzmm3BtdLvXSjYtCqhtEeR0mfHHAASps1oYs9d777q5owAQb_xsoFPbajxlGN29RJyzFJpQVRHY1m2iVGzG3HOygqOGDNpCZw3FqU4opGqMe4uJURG4yW8a_RUZL2HnZSxEcd0sOvX5Lf3J4viRXAQaK5Tb-IChOJ6TZs91f1yptAP7jfeIVTGn7-mlL-sQm1fMsfENi4diKIiDD_agL-aI8uIXwyNUZv0lWiGHPGWaCiYOxbZFp6WYX11w2z4XrqnX2vkRFmdlVOp2WAgcnG7E9C8XAtE0UuY5-iPm-IcA-m7S9-FmlPCbkE1Q4u2zPmXCI1lsoTawG9YxXHA9GNrGzZc8gciD4SCNsLsTMATyPgHwq-DHPcT81Kbc0yPPP2DQDQek4un03VfryLnr33zRb8C7ZDvYHrfGrXwWVnFvrwqViyaz6xXpNAd6eO3DmunNAVNWsIO-PXjKR7Ps3BagFaVXjyQ-fSohkjtUtj-zQjTkfzgwjJFiyRIN4jWzeyYtyq1IpCw80IybrGdknKlwiRCZ8PVjbT1tvNibzJM03RofgwbhMrWd_7tJJqIjwbf9jk-ixa28FybPEaHH8rPRlQStbZkzLXow6dY_-lDh3wj801TnX5LQkrLEJdkd9Bort_HS0]--></g></svg>