<?xml version="1.0" encoding="us-ascii" standalone="no"?><svg xmlns="http://www.w3.org/2000/svg" xmlns:xlink="http://www.w3.org/1999/xlink" contentStyleType="text/css" height="829px" preserveAspectRatio="none" style="width:752px;height:829px;background:#FFFFFF;" version="1.1" viewBox="0 0 752 829" width="752px" zoomAndPan="magnify"><defs/><g><!--class Collaborator--><g id="elem_Collaborator"><rect codeLine="6" fill="#F1F1F1" height="66.6211" id="Collaborator" rx="2.5" ry="2.5" style="stroke:#181818;stroke-width:0.5;" width="399" x="82" y="7"/><ellipse cx="238.25" cy="23" fill="#ADD1B2" rx="11" ry="11" style="stroke:#181818;stroke-width:1.0;"/><path d="M241.0156,18.875 Q241.1719,18.6563 241.3594,18.5469 Q241.5469,18.4375 241.7656,18.4375 Q242.1406,18.4375 242.375,18.7031 Q242.6094,18.9531 242.6094,19.5625 L242.6094,21.0156 Q242.6094,21.625 242.375,21.8906 Q242.1406,22.1563 241.7656,22.1563 Q241.4219,22.1563 241.2188,21.9531 Q241.0156,21.7656 240.9063,21.25 Q240.8594,20.8906 240.6719,20.7031 Q240.3438,20.3281 239.7344,20.1094 Q239.125,19.8906 238.5,19.8906 Q237.7344,19.8906 237.0938,20.2188 Q236.4688,20.5469 235.9688,21.2969 Q235.4844,22.0469 235.4844,23.0781 L235.4844,24.1719 Q235.4844,25.4063 236.375,26.2344 Q237.2656,27.0469 238.8594,27.0469 Q239.7969,27.0469 240.4531,26.7969 Q240.8438,26.6406 241.2656,26.2031 Q241.5313,25.9375 241.6719,25.8594 Q241.8281,25.7813 242.0313,25.7813 Q242.3594,25.7813 242.6094,26.0469 Q242.875,26.2969 242.875,26.6406 Q242.875,26.9844 242.5313,27.3906 Q242.0313,27.9688 241.2344,28.2969 Q240.1563,28.75 238.8594,28.75 Q237.3438,28.75 236.1406,28.125 Q235.1563,27.625 234.4688,26.5625 Q233.7813,25.4844 233.7813,24.2031 L233.7813,23.0469 Q233.7813,21.7188 234.3906,20.5781 Q235.0156,19.4219 236.1094,18.8125 Q237.2031,18.1875 238.4375,18.1875 Q239.1719,18.1875 239.8125,18.3594 Q240.4688,18.5156 241.0156,18.875 Z " fill="#000000"/><text fill="#000000" font-family="sans-serif" font-size="14" lengthAdjust="spacing" textLength="78" x="258.75" y="28.7969">Collaborator</text><line style="stroke:#181818;stroke-width:0.5;" x1="83" x2="480" y1="39" y2="39"/><line style="stroke:#181818;stroke-width:0.5;" x1="83" x2="480" y1="47" y2="47"/><text fill="#000000" font-family="sans-serif" font-size="14" lengthAdjust="spacing" textLength="387" x="88" y="66.1074">+recordTaskCompletion(taskId: String, completionDate: Date)</text></g><!--class TaskCompletionUI--><g id="elem_TaskCompletionUI"><rect codeLine="10" fill="#F1F1F1" height="85.2422" id="TaskCompletionUI" rx="2.5" ry="2.5" style="stroke:#181818;stroke-width:0.5;" width="225" x="86" y="135"/><ellipse cx="137.25" cy="151" fill="#ADD1B2" rx="11" ry="11" style="stroke:#181818;stroke-width:1.0;"/><path d="M140.0156,146.875 Q140.1719,146.6563 140.3594,146.5469 Q140.5469,146.4375 140.7656,146.4375 Q141.1406,146.4375 141.375,146.7031 Q141.6094,146.9531 141.6094,147.5625 L141.6094,149.0156 Q141.6094,149.625 141.375,149.8906 Q141.1406,150.1563 140.7656,150.1563 Q140.4219,150.1563 140.2188,149.9531 Q140.0156,149.7656 139.9063,149.25 Q139.8594,148.8906 139.6719,148.7031 Q139.3438,148.3281 138.7344,148.1094 Q138.125,147.8906 137.5,147.8906 Q136.7344,147.8906 136.0938,148.2188 Q135.4688,148.5469 134.9688,149.2969 Q134.4844,150.0469 134.4844,151.0781 L134.4844,152.1719 Q134.4844,153.4063 135.375,154.2344 Q136.2656,155.0469 137.8594,155.0469 Q138.7969,155.0469 139.4531,154.7969 Q139.8438,154.6406 140.2656,154.2031 Q140.5313,153.9375 140.6719,153.8594 Q140.8281,153.7813 141.0313,153.7813 Q141.3594,153.7813 141.6094,154.0469 Q141.875,154.2969 141.875,154.6406 Q141.875,154.9844 141.5313,155.3906 Q141.0313,155.9688 140.2344,156.2969 Q139.1563,156.75 137.8594,156.75 Q136.3438,156.75 135.1406,156.125 Q134.1563,155.625 133.4688,154.5625 Q132.7813,153.4844 132.7813,152.2031 L132.7813,151.0469 Q132.7813,149.7188 133.3906,148.5781 Q134.0156,147.4219 135.1094,146.8125 Q136.2031,146.1875 137.4375,146.1875 Q138.1719,146.1875 138.8125,146.3594 Q139.4688,146.5156 140.0156,146.875 Z " fill="#000000"/><text fill="#000000" font-family="sans-serif" font-size="14" lengthAdjust="spacing" textLength="114" x="157.75" y="156.7969">TaskCompletionUI</text><line style="stroke:#181818;stroke-width:0.5;" x1="87" x2="310" y1="167" y2="167"/><line style="stroke:#181818;stroke-width:0.5;" x1="87" x2="310" y1="175" y2="175"/><text fill="#000000" font-family="sans-serif" font-size="14" lengthAdjust="spacing" textLength="170" x="92" y="194.1074">+getTaskCompletionData()</text><text fill="#000000" font-family="sans-serif" font-size="14" lengthAdjust="spacing" textLength="213" x="92" y="212.7285">+displayCompletionConfirmation()</text></g><!--class TaskCompletionController--><g id="elem_TaskCompletionController"><rect codeLine="15" fill="#F1F1F1" height="66.6211" id="TaskCompletionController" rx="2.5" ry="2.5" style="stroke:#181818;stroke-width:0.5;" width="399" x="82" y="281"/><ellipse cx="195.25" cy="297" fill="#ADD1B2" rx="11" ry="11" style="stroke:#181818;stroke-width:1.0;"/><path d="M198.0156,292.875 Q198.1719,292.6563 198.3594,292.5469 Q198.5469,292.4375 198.7656,292.4375 Q199.1406,292.4375 199.375,292.7031 Q199.6094,292.9531 199.6094,293.5625 L199.6094,295.0156 Q199.6094,295.625 199.375,295.8906 Q199.1406,296.1563 198.7656,296.1563 Q198.4219,296.1563 198.2188,295.9531 Q198.0156,295.7656 197.9063,295.25 Q197.8594,294.8906 197.6719,294.7031 Q197.3438,294.3281 196.7344,294.1094 Q196.125,293.8906 195.5,293.8906 Q194.7344,293.8906 194.0938,294.2188 Q193.4688,294.5469 192.9688,295.2969 Q192.4844,296.0469 192.4844,297.0781 L192.4844,298.1719 Q192.4844,299.4063 193.375,300.2344 Q194.2656,301.0469 195.8594,301.0469 Q196.7969,301.0469 197.4531,300.7969 Q197.8438,300.6406 198.2656,300.2031 Q198.5313,299.9375 198.6719,299.8594 Q198.8281,299.7813 199.0313,299.7813 Q199.3594,299.7813 199.6094,300.0469 Q199.875,300.2969 199.875,300.6406 Q199.875,300.9844 199.5313,301.3906 Q199.0313,301.9688 198.2344,302.2969 Q197.1563,302.75 195.8594,302.75 Q194.3438,302.75 193.1406,302.125 Q192.1563,301.625 191.4688,300.5625 Q190.7813,299.4844 190.7813,298.2031 L190.7813,297.0469 Q190.7813,295.7188 191.3906,294.5781 Q192.0156,293.4219 193.1094,292.8125 Q194.2031,292.1875 195.4375,292.1875 Q196.1719,292.1875 196.8125,292.3594 Q197.4688,292.5156 198.0156,292.875 Z " fill="#000000"/><text fill="#000000" font-family="sans-serif" font-size="14" lengthAdjust="spacing" textLength="164" x="215.75" y="302.7969">TaskCompletionController</text><line style="stroke:#181818;stroke-width:0.5;" x1="83" x2="480" y1="313" y2="313"/><line style="stroke:#181818;stroke-width:0.5;" x1="83" x2="480" y1="321" y2="321"/><text fill="#000000" font-family="sans-serif" font-size="14" lengthAdjust="spacing" textLength="387" x="88" y="340.1074">+recordTaskCompletion(taskId: String, completionDate: Date)</text></g><!--class Repositories--><g id="elem_Repositories"><rect codeLine="19" fill="#F1F1F1" height="66.6211" id="Repositories" rx="2.5" ry="2.5" style="stroke:#181818;stroke-width:0.5;" width="111" x="7" y="409"/><ellipse cx="22" cy="425" fill="#ADD1B2" rx="11" ry="11" style="stroke:#181818;stroke-width:1.0;"/><path d="M24.7656,420.875 Q24.9219,420.6563 25.1094,420.5469 Q25.2969,420.4375 25.5156,420.4375 Q25.8906,420.4375 26.125,420.7031 Q26.3594,420.9531 26.3594,421.5625 L26.3594,423.0156 Q26.3594,423.625 26.125,423.8906 Q25.8906,424.1563 25.5156,424.1563 Q25.1719,424.1563 24.9688,423.9531 Q24.7656,423.7656 24.6563,423.25 Q24.6094,422.8906 24.4219,422.7031 Q24.0938,422.3281 23.4844,422.1094 Q22.875,421.8906 22.25,421.8906 Q21.4844,421.8906 20.8438,422.2188 Q20.2188,422.5469 19.7188,423.2969 Q19.2344,424.0469 19.2344,425.0781 L19.2344,426.1719 Q19.2344,427.4063 20.125,428.2344 Q21.0156,429.0469 22.6094,429.0469 Q23.5469,429.0469 24.2031,428.7969 Q24.5938,428.6406 25.0156,428.2031 Q25.2813,427.9375 25.4219,427.8594 Q25.5781,427.7813 25.7813,427.7813 Q26.1094,427.7813 26.3594,428.0469 Q26.625,428.2969 26.625,428.6406 Q26.625,428.9844 26.2813,429.3906 Q25.7813,429.9688 24.9844,430.2969 Q23.9063,430.75 22.6094,430.75 Q21.0938,430.75 19.8906,430.125 Q18.9063,429.625 18.2188,428.5625 Q17.5313,427.4844 17.5313,426.2031 L17.5313,425.0469 Q17.5313,423.7188 18.1406,422.5781 Q18.7656,421.4219 19.8594,420.8125 Q20.9531,420.1875 22.1875,420.1875 Q22.9219,420.1875 23.5625,420.3594 Q24.2188,420.5156 24.7656,420.875 Z " fill="#000000"/><text fill="#000000" font-family="sans-serif" font-size="14" lengthAdjust="spacing" textLength="79" x="36" y="430.7969">Repositories</text><line style="stroke:#181818;stroke-width:0.5;" x1="8" x2="117" y1="441" y2="441"/><line style="stroke:#181818;stroke-width:0.5;" x1="8" x2="117" y1="449" y2="449"/><text fill="#000000" font-family="sans-serif" font-size="14" lengthAdjust="spacing" textLength="91" x="13" y="468.1074">+getInstance()</text></g><!--class TaskRepository--><g id="elem_TaskRepository"><rect codeLine="23" fill="#F1F1F1" height="85.2422" id="TaskRepository" rx="2.5" ry="2.5" style="stroke:#181818;stroke-width:0.5;" width="229" x="74" y="555"/><ellipse cx="134.75" cy="571" fill="#ADD1B2" rx="11" ry="11" style="stroke:#181818;stroke-width:1.0;"/><path d="M137.5156,566.875 Q137.6719,566.6563 137.8594,566.5469 Q138.0469,566.4375 138.2656,566.4375 Q138.6406,566.4375 138.875,566.7031 Q139.1094,566.9531 139.1094,567.5625 L139.1094,569.0156 Q139.1094,569.625 138.875,569.8906 Q138.6406,570.1563 138.2656,570.1563 Q137.9219,570.1563 137.7188,569.9531 Q137.5156,569.7656 137.4063,569.25 Q137.3594,568.8906 137.1719,568.7031 Q136.8438,568.3281 136.2344,568.1094 Q135.625,567.8906 135,567.8906 Q134.2344,567.8906 133.5938,568.2188 Q132.9688,568.5469 132.4688,569.2969 Q131.9844,570.0469 131.9844,571.0781 L131.9844,572.1719 Q131.9844,573.4063 132.875,574.2344 Q133.7656,575.0469 135.3594,575.0469 Q136.2969,575.0469 136.9531,574.7969 Q137.3438,574.6406 137.7656,574.2031 Q138.0313,573.9375 138.1719,573.8594 Q138.3281,573.7813 138.5313,573.7813 Q138.8594,573.7813 139.1094,574.0469 Q139.375,574.2969 139.375,574.6406 Q139.375,574.9844 139.0313,575.3906 Q138.5313,575.9688 137.7344,576.2969 Q136.6563,576.75 135.3594,576.75 Q133.8438,576.75 132.6406,576.125 Q131.6563,575.625 130.9688,574.5625 Q130.2813,573.4844 130.2813,572.2031 L130.2813,571.0469 Q130.2813,569.7188 130.8906,568.5781 Q131.5156,567.4219 132.6094,566.8125 Q133.7031,566.1875 134.9375,566.1875 Q135.6719,566.1875 136.3125,566.3594 Q136.9688,566.5156 137.5156,566.875 Z " fill="#000000"/><text fill="#000000" font-family="sans-serif" font-size="14" lengthAdjust="spacing" textLength="99" x="155.25" y="576.7969">TaskRepository</text><line style="stroke:#181818;stroke-width:0.5;" x1="75" x2="302" y1="587" y2="587"/><line style="stroke:#181818;stroke-width:0.5;" x1="75" x2="302" y1="595" y2="595"/><text fill="#000000" font-family="sans-serif" font-size="14" lengthAdjust="spacing" textLength="217" x="80" y="614.1074">+getTaskById(taskId: String): Task</text><text fill="#000000" font-family="sans-serif" font-size="14" lengthAdjust="spacing" textLength="113" x="80" y="632.7285">+save(task: Task)</text></g><!--class Task--><g id="elem_Task"><rect codeLine="28" fill="#F1F1F1" height="103.8633" id="Task" rx="2.5" ry="2.5" style="stroke:#181818;stroke-width:0.5;" width="281" x="48" y="719"/><ellipse cx="168.75" cy="735" fill="#ADD1B2" rx="11" ry="11" style="stroke:#181818;stroke-width:1.0;"/><path d="M171.5156,730.875 Q171.6719,730.6563 171.8594,730.5469 Q172.0469,730.4375 172.2656,730.4375 Q172.6406,730.4375 172.875,730.7031 Q173.1094,730.9531 173.1094,731.5625 L173.1094,733.0156 Q173.1094,733.625 172.875,733.8906 Q172.6406,734.1563 172.2656,734.1563 Q171.9219,734.1563 171.7188,733.9531 Q171.5156,733.7656 171.4063,733.25 Q171.3594,732.8906 171.1719,732.7031 Q170.8438,732.3281 170.2344,732.1094 Q169.625,731.8906 169,731.8906 Q168.2344,731.8906 167.5938,732.2188 Q166.9688,732.5469 166.4688,733.2969 Q165.9844,734.0469 165.9844,735.0781 L165.9844,736.1719 Q165.9844,737.4063 166.875,738.2344 Q167.7656,739.0469 169.3594,739.0469 Q170.2969,739.0469 170.9531,738.7969 Q171.3438,738.6406 171.7656,738.2031 Q172.0313,737.9375 172.1719,737.8594 Q172.3281,737.7813 172.5313,737.7813 Q172.8594,737.7813 173.1094,738.0469 Q173.375,738.2969 173.375,738.6406 Q173.375,738.9844 173.0313,739.3906 Q172.5313,739.9688 171.7344,740.2969 Q170.6563,740.75 169.3594,740.75 Q167.8438,740.75 166.6406,740.125 Q165.6563,739.625 164.9688,738.5625 Q164.2813,737.4844 164.2813,736.2031 L164.2813,735.0469 Q164.2813,733.7188 164.8906,732.5781 Q165.5156,731.4219 166.6094,730.8125 Q167.7031,730.1875 168.9375,730.1875 Q169.6719,730.1875 170.3125,730.3594 Q170.9688,730.5156 171.5156,730.875 Z " fill="#000000"/><text fill="#000000" font-family="sans-serif" font-size="14" lengthAdjust="spacing" textLength="31" x="189.25" y="740.7969">Task</text><line style="stroke:#181818;stroke-width:0.5;" x1="49" x2="328" y1="751" y2="751"/><text fill="#000000" font-family="sans-serif" font-size="14" lengthAdjust="spacing" textLength="88" x="54" y="770.1074">-status: String</text><text fill="#000000" font-family="sans-serif" font-size="14" lengthAdjust="spacing" textLength="141" x="54" y="788.7285">-completionDate: Date</text><line style="stroke:#181818;stroke-width:0.5;" x1="49" x2="328" y1="796.2422" y2="796.2422"/><text fill="#000000" font-family="sans-serif" font-size="14" lengthAdjust="spacing" textLength="269" x="54" y="815.3496">+markAsCompleted(completionDate: Date)</text></g><!--class ApplicationSession--><g id="elem_ApplicationSession"><rect fill="#F1F1F1" height="48" id="ApplicationSession" rx="2.5" ry="2.5" style="stroke:#181818;stroke-width:0.5;" width="151" x="472" y="418.5"/><ellipse cx="487" cy="434.5" fill="#ADD1B2" rx="11" ry="11" style="stroke:#181818;stroke-width:1.0;"/><path d="M489.7656,430.375 Q489.9219,430.1563 490.1094,430.0469 Q490.2969,429.9375 490.5156,429.9375 Q490.8906,429.9375 491.125,430.2031 Q491.3594,430.4531 491.3594,431.0625 L491.3594,432.5156 Q491.3594,433.125 491.125,433.3906 Q490.8906,433.6563 490.5156,433.6563 Q490.1719,433.6563 489.9688,433.4531 Q489.7656,433.2656 489.6563,432.75 Q489.6094,432.3906 489.4219,432.2031 Q489.0938,431.8281 488.4844,431.6094 Q487.875,431.3906 487.25,431.3906 Q486.4844,431.3906 485.8438,431.7188 Q485.2188,432.0469 484.7188,432.7969 Q484.2344,433.5469 484.2344,434.5781 L484.2344,435.6719 Q484.2344,436.9063 485.125,437.7344 Q486.0156,438.5469 487.6094,438.5469 Q488.5469,438.5469 489.2031,438.2969 Q489.5938,438.1406 490.0156,437.7031 Q490.2813,437.4375 490.4219,437.3594 Q490.5781,437.2813 490.7813,437.2813 Q491.1094,437.2813 491.3594,437.5469 Q491.625,437.7969 491.625,438.1406 Q491.625,438.4844 491.2813,438.8906 Q490.7813,439.4688 489.9844,439.7969 Q488.9063,440.25 487.6094,440.25 Q486.0938,440.25 484.8906,439.625 Q483.9063,439.125 483.2188,438.0625 Q482.5313,436.9844 482.5313,435.7031 L482.5313,434.5469 Q482.5313,433.2188 483.1406,432.0781 Q483.7656,430.9219 484.8594,430.3125 Q485.9531,429.6875 487.1875,429.6875 Q487.9219,429.6875 488.5625,429.8594 Q489.2188,430.0156 489.7656,430.375 Z " fill="#000000"/><text fill="#000000" font-family="sans-serif" font-size="14" lengthAdjust="spacing" textLength="119" x="501" y="440.2969">ApplicationSession</text><line style="stroke:#181818;stroke-width:0.5;" x1="473" x2="622" y1="450.5" y2="450.5"/><line style="stroke:#181818;stroke-width:0.5;" x1="473" x2="622" y1="458.5" y2="458.5"/></g><!--class UserSession--><g id="elem_UserSession"><rect fill="#F1F1F1" height="48" id="UserSession" rx="2.5" ry="2.5" style="stroke:#181818;stroke-width:0.5;" width="111" x="492" y="573.5"/><ellipse cx="507" cy="589.5" fill="#ADD1B2" rx="11" ry="11" style="stroke:#181818;stroke-width:1.0;"/><path d="M509.7656,585.375 Q509.9219,585.1563 510.1094,585.0469 Q510.2969,584.9375 510.5156,584.9375 Q510.8906,584.9375 511.125,585.2031 Q511.3594,585.4531 511.3594,586.0625 L511.3594,587.5156 Q511.3594,588.125 511.125,588.3906 Q510.8906,588.6563 510.5156,588.6563 Q510.1719,588.6563 509.9688,588.4531 Q509.7656,588.2656 509.6563,587.75 Q509.6094,587.3906 509.4219,587.2031 Q509.0938,586.8281 508.4844,586.6094 Q507.875,586.3906 507.25,586.3906 Q506.4844,586.3906 505.8438,586.7188 Q505.2188,587.0469 504.7188,587.7969 Q504.2344,588.5469 504.2344,589.5781 L504.2344,590.6719 Q504.2344,591.9063 505.125,592.7344 Q506.0156,593.5469 507.6094,593.5469 Q508.5469,593.5469 509.2031,593.2969 Q509.5938,593.1406 510.0156,592.7031 Q510.2813,592.4375 510.4219,592.3594 Q510.5781,592.2813 510.7813,592.2813 Q511.1094,592.2813 511.3594,592.5469 Q511.625,592.7969 511.625,593.1406 Q511.625,593.4844 511.2813,593.8906 Q510.7813,594.4688 509.9844,594.7969 Q508.9063,595.25 507.6094,595.25 Q506.0938,595.25 504.8906,594.625 Q503.9063,594.125 503.2188,593.0625 Q502.5313,591.9844 502.5313,590.7031 L502.5313,589.5469 Q502.5313,588.2188 503.1406,587.0781 Q503.7656,585.9219 504.8594,585.3125 Q505.9531,584.6875 507.1875,584.6875 Q507.9219,584.6875 508.5625,584.8594 Q509.2188,585.0156 509.7656,585.375 Z " fill="#000000"/><text fill="#000000" font-family="sans-serif" font-size="14" lengthAdjust="spacing" textLength="79" x="521" y="595.2969">UserSession</text><line style="stroke:#181818;stroke-width:0.5;" x1="493" x2="602" y1="605.5" y2="605.5"/><line style="stroke:#181818;stroke-width:0.5;" x1="493" x2="602" y1="613.5" y2="613.5"/></g><!--link ApplicationSession to ApplicationSession--><g id="link_ApplicationSession_ApplicationSession"><path codeLine="34" d="M623.16,430.61 C643,431.32 658,435.28 658,442.5 C658,449.72 648.9962,453.4654 629.1562,454.1754 " fill="none" id="ApplicationSession-to-ApplicationSession" style="stroke:#181818;stroke-width:1.0;"/><polygon fill="#181818" points="623.16,454.39,632.2973,458.0656,628.1568,454.2112,632.0112,450.0707,623.16,454.39" style="stroke:#181818;stroke-width:1.0;"/><text fill="#000000" font-family="sans-serif" font-size="13" lengthAdjust="spacing" textLength="75" x="664" y="448.0283">getInstance()</text></g><!--link ApplicationSession to UserSession--><g id="link_ApplicationSession_UserSession"><path codeLine="35" d="M547.5,466.74 C547.5,495.49 547.5,538.19 547.5,567.04 " fill="none" id="ApplicationSession-to-UserSession" style="stroke:#181818;stroke-width:1.0;"/><polygon fill="#181818" points="547.5,573.04,551.5,564.04,547.5,568.04,543.5,564.04,547.5,573.04" style="stroke:#181818;stroke-width:1.0;"/><text fill="#000000" font-family="sans-serif" font-size="13" lengthAdjust="spacing" textLength="53" x="548.5" y="521.0283">manages</text><text fill="#000000" font-family="sans-serif" font-size="13" lengthAdjust="spacing" textLength="7" x="539.6469" y="562.0698">1</text></g><!--link TaskCompletionController to Collaborator--><g id="link_TaskCompletionController_Collaborator"><path codeLine="37" d="M297.94,280.8 C311.49,253.84 328.5,220 328.5,220 C328.5,220 328.5,135 328.5,135 C328.5,135 314.1844,106.521 300.6344,79.561 " fill="none" id="TaskCompletionController-to-Collaborator" style="stroke:#181818;stroke-width:1.0;"/><polygon fill="#181818" points="297.94,74.2,298.4076,84.0377,300.1853,78.6675,305.5556,80.4452,297.94,74.2" style="stroke:#181818;stroke-width:1.0;"/></g><!--link TaskCompletionController to Repositories--><g id="link_TaskCompletionController_Repositories"><path codeLine="38" d="M219.56,348.03 C190.65,363.22 162.5,378 162.5,378 C162.5,378 143.5355,390.0442 119.0255,405.6042 " fill="none" id="TaskCompletionController-to-Repositories" style="stroke:#181818;stroke-width:1.0;"/><polygon fill="#181818" points="113.96,408.82,123.702,407.3733,118.1812,406.1402,119.4143,400.6194,113.96,408.82" style="stroke:#181818;stroke-width:1.0;"/></g><!--link TaskCompletionController to ApplicationSession--><g id="link_TaskCompletionController_ApplicationSession"><path codeLine="39" d="M350.35,348.11 C396.84,370.13 451.6473,396.102 493.2473,415.802 " fill="none" id="TaskCompletionController-to-ApplicationSession" style="stroke:#181818;stroke-width:1.0;stroke-dasharray:7.0,7.0;"/><polygon fill="#181818" points="498.67,418.37,492.2479,410.9029,494.1511,416.23,488.824,418.1332,498.67,418.37" style="stroke:#181818;stroke-width:1.0;"/></g><!--link Collaborator to TaskCompletionUI--><g id="link_Collaborator_TaskCompletionUI"><path codeLine="41" d="M261.41,74.18 C250.18,92.44 239.223,110.2691 227.213,129.7991 " fill="none" id="Collaborator-to-TaskCompletionUI" style="stroke:#181818;stroke-width:1.0;"/><polygon fill="#181818" points="224.07,134.91,232.1918,129.3389,226.6891,130.6509,225.3772,125.1483,224.07,134.91" style="stroke:#181818;stroke-width:1.0;"/></g><!--link TaskCompletionUI to TaskCompletionController--><g id="link_TaskCompletionUI_TaskCompletionController"><path codeLine="42" d="M224.08,220.11 C236.08,239.63 247.0376,257.4487 258.2576,275.6987 " fill="none" id="TaskCompletionUI-to-TaskCompletionController" style="stroke:#181818;stroke-width:1.0;"/><polygon fill="#181818" points="261.4,280.81,260.0939,271.0481,258.7813,276.5506,253.2789,275.238,261.4,280.81" style="stroke:#181818;stroke-width:1.0;"/></g><!--link Repositories to TaskRepository--><g id="link_Repositories_TaskRepository"><path codeLine="44" d="M89.53,476.32 C108.48,499.33 130.1355,525.6286 150.4955,550.3486 " fill="none" id="Repositories-to-TaskRepository" style="stroke:#181818;stroke-width:1.0;"/><polygon fill="#181818" points="154.31,554.98,151.6758,545.4899,151.1312,551.1205,145.5007,550.576,154.31,554.98" style="stroke:#181818;stroke-width:1.0;"/></g><!--link TaskRepository to Task--><g id="link_TaskRepository_Task"><path codeLine="45" d="M167.56,640.09 C159.64,655.82 152.5,670 152.5,670 C152.5,670 152.5,689 152.5,689 C152.5,689 156.1238,697.1468 163.2638,713.2168 " fill="none" id="TaskRepository-to-Task" style="stroke:#181818;stroke-width:1.0;"/><polygon fill="#181818" points="165.7,718.7,165.7011,708.8511,163.6698,714.1307,158.3903,712.0994,165.7,718.7" style="stroke:#181818;stroke-width:1.0;"/></g><!--link TaskRepository to Task--><g id="link_TaskRepository_Task"><path codeLine="49" d="M186.75,640.09 C186.09,655.82 185.5,670 185.5,670 C185.5,670 185.5,689 185.5,689 C185.5,689 185.7761,696.6342 186.3761,712.7042 " fill="none" id="TaskRepository-to-Task-1" style="stroke:#181818;stroke-width:1.0;"/><polygon fill="#181818" points="186.6,718.7,190.2614,709.557,186.4134,713.7035,182.267,709.8555,186.6,718.7" style="stroke:#181818;stroke-width:1.0;"/><text fill="#000000" font-family="sans-serif" font-size="13" lengthAdjust="spacing" textLength="115" x="186.5" y="685.0283">getTaskById(taskId)</text></g><!--link TaskRepository to Task--><g id="link_TaskRepository_Task"><path codeLine="50" d="M257.14,640.09 C283.1,655.82 306.5,670 306.5,670 C306.5,670 306.5,689 306.5,689 C306.5,689 291.4069,699.3647 267.8469,715.5347 " fill="none" id="TaskRepository-to-Task-2" style="stroke:#181818;stroke-width:1.0;"/><polygon fill="#181818" points="262.9,718.93,272.5839,717.1351,267.0225,716.1006,268.0569,710.5392,262.9,718.93" style="stroke:#181818;stroke-width:1.0;"/><text fill="#000000" font-family="sans-serif" font-size="13" lengthAdjust="spacing" textLength="59" x="307.5" y="685.0283">save(task)</text></g><!--link TaskCompletionController to TaskRepository--><g id="link_TaskCompletionController_TaskRepository"><path codeLine="47" d="M258.42,348.2 C239.38,375.16 215.5,409 215.5,409 C215.5,409 203.3058,493.7113 195.3458,548.9513 " fill="none" id="TaskCompletionController-to-TaskRepository" style="stroke:#181818;stroke-width:1.0;"/><polygon fill="#181818" points="194.49,554.89,199.7327,546.5525,195.2031,549.9411,191.8145,545.4115,194.49,554.89" style="stroke:#181818;stroke-width:1.0;"/><text fill="#000000" font-family="sans-serif" font-size="13" lengthAdjust="spacing" textLength="115" x="216.5" y="448.0283">getTaskById(taskId)</text></g><!--link TaskCompletionController to TaskRepository--><g id="link_TaskCompletionController_TaskRepository"><path codeLine="48" d="M300.74,348.2 C316.6,375.16 336.5,409 336.5,409 C336.5,409 336.5,476 336.5,476 C336.5,476 287.2428,516.1016 244.5028,550.9016 " fill="none" id="TaskCompletionController-to-TaskRepository-1" style="stroke:#181818;stroke-width:1.0;"/><polygon fill="#181818" points="239.85,554.69,249.3547,552.1093,243.7273,551.533,244.3035,545.9056,239.85,554.69" style="stroke:#181818;stroke-width:1.0;"/><text fill="#000000" font-family="sans-serif" font-size="13" lengthAdjust="spacing" textLength="59" x="337.5" y="448.0283">save(task)</text></g><!--link Task to Task--><g id="link_Task_Task"><path codeLine="51" d="M329.3,755.73 C350.02,758.13 364,763.22 364,771 C364,778.78 355.9802,783.1796 335.2602,785.5796 " fill="none" id="Task-to-Task" style="stroke:#181818;stroke-width:1.0;"/><polygon fill="#181818" points="329.3,786.27,338.7005,789.2079,334.2668,785.6947,337.78,781.261,329.3,786.27" style="stroke:#181818;stroke-width:1.0;"/><text fill="#000000" font-family="sans-serif" font-size="13" lengthAdjust="spacing" textLength="205" x="370" y="776.5283">markAsCompleted(completionDate)</text></g><!--SRC=[hL9FJuCm5B_tKpGxZUWMlN8mcVF2LTm7U8CtR2XjqzTfqFZTBGYCTJ1Z8eUIzlVdzRt-g1JAW8MA6yXAA31rjKHkCNEW2ecC1WAzGgxVXIhu0IID4IaKkjeWDrhMpMQ4PHA8DivPiJywJ3AjKl61_8wn5k5RBINijGMdBVzat7ytJNbjynUWSgih8z49hPRERvCyvgdtKiKjpmRe2Hp6l5aZzjKRdwjtoM1Ue3l7l12MKOVcWeo4-eHkjJe8Mq5xXrb_ptBMjuB_syGp6at2ZqOWZHj85FdtoJ2yqC2lmtOVwoGFgaTng-bu16_O4dvE0-FERiLzNNUatg8xdEgYiwt0bXlg9e3vShRXZJ5IPEsOKoJoFxvQFV29upYOm8noSR_WEq9xabMWVCA9iTctQtJZH5vdZbzddhbUJtN1s5do6ximiUmYmfUiKnt6piBIKq-9O450UiOlumXKyKIWeZyw356BvkvqfSmqEx0SGzSJ6B5l]--></g></svg>