<?xml version="1.0" encoding="us-ascii" standalone="no"?><svg xmlns="http://www.w3.org/2000/svg" xmlns:xlink="http://www.w3.org/1999/xlink" contentStyleType="text/css" height="1525px" preserveAspectRatio="none" style="width:1431px;height:1525px;background:#FFFFFF;" version="1.1" viewBox="0 0 1431 1525" width="1431px" zoomAndPan="magnify"><defs/><g><!--class Vehicle--><g id="elem_Vehicle"><rect codeLine="10" fill="#F1F1F1" height="241.4531" id="Vehicle" rx="2.5" ry="2.5" style="stroke:#181818;stroke-width:0.5;" width="153" x="645.5" y="707"/><text fill="#000000" font-family="sans-serif" font-size="14" lengthAdjust="spacing" textLength="46" x="699" y="727.1074">Vehicle</text><line style="stroke:#181818;stroke-width:0.5;" x1="646.5" x2="797.5" y1="735.6211" y2="735.6211"/><text fill="#000000" font-family="sans-serif" font-size="14" lengthAdjust="spacing" textLength="69" x="651.5" y="754.7285">description</text><text fill="#000000" font-family="sans-serif" font-size="14" lengthAdjust="spacing" textLength="55" x="651.5" y="773.3496">atributes</text><text fill="#000000" font-family="sans-serif" font-size="14" lengthAdjust="spacing" textLength="38" x="651.5" y="791.9707">Brand</text><text fill="#000000" font-family="sans-serif" font-size="14" lengthAdjust="spacing" textLength="38" x="651.5" y="810.5918">Model</text><text fill="#000000" font-family="sans-serif" font-size="14" lengthAdjust="spacing" textLength="32" x="651.5" y="829.2129">Type</text><text fill="#000000" font-family="sans-serif" font-size="14" lengthAdjust="spacing" textLength="30" x="651.5" y="847.834">Tare</text><text fill="#000000" font-family="sans-serif" font-size="14" lengthAdjust="spacing" textLength="82" x="651.5" y="866.4551">GrossWeight</text><text fill="#000000" font-family="sans-serif" font-size="14" lengthAdjust="spacing" textLength="72" x="651.5" y="885.0762">Current Km</text><text fill="#000000" font-family="sans-serif" font-size="14" lengthAdjust="spacing" textLength="87" x="651.5" y="903.6973">Register Date</text><text fill="#000000" font-family="sans-serif" font-size="14" lengthAdjust="spacing" textLength="102" x="651.5" y="922.3184">Acquisition Date</text><text fill="#000000" font-family="sans-serif" font-size="14" lengthAdjust="spacing" textLength="141" x="651.5" y="940.9395">Maintenance/Checkup</text></g><!--class List--><g id="elem_List"><rect codeLine="25" fill="#F1F1F1" height="111.1055" id="List" rx="2.5" ry="2.5" style="stroke:#181818;stroke-width:0.5;" width="95" x="915.5" y="772"/><text fill="#000000" font-family="sans-serif" font-size="14" lengthAdjust="spacing" textLength="22" x="952" y="792.1074">List</text><line style="stroke:#181818;stroke-width:0.5;" x1="916.5" x2="1009.5" y1="800.6211" y2="800.6211"/><text fill="#000000" font-family="sans-serif" font-size="14" lengthAdjust="spacing" textLength="83" x="921.5" y="819.7285">plate number</text><text fill="#000000" font-family="sans-serif" font-size="14" lengthAdjust="spacing" textLength="38" x="921.5" y="838.3496">model</text><text fill="#000000" font-family="sans-serif" font-size="14" lengthAdjust="spacing" textLength="37" x="921.5" y="856.9707">brand</text><text fill="#000000" font-family="sans-serif" font-size="14" lengthAdjust="spacing" textLength="74" x="921.5" y="875.5918">current kms</text></g><!--class MaintenanceAgenda--><g id="elem_MaintenanceAgenda"><rect codeLine="32" fill="#F1F1F1" height="92.4844" id="MaintenanceAgenda" rx="2.5" ry="2.5" style="stroke:#181818;stroke-width:0.5;" width="136" x="651" y="452"/><text fill="#000000" font-family="sans-serif" font-size="14" lengthAdjust="spacing" textLength="130" x="654" y="472.1074">MaintenanceAgenda</text><line style="stroke:#181818;stroke-width:0.5;" x1="652" x2="786" y1="480.6211" y2="480.6211"/><text fill="#000000" font-family="sans-serif" font-size="14" lengthAdjust="spacing" textLength="63" x="657" y="499.7285">frequency</text><text fill="#000000" font-family="sans-serif" font-size="14" lengthAdjust="spacing" textLength="69" x="657" y="518.3496">description</text><text fill="#000000" font-family="sans-serif" font-size="14" lengthAdjust="spacing" textLength="44" x="657" y="536.9707">vehicle</text></g><!--class Team--><g id="elem_Team"><rect codeLine="38" fill="#F1F1F1" height="55.2422" id="Team" rx="2.5" ry="2.5" style="stroke:#181818;stroke-width:0.5;" width="47" x="684.5" y="7"/><text fill="#000000" font-family="sans-serif" font-size="14" lengthAdjust="spacing" textLength="36" x="690" y="27.1074">Team</text><line style="stroke:#181818;stroke-width:0.5;" x1="685.5" x2="730.5" y1="35.6211" y2="35.6211"/><text fill="#000000" font-family="sans-serif" font-size="14" lengthAdjust="spacing" textLength="35" x="690.5" y="54.7285">name</text></g><!--class Skill--><g id="elem_Skill"><rect codeLine="43" fill="#F1F1F1" height="73.8633" id="Skill" rx="2.5" ry="2.5" style="stroke:#181818;stroke-width:0.5;" width="81" x="822.5" y="461"/><text fill="#000000" font-family="sans-serif" font-size="14" lengthAdjust="spacing" textLength="25" x="850.5" y="481.1074">Skill</text><line style="stroke:#181818;stroke-width:0.5;" x1="823.5" x2="902.5" y1="489.6211" y2="489.6211"/><text fill="#000000" font-family="sans-serif" font-size="14" lengthAdjust="spacing" textLength="35" x="828.5" y="508.7285">name</text><text fill="#000000" font-family="sans-serif" font-size="14" lengthAdjust="spacing" textLength="69" x="828.5" y="527.3496">description</text></g><!--class Job--><g id="elem_Job"><rect codeLine="48" fill="#F1F1F1" height="55.2422" id="Job" rx="2.5" ry="2.5" style="stroke:#181818;stroke-width:0.5;" width="47" x="466.5" y="1045.5"/><text fill="#000000" font-family="sans-serif" font-size="14" lengthAdjust="spacing" textLength="22" x="479" y="1065.6074">Job</text><line style="stroke:#181818;stroke-width:0.5;" x1="467.5" x2="512.5" y1="1074.1211" y2="1074.1211"/><text fill="#000000" font-family="sans-serif" font-size="14" lengthAdjust="spacing" textLength="35" x="472.5" y="1093.2285">name</text></g><!--class User--><g id="elem_User"><rect codeLine="52" fill="#F1F1F1" height="260.0742" id="User" rx="2.5" ry="2.5" style="stroke:#181818;stroke-width:0.5;" width="129" x="180.5" y="368"/><text fill="#000000" font-family="sans-serif" font-size="14" lengthAdjust="spacing" textLength="29" x="230.5" y="388.1074">User</text><line style="stroke:#181818;stroke-width:0.5;" x1="181.5" x2="308.5" y1="396.6211" y2="396.6211"/><text fill="#000000" font-family="sans-serif" font-size="14" lengthAdjust="spacing" textLength="35" x="186.5" y="415.7285">name</text><text fill="#000000" font-family="sans-serif" font-size="14" lengthAdjust="spacing" textLength="58" x="186.5" y="434.3496">birthDate</text><text fill="#000000" font-family="sans-serif" font-size="14" lengthAdjust="spacing" textLength="93" x="186.5" y="452.9707">admissionDate</text><text fill="#000000" font-family="sans-serif" font-size="14" lengthAdjust="spacing" textLength="51" x="186.5" y="471.5918">address</text><text fill="#000000" font-family="sans-serif" font-size="14" lengthAdjust="spacing" textLength="89" x="186.5" y="490.2129">phoneNumber</text><text fill="#000000" font-family="sans-serif" font-size="14" lengthAdjust="spacing" textLength="33" x="186.5" y="508.834">email</text><text fill="#000000" font-family="sans-serif" font-size="14" lengthAdjust="spacing" textLength="104" x="186.5" y="527.4551">taxPayerNumber</text><text fill="#000000" font-family="sans-serif" font-size="14" lengthAdjust="spacing" textLength="117" x="186.5" y="546.0762">idDocTypeNumber</text><text fill="#000000" font-family="sans-serif" font-size="14" lengthAdjust="spacing" textLength="19" x="186.5" y="564.6973">job</text><text fill="#000000" font-family="sans-serif" font-size="14" lengthAdjust="spacing" textLength="30" x="186.5" y="583.3184">skills</text><text fill="#000000" font-family="sans-serif" font-size="14" lengthAdjust="spacing" textLength="26" x="186.5" y="601.9395">task</text><text fill="#000000" font-family="sans-serif" font-size="14" lengthAdjust="spacing" textLength="43" x="186.5" y="620.5605">idType</text></g><!--class UserType--><g id="elem_UserType"><rect codeLine="67" fill="#F1F1F1" height="55.2422" id="UserType" rx="2.5" ry="2.5" style="stroke:#181818;stroke-width:0.5;" width="124" x="47" y="7"/><text fill="#000000" font-family="sans-serif" font-size="14" lengthAdjust="spacing" textLength="61" x="78.5" y="27.1074">UserType</text><line style="stroke:#181818;stroke-width:0.5;" x1="48" x2="170" y1="35.6211" y2="35.6211"/><text fill="#000000" font-family="sans-serif" font-size="14" lengthAdjust="spacing" textLength="112" x="53" y="54.7285">NameOfUserType</text></g><!--class GreenSpace--><g id="elem_GreenSpace"><rect codeLine="71" fill="#F1F1F1" height="148.3477" id="GreenSpace" rx="2.5" ry="2.5" style="stroke:#181818;stroke-width:0.5;" width="86" x="7" y="1370"/><text fill="#000000" font-family="sans-serif" font-size="14" lengthAdjust="spacing" textLength="80" x="10" y="1390.1074">GreenSpace</text><line style="stroke:#181818;stroke-width:0.5;" x1="8" x2="92" y1="1398.6211" y2="1398.6211"/><text fill="#000000" font-family="sans-serif" font-size="14" lengthAdjust="spacing" textLength="35" x="13" y="1417.7285">name</text><text fill="#000000" font-family="sans-serif" font-size="14" lengthAdjust="spacing" textLength="27" x="13" y="1436.3496">type</text><text fill="#000000" font-family="sans-serif" font-size="14" lengthAdjust="spacing" textLength="69" x="13" y="1454.9707">description</text><text fill="#000000" font-family="sans-serif" font-size="14" lengthAdjust="spacing" textLength="29" x="13" y="1473.5918">area</text><text fill="#000000" font-family="sans-serif" font-size="14" lengthAdjust="spacing" textLength="56" x="13" y="1492.2129">manager</text><text fill="#000000" font-family="sans-serif" font-size="14" lengthAdjust="spacing" textLength="51" x="13" y="1510.834">address</text></g><!--class Portal--><g id="elem_Portal"><rect codeLine="80" fill="#F1F1F1" height="92.4844" id="Portal" rx="2.5" ry="2.5" style="stroke:#181818;stroke-width:0.5;" width="83" x="103.5" y="1027"/><text fill="#000000" font-family="sans-serif" font-size="14" lengthAdjust="spacing" textLength="37" x="126.5" y="1047.1074">Portal</text><line style="stroke:#181818;stroke-width:0.5;" x1="104.5" x2="185.5" y1="1055.6211" y2="1055.6211"/><text fill="#000000" font-family="sans-serif" font-size="14" lengthAdjust="spacing" textLength="35" x="109.5" y="1074.7285">name</text><text fill="#000000" font-family="sans-serif" font-size="14" lengthAdjust="spacing" textLength="71" x="109.5" y="1093.3496">url address</text><text fill="#000000" font-family="sans-serif" font-size="14" lengthAdjust="spacing" textLength="47" x="109.5" y="1111.9707">content</text></g><!--class Report--><g id="elem_Report"><rect codeLine="86" fill="#F1F1F1" height="111.1055" id="Report" rx="2.5" ry="2.5" style="stroke:#181818;stroke-width:0.5;" width="59" x="144.5" y="1198"/><text fill="#000000" font-family="sans-serif" font-size="14" lengthAdjust="spacing" textLength="43" x="152.5" y="1218.1074">Report</text><line style="stroke:#181818;stroke-width:0.5;" x1="145.5" x2="202.5" y1="1226.6211" y2="1226.6211"/><text fill="#000000" font-family="sans-serif" font-size="14" lengthAdjust="spacing" textLength="27" x="150.5" y="1245.7285">type</text><text fill="#000000" font-family="sans-serif" font-size="14" lengthAdjust="spacing" textLength="28" x="150.5" y="1264.3496">date</text><text fill="#000000" font-family="sans-serif" font-size="14" lengthAdjust="spacing" textLength="41" x="150.5" y="1282.9707">author</text><text fill="#000000" font-family="sans-serif" font-size="14" lengthAdjust="spacing" textLength="47" x="150.5" y="1301.5918">content</text></g><!--class Address--><g id="elem_Address"><rect codeLine="93" fill="#F1F1F1" height="92.4844" id="Address" rx="2.5" ry="2.5" style="stroke:#181818;stroke-width:0.5;" width="84" x="210" y="1398"/><text fill="#000000" font-family="sans-serif" font-size="14" lengthAdjust="spacing" textLength="52" x="226" y="1418.1074">Address</text><line style="stroke:#181818;stroke-width:0.5;" x1="211" x2="293" y1="1426.6211" y2="1426.6211"/><text fill="#000000" font-family="sans-serif" font-size="14" lengthAdjust="spacing" textLength="36" x="216" y="1445.7285">street</text><text fill="#000000" font-family="sans-serif" font-size="14" lengthAdjust="spacing" textLength="72" x="216" y="1464.3496">postalCode</text><text fill="#000000" font-family="sans-serif" font-size="14" lengthAdjust="spacing" textLength="21" x="216" y="1482.9707">city</text></g><!--class Task--><g id="elem_Task"><rect codeLine="99" fill="#F1F1F1" height="148.3477" id="Task" rx="2.5" ry="2.5" style="stroke:#181818;stroke-width:0.5;" width="123" x="1076.5" y="141"/><text fill="#000000" font-family="sans-serif" font-size="14" lengthAdjust="spacing" textLength="31" x="1122.5" y="161.1074">Task</text><line style="stroke:#181818;stroke-width:0.5;" x1="1077.5" x2="1198.5" y1="169.6211" y2="169.6211"/><text fill="#000000" font-family="sans-serif" font-size="14" lengthAdjust="spacing" textLength="61" x="1082.5" y="188.7285">reference</text><text fill="#000000" font-family="sans-serif" font-size="14" lengthAdjust="spacing" textLength="69" x="1082.5" y="207.3496">description</text><text fill="#000000" font-family="sans-serif" font-size="14" lengthAdjust="spacing" textLength="38" x="1082.5" y="225.9707">status</text><text fill="#000000" font-family="sans-serif" font-size="14" lengthAdjust="spacing" textLength="51" x="1082.5" y="244.5918">urgency</text><text fill="#000000" font-family="sans-serif" font-size="14" lengthAdjust="spacing" textLength="111" x="1082.5" y="263.2129">expectedDuration</text><text fill="#000000" font-family="sans-serif" font-size="14" lengthAdjust="spacing" textLength="77" x="1082.5" y="281.834">greenSpace</text></g><!--class CheckUp--><g id="elem_CheckUp"><rect codeLine="108" fill="#F1F1F1" height="55.2422" id="CheckUp" rx="2.5" ry="2.5" style="stroke:#181818;stroke-width:0.5;" width="86" x="794" y="1045.5"/><text fill="#000000" font-family="sans-serif" font-size="14" lengthAdjust="spacing" textLength="57" x="808.5" y="1065.6074">CheckUp</text><line style="stroke:#181818;stroke-width:0.5;" x1="795" x2="879" y1="1074.1211" y2="1074.1211"/><text fill="#000000" font-family="sans-serif" font-size="14" lengthAdjust="spacing" textLength="74" x="800" y="1093.2285">-description</text></g><!--class Agenda--><g id="elem_Agenda"><rect codeLine="112" fill="#F1F1F1" height="73.8633" id="Agenda" rx="2.5" ry="2.5" style="stroke:#181818;stroke-width:0.5;" width="55" x="535.5" y="1216.5"/><text fill="#000000" font-family="sans-serif" font-size="14" lengthAdjust="spacing" textLength="49" x="538.5" y="1236.6074">Agenda</text><line style="stroke:#181818;stroke-width:0.5;" x1="536.5" x2="589.5" y1="1245.1211" y2="1245.1211"/><text fill="#000000" font-family="sans-serif" font-size="14" lengthAdjust="spacing" textLength="31" x="541.5" y="1264.2285">diary</text><text fill="#000000" font-family="sans-serif" font-size="14" lengthAdjust="spacing" textLength="43" x="541.5" y="1282.8496">entries</text></g><!--class ToDoListEntry--><g id="elem_ToDoListEntry"><rect codeLine="117" fill="#F1F1F1" height="55.2422" id="ToDoListEntry" rx="2.5" ry="2.5" style="stroke:#181818;stroke-width:0.5;" width="96" x="1184" y="800"/><text fill="#000000" font-family="sans-serif" font-size="14" lengthAdjust="spacing" textLength="90" x="1187" y="820.1074">ToDoListEntry</text><line style="stroke:#181818;stroke-width:0.5;" x1="1185" x2="1279" y1="828.6211" y2="828.6211"/><text fill="#000000" font-family="sans-serif" font-size="14" lengthAdjust="spacing" textLength="31" x="1190" y="847.7285">-task</text></g><!--class ToDoList--><g id="elem_ToDoList"><rect codeLine="121" fill="#F1F1F1" height="55.2422" id="ToDoList" rx="2.5" ry="2.5" style="stroke:#181818;stroke-width:0.5;" width="63" x="1234.5" y="470.5"/><text fill="#000000" font-family="sans-serif" font-size="14" lengthAdjust="spacing" textLength="57" x="1237.5" y="490.6074">ToDoList</text><line style="stroke:#181818;stroke-width:0.5;" x1="1235.5" x2="1296.5" y1="499.1211" y2="499.1211"/><text fill="#000000" font-family="sans-serif" font-size="14" lengthAdjust="spacing" textLength="48" x="1240.5" y="518.2285">-entries</text></g><!--class AgendaEntry--><g id="elem_AgendaEntry"><rect codeLine="125" fill="#F1F1F1" height="73.8633" id="AgendaEntry" rx="2.5" ry="2.5" style="stroke:#181818;stroke-width:0.5;" width="102" x="1013" y="1036"/><text fill="#000000" font-family="sans-serif" font-size="14" lengthAdjust="spacing" textLength="82" x="1023" y="1056.1074">AgendaEntry</text><line style="stroke:#181818;stroke-width:0.5;" x1="1014" x2="1114" y1="1064.6211" y2="1064.6211"/><text fill="#000000" font-family="sans-serif" font-size="14" lengthAdjust="spacing" textLength="90" x="1019" y="1083.7285">-toDoListEntry</text><text fill="#000000" font-family="sans-serif" font-size="14" lengthAdjust="spacing" textLength="36" x="1019" y="1102.3496">-team</text></g><!--class Equipment--><g id="elem_Equipment"><rect fill="#F1F1F1" height="36.6211" id="Equipment" rx="2.5" ry="2.5" style="stroke:#181818;stroke-width:0.5;" width="73" x="574.5" y="1054.5"/><text fill="#000000" font-family="sans-serif" font-size="14" lengthAdjust="spacing" textLength="67" x="577.5" y="1074.6074">Equipment</text><line style="stroke:#181818;stroke-width:0.5;" x1="575.5" x2="646.5" y1="1083.1211" y2="1083.1211"/></g><!--class Machines--><g id="elem_Machines"><rect fill="#F1F1F1" height="36.6211" id="Machines" rx="2.5" ry="2.5" style="stroke:#181818;stroke-width:0.5;" width="66" x="691" y="1054.5"/><text fill="#000000" font-family="sans-serif" font-size="14" lengthAdjust="spacing" textLength="60" x="694" y="1074.6074">Machines</text><line style="stroke:#181818;stroke-width:0.5;" x1="692" x2="756" y1="1083.1211" y2="1083.1211"/></g><!--link UserType to User--><g id="link_UserType_User"><path codeLine="130" d="M108.59,62.05 C108.58,108.93 111.73,208.95 136,289 C146.65,324.11 163.28,360.25 180.37,392.34 " fill="none" id="UserType-User" style="stroke:#181818;stroke-width:1.0;"/><polygon fill="#000000" points="142.0618,220.0315,143.0128,210.5686,137.2691,211.8168,142.0618,220.0315" style="stroke:#000000;stroke-width:1.0;"/><text fill="#000000" font-family="sans-serif" font-size="13" lengthAdjust="spacing" textLength="51" x="150" y="220.5283">identifies</text><text fill="#000000" font-family="sans-serif" font-size="13" lengthAdjust="spacing" textLength="7" x="100.6858" y="84.4205">1</text><text fill="#000000" font-family="sans-serif" font-size="13" lengthAdjust="spacing" textLength="7" x="165.4925" y="376.1811">1</text></g><!--link User to Portal--><g id="link_User_Portal"><path codeLine="131" d="M206.39,628.11 C199.54,654.06 193.01,681.27 188,707 C165.77,821.14 153.4,957.76 148.11,1026.99 " fill="none" id="User-Portal" style="stroke:#181818;stroke-width:1.0;"/><polygon fill="#000000" points="192.2771,832.593,196.4929,824.0678,190.6768,823.218,192.2771,832.593" style="stroke:#000000;stroke-width:1.0;"/><text fill="#000000" font-family="sans-serif" font-size="13" lengthAdjust="spacing" textLength="28" x="202" y="833.0283">uses</text><text fill="#000000" font-family="sans-serif" font-size="13" lengthAdjust="spacing" textLength="7" x="196.9555" y="650.158">1</text><text fill="#000000" font-family="sans-serif" font-size="13" lengthAdjust="spacing" textLength="7" x="141.0503" y="1015.6567">1</text></g><!--link User to Address--><g id="link_User_Address"><path codeLine="132" d="M251.91,628.06 C254.58,688.34 257,761.07 257,826.5 C257,826.5 257,826.5 257,1254.5 C257,1303.44 255.29,1359.51 253.88,1397.68 " fill="none" id="User-Address" style="stroke:#181818;stroke-width:1.0;"/><polygon fill="#000000" points="262.0128,1078.1455,264.9286,1069.0929,259.0507,1069.108,262.0128,1078.1455" style="stroke:#000000;stroke-width:1.0;"/><text fill="#000000" font-family="sans-serif" font-size="13" lengthAdjust="spacing" textLength="39" x="271" y="1078.5283">lives in</text><text fill="#000000" font-family="sans-serif" font-size="13" lengthAdjust="spacing" textLength="7" x="245.1071" y="650.1051">1</text><text fill="#000000" font-family="sans-serif" font-size="13" lengthAdjust="spacing" textLength="7" x="246.6421" y="1386.6424">1</text></g><!--link User to Job--><g id="link_User_Job"><path codeLine="133" d="M309.91,534.56 C353.71,562.2 408.68,604.76 438,658 C475.04,725.26 486.39,965.04 489.2,1045.48 " fill="none" id="User-Job" style="stroke:#181818;stroke-width:1.0;"/><polygon fill="#000000" points="490.6556,832.3635,490.4337,822.8555,484.8875,824.8018,490.6556,832.3635" style="stroke:#000000;stroke-width:1.0;"/><text fill="#000000" font-family="sans-serif" font-size="13" lengthAdjust="spacing" textLength="21" x="498" y="833.0283">has</text><text fill="#000000" font-family="sans-serif" font-size="13" lengthAdjust="spacing" textLength="7" x="317.3923" y="534.6692">1</text><text fill="#000000" font-family="sans-serif" font-size="13" lengthAdjust="spacing" textLength="7" x="481.2056" y="1034.1843">1</text></g><!--link Task to Skill--><g id="link_Task_Skill"><path codeLine="134" d="M1076.47,250.76 C1031.92,278.23 972.48,319.87 931,368 C907.04,395.81 888.4,433.5 876.75,460.96 " fill="none" id="Task-Skill" style="stroke:#181818;stroke-width:1.0;"/><polygon fill="#000000" points="976.556,332.2702,984.9168,327.7374,980.6557,323.6887,976.556,332.2702" style="stroke:#000000;stroke-width:1.0;"/><text fill="#000000" font-family="sans-serif" font-size="13" lengthAdjust="spacing" textLength="46" x="989" y="334.0283">requires</text><text fill="#000000" font-family="sans-serif" font-size="13" lengthAdjust="spacing" textLength="7" x="1061.5445" y="251.1072">1</text><text fill="#000000" font-family="sans-serif" font-size="13" lengthAdjust="spacing" textLength="20" x="881.1289" y="449.6313">0..*</text></g><!--link Task to Vehicle--><g id="link_Task_Vehicle"><path codeLine="135" d="M1146.8,289.17 C1153.46,378.4 1151.09,529.48 1076,628 C1023.53,696.84 973.66,664.97 898,707 C864.26,725.74 828.74,749.1 798.51,770.17 " fill="none" id="Task-Vehicle" style="stroke:#181818;stroke-width:1.0;"/><polygon fill="#000000" points="1150.0676,502.1953,1157.7528,496.5928,1152.992,493.1455,1150.0676,502.1953" style="stroke:#000000;stroke-width:1.0;"/><text fill="#000000" font-family="sans-serif" font-size="13" lengthAdjust="spacing" textLength="46" x="1162" y="503.5283">requires</text><text fill="#000000" font-family="sans-serif" font-size="13" lengthAdjust="spacing" textLength="7" x="1140.3217" y="311.3334">1</text><text fill="#000000" font-family="sans-serif" font-size="13" lengthAdjust="spacing" textLength="20" x="806.4851" y="761.1221">0..*</text></g><!--link GreenSpace to Address--><g id="link_GreenSpace_Address"><path codeLine="136" d="M93.33,1444 C127.76,1444 175.64,1444 209.78,1444 " fill="none" id="GreenSpace-Address" style="stroke:#181818;stroke-width:1.0;"/><polygon fill="#000000" points="125.5,1431.6455,116.4549,1428.7066,116.4549,1434.5844,125.5,1431.6455" style="stroke:#000000;stroke-width:1.0;"/><text fill="#000000" font-family="sans-serif" font-size="13" lengthAdjust="spacing" textLength="57" x="129.5" y="1437.0283">located at</text><text fill="#000000" font-family="sans-serif" font-size="13" lengthAdjust="spacing" textLength="7" x="101.0862" y="1439.6158">1</text><text fill="#000000" font-family="sans-serif" font-size="13" lengthAdjust="spacing" textLength="7" x="194.9219" y="1439.5508">1</text></g><!--link Portal to GreenSpace--><g id="link_Portal_GreenSpace"><path codeLine="137" d="M106.15,1119.1 C89.36,1141.33 71.44,1169.47 62,1198 C43.61,1253.59 41.52,1320.15 43.51,1369.85 " fill="none" id="Portal-GreenSpace" style="stroke:#181818;stroke-width:1.0;"/><polygon fill="#000000" points="65.7882,1258.4964,70.8317,1250.4333,65.1291,1249.0087,65.7882,1258.4964" style="stroke:#000000;stroke-width:1.0;"/><text fill="#000000" font-family="sans-serif" font-size="13" lengthAdjust="spacing" textLength="50" x="76" y="1259.0283">made for</text><text fill="#000000" font-family="sans-serif" font-size="13" lengthAdjust="spacing" textLength="7" x="92.6652" y="1141.4741">1</text><text fill="#000000" font-family="sans-serif" font-size="13" lengthAdjust="spacing" textLength="7" x="35.5266" y="1358.7397">1</text></g><!--link Portal to Report--><g id="link_Portal_Report"><path codeLine="138" d="M152.32,1119.04 C156.21,1143 161.03,1172.65 165.13,1197.91 " fill="none" id="Portal-Report" style="stroke:#181818;stroke-width:1.0;"/><polygon fill="#000000" points="164.8016,1163.5808,166.2524,1154.1816,160.4506,1155.1239,164.8016,1163.5808" style="stroke:#000000;stroke-width:1.0;"/><text fill="#000000" font-family="sans-serif" font-size="13" lengthAdjust="spacing" textLength="21" x="173" y="1164.0283">has</text><text fill="#000000" font-family="sans-serif" font-size="13" lengthAdjust="spacing" textLength="7" x="145.9049" y="1141.405">1</text><text fill="#000000" font-family="sans-serif" font-size="13" lengthAdjust="spacing" textLength="20" x="142.7123" y="1186.7387">0..*</text></g><!--link Team to Task--><g id="link_Team_Task"><path codeLine="139" d="M731.66,35.92 C783.13,37.69 908.05,46.72 1000,92 C1027.69,105.63 1054.11,126.32 1076.28,146.81 " fill="none" id="Team-Task" style="stroke:#181818;stroke-width:1.0;"/><polygon fill="#000000" points="1039.7597,103.177,1032.0496,97.6088,1030.2491,103.2041,1039.7597,103.177" style="stroke:#000000;stroke-width:1.0;"/><text fill="#000000" font-family="sans-serif" font-size="13" lengthAdjust="spacing" textLength="53" x="1044" y="107.0283">executes</text><text fill="#000000" font-family="sans-serif" font-size="13" lengthAdjust="spacing" textLength="7" x="739.6383" y="30.8757">1</text><text fill="#000000" font-family="sans-serif" font-size="13" lengthAdjust="spacing" textLength="20" x="1048.4356" y="135.4473">0..*</text></g><!--link Team to Job--><g id="link_Team_Job"><path codeLine="140" d="M684.46,48.22 C641.1,73.56 553,134.79 553,214 C553,214 553,214 553,828.5 C553,909.5 519.92,1000.97 501.7,1045.2 " fill="none" id="Team-Job" style="stroke:#181818;stroke-width:1.0;"/><polygon fill="#000000" points="557.0985,503.0636,561.6201,494.6966,555.8386,493.6368,557.0985,503.0636" style="stroke:#000000;stroke-width:1.0;"/><text fill="#000000" font-family="sans-serif" font-size="13" lengthAdjust="spacing" textLength="48" x="567" y="503.5283">includes</text><text fill="#000000" font-family="sans-serif" font-size="13" lengthAdjust="spacing" textLength="7" x="669.517" y="68.7826">1</text><text fill="#000000" font-family="sans-serif" font-size="13" lengthAdjust="spacing" textLength="20" x="482.0719" y="1034.293">0..*</text></g><!--link Team to User--><g id="link_Team_User"><path codeLine="141" d="M684.13,35.98 C625.4,37.86 469.9,47.05 350,92 C311.67,106.37 293.15,105.94 272,141 C231.42,208.27 224.4,296.2 227.66,367.84 " fill="none" id="Team-User" style="stroke:#181818;stroke-width:1.0;"/><polygon fill="#000000" points="272.9558,218.0857,282,215.144,278.5436,210.3897,272.9558,218.0857" style="stroke:#000000;stroke-width:1.0;"/><text fill="#000000" font-family="sans-serif" font-size="13" lengthAdjust="spacing" textLength="63" x="286" y="220.5283">associated</text><text fill="#000000" font-family="sans-serif" font-size="13" lengthAdjust="spacing" textLength="7" x="669.4322" y="31.0408">1</text><text fill="#000000" font-family="sans-serif" font-size="13" lengthAdjust="spacing" textLength="20" x="206.0794" y="356.8583">0..*</text></g><!--link Team to Skill--><g id="link_Team_Skill"><path codeLine="142" d="M728.51,62.34 C743.32,82.9 762.8,112.47 775,141 C822.68,252.52 848.13,395.2 858.03,460.91 " fill="none" id="Team-Skill" style="stroke:#181818;stroke-width:1.0;"/><polygon fill="#000000" points="828.5453,219.9007,828.5449,210.3902,822.9548,212.2067,828.5453,219.9007" style="stroke:#000000;stroke-width:1.0;"/><text fill="#000000" font-family="sans-serif" font-size="13" lengthAdjust="spacing" textLength="48" x="836" y="220.5283">includes</text><text fill="#000000" font-family="sans-serif" font-size="13" lengthAdjust="spacing" textLength="7" x="725.2309" y="84.323">1</text><text fill="#000000" font-family="sans-serif" font-size="13" lengthAdjust="spacing" textLength="20" x="835.3635" y="449.8557">0..*</text></g><!--link Team to MaintenanceAgenda--><g id="link_Team_MaintenanceAgenda"><path codeLine="143" d="M708.64,62.31 C710.45,138.49 715.66,356.86 717.93,451.9 " fill="none" id="Team-MaintenanceAgenda" style="stroke:#181818;stroke-width:1.0;"/><polygon fill="#000000" points="718.1192,220.1441,720.8417,211.0315,714.9655,211.1716,718.1192,220.1441" style="stroke:#000000;stroke-width:1.0;"/><text fill="#000000" font-family="sans-serif" font-size="13" lengthAdjust="spacing" textLength="39" x="727" y="220.5283">follows</text><text fill="#000000" font-family="sans-serif" font-size="13" lengthAdjust="spacing" textLength="7" x="701.0144" y="84.2865">1</text><text fill="#000000" font-family="sans-serif" font-size="13" lengthAdjust="spacing" textLength="20" x="696.3041" y="440.8947">0..*</text></g><!--link MaintenanceAgenda to Vehicle--><g id="link_MaintenanceAgenda_Vehicle"><path codeLine="144" d="M719.41,544.19 C719.8,586.04 720.38,650.16 720.9,706.72 " fill="none" id="MaintenanceAgenda-Vehicle" style="stroke:#181818;stroke-width:1.0;"/><polygon fill="#000000" points="725.0458,672.6453,727.9017,663.5737,722.0241,663.6275,725.0458,672.6453" style="stroke:#000000;stroke-width:1.0;"/><text fill="#000000" font-family="sans-serif" font-size="13" lengthAdjust="spacing" textLength="46" x="734" y="673.0283">requires</text><text fill="#000000" font-family="sans-serif" font-size="13" lengthAdjust="spacing" textLength="7" x="711.9368" y="566.5779">1</text><text fill="#000000" font-family="sans-serif" font-size="13" lengthAdjust="spacing" textLength="20" x="700.2236" y="695.8654">0..*</text></g><!--link Vehicle to CheckUp--><g id="link_Vehicle_CheckUp"><path codeLine="145" d="M783.8,948.05 C788.7,958.14 793.49,968.22 798,978 C808.35,1000.47 819.05,1026.47 826.61,1045.43 " fill="none" id="Vehicle-CheckUp" style="stroke:#181818;stroke-width:1.0;"/><polygon fill="#000000" points="812.0122,992.2227,811.0625,982.7597,805.6817,985.1252,812.0122,992.2227" style="stroke:#000000;stroke-width:1.0;"/><text fill="#000000" font-family="sans-serif" font-size="13" lengthAdjust="spacing" textLength="67" x="819" y="993.0283">assigned to</text><text fill="#000000" font-family="sans-serif" font-size="13" lengthAdjust="spacing" textLength="20" x="767.1184" y="970.3404">0..*</text><text fill="#000000" font-family="sans-serif" font-size="13" lengthAdjust="spacing" textLength="7" x="816.3979" y="1034.1228">1</text></g><!--link Vehicle to List--><g id="link_Vehicle_List"><path codeLine="146" d="M798.59,827.5 C836.9,827.5 882.08,827.5 915.37,827.5 " fill="none" id="Vehicle-List" style="stroke:#181818;stroke-width:1.0;"/><polygon fill="#000000" points="826,815.1455,816.9549,812.2066,816.9549,818.0844,826,815.1455" style="stroke:#000000;stroke-width:1.0;"/><text fill="#000000" font-family="sans-serif" font-size="13" lengthAdjust="spacing" textLength="67" x="830" y="820.5283">assigned to</text><text fill="#000000" font-family="sans-serif" font-size="13" lengthAdjust="spacing" textLength="20" x="806.5725" y="842.3044">0..*</text><text fill="#000000" font-family="sans-serif" font-size="13" lengthAdjust="spacing" textLength="7" x="900.5407" y="823.241">1</text></g><!--link Vehicle to Equipment--><g id="link_Vehicle_Equipment"><path codeLine="147" d="M652.64,948.14 C647.76,958.11 643.14,968.15 639,978 C628.17,1003.74 619.73,1035.08 615.05,1054.28 " fill="none" id="Vehicle-Equipment" style="stroke:#181818;stroke-width:1.0;"/><polygon fill="#000000" points="642.3308,992.3587,648.1207,984.8136,642.5801,982.8514,642.3308,992.3587" style="stroke:#000000;stroke-width:1.0;"/><text fill="#000000" font-family="sans-serif" font-size="13" lengthAdjust="spacing" textLength="58" x="653" y="993.0283">transports</text><text fill="#000000" font-family="sans-serif" font-size="13" lengthAdjust="spacing" textLength="7" x="640.9724" y="970.4362">1</text><text fill="#000000" font-family="sans-serif" font-size="13" lengthAdjust="spacing" textLength="20" x="593.2278" y="1043.0748">0..*</text></g><!--link Vehicle to Machines--><g id="link_Vehicle_Machines"><path codeLine="148" d="M720.52,948.17 C720.55,964.58 720.68,981.21 721,997 C721.39,1016.67 722.37,1039.23 723.1,1054.43 " fill="none" id="Vehicle-Machines" style="stroke:#181818;stroke-width:1.0;"/><polygon fill="#000000" points="726.1214,992.644,728.8399,983.5303,722.9638,983.673,726.1214,992.644" style="stroke:#000000;stroke-width:1.0;"/><text fill="#000000" font-family="sans-serif" font-size="13" lengthAdjust="spacing" textLength="58" x="735" y="993.0283">transports</text><text fill="#000000" font-family="sans-serif" font-size="13" lengthAdjust="spacing" textLength="7" x="713.201" y="970.4681">1</text><text fill="#000000" font-family="sans-serif" font-size="13" lengthAdjust="spacing" textLength="20" x="699.7619" y="1043.2707">0..*</text></g><!--link Task to ToDoList--><g id="link_Task_ToDoList"><path codeLine="149" d="M1171.3,289.1 C1198.41,348.61 1235.15,429.28 1253.9,470.44 " fill="none" id="Task-ToDoList" style="stroke:#181818;stroke-width:1.0;"/><polygon fill="#000000" points="1197.0726,333.1957,1195.9978,323.7461,1190.6487,326.1826,1197.0726,333.1957" style="stroke:#000000;stroke-width:1.0;"/><text fill="#000000" font-family="sans-serif" font-size="13" lengthAdjust="spacing" textLength="49" x="1204" y="334.0283">exists in</text><text fill="#000000" font-family="sans-serif" font-size="13" lengthAdjust="spacing" textLength="7" x="1167.2334" y="311.2565">1</text><text fill="#000000" font-family="sans-serif" font-size="13" lengthAdjust="spacing" textLength="20" x="1228.7894" y="459.1351">0..*</text></g><!--link ToDoList to ToDoListEntry--><g id="link_ToDoList_ToDoListEntry"><path codeLine="150" d="M1258.67,525.66 C1249.95,553.6 1233.19,597.58 1207,628 C1191.07,646.5 1172.63,636.54 1161,658 C1134.92,706.15 1176.22,765.92 1205.94,799.78 " fill="none" id="ToDoList-ToDoListEntry" style="stroke:#181818;stroke-width:1.0;"/><polygon fill="#000000" points="1165.0555,672.5555,1169.6501,664.2284,1163.8781,663.1181,1165.0555,672.5555" style="stroke:#000000;stroke-width:1.0;"/><text fill="#000000" font-family="sans-serif" font-size="13" lengthAdjust="spacing" textLength="49" x="1175" y="673.0283">contains</text><text fill="#000000" font-family="sans-serif" font-size="13" lengthAdjust="spacing" textLength="7" x="1249.3009" y="547.6037">1</text><text fill="#000000" font-family="sans-serif" font-size="13" lengthAdjust="spacing" textLength="20" x="1178.0519" y="788.8905">0..*</text></g><!--link ToDoListEntry to ToDoList--><g id="link_ToDoListEntry_ToDoList"><path codeLine="154" d="M1234.78,799.73 C1241.18,738.12 1256.88,586.89 1263.25,525.52 " fill="none" id="ToDoListEntry-ToDoList" style="stroke:#181818;stroke-width:1.0;"/><polygon fill="#000000" points="1254.5164,662.6722,1250.659,671.3655,1256.5055,671.9725,1254.5164,662.6722" style="stroke:#000000;stroke-width:1.0;"/><text fill="#000000" font-family="sans-serif" font-size="13" lengthAdjust="spacing" textLength="60" x="1263" y="673.0283">belongs to</text><text fill="#000000" font-family="sans-serif" font-size="13" lengthAdjust="spacing" textLength="20" x="1213.2006" y="788.8296">0..*</text><text fill="#000000" font-family="sans-serif" font-size="13" lengthAdjust="spacing" textLength="7" x="1263.4234" y="547.8836">1</text></g><!--link ToDoListEntry to Task--><g id="link_ToDoListEntry_Task"><path codeLine="151" d="M1257.06,799.89 C1281.61,771.83 1317.39,725.11 1332,677 C1371.96,545.39 1373.78,492.35 1315,368 C1290.85,316.92 1240.46,276.37 1199.6,250.05 " fill="none" id="ToDoListEntry-Task" style="stroke:#181818;stroke-width:1.0;"/><polygon fill="#000000" points="1364.4803,493.1726,1362.4974,502.4741,1368.3434,501.8632,1364.4803,493.1726" style="stroke:#000000;stroke-width:1.0;"/><text fill="#000000" font-family="sans-serif" font-size="13" lengthAdjust="spacing" textLength="49" x="1374" y="503.5283">contains</text><text fill="#000000" font-family="sans-serif" font-size="13" lengthAdjust="spacing" textLength="7" x="1255.0458" y="788.5735">1</text><text fill="#000000" font-family="sans-serif" font-size="13" lengthAdjust="spacing" textLength="7" x="1207.5341" y="250.3107">1</text></g><!--link ToDoListEntry to AgendaEntry--><g id="link_ToDoListEntry_AgendaEntry"><path codeLine="152" d="M1213.7,855.02 C1183.51,898.78 1123.22,986.17 1089.08,1035.65 " fill="none" id="ToDoListEntry-AgendaEntry" style="stroke:#181818;stroke-width:1.0;"/><polygon fill="#000000" points="1130.1606,991.7611,1137.7162,985.9849,1132.8781,982.647,1130.1606,991.7611" style="stroke:#000000;stroke-width:1.0;"/><text fill="#000000" font-family="sans-serif" font-size="13" lengthAdjust="spacing" textLength="49" x="1142" y="993.0283">exists in</text><text fill="#000000" font-family="sans-serif" font-size="13" lengthAdjust="spacing" textLength="7" x="1201.6588" y="877.3836">1</text><text fill="#000000" font-family="sans-serif" font-size="13" lengthAdjust="spacing" textLength="7" x="1085.7891" y="1024.8346">1</text></g><!--link AgendaEntry to Agenda--><g id="link_AgendaEntry_Agenda"><path codeLine="153" d="M1012.74,1092.26 C907.75,1129.67 671.34,1213.9 590.62,1242.66 " fill="none" id="AgendaEntry-Agenda" style="stroke:#181818;stroke-width:1.0;"/><polygon fill="#000000" points="843.29,1160.3237,852.7968,1160.0563,850.8241,1154.5194,843.29,1160.3237" style="stroke:#000000;stroke-width:1.0;"/><text fill="#000000" font-family="sans-serif" font-size="13" lengthAdjust="spacing" textLength="60" x="857" y="1164.0283">belongs to</text><text fill="#000000" font-family="sans-serif" font-size="13" lengthAdjust="spacing" textLength="20" x="984.8911" y="1090.6943">0..*</text><text fill="#000000" font-family="sans-serif" font-size="13" lengthAdjust="spacing" textLength="7" x="598.5945" y="1234.7872">1</text></g><!--link Team to Agenda--><g id="link_Team_Agenda"><path codeLine="155" d="M684.39,37.01 C608.54,43.24 376,73.79 376,214 C376,214 376,214 376,1074 C376,1161.07 483.39,1218.68 535.41,1241.48 " fill="none" id="Team-Agenda" style="stroke:#181818;stroke-width:1.0;"/><polygon fill="#000000" points="380.3862,672.6077,384.4132,663.9918,378.5799,663.2703,380.3862,672.6077" style="stroke:#000000;stroke-width:1.0;"/><text fill="#000000" font-family="sans-serif" font-size="13" lengthAdjust="spacing" textLength="39" x="390" y="673.0283">follows</text><text fill="#000000" font-family="sans-serif" font-size="13" lengthAdjust="spacing" textLength="20" x="656.6177" y="53.59">1..*</text><text fill="#000000" font-family="sans-serif" font-size="13" lengthAdjust="spacing" textLength="7" x="520.4432" y="1233.3049">1</text></g><!--link Team to AgendaEntry--><g id="link_Team_AgendaEntry"><path codeLine="156" d="M731.53,42.7 C770.67,55.87 849.19,87.51 893,141 C1032.04,310.74 901.79,420.8 974,628 C988,668.16 1013.46,667.03 1028,707 C1069.69,821.59 1069.15,968.99 1066.24,1035.99 " fill="none" id="Team-AgendaEntry" style="stroke:#181818;stroke-width:1.0;"/><polygon fill="#000000" points="980.5966,502.8837,980.4933,493.3737,974.9232,495.2507,980.5966,502.8837" style="stroke:#000000;stroke-width:1.0;"/><text fill="#000000" font-family="sans-serif" font-size="13" lengthAdjust="spacing" textLength="79" x="988" y="503.5283">assigned with</text><text fill="#000000" font-family="sans-serif" font-size="13" lengthAdjust="spacing" textLength="7" x="739.4701" y="61.6411">1</text><text fill="#000000" font-family="sans-serif" font-size="13" lengthAdjust="spacing" textLength="7" x="1059.0077" y="1024.6668">1</text></g><!--SRC=[ZLPBKzim4BxdLsXoWNOc5Au-C9CIolG1PGYqPqNUs6faoKWoa7RwtxjwM7x4JCabjlJjjwzlDp4xBckgQKKg9HKhjQg0MDt0pAIRch8TBM1jzmA81cQfB4GVO4gQgsSk2xAbmi3igBiIN8BTrq2KjgMQ7GdOMc8LqRmeBScve-DAziYOeCOihTLyqrZup9HSyzz0JcSbpu4mhXdwziyL86LkPZDlGdv0oV6E_9aH_EHWcEQr9tVlD18Q__PHKvdxfskLW_1FznXcUA0wF5nfPSnFSA7wzuj6Qv2MVAtywnqKt5ZGP4LjC5YonuORxfnsXzUKImkIIWOVBafWkwRsvvyqF3OWsPuSSucSvjtiRvlBDoIEYTG2YOXigWreVr2bY3Sf2nOZsrMc8-avNXOWSnePjwtZoK8zXJ9sDFU0NGcMabOXfmfSE8OSCoK4tIXDhTBz1DOxBiJOQkmgeR-eJH-RpXyCLjTVj1mRZZfgIqlpYXk3RDr1hi7u5jUbad2JgWOLvRvebhxSqZtexehdAyLSyxkZNshZlenBmWGhimjOhv91WEuaHd-3KNxVjeSTx4e3o3NE4OmgOblD7SXL0msLfX9dBtI-JI_ntk9KKJ7YRBJe5uBW1A4AR6Tr1pNQ_Ha5qCgLDZXLUjfo6MY3gR6OLHYCMXcCumA56UoutVVqWxMBzT6m1TGfcyuPEMnZOWv54YYyrBWa85yrgB8MMwIATexyS3tKqTUYJzzbq1-4d5CTVKXS3z2hxBrQAJU4btYnRncz2WuWxUq1H_0rPEZJnYCSBsUJf3G_cvF5Ok6_tM66gaDklaLoSkvn0qmGGKOQCtqVcvRXBdv21EwQ2H1EO4PAwWXyly8TcP-UdBoVXsdEYDiRkB5V0RNxTu3hb1_GeuWKGzdbk9mH6l8OHDLPPpW8kFAtIe-HhVkWwfI4Mrf3W0yvGpa1Sxy3qo2tYR3Waeac7sCIA7G5MwmOz_5FKeKL-5-oWosTOPP2g6TdSBZ2tr3pU1WXiPHnE7pOl90ODFuA9spB5x1EeQy21_ulqMbTkL-U3FyrK6bS3yohy6lAIln3OCRe2JMbwN8Tm-yet7GyZGx3bldDXQKpFOjmrPgT9Jsy1TgVv64y_PjXmME_Ch81eMHXGXb7BWOMlPI7Da4rlGOT2cMWluE8KokVkIt9-Jy0]--></g></svg>