<?xml version="1.0" encoding="us-ascii" standalone="no"?><svg xmlns="http://www.w3.org/2000/svg" xmlns:xlink="http://www.w3.org/1999/xlink" contentStyleType="text/css" height="1544px" preserveAspectRatio="none" style="width:1387px;height:1544px;background:#FFFFFF;" version="1.1" viewBox="0 0 1387 1544" width="1387px" zoomAndPan="magnify"><defs/><g><!--class Vehicle--><g id="elem_Vehicle"><rect codeLine="10" fill="#F1F1F1" height="241.4531" id="Vehicle" rx="2.5" ry="2.5" style="stroke:#181818;stroke-width:0.5;" width="153" x="371.7327" y="726"/><text fill="#000000" font-family="sans-serif" font-size="14" lengthAdjust="spacing" textLength="46" x="425.2327" y="746.1074">Vehicle</text><line style="stroke:#181818;stroke-width:0.5;" x1="372.7327" x2="523.7327" y1="754.6211" y2="754.6211"/><text fill="#000000" font-family="sans-serif" font-size="14" lengthAdjust="spacing" textLength="69" x="377.7327" y="773.7285">description</text><text fill="#000000" font-family="sans-serif" font-size="14" lengthAdjust="spacing" textLength="55" x="377.7327" y="792.3496">atributes</text><text fill="#000000" font-family="sans-serif" font-size="14" lengthAdjust="spacing" textLength="38" x="377.7327" y="810.9707">Brand</text><text fill="#000000" font-family="sans-serif" font-size="14" lengthAdjust="spacing" textLength="38" x="377.7327" y="829.5918">Model</text><text fill="#000000" font-family="sans-serif" font-size="14" lengthAdjust="spacing" textLength="32" x="377.7327" y="848.2129">Type</text><text fill="#000000" font-family="sans-serif" font-size="14" lengthAdjust="spacing" textLength="30" x="377.7327" y="866.834">Tare</text><text fill="#000000" font-family="sans-serif" font-size="14" lengthAdjust="spacing" textLength="82" x="377.7327" y="885.4551">GrossWeight</text><text fill="#000000" font-family="sans-serif" font-size="14" lengthAdjust="spacing" textLength="72" x="377.7327" y="904.0762">Current Km</text><text fill="#000000" font-family="sans-serif" font-size="14" lengthAdjust="spacing" textLength="87" x="377.7327" y="922.6973">Register Date</text><text fill="#000000" font-family="sans-serif" font-size="14" lengthAdjust="spacing" textLength="102" x="377.7327" y="941.3184">Acquisition Date</text><text fill="#000000" font-family="sans-serif" font-size="14" lengthAdjust="spacing" textLength="141" x="377.7327" y="959.9395">Maintenance/Checkup</text></g><!--class List--><g id="elem_List"><rect codeLine="25" fill="#F1F1F1" height="111.1055" id="List" rx="2.5" ry="2.5" style="stroke:#181818;stroke-width:0.5;" width="95" x="641.7327" y="791"/><text fill="#000000" font-family="sans-serif" font-size="14" lengthAdjust="spacing" textLength="22" x="678.2327" y="811.1074">List</text><line style="stroke:#181818;stroke-width:0.5;" x1="642.7327" x2="735.7327" y1="819.6211" y2="819.6211"/><text fill="#000000" font-family="sans-serif" font-size="14" lengthAdjust="spacing" textLength="83" x="647.7327" y="838.7285">plate number</text><text fill="#000000" font-family="sans-serif" font-size="14" lengthAdjust="spacing" textLength="38" x="647.7327" y="857.3496">model</text><text fill="#000000" font-family="sans-serif" font-size="14" lengthAdjust="spacing" textLength="37" x="647.7327" y="875.9707">brand</text><text fill="#000000" font-family="sans-serif" font-size="14" lengthAdjust="spacing" textLength="74" x="647.7327" y="894.5918">current kms</text></g><!--class MaintenanceAgenda--><g id="elem_MaintenanceAgenda"><rect codeLine="32" fill="#F1F1F1" height="92.4844" id="MaintenanceAgenda" rx="2.5" ry="2.5" style="stroke:#181818;stroke-width:0.5;" width="136" x="623.2327" y="471"/><text fill="#000000" font-family="sans-serif" font-size="14" lengthAdjust="spacing" textLength="130" x="626.2327" y="491.1074">MaintenanceAgenda</text><line style="stroke:#181818;stroke-width:0.5;" x1="624.2327" x2="758.2327" y1="499.6211" y2="499.6211"/><text fill="#000000" font-family="sans-serif" font-size="14" lengthAdjust="spacing" textLength="63" x="629.2327" y="518.7285">frequency</text><text fill="#000000" font-family="sans-serif" font-size="14" lengthAdjust="spacing" textLength="69" x="629.2327" y="537.3496">description</text><text fill="#000000" font-family="sans-serif" font-size="14" lengthAdjust="spacing" textLength="44" x="629.2327" y="555.9707">vehicle</text></g><!--class Team--><g id="elem_Team"><rect codeLine="38" fill="#F1F1F1" height="55.2422" id="Team" rx="2.5" ry="2.5" style="stroke:#181818;stroke-width:0.5;" width="47" x="667.7327" y="16.5"/><text fill="#000000" font-family="sans-serif" font-size="14" lengthAdjust="spacing" textLength="36" x="673.2327" y="36.6074">Team</text><line style="stroke:#181818;stroke-width:0.5;" x1="668.7327" x2="713.7327" y1="45.1211" y2="45.1211"/><text fill="#000000" font-family="sans-serif" font-size="14" lengthAdjust="spacing" textLength="35" x="673.7327" y="64.2285">name</text></g><!--class Skill--><g id="elem_Skill"><rect codeLine="43" fill="#F1F1F1" height="73.8633" id="Skill" rx="2.5" ry="2.5" style="stroke:#181818;stroke-width:0.5;" width="81" x="506.7327" y="480"/><text fill="#000000" font-family="sans-serif" font-size="14" lengthAdjust="spacing" textLength="25" x="534.7327" y="500.1074">Skill</text><line style="stroke:#181818;stroke-width:0.5;" x1="507.7327" x2="586.7327" y1="508.6211" y2="508.6211"/><text fill="#000000" font-family="sans-serif" font-size="14" lengthAdjust="spacing" textLength="35" x="512.7327" y="527.7285">name</text><text fill="#000000" font-family="sans-serif" font-size="14" lengthAdjust="spacing" textLength="69" x="512.7327" y="546.3496">description</text></g><!--class Job--><g id="elem_Job"><rect codeLine="48" fill="#F1F1F1" height="55.2422" id="Job" rx="2.5" ry="2.5" style="stroke:#181818;stroke-width:0.5;" width="47" x="1003.7327" y="1064.5"/><text fill="#000000" font-family="sans-serif" font-size="14" lengthAdjust="spacing" textLength="22" x="1016.2327" y="1084.6074">Job</text><line style="stroke:#181818;stroke-width:0.5;" x1="1004.7327" x2="1049.7327" y1="1093.1211" y2="1093.1211"/><text fill="#000000" font-family="sans-serif" font-size="14" lengthAdjust="spacing" textLength="35" x="1009.7327" y="1112.2285">name</text></g><!--class User--><g id="elem_User"><rect codeLine="52" fill="#F1F1F1" height="260.0742" id="User" rx="2.5" ry="2.5" style="stroke:#181818;stroke-width:0.5;" width="129" x="1074.7327" y="387"/><text fill="#000000" font-family="sans-serif" font-size="14" lengthAdjust="spacing" textLength="29" x="1124.7327" y="407.1074">User</text><line style="stroke:#181818;stroke-width:0.5;" x1="1075.7327" x2="1202.7327" y1="415.6211" y2="415.6211"/><text fill="#000000" font-family="sans-serif" font-size="14" lengthAdjust="spacing" textLength="35" x="1080.7327" y="434.7285">name</text><text fill="#000000" font-family="sans-serif" font-size="14" lengthAdjust="spacing" textLength="58" x="1080.7327" y="453.3496">birthDate</text><text fill="#000000" font-family="sans-serif" font-size="14" lengthAdjust="spacing" textLength="93" x="1080.7327" y="471.9707">admissionDate</text><text fill="#000000" font-family="sans-serif" font-size="14" lengthAdjust="spacing" textLength="51" x="1080.7327" y="490.5918">address</text><text fill="#000000" font-family="sans-serif" font-size="14" lengthAdjust="spacing" textLength="89" x="1080.7327" y="509.2129">phoneNumber</text><text fill="#000000" font-family="sans-serif" font-size="14" lengthAdjust="spacing" textLength="33" x="1080.7327" y="527.834">email</text><text fill="#000000" font-family="sans-serif" font-size="14" lengthAdjust="spacing" textLength="104" x="1080.7327" y="546.4551">taxPayerNumber</text><text fill="#000000" font-family="sans-serif" font-size="14" lengthAdjust="spacing" textLength="117" x="1080.7327" y="565.0762">idDocTypeNumber</text><text fill="#000000" font-family="sans-serif" font-size="14" lengthAdjust="spacing" textLength="19" x="1080.7327" y="583.6973">job</text><text fill="#000000" font-family="sans-serif" font-size="14" lengthAdjust="spacing" textLength="30" x="1080.7327" y="602.3184">skills</text><text fill="#000000" font-family="sans-serif" font-size="14" lengthAdjust="spacing" textLength="26" x="1080.7327" y="620.9395">task</text><text fill="#000000" font-family="sans-serif" font-size="14" lengthAdjust="spacing" textLength="43" x="1080.7327" y="639.5605">idType</text></g><!--class UserType--><g id="elem_UserType"><rect codeLine="67" fill="#F1F1F1" height="55.2422" id="UserType" rx="2.5" ry="2.5" style="stroke:#181818;stroke-width:0.5;" width="124" x="1119.2327" y="16.5"/><text fill="#000000" font-family="sans-serif" font-size="14" lengthAdjust="spacing" textLength="61" x="1150.7327" y="36.6074">UserType</text><line style="stroke:#181818;stroke-width:0.5;" x1="1120.2327" x2="1242.2327" y1="45.1211" y2="45.1211"/><text fill="#000000" font-family="sans-serif" font-size="14" lengthAdjust="spacing" textLength="112" x="1125.2327" y="64.2285">NameOfUserType</text></g><!--class GreenSpace--><g id="elem_GreenSpace"><rect codeLine="71" fill="#F1F1F1" height="148.3477" id="GreenSpace" rx="2.5" ry="2.5" style="stroke:#181818;stroke-width:0.5;" width="86" x="1053.2327" y="1389"/><text fill="#000000" font-family="sans-serif" font-size="14" lengthAdjust="spacing" textLength="80" x="1056.2327" y="1409.1074">GreenSpace</text><line style="stroke:#181818;stroke-width:0.5;" x1="1054.2327" x2="1138.2327" y1="1417.6211" y2="1417.6211"/><text fill="#000000" font-family="sans-serif" font-size="14" lengthAdjust="spacing" textLength="35" x="1059.2327" y="1436.7285">name</text><text fill="#000000" font-family="sans-serif" font-size="14" lengthAdjust="spacing" textLength="27" x="1059.2327" y="1455.3496">type</text><text fill="#000000" font-family="sans-serif" font-size="14" lengthAdjust="spacing" textLength="69" x="1059.2327" y="1473.9707">description</text><text fill="#000000" font-family="sans-serif" font-size="14" lengthAdjust="spacing" textLength="29" x="1059.2327" y="1492.5918">area</text><text fill="#000000" font-family="sans-serif" font-size="14" lengthAdjust="spacing" textLength="56" x="1059.2327" y="1511.2129">manager</text><text fill="#000000" font-family="sans-serif" font-size="14" lengthAdjust="spacing" textLength="51" x="1059.2327" y="1529.834">address</text></g><!--class Portal--><g id="elem_Portal"><rect codeLine="80" fill="#F1F1F1" height="92.4844" id="Portal" rx="2.5" ry="2.5" style="stroke:#181818;stroke-width:0.5;" width="83" x="1091.7327" y="1046"/><text fill="#000000" font-family="sans-serif" font-size="14" lengthAdjust="spacing" textLength="37" x="1114.7327" y="1066.1074">Portal</text><line style="stroke:#181818;stroke-width:0.5;" x1="1092.7327" x2="1173.7327" y1="1074.6211" y2="1074.6211"/><text fill="#000000" font-family="sans-serif" font-size="14" lengthAdjust="spacing" textLength="35" x="1097.7327" y="1093.7285">name</text><text fill="#000000" font-family="sans-serif" font-size="14" lengthAdjust="spacing" textLength="71" x="1097.7327" y="1112.3496">url address</text><text fill="#000000" font-family="sans-serif" font-size="14" lengthAdjust="spacing" textLength="47" x="1097.7327" y="1130.9707">content</text></g><!--class Report--><g id="elem_Report"><rect codeLine="86" fill="#F1F1F1" height="111.1055" id="Report" rx="2.5" ry="2.5" style="stroke:#181818;stroke-width:0.5;" width="59" x="1003.7327" y="1217"/><text fill="#000000" font-family="sans-serif" font-size="14" lengthAdjust="spacing" textLength="43" x="1011.7327" y="1237.1074">Report</text><line style="stroke:#181818;stroke-width:0.5;" x1="1004.7327" x2="1061.7327" y1="1245.6211" y2="1245.6211"/><text fill="#000000" font-family="sans-serif" font-size="14" lengthAdjust="spacing" textLength="27" x="1009.7327" y="1264.7285">type</text><text fill="#000000" font-family="sans-serif" font-size="14" lengthAdjust="spacing" textLength="28" x="1009.7327" y="1283.3496">date</text><text fill="#000000" font-family="sans-serif" font-size="14" lengthAdjust="spacing" textLength="41" x="1009.7327" y="1301.9707">author</text><text fill="#000000" font-family="sans-serif" font-size="14" lengthAdjust="spacing" textLength="47" x="1009.7327" y="1320.5918">content</text></g><!--class Address--><g id="elem_Address"><rect codeLine="93" fill="#F1F1F1" height="92.4844" id="Address" rx="2.5" ry="2.5" style="stroke:#181818;stroke-width:0.5;" width="84" x="1246.2327" y="1417"/><text fill="#000000" font-family="sans-serif" font-size="14" lengthAdjust="spacing" textLength="52" x="1262.2327" y="1437.1074">Address</text><line style="stroke:#181818;stroke-width:0.5;" x1="1247.2327" x2="1329.2327" y1="1445.6211" y2="1445.6211"/><text fill="#000000" font-family="sans-serif" font-size="14" lengthAdjust="spacing" textLength="36" x="1252.2327" y="1464.7285">street</text><text fill="#000000" font-family="sans-serif" font-size="14" lengthAdjust="spacing" textLength="72" x="1252.2327" y="1483.3496">postalCode</text><text fill="#000000" font-family="sans-serif" font-size="14" lengthAdjust="spacing" textLength="21" x="1252.2327" y="1501.9707">city</text></g><!--class Task--><g id="elem_Task"><rect codeLine="99" fill="#F1F1F1" height="148.3477" id="Task" rx="2.5" ry="2.5" style="stroke:#181818;stroke-width:0.5;" width="123" x="348.7327" y="160"/><text fill="#000000" font-family="sans-serif" font-size="14" lengthAdjust="spacing" textLength="31" x="394.7327" y="180.1074">Task</text><line style="stroke:#181818;stroke-width:0.5;" x1="349.7327" x2="470.7327" y1="188.6211" y2="188.6211"/><text fill="#000000" font-family="sans-serif" font-size="14" lengthAdjust="spacing" textLength="61" x="354.7327" y="207.7285">reference</text><text fill="#000000" font-family="sans-serif" font-size="14" lengthAdjust="spacing" textLength="69" x="354.7327" y="226.3496">description</text><text fill="#000000" font-family="sans-serif" font-size="14" lengthAdjust="spacing" textLength="38" x="354.7327" y="244.9707">status</text><text fill="#000000" font-family="sans-serif" font-size="14" lengthAdjust="spacing" textLength="51" x="354.7327" y="263.5918">urgency</text><text fill="#000000" font-family="sans-serif" font-size="14" lengthAdjust="spacing" textLength="111" x="354.7327" y="282.2129">expectedDuration</text><text fill="#000000" font-family="sans-serif" font-size="14" lengthAdjust="spacing" textLength="77" x="354.7327" y="300.834">greenSpace</text></g><!--class CheckUp--><g id="elem_CheckUp"><rect codeLine="108" fill="#F1F1F1" height="55.2422" id="CheckUp" rx="2.5" ry="2.5" style="stroke:#181818;stroke-width:0.5;" width="86" x="518.2327" y="1064.5"/><text fill="#000000" font-family="sans-serif" font-size="14" lengthAdjust="spacing" textLength="57" x="532.7327" y="1084.6074">CheckUp</text><line style="stroke:#181818;stroke-width:0.5;" x1="519.2327" x2="603.2327" y1="1093.1211" y2="1093.1211"/><text fill="#000000" font-family="sans-serif" font-size="14" lengthAdjust="spacing" textLength="74" x="524.2327" y="1112.2285">-description</text></g><!--class Agenda--><g id="elem_Agenda"><rect codeLine="112" fill="#F1F1F1" height="73.8633" id="Agenda" rx="2.5" ry="2.5" style="stroke:#181818;stroke-width:0.5;" width="55" x="872.7327" y="1235.5"/><text fill="#000000" font-family="sans-serif" font-size="14" lengthAdjust="spacing" textLength="49" x="875.7327" y="1255.6074">Agenda</text><line style="stroke:#181818;stroke-width:0.5;" x1="873.7327" x2="926.7327" y1="1264.1211" y2="1264.1211"/><text fill="#000000" font-family="sans-serif" font-size="14" lengthAdjust="spacing" textLength="31" x="878.7327" y="1283.2285">diary</text><text fill="#000000" font-family="sans-serif" font-size="14" lengthAdjust="spacing" textLength="43" x="878.7327" y="1301.8496">entries</text></g><!--class ToDoListEntry--><g id="elem_ToDoListEntry"><rect codeLine="117" fill="#F1F1F1" height="55.2422" id="ToDoListEntry" rx="2.5" ry="2.5" style="stroke:#181818;stroke-width:0.5;" width="96" x="130.2327" y="819"/><text fill="#000000" font-family="sans-serif" font-size="14" lengthAdjust="spacing" textLength="90" x="133.2327" y="839.1074">ToDoListEntry</text><line style="stroke:#181818;stroke-width:0.5;" x1="131.2327" x2="225.2327" y1="847.6211" y2="847.6211"/><text fill="#000000" font-family="sans-serif" font-size="14" lengthAdjust="spacing" textLength="31" x="136.2327" y="866.7285">-task</text></g><!--class ToDoList--><g id="elem_ToDoList"><rect codeLine="121" fill="#F1F1F1" height="55.2422" id="ToDoList" rx="2.5" ry="2.5" style="stroke:#181818;stroke-width:0.5;" width="63" x="142.7327" y="489.5"/><text fill="#000000" font-family="sans-serif" font-size="14" lengthAdjust="spacing" textLength="57" x="145.7327" y="509.6074">ToDoList</text><line style="stroke:#181818;stroke-width:0.5;" x1="143.7327" x2="204.7327" y1="518.1211" y2="518.1211"/><text fill="#000000" font-family="sans-serif" font-size="14" lengthAdjust="spacing" textLength="48" x="148.7327" y="537.2285">-entries</text></g><!--class Entry--><g id="elem_Entry"><rect codeLine="125" fill="#F1F1F1" height="73.8633" id="Entry" rx="2.5" ry="2.5" style="stroke:#181818;stroke-width:0.5;" width="102" x="1278.2327" y="7"/><text fill="#000000" font-family="sans-serif" font-size="14" lengthAdjust="spacing" textLength="33" x="1312.7327" y="27.1074">Entry</text><line style="stroke:#181818;stroke-width:0.5;" x1="1279.2327" x2="1379.2327" y1="35.6211" y2="35.6211"/><text fill="#000000" font-family="sans-serif" font-size="14" lengthAdjust="spacing" textLength="90" x="1284.2327" y="54.7285">-toDoListEntry</text><text fill="#000000" font-family="sans-serif" font-size="14" lengthAdjust="spacing" textLength="36" x="1284.2327" y="73.3496">-team</text></g><!--class Equipment--><g id="elem_Equipment"><rect fill="#F1F1F1" height="36.6211" id="Equipment" rx="2.5" ry="2.5" style="stroke:#181818;stroke-width:0.5;" width="73" x="298.7327" y="1073.5"/><text fill="#000000" font-family="sans-serif" font-size="14" lengthAdjust="spacing" textLength="67" x="301.7327" y="1093.6074">Equipment</text><line style="stroke:#181818;stroke-width:0.5;" x1="299.7327" x2="370.7327" y1="1102.1211" y2="1102.1211"/></g><!--class Machines--><g id="elem_Machines"><rect fill="#F1F1F1" height="36.6211" id="Machines" rx="2.5" ry="2.5" style="stroke:#181818;stroke-width:0.5;" width="66" x="415.2327" y="1073.5"/><text fill="#000000" font-family="sans-serif" font-size="14" lengthAdjust="spacing" textLength="60" x="418.2327" y="1093.6074">Machines</text><line style="stroke:#181818;stroke-width:0.5;" x1="416.2327" x2="480.2327" y1="1102.1211" y2="1102.1211"/></g><!--class AgendaEntry--><g id="elem_AgendaEntry"><rect fill="#F1F1F1" height="36.6211" id="AgendaEntry" rx="2.5" ry="2.5" style="stroke:#181818;stroke-width:0.5;" width="88" x="134.2327" y="1073.5"/><text fill="#000000" font-family="sans-serif" font-size="14" lengthAdjust="spacing" textLength="82" x="137.2327" y="1093.6074">AgendaEntry</text><line style="stroke:#181818;stroke-width:0.5;" x1="135.2327" x2="221.2327" y1="1102.1211" y2="1102.1211"/></g><!--link Team to Task--><g id="link_Team_Task"><path codeLine="130" d="M667.6727,45.4 C622.3427,47.39 522.2027,57.95 462.2327,111 C447.5727,123.97 436.9127,141.77 429.2227,159.77 " fill="none" id="Team-Task" style="stroke:#181818;stroke-width:1.0;"/><polygon fill="#000000" points="462.7245,122.8078,472.151,121.546,469.609,116.2463,462.7245,122.8078" style="stroke:#000000;stroke-width:1.0;"/><text fill="#000000" font-family="sans-serif" font-size="13" lengthAdjust="spacing" textLength="53" x="476.2327" y="126.0283">executes</text><text fill="#000000" font-family="sans-serif" font-size="13" lengthAdjust="spacing" textLength="7" x="652.7239" y="40.3499">1</text><text fill="#000000" font-family="sans-serif" font-size="13" lengthAdjust="spacing" textLength="20" x="410.1077" y="148.6518">0..*</text></g><!--link Team to Job--><g id="link_Team_Job"><path codeLine="131" d="M714.9527,61.4 C754.4127,90.82 829.2327,156.68 829.2327,233 C829.2327,233 829.2327,233 829.2327,847.5 C829.2327,956.75 950.6827,1044.23 1003.3527,1077.03 " fill="none" id="Team-Job" style="stroke:#181818;stroke-width:1.0;"/><polygon fill="#000000" points="835.5985,521.9553,835.9549,512.4515,830.3006,514.0571,835.5985,521.9553" style="stroke:#000000;stroke-width:1.0;"/><text fill="#000000" font-family="sans-serif" font-size="13" lengthAdjust="spacing" textLength="48" x="843.2327" y="522.5283">includes</text><text fill="#000000" font-family="sans-serif" font-size="13" lengthAdjust="spacing" textLength="7" x="722.6084" y="82.7196">1</text><text fill="#000000" font-family="sans-serif" font-size="13" lengthAdjust="spacing" textLength="20" x="975.9415" y="1068.9296">0..*</text></g><!--link Team to User--><g id="link_Team_User"><path codeLine="132" d="M715.0527,47.81 C775.3827,55.36 932.1327,77.76 971.2327,111 C993.7927,130.18 1051.0127,275.71 1092.4127,386.88 " fill="none" id="Team-User" style="stroke:#181818;stroke-width:1.0;"/><polygon fill="#000000" points="1070.9519,237.4873,1066.1881,229.2558,1062.2596,233.628,1070.9519,237.4873" style="stroke:#000000;stroke-width:1.0;"/><text fill="#000000" font-family="sans-serif" font-size="13" lengthAdjust="spacing" textLength="63" x="1076.2327" y="239.5283">associated</text><text fill="#000000" font-family="sans-serif" font-size="13" lengthAdjust="spacing" textLength="7" x="722.7365" y="65.3074">1</text><text fill="#000000" font-family="sans-serif" font-size="13" lengthAdjust="spacing" textLength="20" x="1069.1278" y="375.9006">0..*</text></g><!--link Team to Skill--><g id="link_Team_Skill"><path codeLine="133" d="M670.8227,71.9 C654.7727,94.33 633.0427,127.72 620.2327,160 C575.9127,271.72 557.1327,414.3 550.4227,479.95 " fill="none" id="Team-Skill" style="stroke:#181818;stroke-width:1.0;"/><polygon fill="#000000" points="623.8177,238.9411,629.1963,231.0975,623.5587,229.4341,623.8177,238.9411" style="stroke:#000000;stroke-width:1.0;"/><text fill="#000000" font-family="sans-serif" font-size="13" lengthAdjust="spacing" textLength="48" x="634.2327" y="239.5283">includes</text><text fill="#000000" font-family="sans-serif" font-size="13" lengthAdjust="spacing" textLength="7" x="658.5924" y="93.8962">1</text><text fill="#000000" font-family="sans-serif" font-size="13" lengthAdjust="spacing" textLength="20" x="529.1671" y="468.6195">0..*</text></g><!--link Team to MaintenanceAgenda--><g id="link_Team_MaintenanceAgenda"><path codeLine="134" d="M691.2327,71.67 C691.2327,149.03 691.2327,374.09 691.2327,470.88 " fill="none" id="Team-MaintenanceAgenda" style="stroke:#181818;stroke-width:1.0;"/><polygon fill="#000000" points="696.2327,239.1455,699.1717,230.1004,693.2938,230.1004,696.2327,239.1455" style="stroke:#000000;stroke-width:1.0;"/><text fill="#000000" font-family="sans-serif" font-size="13" lengthAdjust="spacing" textLength="39" x="705.2327" y="239.5283">follows</text><text fill="#000000" font-family="sans-serif" font-size="13" lengthAdjust="spacing" textLength="7" x="683.4671" y="93.6158">1</text><text fill="#000000" font-family="sans-serif" font-size="13" lengthAdjust="spacing" textLength="20" x="669.764" y="459.8718">0..*</text></g><!--link Portal to GreenSpace--><g id="link_Portal_GreenSpace"><path codeLine="135" d="M1128.6927,1138.25 C1122.4327,1200.7 1111.0727,1314.03 1103.5827,1388.67 " fill="none" id="Portal-GreenSpace" style="stroke:#181818;stroke-width:1.0;"/><polygon fill="#000000" points="1125.7339,1277.6206,1129.5606,1268.9138,1123.7121,1268.3274,1125.7339,1277.6206" style="stroke:#000000;stroke-width:1.0;"/><text fill="#000000" font-family="sans-serif" font-size="13" lengthAdjust="spacing" textLength="50" x="1135.2327" y="1278.0283">made for</text><text fill="#000000" font-family="sans-serif" font-size="13" lengthAdjust="spacing" textLength="7" x="1120.4616" y="1160.6471">1</text><text fill="#000000" font-family="sans-serif" font-size="13" lengthAdjust="spacing" textLength="7" x="1096.9497" y="1377.8009">1</text></g><!--link Portal to Report--><g id="link_Portal_Report"><path codeLine="136" d="M1091.9327,1138 C1084.4227,1147.49 1077.1227,1157.75 1071.2327,1168 C1062.5527,1183.1 1055.2527,1200.55 1049.4327,1216.76 " fill="none" id="Portal-Report" style="stroke:#181818;stroke-width:1.0;"/><polygon fill="#000000" points="1073.8583,1182.0457,1080.7401,1175.4813,1075.5673,1172.69,1073.8583,1182.0457" style="stroke:#000000;stroke-width:1.0;"/><text fill="#000000" font-family="sans-serif" font-size="13" lengthAdjust="spacing" textLength="21" x="1085.2327" y="1183.0283">has</text><text fill="#000000" font-family="sans-serif" font-size="13" lengthAdjust="spacing" textLength="7" x="1076.6727" y="1141.9246">1</text><text fill="#000000" font-family="sans-serif" font-size="13" lengthAdjust="spacing" textLength="20" x="1030.2271" y="1205.5695">0..*</text></g><!--link MaintenanceAgenda to Vehicle--><g id="link_MaintenanceAgenda_Vehicle"><path codeLine="137" d="M662.4627,563.09 C646.1527,588.14 625.0927,619.68 605.2327,647 C579.9127,681.83 550.9727,719.08 524.8927,751.8 " fill="none" id="MaintenanceAgenda-Vehicle" style="stroke:#181818;stroke-width:1.0;"/><polygon fill="#000000" points="583.2873,690.6859,590.9905,685.1081,586.2408,681.6455,583.2873,690.6859" style="stroke:#000000;stroke-width:1.0;"/><text fill="#000000" font-family="sans-serif" font-size="13" lengthAdjust="spacing" textLength="46" x="595.2327" y="692.0283">requires</text><text fill="#000000" font-family="sans-serif" font-size="13" lengthAdjust="spacing" textLength="7" x="650.5214" y="585.4626">1</text><text fill="#000000" font-family="sans-serif" font-size="13" lengthAdjust="spacing" textLength="20" x="532.6109" y="739.6299">0..*</text></g><!--link Vehicle to CheckUp--><g id="link_Vehicle_CheckUp"><path codeLine="138" d="M508.3127,967.12 C513.1027,977.19 517.8027,987.24 522.2327,997 C532.4627,1019.52 543.1727,1045.52 550.7727,1064.46 " fill="none" id="Vehicle-CheckUp" style="stroke:#181818;stroke-width:1.0;"/><polygon fill="#000000" points="537.2318,1011.2285,536.3092,1001.7628,530.9216,1004.1129,537.2318,1011.2285" style="stroke:#000000;stroke-width:1.0;"/><text fill="#000000" font-family="sans-serif" font-size="13" lengthAdjust="spacing" textLength="67" x="544.2327" y="1012.0283">assigned to</text><text fill="#000000" font-family="sans-serif" font-size="13" lengthAdjust="spacing" textLength="20" x="491.521" y="989.4149">0..*</text><text fill="#000000" font-family="sans-serif" font-size="13" lengthAdjust="spacing" textLength="7" x="540.5445" y="1053.1597">1</text></g><!--link Vehicle to List--><g id="link_Vehicle_List"><path codeLine="139" d="M524.8227,846.5 C563.1327,846.5 608.3127,846.5 641.6027,846.5 " fill="none" id="Vehicle-List" style="stroke:#181818;stroke-width:1.0;"/><polygon fill="#000000" points="552.2327,834.1455,543.1877,831.2066,543.1877,837.0844,552.2327,834.1455" style="stroke:#000000;stroke-width:1.0;"/><text fill="#000000" font-family="sans-serif" font-size="13" lengthAdjust="spacing" textLength="67" x="556.2327" y="839.5283">assigned to</text><text fill="#000000" font-family="sans-serif" font-size="13" lengthAdjust="spacing" textLength="20" x="532.8053" y="861.3044">0..*</text><text fill="#000000" font-family="sans-serif" font-size="13" lengthAdjust="spacing" textLength="7" x="626.7735" y="842.241">1</text></g><!--link Vehicle to Equipment--><g id="link_Vehicle_Equipment"><path codeLine="140" d="M378.1227,967.14 C373.1627,977.12 368.4627,987.15 364.2327,997 C353.1827,1022.74 344.3927,1054.08 339.4927,1073.28 " fill="none" id="Vehicle-Equipment" style="stroke:#181818;stroke-width:1.0;"/><polygon fill="#000000" points="367.5227,1011.344,373.3779,1003.8495,367.8545,1001.8392,367.5227,1011.344" style="stroke:#000000;stroke-width:1.0;"/><text fill="#000000" font-family="sans-serif" font-size="13" lengthAdjust="spacing" textLength="58" x="378.2327" y="1012.0283">transports</text><text fill="#000000" font-family="sans-serif" font-size="13" lengthAdjust="spacing" textLength="7" x="366.4071" y="989.4362">1</text><text fill="#000000" font-family="sans-serif" font-size="13" lengthAdjust="spacing" textLength="20" x="317.7349" y="1062.0748">0..*</text></g><!--link Vehicle to Machines--><g id="link_Vehicle_Machines"><path codeLine="141" d="M444.9827,967.17 C444.8727,983.57 444.9127,1000.2 445.2327,1016 C445.6227,1035.67 446.6027,1058.23 447.3327,1073.43 " fill="none" id="Vehicle-Machines" style="stroke:#181818;stroke-width:1.0;"/><polygon fill="#000000" points="450.3433,1011.6443,453.0815,1002.5364,447.2051,1002.6664,450.3433,1011.6443" style="stroke:#000000;stroke-width:1.0;"/><text fill="#000000" font-family="sans-serif" font-size="13" lengthAdjust="spacing" textLength="58" x="459.2327" y="1012.0283">transports</text><text fill="#000000" font-family="sans-serif" font-size="13" lengthAdjust="spacing" textLength="7" x="437.5503" y="989.4681">1</text><text fill="#000000" font-family="sans-serif" font-size="13" lengthAdjust="spacing" textLength="20" x="423.9946" y="1062.2707">0..*</text></g><!--link UserType to User--><g id="link_UserType_User"><path codeLine="142" d="M1178.8527,71.67 C1173.5527,131.17 1160.4527,278.06 1150.7627,386.75 " fill="none" id="UserType-User" style="stroke:#181818;stroke-width:1.0;"/><polygon fill="#000000" points="1175.7887,239.1258,1179.5193,230.3774,1173.6646,229.8554,1175.7887,239.1258" style="stroke:#000000;stroke-width:1.0;"/><text fill="#000000" font-family="sans-serif" font-size="13" lengthAdjust="spacing" textLength="51" x="1185.2327" y="239.5283">identifies</text><text fill="#000000" font-family="sans-serif" font-size="13" lengthAdjust="spacing" textLength="7" x="1170.5665" y="93.6158">1</text><text fill="#000000" font-family="sans-serif" font-size="13" lengthAdjust="spacing" textLength="7" x="1144.227" y="375.7631">1</text></g><!--link User to Portal--><g id="link_User_Portal"><path codeLine="143" d="M1137.8827,647.31 C1136.5527,774.22 1134.5927,960.74 1133.7027,1045.77 " fill="none" id="User-Portal" style="stroke:#181818;stroke-width:1.0;"/><polygon fill="#000000" points="1142.1803,851.6452,1145.2139,842.6315,1139.3364,842.5698,1142.1803,851.6452" style="stroke:#000000;stroke-width:1.0;"/><text fill="#000000" font-family="sans-serif" font-size="13" lengthAdjust="spacing" textLength="28" x="1151.2327" y="852.0283">uses</text><text fill="#000000" font-family="sans-serif" font-size="13" lengthAdjust="spacing" textLength="7" x="1130.6175" y="668.9354">1</text><text fill="#000000" font-family="sans-serif" font-size="13" lengthAdjust="spacing" textLength="7" x="1126.2577" y="1034.7457">1</text></g><!--link User to Address--><g id="link_User_Address"><path codeLine="144" d="M1203.8527,622.29 C1236.4827,684.68 1269.2327,766.89 1269.2327,845.5 C1269.2327,845.5 1269.2327,845.5 1269.2327,1273.5 C1269.2327,1322.67 1275.7127,1378.7 1281.1027,1416.8 " fill="none" id="User-Address" style="stroke:#181818;stroke-width:1.0;"/><polygon fill="#000000" points="1274.7166,1097.122,1276.7664,1087.835,1270.9162,1088.4038,1274.7166,1097.122" style="stroke:#000000;stroke-width:1.0;"/><text fill="#000000" font-family="sans-serif" font-size="13" lengthAdjust="spacing" textLength="39" x="1283.2327" y="1097.5283">lives in</text><text fill="#000000" font-family="sans-serif" font-size="13" lengthAdjust="spacing" textLength="7" x="1211.7291" y="630.5222">1</text><text fill="#000000" font-family="sans-serif" font-size="13" lengthAdjust="spacing" textLength="7" x="1272.5415" y="1405.7801">1</text></g><!--link User to Job--><g id="link_User_Job"><path codeLine="145" d="M1108.3327,647.03 C1102.4027,673.12 1096.4327,700.39 1091.2327,726 C1065.6427,852.1 1040.9727,1003.95 1031.4027,1064.35 " fill="none" id="User-Job" style="stroke:#181818;stroke-width:1.0;"/><polygon fill="#000000" points="1095.3263,851.5627,1099.8563,843.2002,1094.0758,842.1347,1095.3263,851.5627" style="stroke:#000000;stroke-width:1.0;"/><text fill="#000000" font-family="sans-serif" font-size="13" lengthAdjust="spacing" textLength="21" x="1105.2327" y="852.0283">has</text><text fill="#000000" font-family="sans-serif" font-size="13" lengthAdjust="spacing" textLength="7" x="1099.344" y="669.0734">1</text><text fill="#000000" font-family="sans-serif" font-size="13" lengthAdjust="spacing" textLength="7" x="1024.5577" y="1053.0243">1</text></g><!--link Task to Skill--><g id="link_Task_Skill"><path codeLine="146" d="M445.5727,308.25 C453.3527,324.32 461.5527,341.24 469.2327,357 C489.7627,399.15 513.5127,447.51 529.3627,479.72 " fill="none" id="Task-Skill" style="stroke:#181818;stroke-width:1.0;"/><polygon fill="#000000" points="476.4279,352.1378,475.0973,342.7208,469.8163,345.3014,476.4279,352.1378" style="stroke:#000000;stroke-width:1.0;"/><text fill="#000000" font-family="sans-serif" font-size="13" lengthAdjust="spacing" textLength="46" x="483.2327" y="353.0283">requires</text><text fill="#000000" font-family="sans-serif" font-size="13" lengthAdjust="spacing" textLength="7" x="441.707" y="330.4212">1</text><text fill="#000000" font-family="sans-serif" font-size="13" lengthAdjust="spacing" textLength="20" x="504.3984" y="468.6319">0..*</text></g><!--link Task to Vehicle--><g id="link_Task_Vehicle"><path codeLine="147" d="M412.1727,308.01 C414.6527,390.42 419.6827,528.46 428.2327,647 C430.0727,672.56 432.5227,699.94 435.0727,725.93 " fill="none" id="Task-Vehicle" style="stroke:#181818;stroke-width:1.0;"/><polygon fill="#000000" points="433.5063,522.138,435.9459,512.9457,430.0769,513.2673,433.5063,522.138" style="stroke:#000000;stroke-width:1.0;"/><text fill="#000000" font-family="sans-serif" font-size="13" lengthAdjust="spacing" textLength="46" x="442.2327" y="522.5283">requires</text><text fill="#000000" font-family="sans-serif" font-size="13" lengthAdjust="spacing" textLength="7" x="405.0119" y="330.5442">1</text><text fill="#000000" font-family="sans-serif" font-size="13" lengthAdjust="spacing" textLength="20" x="413.5891" y="714.6846">0..*</text></g><!--link GreenSpace to Address--><g id="link_GreenSpace_Address"><path codeLine="148" d="M1139.3227,1463 C1171.1627,1463 1214.3027,1463 1245.9527,1463 " fill="none" id="GreenSpace-Address" style="stroke:#181818;stroke-width:1.0;"/><polygon fill="#000000" points="1166.7327,1450.6455,1157.6877,1447.7066,1157.6877,1453.5844,1166.7327,1450.6455" style="stroke:#000000;stroke-width:1.0;"/><text fill="#000000" font-family="sans-serif" font-size="13" lengthAdjust="spacing" textLength="57" x="1170.7327" y="1456.0283">located at</text><text fill="#000000" font-family="sans-serif" font-size="13" lengthAdjust="spacing" textLength="7" x="1147.3304" y="1458.5625">1</text><text fill="#000000" font-family="sans-serif" font-size="13" lengthAdjust="spacing" textLength="7" x="1231.3704" y="1458.6045">1</text></g><!--link Task to ToDoList--><g id="link_Task_ToDoList"><path codeLine="149" d="M348.6827,245.42 C296.1527,257.82 223.4027,284.08 186.2327,338 C154.8527,383.52 161.4027,452.1 168.2427,489.45 " fill="none" id="Task-ToDoList" style="stroke:#181818;stroke-width:1.0;"/><polygon fill="#000000" points="188.26,351.6658,196.0008,346.1403,191.2746,342.6457,188.26,351.6658" style="stroke:#000000;stroke-width:1.0;"/><text fill="#000000" font-family="sans-serif" font-size="13" lengthAdjust="spacing" textLength="49" x="200.2327" y="353.0283">exists in</text><text fill="#000000" font-family="sans-serif" font-size="13" lengthAdjust="spacing" textLength="7" x="333.7548" y="242.8007">1</text><text fill="#000000" font-family="sans-serif" font-size="13" lengthAdjust="spacing" textLength="20" x="144.5451" y="478.1474">0..*</text></g><!--link ToDoList to ToDoListEntry--><g id="link_ToDoList_ToDoListEntry"><path codeLine="150" d="M166.7727,544.56 C157.9527,572.41 141.1127,616.31 115.2327,647 C99.9727,665.09 82.2927,656.07 71.2327,677 C67.2827,684.47 68.6527,687.96 71.2327,696 C86.8927,744.78 124.9727,791.16 151.2027,818.97 " fill="none" id="ToDoList-ToDoListEntry" style="stroke:#181818;stroke-width:1.0;"/><polygon fill="#000000" points="75.9495,691.6375,79.3961,682.7734,73.5277,682.4404,75.9495,691.6375" style="stroke:#000000;stroke-width:1.0;"/><text fill="#000000" font-family="sans-serif" font-size="13" lengthAdjust="spacing" textLength="49" x="85.2327" y="692.0283">contains</text><text fill="#000000" font-family="sans-serif" font-size="13" lengthAdjust="spacing" textLength="7" x="157.2382" y="566.9328">1</text><text fill="#000000" font-family="sans-serif" font-size="13" lengthAdjust="spacing" textLength="20" x="122.6396" y="807.672">0..*</text></g><!--link ToDoListEntry to ToDoList--><g id="link_ToDoListEntry_ToDoList"><path codeLine="154" d="M177.5827,818.77 C176.8727,788.86 175.7827,738.96 175.2327,696 C174.5427,642.23 174.3327,579.32 174.2627,544.54 " fill="none" id="ToDoListEntry-ToDoList" style="stroke:#181818;stroke-width:1.0;"/><polygon fill="#000000" points="180.1722,681.6459,177.343,690.7259,183.2204,690.6547,180.1722,681.6459" style="stroke:#000000;stroke-width:1.0;"/><text fill="#000000" font-family="sans-serif" font-size="13" lengthAdjust="spacing" textLength="60" x="189.2327" y="692.0283">belongs to</text><text fill="#000000" font-family="sans-serif" font-size="13" lengthAdjust="spacing" textLength="20" x="155.2531" y="807.8783">0..*</text><text fill="#000000" font-family="sans-serif" font-size="13" lengthAdjust="spacing" textLength="7" x="166.4603" y="566.9082">1</text></g><!--link ToDoListEntry to Task--><g id="link_ToDoListEntry_Task"><path codeLine="151" d="M193.6927,818.93 C210.3027,789.58 236.6727,740.56 254.2327,696 C306.6327,563.03 294.5227,521.36 343.2327,387 C352.7227,360.84 364.5727,332.8 375.6627,308.02 " fill="none" id="ToDoListEntry-Task" style="stroke:#181818;stroke-width:1.0;"/><polygon fill="#000000" points="349.9104,512.4353,344.107,519.97,349.6441,521.9422,349.9104,512.4353" style="stroke:#000000;stroke-width:1.0;"/><text fill="#000000" font-family="sans-serif" font-size="13" lengthAdjust="spacing" textLength="49" x="357.2327" y="522.5283">contains</text><text fill="#000000" font-family="sans-serif" font-size="13" lengthAdjust="spacing" textLength="7" x="189.4585" y="807.6228">1</text><text fill="#000000" font-family="sans-serif" font-size="13" lengthAdjust="spacing" textLength="7" x="364.7368" y="330.5553">1</text></g><!--link ToDoListEntry to AgendaEntry--><g id="link_ToDoListEntry_AgendaEntry"><path codeLine="152" d="M178.2327,874.02 C178.2327,924.07 178.2327,1031.18 178.2327,1073.39 " fill="none" id="ToDoListEntry-AgendaEntry" style="stroke:#181818;stroke-width:1.0;"/><polygon fill="#000000" points="183.2327,1011.6455,186.1717,1002.6004,180.2938,1002.6004,183.2327,1011.6455" style="stroke:#000000;stroke-width:1.0;"/><text fill="#000000" font-family="sans-serif" font-size="13" lengthAdjust="spacing" textLength="49" x="192.2327" y="1012.0283">exists in</text><text fill="#000000" font-family="sans-serif" font-size="13" lengthAdjust="spacing" textLength="7" x="170.4234" y="896.3836">1</text><text fill="#000000" font-family="sans-serif" font-size="13" lengthAdjust="spacing" textLength="7" x="170.1609" y="1062.2185">1</text></g><!--link AgendaEntry to Agenda--><g id="link_AgendaEntry_Agenda"><path codeLine="153" d="M213.7827,1110.63 C233.3227,1119.78 258.2027,1130.57 281.2327,1138 C504.0827,1209.92 784.6127,1254.58 872.5727,1267.55 " fill="none" id="AgendaEntry-Agenda" style="stroke:#181818;stroke-width:1.0;"/><polygon fill="#000000" points="459.0967,1178.8041,450.9787,1173.8493,449.6168,1179.5672,459.0967,1178.8041" style="stroke:#000000;stroke-width:1.0;"/><text fill="#000000" font-family="sans-serif" font-size="13" lengthAdjust="spacing" textLength="60" x="463.2327" y="1183.0283">belongs to</text><text fill="#000000" font-family="sans-serif" font-size="13" lengthAdjust="spacing" textLength="20" x="200.6493" y="1132.0395">0..*</text><text fill="#000000" font-family="sans-serif" font-size="13" lengthAdjust="spacing" textLength="7" x="857.588" y="1261.1866">1</text></g><!--link Team to Agenda--><g id="link_Team_Agenda"><path codeLine="155" d="M715.1327,50.43 C778.3627,66.35 945.2327,119.16 945.2327,233 C945.2327,233 945.2327,233 945.2327,1093 C945.2327,1143.5 928.0927,1199.65 914.9627,1235.25 " fill="none" id="Team-Agenda" style="stroke:#181818;stroke-width:1.0;"/><polygon fill="#000000" points="951.0643,691.5759,952.458,682.168,946.662,683.1455,951.0643,691.5759" style="stroke:#000000;stroke-width:1.0;"/><text fill="#000000" font-family="sans-serif" font-size="13" lengthAdjust="spacing" textLength="39" x="959.2327" y="692.0283">follows</text><text fill="#000000" font-family="sans-serif" font-size="13" lengthAdjust="spacing" textLength="20" x="722.5484" y="47.0108">1..*</text><text fill="#000000" font-family="sans-serif" font-size="13" lengthAdjust="spacing" textLength="7" x="909.9631" y="1224.1672">1</text></g><!--link Team to AgendaEntry--><g id="link_Team_AgendaEntry"><path codeLine="156" d="M667.5027,46.33 C547.5027,53.68 13.2327,94.21 13.2327,233 C13.2327,233 13.2327,233 13.2327,847.5 C13.2327,947.33 109.4627,1036.69 154.9427,1073.36 " fill="none" id="Team-AgendaEntry" style="stroke:#181818;stroke-width:1.0;"/><polygon fill="#000000" points="16,521.6193,22.6687,514.8385,17.4094,512.2138,16,521.6193" style="stroke:#000000;stroke-width:1.0;"/><text fill="#000000" font-family="sans-serif" font-size="13" lengthAdjust="spacing" textLength="79" x="27.2327" y="522.5283">assigned with</text><text fill="#000000" font-family="sans-serif" font-size="13" lengthAdjust="spacing" textLength="7" x="652.8443" y="63.4111">1</text><text fill="#000000" font-family="sans-serif" font-size="13" lengthAdjust="spacing" textLength="7" x="139.7383" y="1062.1793">1</text></g><!--SRC=[ZLLBKzim4BxdLsXoWNO62bSVc4a9PVg0CZpQionlR3MsP2GPI9d-zwvUjkoOQNE9B7txxKFVhlIMYvOgsf162iag9HiWHdMmqFr9IzcMbd1dTZKG1SnGKTOfG5UqaCzSb6H3QmsBW-6evWBChWKYbQdaug26ZI564iNBof22MpekHKB6QghroXZ5yyx0PoR57VyDv6HHyG88uugXRxTk02aBlLWu4_83Aevdv7L1y5U0PegtZjn-qq2etTT7HKNXLbUoWDgjxZ5Clw3ABowLrFeds53Tztcd50X3lZRkynPAhWqeigR66wpOOySrjqw7pIlAXG511OCFvnMmRTUw_KyA7ZiGR4SEkK1E_Mxn9-Ro3Ob38csDH4HqJGxARJHzn7cV1GkHRHiza2IELoM8WWR6JNGyMwWdNyQ1vXxmLhobe8tFgG4RZYQ7JDOrpQMYHgeqWRijh-kfrTHLZ_uYynJRxpzehAuxY1mvHnt5qjAYuLeZsx1HAD3kYjjA2hZkgmODvQveXhxSq1seuOWNQydivGzRlsHk_xHDGdihlVLOfv9HW7OdH7-DKNxVnCq1Tga0n1ts4KmgOgBczkIgWFfAKu6zvsy-fjVptc1NqNh2sQawBGJ13a8LcC7g5bgqUvq44ELAE-mgDM-vyhJUL1lCoZT6ApN6SOx2z7RSx1BzOEr2VHHi07NAvdD63jFfa4FP2nHUMXmIKAmxL5d4bdr51qUkkHxQuEiefHyoI1kXu5G57mB70oILlPThQPlm0WzsaT6fO0yIJ_SunhOfOTZ2nh9ers3BqoKvEYBBa-FZzqjVimnJ1sPd5ZcR0zckoGWNhEwAAQO7MJ5c1CEHZECL5_DKlbt_IROtKJAomG4Wdws15-DWWl-3xZCKCexiZLHJPEJsgin8HItP_kmQe-EmpuWTPlYCMAEm6I0XXg0ALmDU2gm0FZyzDl9vhBsWDu4Z_nVej6tioCtmkQH2s-3rc_0hoYfy2VKKtS-Fj6h-ol254uPlE4JS2EDBc95Epv-7Jitm0Nv213umCo0KKAot4zoC9aRrdG7DtiDmxHuzYKWo9qHgvYdxlhBwn_yGVRyzZ_RDbhcPXThHYOK_YcQdVNVz3zIBBvAdyQGdOyK5mMOaXrgAKdiTJLoCB9AKnpQ-1nE5xhVTg9lt8kwr_CnDHSx-0W00]--></g></svg>