<?xml version="1.0" encoding="us-ascii" standalone="no"?><svg xmlns="http://www.w3.org/2000/svg" xmlns:xlink="http://www.w3.org/1999/xlink" contentStyleType="text/css" height="1310px" preserveAspectRatio="none" style="width:514px;height:1310px;background:#FFFFFF;" version="1.1" viewBox="0 0 514 1310" width="514px" zoomAndPan="magnify"><defs/><g><text fill="#000000" font-family="sans-serif" font-size="14" font-weight="bold" lengthAdjust="spacing" textLength="351" x="83.25" y="30.1074">System Sequence Diagram (SSD) - Alternative One</text><rect fill="#FFFFFF" height="1084.8945" style="stroke:#181818;stroke-width:1.0;" width="10" x="28.5" y="133.2422"/><rect fill="#FFFFFF" height="57.582" style="stroke:#181818;stroke-width:1.0;" width="10" x="461.5" y="156.5332"/><rect fill="#FFFFFF" height="64.582" style="stroke:#181818;stroke-width:1.0;" width="10" x="461.5" y="245.4063"/><rect fill="#FFFFFF" height="64.582" style="stroke:#181818;stroke-width:1.0;" width="10" x="461.5" y="341.2793"/><rect fill="#FFFFFF" height="64.582" style="stroke:#181818;stroke-width:1.0;" width="10" x="461.5" y="437.1523"/><rect fill="#FFFFFF" height="64.582" style="stroke:#181818;stroke-width:1.0;" width="10" x="461.5" y="533.0254"/><rect fill="#FFFFFF" height="64.582" style="stroke:#181818;stroke-width:1.0;" width="10" x="461.5" y="628.8984"/><rect fill="#FFFFFF" height="64.582" style="stroke:#181818;stroke-width:1.0;" width="10" x="461.5" y="724.7715"/><rect fill="#FFFFFF" height="64.582" style="stroke:#181818;stroke-width:1.0;" width="10" x="461.5" y="820.6445"/><rect fill="#FFFFFF" height="64.582" style="stroke:#181818;stroke-width:1.0;" width="10" x="461.5" y="916.5176"/><rect fill="#FFFFFF" height="64.582" style="stroke:#181818;stroke-width:1.0;" width="10" x="461.5" y="1012.3906"/><rect fill="#FFFFFF" height="38.291" style="stroke:#181818;stroke-width:1.0;" width="10" x="461.5" y="1108.2637"/><rect fill="#FFFFFF" height="31.291" style="stroke:#181818;stroke-width:1.0;" width="10" x="461.5" y="1177.8457"/><rect fill="none" height="81.873" style="stroke:#000000;stroke-width:1.5;" width="498.5" x="10" y="171.5332"/><rect fill="none" height="81.873" style="stroke:#000000;stroke-width:1.5;" width="498.5" x="10" y="267.4063"/><rect fill="none" height="81.873" style="stroke:#000000;stroke-width:1.5;" width="498.5" x="10" y="363.2793"/><rect fill="none" height="81.873" style="stroke:#000000;stroke-width:1.5;" width="498.5" x="10" y="459.1523"/><rect fill="none" height="81.873" style="stroke:#000000;stroke-width:1.5;" width="498.5" x="10" y="555.0254"/><rect fill="none" height="81.873" style="stroke:#000000;stroke-width:1.5;" width="498.5" x="10" y="650.8984"/><rect fill="none" height="81.873" style="stroke:#000000;stroke-width:1.5;" width="498.5" x="10" y="746.7715"/><rect fill="none" height="81.873" style="stroke:#000000;stroke-width:1.5;" width="498.5" x="10" y="842.6445"/><rect fill="none" height="81.873" style="stroke:#000000;stroke-width:1.5;" width="498.5" x="10" y="938.5176"/><rect fill="none" height="81.873" style="stroke:#000000;stroke-width:1.5;" width="498.5" x="10" y="1034.3906"/><line style="stroke:#181818;stroke-width:0.5;stroke-dasharray:5.0,5.0;" x1="33" x2="33" y1="123.2422" y2="1227.1367"/><line style="stroke:#181818;stroke-width:0.5;stroke-dasharray:5.0,5.0;" x1="466.5" x2="466.5" y1="123.2422" y2="1227.1367"/><text fill="#000000" font-family="sans-serif" font-size="14" lengthAdjust="spacing" textLength="20" x="20.5" y="119.7285">FM</text><ellipse cx="33.5" cy="53.1211" fill="#E3E3E3" rx="8" ry="8" style="stroke:#181818;stroke-width:0.5;"/><path d="M33.5,61.1211 L33.5,88.1211 M20.5,69.1211 L46.5,69.1211 M33.5,88.1211 L20.5,103.1211 M33.5,88.1211 L46.5,103.1211 " fill="none" style="stroke:#181818;stroke-width:0.5;"/><text fill="#000000" font-family="sans-serif" font-size="14" lengthAdjust="spacing" textLength="20" x="20.5" y="1241.2441">FM</text><ellipse cx="33.5" cy="1253.2578" fill="#E3E3E3" rx="8" ry="8" style="stroke:#181818;stroke-width:0.5;"/><path d="M33.5,1261.2578 L33.5,1288.2578 M20.5,1269.2578 L46.5,1269.2578 M33.5,1288.2578 L20.5,1303.2578 M33.5,1288.2578 L46.5,1303.2578 " fill="none" style="stroke:#181818;stroke-width:0.5;"/><rect fill="#E3E3E3" height="32.6211" rx="2.5" ry="2.5" style="stroke:#181818;stroke-width:0.5;" width="64" x="434.5" y="89.6211"/><text fill="#000000" font-family="sans-serif" font-size="14" lengthAdjust="spacing" textLength="50" x="441.5" y="111.7285">:System</text><rect fill="#E3E3E3" height="32.6211" rx="2.5" ry="2.5" style="stroke:#181818;stroke-width:0.5;" width="64" x="434.5" y="1226.1367"/><text fill="#000000" font-family="sans-serif" font-size="14" lengthAdjust="spacing" textLength="50" x="441.5" y="1248.2441">:System</text><rect fill="#FFFFFF" height="1084.8945" style="stroke:#181818;stroke-width:1.0;" width="10" x="28.5" y="133.2422"/><rect fill="#FFFFFF" height="57.582" style="stroke:#181818;stroke-width:1.0;" width="10" x="461.5" y="156.5332"/><rect fill="#FFFFFF" height="64.582" style="stroke:#181818;stroke-width:1.0;" width="10" x="461.5" y="245.4063"/><rect fill="#FFFFFF" height="64.582" style="stroke:#181818;stroke-width:1.0;" width="10" x="461.5" y="341.2793"/><rect fill="#FFFFFF" height="64.582" style="stroke:#181818;stroke-width:1.0;" width="10" x="461.5" y="437.1523"/><rect fill="#FFFFFF" height="64.582" style="stroke:#181818;stroke-width:1.0;" width="10" x="461.5" y="533.0254"/><rect fill="#FFFFFF" height="64.582" style="stroke:#181818;stroke-width:1.0;" width="10" x="461.5" y="628.8984"/><rect fill="#FFFFFF" height="64.582" style="stroke:#181818;stroke-width:1.0;" width="10" x="461.5" y="724.7715"/><rect fill="#FFFFFF" height="64.582" style="stroke:#181818;stroke-width:1.0;" width="10" x="461.5" y="820.6445"/><rect fill="#FFFFFF" height="64.582" style="stroke:#181818;stroke-width:1.0;" width="10" x="461.5" y="916.5176"/><rect fill="#FFFFFF" height="64.582" style="stroke:#181818;stroke-width:1.0;" width="10" x="461.5" y="1012.3906"/><rect fill="#FFFFFF" height="38.291" style="stroke:#181818;stroke-width:1.0;" width="10" x="461.5" y="1108.2637"/><rect fill="#FFFFFF" height="31.291" style="stroke:#181818;stroke-width:1.0;" width="10" x="461.5" y="1177.8457"/><polygon fill="#181818" points="449.5,152.5332,459.5,156.5332,449.5,160.5332,453.5,156.5332" style="stroke:#181818;stroke-width:1.0;"/><line style="stroke:#181818;stroke-width:1.0;" x1="38.5" x2="455.5" y1="156.5332" y2="156.5332"/><text fill="#000000" font-family="sans-serif" font-size="13" font-weight="bold" lengthAdjust="spacing" textLength="7" x="45.5" y="151.2705">1</text><text fill="#000000" font-family="sans-serif" font-size="13" lengthAdjust="spacing" textLength="164" x="56.5" y="151.2705">asks to create a new vehicle</text><path d="M10,171.5332 L83,171.5332 L83,180.8242 L73,190.8242 L10,190.8242 L10,171.5332 " fill="#EEEEEE" style="stroke:#000000;stroke-width:1.5;"/><rect fill="none" height="81.873" style="stroke:#000000;stroke-width:1.5;" width="498.5" x="10" y="171.5332"/><text fill="#000000" font-family="sans-serif" font-size="13" font-weight="bold" lengthAdjust="spacing" textLength="28" x="25" y="186.5615">loop</text><text fill="#000000" font-family="sans-serif" font-size="11" font-weight="bold" lengthAdjust="spacing" textLength="219" x="98" y="185.4033">[loops if invalid characters for that field]</text><polygon fill="#181818" points="49.5,210.1152,39.5,214.1152,49.5,218.1152,45.5,214.1152" style="stroke:#181818;stroke-width:1.0;"/><line style="stroke:#181818;stroke-width:1.0;stroke-dasharray:2.0,2.0;" x1="43.5" x2="465.5" y1="214.1152" y2="214.1152"/><text fill="#000000" font-family="sans-serif" font-size="13" font-weight="bold" lengthAdjust="spacing" textLength="7" x="55.5" y="208.8525">2</text><text fill="#000000" font-family="sans-serif" font-size="13" lengthAdjust="spacing" textLength="96" x="66.5" y="208.8525">requests plate id</text><polygon fill="#181818" points="449.5,241.4063,459.5,245.4063,449.5,249.4063,453.5,245.4063" style="stroke:#181818;stroke-width:1.0;"/><line style="stroke:#181818;stroke-width:1.0;" x1="38.5" x2="455.5" y1="245.4063" y2="245.4063"/><text fill="#000000" font-family="sans-serif" font-size="13" font-weight="bold" lengthAdjust="spacing" textLength="7" x="45.5" y="240.1436">3</text><text fill="#000000" font-family="sans-serif" font-size="13" lengthAdjust="spacing" textLength="122" x="56.5" y="240.1436">types requested data</text><path d="M10,267.4063 L83,267.4063 L83,276.6973 L73,286.6973 L10,286.6973 L10,267.4063 " fill="#EEEEEE" style="stroke:#000000;stroke-width:1.5;"/><rect fill="none" height="81.873" style="stroke:#000000;stroke-width:1.5;" width="498.5" x="10" y="267.4063"/><text fill="#000000" font-family="sans-serif" font-size="13" font-weight="bold" lengthAdjust="spacing" textLength="28" x="25" y="282.4346">loop</text><text fill="#000000" font-family="sans-serif" font-size="11" font-weight="bold" lengthAdjust="spacing" textLength="219" x="98" y="281.2764">[loops if invalid characters for that field]</text><polygon fill="#181818" points="49.5,305.9883,39.5,309.9883,49.5,313.9883,45.5,309.9883" style="stroke:#181818;stroke-width:1.0;"/><line style="stroke:#181818;stroke-width:1.0;stroke-dasharray:2.0,2.0;" x1="43.5" x2="465.5" y1="309.9883" y2="309.9883"/><text fill="#000000" font-family="sans-serif" font-size="13" font-weight="bold" lengthAdjust="spacing" textLength="7" x="55.5" y="304.7256">4</text><text fill="#000000" font-family="sans-serif" font-size="13" lengthAdjust="spacing" textLength="86" x="66.5" y="304.7256">requests brand</text><polygon fill="#181818" points="449.5,337.2793,459.5,341.2793,449.5,345.2793,453.5,341.2793" style="stroke:#181818;stroke-width:1.0;"/><line style="stroke:#181818;stroke-width:1.0;" x1="38.5" x2="455.5" y1="341.2793" y2="341.2793"/><text fill="#000000" font-family="sans-serif" font-size="13" font-weight="bold" lengthAdjust="spacing" textLength="7" x="45.5" y="336.0166">5</text><text fill="#000000" font-family="sans-serif" font-size="13" lengthAdjust="spacing" textLength="122" x="56.5" y="336.0166">types requested data</text><path d="M10,363.2793 L83,363.2793 L83,372.5703 L73,382.5703 L10,382.5703 L10,363.2793 " fill="#EEEEEE" style="stroke:#000000;stroke-width:1.5;"/><rect fill="none" height="81.873" style="stroke:#000000;stroke-width:1.5;" width="498.5" x="10" y="363.2793"/><text fill="#000000" font-family="sans-serif" font-size="13" font-weight="bold" lengthAdjust="spacing" textLength="28" x="25" y="378.3076">loop</text><text fill="#000000" font-family="sans-serif" font-size="11" font-weight="bold" lengthAdjust="spacing" textLength="219" x="98" y="377.1494">[loops if invalid characters for that field]</text><polygon fill="#181818" points="49.5,401.8613,39.5,405.8613,49.5,409.8613,45.5,405.8613" style="stroke:#181818;stroke-width:1.0;"/><line style="stroke:#181818;stroke-width:1.0;stroke-dasharray:2.0,2.0;" x1="43.5" x2="465.5" y1="405.8613" y2="405.8613"/><text fill="#000000" font-family="sans-serif" font-size="13" font-weight="bold" lengthAdjust="spacing" textLength="7" x="55.5" y="400.5986">6</text><text fill="#000000" font-family="sans-serif" font-size="13" lengthAdjust="spacing" textLength="89" x="66.5" y="400.5986">requests model</text><polygon fill="#181818" points="449.5,433.1523,459.5,437.1523,449.5,441.1523,453.5,437.1523" style="stroke:#181818;stroke-width:1.0;"/><line style="stroke:#181818;stroke-width:1.0;" x1="38.5" x2="455.5" y1="437.1523" y2="437.1523"/><text fill="#000000" font-family="sans-serif" font-size="13" font-weight="bold" lengthAdjust="spacing" textLength="7" x="45.5" y="431.8896">7</text><text fill="#000000" font-family="sans-serif" font-size="13" lengthAdjust="spacing" textLength="122" x="56.5" y="431.8896">types requested data</text><path d="M10,459.1523 L83,459.1523 L83,468.4434 L73,478.4434 L10,478.4434 L10,459.1523 " fill="#EEEEEE" style="stroke:#000000;stroke-width:1.5;"/><rect fill="none" height="81.873" style="stroke:#000000;stroke-width:1.5;" width="498.5" x="10" y="459.1523"/><text fill="#000000" font-family="sans-serif" font-size="13" font-weight="bold" lengthAdjust="spacing" textLength="28" x="25" y="474.1807">loop</text><text fill="#000000" font-family="sans-serif" font-size="11" font-weight="bold" lengthAdjust="spacing" textLength="219" x="98" y="473.0225">[loops if invalid characters for that field]</text><polygon fill="#181818" points="49.5,497.7344,39.5,501.7344,49.5,505.7344,45.5,501.7344" style="stroke:#181818;stroke-width:1.0;"/><line style="stroke:#181818;stroke-width:1.0;stroke-dasharray:2.0,2.0;" x1="43.5" x2="465.5" y1="501.7344" y2="501.7344"/><text fill="#000000" font-family="sans-serif" font-size="13" font-weight="bold" lengthAdjust="spacing" textLength="7" x="55.5" y="496.4717">8</text><text fill="#000000" font-family="sans-serif" font-size="13" lengthAdjust="spacing" textLength="79" x="66.5" y="496.4717">requests type</text><polygon fill="#181818" points="449.5,529.0254,459.5,533.0254,449.5,537.0254,453.5,533.0254" style="stroke:#181818;stroke-width:1.0;"/><line style="stroke:#181818;stroke-width:1.0;" x1="38.5" x2="455.5" y1="533.0254" y2="533.0254"/><text fill="#000000" font-family="sans-serif" font-size="13" font-weight="bold" lengthAdjust="spacing" textLength="7" x="45.5" y="527.7627">9</text><text fill="#000000" font-family="sans-serif" font-size="13" lengthAdjust="spacing" textLength="122" x="56.5" y="527.7627">types requested data</text><path d="M10,555.0254 L83,555.0254 L83,564.3164 L73,574.3164 L10,574.3164 L10,555.0254 " fill="#EEEEEE" style="stroke:#000000;stroke-width:1.5;"/><rect fill="none" height="81.873" style="stroke:#000000;stroke-width:1.5;" width="498.5" x="10" y="555.0254"/><text fill="#000000" font-family="sans-serif" font-size="13" font-weight="bold" lengthAdjust="spacing" textLength="28" x="25" y="570.0537">loop</text><text fill="#000000" font-family="sans-serif" font-size="11" font-weight="bold" lengthAdjust="spacing" textLength="219" x="98" y="568.8955">[loops if invalid characters for that field]</text><polygon fill="#181818" points="49.5,593.6074,39.5,597.6074,49.5,601.6074,45.5,597.6074" style="stroke:#181818;stroke-width:1.0;"/><line style="stroke:#181818;stroke-width:1.0;stroke-dasharray:2.0,2.0;" x1="43.5" x2="465.5" y1="597.6074" y2="597.6074"/><text fill="#000000" font-family="sans-serif" font-size="13" font-weight="bold" lengthAdjust="spacing" textLength="14" x="55.5" y="592.3447">10</text><text fill="#000000" font-family="sans-serif" font-size="13" lengthAdjust="spacing" textLength="76" x="73.5" y="592.3447">requests tare</text><polygon fill="#181818" points="449.5,624.8984,459.5,628.8984,449.5,632.8984,453.5,628.8984" style="stroke:#181818;stroke-width:1.0;"/><line style="stroke:#181818;stroke-width:1.0;" x1="38.5" x2="455.5" y1="628.8984" y2="628.8984"/><text fill="#000000" font-family="sans-serif" font-size="13" font-weight="bold" lengthAdjust="spacing" textLength="14" x="45.5" y="623.6357">11</text><text fill="#000000" font-family="sans-serif" font-size="13" lengthAdjust="spacing" textLength="122" x="63.5" y="623.6357">types requested data</text><path d="M10,650.8984 L83,650.8984 L83,660.1895 L73,670.1895 L10,670.1895 L10,650.8984 " fill="#EEEEEE" style="stroke:#000000;stroke-width:1.5;"/><rect fill="none" height="81.873" style="stroke:#000000;stroke-width:1.5;" width="498.5" x="10" y="650.8984"/><text fill="#000000" font-family="sans-serif" font-size="13" font-weight="bold" lengthAdjust="spacing" textLength="28" x="25" y="665.9268">loop</text><text fill="#000000" font-family="sans-serif" font-size="11" font-weight="bold" lengthAdjust="spacing" textLength="219" x="98" y="664.7686">[loops if invalid characters for that field]</text><polygon fill="#181818" points="49.5,689.4805,39.5,693.4805,49.5,697.4805,45.5,693.4805" style="stroke:#181818;stroke-width:1.0;"/><line style="stroke:#181818;stroke-width:1.0;stroke-dasharray:2.0,2.0;" x1="43.5" x2="465.5" y1="693.4805" y2="693.4805"/><text fill="#000000" font-family="sans-serif" font-size="13" font-weight="bold" lengthAdjust="spacing" textLength="14" x="55.5" y="688.2178">12</text><text fill="#000000" font-family="sans-serif" font-size="13" lengthAdjust="spacing" textLength="127" x="73.5" y="688.2178">requests gross weight</text><polygon fill="#181818" points="449.5,720.7715,459.5,724.7715,449.5,728.7715,453.5,724.7715" style="stroke:#181818;stroke-width:1.0;"/><line style="stroke:#181818;stroke-width:1.0;" x1="38.5" x2="455.5" y1="724.7715" y2="724.7715"/><text fill="#000000" font-family="sans-serif" font-size="13" font-weight="bold" lengthAdjust="spacing" textLength="14" x="45.5" y="719.5088">13</text><text fill="#000000" font-family="sans-serif" font-size="13" lengthAdjust="spacing" textLength="122" x="63.5" y="719.5088">types requested data</text><path d="M10,746.7715 L83,746.7715 L83,756.0625 L73,766.0625 L10,766.0625 L10,746.7715 " fill="#EEEEEE" style="stroke:#000000;stroke-width:1.5;"/><rect fill="none" height="81.873" style="stroke:#000000;stroke-width:1.5;" width="498.5" x="10" y="746.7715"/><text fill="#000000" font-family="sans-serif" font-size="13" font-weight="bold" lengthAdjust="spacing" textLength="28" x="25" y="761.7998">loop</text><text fill="#000000" font-family="sans-serif" font-size="11" font-weight="bold" lengthAdjust="spacing" textLength="219" x="98" y="760.6416">[loops if invalid characters for that field]</text><polygon fill="#181818" points="49.5,785.3535,39.5,789.3535,49.5,793.3535,45.5,789.3535" style="stroke:#181818;stroke-width:1.0;"/><line style="stroke:#181818;stroke-width:1.0;stroke-dasharray:2.0,2.0;" x1="43.5" x2="465.5" y1="789.3535" y2="789.3535"/><text fill="#000000" font-family="sans-serif" font-size="13" font-weight="bold" lengthAdjust="spacing" textLength="14" x="55.5" y="784.0908">14</text><text fill="#000000" font-family="sans-serif" font-size="13" lengthAdjust="spacing" textLength="123" x="73.5" y="784.0908">requests current kms</text><polygon fill="#181818" points="449.5,816.6445,459.5,820.6445,449.5,824.6445,453.5,820.6445" style="stroke:#181818;stroke-width:1.0;"/><line style="stroke:#181818;stroke-width:1.0;" x1="38.5" x2="455.5" y1="820.6445" y2="820.6445"/><text fill="#000000" font-family="sans-serif" font-size="13" font-weight="bold" lengthAdjust="spacing" textLength="14" x="45.5" y="815.3818">15</text><text fill="#000000" font-family="sans-serif" font-size="13" lengthAdjust="spacing" textLength="122" x="63.5" y="815.3818">types requested data</text><path d="M10,842.6445 L83,842.6445 L83,851.9355 L73,861.9355 L10,861.9355 L10,842.6445 " fill="#EEEEEE" style="stroke:#000000;stroke-width:1.5;"/><rect fill="none" height="81.873" style="stroke:#000000;stroke-width:1.5;" width="498.5" x="10" y="842.6445"/><text fill="#000000" font-family="sans-serif" font-size="13" font-weight="bold" lengthAdjust="spacing" textLength="28" x="25" y="857.6729">loop</text><text fill="#000000" font-family="sans-serif" font-size="11" font-weight="bold" lengthAdjust="spacing" textLength="219" x="98" y="856.5146">[loops if invalid characters for that field]</text><polygon fill="#181818" points="49.5,881.2266,39.5,885.2266,49.5,889.2266,45.5,885.2266" style="stroke:#181818;stroke-width:1.0;"/><line style="stroke:#181818;stroke-width:1.0;stroke-dasharray:2.0,2.0;" x1="43.5" x2="465.5" y1="885.2266" y2="885.2266"/><text fill="#000000" font-family="sans-serif" font-size="13" font-weight="bold" lengthAdjust="spacing" textLength="14" x="55.5" y="879.9639">16</text><text fill="#000000" font-family="sans-serif" font-size="13" lengthAdjust="spacing" textLength="126" x="73.5" y="879.9639">requests register date</text><polygon fill="#181818" points="449.5,912.5176,459.5,916.5176,449.5,920.5176,453.5,916.5176" style="stroke:#181818;stroke-width:1.0;"/><line style="stroke:#181818;stroke-width:1.0;" x1="38.5" x2="455.5" y1="916.5176" y2="916.5176"/><text fill="#000000" font-family="sans-serif" font-size="13" font-weight="bold" lengthAdjust="spacing" textLength="14" x="45.5" y="911.2549">17</text><text fill="#000000" font-family="sans-serif" font-size="13" lengthAdjust="spacing" textLength="122" x="63.5" y="911.2549">types requested data</text><path d="M10,938.5176 L83,938.5176 L83,947.8086 L73,957.8086 L10,957.8086 L10,938.5176 " fill="#EEEEEE" style="stroke:#000000;stroke-width:1.5;"/><rect fill="none" height="81.873" style="stroke:#000000;stroke-width:1.5;" width="498.5" x="10" y="938.5176"/><text fill="#000000" font-family="sans-serif" font-size="13" font-weight="bold" lengthAdjust="spacing" textLength="28" x="25" y="953.5459">loop</text><text fill="#000000" font-family="sans-serif" font-size="11" font-weight="bold" lengthAdjust="spacing" textLength="219" x="98" y="952.3877">[loops if invalid characters for that field]</text><polygon fill="#181818" points="49.5,977.0996,39.5,981.0996,49.5,985.0996,45.5,981.0996" style="stroke:#181818;stroke-width:1.0;"/><line style="stroke:#181818;stroke-width:1.0;stroke-dasharray:2.0,2.0;" x1="43.5" x2="465.5" y1="981.0996" y2="981.0996"/><text fill="#000000" font-family="sans-serif" font-size="13" font-weight="bold" lengthAdjust="spacing" textLength="14" x="55.5" y="975.8369">18</text><text fill="#000000" font-family="sans-serif" font-size="13" lengthAdjust="spacing" textLength="142" x="73.5" y="975.8369">requests acquistion date</text><polygon fill="#181818" points="449.5,1008.3906,459.5,1012.3906,449.5,1016.3906,453.5,1012.3906" style="stroke:#181818;stroke-width:1.0;"/><line style="stroke:#181818;stroke-width:1.0;" x1="38.5" x2="455.5" y1="1012.3906" y2="1012.3906"/><text fill="#000000" font-family="sans-serif" font-size="13" font-weight="bold" lengthAdjust="spacing" textLength="14" x="45.5" y="1007.1279">19</text><text fill="#000000" font-family="sans-serif" font-size="13" lengthAdjust="spacing" textLength="122" x="63.5" y="1007.1279">types requested data</text><path d="M10,1034.3906 L83,1034.3906 L83,1043.6816 L73,1053.6816 L10,1053.6816 L10,1034.3906 " fill="#EEEEEE" style="stroke:#000000;stroke-width:1.5;"/><rect fill="none" height="81.873" style="stroke:#000000;stroke-width:1.5;" width="498.5" x="10" y="1034.3906"/><text fill="#000000" font-family="sans-serif" font-size="13" font-weight="bold" lengthAdjust="spacing" textLength="28" x="25" y="1049.4189">loop</text><text fill="#000000" font-family="sans-serif" font-size="11" font-weight="bold" lengthAdjust="spacing" textLength="219" x="98" y="1048.2607">[loops if invalid characters for that field]</text><polygon fill="#181818" points="49.5,1072.9727,39.5,1076.9727,49.5,1080.9727,45.5,1076.9727" style="stroke:#181818;stroke-width:1.0;"/><line style="stroke:#181818;stroke-width:1.0;stroke-dasharray:2.0,2.0;" x1="43.5" x2="465.5" y1="1076.9727" y2="1076.9727"/><text fill="#000000" font-family="sans-serif" font-size="13" font-weight="bold" lengthAdjust="spacing" textLength="14" x="55.5" y="1071.71">20</text><text fill="#000000" font-family="sans-serif" font-size="13" lengthAdjust="spacing" textLength="167" x="73.5" y="1071.71">requests maintenance check</text><polygon fill="#181818" points="449.5,1104.2637,459.5,1108.2637,449.5,1112.2637,453.5,1108.2637" style="stroke:#181818;stroke-width:1.0;"/><line style="stroke:#181818;stroke-width:1.0;" x1="38.5" x2="455.5" y1="1108.2637" y2="1108.2637"/><text fill="#000000" font-family="sans-serif" font-size="13" font-weight="bold" lengthAdjust="spacing" textLength="14" x="45.5" y="1103.001">21</text><text fill="#000000" font-family="sans-serif" font-size="13" lengthAdjust="spacing" textLength="122" x="63.5" y="1103.001">types requested data</text><polygon fill="#181818" points="49.5,1142.5547,39.5,1146.5547,49.5,1150.5547,45.5,1146.5547" style="stroke:#181818;stroke-width:1.0;"/><line style="stroke:#181818;stroke-width:1.0;stroke-dasharray:2.0,2.0;" x1="43.5" x2="465.5" y1="1146.5547" y2="1146.5547"/><text fill="#000000" font-family="sans-serif" font-size="13" font-weight="bold" lengthAdjust="spacing" textLength="14" x="55.5" y="1141.292">22</text><text fill="#000000" font-family="sans-serif" font-size="13" lengthAdjust="spacing" textLength="381" x="73.5" y="1141.292">shows the newly created vehicle details and requests confirmation</text><polygon fill="#181818" points="449.5,1173.8457,459.5,1177.8457,449.5,1181.8457,453.5,1177.8457" style="stroke:#181818;stroke-width:1.0;"/><line style="stroke:#181818;stroke-width:1.0;" x1="38.5" x2="455.5" y1="1177.8457" y2="1177.8457"/><text fill="#000000" font-family="sans-serif" font-size="13" font-weight="bold" lengthAdjust="spacing" textLength="14" x="45.5" y="1172.583">23</text><text fill="#000000" font-family="sans-serif" font-size="13" lengthAdjust="spacing" textLength="78" x="63.5" y="1172.583">confirms data</text><polygon fill="#181818" points="49.5,1205.1367,39.5,1209.1367,49.5,1213.1367,45.5,1209.1367" style="stroke:#181818;stroke-width:1.0;"/><line style="stroke:#181818;stroke-width:1.0;stroke-dasharray:2.0,2.0;" x1="43.5" x2="465.5" y1="1209.1367" y2="1209.1367"/><text fill="#000000" font-family="sans-serif" font-size="13" font-weight="bold" lengthAdjust="spacing" textLength="14" x="55.5" y="1203.874">24</text><text fill="#000000" font-family="sans-serif" font-size="13" lengthAdjust="spacing" textLength="158" x="73.5" y="1203.874">displays operation success</text><!--SRC=[tPRFRjim3CRlVWeYf-sG5yYXm81kjs67F04hqJPX_N55Ee7VVf8REnqMj-kAee1z29oO7_dzH3cYT1nwJEZ1nn1Dcw8dq3HG9SkJ7as73HrrT0I9Z69etFC0QT76CuS6QdH2LQMiEVGuYfA78pqE50p1FMDJmhySZ_TVOG_Vd58Ag7mY-1Mo30UDOV0FbFAzqPXWz-Fd3b3Wk-zT78cgN53PS8z1ONTugZ15FDrEEZwXqbLILP2l-IlixsPZXwph13I2ILGa287ESAAMJUOhgYNRd7xwrSNOJny2N0E74pgsODgy62OZ2TJPkhQeK3CvEsdcwr9xdsqibWvvLVCQYGhqhbJZgyRINnxcHpUHTEn9vdnamQBYebXDHS7Uv7qFxIka3malHLSGtuPtCqN1kaA-fst_0EIZ9VU7w8NU_L__NkpX0lp1MxGu_8Jj-U5OcBQ8rQGe0cVYfjKDufaX9SfdGUTbWtI96iu1gLZQukP4ypXaG8vXguGUEIW5BFEFQSbqdyMu6d4RGDfupl-9BPMHo8sN2SdEmr5shyWkTp3OPozZ33KdZwMXRpxPBs9vvKXVjsnPylGq2iIUqkG1P326H5Qy_0O0]--></g></svg>