<?xml version="1.0" encoding="us-ascii" standalone="no"?><svg xmlns="http://www.w3.org/2000/svg" xmlns:xlink="http://www.w3.org/1999/xlink" contentStyleType="text/css" height="484px" preserveAspectRatio="none" style="width:772px;height:484px;background:#FFFFFF;" version="1.1" viewBox="0 0 772 484" width="772px" zoomAndPan="magnify"><defs/><g><!--class Collaborator--><g id="elem_Collaborator"><rect codeLine="13" fill="#F1F1F1" height="66.6211" id="Collaborator" rx="2.5" ry="2.5" style="stroke:#181818;stroke-width:0.5;" width="211" x="298" y="209"/><ellipse cx="360.25" cy="225" fill="#ADD1B2" rx="11" ry="11" style="stroke:#181818;stroke-width:1.0;"/><path d="M363.0156,220.875 Q363.1719,220.6563 363.3594,220.5469 Q363.5469,220.4375 363.7656,220.4375 Q364.1406,220.4375 364.375,220.7031 Q364.6094,220.9531 364.6094,221.5625 L364.6094,223.0156 Q364.6094,223.625 364.375,223.8906 Q364.1406,224.1563 363.7656,224.1563 Q363.4219,224.1563 363.2188,223.9531 Q363.0156,223.7656 362.9063,223.25 Q362.8594,222.8906 362.6719,222.7031 Q362.3438,222.3281 361.7344,222.1094 Q361.125,221.8906 360.5,221.8906 Q359.7344,221.8906 359.0938,222.2188 Q358.4688,222.5469 357.9688,223.2969 Q357.4844,224.0469 357.4844,225.0781 L357.4844,226.1719 Q357.4844,227.4063 358.375,228.2344 Q359.2656,229.0469 360.8594,229.0469 Q361.7969,229.0469 362.4531,228.7969 Q362.8438,228.6406 363.2656,228.2031 Q363.5313,227.9375 363.6719,227.8594 Q363.8281,227.7813 364.0313,227.7813 Q364.3594,227.7813 364.6094,228.0469 Q364.875,228.2969 364.875,228.6406 Q364.875,228.9844 364.5313,229.3906 Q364.0313,229.9688 363.2344,230.2969 Q362.1563,230.75 360.8594,230.75 Q359.3438,230.75 358.1406,230.125 Q357.1563,229.625 356.4688,228.5625 Q355.7813,227.4844 355.7813,226.2031 L355.7813,225.0469 Q355.7813,223.7188 356.3906,222.5781 Q357.0156,221.4219 358.1094,220.8125 Q359.2031,220.1875 360.4375,220.1875 Q361.1719,220.1875 361.8125,220.3594 Q362.4688,220.5156 363.0156,220.875 Z " fill="#000000"/><text fill="#000000" font-family="sans-serif" font-size="14" lengthAdjust="spacing" textLength="78" x="380.75" y="230.7969">Collaborator</text><line style="stroke:#181818;stroke-width:0.5;" x1="299" x2="508" y1="241" y2="241"/><line style="stroke:#181818;stroke-width:0.5;" x1="299" x2="508" y1="249" y2="249"/><text fill="#000000" font-family="sans-serif" font-size="14" lengthAdjust="spacing" textLength="199" x="304" y="268.1074">+getCollaboratorFromSession()</text></g><!--class TaskListUI--><g id="elem_TaskListUI"><rect codeLine="17" fill="#F1F1F1" height="122.4844" id="TaskListUI" rx="2.5" ry="2.5" style="stroke:#181818;stroke-width:0.5;" width="288" x="302.5" y="355"/><ellipse cx="409.75" cy="371" fill="#ADD1B2" rx="11" ry="11" style="stroke:#181818;stroke-width:1.0;"/><path d="M412.5156,366.875 Q412.6719,366.6563 412.8594,366.5469 Q413.0469,366.4375 413.2656,366.4375 Q413.6406,366.4375 413.875,366.7031 Q414.1094,366.9531 414.1094,367.5625 L414.1094,369.0156 Q414.1094,369.625 413.875,369.8906 Q413.6406,370.1563 413.2656,370.1563 Q412.9219,370.1563 412.7188,369.9531 Q412.5156,369.7656 412.4063,369.25 Q412.3594,368.8906 412.1719,368.7031 Q411.8438,368.3281 411.2344,368.1094 Q410.625,367.8906 410,367.8906 Q409.2344,367.8906 408.5938,368.2188 Q407.9688,368.5469 407.4688,369.2969 Q406.9844,370.0469 406.9844,371.0781 L406.9844,372.1719 Q406.9844,373.4063 407.875,374.2344 Q408.7656,375.0469 410.3594,375.0469 Q411.2969,375.0469 411.9531,374.7969 Q412.3438,374.6406 412.7656,374.2031 Q413.0313,373.9375 413.1719,373.8594 Q413.3281,373.7813 413.5313,373.7813 Q413.8594,373.7813 414.1094,374.0469 Q414.375,374.2969 414.375,374.6406 Q414.375,374.9844 414.0313,375.3906 Q413.5313,375.9688 412.7344,376.2969 Q411.6563,376.75 410.3594,376.75 Q408.8438,376.75 407.6406,376.125 Q406.6563,375.625 405.9688,374.5625 Q405.2813,373.4844 405.2813,372.2031 L405.2813,371.0469 Q405.2813,369.7188 405.8906,368.5781 Q406.5156,367.4219 407.6094,366.8125 Q408.7031,366.1875 409.9375,366.1875 Q410.6719,366.1875 411.3125,366.3594 Q411.9688,366.5156 412.5156,366.875 Z " fill="#000000"/><text fill="#000000" font-family="sans-serif" font-size="14" lengthAdjust="spacing" textLength="65" x="430.25" y="376.7969">TaskListUI</text><line style="stroke:#181818;stroke-width:0.5;" x1="303.5" x2="589.5" y1="387" y2="387"/><line style="stroke:#181818;stroke-width:0.5;" x1="303.5" x2="589.5" y1="395" y2="395"/><text fill="#000000" font-family="sans-serif" font-size="14" lengthAdjust="spacing" textLength="165" x="308.5" y="414.1074">+requestTaskRepository()</text><text fill="#000000" font-family="sans-serif" font-size="14" lengthAdjust="spacing" textLength="248" x="308.5" y="432.7285">+applyTaskStatusFilter(selectedStatus)</text><text fill="#000000" font-family="sans-serif" font-size="14" lengthAdjust="spacing" textLength="276" x="308.5" y="451.3496">+applyDateRangeFilter(startDate, endDate)</text><text fill="#000000" font-family="sans-serif" font-size="14" lengthAdjust="spacing" textLength="124" x="308.5" y="469.9707">+applySortByDate()</text></g><!--class TaskListController--><g id="elem_TaskListController"><rect codeLine="24" fill="#F1F1F1" height="141.1055" id="TaskListController" rx="2.5" ry="2.5" style="stroke:#181818;stroke-width:0.5;" width="288" x="291.5" y="7"/><ellipse cx="373.75" cy="23" fill="#ADD1B2" rx="11" ry="11" style="stroke:#181818;stroke-width:1.0;"/><path d="M376.5156,18.875 Q376.6719,18.6563 376.8594,18.5469 Q377.0469,18.4375 377.2656,18.4375 Q377.6406,18.4375 377.875,18.7031 Q378.1094,18.9531 378.1094,19.5625 L378.1094,21.0156 Q378.1094,21.625 377.875,21.8906 Q377.6406,22.1563 377.2656,22.1563 Q376.9219,22.1563 376.7188,21.9531 Q376.5156,21.7656 376.4063,21.25 Q376.3594,20.8906 376.1719,20.7031 Q375.8438,20.3281 375.2344,20.1094 Q374.625,19.8906 374,19.8906 Q373.2344,19.8906 372.5938,20.2188 Q371.9688,20.5469 371.4688,21.2969 Q370.9844,22.0469 370.9844,23.0781 L370.9844,24.1719 Q370.9844,25.4063 371.875,26.2344 Q372.7656,27.0469 374.3594,27.0469 Q375.2969,27.0469 375.9531,26.7969 Q376.3438,26.6406 376.7656,26.2031 Q377.0313,25.9375 377.1719,25.8594 Q377.3281,25.7813 377.5313,25.7813 Q377.8594,25.7813 378.1094,26.0469 Q378.375,26.2969 378.375,26.6406 Q378.375,26.9844 378.0313,27.3906 Q377.5313,27.9688 376.7344,28.2969 Q375.6563,28.75 374.3594,28.75 Q372.8438,28.75 371.6406,28.125 Q370.6563,27.625 369.9688,26.5625 Q369.2813,25.4844 369.2813,24.2031 L369.2813,23.0469 Q369.2813,21.7188 369.8906,20.5781 Q370.5156,19.4219 371.6094,18.8125 Q372.7031,18.1875 373.9375,18.1875 Q374.6719,18.1875 375.3125,18.3594 Q375.9688,18.5156 376.5156,18.875 Z " fill="#000000"/><text fill="#000000" font-family="sans-serif" font-size="14" lengthAdjust="spacing" textLength="115" x="394.25" y="28.7969">TaskListController</text><line style="stroke:#181818;stroke-width:0.5;" x1="292.5" x2="578.5" y1="39" y2="39"/><line style="stroke:#181818;stroke-width:0.5;" x1="292.5" x2="578.5" y1="47" y2="47"/><text fill="#000000" font-family="sans-serif" font-size="14" lengthAdjust="spacing" textLength="199" x="297.5" y="66.1074">+getCollaboratorFromSession()</text><text fill="#000000" font-family="sans-serif" font-size="14" lengthAdjust="spacing" textLength="165" x="297.5" y="84.7285">+requestTaskRepository()</text><text fill="#000000" font-family="sans-serif" font-size="14" lengthAdjust="spacing" textLength="248" x="297.5" y="103.3496">+applyTaskStatusFilter(selectedStatus)</text><text fill="#000000" font-family="sans-serif" font-size="14" lengthAdjust="spacing" textLength="276" x="297.5" y="121.9707">+applyDateRangeFilter(startDate, endDate)</text><text fill="#000000" font-family="sans-serif" font-size="14" lengthAdjust="spacing" textLength="124" x="297.5" y="140.5918">+applySortByDate()</text></g><!--class Repositories--><g id="elem_Repositories"><rect codeLine="32" fill="#F1F1F1" height="66.6211" id="Repositories" rx="2.5" ry="2.5" style="stroke:#181818;stroke-width:0.5;" width="111" x="628" y="44"/><ellipse cx="643" cy="60" fill="#ADD1B2" rx="11" ry="11" style="stroke:#181818;stroke-width:1.0;"/><path d="M645.7656,55.875 Q645.9219,55.6563 646.1094,55.5469 Q646.2969,55.4375 646.5156,55.4375 Q646.8906,55.4375 647.125,55.7031 Q647.3594,55.9531 647.3594,56.5625 L647.3594,58.0156 Q647.3594,58.625 647.125,58.8906 Q646.8906,59.1563 646.5156,59.1563 Q646.1719,59.1563 645.9688,58.9531 Q645.7656,58.7656 645.6563,58.25 Q645.6094,57.8906 645.4219,57.7031 Q645.0938,57.3281 644.4844,57.1094 Q643.875,56.8906 643.25,56.8906 Q642.4844,56.8906 641.8438,57.2188 Q641.2188,57.5469 640.7188,58.2969 Q640.2344,59.0469 640.2344,60.0781 L640.2344,61.1719 Q640.2344,62.4063 641.125,63.2344 Q642.0156,64.0469 643.6094,64.0469 Q644.5469,64.0469 645.2031,63.7969 Q645.5938,63.6406 646.0156,63.2031 Q646.2813,62.9375 646.4219,62.8594 Q646.5781,62.7813 646.7813,62.7813 Q647.1094,62.7813 647.3594,63.0469 Q647.625,63.2969 647.625,63.6406 Q647.625,63.9844 647.2813,64.3906 Q646.7813,64.9688 645.9844,65.2969 Q644.9063,65.75 643.6094,65.75 Q642.0938,65.75 640.8906,65.125 Q639.9063,64.625 639.2188,63.5625 Q638.5313,62.4844 638.5313,61.2031 L638.5313,60.0469 Q638.5313,58.7188 639.1406,57.5781 Q639.7656,56.4219 640.8594,55.8125 Q641.9531,55.1875 643.1875,55.1875 Q643.9219,55.1875 644.5625,55.3594 Q645.2188,55.5156 645.7656,55.875 Z " fill="#000000"/><text fill="#000000" font-family="sans-serif" font-size="14" lengthAdjust="spacing" textLength="79" x="657" y="65.7969">Repositories</text><line style="stroke:#181818;stroke-width:0.5;" x1="629" x2="738" y1="76" y2="76"/><line style="stroke:#181818;stroke-width:0.5;" x1="629" x2="738" y1="84" y2="84"/><text fill="#000000" font-family="sans-serif" font-size="14" lengthAdjust="spacing" textLength="91" x="634" y="103.1074">+getInstance()</text></g><!--class ApplicationSession--><g id="elem_ApplicationSession"><rect codeLine="36" fill="#F1F1F1" height="66.6211" id="ApplicationSession" rx="2.5" ry="2.5" style="stroke:#181818;stroke-width:0.5;" width="151" x="7" y="209"/><ellipse cx="22" cy="225" fill="#ADD1B2" rx="11" ry="11" style="stroke:#181818;stroke-width:1.0;"/><path d="M24.7656,220.875 Q24.9219,220.6563 25.1094,220.5469 Q25.2969,220.4375 25.5156,220.4375 Q25.8906,220.4375 26.125,220.7031 Q26.3594,220.9531 26.3594,221.5625 L26.3594,223.0156 Q26.3594,223.625 26.125,223.8906 Q25.8906,224.1563 25.5156,224.1563 Q25.1719,224.1563 24.9688,223.9531 Q24.7656,223.7656 24.6563,223.25 Q24.6094,222.8906 24.4219,222.7031 Q24.0938,222.3281 23.4844,222.1094 Q22.875,221.8906 22.25,221.8906 Q21.4844,221.8906 20.8438,222.2188 Q20.2188,222.5469 19.7188,223.2969 Q19.2344,224.0469 19.2344,225.0781 L19.2344,226.1719 Q19.2344,227.4063 20.125,228.2344 Q21.0156,229.0469 22.6094,229.0469 Q23.5469,229.0469 24.2031,228.7969 Q24.5938,228.6406 25.0156,228.2031 Q25.2813,227.9375 25.4219,227.8594 Q25.5781,227.7813 25.7813,227.7813 Q26.1094,227.7813 26.3594,228.0469 Q26.625,228.2969 26.625,228.6406 Q26.625,228.9844 26.2813,229.3906 Q25.7813,229.9688 24.9844,230.2969 Q23.9063,230.75 22.6094,230.75 Q21.0938,230.75 19.8906,230.125 Q18.9063,229.625 18.2188,228.5625 Q17.5313,227.4844 17.5313,226.2031 L17.5313,225.0469 Q17.5313,223.7188 18.1406,222.5781 Q18.7656,221.4219 19.8594,220.8125 Q20.9531,220.1875 22.1875,220.1875 Q22.9219,220.1875 23.5625,220.3594 Q24.2188,220.5156 24.7656,220.875 Z " fill="#000000"/><text fill="#000000" font-family="sans-serif" font-size="14" lengthAdjust="spacing" textLength="119" x="36" y="230.7969">ApplicationSession</text><line style="stroke:#181818;stroke-width:0.5;" x1="8" x2="157" y1="241" y2="241"/><line style="stroke:#181818;stroke-width:0.5;" x1="8" x2="157" y1="249" y2="249"/><text fill="#000000" font-family="sans-serif" font-size="14" lengthAdjust="spacing" textLength="91" x="13" y="268.1074">+getInstance()</text></g><!--class UserSession--><g id="elem_UserSession"><rect codeLine="40" fill="#F1F1F1" height="66.6211" id="UserSession" rx="2.5" ry="2.5" style="stroke:#181818;stroke-width:0.5;" width="148" x="8.5" y="382.5"/><ellipse cx="40.15" cy="398.5" fill="#ADD1B2" rx="11" ry="11" style="stroke:#181818;stroke-width:1.0;"/><path d="M42.9156,394.375 Q43.0719,394.1563 43.2594,394.0469 Q43.4469,393.9375 43.6656,393.9375 Q44.0406,393.9375 44.275,394.2031 Q44.5094,394.4531 44.5094,395.0625 L44.5094,396.5156 Q44.5094,397.125 44.275,397.3906 Q44.0406,397.6563 43.6656,397.6563 Q43.3219,397.6563 43.1188,397.4531 Q42.9156,397.2656 42.8063,396.75 Q42.7594,396.3906 42.5719,396.2031 Q42.2438,395.8281 41.6344,395.6094 Q41.025,395.3906 40.4,395.3906 Q39.6344,395.3906 38.9938,395.7188 Q38.3688,396.0469 37.8688,396.7969 Q37.3844,397.5469 37.3844,398.5781 L37.3844,399.6719 Q37.3844,400.9063 38.275,401.7344 Q39.1656,402.5469 40.7594,402.5469 Q41.6969,402.5469 42.3531,402.2969 Q42.7438,402.1406 43.1656,401.7031 Q43.4313,401.4375 43.5719,401.3594 Q43.7281,401.2813 43.9313,401.2813 Q44.2594,401.2813 44.5094,401.5469 Q44.775,401.7969 44.775,402.1406 Q44.775,402.4844 44.4313,402.8906 Q43.9313,403.4688 43.1344,403.7969 Q42.0563,404.25 40.7594,404.25 Q39.2438,404.25 38.0406,403.625 Q37.0563,403.125 36.3688,402.0625 Q35.6813,400.9844 35.6813,399.7031 L35.6813,398.5469 Q35.6813,397.2188 36.2906,396.0781 Q36.9156,394.9219 38.0094,394.3125 Q39.1031,393.6875 40.3375,393.6875 Q41.0719,393.6875 41.7125,393.8594 Q42.3688,394.0156 42.9156,394.375 Z " fill="#000000"/><text fill="#000000" font-family="sans-serif" font-size="14" lengthAdjust="spacing" textLength="79" x="57.85" y="404.2969">UserSession</text><line style="stroke:#181818;stroke-width:0.5;" x1="9.5" x2="155.5" y1="414.5" y2="414.5"/><line style="stroke:#181818;stroke-width:0.5;" x1="9.5" x2="155.5" y1="422.5" y2="422.5"/><text fill="#000000" font-family="sans-serif" font-size="14" lengthAdjust="spacing" textLength="136" x="14.5" y="441.6074">+getCurrentSession()</text></g><!--class TaskRepository--><g id="elem_TaskRepository"><rect codeLine="44" fill="#F1F1F1" height="66.6211" id="TaskRepository" rx="2.5" ry="2.5" style="stroke:#181818;stroke-width:0.5;" width="149" x="616" y="209"/><ellipse cx="639.1" cy="225" fill="#ADD1B2" rx="11" ry="11" style="stroke:#181818;stroke-width:1.0;"/><path d="M641.8656,220.875 Q642.0219,220.6563 642.2094,220.5469 Q642.3969,220.4375 642.6156,220.4375 Q642.9906,220.4375 643.225,220.7031 Q643.4594,220.9531 643.4594,221.5625 L643.4594,223.0156 Q643.4594,223.625 643.225,223.8906 Q642.9906,224.1563 642.6156,224.1563 Q642.2719,224.1563 642.0688,223.9531 Q641.8656,223.7656 641.7563,223.25 Q641.7094,222.8906 641.5219,222.7031 Q641.1938,222.3281 640.5844,222.1094 Q639.975,221.8906 639.35,221.8906 Q638.5844,221.8906 637.9438,222.2188 Q637.3188,222.5469 636.8188,223.2969 Q636.3344,224.0469 636.3344,225.0781 L636.3344,226.1719 Q636.3344,227.4063 637.225,228.2344 Q638.1156,229.0469 639.7094,229.0469 Q640.6469,229.0469 641.3031,228.7969 Q641.6938,228.6406 642.1156,228.2031 Q642.3813,227.9375 642.5219,227.8594 Q642.6781,227.7813 642.8813,227.7813 Q643.2094,227.7813 643.4594,228.0469 Q643.725,228.2969 643.725,228.6406 Q643.725,228.9844 643.3813,229.3906 Q642.8813,229.9688 642.0844,230.2969 Q641.0063,230.75 639.7094,230.75 Q638.1938,230.75 636.9906,230.125 Q636.0063,229.625 635.3188,228.5625 Q634.6313,227.4844 634.6313,226.2031 L634.6313,225.0469 Q634.6313,223.7188 635.2406,222.5781 Q635.8656,221.4219 636.9594,220.8125 Q638.0531,220.1875 639.2875,220.1875 Q640.0219,220.1875 640.6625,220.3594 Q641.3188,220.5156 641.8656,220.875 Z " fill="#000000"/><text fill="#000000" font-family="sans-serif" font-size="14" lengthAdjust="spacing" textLength="99" x="654.9" y="230.7969">TaskRepository</text><line style="stroke:#181818;stroke-width:0.5;" x1="617" x2="764" y1="241" y2="241"/><line style="stroke:#181818;stroke-width:0.5;" x1="617" x2="764" y1="249" y2="249"/><text fill="#000000" font-family="sans-serif" font-size="14" lengthAdjust="spacing" textLength="137" x="622" y="268.1074">+getTaskRepository()</text></g><!--class Task--><g id="elem_Task"><rect codeLine="48" fill="#F1F1F1" height="85.2422" id="Task" rx="2.5" ry="2.5" style="stroke:#181818;stroke-width:0.5;" width="100" x="640.5" y="373.5"/><ellipse cx="672.15" cy="389.5" fill="#ADD1B2" rx="11" ry="11" style="stroke:#181818;stroke-width:1.0;"/><path d="M674.9156,385.375 Q675.0719,385.1563 675.2594,385.0469 Q675.4469,384.9375 675.6656,384.9375 Q676.0406,384.9375 676.275,385.2031 Q676.5094,385.4531 676.5094,386.0625 L676.5094,387.5156 Q676.5094,388.125 676.275,388.3906 Q676.0406,388.6563 675.6656,388.6563 Q675.3219,388.6563 675.1188,388.4531 Q674.9156,388.2656 674.8063,387.75 Q674.7594,387.3906 674.5719,387.2031 Q674.2438,386.8281 673.6344,386.6094 Q673.025,386.3906 672.4,386.3906 Q671.6344,386.3906 670.9938,386.7188 Q670.3688,387.0469 669.8688,387.7969 Q669.3844,388.5469 669.3844,389.5781 L669.3844,390.6719 Q669.3844,391.9063 670.275,392.7344 Q671.1656,393.5469 672.7594,393.5469 Q673.6969,393.5469 674.3531,393.2969 Q674.7438,393.1406 675.1656,392.7031 Q675.4313,392.4375 675.5719,392.3594 Q675.7281,392.2813 675.9313,392.2813 Q676.2594,392.2813 676.5094,392.5469 Q676.775,392.7969 676.775,393.1406 Q676.775,393.4844 676.4313,393.8906 Q675.9313,394.4688 675.1344,394.7969 Q674.0563,395.25 672.7594,395.25 Q671.2438,395.25 670.0406,394.625 Q669.0563,394.125 668.3688,393.0625 Q667.6813,391.9844 667.6813,390.7031 L667.6813,389.5469 Q667.6813,388.2188 668.2906,387.0781 Q668.9156,385.9219 670.0094,385.3125 Q671.1031,384.6875 672.3375,384.6875 Q673.0719,384.6875 673.7125,384.8594 Q674.3688,385.0156 674.9156,385.375 Z " fill="#000000"/><text fill="#000000" font-family="sans-serif" font-size="14" lengthAdjust="spacing" textLength="31" x="689.85" y="395.2969">Task</text><line style="stroke:#181818;stroke-width:0.5;" x1="641.5" x2="739.5" y1="405.5" y2="405.5"/><text fill="#000000" font-family="sans-serif" font-size="14" lengthAdjust="spacing" textLength="88" x="646.5" y="424.6074">-status: String</text><text fill="#000000" font-family="sans-serif" font-size="14" lengthAdjust="spacing" textLength="71" x="646.5" y="443.2285">-date: Date</text><line style="stroke:#181818;stroke-width:0.5;" x1="641.5" x2="739.5" y1="450.7422" y2="450.7422"/></g><!--link ApplicationSession to ApplicationSession--><g id="link_ApplicationSession_ApplicationSession"><path codeLine="53" d="M158.16,230.61 C178,231.32 193,235.28 193,242.5 C193,249.72 183.9962,253.4654 164.1562,254.1754 " fill="none" id="ApplicationSession-to-ApplicationSession" style="stroke:#181818;stroke-width:1.0;"/><polygon fill="#181818" points="158.16,254.39,167.2973,258.0656,163.1568,254.2112,167.0112,250.0707,158.16,254.39" style="stroke:#181818;stroke-width:1.0;"/><text fill="#000000" font-family="sans-serif" font-size="13" lengthAdjust="spacing" textLength="75" x="199" y="248.0283">getInstance()</text></g><!--link ApplicationSession to UserSession--><g id="link_ApplicationSession_UserSession"><path codeLine="54" d="M82.5,276.16 C82.5,306.68 82.5,345.98 82.5,376.46 " fill="none" id="ApplicationSession-to-UserSession" style="stroke:#181818;stroke-width:1.0;"/><polygon fill="#181818" points="82.5,382.46,86.5,373.46,82.5,377.46,78.5,373.46,82.5,382.46" style="stroke:#181818;stroke-width:1.0;"/><text fill="#000000" font-family="sans-serif" font-size="13" lengthAdjust="spacing" textLength="53" x="83.5" y="321.0283">manages</text><text fill="#000000" font-family="sans-serif" font-size="13" lengthAdjust="spacing" textLength="7" x="74.8109" y="371.2776">1</text></g><!--link TaskListController to Collaborator--><g id="link_TaskListController_Collaborator"><path codeLine="56" d="M421.84,148.1 C417.69,169.21 414.4833,185.5219 411.0633,202.9819 " fill="none" id="TaskListController-to-Collaborator" style="stroke:#181818;stroke-width:1.0;"/><polygon fill="#181818" points="409.91,208.87,415.5654,200.8067,410.8711,203.9632,407.7146,199.2689,409.91,208.87" style="stroke:#181818;stroke-width:1.0;"/></g><!--link TaskListController to Repositories--><g id="link_TaskListController_Repositories"><path codeLine="57" d="M579.54,77.5 C591.72,77.5 600.83,77.5 600.83,77.5 C600.83,77.5 606.95,77.5 621.9,77.5 " fill="none" id="TaskListController-to-Repositories" style="stroke:#181818;stroke-width:1.0;"/><polygon fill="#181818" points="627.9,77.5,618.9,73.5,622.9,77.5,618.9,81.5,627.9,77.5" style="stroke:#181818;stroke-width:1.0;"/></g><!--link TaskListController to ApplicationSession--><g id="link_TaskListController_ApplicationSession"><path codeLine="58" d="M291.41,145.03 C243.75,167.04 198.2775,188.0451 158.6375,206.3451 " fill="none" id="TaskListController-to-ApplicationSession" style="stroke:#181818;stroke-width:1.0;stroke-dasharray:7.0,7.0;"/><polygon fill="#181818" points="153.19,208.86,163.0379,208.7194,157.7296,206.7643,159.6847,201.456,153.19,208.86" style="stroke:#181818;stroke-width:1.0;"/></g><!--link Collaborator to TaskListUI--><g id="link_Collaborator_TaskListUI"><path codeLine="60" d="M411.69,276.16 C417.24,298.32 423.3012,322.4601 429.9212,348.8701 " fill="none" id="Collaborator-to-TaskListUI" style="stroke:#181818;stroke-width:1.0;"/><polygon fill="#181818" points="431.38,354.69,433.0717,344.9875,430.1643,349.84,425.3118,346.9326,431.38,354.69" style="stroke:#181818;stroke-width:1.0;"/></g><!--link TaskListUI to TaskListController--><g id="link_TaskListUI_TaskListController"><path codeLine="61" d="M481.12,354.84 C502.74,317.27 526.5,276 526.5,276 C526.5,276 526.5,209 526.5,209 C526.5,209 509.2611,184.2822 487.6311,153.2522 " fill="none" id="TaskListUI-to-TaskListController" style="stroke:#181818;stroke-width:1.0;"/><polygon fill="#181818" points="484.2,148.33,486.0652,158.0006,487.0592,152.4318,492.6281,153.4259,484.2,148.33" style="stroke:#181818;stroke-width:1.0;"/></g><!--link Repositories to TaskRepository--><g id="link_Repositories_TaskRepository"><path codeLine="63" d="M684.9,111.09 C686.12,139.52 687.6226,174.5555 688.8426,202.9655 " fill="none" id="Repositories-to-TaskRepository" style="stroke:#181818;stroke-width:1.0;"/><polygon fill="#181818" points="689.1,208.96,692.7102,199.7967,688.8855,203.9646,684.7176,200.1399,689.1,208.96" style="stroke:#181818;stroke-width:1.0;"/></g><!--link TaskRepository to Task--><g id="link_TaskRepository_Task"><path codeLine="64" d="M690.5,276.16 C690.5,303.76 690.5,337.46 690.5,367.34 " fill="none" id="TaskRepository-to-Task" style="stroke:#181818;stroke-width:1.0;"/><polygon fill="#181818" points="690.5,373.34,694.5,364.34,690.5,368.34,686.5,364.34,690.5,373.34" style="stroke:#181818;stroke-width:1.0;"/></g><!--SRC=[pPJ1Rjim38RlV0gYbtROMcpN70fq6Ge4wAbU7u2rMKU88haYZS4RzkwZqgIMEmtRSJx5vFyf_2dIvx9pOQ14Uzp74DjjYdj6JIF3d1cetL7FZKwUCN6h57fV2cHBNVpcGezFvANCU1TOfu5nY7xABm3dbMnC6g70MayYDwh9FOxAcpQ6ndrd_6YqvoT5ZPXSlrNiNAx7nG001mZNqNjwZ8aq9lm1QCzxx5dB-AsvR5Z4k8jtyFE4VYNPtJdHXyqhcFXvPD6SkUSXYZDwCkObIyFWfvnhb7IKM-ULquMmjvguUmakj5z8-TwwnoUfKj8S_80SklnZ8M-iBvyFKAtCTGoQp1N_ey__rz5h8OwbzB89Tbne5zeREyQrbE_yQErln8DmgaZNOqeSz0zpCFUcP7xhse8vAYzH3drQOMC37FfZi3FJAypMCrMnSNbTCxTwOwi66ddswMnXT8Lx2hQq0b2PbqoKWrBLN2_kfIQvkggL3B3OmVnVysP1iMHbPZuLO34E9z7STdXpFoU5VG9-0G00]--></g></svg>