<?xml version="1.0" encoding="us-ascii" standalone="no"?><svg xmlns="http://www.w3.org/2000/svg" xmlns:xlink="http://www.w3.org/1999/xlink" contentStyleType="text/css" height="929px" preserveAspectRatio="none" style="width:1294px;height:929px;background:#FFFFFF;" version="1.1" viewBox="0 0 1294 929" width="1294px" zoomAndPan="magnify"><defs/><g><text fill="#000000" font-family="sans-serif" font-size="14" font-weight="bold" lengthAdjust="spacing" textLength="205" x="540.5" y="44.4082">US022 &#180;'Add Entry to Agenda&#180;'</text><rect fill="#FFFFFF" height="681.1113" style="stroke:#181818;stroke-width:1.0;" width="10" x="17.5" y="147.543"/><rect fill="#FFFFFF" height="186.4551" style="stroke:#181818;stroke-width:1.0;" width="10" x="340.5" y="170.834"/><rect fill="#FFFFFF" height="440.0742" style="stroke:#181818;stroke-width:1.0;" width="10" x="340.5" y="388.5801"/><rect fill="#FFFFFF" height="31.291" style="stroke:#181818;stroke-width:1.0;" width="10" x="574.5" y="578.3262"/><rect fill="#FFFFFF" height="31.291" style="stroke:#181818;stroke-width:1.0;" width="10" x="574.5" y="640.9082"/><rect fill="#FFFFFF" height="31.291" style="stroke:#181818;stroke-width:1.0;" width="10" x="574.5" y="703.4902"/><rect fill="#FFFFFF" height="31.291" style="stroke:#181818;stroke-width:1.0;" width="10" x="574.5" y="766.0723"/><rect fill="#FFFFFF" height="61.291" style="stroke:#181818;stroke-width:1.0;" width="10" x="833.5" y="202.125"/><rect fill="#FFFFFF" height="31.291" style="stroke:#181818;stroke-width:1.0;" width="10" x="833.5" y="294.707"/><rect fill="#FFFFFF" height="31.291" style="stroke:#181818;stroke-width:1.0;" width="10" x="833.5" y="446.1621"/><rect fill="#FFFFFF" height="31.291" style="stroke:#181818;stroke-width:1.0;" width="10" x="833.5" y="508.7441"/><rect fill="#FFFFFF" height="31.291" style="stroke:#181818;stroke-width:1.0;" width="10" x="979.5" y="734.7813"/><rect fill="#FFFFFF" height="61.291" style="stroke:#181818;stroke-width:1.0;" width="10" x="1128.5" y="233.416"/><rect fill="#FFFFFF" height="31.291" style="stroke:#181818;stroke-width:1.0;" width="10" x="1128.5" y="477.4531"/><rect fill="#FFFFFF" height="31.291" style="stroke:#181818;stroke-width:1.0;" width="10" x="1243.5" y="609.6172"/><rect fill="none" height="144.4551" style="stroke:#000000;stroke-width:1.5;" width="962" x="253" y="403.5801"/><line style="stroke:#181818;stroke-width:0.5;stroke-dasharray:5.0,5.0;" x1="22" x2="22" y1="137.543" y2="846.6543"/><line style="stroke:#181818;stroke-width:0.5;stroke-dasharray:5.0,5.0;" x1="345" x2="345" y1="137.543" y2="846.6543"/><line style="stroke:#181818;stroke-width:0.5;stroke-dasharray:5.0,5.0;" x1="579" x2="579" y1="137.543" y2="846.6543"/><line style="stroke:#181818;stroke-width:0.5;stroke-dasharray:5.0,5.0;" x1="838" x2="838" y1="137.543" y2="846.6543"/><line style="stroke:#181818;stroke-width:0.5;stroke-dasharray:5.0,5.0;" x1="984" x2="984" y1="137.543" y2="846.6543"/><line style="stroke:#181818;stroke-width:0.5;stroke-dasharray:5.0,5.0;" x1="1133" x2="1133" y1="137.543" y2="846.6543"/><line style="stroke:#181818;stroke-width:0.5;stroke-dasharray:5.0,5.0;" x1="1248" x2="1248" y1="137.543" y2="846.6543"/><text fill="#000000" font-family="sans-serif" font-size="14" lengthAdjust="spacing" textLength="29" x="5" y="134.0293">User</text><ellipse cx="22.5" cy="67.4219" fill="#E3E3E3" rx="8" ry="8" style="stroke:#181818;stroke-width:0.5;"/><path d="M22.5,75.4219 L22.5,102.4219 M9.5,83.4219 L35.5,83.4219 M22.5,102.4219 L9.5,117.4219 M22.5,102.4219 L35.5,117.4219 " fill="none" style="stroke:#181818;stroke-width:0.5;"/><text fill="#000000" font-family="sans-serif" font-size="14" lengthAdjust="spacing" textLength="29" x="5" y="860.7617">User</text><ellipse cx="22.5" cy="872.7754" fill="#E3E3E3" rx="8" ry="8" style="stroke:#181818;stroke-width:0.5;"/><path d="M22.5,880.7754 L22.5,907.7754 M9.5,888.7754 L35.5,888.7754 M22.5,907.7754 L9.5,922.7754 M22.5,907.7754 L35.5,922.7754 " fill="none" style="stroke:#181818;stroke-width:0.5;"/><rect fill="#E3E3E3" height="32.6211" rx="2.5" ry="2.5" style="stroke:#181818;stroke-width:0.5;" width="165" x="263" y="103.9219"/><text fill="#000000" font-family="sans-serif" font-size="14" lengthAdjust="spacing" textLength="151" x="270" y="126.0293">:AddEntryToAgendaGUI</text><rect fill="#E3E3E3" height="32.6211" rx="2.5" ry="2.5" style="stroke:#181818;stroke-width:0.5;" width="165" x="263" y="845.6543"/><text fill="#000000" font-family="sans-serif" font-size="14" lengthAdjust="spacing" textLength="151" x="270" y="867.7617">:AddEntryToAgendaGUI</text><rect fill="#E3E3E3" height="32.6211" rx="2.5" ry="2.5" style="stroke:#181818;stroke-width:0.5;" width="129" x="515" y="103.9219"/><text fill="#000000" font-family="sans-serif" font-size="14" lengthAdjust="spacing" textLength="115" x="522" y="126.0293">:AgendaController</text><rect fill="#E3E3E3" height="32.6211" rx="2.5" ry="2.5" style="stroke:#181818;stroke-width:0.5;" width="129" x="515" y="845.6543"/><text fill="#000000" font-family="sans-serif" font-size="14" lengthAdjust="spacing" textLength="115" x="522" y="867.7617">:AgendaController</text><rect fill="#E3E3E3" height="32.6211" rx="2.5" ry="2.5" style="stroke:#181818;stroke-width:0.5;" width="137" x="770" y="103.9219"/><text fill="#000000" font-family="sans-serif" font-size="14" lengthAdjust="spacing" textLength="123" x="777" y="126.0293">:ToDoListController</text><rect fill="#E3E3E3" height="32.6211" rx="2.5" ry="2.5" style="stroke:#181818;stroke-width:0.5;" width="137" x="770" y="845.6543"/><text fill="#000000" font-family="sans-serif" font-size="14" lengthAdjust="spacing" textLength="123" x="777" y="867.7617">:ToDoListController</text><rect fill="#E3E3E3" height="32.6211" rx="2.5" ry="2.5" style="stroke:#181818;stroke-width:0.5;" width="135" x="917" y="103.9219"/><text fill="#000000" font-family="sans-serif" font-size="14" lengthAdjust="spacing" textLength="121" x="924" y="126.0293">:AgendaRepository</text><rect fill="#E3E3E3" height="32.6211" rx="2.5" ry="2.5" style="stroke:#181818;stroke-width:0.5;" width="135" x="917" y="845.6543"/><text fill="#000000" font-family="sans-serif" font-size="14" lengthAdjust="spacing" textLength="121" x="924" y="867.7617">:AgendaRepository</text><rect fill="#E3E3E3" height="32.6211" rx="2.5" ry="2.5" style="stroke:#181818;stroke-width:0.5;" width="143" x="1062" y="103.9219"/><text fill="#000000" font-family="sans-serif" font-size="14" lengthAdjust="spacing" textLength="129" x="1069" y="126.0293">:ToDoListRepository</text><rect fill="#E3E3E3" height="32.6211" rx="2.5" ry="2.5" style="stroke:#181818;stroke-width:0.5;" width="143" x="1062" y="845.6543"/><text fill="#000000" font-family="sans-serif" font-size="14" lengthAdjust="spacing" textLength="129" x="1069" y="867.7617">:ToDoListRepository</text><rect fill="#E3E3E3" height="32.6211" rx="2.5" ry="2.5" style="stroke:#181818;stroke-width:0.5;" width="67" x="1215" y="103.9219"/><text fill="#000000" font-family="sans-serif" font-size="14" lengthAdjust="spacing" textLength="53" x="1222" y="126.0293">:Agenda</text><rect fill="#E3E3E3" height="32.6211" rx="2.5" ry="2.5" style="stroke:#181818;stroke-width:0.5;" width="67" x="1215" y="845.6543"/><text fill="#000000" font-family="sans-serif" font-size="14" lengthAdjust="spacing" textLength="53" x="1222" y="867.7617">:Agenda</text><rect fill="#FFFFFF" height="681.1113" style="stroke:#181818;stroke-width:1.0;" width="10" x="17.5" y="147.543"/><rect fill="#FFFFFF" height="186.4551" style="stroke:#181818;stroke-width:1.0;" width="10" x="340.5" y="170.834"/><rect fill="#FFFFFF" height="440.0742" style="stroke:#181818;stroke-width:1.0;" width="10" x="340.5" y="388.5801"/><rect fill="#FFFFFF" height="31.291" style="stroke:#181818;stroke-width:1.0;" width="10" x="574.5" y="578.3262"/><rect fill="#FFFFFF" height="31.291" style="stroke:#181818;stroke-width:1.0;" width="10" x="574.5" y="640.9082"/><rect fill="#FFFFFF" height="31.291" style="stroke:#181818;stroke-width:1.0;" width="10" x="574.5" y="703.4902"/><rect fill="#FFFFFF" height="31.291" style="stroke:#181818;stroke-width:1.0;" width="10" x="574.5" y="766.0723"/><rect fill="#FFFFFF" height="61.291" style="stroke:#181818;stroke-width:1.0;" width="10" x="833.5" y="202.125"/><rect fill="#FFFFFF" height="31.291" style="stroke:#181818;stroke-width:1.0;" width="10" x="833.5" y="294.707"/><rect fill="#FFFFFF" height="31.291" style="stroke:#181818;stroke-width:1.0;" width="10" x="833.5" y="446.1621"/><rect fill="#FFFFFF" height="31.291" style="stroke:#181818;stroke-width:1.0;" width="10" x="833.5" y="508.7441"/><rect fill="#FFFFFF" height="31.291" style="stroke:#181818;stroke-width:1.0;" width="10" x="979.5" y="734.7813"/><rect fill="#FFFFFF" height="61.291" style="stroke:#181818;stroke-width:1.0;" width="10" x="1128.5" y="233.416"/><rect fill="#FFFFFF" height="31.291" style="stroke:#181818;stroke-width:1.0;" width="10" x="1128.5" y="477.4531"/><rect fill="#FFFFFF" height="31.291" style="stroke:#181818;stroke-width:1.0;" width="10" x="1243.5" y="609.6172"/><polygon fill="#181818" points="328.5,166.834,338.5,170.834,328.5,174.834,332.5,170.834" style="stroke:#181818;stroke-width:1.0;"/><line style="stroke:#181818;stroke-width:1.0;" x1="27.5" x2="334.5" y1="170.834" y2="170.834"/><text fill="#000000" font-family="sans-serif" font-size="13" font-weight="bold" lengthAdjust="spacing" textLength="7" x="34.5" y="165.5713">1</text><text fill="#000000" font-family="sans-serif" font-size="13" lengthAdjust="spacing" textLength="217" x="45.5" y="165.5713">Request to add a entry to the Agenda</text><polygon fill="#181818" points="821.5,198.125,831.5,202.125,821.5,206.125,825.5,202.125" style="stroke:#181818;stroke-width:1.0;"/><line style="stroke:#181818;stroke-width:1.0;" x1="350.5" x2="827.5" y1="202.125" y2="202.125"/><text fill="#000000" font-family="sans-serif" font-size="13" font-weight="bold" lengthAdjust="spacing" textLength="7" x="357.5" y="196.8623">2</text><text fill="#000000" font-family="sans-serif" font-size="13" lengthAdjust="spacing" textLength="453" x="368.5" y="196.8623">getToDoListEntries(email) -- AC01 only retrieves entries associated to the user</text><polygon fill="#181818" points="1116.5,229.416,1126.5,233.416,1116.5,237.416,1120.5,233.416" style="stroke:#181818;stroke-width:1.0;"/><line style="stroke:#181818;stroke-width:1.0;" x1="843.5" x2="1122.5" y1="233.416" y2="233.416"/><text fill="#000000" font-family="sans-serif" font-size="13" font-weight="bold" lengthAdjust="spacing" textLength="7" x="850.5" y="228.1533">3</text><text fill="#000000" font-family="sans-serif" font-size="13" lengthAdjust="spacing" textLength="149" x="861.5" y="228.1533">getToDoListEntries(email)</text><polygon fill="#181818" points="854.5,290.707,844.5,294.707,854.5,298.707,850.5,294.707" style="stroke:#181818;stroke-width:1.0;"/><line style="stroke:#181818;stroke-width:1.0;stroke-dasharray:2.0,2.0;" x1="848.5" x2="1132.5" y1="294.707" y2="294.707"/><text fill="#000000" font-family="sans-serif" font-size="13" font-weight="bold" lengthAdjust="spacing" textLength="7" x="860.5" y="289.4443">4</text><text fill="#000000" font-family="sans-serif" font-size="13" lengthAdjust="spacing" textLength="158" x="871.5" y="289.4443">returns list of To Do Entries</text><polygon fill="#181818" points="361.5,321.998,351.5,325.998,361.5,329.998,357.5,325.998" style="stroke:#181818;stroke-width:1.0;"/><line style="stroke:#181818;stroke-width:1.0;stroke-dasharray:2.0,2.0;" x1="355.5" x2="837.5" y1="325.998" y2="325.998"/><text fill="#000000" font-family="sans-serif" font-size="13" font-weight="bold" lengthAdjust="spacing" textLength="7" x="367.5" y="320.7354">5</text><text fill="#000000" font-family="sans-serif" font-size="13" lengthAdjust="spacing" textLength="158" x="378.5" y="320.7354">returns list of To Do Entries</text><polygon fill="#181818" points="38.5,353.2891,28.5,357.2891,38.5,361.2891,34.5,357.2891" style="stroke:#181818;stroke-width:1.0;"/><line style="stroke:#181818;stroke-width:1.0;stroke-dasharray:2.0,2.0;" x1="32.5" x2="344.5" y1="357.2891" y2="357.2891"/><text fill="#000000" font-family="sans-serif" font-size="13" font-weight="bold" lengthAdjust="spacing" textLength="7" x="44.5" y="352.0264">6</text><text fill="#000000" font-family="sans-serif" font-size="13" lengthAdjust="spacing" textLength="278" x="55.5" y="352.0264">asks user to select a entry to add to the agenda</text><polygon fill="#181818" points="328.5,384.5801,338.5,388.5801,328.5,392.5801,332.5,388.5801" style="stroke:#181818;stroke-width:1.0;"/><line style="stroke:#181818;stroke-width:1.0;" x1="27.5" x2="334.5" y1="388.5801" y2="388.5801"/><text fill="#000000" font-family="sans-serif" font-size="13" font-weight="bold" lengthAdjust="spacing" textLength="7" x="34.5" y="383.3174">7</text><text fill="#000000" font-family="sans-serif" font-size="13" lengthAdjust="spacing" textLength="86" x="45.5" y="383.3174">selects a entry</text><path d="M253,403.5801 L326,403.5801 L326,412.8711 L316,422.8711 L253,422.8711 L253,403.5801 " fill="#EEEEEE" style="stroke:#000000;stroke-width:1.5;"/><rect fill="none" height="144.4551" style="stroke:#000000;stroke-width:1.5;" width="962" x="253" y="403.5801"/><text fill="#000000" font-family="sans-serif" font-size="13" font-weight="bold" lengthAdjust="spacing" textLength="28" x="268" y="418.6084">loop</text><text fill="#000000" font-family="sans-serif" font-size="11" font-weight="bold" lengthAdjust="spacing" textLength="194" x="341" y="417.4502">[if entry exists in To Do List (AC02)]</text><polygon fill="#181818" points="821.5,442.1621,831.5,446.1621,821.5,450.1621,825.5,446.1621" style="stroke:#181818;stroke-width:1.0;"/><line style="stroke:#181818;stroke-width:1.0;" x1="350.5" x2="827.5" y1="446.1621" y2="446.1621"/><text fill="#000000" font-family="sans-serif" font-size="13" font-weight="bold" lengthAdjust="spacing" textLength="7" x="357.5" y="440.8994">8</text><text fill="#000000" font-family="sans-serif" font-size="13" lengthAdjust="spacing" textLength="72" x="368.5" y="440.8994">exists(entry)</text><polygon fill="#181818" points="1116.5,473.4531,1126.5,477.4531,1116.5,481.4531,1120.5,477.4531" style="stroke:#181818;stroke-width:1.0;"/><line style="stroke:#181818;stroke-width:1.0;" x1="838.5" x2="1122.5" y1="477.4531" y2="477.4531"/><text fill="#000000" font-family="sans-serif" font-size="13" font-weight="bold" lengthAdjust="spacing" textLength="7" x="845.5" y="472.1904">9</text><text fill="#000000" font-family="sans-serif" font-size="13" lengthAdjust="spacing" textLength="72" x="856.5" y="472.1904">exists(entry)</text><polygon fill="#181818" points="854.5,504.7441,844.5,508.7441,854.5,512.7441,850.5,508.7441" style="stroke:#181818;stroke-width:1.0;"/><line style="stroke:#181818;stroke-width:1.0;stroke-dasharray:2.0,2.0;" x1="848.5" x2="1132.5" y1="508.7441" y2="508.7441"/><text fill="#000000" font-family="sans-serif" font-size="13" font-weight="bold" lengthAdjust="spacing" textLength="14" x="860.5" y="503.4814">10</text><text fill="#000000" font-family="sans-serif" font-size="13" lengthAdjust="spacing" textLength="112" x="878.5" y="503.4814">returns true or false</text><polygon fill="#181818" points="361.5,536.0352,351.5,540.0352,361.5,544.0352,357.5,540.0352" style="stroke:#181818;stroke-width:1.0;"/><line style="stroke:#181818;stroke-width:1.0;stroke-dasharray:2.0,2.0;" x1="355.5" x2="837.5" y1="540.0352" y2="540.0352"/><text fill="#000000" font-family="sans-serif" font-size="13" font-weight="bold" lengthAdjust="spacing" textLength="14" x="367.5" y="534.7725">11</text><text fill="#000000" font-family="sans-serif" font-size="13" lengthAdjust="spacing" textLength="112" x="385.5" y="534.7725">returns true or false</text><polygon fill="#181818" points="562.5,574.3262,572.5,578.3262,562.5,582.3262,566.5,578.3262" style="stroke:#181818;stroke-width:1.0;"/><line style="stroke:#181818;stroke-width:1.0;" x1="350.5" x2="568.5" y1="578.3262" y2="578.3262"/><text fill="#000000" font-family="sans-serif" font-size="13" font-weight="bold" lengthAdjust="spacing" textLength="14" x="357.5" y="573.0635">12</text><text fill="#000000" font-family="sans-serif" font-size="13" lengthAdjust="spacing" textLength="148" x="375.5" y="573.0635">saveEntryInAgenda(entry)</text><polygon fill="#181818" points="1231.5,605.6172,1241.5,609.6172,1231.5,613.6172,1235.5,609.6172" style="stroke:#181818;stroke-width:1.0;"/><line style="stroke:#181818;stroke-width:1.0;" x1="579.5" x2="1237.5" y1="609.6172" y2="609.6172"/><text fill="#000000" font-family="sans-serif" font-size="13" font-weight="bold" lengthAdjust="spacing" textLength="14" x="586.5" y="604.3545">13</text><text fill="#000000" font-family="sans-serif" font-size="13" lengthAdjust="spacing" textLength="148" x="604.5" y="604.3545">saveEntryInAgenda(entry)</text><polygon fill="#181818" points="595.5,636.9082,585.5,640.9082,595.5,644.9082,591.5,640.9082" style="stroke:#181818;stroke-width:1.0;"/><line style="stroke:#181818;stroke-width:1.0;stroke-dasharray:2.0,2.0;" x1="589.5" x2="1247.5" y1="640.9082" y2="640.9082"/><text fill="#000000" font-family="sans-serif" font-size="13" font-weight="bold" lengthAdjust="spacing" textLength="14" x="601.5" y="635.6455">14</text><text fill="#000000" font-family="sans-serif" font-size="13" lengthAdjust="spacing" textLength="131" x="619.5" y="635.6455">in(sucess) of operation</text><polygon fill="#181818" points="361.5,668.1992,351.5,672.1992,361.5,676.1992,357.5,672.1992" style="stroke:#181818;stroke-width:1.0;"/><line style="stroke:#181818;stroke-width:1.0;stroke-dasharray:2.0,2.0;" x1="355.5" x2="578.5" y1="672.1992" y2="672.1992"/><text fill="#000000" font-family="sans-serif" font-size="13" font-weight="bold" lengthAdjust="spacing" textLength="14" x="367.5" y="666.9365">15</text><text fill="#000000" font-family="sans-serif" font-size="13" lengthAdjust="spacing" textLength="131" x="385.5" y="666.9365">in(sucess) of operation</text><polygon fill="#181818" points="562.5,699.4902,572.5,703.4902,562.5,707.4902,566.5,703.4902" style="stroke:#181818;stroke-width:1.0;"/><line style="stroke:#181818;stroke-width:1.0;" x1="350.5" x2="568.5" y1="703.4902" y2="703.4902"/><text fill="#000000" font-family="sans-serif" font-size="13" font-weight="bold" lengthAdjust="spacing" textLength="14" x="357.5" y="698.2275">16</text><text fill="#000000" font-family="sans-serif" font-size="13" lengthAdjust="spacing" textLength="89" x="375.5" y="698.2275">addEntry(entry)</text><polygon fill="#181818" points="967.5,730.7813,977.5,734.7813,967.5,738.7813,971.5,734.7813" style="stroke:#181818;stroke-width:1.0;"/><line style="stroke:#181818;stroke-width:1.0;" x1="579.5" x2="973.5" y1="734.7813" y2="734.7813"/><text fill="#000000" font-family="sans-serif" font-size="13" font-weight="bold" lengthAdjust="spacing" textLength="14" x="586.5" y="729.5186">17</text><text fill="#000000" font-family="sans-serif" font-size="13" lengthAdjust="spacing" textLength="89" x="604.5" y="729.5186">addEntry(entry)</text><polygon fill="#181818" points="595.5,762.0723,585.5,766.0723,595.5,770.0723,591.5,766.0723" style="stroke:#181818;stroke-width:1.0;"/><line style="stroke:#181818;stroke-width:1.0;stroke-dasharray:2.0,2.0;" x1="589.5" x2="983.5" y1="766.0723" y2="766.0723"/><text fill="#000000" font-family="sans-serif" font-size="13" font-weight="bold" lengthAdjust="spacing" textLength="14" x="601.5" y="760.8096">18</text><text fill="#000000" font-family="sans-serif" font-size="13" lengthAdjust="spacing" textLength="182" x="619.5" y="760.8096">returns in(success) of operation</text><polygon fill="#181818" points="361.5,793.3633,351.5,797.3633,361.5,801.3633,357.5,797.3633" style="stroke:#181818;stroke-width:1.0;"/><line style="stroke:#181818;stroke-width:1.0;stroke-dasharray:2.0,2.0;" x1="355.5" x2="578.5" y1="797.3633" y2="797.3633"/><text fill="#000000" font-family="sans-serif" font-size="13" font-weight="bold" lengthAdjust="spacing" textLength="14" x="367.5" y="792.1006">19</text><text fill="#000000" font-family="sans-serif" font-size="13" lengthAdjust="spacing" textLength="182" x="385.5" y="792.1006">returns in(success) of operation</text><polygon fill="#181818" points="33.5,824.6543,23.5,828.6543,33.5,832.6543,29.5,828.6543" style="stroke:#181818;stroke-width:1.0;"/><line style="stroke:#181818;stroke-width:1.0;stroke-dasharray:2.0,2.0;" x1="27.5" x2="344.5" y1="828.6543" y2="828.6543"/><text fill="#000000" font-family="sans-serif" font-size="13" font-weight="bold" lengthAdjust="spacing" textLength="14" x="39.5" y="823.3916">20</text><text fill="#000000" font-family="sans-serif" font-size="13" lengthAdjust="spacing" textLength="151" x="57.5" y="823.3916">entry added to the agenda</text><text fill="#888888" font-family="sans-serif" font-size="10" lengthAdjust="spacing" textLength="32" x="1254" y="15.791">US022</text><!--SRC=[hPJ1Rjim38RlVWgYboM705sEEGm8sc8ei5ERF00dCuaGH_94ELlUQq-m9nibsR7dgKqop3TRv4Vo_sNoNfiQ7HxWO8rLEsSF1DurLF3vf4Qrnosz-bD5u4XvDDjg6C0xBErtRRQmmOgfABps4hf-lP_FuTVF3ykoX2VZtGcyXUMMJ8dojTWHbkHIM86DjwOvV2LN5AYyTN2tPd9tW0mD5rB8QwLhD1xk5WACl9LDjC_hvnIenu7n-C5AiAsg5eTg5BMoZ_QBPZ-AyofBUw7QifOEJudctg2DuhpBqX8ZpgoFw2aC2_8q3BDFCX0iu8M-DSG-Y8UY909rMleTjNh6d9wXutlawC3nIZXRybrlGJrDFA43wceAinai7-u_WZNLIHmEPqVYM4UYf4EsIWkux8esOisvnBci2DPzauAXh7klR0RGGqlAOftqciQHDXjd62hXWjt0oiAZXRP25dEvuqxnszdg3y43XuM3lEUeLT2DgP9_PsXVSBCL57iNH-YXb_sTI33kQ7zFDaYhhAr1Rzgwz4E6Oj2cdIhu0XEnVpxDNPeKFecvqsijpoVbzShvCx3vx4LOIY1h8QsO_-FlPMQVB_wCzC7G7kEHuYvwDkbFV5Cg7CuSywz97pI36T7wAuDnF5GBiNR2ZIBcQRYxjYQ7NbkJHLviivFi5gZA2ONjphv17_TEsYLT1fV1jSeCZ4_JN3cEkrgaVyBdLqVwMMLwkcv75CNmdOlV]--></g></svg>