<?xml version="1.0" encoding="us-ascii" standalone="no"?><svg xmlns="http://www.w3.org/2000/svg" xmlns:xlink="http://www.w3.org/1999/xlink" contentStyleType="text/css" height="389px" preserveAspectRatio="none" style="width:566px;height:389px;background:#FFFFFF;" version="1.1" viewBox="0 0 566 389" width="566px" zoomAndPan="magnify"><defs/><g><!--class Runnable--><g id="elem_Runnable"><rect codeLine="11" fill="#F1F1F1" height="66.6211" id="Runnable" rx="2.5" ry="2.5" style="stroke:#181818;stroke-width:0.5;" width="93" x="7" y="7"/><ellipse cx="22" cy="23" fill="#B4A7E5" rx="11" ry="11" style="stroke:#181818;stroke-width:1.0;"/><path d="M23.0156,27.875 L23.75,27.875 L23.75,29.8594 L20.2188,29.8594 L20.2188,27.875 L20.9531,27.875 L20.9531,18.375 L20.2188,18.375 L20.2188,16.3906 L23.75,16.3906 L23.75,18.375 L23.0156,18.375 L23.0156,27.875 Z " fill="#000000"/><text fill="#000000" font-family="sans-serif" font-size="14" font-style="italic" lengthAdjust="spacing" textLength="61" x="36" y="28.7969">Runnable</text><line style="stroke:#181818;stroke-width:0.5;" x1="8" x2="99" y1="39" y2="39"/><line style="stroke:#181818;stroke-width:0.5;" x1="8" x2="99" y1="47" y2="47"/><text fill="#000000" font-family="sans-serif" font-size="14" lengthAdjust="spacing" textLength="39" x="13" y="66.1074">+run()</text></g><!--class ToDoListController--><g id="elem_ToDoListController"><rect codeLine="15" fill="#F1F1F1" height="85.2422" id="ToDoListController" rx="2.5" ry="2.5" style="stroke:#181818;stroke-width:0.5;" width="184" x="32.5" y="152.5"/><ellipse cx="62.35" cy="168.5" fill="#ADD1B2" rx="11" ry="11" style="stroke:#181818;stroke-width:1.0;"/><path d="M65.8656,169.8594 Q65.6469,173.2344 64.5063,174.3594 Q63.5063,175.3594 62.1313,175.3594 Q60.7563,175.3594 59.7563,174.3594 Q58.0219,172.625 58.0219,168.9844 Q58.0219,164.7656 59.8813,162.8906 Q60.8969,161.8906 62.1938,161.8906 Q63.5688,161.8906 64.3813,162.6875 Q65.85,164.1719 65.7875,166.9375 L63.7875,166.9375 Q63.725,164.6563 63.0688,164 Q62.7563,163.6719 62.1938,163.6719 Q61.7094,163.6719 61.3188,164.0625 Q60.0688,165.3125 60.0688,168.8594 Q60.0688,171.9375 61.1313,172.9844 Q61.5844,173.4375 62.1313,173.4375 Q62.6156,173.4375 63.0688,172.9844 Q63.6625,172.4063 63.725,169.8594 L65.8656,169.8594 Z " fill="#000000"/><text fill="#000000" font-family="sans-serif" font-size="14" lengthAdjust="spacing" textLength="119" x="79.65" y="174.2969">ToDoListController</text><line style="stroke:#181818;stroke-width:0.5;" x1="33.5" x2="215.5" y1="184.5" y2="184.5"/><line style="stroke:#181818;stroke-width:0.5;" x1="33.5" x2="215.5" y1="192.5" y2="192.5"/><text fill="#000000" font-family="sans-serif" font-size="14" lengthAdjust="spacing" textLength="172" x="38.5" y="211.6074">+getToDoListEntries(email)</text><text fill="#000000" font-family="sans-serif" font-size="14" lengthAdjust="spacing" textLength="130" x="38.5" y="230.2285">+getEntry(entryTitle)</text></g><!--class ToDoListRepository--><g id="elem_ToDoListRepository"><rect codeLine="20" fill="#F1F1F1" height="66.6211" id="ToDoListRepository" rx="2.5" ry="2.5" style="stroke:#181818;stroke-width:0.5;" width="184" x="30.5" y="316"/><ellipse cx="57.65" cy="332" fill="#ADD1B2" rx="11" ry="11" style="stroke:#181818;stroke-width:1.0;"/><path d="M61.1656,333.3594 Q60.9469,336.7344 59.8063,337.8594 Q58.8063,338.8594 57.4313,338.8594 Q56.0563,338.8594 55.0563,337.8594 Q53.3219,336.125 53.3219,332.4844 Q53.3219,328.2656 55.1813,326.3906 Q56.1969,325.3906 57.4938,325.3906 Q58.8688,325.3906 59.6813,326.1875 Q61.15,327.6719 61.0875,330.4375 L59.0875,330.4375 Q59.025,328.1563 58.3688,327.5 Q58.0563,327.1719 57.4938,327.1719 Q57.0094,327.1719 56.6188,327.5625 Q55.3688,328.8125 55.3688,332.3594 Q55.3688,335.4375 56.4313,336.4844 Q56.8844,336.9375 57.4313,336.9375 Q57.9156,336.9375 58.3688,336.4844 Q58.9625,335.9063 59.025,333.3594 L61.1656,333.3594 Z " fill="#000000"/><text fill="#000000" font-family="sans-serif" font-size="14" lengthAdjust="spacing" textLength="125" x="74.35" y="337.7969">ToDoListRepository</text><line style="stroke:#181818;stroke-width:0.5;" x1="31.5" x2="213.5" y1="348" y2="348"/><line style="stroke:#181818;stroke-width:0.5;" x1="31.5" x2="213.5" y1="356" y2="356"/><text fill="#000000" font-family="sans-serif" font-size="14" lengthAdjust="spacing" textLength="172" x="36.5" y="375.1074">+getToDoListEntries(email)</text></g><!--class AgendaController--><g id="elem_AgendaController"><rect codeLine="25" fill="#F1F1F1" height="122.4844" id="AgendaController" rx="2.5" ry="2.5" style="stroke:#181818;stroke-width:0.5;" width="143" x="253" y="134"/><ellipse cx="268" cy="150" fill="#ADD1B2" rx="11" ry="11" style="stroke:#181818;stroke-width:1.0;"/><path d="M271.5156,151.3594 Q271.2969,154.7344 270.1563,155.8594 Q269.1563,156.8594 267.7813,156.8594 Q266.4063,156.8594 265.4063,155.8594 Q263.6719,154.125 263.6719,150.4844 Q263.6719,146.2656 265.5313,144.3906 Q266.5469,143.3906 267.8438,143.3906 Q269.2188,143.3906 270.0313,144.1875 Q271.5,145.6719 271.4375,148.4375 L269.4375,148.4375 Q269.375,146.1563 268.7188,145.5 Q268.4063,145.1719 267.8438,145.1719 Q267.3594,145.1719 266.9688,145.5625 Q265.7188,146.8125 265.7188,150.3594 Q265.7188,153.4375 266.7813,154.4844 Q267.2344,154.9375 267.7813,154.9375 Q268.2656,154.9375 268.7188,154.4844 Q269.3125,153.9063 269.375,151.3594 L271.5156,151.3594 Z " fill="#000000"/><text fill="#000000" font-family="sans-serif" font-size="14" lengthAdjust="spacing" textLength="111" x="282" y="155.7969">AgendaController</text><line style="stroke:#181818;stroke-width:0.5;" x1="254" x2="395" y1="166" y2="166"/><line style="stroke:#181818;stroke-width:0.5;" x1="254" x2="395" y1="174" y2="174"/><text fill="#000000" font-family="sans-serif" font-size="14" lengthAdjust="spacing" textLength="112" x="259" y="193.1074">+exists(entryTitle)</text><text fill="#000000" font-family="sans-serif" font-size="14" lengthAdjust="spacing" textLength="113" x="259" y="211.7285">+saveEntry(entry)</text><text fill="#000000" font-family="sans-serif" font-size="14" lengthAdjust="spacing" textLength="107" x="259" y="230.3496">+addEntry(entry)</text><text fill="#000000" font-family="sans-serif" font-size="14" lengthAdjust="spacing" textLength="123" x="259" y="248.9707">+createEntry(entry)</text></g><!--class AgendaRepository--><g id="elem_AgendaRepository"><rect codeLine="32" fill="#F1F1F1" height="66.6211" id="AgendaRepository" rx="2.5" ry="2.5" style="stroke:#181818;stroke-width:0.5;" width="149" x="250" y="316"/><ellipse cx="265" cy="332" fill="#ADD1B2" rx="11" ry="11" style="stroke:#181818;stroke-width:1.0;"/><path d="M268.5156,333.3594 Q268.2969,336.7344 267.1563,337.8594 Q266.1563,338.8594 264.7813,338.8594 Q263.4063,338.8594 262.4063,337.8594 Q260.6719,336.125 260.6719,332.4844 Q260.6719,328.2656 262.5313,326.3906 Q263.5469,325.3906 264.8438,325.3906 Q266.2188,325.3906 267.0313,326.1875 Q268.5,327.6719 268.4375,330.4375 L266.4375,330.4375 Q266.375,328.1563 265.7188,327.5 Q265.4063,327.1719 264.8438,327.1719 Q264.3594,327.1719 263.9688,327.5625 Q262.7188,328.8125 262.7188,332.3594 Q262.7188,335.4375 263.7813,336.4844 Q264.2344,336.9375 264.7813,336.9375 Q265.2656,336.9375 265.7188,336.4844 Q266.3125,335.9063 266.375,333.3594 L268.5156,333.3594 Z " fill="#000000"/><text fill="#000000" font-family="sans-serif" font-size="14" lengthAdjust="spacing" textLength="117" x="279" y="337.7969">AgendaRepository</text><line style="stroke:#181818;stroke-width:0.5;" x1="251" x2="398" y1="348" y2="348"/><line style="stroke:#181818;stroke-width:0.5;" x1="251" x2="398" y1="356" y2="356"/><text fill="#000000" font-family="sans-serif" font-size="14" lengthAdjust="spacing" textLength="107" x="256" y="375.1074">+addEntry(entry)</text></g><!--class Agenda--><g id="elem_Agenda"><rect codeLine="36" fill="#F1F1F1" height="66.6211" id="Agenda" rx="2.5" ry="2.5" style="stroke:#181818;stroke-width:0.5;" width="125" x="434" y="316"/><ellipse cx="468.8" cy="332" fill="#ADD1B2" rx="11" ry="11" style="stroke:#181818;stroke-width:1.0;"/><path d="M472.3156,333.3594 Q472.0969,336.7344 470.9563,337.8594 Q469.9563,338.8594 468.5813,338.8594 Q467.2063,338.8594 466.2063,337.8594 Q464.4719,336.125 464.4719,332.4844 Q464.4719,328.2656 466.3313,326.3906 Q467.3469,325.3906 468.6438,325.3906 Q470.0188,325.3906 470.8313,326.1875 Q472.3,327.6719 472.2375,330.4375 L470.2375,330.4375 Q470.175,328.1563 469.5188,327.5 Q469.2063,327.1719 468.6438,327.1719 Q468.1594,327.1719 467.7688,327.5625 Q466.5188,328.8125 466.5188,332.3594 Q466.5188,335.4375 467.5813,336.4844 Q468.0344,336.9375 468.5813,336.9375 Q469.0656,336.9375 469.5188,336.4844 Q470.1125,335.9063 470.175,333.3594 L472.3156,333.3594 Z " fill="#000000"/><text fill="#000000" font-family="sans-serif" font-size="14" lengthAdjust="spacing" textLength="49" x="487.2" y="337.7969">Agenda</text><line style="stroke:#181818;stroke-width:0.5;" x1="435" x2="558" y1="348" y2="348"/><line style="stroke:#181818;stroke-width:0.5;" x1="435" x2="558" y1="356" y2="356"/><text fill="#000000" font-family="sans-serif" font-size="14" lengthAdjust="spacing" textLength="113" x="440" y="375.1074">+saveEntry(entry)</text></g><!--class AddEntryToAgendaGUI--><g id="elem_AddEntryToAgendaGUI"><rect codeLine="40" fill="#F1F1F1" height="66.6211" id="AddEntryToAgendaGUI" rx="2.5" ry="2.5" style="stroke:#181818;stroke-width:0.5;" width="179" x="135" y="7"/><ellipse cx="150" cy="23" fill="#ADD1B2" rx="11" ry="11" style="stroke:#181818;stroke-width:1.0;"/><path d="M153.5156,24.3594 Q153.2969,27.7344 152.1563,28.8594 Q151.1563,29.8594 149.7813,29.8594 Q148.4063,29.8594 147.4063,28.8594 Q145.6719,27.125 145.6719,23.4844 Q145.6719,19.2656 147.5313,17.3906 Q148.5469,16.3906 149.8438,16.3906 Q151.2188,16.3906 152.0313,17.1875 Q153.5,18.6719 153.4375,21.4375 L151.4375,21.4375 Q151.375,19.1563 150.7188,18.5 Q150.4063,18.1719 149.8438,18.1719 Q149.3594,18.1719 148.9688,18.5625 Q147.7188,19.8125 147.7188,23.3594 Q147.7188,26.4375 148.7813,27.4844 Q149.2344,27.9375 149.7813,27.9375 Q150.2656,27.9375 150.7188,27.4844 Q151.3125,26.9063 151.375,24.3594 L153.5156,24.3594 Z " fill="#000000"/><text fill="#000000" font-family="sans-serif" font-size="14" lengthAdjust="spacing" textLength="147" x="164" y="28.7969">AddEntryToAgendaGUI</text><line style="stroke:#181818;stroke-width:0.5;" x1="136" x2="313" y1="39" y2="39"/><line style="stroke:#181818;stroke-width:0.5;" x1="136" x2="313" y1="47" y2="47"/><text fill="#000000" font-family="sans-serif" font-size="14" lengthAdjust="spacing" textLength="35" x="141" y="66.1074">run();</text></g><!--link Runnable to AddEntryToAgendaGUI--><g id="link_Runnable_AddEntryToAgendaGUI"><path codeLine="44" d="M100.05,40.5 C106.24,40.5 110.5,40.5 110.5,40.5 C110.5,40.5 104,40.5 116.67,40.5 " fill="none" id="Runnable-to-AddEntryToAgendaGUI" style="stroke:#181818;stroke-width:1.0;"/><polygon fill="none" points="134.67,40.5,116.67,34.5,116.67,46.5,134.67,40.5" style="stroke:#181818;stroke-width:1.0;"/></g><!--link AddEntryToAgendaGUI to AgendaController--><g id="link_AddEntryToAgendaGUI_AgendaController"><path codeLine="46" d="M245.95,74.22 C257.37,91.63 268.49,108.5824 281.84,128.9424 " fill="none" id="AddEntryToAgendaGUI-to-AgendaController" style="stroke:#181818;stroke-width:1.0;stroke-dasharray:7.0,7.0;"/><polygon fill="#181818" points="285.13,133.96,283.54,124.2403,282.3883,129.7787,276.85,128.627,285.13,133.96" style="stroke:#181818;stroke-width:1.0;"/></g><!--link AddEntryToAgendaGUI to ToDoListController--><g id="link_AddEntryToAgendaGUI_ToDoListController"><path codeLine="47" d="M203.05,74.22 C188.07,97.06 171.2409,122.723 155.1109,147.313 " fill="none" id="AddEntryToAgendaGUI-to-ToDoListController" style="stroke:#181818;stroke-width:1.0;stroke-dasharray:7.0,7.0;"/><polygon fill="#181818" points="151.82,152.33,160.101,146.9985,154.5624,148.1492,153.4117,142.6106,151.82,152.33" style="stroke:#181818;stroke-width:1.0;"/></g><!--link ToDoListController to ToDoListRepository--><g id="link_ToDoListController_ToDoListRepository"><path codeLine="48" d="M123.95,237.67 C123.63,262.19 123.3089,286.7505 123.0089,309.5705 " fill="none" id="ToDoListController-to-ToDoListRepository" style="stroke:#181818;stroke-width:1.0;stroke-dasharray:7.0,7.0;"/><polygon fill="#181818" points="122.93,315.57,127.048,306.6234,122.9957,310.5704,119.0487,306.5182,122.93,315.57" style="stroke:#181818;stroke-width:1.0;"/></g><!--link AgendaController to Agenda--><g id="link_AgendaController_Agenda"><path codeLine="49" d="M392.48,256.27 C415.39,276.59 435.6005,294.4995 455.1805,311.8595 " fill="none" id="AgendaController-to-Agenda" style="stroke:#181818;stroke-width:1.0;stroke-dasharray:7.0,7.0;"/><polygon fill="#181818" points="459.67,315.84,455.5894,306.8763,455.9287,312.5229,450.2821,312.8623,459.67,315.84" style="stroke:#181818;stroke-width:1.0;"/></g><!--link AgendaController to AgendaRepository--><g id="link_AgendaController_AgendaRepository"><path codeLine="50" d="M324.5,256.27 C324.5,276.59 324.5,292.48 324.5,309.84 " fill="none" id="AgendaController-to-AgendaRepository" style="stroke:#181818;stroke-width:1.0;stroke-dasharray:7.0,7.0;"/><polygon fill="#181818" points="324.5,315.84,328.5,306.84,324.5,310.84,320.5,306.84,324.5,315.84" style="stroke:#181818;stroke-width:1.0;"/></g><!--SRC=[VL7DJi904BxFK-mD295uDo4XQWo99y076DgXJDZkDBjJjLRUtHPHkb3eOPD-lxEpWx1ZLw37tEJY9DbwoSceBmbEJ8793ZDQQcN9U4eKNMQxWh35L3xOPMQ3DdGPouwqAiWKOgls1mOzf7WLwBWIYo7CL3slIwLv8cx9NsJk0GQMDcfKZETigoRbTXmM1y1EoMym8RCedSDrCseDfld6ldJ34Um13h5c9K_ooa4VnQaNQydNCCv8__3d1cOAGygHxUX0jL0rfFPSiLhgILjG8O5LV7KphV4TZRECN8hH4FJP64BKCmxuJftw1i4qZO744seisiSjqN3d_ZDjtTDvaXozA_aLlxpDQpZizw4L_M_-xdlQfmNe0SraChtOnbNXvUl19HGfJvU7yvPEzIskam0_]--></g></svg>