<?xml version="1.0" encoding="us-ascii" standalone="no"?><svg xmlns="http://www.w3.org/2000/svg" xmlns:xlink="http://www.w3.org/1999/xlink" contentStyleType="text/css" height="679px" preserveAspectRatio="none" style="width:726px;height:679px;background:#FFFFFF;" version="1.1" viewBox="0 0 726 679" width="726px" zoomAndPan="magnify"><defs/><g><text fill="#000000" font-family="sans-serif" font-size="14" font-weight="bold" lengthAdjust="spacing" textLength="441" x="138.5" y="44.4082">US026 - Assign one or more vehicles to an entry in the Agenda.</text><rect fill="#FFFFFF" height="431.0742" style="stroke:#181818;stroke-width:1.0;" width="10" x="18.5" y="147.543"/><rect fill="#FFFFFF" height="182.0371" style="stroke:#181818;stroke-width:1.0;" width="10" x="272.5" y="170.834"/><rect fill="#FFFFFF" height="194.4551" style="stroke:#181818;stroke-width:1.0;" width="10" x="272.5" y="384.1621"/><line style="stroke:#181818;stroke-width:0.5;stroke-dasharray:5.0,5.0;" x1="23" x2="23" y1="137.543" y2="596.6172"/><line style="stroke:#181818;stroke-width:0.5;stroke-dasharray:5.0,5.0;" x1="277.5" x2="277.5" y1="137.543" y2="596.6172"/><text fill="#000000" font-family="sans-serif" font-size="14" lengthAdjust="spacing" textLength="31" x="5" y="134.0293">GSM</text><ellipse cx="23.5" cy="67.4219" fill="#E3E3E3" rx="8" ry="8" style="stroke:#181818;stroke-width:0.5;"/><path d="M23.5,75.4219 L23.5,102.4219 M10.5,83.4219 L36.5,83.4219 M23.5,102.4219 L10.5,117.4219 M23.5,102.4219 L36.5,117.4219 " fill="none" style="stroke:#181818;stroke-width:0.5;"/><text fill="#000000" font-family="sans-serif" font-size="14" lengthAdjust="spacing" textLength="31" x="5" y="610.7246">GSM</text><ellipse cx="23.5" cy="622.7383" fill="#E3E3E3" rx="8" ry="8" style="stroke:#181818;stroke-width:0.5;"/><path d="M23.5,630.7383 L23.5,657.7383 M10.5,638.7383 L36.5,638.7383 M23.5,657.7383 L10.5,672.7383 M23.5,657.7383 L36.5,672.7383 " fill="none" style="stroke:#181818;stroke-width:0.5;"/><rect fill="#E3E3E3" height="32.6211" rx="2.5" ry="2.5" style="stroke:#181818;stroke-width:0.5;" width="64" x="245.5" y="103.9219"/><text fill="#000000" font-family="sans-serif" font-size="14" lengthAdjust="spacing" textLength="50" x="252.5" y="126.0293">:System</text><rect fill="#E3E3E3" height="32.6211" rx="2.5" ry="2.5" style="stroke:#181818;stroke-width:0.5;" width="64" x="245.5" y="595.6172"/><text fill="#000000" font-family="sans-serif" font-size="14" lengthAdjust="spacing" textLength="50" x="252.5" y="617.7246">:System</text><rect fill="#FFFFFF" height="431.0742" style="stroke:#181818;stroke-width:1.0;" width="10" x="18.5" y="147.543"/><rect fill="#FFFFFF" height="182.0371" style="stroke:#181818;stroke-width:1.0;" width="10" x="272.5" y="170.834"/><rect fill="#FFFFFF" height="194.4551" style="stroke:#181818;stroke-width:1.0;" width="10" x="272.5" y="384.1621"/><polygon fill="#181818" points="260.5,166.834,270.5,170.834,260.5,174.834,264.5,170.834" style="stroke:#181818;stroke-width:1.0;"/><line style="stroke:#181818;stroke-width:1.0;" x1="28.5" x2="266.5" y1="170.834" y2="170.834"/><text fill="#000000" font-family="sans-serif" font-size="13" font-weight="bold" lengthAdjust="spacing" textLength="7" x="35.5" y="165.5713">1</text><text fill="#000000" font-family="sans-serif" font-size="13" lengthAdjust="spacing" textLength="190" x="46.5" y="165.5713">Request list of available vehicles.</text><line style="stroke:#181818;stroke-width:1.0;stroke-dasharray:2.0,2.0;" x1="282.5" x2="324.5" y1="202.125" y2="202.125"/><line style="stroke:#181818;stroke-width:1.0;stroke-dasharray:2.0,2.0;" x1="324.5" x2="324.5" y1="202.125" y2="215.125"/><line style="stroke:#181818;stroke-width:1.0;stroke-dasharray:2.0,2.0;" x1="283.5" x2="324.5" y1="215.125" y2="215.125"/><polygon fill="#181818" points="293.5,211.125,283.5,215.125,293.5,219.125,289.5,215.125" style="stroke:#181818;stroke-width:1.0;"/><text fill="#000000" font-family="sans-serif" font-size="13" font-weight="bold" lengthAdjust="spacing" textLength="7" x="289.5" y="196.8623">2</text><text fill="#000000" font-family="sans-serif" font-size="13" lengthAdjust="spacing" textLength="188" x="300.5" y="196.8623">Retrieve list of available vehicles.</text><path d="M287,228.125 L287,324.125 L447,324.125 L447,238.125 L437,228.125 L287,228.125 " fill="#FAFAFA" style="stroke:#181818;stroke-width:0.5;"/><path d="M437,228.125 L437,238.125 L447,238.125 L437,228.125 " fill="#FAFAFA" style="stroke:#181818;stroke-width:0.5;"/><text fill="#000000" font-family="sans-serif" font-size="13" lengthAdjust="spacing" textLength="139" x="293" y="247.1533">Lists the vehicle details:</text><text fill="#000000" font-family="sans-serif" font-size="13" lengthAdjust="spacing" textLength="77" x="293" y="264.4443">Plate number</text><text fill="#000000" font-family="sans-serif" font-size="13" lengthAdjust="spacing" textLength="34" x="293" y="281.7354">Brand</text><text fill="#000000" font-family="sans-serif" font-size="13" lengthAdjust="spacing" textLength="35" x="293" y="299.0264">Model</text><text fill="#000000" font-family="sans-serif" font-size="13" lengthAdjust="spacing" textLength="61" x="293" y="316.3174">Availability</text><polygon fill="#181818" points="39.5,348.8711,29.5,352.8711,39.5,356.8711,35.5,352.8711" style="stroke:#181818;stroke-width:1.0;"/><line style="stroke:#181818;stroke-width:1.0;" x1="33.5" x2="276.5" y1="352.8711" y2="352.8711"/><text fill="#000000" font-family="sans-serif" font-size="13" font-weight="bold" lengthAdjust="spacing" textLength="7" x="45.5" y="347.6084">3</text><text fill="#000000" font-family="sans-serif" font-size="13" lengthAdjust="spacing" textLength="209" x="56.5" y="347.6084">Returns the list of available vehicles.</text><polygon fill="#181818" points="260.5,380.1621,270.5,384.1621,260.5,388.1621,264.5,384.1621" style="stroke:#181818;stroke-width:1.0;"/><line style="stroke:#181818;stroke-width:1.0;" x1="28.5" x2="266.5" y1="384.1621" y2="384.1621"/><text fill="#000000" font-family="sans-serif" font-size="13" font-weight="bold" lengthAdjust="spacing" textLength="7" x="35.5" y="378.8994">4</text><text fill="#000000" font-family="sans-serif" font-size="13" lengthAdjust="spacing" textLength="210" x="46.5" y="378.8994">Selects vehicle(s) and agenda entry.</text><line style="stroke:#181818;stroke-width:1.0;stroke-dasharray:2.0,2.0;" x1="282.5" x2="324.5" y1="415.4531" y2="415.4531"/><line style="stroke:#181818;stroke-width:1.0;stroke-dasharray:2.0,2.0;" x1="324.5" x2="324.5" y1="415.4531" y2="428.4531"/><line style="stroke:#181818;stroke-width:1.0;stroke-dasharray:2.0,2.0;" x1="283.5" x2="324.5" y1="428.4531" y2="428.4531"/><polygon fill="#181818" points="293.5,424.4531,283.5,428.4531,293.5,432.4531,289.5,428.4531" style="stroke:#181818;stroke-width:1.0;"/><text fill="#000000" font-family="sans-serif" font-size="13" font-weight="bold" lengthAdjust="spacing" textLength="7" x="289.5" y="410.1904">5</text><text fill="#000000" font-family="sans-serif" font-size="13" lengthAdjust="spacing" textLength="319" x="300.5" y="410.1904">Validate vehicle(s) availability for the selected time slot.</text><path d="M287,441.4531 L287,468.4531 L714,468.4531 L714,451.4531 L704,441.4531 L287,441.4531 " fill="#FAFAFA" style="stroke:#181818;stroke-width:0.5;"/><path d="M704,441.4531 L704,451.4531 L714,451.4531 L704,441.4531 " fill="#FAFAFA" style="stroke:#181818;stroke-width:0.5;"/><text fill="#000000" font-family="sans-serif" font-size="13" lengthAdjust="spacing" textLength="406" x="293" y="460.4814">Check if the selected vehicle(s) are available for the selected time slot.</text><line style="stroke:#181818;stroke-width:1.0;" x1="282.5" x2="324.5" y1="497.0352" y2="497.0352"/><line style="stroke:#181818;stroke-width:1.0;" x1="324.5" x2="324.5" y1="497.0352" y2="510.0352"/><line style="stroke:#181818;stroke-width:1.0;" x1="283.5" x2="324.5" y1="510.0352" y2="510.0352"/><polygon fill="#181818" points="293.5,506.0352,283.5,510.0352,293.5,514.0352,289.5,510.0352" style="stroke:#181818;stroke-width:1.0;"/><text fill="#000000" font-family="sans-serif" font-size="13" font-weight="bold" lengthAdjust="spacing" textLength="7" x="289.5" y="491.7725">6</text><text fill="#000000" font-family="sans-serif" font-size="13" lengthAdjust="spacing" textLength="262" x="300.5" y="491.7725">Update agenda entry with selected vehicle(s).</text><path d="M287,523.0352 L287,550.0352 L621,550.0352 L621,533.0352 L611,523.0352 L287,523.0352 " fill="#FAFAFA" style="stroke:#181818;stroke-width:0.5;"/><path d="M611,523.0352 L611,533.0352 L621,533.0352 L611,523.0352 " fill="#FAFAFA" style="stroke:#181818;stroke-width:0.5;"/><text fill="#000000" font-family="sans-serif" font-size="13" lengthAdjust="spacing" textLength="313" x="293" y="542.0635">Save the assignment of vehicle(s) to the agenda entry.</text><polygon fill="#181818" points="34.5,574.6172,24.5,578.6172,34.5,582.6172,30.5,578.6172" style="stroke:#181818;stroke-width:1.0;"/><line style="stroke:#181818;stroke-width:1.0;" x1="28.5" x2="276.5" y1="578.6172" y2="578.6172"/><text fill="#000000" font-family="sans-serif" font-size="13" font-weight="bold" lengthAdjust="spacing" textLength="7" x="40.5" y="573.3545">7</text><text fill="#000000" font-family="sans-serif" font-size="13" lengthAdjust="spacing" textLength="161" x="51.5" y="573.3545">Confirmation of assignment.</text><text fill="#888888" font-family="sans-serif" font-size="10" lengthAdjust="spacing" textLength="32" x="686" y="15.791">US026</text><!--SRC=[bLEnRjj03Dtr5OIdPd1GTEZW8O2ReKi351MIoGkZeoJ29vvxHpdmtuSwARBIk71xWt0GoVSU7tbfptB0Y1rqGKBLnj0HQEofI7FaWDKU6ohrv0aYLOhI-6L2Qj655vO6QlI9Ya9PBVMn_FpbAwnXcn8t0a48GZIUI72abYjF2JG02f1eF04BQ4kmRKWStXOjeQCueXJOQv2-UwPOOAK6i_fUFgm04pIfAqo6SiK758NLfZmbfIu7nsinrF0HbN9s0NRi0kkxAG4sy8j-zvGKFDidr817P8_F_gprDjVDI1CqJ6S2Mh_7rCXqfAkWmv5We96RDcVE63-iD6LVfX9mf8QIDZlvwGSXeoqx-HPHt4uUWYE_a-r8nPxrz47aNMu_2-oZZF3ND3hwi_MBFfRaRKFIM_6dT6C3Te1vgEEW_z_89_JiXjmbwg91g6qZXYPIPYS7ohR7oGUzQl1zIzKUk7vVloIoVJsRyYzCPvjdbiT3rh-q0LvOsqkCLoMNQ3irYC3yiZg36-8BpVQiSlo3wvUsu3v8pR53vI1v0sRKlqv-yMjuKQy0]--></g></svg>