<?xml version="1.0" encoding="us-ascii" standalone="no"?><svg xmlns="http://www.w3.org/2000/svg" xmlns:xlink="http://www.w3.org/1999/xlink" contentStyleType="text/css" height="829px" preserveAspectRatio="none" style="width:497px;height:829px;background:#FFFFFF;" version="1.1" viewBox="0 0 497 829" width="497px" zoomAndPan="magnify"><defs/><g><text fill="#000000" font-family="sans-serif" font-size="14" font-weight="bold" lengthAdjust="spacing" textLength="283" x="103" y="44.4082">US029 - Record the completion of a task.</text><rect fill="#FFFFFF" height="580.9473" style="stroke:#181818;stroke-width:1.0;" width="10" x="42" y="147.543"/><rect fill="#FFFFFF" height="31.291" style="stroke:#181818;stroke-width:1.0;" width="10" x="294" y="188.125"/><rect fill="#FFFFFF" height="75.582" style="stroke:#181818;stroke-width:1.0;" width="10" x="294" y="250.707"/><rect fill="#FFFFFF" height="75.582" style="stroke:#181818;stroke-width:1.0;" width="10" x="294" y="357.5801"/><rect fill="#FFFFFF" height="157.1641" style="stroke:#181818;stroke-width:1.0;" width="10" x="294" y="464.4531"/><rect fill="#FFFFFF" height="75.582" style="stroke:#181818;stroke-width:1.0;" width="10" x="294" y="652.9082"/><line style="stroke:#181818;stroke-width:0.5;stroke-dasharray:5.0,5.0;" x1="47" x2="47" y1="137.543" y2="746.4902"/><line style="stroke:#181818;stroke-width:0.5;stroke-dasharray:5.0,5.0;" x1="299" x2="299" y1="137.543" y2="746.4902"/><text fill="#000000" font-family="sans-serif" font-size="14" lengthAdjust="spacing" textLength="78" x="5" y="134.0293">Collaborator</text><ellipse cx="47" cy="67.4219" fill="#E3E3E3" rx="8" ry="8" style="stroke:#181818;stroke-width:0.5;"/><path d="M47,75.4219 L47,102.4219 M34,83.4219 L60,83.4219 M47,102.4219 L34,117.4219 M47,102.4219 L60,117.4219 " fill="none" style="stroke:#181818;stroke-width:0.5;"/><text fill="#000000" font-family="sans-serif" font-size="14" lengthAdjust="spacing" textLength="78" x="5" y="760.5977">Collaborator</text><ellipse cx="47" cy="772.6113" fill="#E3E3E3" rx="8" ry="8" style="stroke:#181818;stroke-width:0.5;"/><path d="M47,780.6113 L47,807.6113 M34,788.6113 L60,788.6113 M47,807.6113 L34,822.6113 M47,807.6113 L60,822.6113 " fill="none" style="stroke:#181818;stroke-width:0.5;"/><rect fill="#E3E3E3" height="32.6211" rx="2.5" ry="2.5" style="stroke:#181818;stroke-width:0.5;" width="64" x="267" y="103.9219"/><text fill="#000000" font-family="sans-serif" font-size="14" lengthAdjust="spacing" textLength="50" x="274" y="126.0293">:System</text><rect fill="#E3E3E3" height="32.6211" rx="2.5" ry="2.5" style="stroke:#181818;stroke-width:0.5;" width="64" x="267" y="745.4902"/><text fill="#000000" font-family="sans-serif" font-size="14" lengthAdjust="spacing" textLength="50" x="274" y="767.5977">:System</text><rect fill="#FFFFFF" height="580.9473" style="stroke:#181818;stroke-width:1.0;" width="10" x="42" y="147.543"/><rect fill="#FFFFFF" height="31.291" style="stroke:#181818;stroke-width:1.0;" width="10" x="294" y="188.125"/><rect fill="#FFFFFF" height="75.582" style="stroke:#181818;stroke-width:1.0;" width="10" x="294" y="250.707"/><rect fill="#FFFFFF" height="75.582" style="stroke:#181818;stroke-width:1.0;" width="10" x="294" y="357.5801"/><rect fill="#FFFFFF" height="157.1641" style="stroke:#181818;stroke-width:1.0;" width="10" x="294" y="464.4531"/><rect fill="#FFFFFF" height="75.582" style="stroke:#181818;stroke-width:1.0;" width="10" x="294" y="652.9082"/><polygon fill="#181818" points="282,184.125,292,188.125,282,192.125,286,188.125" style="stroke:#181818;stroke-width:1.0;"/><line style="stroke:#181818;stroke-width:1.0;" x1="52" x2="288" y1="188.125" y2="188.125"/><text fill="#000000" font-family="sans-serif" font-size="13" font-weight="bold" lengthAdjust="spacing" textLength="7" x="59" y="174.2168">1</text><text fill="#000000" font-family="sans-serif" font-size="13" lengthAdjust="spacing" textLength="175" x="70" y="165.5713">Request list of tasks assigned</text><text fill="#000000" font-family="sans-serif" font-size="13" lengthAdjust="spacing" textLength="112" x="74" y="182.8623">between two dates.</text><polygon fill="#181818" points="63,215.416,53,219.416,63,223.416,59,219.416" style="stroke:#181818;stroke-width:1.0;"/><line style="stroke:#181818;stroke-width:1.0;" x1="57" x2="298" y1="219.416" y2="219.416"/><text fill="#000000" font-family="sans-serif" font-size="13" font-weight="bold" lengthAdjust="spacing" textLength="7" x="69" y="214.1533">2</text><text fill="#000000" font-family="sans-serif" font-size="13" lengthAdjust="spacing" textLength="111" x="80" y="214.1533">Request start date.</text><polygon fill="#181818" points="282,246.707,292,250.707,282,254.707,286,250.707" style="stroke:#181818;stroke-width:1.0;"/><line style="stroke:#181818;stroke-width:1.0;" x1="52" x2="288" y1="250.707" y2="250.707"/><text fill="#000000" font-family="sans-serif" font-size="13" font-weight="bold" lengthAdjust="spacing" textLength="7" x="59" y="245.4443">3</text><text fill="#000000" font-family="sans-serif" font-size="13" lengthAdjust="spacing" textLength="107" x="70" y="245.4443">Selects start date.</text><line style="stroke:#181818;stroke-width:1.0;" x1="304" x2="346" y1="281.998" y2="281.998"/><line style="stroke:#181818;stroke-width:1.0;" x1="346" x2="346" y1="281.998" y2="294.998"/><line style="stroke:#181818;stroke-width:1.0;" x1="305" x2="346" y1="294.998" y2="294.998"/><polygon fill="#181818" points="315,290.998,305,294.998,315,298.998,311,294.998" style="stroke:#181818;stroke-width:1.0;"/><text fill="#000000" font-family="sans-serif" font-size="13" font-weight="bold" lengthAdjust="spacing" textLength="7" x="311" y="276.7354">4</text><text fill="#000000" font-family="sans-serif" font-size="13" lengthAdjust="spacing" textLength="122" x="322" y="276.7354">Keeps the start date.</text><polygon fill="#181818" points="63,322.2891,53,326.2891,63,330.2891,59,326.2891" style="stroke:#181818;stroke-width:1.0;"/><line style="stroke:#181818;stroke-width:1.0;" x1="57" x2="298" y1="326.2891" y2="326.2891"/><text fill="#000000" font-family="sans-serif" font-size="13" font-weight="bold" lengthAdjust="spacing" textLength="7" x="69" y="321.0264">5</text><text fill="#000000" font-family="sans-serif" font-size="13" lengthAdjust="spacing" textLength="106" x="80" y="321.0264">Request end date.</text><polygon fill="#181818" points="282,353.5801,292,357.5801,282,361.5801,286,357.5801" style="stroke:#181818;stroke-width:1.0;"/><line style="stroke:#181818;stroke-width:1.0;" x1="52" x2="288" y1="357.5801" y2="357.5801"/><text fill="#000000" font-family="sans-serif" font-size="13" font-weight="bold" lengthAdjust="spacing" textLength="7" x="59" y="352.3174">6</text><text fill="#000000" font-family="sans-serif" font-size="13" lengthAdjust="spacing" textLength="102" x="70" y="352.3174">Selects end date.</text><line style="stroke:#181818;stroke-width:1.0;" x1="304" x2="346" y1="388.8711" y2="388.8711"/><line style="stroke:#181818;stroke-width:1.0;" x1="346" x2="346" y1="388.8711" y2="401.8711"/><line style="stroke:#181818;stroke-width:1.0;" x1="305" x2="346" y1="401.8711" y2="401.8711"/><polygon fill="#181818" points="315,397.8711,305,401.8711,315,405.8711,311,401.8711" style="stroke:#181818;stroke-width:1.0;"/><text fill="#000000" font-family="sans-serif" font-size="13" font-weight="bold" lengthAdjust="spacing" textLength="7" x="311" y="383.6084">7</text><text fill="#000000" font-family="sans-serif" font-size="13" lengthAdjust="spacing" textLength="117" x="322" y="383.6084">Keeps the end date.</text><polygon fill="#181818" points="63,429.1621,53,433.1621,63,437.1621,59,433.1621" style="stroke:#181818;stroke-width:1.0;"/><line style="stroke:#181818;stroke-width:1.0;" x1="57" x2="298" y1="433.1621" y2="433.1621"/><text fill="#000000" font-family="sans-serif" font-size="13" font-weight="bold" lengthAdjust="spacing" textLength="7" x="69" y="427.8994">8</text><text fill="#000000" font-family="sans-serif" font-size="13" lengthAdjust="spacing" textLength="174" x="80" y="427.8994">Request urgency of the tasks.</text><polygon fill="#181818" points="282,460.4531,292,464.4531,282,468.4531,286,464.4531" style="stroke:#181818;stroke-width:1.0;"/><line style="stroke:#181818;stroke-width:1.0;" x1="52" x2="288" y1="464.4531" y2="464.4531"/><text fill="#000000" font-family="sans-serif" font-size="13" font-weight="bold" lengthAdjust="spacing" textLength="7" x="59" y="459.1904">9</text><text fill="#000000" font-family="sans-serif" font-size="13" lengthAdjust="spacing" textLength="98" x="70" y="459.1904">Selects urgency.</text><path d="M57,477.4531 L57,504.4531 L193,504.4531 L193,487.4531 L183,477.4531 L57,477.4531 " fill="#FAFAFA" style="stroke:#181818;stroke-width:0.5;"/><path d="M183,477.4531 L183,487.4531 L193,487.4531 L183,477.4531 " fill="#FAFAFA" style="stroke:#181818;stroke-width:0.5;"/><text fill="#000000" font-family="sans-serif" font-size="13" lengthAdjust="spacing" textLength="115" x="63" y="496.4814">Urgency is optional.</text><line style="stroke:#181818;stroke-width:1.0;" x1="304" x2="346" y1="533.0352" y2="533.0352"/><line style="stroke:#181818;stroke-width:1.0;" x1="346" x2="346" y1="533.0352" y2="546.0352"/><line style="stroke:#181818;stroke-width:1.0;" x1="305" x2="346" y1="546.0352" y2="546.0352"/><polygon fill="#181818" points="315,542.0352,305,546.0352,315,550.0352,311,546.0352" style="stroke:#181818;stroke-width:1.0;"/><text fill="#000000" font-family="sans-serif" font-size="13" font-weight="bold" lengthAdjust="spacing" textLength="14" x="311" y="527.7725">10</text><text fill="#000000" font-family="sans-serif" font-size="13" lengthAdjust="spacing" textLength="113" x="329" y="527.7725">Keeps the urgency.</text><line style="stroke:#181818;stroke-width:1.0;stroke-dasharray:2.0,2.0;" x1="304" x2="346" y1="577.3262" y2="577.3262"/><line style="stroke:#181818;stroke-width:1.0;stroke-dasharray:2.0,2.0;" x1="346" x2="346" y1="577.3262" y2="590.3262"/><line style="stroke:#181818;stroke-width:1.0;stroke-dasharray:2.0,2.0;" x1="305" x2="346" y1="590.3262" y2="590.3262"/><polygon fill="#181818" points="315,586.3262,305,590.3262,315,594.3262,311,590.3262" style="stroke:#181818;stroke-width:1.0;"/><text fill="#000000" font-family="sans-serif" font-size="13" font-weight="bold" lengthAdjust="spacing" textLength="14" x="311" y="572.0635">11</text><text fill="#000000" font-family="sans-serif" font-size="13" lengthAdjust="spacing" textLength="106" x="329" y="572.0635">Retrieval of Tasks.</text><polygon fill="#181818" points="63,617.6172,53,621.6172,63,625.6172,59,621.6172" style="stroke:#181818;stroke-width:1.0;"/><line style="stroke:#181818;stroke-width:1.0;" x1="57" x2="298" y1="621.6172" y2="621.6172"/><text fill="#000000" font-family="sans-serif" font-size="13" font-weight="bold" lengthAdjust="spacing" textLength="14" x="69" y="616.3545">12</text><text fill="#000000" font-family="sans-serif" font-size="13" lengthAdjust="spacing" textLength="92" x="87" y="616.3545">Returns the list.</text><polygon fill="#181818" points="282,648.9082,292,652.9082,282,656.9082,286,652.9082" style="stroke:#181818;stroke-width:1.0;"/><line style="stroke:#181818;stroke-width:1.0;" x1="52" x2="288" y1="652.9082" y2="652.9082"/><text fill="#000000" font-family="sans-serif" font-size="13" font-weight="bold" lengthAdjust="spacing" textLength="14" x="59" y="647.6455">13</text><text fill="#000000" font-family="sans-serif" font-size="13" lengthAdjust="spacing" textLength="205" x="77" y="647.6455">Selects Task to mark as Complete.</text><line style="stroke:#181818;stroke-width:1.0;" x1="304" x2="346" y1="684.1992" y2="684.1992"/><line style="stroke:#181818;stroke-width:1.0;" x1="346" x2="346" y1="684.1992" y2="697.1992"/><line style="stroke:#181818;stroke-width:1.0;" x1="305" x2="346" y1="697.1992" y2="697.1992"/><polygon fill="#181818" points="315,693.1992,305,697.1992,315,701.1992,311,697.1992" style="stroke:#181818;stroke-width:1.0;"/><text fill="#000000" font-family="sans-serif" font-size="13" font-weight="bold" lengthAdjust="spacing" textLength="14" x="311" y="678.9365">14</text><text fill="#000000" font-family="sans-serif" font-size="13" lengthAdjust="spacing" textLength="149" x="329" y="678.9365">Marks Task as Complete.</text><polygon fill="#181818" points="58,724.4902,48,728.4902,58,732.4902,54,728.4902" style="stroke:#181818;stroke-width:1.0;"/><line style="stroke:#181818;stroke-width:1.0;" x1="52" x2="298" y1="728.4902" y2="728.4902"/><text fill="#000000" font-family="sans-serif" font-size="13" font-weight="bold" lengthAdjust="spacing" textLength="14" x="64" y="723.2275">15</text><text fill="#000000" font-family="sans-serif" font-size="13" lengthAdjust="spacing" textLength="92" x="82" y="723.2275">Returns the list.</text><text fill="#888888" font-family="sans-serif" font-size="10" lengthAdjust="spacing" textLength="32" x="457" y="15.791">US029</text><!--SRC=[fPCzSy8m38Pt_meTErolMncwCFQwbB9r4Ov8V77ir5RW-FULdPJmKUYLUiZ5aVIyRsGvriQr6B21nZklg-0R0WuTgNY8jAXhB6d9UqiGI3EwqXudn0eBlpEkX0tQI4gnOKbTBHyUds0ARwHzA80h0ksRrX8Rxy1l084nrZDL4HOK-do57NlNDMiAIg5c7s2oyDRYsWUKtGGmWhPAbDbeqw9ZcCoN-yZKv5Z_cclD5fbIiW9PsiBqUGZ3N5nzTXGPh967c4bMeW2YAHqLyE5WJRmZSi0x3uMGugm77SY350nhG8k8I8q2aSLg1inoQa7N06SEbsIbsV42yBl-0V52rCRS-NF83SFaYl_OFIs_o-mfueRLBfJaz3wVdzJbCxpJze0Q9PsNsc3AAe-7J14ShTKWR2BuDiqpsh4osK_LzpVWmintzka4Sp2qHPlylO-__cE_k0kkPwU1lzMZA_r90i0U6WnrkcUB_Yh__PXV1J3WBZ3_i7xqHTil]--></g></svg>