<?xml version="1.0" encoding="us-ascii" standalone="no"?><svg xmlns="http://www.w3.org/2000/svg" xmlns:xlink="http://www.w3.org/1999/xlink" contentStyleType="text/css" height="791px" preserveAspectRatio="none" style="width:947px;height:791px;background:#FFFFFF;" version="1.1" viewBox="0 0 947 791" width="947px" zoomAndPan="magnify"><defs/><g><!--class CancelAnEntryUI--><g id="elem_CancelAnEntryUI"><rect codeLine="11" fill="#F1F1F1" height="48" id="CancelAnEntryUI" rx="2.5" ry="2.5" style="stroke:#181818;stroke-width:0.5;" width="138" x="7" y="35"/><ellipse cx="22" cy="51" fill="#ADD1B2" rx="11" ry="11" style="stroke:#181818;stroke-width:1.0;"/><path d="M24.7656,46.875 Q24.9219,46.6563 25.1094,46.5469 Q25.2969,46.4375 25.5156,46.4375 Q25.8906,46.4375 26.125,46.7031 Q26.3594,46.9531 26.3594,47.5625 L26.3594,49.0156 Q26.3594,49.625 26.125,49.8906 Q25.8906,50.1563 25.5156,50.1563 Q25.1719,50.1563 24.9688,49.9531 Q24.7656,49.7656 24.6563,49.25 Q24.6094,48.8906 24.4219,48.7031 Q24.0938,48.3281 23.4844,48.1094 Q22.875,47.8906 22.25,47.8906 Q21.4844,47.8906 20.8438,48.2188 Q20.2188,48.5469 19.7188,49.2969 Q19.2344,50.0469 19.2344,51.0781 L19.2344,52.1719 Q19.2344,53.4063 20.125,54.2344 Q21.0156,55.0469 22.6094,55.0469 Q23.5469,55.0469 24.2031,54.7969 Q24.5938,54.6406 25.0156,54.2031 Q25.2813,53.9375 25.4219,53.8594 Q25.5781,53.7813 25.7813,53.7813 Q26.1094,53.7813 26.3594,54.0469 Q26.625,54.2969 26.625,54.6406 Q26.625,54.9844 26.2813,55.3906 Q25.7813,55.9688 24.9844,56.2969 Q23.9063,56.75 22.6094,56.75 Q21.0938,56.75 19.8906,56.125 Q18.9063,55.625 18.2188,54.5625 Q17.5313,53.4844 17.5313,52.2031 L17.5313,51.0469 Q17.5313,49.7188 18.1406,48.5781 Q18.7656,47.4219 19.8594,46.8125 Q20.9531,46.1875 22.1875,46.1875 Q22.9219,46.1875 23.5625,46.3594 Q24.2188,46.5156 24.7656,46.875 Z " fill="#000000"/><text fill="#000000" font-family="sans-serif" font-size="14" lengthAdjust="spacing" textLength="106" x="36" y="56.7969">CancelAnEntryUI</text><line style="stroke:#181818;stroke-width:0.5;" x1="8" x2="144" y1="67" y2="67"/><line style="stroke:#181818;stroke-width:0.5;" x1="8" x2="144" y1="75" y2="75"/></g><!--class CancelAnEntryController--><g id="elem_CancelAnEntryController"><rect codeLine="15" fill="#F1F1F1" height="103.8633" id="CancelAnEntryController" rx="2.5" ry="2.5" style="stroke:#181818;stroke-width:0.5;" width="302" x="180" y="7"/><ellipse cx="248.75" cy="23" fill="#ADD1B2" rx="11" ry="11" style="stroke:#181818;stroke-width:1.0;"/><path d="M251.5156,18.875 Q251.6719,18.6563 251.8594,18.5469 Q252.0469,18.4375 252.2656,18.4375 Q252.6406,18.4375 252.875,18.7031 Q253.1094,18.9531 253.1094,19.5625 L253.1094,21.0156 Q253.1094,21.625 252.875,21.8906 Q252.6406,22.1563 252.2656,22.1563 Q251.9219,22.1563 251.7188,21.9531 Q251.5156,21.7656 251.4063,21.25 Q251.3594,20.8906 251.1719,20.7031 Q250.8438,20.3281 250.2344,20.1094 Q249.625,19.8906 249,19.8906 Q248.2344,19.8906 247.5938,20.2188 Q246.9688,20.5469 246.4688,21.2969 Q245.9844,22.0469 245.9844,23.0781 L245.9844,24.1719 Q245.9844,25.4063 246.875,26.2344 Q247.7656,27.0469 249.3594,27.0469 Q250.2969,27.0469 250.9531,26.7969 Q251.3438,26.6406 251.7656,26.2031 Q252.0313,25.9375 252.1719,25.8594 Q252.3281,25.7813 252.5313,25.7813 Q252.8594,25.7813 253.1094,26.0469 Q253.375,26.2969 253.375,26.6406 Q253.375,26.9844 253.0313,27.3906 Q252.5313,27.9688 251.7344,28.2969 Q250.6563,28.75 249.3594,28.75 Q247.8438,28.75 246.6406,28.125 Q245.6563,27.625 244.9688,26.5625 Q244.2813,25.4844 244.2813,24.2031 L244.2813,23.0469 Q244.2813,21.7188 244.8906,20.5781 Q245.5156,19.4219 246.6094,18.8125 Q247.7031,18.1875 248.9375,18.1875 Q249.6719,18.1875 250.3125,18.3594 Q250.9688,18.5156 251.5156,18.875 Z " fill="#000000"/><text fill="#000000" font-family="sans-serif" font-size="14" lengthAdjust="spacing" textLength="156" x="269.25" y="28.7969">CancelAnEntryController</text><line style="stroke:#181818;stroke-width:0.5;" x1="181" x2="481" y1="39" y2="39"/><text fill="#000000" font-family="sans-serif" font-size="14" lengthAdjust="spacing" textLength="242" x="186" y="58.1074">-AgendaRepository agendaRepository</text><line style="stroke:#181818;stroke-width:0.5;" x1="181" x2="481" y1="65.6211" y2="65.6211"/><text fill="#000000" font-family="sans-serif" font-size="14" lengthAdjust="spacing" textLength="290" x="186" y="84.7285">+CancelAnEntryController(agendaRepository)</text><text fill="#000000" font-family="sans-serif" font-size="14" lengthAdjust="spacing" textLength="214" x="186" y="103.3496">+getPlannedAndPostponedTask()</text></g><!--class Repositories--><g id="elem_Repositories"><rect codeLine="21" fill="#F1F1F1" height="103.8633" id="Repositories" rx="2.5" ry="2.5" style="stroke:#181818;stroke-width:0.5;" width="258" x="586" y="7"/><ellipse cx="671.25" cy="23" fill="#ADD1B2" rx="11" ry="11" style="stroke:#181818;stroke-width:1.0;"/><path d="M674.0156,18.875 Q674.1719,18.6563 674.3594,18.5469 Q674.5469,18.4375 674.7656,18.4375 Q675.1406,18.4375 675.375,18.7031 Q675.6094,18.9531 675.6094,19.5625 L675.6094,21.0156 Q675.6094,21.625 675.375,21.8906 Q675.1406,22.1563 674.7656,22.1563 Q674.4219,22.1563 674.2188,21.9531 Q674.0156,21.7656 673.9063,21.25 Q673.8594,20.8906 673.6719,20.7031 Q673.3438,20.3281 672.7344,20.1094 Q672.125,19.8906 671.5,19.8906 Q670.7344,19.8906 670.0938,20.2188 Q669.4688,20.5469 668.9688,21.2969 Q668.4844,22.0469 668.4844,23.0781 L668.4844,24.1719 Q668.4844,25.4063 669.375,26.2344 Q670.2656,27.0469 671.8594,27.0469 Q672.7969,27.0469 673.4531,26.7969 Q673.8438,26.6406 674.2656,26.2031 Q674.5313,25.9375 674.6719,25.8594 Q674.8281,25.7813 675.0313,25.7813 Q675.3594,25.7813 675.6094,26.0469 Q675.875,26.2969 675.875,26.6406 Q675.875,26.9844 675.5313,27.3906 Q675.0313,27.9688 674.2344,28.2969 Q673.1563,28.75 671.8594,28.75 Q670.3438,28.75 669.1406,28.125 Q668.1563,27.625 667.4688,26.5625 Q666.7813,25.4844 666.7813,24.2031 L666.7813,23.0469 Q666.7813,21.7188 667.3906,20.5781 Q668.0156,19.4219 669.1094,18.8125 Q670.2031,18.1875 671.4375,18.1875 Q672.1719,18.1875 672.8125,18.3594 Q673.4688,18.5156 674.0156,18.875 Z " fill="#000000"/><text fill="#000000" font-family="sans-serif" font-size="14" lengthAdjust="spacing" textLength="79" x="691.75" y="28.7969">Repositories</text><line style="stroke:#181818;stroke-width:0.5;" x1="587" x2="843" y1="39" y2="39"/><line style="stroke:#181818;stroke-width:0.5;" x1="587" x2="843" y1="47" y2="47"/><text fill="#000000" font-family="sans-serif" font-size="14" lengthAdjust="spacing" textLength="181" x="592" y="66.1074">-Repositories(): Repositories</text><text fill="#000000" font-family="sans-serif" font-size="14" lengthAdjust="spacing" textLength="182" x="592" y="84.7285">+getInstance() : Repositories</text><text fill="#000000" font-family="sans-serif" font-size="14" lengthAdjust="spacing" textLength="246" x="592" y="103.3496">+getAgendaRepository() : Repositories</text></g><!--class AgendaRepository--><g id="elem_AgendaRepository"><rect codeLine="28" fill="#F1F1F1" height="66.6211" id="AgendaRepository" rx="2.5" ry="2.5" style="stroke:#181818;stroke-width:0.5;" width="226" x="416" y="337"/><ellipse cx="466.25" cy="353" fill="#ADD1B2" rx="11" ry="11" style="stroke:#181818;stroke-width:1.0;"/><path d="M469.0156,348.875 Q469.1719,348.6563 469.3594,348.5469 Q469.5469,348.4375 469.7656,348.4375 Q470.1406,348.4375 470.375,348.7031 Q470.6094,348.9531 470.6094,349.5625 L470.6094,351.0156 Q470.6094,351.625 470.375,351.8906 Q470.1406,352.1563 469.7656,352.1563 Q469.4219,352.1563 469.2188,351.9531 Q469.0156,351.7656 468.9063,351.25 Q468.8594,350.8906 468.6719,350.7031 Q468.3438,350.3281 467.7344,350.1094 Q467.125,349.8906 466.5,349.8906 Q465.7344,349.8906 465.0938,350.2188 Q464.4688,350.5469 463.9688,351.2969 Q463.4844,352.0469 463.4844,353.0781 L463.4844,354.1719 Q463.4844,355.4063 464.375,356.2344 Q465.2656,357.0469 466.8594,357.0469 Q467.7969,357.0469 468.4531,356.7969 Q468.8438,356.6406 469.2656,356.2031 Q469.5313,355.9375 469.6719,355.8594 Q469.8281,355.7813 470.0313,355.7813 Q470.3594,355.7813 470.6094,356.0469 Q470.875,356.2969 470.875,356.6406 Q470.875,356.9844 470.5313,357.3906 Q470.0313,357.9688 469.2344,358.2969 Q468.1563,358.75 466.8594,358.75 Q465.3438,358.75 464.1406,358.125 Q463.1563,357.625 462.4688,356.5625 Q461.7813,355.4844 461.7813,354.2031 L461.7813,353.0469 Q461.7813,351.7188 462.3906,350.5781 Q463.0156,349.4219 464.1094,348.8125 Q465.2031,348.1875 466.4375,348.1875 Q467.1719,348.1875 467.8125,348.3594 Q468.4688,348.5156 469.0156,348.875 Z " fill="#000000"/><text fill="#000000" font-family="sans-serif" font-size="14" lengthAdjust="spacing" textLength="117" x="486.75" y="358.7969">AgendaRepository</text><line style="stroke:#181818;stroke-width:0.5;" x1="417" x2="641" y1="369" y2="369"/><line style="stroke:#181818;stroke-width:0.5;" x1="417" x2="641" y1="377" y2="377"/><text fill="#000000" font-family="sans-serif" font-size="14" lengthAdjust="spacing" textLength="214" x="422" y="396.1074">+getPlannedAndPostponedTask()</text></g><!--class Entry--><g id="elem_Entry"><rect codeLine="33" fill="#F1F1F1" height="159.7266" id="Entry" rx="2.5" ry="2.5" style="stroke:#181818;stroke-width:0.5;" width="128" x="465" y="625"/><ellipse cx="508.35" cy="641" fill="#ADD1B2" rx="11" ry="11" style="stroke:#181818;stroke-width:1.0;"/><path d="M511.1156,636.875 Q511.2719,636.6563 511.4594,636.5469 Q511.6469,636.4375 511.8656,636.4375 Q512.2406,636.4375 512.475,636.7031 Q512.7094,636.9531 512.7094,637.5625 L512.7094,639.0156 Q512.7094,639.625 512.475,639.8906 Q512.2406,640.1563 511.8656,640.1563 Q511.5219,640.1563 511.3188,639.9531 Q511.1156,639.7656 511.0063,639.25 Q510.9594,638.8906 510.7719,638.7031 Q510.4438,638.3281 509.8344,638.1094 Q509.225,637.8906 508.6,637.8906 Q507.8344,637.8906 507.1938,638.2188 Q506.5688,638.5469 506.0688,639.2969 Q505.5844,640.0469 505.5844,641.0781 L505.5844,642.1719 Q505.5844,643.4063 506.475,644.2344 Q507.3656,645.0469 508.9594,645.0469 Q509.8969,645.0469 510.5531,644.7969 Q510.9438,644.6406 511.3656,644.2031 Q511.6313,643.9375 511.7719,643.8594 Q511.9281,643.7813 512.1313,643.7813 Q512.4594,643.7813 512.7094,644.0469 Q512.975,644.2969 512.975,644.6406 Q512.975,644.9844 512.6313,645.3906 Q512.1313,645.9688 511.3344,646.2969 Q510.2563,646.75 508.9594,646.75 Q507.4438,646.75 506.2406,646.125 Q505.2563,645.625 504.5688,644.5625 Q503.8813,643.4844 503.8813,642.2031 L503.8813,641.0469 Q503.8813,639.7188 504.4906,638.5781 Q505.1156,637.4219 506.2094,636.8125 Q507.3031,636.1875 508.5375,636.1875 Q509.2719,636.1875 509.9125,636.3594 Q510.5688,636.5156 511.1156,636.875 Z " fill="#000000"/><text fill="#000000" font-family="sans-serif" font-size="14" lengthAdjust="spacing" textLength="33" x="528.65" y="646.7969">Entry</text><line style="stroke:#181818;stroke-width:0.5;" x1="466" x2="592" y1="657" y2="657"/><text fill="#000000" font-family="sans-serif" font-size="14" lengthAdjust="spacing" textLength="27" x="471" y="676.1074">-title</text><text fill="#000000" font-family="sans-serif" font-size="14" lengthAdjust="spacing" textLength="74" x="471" y="694.7285">-description</text><text fill="#000000" font-family="sans-serif" font-size="14" lengthAdjust="spacing" textLength="90" x="471" y="713.3496">-urgencyLevel</text><text fill="#000000" font-family="sans-serif" font-size="14" lengthAdjust="spacing" textLength="116" x="471" y="731.9707">-expectedDuration</text><text fill="#000000" font-family="sans-serif" font-size="14" lengthAdjust="spacing" textLength="36" x="471" y="750.5918">-state</text><text fill="#000000" font-family="sans-serif" font-size="14" lengthAdjust="spacing" textLength="82" x="471" y="769.2129">-greenSpace</text><line style="stroke:#181818;stroke-width:0.5;" x1="466" x2="592" y1="776.7266" y2="776.7266"/></g><!--class EntryDto--><g id="elem_EntryDto"><rect codeLine="43" fill="#F1F1F1" height="103.8633" id="EntryDto" rx="2.5" ry="2.5" style="stroke:#181818;stroke-width:0.5;" width="87" x="157.5" y="172"/><ellipse cx="172.5" cy="188" fill="#ADD1B2" rx="11" ry="11" style="stroke:#181818;stroke-width:1.0;"/><path d="M175.2656,183.875 Q175.4219,183.6563 175.6094,183.5469 Q175.7969,183.4375 176.0156,183.4375 Q176.3906,183.4375 176.625,183.7031 Q176.8594,183.9531 176.8594,184.5625 L176.8594,186.0156 Q176.8594,186.625 176.625,186.8906 Q176.3906,187.1563 176.0156,187.1563 Q175.6719,187.1563 175.4688,186.9531 Q175.2656,186.7656 175.1563,186.25 Q175.1094,185.8906 174.9219,185.7031 Q174.5938,185.3281 173.9844,185.1094 Q173.375,184.8906 172.75,184.8906 Q171.9844,184.8906 171.3438,185.2188 Q170.7188,185.5469 170.2188,186.2969 Q169.7344,187.0469 169.7344,188.0781 L169.7344,189.1719 Q169.7344,190.4063 170.625,191.2344 Q171.5156,192.0469 173.1094,192.0469 Q174.0469,192.0469 174.7031,191.7969 Q175.0938,191.6406 175.5156,191.2031 Q175.7813,190.9375 175.9219,190.8594 Q176.0781,190.7813 176.2813,190.7813 Q176.6094,190.7813 176.8594,191.0469 Q177.125,191.2969 177.125,191.6406 Q177.125,191.9844 176.7813,192.3906 Q176.2813,192.9688 175.4844,193.2969 Q174.4063,193.75 173.1094,193.75 Q171.5938,193.75 170.3906,193.125 Q169.4063,192.625 168.7188,191.5625 Q168.0313,190.4844 168.0313,189.2031 L168.0313,188.0469 Q168.0313,186.7188 168.6406,185.5781 Q169.2656,184.4219 170.3594,183.8125 Q171.4531,183.1875 172.6875,183.1875 Q173.4219,183.1875 174.0625,183.3594 Q174.7188,183.5156 175.2656,183.875 Z " fill="#000000"/><text fill="#000000" font-family="sans-serif" font-size="14" lengthAdjust="spacing" textLength="55" x="186.5" y="193.7969">EntryDto</text><line style="stroke:#181818;stroke-width:0.5;" x1="158.5" x2="243.5" y1="204" y2="204"/><text fill="#000000" font-family="sans-serif" font-size="14" lengthAdjust="spacing" textLength="72" x="163.5" y="223.1074">+TaskEntry</text><text fill="#000000" font-family="sans-serif" font-size="14" lengthAdjust="spacing" textLength="38" x="163.5" y="241.7285">+Date</text><text fill="#000000" font-family="sans-serif" font-size="14" lengthAdjust="spacing" textLength="39" x="163.5" y="260.3496">+Time</text><line style="stroke:#181818;stroke-width:0.5;" x1="158.5" x2="243.5" y1="267.8633" y2="267.8633"/></g><!--link AgendaRepository to Entry--><g id="link_AgendaRepository_Entry"><path codeLine="50" d="M529,404.29 C529,455.16 529,548.56 529,618.91 " fill="none" id="AgendaRepository-to-Entry" style="stroke:#181818;stroke-width:1.0;"/><polygon fill="#181818" points="529,624.91,533,615.91,529,619.91,525,615.91,529,624.91" style="stroke:#181818;stroke-width:1.0;"/><text fill="#000000" font-family="sans-serif" font-size="13" lengthAdjust="spacing" textLength="49" x="530" y="529.0283">contains</text><text fill="#000000" font-family="sans-serif" font-size="13" lengthAdjust="spacing" textLength="5" x="523.7695" y="613.7974">*</text></g><!--link CancelAnEntryUI to CancelAnEntryController--><g id="link_CancelAnEntryUI_CancelAnEntryController"><path codeLine="51" d="M145.01,59 C154.46,59 161,59 161,59 C161,59 162.89,59 173.86,59 " fill="none" id="CancelAnEntryUI-to-CancelAnEntryController" style="stroke:#181818;stroke-width:1.0;stroke-dasharray:7.0,7.0;"/><polygon fill="#181818" points="179.86,59,170.86,55,174.86,59,170.86,63,179.86,59" style="stroke:#181818;stroke-width:1.0;"/></g><!--link CancelAnEntryController to Repositories--><g id="link_CancelAnEntryController_Repositories"><path codeLine="52" d="M482.22,59 C516.53,59 546.67,59 579.96,59 " fill="none" id="CancelAnEntryController-to-Repositories" style="stroke:#181818;stroke-width:1.0;stroke-dasharray:7.0,7.0;"/><polygon fill="#181818" points="585.96,59,576.96,55,580.96,59,576.96,63,585.96,59" style="stroke:#181818;stroke-width:1.0;"/><text fill="#000000" font-family="sans-serif" font-size="13" lengthAdjust="spacing" textLength="67" x="500.5" y="52.0283">repositories</text></g><!--link CancelAnEntryUI to EntryDto--><g id="link_CancelAnEntryUI_EntryDto"><path codeLine="53" d="M93.64,83.01 C111.28,106 135.3183,137.3592 158.1683,167.1492 " fill="none" id="CancelAnEntryUI-to-EntryDto" style="stroke:#181818;stroke-width:1.0;stroke-dasharray:7.0,7.0;"/><polygon fill="#181818" points="161.82,171.91,159.5163,162.3344,158.7769,167.9427,153.1686,167.2033,161.82,171.91" style="stroke:#181818;stroke-width:1.0;"/></g><!--link CancelAnEntryController to EntryDto--><g id="link_CancelAnEntryController_EntryDto"><path codeLine="54" d="M290.22,111.13 C274.81,130.45 261.0231,147.7508 245.5931,167.0808 " fill="none" id="CancelAnEntryController-to-EntryDto" style="stroke:#181818;stroke-width:1.0;stroke-dasharray:7.0,7.0;"/><polygon fill="#181818" points="241.85,171.77,250.5909,167.2316,244.9693,167.8623,244.3386,162.2407,241.85,171.77" style="stroke:#181818;stroke-width:1.0;"/></g><!--link Repositories to Repositories--><g id="link_Repositories_Repositories"><path codeLine="55" d="M844.25,44.84 C864.88,46.91 879,51.63 879,59 C879,66.37 870.85,70.491 850.22,72.561 " fill="none" id="Repositories-to-Repositories" style="stroke:#181818;stroke-width:1.0;"/><polygon fill="#181818" points="844.25,73.16,853.6044,76.2415,849.225,72.6608,852.8057,68.2814,844.25,73.16" style="stroke:#181818;stroke-width:1.0;"/><text fill="#000000" font-family="sans-serif" font-size="13" lengthAdjust="spacing" textLength="49" x="885" y="64.5283">instance</text></g><!--link Repositories to Entry--><g id="link_Repositories_Entry"><path codeLine="56" d="M712.8,111.13 C710.75,158.93 708,223 708,223 C708,223 708,223 708,564 C708,564 649.2061,609.9836 597.8461,650.1536 " fill="none" id="Repositories-to-Entry" style="stroke:#181818;stroke-width:1.0;"/><polygon fill="#181818" points="593.12,653.85,602.6735,651.4561,597.0584,650.7696,597.7449,645.1546,593.12,653.85" style="stroke:#181818;stroke-width:1.0;"/><text fill="#000000" font-family="sans-serif" font-size="13" lengthAdjust="spacing" textLength="7" x="705.0697" y="132.9539">1</text><text fill="#000000" font-family="sans-serif" font-size="13" lengthAdjust="spacing" textLength="5" x="600.8229" y="644.0139">*</text></g><!--link Repositories to AgendaRepository--><g id="link_Repositories_AgendaRepository"><path codeLine="57" d="M684.29,111.11 C645.8,175.15 584.0605,277.8772 551.7005,331.7272 " fill="none" id="Repositories-to-AgendaRepository" style="stroke:#181818;stroke-width:1.0;"/><polygon fill="#181818" points="548.61,336.87,556.6743,331.216,551.1854,332.5843,549.8172,327.0954,548.61,336.87" style="stroke:#181818;stroke-width:1.0;"/><text fill="#000000" font-family="sans-serif" font-size="13" lengthAdjust="spacing" textLength="7" x="544.7817" y="325.6699">1</text></g><!--link CancelAnEntryController to Entry--><g id="link_CancelAnEntryController_Entry"><path codeLine="59" d="M332.88,111.13 C334.64,158.93 337,223 337,223 C337,223 337,223 337,564 C337,564 404.1319,612.9551 459.9519,653.6551 " fill="none" id="CancelAnEntryController-to-Entry" style="stroke:#181818;stroke-width:1.0;stroke-dasharray:7.0,7.0;"/><polygon fill="#181818" points="464.8,657.19,459.8844,648.6555,460.7599,654.2442,455.1712,655.1197,464.8,657.19" style="stroke:#181818;stroke-width:1.0;"/><text fill="#000000" font-family="sans-serif" font-size="13" lengthAdjust="spacing" textLength="31" x="338" y="449.0283">Entry</text></g><!--link CancelAnEntryController to AgendaRepository--><g id="link_CancelAnEntryController_AgendaRepository"><path codeLine="60" d="M363.7,111.19 C404.51,175.06 469,276 469,276 C469,276 487.4696,304.7903 504.7696,331.7503 " fill="none" id="CancelAnEntryController-to-AgendaRepository" style="stroke:#181818;stroke-width:1.0;stroke-dasharray:7.0,7.0;"/><polygon fill="#181818" points="508.01,336.8,506.5159,327.0651,505.3097,332.5919,499.7829,331.3856,508.01,336.8" style="stroke:#181818;stroke-width:1.0;"/><text fill="#000000" font-family="sans-serif" font-size="13" lengthAdjust="spacing" textLength="106" x="470" y="229.5283">AgendaRepository</text><text fill="#000000" font-family="sans-serif" font-size="13" lengthAdjust="spacing" textLength="7" x="496.3416" y="325.8478">1</text></g><!--SRC=[ZLFBRkf03DtxAomsG56YTii22K4NI7THNTeFc2Pk636CenbpRzEe_zx9q48I7ceMKMoVO_lOpj1ljIsLKplSiULiutX7A6vFS8gKAjkgWjPI6K97cIXRc3R0RrJE_xKjy4qPtuuORKcgah1aKpK632y4sGb3YvKPvVrSnEdNlT0gOxlM7uJt04D3RuB2w7In4Snrquvc2n0vk50s8pEtZrPSzRAguHCkXXOStcmCkHgIUK4sLt-fPA-5NOMgvm0Cp-HQXb4VFlx65oHFHbbB-TpcJ-obvF3zhFns522VFuqTYPeyrf6RT9oZyRHZdzAlh9UcgT4Ohq7wuiwXfn6T3QB-ZH8uAi4ucGCfoX0juL2EPau-SxgC2piwzovKpQe_z8_CoKllPTWivSkzKrryK2ojd8KZikjmejHg9FQn5AvXqZGPJPWi6-BaMUyeQZvJcoGp7DmD3kmfXhCJfQs7tb5XEiDhjm1N_9YcgPjrLpqD_r9h3HUg_CYuaRK5wYHFpehfxrlfuWOFWwxkNfeO2vZ-i03mXjIqQUoGBrG-vBs5lrmZKFkkBm00]--></g></svg>