<?xml version="1.0" encoding="us-ascii" standalone="no"?><svg xmlns="http://www.w3.org/2000/svg" xmlns:xlink="http://www.w3.org/1999/xlink" contentStyleType="text/css" height="1175px" preserveAspectRatio="none" style="width:1217px;height:1175px;background:#FFFFFF;" version="1.1" viewBox="0 0 1217 1175" width="1217px" zoomAndPan="magnify"><defs/><g><rect fill="#FFFFFF" height="943.1484" style="stroke:#181818;stroke-width:1.0;" width="10" x="47" y="112.2422"/><rect fill="#FFFFFF" height="606.9473" style="stroke:#181818;stroke-width:1.0;" width="10" x="313" y="135.5332"/><rect fill="#FFFFFF" height="31.291" style="stroke:#181818;stroke-width:1.0;" width="10" x="313" y="773.7715"/><rect fill="#FFFFFF" height="219.0371" style="stroke:#181818;stroke-width:1.0;" width="10" x="313" y="836.3535"/><rect fill="#FFFFFF" height="513.0742" style="stroke:#181818;stroke-width:1.0;" width="10" x="476" y="198.1152"/><rect fill="#FFFFFF" height="156.4551" style="stroke:#181818;stroke-width:1.0;" width="10" x="476" y="867.6445"/><rect fill="#FFFFFF" height="31.291" style="stroke:#181818;stroke-width:1.0;" width="10" x="619.5" y="229.4063"/><rect fill="#FFFFFF" height="31.291" style="stroke:#181818;stroke-width:1.0;" width="10" x="719" y="291.9883"/><rect fill="#FFFFFF" height="31.291" style="stroke:#181818;stroke-width:1.0;" width="10" x="719" y="898.9355"/><rect fill="#FFFFFF" height="647.2383" style="stroke:#181818;stroke-width:1.0;" width="10" x="803" y="417.1523"/><rect fill="#FFFFFF" height="104.582" style="stroke:#181818;stroke-width:1.0;" width="10" x="808" y="575.3164"/><rect fill="#FFFFFF" height="31.291" style="stroke:#181818;stroke-width:1.0;" width="10" x="994" y="354.5703"/><rect fill="#FFFFFF" height="30" style="stroke:#181818;stroke-width:1.0;" width="10" x="994" y="506.0254"/><rect fill="#FFFFFF" height="31.291" style="stroke:#181818;stroke-width:1.0;" width="10" x="994" y="961.5176"/><rect fill="#FFFFFF" height="30" style="stroke:#181818;stroke-width:1.0;" width="10" x="1134" y="611.6074"/><rect fill="none" height="186.1641" style="stroke:#000000;stroke-width:1.5;" width="444.5" x="767" y="463.4434"/><line style="stroke:#181818;stroke-width:0.5;stroke-dasharray:5.0,5.0;" x1="52" x2="52" y1="102.2422" y2="1073.3906"/><line style="stroke:#181818;stroke-width:0.5;stroke-dasharray:5.0,5.0;" x1="318" x2="318" y1="102.2422" y2="1073.3906"/><line style="stroke:#181818;stroke-width:0.5;stroke-dasharray:5.0,5.0;" x1="481" x2="481" y1="102.2422" y2="1073.3906"/><line style="stroke:#181818;stroke-width:0.5;stroke-dasharray:5.0,5.0;" x1="624" x2="624" y1="102.2422" y2="1073.3906"/><line style="stroke:#181818;stroke-width:0.5;stroke-dasharray:5.0,5.0;" x1="724" x2="724" y1="102.2422" y2="1073.3906"/><line style="stroke:#181818;stroke-width:0.5;stroke-dasharray:5.0,5.0;" x1="808" x2="808" y1="102.2422" y2="1073.3906"/><line style="stroke:#181818;stroke-width:0.5;stroke-dasharray:5.0,5.0;" x1="998.5" x2="998.5" y1="102.2422" y2="1073.3906"/><line style="stroke:#181818;stroke-width:0.5;stroke-dasharray:5.0,5.0;" x1="1138.5" x2="1138.5" y1="102.2422" y2="1073.3906"/><text fill="#000000" font-family="sans-serif" font-size="14" lengthAdjust="spacing" textLength="84" x="5" y="80.1074">Green Space</text><text fill="#000000" font-family="sans-serif" font-size="14" lengthAdjust="spacing" textLength="56" x="23" y="98.7285">Manager</text><ellipse cx="52" cy="13.5" fill="#E3E3E3" rx="8" ry="8" style="stroke:#181818;stroke-width:0.5;"/><path d="M52,21.5 L52,48.5 M39,29.5 L65,29.5 M52,48.5 L39,63.5 M52,48.5 L65,63.5 " fill="none" style="stroke:#181818;stroke-width:0.5;"/><text fill="#000000" font-family="sans-serif" font-size="14" lengthAdjust="spacing" textLength="84" x="5" y="1087.498">Green Space</text><text fill="#000000" font-family="sans-serif" font-size="14" lengthAdjust="spacing" textLength="56" x="23" y="1106.1191">Manager</text><ellipse cx="52" cy="1118.1328" fill="#E3E3E3" rx="8" ry="8" style="stroke:#181818;stroke-width:0.5;"/><path d="M52,1126.1328 L52,1153.1328 M39,1134.1328 L65,1134.1328 M52,1153.1328 L39,1168.1328 M52,1153.1328 L65,1168.1328 " fill="none" style="stroke:#181818;stroke-width:0.5;"/><rect fill="#E3E3E3" height="32.6211" rx="2.5" ry="2.5" style="stroke:#181818;stroke-width:0.5;" width="124" x="256" y="68.6211"/><text fill="#000000" font-family="sans-serif" font-size="14" lengthAdjust="spacing" textLength="110" x="263" y="90.7285">:CancelAnEntryUI</text><rect fill="#E3E3E3" height="32.6211" rx="2.5" ry="2.5" style="stroke:#181818;stroke-width:0.5;" width="124" x="256" y="1072.3906"/><text fill="#000000" font-family="sans-serif" font-size="14" lengthAdjust="spacing" textLength="110" x="263" y="1094.498">:CancelAnEntryUI</text><rect fill="#E3E3E3" height="32.6211" rx="2.5" ry="2.5" style="stroke:#181818;stroke-width:0.5;" width="174" x="394" y="68.6211"/><text fill="#000000" font-family="sans-serif" font-size="14" lengthAdjust="spacing" textLength="160" x="401" y="90.7285">:CancelAnEntryController</text><rect fill="#E3E3E3" height="32.6211" rx="2.5" ry="2.5" style="stroke:#181818;stroke-width:0.5;" width="174" x="394" y="1072.3906"/><text fill="#000000" font-family="sans-serif" font-size="14" lengthAdjust="spacing" textLength="160" x="401" y="1094.498">:CancelAnEntryController</text><rect fill="#E3E3E3" height="32.6211" rx="2.5" ry="2.5" style="stroke:#181818;stroke-width:0.5;" width="93" x="578" y="68.6211"/><text fill="#000000" font-family="sans-serif" font-size="14" lengthAdjust="spacing" textLength="79" x="585" y="90.7285">Repositories</text><rect fill="#E3E3E3" height="32.6211" rx="2.5" ry="2.5" style="stroke:#181818;stroke-width:0.5;" width="93" x="578" y="1072.3906"/><text fill="#000000" font-family="sans-serif" font-size="14" lengthAdjust="spacing" textLength="79" x="585" y="1094.498">Repositories</text><rect fill="#E3E3E3" height="51.2422" rx="2.5" ry="2.5" style="stroke:#181818;stroke-width:0.5;" width="86" x="681" y="50"/><text fill="#000000" font-family="sans-serif" font-size="14" lengthAdjust="spacing" textLength="63" x="692.5" y="72.1074">repository</text><text fill="#000000" font-family="sans-serif" font-size="14" lengthAdjust="spacing" textLength="72" x="688" y="90.7285">:Repository</text><rect fill="#E3E3E3" height="51.2422" rx="2.5" ry="2.5" style="stroke:#181818;stroke-width:0.5;" width="86" x="681" y="1072.3906"/><text fill="#000000" font-family="sans-serif" font-size="14" lengthAdjust="spacing" textLength="63" x="692.5" y="1094.498">repository</text><text fill="#000000" font-family="sans-serif" font-size="14" lengthAdjust="spacing" textLength="72" x="688" y="1113.1191">:Repository</text><rect fill="#E3E3E3" height="32.6211" rx="2.5" ry="2.5" style="stroke:#181818;stroke-width:0.5;" width="62" x="777" y="68.6211"/><text fill="#000000" font-family="sans-serif" font-size="14" lengthAdjust="spacing" textLength="48" x="784" y="90.7285">:Entries</text><rect fill="#E3E3E3" height="32.6211" rx="2.5" ry="2.5" style="stroke:#181818;stroke-width:0.5;" width="62" x="777" y="1072.3906"/><text fill="#000000" font-family="sans-serif" font-size="14" lengthAdjust="spacing" textLength="48" x="784" y="1094.498">:Entries</text><rect fill="#E3E3E3" height="32.6211" rx="2.5" ry="2.5" style="stroke:#181818;stroke-width:0.5;" width="135" x="931.5" y="68.6211"/><text fill="#000000" font-family="sans-serif" font-size="14" lengthAdjust="spacing" textLength="121" x="938.5" y="90.7285">:AgendaRepository</text><rect fill="#E3E3E3" height="32.6211" rx="2.5" ry="2.5" style="stroke:#181818;stroke-width:0.5;" width="135" x="931.5" y="1072.3906"/><text fill="#000000" font-family="sans-serif" font-size="14" lengthAdjust="spacing" textLength="121" x="938.5" y="1094.498">:AgendaRepository</text><rect fill="#E3E3E3" height="32.6211" rx="2.5" ry="2.5" style="stroke:#181818;stroke-width:0.5;" width="125" x="1076.5" y="68.6211"/><text fill="#000000" font-family="sans-serif" font-size="14" lengthAdjust="spacing" textLength="111" x="1083.5" y="90.7285">objDto: EntrysDto</text><rect fill="#E3E3E3" height="32.6211" rx="2.5" ry="2.5" style="stroke:#181818;stroke-width:0.5;" width="125" x="1076.5" y="1072.3906"/><text fill="#000000" font-family="sans-serif" font-size="14" lengthAdjust="spacing" textLength="111" x="1083.5" y="1094.498">objDto: EntrysDto</text><rect fill="#FFFFFF" height="943.1484" style="stroke:#181818;stroke-width:1.0;" width="10" x="47" y="112.2422"/><rect fill="#FFFFFF" height="606.9473" style="stroke:#181818;stroke-width:1.0;" width="10" x="313" y="135.5332"/><rect fill="#FFFFFF" height="31.291" style="stroke:#181818;stroke-width:1.0;" width="10" x="313" y="773.7715"/><rect fill="#FFFFFF" height="219.0371" style="stroke:#181818;stroke-width:1.0;" width="10" x="313" y="836.3535"/><rect fill="#FFFFFF" height="513.0742" style="stroke:#181818;stroke-width:1.0;" width="10" x="476" y="198.1152"/><rect fill="#FFFFFF" height="156.4551" style="stroke:#181818;stroke-width:1.0;" width="10" x="476" y="867.6445"/><rect fill="#FFFFFF" height="31.291" style="stroke:#181818;stroke-width:1.0;" width="10" x="619.5" y="229.4063"/><rect fill="#FFFFFF" height="31.291" style="stroke:#181818;stroke-width:1.0;" width="10" x="719" y="291.9883"/><rect fill="#FFFFFF" height="31.291" style="stroke:#181818;stroke-width:1.0;" width="10" x="719" y="898.9355"/><rect fill="#FFFFFF" height="647.2383" style="stroke:#181818;stroke-width:1.0;" width="10" x="803" y="417.1523"/><rect fill="#FFFFFF" height="104.582" style="stroke:#181818;stroke-width:1.0;" width="10" x="808" y="575.3164"/><rect fill="#FFFFFF" height="31.291" style="stroke:#181818;stroke-width:1.0;" width="10" x="994" y="354.5703"/><rect fill="#FFFFFF" height="30" style="stroke:#181818;stroke-width:1.0;" width="10" x="994" y="506.0254"/><rect fill="#FFFFFF" height="31.291" style="stroke:#181818;stroke-width:1.0;" width="10" x="994" y="961.5176"/><rect fill="#FFFFFF" height="30" style="stroke:#181818;stroke-width:1.0;" width="10" x="1134" y="611.6074"/><polygon fill="#181818" points="301,131.5332,311,135.5332,301,139.5332,305,135.5332" style="stroke:#181818;stroke-width:1.0;"/><line style="stroke:#181818;stroke-width:1.0;" x1="57" x2="307" y1="135.5332" y2="135.5332"/><text fill="#000000" font-family="sans-serif" font-size="13" font-weight="bold" lengthAdjust="spacing" textLength="7" x="64" y="130.2705">1</text><text fill="#000000" font-family="sans-serif" font-size="13" lengthAdjust="spacing" textLength="158" x="75" y="130.2705">asks to cancel a task entry</text><polygon fill="#181818" points="469,162.8242,479,166.8242,469,170.8242,473,166.8242" style="stroke:#181818;stroke-width:1.0;"/><line style="stroke:#181818;stroke-width:1.0;" x1="323" x2="475" y1="166.8242" y2="166.8242"/><text fill="#000000" font-family="sans-serif" font-size="13" font-weight="bold" lengthAdjust="spacing" textLength="7" x="330" y="161.5615">2</text><text fill="#000000" font-family="sans-serif" font-size="13" lengthAdjust="spacing" textLength="36" x="341" y="161.5615">create</text><polygon fill="#181818" points="464,194.1152,474,198.1152,464,202.1152,468,198.1152" style="stroke:#181818;stroke-width:1.0;"/><line style="stroke:#181818;stroke-width:1.0;" x1="323" x2="470" y1="198.1152" y2="198.1152"/><text fill="#000000" font-family="sans-serif" font-size="13" font-weight="bold" lengthAdjust="spacing" textLength="7" x="330" y="192.8525">3</text><text fill="#000000" font-family="sans-serif" font-size="13" lengthAdjust="spacing" textLength="67" x="341" y="192.8525">getEntries()</text><polygon fill="#181818" points="607.5,225.4063,617.5,229.4063,607.5,233.4063,611.5,229.4063" style="stroke:#181818;stroke-width:1.0;"/><line style="stroke:#181818;stroke-width:1.0;" x1="486" x2="613.5" y1="229.4063" y2="229.4063"/><text fill="#000000" font-family="sans-serif" font-size="13" font-weight="bold" lengthAdjust="spacing" textLength="7" x="493" y="224.1436">4</text><text fill="#000000" font-family="sans-serif" font-size="13" lengthAdjust="spacing" textLength="75" x="504" y="224.1436">getInstance()</text><polygon fill="#181818" points="497,256.6973,487,260.6973,497,264.6973,493,260.6973" style="stroke:#181818;stroke-width:1.0;"/><line style="stroke:#181818;stroke-width:1.0;stroke-dasharray:2.0,2.0;" x1="491" x2="623.5" y1="260.6973" y2="260.6973"/><text fill="#000000" font-family="sans-serif" font-size="13" font-weight="bold" lengthAdjust="spacing" textLength="7" x="503" y="255.4346">5</text><text fill="#000000" font-family="sans-serif" font-size="13" lengthAdjust="spacing" textLength="67" x="514" y="255.4346">repositories</text><polygon fill="#181818" points="707,287.9883,717,291.9883,707,295.9883,711,291.9883" style="stroke:#181818;stroke-width:1.0;"/><line style="stroke:#181818;stroke-width:1.0;" x1="486" x2="713" y1="291.9883" y2="291.9883"/><text fill="#000000" font-family="sans-serif" font-size="13" font-weight="bold" lengthAdjust="spacing" textLength="7" x="493" y="286.7256">6</text><text fill="#000000" font-family="sans-serif" font-size="13" lengthAdjust="spacing" textLength="132" x="504" y="286.7256">getAgendaRepository()</text><polygon fill="#181818" points="497,319.2793,487,323.2793,497,327.2793,493,323.2793" style="stroke:#181818;stroke-width:1.0;"/><line style="stroke:#181818;stroke-width:1.0;stroke-dasharray:2.0,2.0;" x1="491" x2="723" y1="323.2793" y2="323.2793"/><text fill="#000000" font-family="sans-serif" font-size="13" font-weight="bold" lengthAdjust="spacing" textLength="7" x="503" y="318.0166">7</text><text fill="#000000" font-family="sans-serif" font-size="13" lengthAdjust="spacing" textLength="106" x="514" y="318.0166">AgendaRepository</text><polygon fill="#181818" points="982,350.5703,992,354.5703,982,358.5703,986,354.5703" style="stroke:#181818;stroke-width:1.0;"/><line style="stroke:#181818;stroke-width:1.0;" x1="486" x2="988" y1="354.5703" y2="354.5703"/><text fill="#000000" font-family="sans-serif" font-size="13" font-weight="bold" lengthAdjust="spacing" textLength="7" x="493" y="349.3076">8</text><text fill="#000000" font-family="sans-serif" font-size="13" lengthAdjust="spacing" textLength="67" x="504" y="349.3076">getEntries()</text><polygon fill="#181818" points="497,381.8613,487,385.8613,497,389.8613,493,385.8613" style="stroke:#181818;stroke-width:1.0;"/><line style="stroke:#181818;stroke-width:1.0;stroke-dasharray:2.0,2.0;" x1="491" x2="998" y1="385.8613" y2="385.8613"/><text fill="#000000" font-family="sans-serif" font-size="13" font-weight="bold" lengthAdjust="spacing" textLength="7" x="503" y="380.5986">9</text><text fill="#000000" font-family="sans-serif" font-size="13" lengthAdjust="spacing" textLength="62" x="514" y="380.5986">EntriesList</text><polygon fill="#181818" points="791,413.1523,801,417.1523,791,421.1523,795,417.1523" style="stroke:#181818;stroke-width:1.0;"/><line style="stroke:#181818;stroke-width:1.0;" x1="486" x2="797" y1="417.1523" y2="417.1523"/><text fill="#000000" font-family="sans-serif" font-size="13" font-weight="bold" lengthAdjust="spacing" textLength="14" x="493" y="411.8896">10</text><text fill="#000000" font-family="sans-serif" font-size="13" lengthAdjust="spacing" textLength="131" x="511" y="411.8896">ToDTOList(EntriesList)</text><polygon fill="#181818" points="1127,444.4434,1137,448.4434,1127,452.4434,1131,448.4434" style="stroke:#181818;stroke-width:1.0;"/><line style="stroke:#181818;stroke-width:1.0;" x1="813" x2="1133" y1="448.4434" y2="448.4434"/><text fill="#000000" font-family="sans-serif" font-size="13" font-weight="bold" lengthAdjust="spacing" textLength="14" x="820" y="443.1807">11</text><text fill="#000000" font-family="sans-serif" font-size="13" lengthAdjust="spacing" textLength="46" x="838" y="443.1807">Create()</text><path d="M767,463.4434 L840,463.4434 L840,472.7344 L830,482.7344 L767,482.7344 L767,463.4434 " fill="#EEEEEE" style="stroke:#000000;stroke-width:1.5;"/><rect fill="none" height="186.1641" style="stroke:#000000;stroke-width:1.5;" width="444.5" x="767" y="463.4434"/><text fill="#000000" font-family="sans-serif" font-size="13" font-weight="bold" lengthAdjust="spacing" textLength="28" x="782" y="478.4717">loop</text><text fill="#000000" font-family="sans-serif" font-size="11" font-weight="bold" lengthAdjust="spacing" textLength="182" x="855" y="477.3135">[for each entry in the entries list]</text><polygon fill="#181818" points="982,502.0254,992,506.0254,982,510.0254,986,506.0254" style="stroke:#181818;stroke-width:1.0;"/><line style="stroke:#181818;stroke-width:1.0;" x1="813" x2="988" y1="506.0254" y2="506.0254"/><text fill="#000000" font-family="sans-serif" font-size="13" font-weight="bold" lengthAdjust="spacing" textLength="14" x="820" y="500.7627">12</text><text fill="#000000" font-family="sans-serif" font-size="13" lengthAdjust="spacing" textLength="76" x="838" y="500.7627">Entry = get(i)</text><line style="stroke:#181818;stroke-width:1.0;" x1="813" x2="860" y1="562.3164" y2="562.3164"/><line style="stroke:#181818;stroke-width:1.0;" x1="860" x2="860" y1="562.3164" y2="575.3164"/><line style="stroke:#181818;stroke-width:1.0;" x1="819" x2="860" y1="575.3164" y2="575.3164"/><polygon fill="#181818" points="829,571.3164,819,575.3164,829,579.3164,825,575.3164" style="stroke:#181818;stroke-width:1.0;"/><text fill="#000000" font-family="sans-serif" font-size="13" font-weight="bold" lengthAdjust="spacing" textLength="14" x="825" y="557.0537">13</text><text fill="#000000" font-family="sans-serif" font-size="13" lengthAdjust="spacing" textLength="149" x="843" y="557.0537">EntryDTO = toDTO(Entry)</text><polygon fill="#181818" points="1122,607.6074,1132,611.6074,1122,615.6074,1126,611.6074" style="stroke:#181818;stroke-width:1.0;"/><line style="stroke:#181818;stroke-width:1.0;" x1="818" x2="1128" y1="611.6074" y2="611.6074"/><text fill="#000000" font-family="sans-serif" font-size="13" font-weight="bold" lengthAdjust="spacing" textLength="14" x="825" y="606.3447">14</text><text fill="#000000" font-family="sans-serif" font-size="13" lengthAdjust="spacing" textLength="80" x="843" y="606.3447">add(EntryDto)</text><polygon fill="#181818" points="497,675.8984,487,679.8984,497,683.8984,493,679.8984" style="stroke:#181818;stroke-width:1.0;"/><line style="stroke:#181818;stroke-width:1.0;" x1="491" x2="802" y1="679.8984" y2="679.8984"/><text fill="#000000" font-family="sans-serif" font-size="13" font-weight="bold" lengthAdjust="spacing" textLength="14" x="503" y="674.6357">15</text><text fill="#000000" font-family="sans-serif" font-size="13" lengthAdjust="spacing" textLength="72" x="521" y="674.6357">EntryDtoList</text><polygon fill="#181818" points="334,707.1895,324,711.1895,334,715.1895,330,711.1895" style="stroke:#181818;stroke-width:1.0;"/><line style="stroke:#181818;stroke-width:1.0;stroke-dasharray:2.0,2.0;" x1="328" x2="480" y1="711.1895" y2="711.1895"/><text fill="#000000" font-family="sans-serif" font-size="13" font-weight="bold" lengthAdjust="spacing" textLength="14" x="340" y="705.9268">16</text><text fill="#000000" font-family="sans-serif" font-size="13" lengthAdjust="spacing" textLength="57" x="358" y="705.9268">EntryDTO</text><polygon fill="#181818" points="68,738.4805,58,742.4805,68,746.4805,64,742.4805" style="stroke:#181818;stroke-width:1.0;"/><line style="stroke:#181818;stroke-width:1.0;stroke-dasharray:2.0,2.0;" x1="62" x2="317" y1="742.4805" y2="742.4805"/><text fill="#000000" font-family="sans-serif" font-size="13" font-weight="bold" lengthAdjust="spacing" textLength="14" x="74" y="737.2178">17</text><text fill="#000000" font-family="sans-serif" font-size="13" lengthAdjust="spacing" textLength="126" x="92" y="737.2178">shows a list of entries</text><polygon fill="#181818" points="301,769.7715,311,773.7715,301,777.7715,305,773.7715" style="stroke:#181818;stroke-width:1.0;"/><line style="stroke:#181818;stroke-width:1.0;" x1="57" x2="307" y1="773.7715" y2="773.7715"/><text fill="#000000" font-family="sans-serif" font-size="13" font-weight="bold" lengthAdjust="spacing" textLength="14" x="64" y="768.5088">18</text><text fill="#000000" font-family="sans-serif" font-size="13" lengthAdjust="spacing" textLength="93" x="82" y="768.5088">selects an entry</text><polygon fill="#181818" points="68,801.0625,58,805.0625,68,809.0625,64,805.0625" style="stroke:#181818;stroke-width:1.0;"/><line style="stroke:#181818;stroke-width:1.0;stroke-dasharray:2.0,2.0;" x1="62" x2="317" y1="805.0625" y2="805.0625"/><text fill="#000000" font-family="sans-serif" font-size="13" font-weight="bold" lengthAdjust="spacing" textLength="14" x="74" y="799.7998">19</text><text fill="#000000" font-family="sans-serif" font-size="13" lengthAdjust="spacing" textLength="214" x="92" y="799.7998">requests confirmation to cancel entry</text><polygon fill="#181818" points="301,832.3535,311,836.3535,301,840.3535,305,836.3535" style="stroke:#181818;stroke-width:1.0;"/><line style="stroke:#181818;stroke-width:1.0;" x1="57" x2="307" y1="836.3535" y2="836.3535"/><text fill="#000000" font-family="sans-serif" font-size="13" font-weight="bold" lengthAdjust="spacing" textLength="14" x="64" y="831.0908">20</text><text fill="#000000" font-family="sans-serif" font-size="13" lengthAdjust="spacing" textLength="122" x="82" y="831.0908">confirms cancellation</text><polygon fill="#181818" points="464,863.6445,474,867.6445,464,871.6445,468,867.6445" style="stroke:#181818;stroke-width:1.0;"/><line style="stroke:#181818;stroke-width:1.0;" x1="323" x2="470" y1="867.6445" y2="867.6445"/><text fill="#000000" font-family="sans-serif" font-size="13" font-weight="bold" lengthAdjust="spacing" textLength="14" x="330" y="862.3818">21</text><text fill="#000000" font-family="sans-serif" font-size="13" lengthAdjust="spacing" textLength="116" x="348" y="862.3818">cancelEntry(entryId)</text><polygon fill="#181818" points="707,894.9355,717,898.9355,707,902.9355,711,898.9355" style="stroke:#181818;stroke-width:1.0;"/><line style="stroke:#181818;stroke-width:1.0;" x1="486" x2="713" y1="898.9355" y2="898.9355"/><text fill="#000000" font-family="sans-serif" font-size="13" font-weight="bold" lengthAdjust="spacing" textLength="14" x="493" y="893.6729">22</text><text fill="#000000" font-family="sans-serif" font-size="13" lengthAdjust="spacing" textLength="132" x="511" y="893.6729">getAgendaRepository()</text><polygon fill="#181818" points="497,926.2266,487,930.2266,497,934.2266,493,930.2266" style="stroke:#181818;stroke-width:1.0;"/><line style="stroke:#181818;stroke-width:1.0;stroke-dasharray:2.0,2.0;" x1="491" x2="723" y1="930.2266" y2="930.2266"/><text fill="#000000" font-family="sans-serif" font-size="13" font-weight="bold" lengthAdjust="spacing" textLength="14" x="503" y="924.9639">23</text><text fill="#000000" font-family="sans-serif" font-size="13" lengthAdjust="spacing" textLength="106" x="521" y="924.9639">AgendaRepository</text><polygon fill="#181818" points="982,957.5176,992,961.5176,982,965.5176,986,961.5176" style="stroke:#181818;stroke-width:1.0;"/><line style="stroke:#181818;stroke-width:1.0;" x1="486" x2="988" y1="961.5176" y2="961.5176"/><text fill="#000000" font-family="sans-serif" font-size="13" font-weight="bold" lengthAdjust="spacing" textLength="14" x="493" y="956.2549">24</text><text fill="#000000" font-family="sans-serif" font-size="13" lengthAdjust="spacing" textLength="113" x="511" y="956.2549">deleteEntry(entryId)</text><polygon fill="#181818" points="497,988.8086,487,992.8086,497,996.8086,493,992.8086" style="stroke:#181818;stroke-width:1.0;"/><line style="stroke:#181818;stroke-width:1.0;stroke-dasharray:2.0,2.0;" x1="491" x2="998" y1="992.8086" y2="992.8086"/><text fill="#000000" font-family="sans-serif" font-size="13" font-weight="bold" lengthAdjust="spacing" textLength="14" x="503" y="987.5459">25</text><text fill="#000000" font-family="sans-serif" font-size="13" lengthAdjust="spacing" textLength="73" x="521" y="987.5459">entryDeleted</text><polygon fill="#181818" points="334,1020.0996,324,1024.0996,334,1028.0996,330,1024.0996" style="stroke:#181818;stroke-width:1.0;"/><line style="stroke:#181818;stroke-width:1.0;stroke-dasharray:2.0,2.0;" x1="328" x2="480" y1="1024.0996" y2="1024.0996"/><text fill="#000000" font-family="sans-serif" font-size="13" font-weight="bold" lengthAdjust="spacing" textLength="14" x="340" y="1018.8369">26</text><text fill="#000000" font-family="sans-serif" font-size="13" lengthAdjust="spacing" textLength="73" x="358" y="1018.8369">entryDeleted</text><polygon fill="#181818" points="63,1051.3906,53,1055.3906,63,1059.3906,59,1055.3906" style="stroke:#181818;stroke-width:1.0;"/><line style="stroke:#181818;stroke-width:1.0;stroke-dasharray:2.0,2.0;" x1="57" x2="317" y1="1055.3906" y2="1055.3906"/><text fill="#000000" font-family="sans-serif" font-size="13" font-weight="bold" lengthAdjust="spacing" textLength="14" x="69" y="1050.1279">27</text><text fill="#000000" font-family="sans-serif" font-size="13" lengthAdjust="spacing" textLength="174" x="87" y="1050.1279">displays cancellation success</text><!--SRC=[pLLDZzem4BtdLumuiOVz0v5Q2K65a41TyN7RYzSPmCNOgMswujztR98GEmbbRyrXDyJpthpvo8iz2LKomyvmrahpez5d16SkcDdcf6Jyn0wuSLU9O90xfWwo7M2FhD2VGXrWpwJ5B6CNfzNb_866xhdJ1aPpWwXWGrm8xmfMJ16b6G6pCD-iCY9oWekIAGUZVCeKHpbHFvGprzqYHEqMZuAcclvgAIlAwNQzZCFNM6ehI8f06qAQ1zUDyFMGuXXXce1tbT-Z0_XjETacShoCcdirUKjE9mTK1KjOTkjv7AO_VisSpY6KPEdsrf_PzcSM6Yd-C8UXNndGHJVm-fqw0pd5dImu3Jnq1HWuUWBeYK9iWwO-GdKHaE2-LqJ03T9n_za1NLNU-AM9Q1X3ivl7_WemWlVq-CQsKDPveIswYB9lE56al_hON- -YJMlY4RR0v_FKbVY1twIdanmg8Qn8HtFWQObCsOQ4TjbgPRH4GnEAvqxBrf7ZmIqr5SLIM3Saf4DJww2T9uQjfcNr-76BQq2HVqjIGPw5oFpAvp0DAvaKv2-fTGbxiXNITRmjEGW5xeZX1wK5cTRGOgSQgdSClldEZKKtHLHmUfZqOo0D_QlIK3MKoVdUXBvS7-JxPrTOKTn8o1zUic6YO1iFbFUUqpOEPVU3hkjn-j6E-19wTgIsghebMGyqzX9lGhvkyhcSlZBwqvAn-Sc2tjUJpjA1BBAsBrgKzCKYd1emm_va1dzVq1AEQxKNvioS87Uv- -kTAqxTyUKARokW34HFEd90X6wDGxv5yINt_Tyzgw3HE1oexylU5HXcWR9uohpYfUo5FxUOXR2bPDTun60ldAFjMy_sEqYVyhy0]--></g></svg>