<?xml version="1.0" encoding="us-ascii" standalone="no"?><svg xmlns="http://www.w3.org/2000/svg"  contentStyleType="text/css" height="722px" preserveAspectRatio="none" style="width:430px;height:722px;background:#FFFFFF;" version="1.1" viewBox="0 0 430 722" width="430px" zoomAndPan="magnify"><defs/><g><text fill="#000000" font-family="sans-serif" font-size="14" font-weight="bold" lengthAdjust="spacing" textLength="331" x="45.5" y="44.4082">US028 - List assigned tasks between two dates.</text><rect fill="#FFFFFF" height="483.0742" style="stroke:#181818;stroke-width:1.0;" width="10" x="42" y="147.543"/><rect fill="#FFFFFF" height="31.291" style="stroke:#181818;stroke-width:1.0;" width="10" x="261" y="188.125"/><rect fill="#FFFFFF" height="75.582" style="stroke:#181818;stroke-width:1.0;" width="10" x="261" y="250.707"/><rect fill="#FFFFFF" height="75.582" style="stroke:#181818;stroke-width:1.0;" width="10" x="261" y="357.5801"/><rect fill="#FFFFFF" height="157.1641" style="stroke:#181818;stroke-width:1.0;" width="10" x="261" y="464.4531"/><line style="stroke:#181818;stroke-width:0.5;stroke-dasharray:5.0,5.0;" x1="47" x2="47" y1="137.543" y2="639.6172"/><line style="stroke:#181818;stroke-width:0.5;stroke-dasharray:5.0,5.0;" x1="266" x2="266" y1="137.543" y2="639.6172"/><text fill="#000000" font-family="sans-serif" font-size="14" lengthAdjust="spacing" textLength="78" x="5" y="134.0293">Collaborator</text><ellipse cx="47" cy="67.4219" fill="#E3E3E3" rx="8" ry="8" style="stroke:#181818;stroke-width:0.5;"/><path d="M47,75.4219 L47,102.4219 M34,83.4219 L60,83.4219 M47,102.4219 L34,117.4219 M47,102.4219 L60,117.4219 " fill="none" style="stroke:#181818;stroke-width:0.5;"/><text fill="#000000" font-family="sans-serif" font-size="14" lengthAdjust="spacing" textLength="78" x="5" y="653.7246">Collaborator</text><ellipse cx="47" cy="665.7383" fill="#E3E3E3" rx="8" ry="8" style="stroke:#181818;stroke-width:0.5;"/><path d="M47,673.7383 L47,700.7383 M34,681.7383 L60,681.7383 M47,700.7383 L34,715.7383 M47,700.7383 L60,715.7383 " fill="none" style="stroke:#181818;stroke-width:0.5;"/><rect fill="#E3E3E3" height="32.6211" rx="2.5" ry="2.5" style="stroke:#181818;stroke-width:0.5;" width="64" x="234" y="103.9219"/><text fill="#000000" font-family="sans-serif" font-size="14" lengthAdjust="spacing" textLength="50" x="241" y="126.0293">:System</text><rect fill="#E3E3E3" height="32.6211" rx="2.5" ry="2.5" style="stroke:#181818;stroke-width:0.5;" width="64" x="234" y="638.6172"/><text fill="#000000" font-family="sans-serif" font-size="14" lengthAdjust="spacing" textLength="50" x="241" y="660.7246">:System</text><rect fill="#FFFFFF" height="483.0742" style="stroke:#181818;stroke-width:1.0;" width="10" x="42" y="147.543"/><rect fill="#FFFFFF" height="31.291" style="stroke:#181818;stroke-width:1.0;" width="10" x="261" y="188.125"/><rect fill="#FFFFFF" height="75.582" style="stroke:#181818;stroke-width:1.0;" width="10" x="261" y="250.707"/><rect fill="#FFFFFF" height="75.582" style="stroke:#181818;stroke-width:1.0;" width="10" x="261" y="357.5801"/><rect fill="#FFFFFF" height="157.1641" style="stroke:#181818;stroke-width:1.0;" width="10" x="261" y="464.4531"/><polygon fill="#181818" points="249,184.125,259,188.125,249,192.125,253,188.125" style="stroke:#181818;stroke-width:1.0;"/><line style="stroke:#181818;stroke-width:1.0;" x1="52" x2="255" y1="188.125" y2="188.125"/><text fill="#000000" font-family="sans-serif" font-size="13" font-weight="bold" lengthAdjust="spacing" textLength="7" x="59" y="174.2168">1</text><text fill="#000000" font-family="sans-serif" font-size="13" lengthAdjust="spacing" textLength="175" x="70" y="165.5713">Request list of tasks assigned</text><text fill="#000000" font-family="sans-serif" font-size="13" lengthAdjust="spacing" textLength="112" x="74" y="182.8623">between two dates.</text><polygon fill="#181818" points="63,215.416,53,219.416,63,223.416,59,219.416" style="stroke:#181818;stroke-width:1.0;"/><line style="stroke:#181818;stroke-width:1.0;" x1="57" x2="265" y1="219.416" y2="219.416"/><text fill="#000000" font-family="sans-serif" font-size="13" font-weight="bold" lengthAdjust="spacing" textLength="7" x="69" y="214.1533">2</text><text fill="#000000" font-family="sans-serif" font-size="13" lengthAdjust="spacing" textLength="111" x="80" y="214.1533">Request start date.</text><polygon fill="#181818" points="249,246.707,259,250.707,249,254.707,253,250.707" style="stroke:#181818;stroke-width:1.0;"/><line style="stroke:#181818;stroke-width:1.0;" x1="52" x2="255" y1="250.707" y2="250.707"/><text fill="#000000" font-family="sans-serif" font-size="13" font-weight="bold" lengthAdjust="spacing" textLength="7" x="59" y="245.4443">3</text><text fill="#000000" font-family="sans-serif" font-size="13" lengthAdjust="spacing" textLength="107" x="70" y="245.4443">Selects start date.</text><line style="stroke:#181818;stroke-width:1.0;" x1="271" x2="313" y1="281.998" y2="281.998"/><line style="stroke:#181818;stroke-width:1.0;" x1="313" x2="313" y1="281.998" y2="294.998"/><line style="stroke:#181818;stroke-width:1.0;" x1="272" x2="313" y1="294.998" y2="294.998"/><polygon fill="#181818" points="282,290.998,272,294.998,282,298.998,278,294.998" style="stroke:#181818;stroke-width:1.0;"/><text fill="#000000" font-family="sans-serif" font-size="13" font-weight="bold" lengthAdjust="spacing" textLength="7" x="278" y="276.7354">4</text><text fill="#000000" font-family="sans-serif" font-size="13" lengthAdjust="spacing" textLength="122" x="289" y="276.7354">Keeps the start date.</text><polygon fill="#181818" points="63,322.2891,53,326.2891,63,330.2891,59,326.2891" style="stroke:#181818;stroke-width:1.0;"/><line style="stroke:#181818;stroke-width:1.0;" x1="57" x2="265" y1="326.2891" y2="326.2891"/><text fill="#000000" font-family="sans-serif" font-size="13" font-weight="bold" lengthAdjust="spacing" textLength="7" x="69" y="321.0264">5</text><text fill="#000000" font-family="sans-serif" font-size="13" lengthAdjust="spacing" textLength="106" x="80" y="321.0264">Request end date.</text><polygon fill="#181818" points="249,353.5801,259,357.5801,249,361.5801,253,357.5801" style="stroke:#181818;stroke-width:1.0;"/><line style="stroke:#181818;stroke-width:1.0;" x1="52" x2="255" y1="357.5801" y2="357.5801"/><text fill="#000000" font-family="sans-serif" font-size="13" font-weight="bold" lengthAdjust="spacing" textLength="7" x="59" y="352.3174">6</text><text fill="#000000" font-family="sans-serif" font-size="13" lengthAdjust="spacing" textLength="102" x="70" y="352.3174">Selects end date.</text><line style="stroke:#181818;stroke-width:1.0;" x1="271" x2="313" y1="388.8711" y2="388.8711"/><line style="stroke:#181818;stroke-width:1.0;" x1="313" x2="313" y1="388.8711" y2="401.8711"/><line style="stroke:#181818;stroke-width:1.0;" x1="272" x2="313" y1="401.8711" y2="401.8711"/><polygon fill="#181818" points="282,397.8711,272,401.8711,282,405.8711,278,401.8711" style="stroke:#181818;stroke-width:1.0;"/><text fill="#000000" font-family="sans-serif" font-size="13" font-weight="bold" lengthAdjust="spacing" textLength="7" x="278" y="383.6084">7</text><text fill="#000000" font-family="sans-serif" font-size="13" lengthAdjust="spacing" textLength="117" x="289" y="383.6084">Keeps the end date.</text><polygon fill="#181818" points="63,429.1621,53,433.1621,63,437.1621,59,433.1621" style="stroke:#181818;stroke-width:1.0;"/><line style="stroke:#181818;stroke-width:1.0;" x1="57" x2="265" y1="433.1621" y2="433.1621"/><text fill="#000000" font-family="sans-serif" font-size="13" font-weight="bold" lengthAdjust="spacing" textLength="7" x="69" y="427.8994">8</text><text fill="#000000" font-family="sans-serif" font-size="13" lengthAdjust="spacing" textLength="174" x="80" y="427.8994">Request urgency of the tasks.</text><polygon fill="#181818" points="249,460.4531,259,464.4531,249,468.4531,253,464.4531" style="stroke:#181818;stroke-width:1.0;"/><line style="stroke:#181818;stroke-width:1.0;" x1="52" x2="255" y1="464.4531" y2="464.4531"/><text fill="#000000" font-family="sans-serif" font-size="13" font-weight="bold" lengthAdjust="spacing" textLength="7" x="59" y="459.1904">9</text><text fill="#000000" font-family="sans-serif" font-size="13" lengthAdjust="spacing" textLength="98" x="70" y="459.1904">Selects urgency.</text><path d="M57,477.4531 L57,504.4531 L193,504.4531 L193,487.4531 L183,477.4531 L57,477.4531 " fill="#FAFAFA" style="stroke:#181818;stroke-width:0.5;"/><path d="M183,477.4531 L183,487.4531 L193,487.4531 L183,477.4531 " fill="#FAFAFA" style="stroke:#181818;stroke-width:0.5;"/><text fill="#000000" font-family="sans-serif" font-size="13" lengthAdjust="spacing" textLength="115" x="63" y="496.4814">Urgency is optional.</text><line style="stroke:#181818;stroke-width:1.0;" x1="271" x2="313" y1="533.0352" y2="533.0352"/><line style="stroke:#181818;stroke-width:1.0;" x1="313" x2="313" y1="533.0352" y2="546.0352"/><line style="stroke:#181818;stroke-width:1.0;" x1="272" x2="313" y1="546.0352" y2="546.0352"/><polygon fill="#181818" points="282,542.0352,272,546.0352,282,550.0352,278,546.0352" style="stroke:#181818;stroke-width:1.0;"/><text fill="#000000" font-family="sans-serif" font-size="13" font-weight="bold" lengthAdjust="spacing" textLength="14" x="278" y="527.7725">10</text><text fill="#000000" font-family="sans-serif" font-size="13" lengthAdjust="spacing" textLength="113" x="296" y="527.7725">Keeps the urgency.</text><line style="stroke:#181818;stroke-width:1.0;stroke-dasharray:2.0,2.0;" x1="271" x2="313" y1="577.3262" y2="577.3262"/><line style="stroke:#181818;stroke-width:1.0;stroke-dasharray:2.0,2.0;" x1="313" x2="313" y1="577.3262" y2="590.3262"/><line style="stroke:#181818;stroke-width:1.0;stroke-dasharray:2.0,2.0;" x1="272" x2="313" y1="590.3262" y2="590.3262"/><polygon fill="#181818" points="282,586.3262,272,590.3262,282,594.3262,278,590.3262" style="stroke:#181818;stroke-width:1.0;"/><text fill="#000000" font-family="sans-serif" font-size="13" font-weight="bold" lengthAdjust="spacing" textLength="14" x="278" y="572.0635">11</text><text fill="#000000" font-family="sans-serif" font-size="13" lengthAdjust="spacing" textLength="106" x="296" y="572.0635">Retrieval of Tasks.</text><polygon fill="#181818" points="63,617.6172,53,621.6172,63,625.6172,59,621.6172" style="stroke:#181818;stroke-width:1.0;"/><line style="stroke:#181818;stroke-width:1.0;" x1="57" x2="265" y1="621.6172" y2="621.6172"/><text fill="#000000" font-family="sans-serif" font-size="13" font-weight="bold" lengthAdjust="spacing" textLength="14" x="69" y="616.3545">12</text><text fill="#000000" font-family="sans-serif" font-size="13" lengthAdjust="spacing" textLength="92" x="87" y="616.3545">Returns the list.</text><text fill="#888888" font-family="sans-serif" font-size="10" lengthAdjust="spacing" textLength="32" x="390" y="15.791">US028</text><!--SRC=[fP8nSy8m38Lt_meTErolKu-XIyTsQihMHJWYyU7OgQN0yU_h63U11kWTzPISzDxxB8ktnhKOi876Ew_hu1i22Hqf7YejwYrMLCZ14WJIWgwofmrSO-dtnbMmGSkab1Y9hQlYuV49vl1cM02PJUMe147UCgn9zaGEPE-XH25Ug9gmf71KAUp4kwvPKr0AjVW0inTlBQvzmFWtYtwWhOhvOhHfqGdCbiM1XPfKEtuchTb5_xvPGJpQmlmvbs49x_JLKSIpFQFVPBe1zjDT8ar6WtEEWdooTGo9KMC0IqHD1elKMj8rWr-41TauSfuO_9q_MBmIjGnIqyJa1Z2vyZ-uv_AxOCyjRg1seIAd3-dzeYwzuPtOsMgCT3vgWwdgj1vnY-3ah7AmOV2j6E_GZieUlrVVFu09p4_t-GPBCBH3s_DzZ5U_E2_fWZjwzmj_RKRV]--></g></svg>