<?xml version="1.0" encoding="us-ascii" standalone="no"?><svg xmlns="http://www.w3.org/2000/svg" xmlns:xlink="http://www.w3.org/1999/xlink" contentStyleType="text/css" height="697px" preserveAspectRatio="none" style="width:949px;height:697px;background:#FFFFFF;" version="1.1" viewBox="0 0 949 697" width="949px" zoomAndPan="magnify"><defs/><g><text fill="#000000" font-family="sans-serif" font-size="14" font-weight="bold" lengthAdjust="spacing" textLength="344" x="298.5" y="40.6357">US008 - List the vehicles needing check-up</text><rect fill="#FFFFFF" height="466.265" style="stroke:#181818;stroke-width:1.0;" width="10" x="13.5" y="141.2344"/><rect fill="#FFFFFF" height="145.755" style="stroke:#181818;stroke-width:1.0;" width="10" x="348.5" y="162.3854"/><rect fill="#FFFFFF" height="261.208" style="stroke:#181818;stroke-width:1.0;" width="10" x="348.5" y="337.2914"/><rect fill="#FFFFFF" height="87.453" style="stroke:#181818;stroke-width:1.0;" width="10" x="531.5" y="191.5364"/><rect fill="#FFFFFF" height="118.604" style="stroke:#181818;stroke-width:1.0;" width="10" x="531.5" y="408.5934"/><rect fill="#FFFFFF" height="29.151" style="stroke:#181818;stroke-width:1.0;" width="10" x="686" y="220.6874"/><rect fill="#FFFFFF" height="36.151" style="stroke:#181818;stroke-width:1.0;" width="10" x="843" y="461.8954"/><rect fill="none" height="46.302" style="stroke:#000000;stroke-width:1.5;" width="477" x="455" y="423.5934"/><line style="stroke:#181818;stroke-width:0.5;stroke-dasharray:5.0,5.0;" x1="18" x2="18" y1="131.2344" y2="616.4994"/><line style="stroke:#181818;stroke-width:0.5;stroke-dasharray:5.0,5.0;" x1="353.5" x2="353.5" y1="131.2344" y2="616.4994"/><line style="stroke:#181818;stroke-width:0.5;stroke-dasharray:5.0,5.0;" x1="536" x2="536" y1="131.2344" y2="616.4994"/><line style="stroke:#181818;stroke-width:0.5;stroke-dasharray:5.0,5.0;" x1="691" x2="691" y1="131.2344" y2="616.4994"/><line style="stroke:#181818;stroke-width:0.5;stroke-dasharray:5.0,5.0;" x1="848" x2="848" y1="131.2344" y2="616.4994"/><text fill="#000000" font-family="sans-serif" font-size="14" lengthAdjust="spacing" textLength="20" x="5.5" y="127.9326">FM</text><ellipse cx="18.5" cy="63.4375" fill="#E3E3E3" rx="8" ry="8" style="stroke:#181818;stroke-width:0.5;"/><path d="M18.5,71.4375 L18.5,98.4375 M5.5,79.4375 L31.5,79.4375 M18.5,98.4375 L5.5,113.4375 M18.5,98.4375 L31.5,113.4375 " fill="none" style="stroke:#181818;stroke-width:0.5;"/><text fill="#000000" font-family="sans-serif" font-size="14" lengthAdjust="spacing" textLength="20" x="5.5" y="628.4945">FM</text><ellipse cx="18.5" cy="640.2963" fill="#E3E3E3" rx="8" ry="8" style="stroke:#181818;stroke-width:0.5;"/><path d="M18.5,648.2963 L18.5,675.2963 M5.5,656.2963 L31.5,656.2963 M18.5,675.2963 L5.5,690.2963 M18.5,675.2963 L31.5,690.2963 " fill="none" style="stroke:#181818;stroke-width:0.5;"/><rect fill="#E3E3E3" height="30.2969" rx="2.5" ry="2.5" style="stroke:#181818;stroke-width:0.5;" width="110" x="298.5" y="99.9375"/><text fill="#000000" font-family="sans-serif" font-size="14" lengthAdjust="spacing" textLength="96" x="305.5" y="119.9326">:VehicleListUI</text><rect fill="#E3E3E3" height="30.2969" rx="2.5" ry="2.5" style="stroke:#181818;stroke-width:0.5;" width="110" x="298.5" y="615.4994"/><text fill="#000000" font-family="sans-serif" font-size="14" lengthAdjust="spacing" textLength="96" x="305.5" y="635.4945">:VehicleListUI</text><rect fill="#E3E3E3" height="30.2969" rx="2.5" ry="2.5" style="stroke:#181818;stroke-width:0.5;" width="143" x="465" y="99.9375"/><text fill="#000000" font-family="sans-serif" font-size="14" lengthAdjust="spacing" textLength="129" x="472" y="119.9326">:VehicleController</text><rect fill="#E3E3E3" height="30.2969" rx="2.5" ry="2.5" style="stroke:#181818;stroke-width:0.5;" width="143" x="465" y="615.4994"/><text fill="#000000" font-family="sans-serif" font-size="14" lengthAdjust="spacing" textLength="129" x="472" y="635.4945">:VehicleController</text><rect fill="#E3E3E3" height="30.2969" rx="2.5" ry="2.5" style="stroke:#181818;stroke-width:0.5;" width="146" x="618" y="99.9375"/><text fill="#000000" font-family="sans-serif" font-size="14" lengthAdjust="spacing" textLength="132" x="625" y="119.9326">:SortingRepository</text><rect fill="#E3E3E3" height="30.2969" rx="2.5" ry="2.5" style="stroke:#181818;stroke-width:0.5;" width="146" x="618" y="615.4994"/><text fill="#000000" font-family="sans-serif" font-size="14" lengthAdjust="spacing" textLength="132" x="625" y="635.4945">:SortingRepository</text><rect fill="#E3E3E3" height="30.2969" rx="2.5" ry="2.5" style="stroke:#181818;stroke-width:0.5;" width="148" x="774" y="99.9375"/><text fill="#000000" font-family="sans-serif" font-size="14" lengthAdjust="spacing" textLength="134" x="781" y="119.9326">:VehicleRepository</text><rect fill="#E3E3E3" height="30.2969" rx="2.5" ry="2.5" style="stroke:#181818;stroke-width:0.5;" width="148" x="774" y="615.4994"/><text fill="#000000" font-family="sans-serif" font-size="14" lengthAdjust="spacing" textLength="134" x="781" y="635.4945">:VehicleRepository</text><rect fill="#FFFFFF" height="466.265" style="stroke:#181818;stroke-width:1.0;" width="10" x="13.5" y="141.2344"/><rect fill="#FFFFFF" height="145.755" style="stroke:#181818;stroke-width:1.0;" width="10" x="348.5" y="162.3854"/><rect fill="#FFFFFF" height="261.208" style="stroke:#181818;stroke-width:1.0;" width="10" x="348.5" y="337.2914"/><rect fill="#FFFFFF" height="87.453" style="stroke:#181818;stroke-width:1.0;" width="10" x="531.5" y="191.5364"/><rect fill="#FFFFFF" height="118.604" style="stroke:#181818;stroke-width:1.0;" width="10" x="531.5" y="408.5934"/><rect fill="#FFFFFF" height="29.151" style="stroke:#181818;stroke-width:1.0;" width="10" x="686" y="220.6874"/><rect fill="#FFFFFF" height="36.151" style="stroke:#181818;stroke-width:1.0;" width="10" x="843" y="461.8954"/><polygon fill="#181818" points="336.5,158.3854,346.5,162.3854,336.5,166.3854,340.5,162.3854" style="stroke:#181818;stroke-width:1.0;"/><line style="stroke:#181818;stroke-width:1.0;" x1="23.5" x2="342.5" y1="162.3854" y2="162.3854"/><text fill="#000000" font-family="sans-serif" font-size="13" font-weight="bold" lengthAdjust="spacing" textLength="9" x="30.5" y="157.3158">1</text><text fill="#000000" font-family="sans-serif" font-size="13" lengthAdjust="spacing" textLength="81" x="43.5" y="157.3158">Request list.</text><polygon fill="#181818" points="519.5,187.5364,529.5,191.5364,519.5,195.5364,523.5,191.5364" style="stroke:#181818;stroke-width:1.0;"/><line style="stroke:#181818;stroke-width:1.0;stroke-dasharray:2.0,2.0;" x1="358.5" x2="525.5" y1="191.5364" y2="191.5364"/><text fill="#000000" font-family="sans-serif" font-size="13" font-weight="bold" lengthAdjust="spacing" textLength="9" x="365.5" y="186.4668">2</text><text fill="#000000" font-family="sans-serif" font-size="13" lengthAdjust="spacing" textLength="77" x="378.5" y="186.4668">getSorting()</text><polygon fill="#181818" points="674,216.6874,684,220.6874,674,224.6874,678,220.6874" style="stroke:#181818;stroke-width:1.0;"/><line style="stroke:#181818;stroke-width:1.0;" x1="541.5" x2="680" y1="220.6874" y2="220.6874"/><text fill="#000000" font-family="sans-serif" font-size="13" font-weight="bold" lengthAdjust="spacing" textLength="9" x="548.5" y="215.6178">3</text><text fill="#000000" font-family="sans-serif" font-size="13" lengthAdjust="spacing" textLength="77" x="561.5" y="215.6178">getSorting()</text><polygon fill="#181818" points="552.5,245.8384,542.5,249.8384,552.5,253.8384,548.5,249.8384" style="stroke:#181818;stroke-width:1.0;"/><line style="stroke:#181818;stroke-width:1.0;stroke-dasharray:2.0,2.0;" x1="546.5" x2="690" y1="249.8384" y2="249.8384"/><text fill="#000000" font-family="sans-serif" font-size="13" font-weight="bold" lengthAdjust="spacing" textLength="9" x="558.5" y="244.7688">4</text><text fill="#000000" font-family="sans-serif" font-size="13" lengthAdjust="spacing" textLength="45" x="571.5" y="244.7688">sorting</text><polygon fill="#181818" points="369.5,274.9894,359.5,278.9894,369.5,282.9894,365.5,278.9894" style="stroke:#181818;stroke-width:1.0;"/><line style="stroke:#181818;stroke-width:1.0;stroke-dasharray:2.0,2.0;" x1="363.5" x2="535.5" y1="278.9894" y2="278.9894"/><text fill="#000000" font-family="sans-serif" font-size="13" font-weight="bold" lengthAdjust="spacing" textLength="9" x="375.5" y="273.9198">5</text><text fill="#000000" font-family="sans-serif" font-size="13" lengthAdjust="spacing" textLength="45" x="388.5" y="273.9198">sorting</text><polygon fill="#181818" points="34.5,304.1404,24.5,308.1404,34.5,312.1404,30.5,308.1404" style="stroke:#181818;stroke-width:1.0;"/><line style="stroke:#181818;stroke-width:1.0;stroke-dasharray:2.0,2.0;" x1="28.5" x2="352.5" y1="308.1404" y2="308.1404"/><text fill="#000000" font-family="sans-serif" font-size="13" font-weight="bold" lengthAdjust="spacing" textLength="9" x="40.5" y="303.0708">6</text><text fill="#000000" font-family="sans-serif" font-size="13" lengthAdjust="spacing" textLength="288" x="53.5" y="303.0708">shows sorting possibilities and requests one</text><polygon fill="#181818" points="336.5,333.2914,346.5,337.2914,336.5,341.2914,340.5,337.2914" style="stroke:#181818;stroke-width:1.0;"/><line style="stroke:#181818;stroke-width:1.0;" x1="23.5" x2="342.5" y1="337.2914" y2="337.2914"/><text fill="#000000" font-family="sans-serif" font-size="13" font-weight="bold" lengthAdjust="spacing" textLength="9" x="30.5" y="332.2218">7</text><text fill="#000000" font-family="sans-serif" font-size="13" lengthAdjust="spacing" textLength="170" x="43.5" y="332.2218">Selects pretended sorting.</text><line style="stroke:#181818;stroke-width:1.0;stroke-dasharray:2.0,2.0;" x1="358.5" x2="400.5" y1="366.4424" y2="366.4424"/><line style="stroke:#181818;stroke-width:1.0;stroke-dasharray:2.0,2.0;" x1="400.5" x2="400.5" y1="366.4424" y2="379.4424"/><line style="stroke:#181818;stroke-width:1.0;stroke-dasharray:2.0,2.0;" x1="359.5" x2="400.5" y1="379.4424" y2="379.4424"/><polygon fill="#181818" points="369.5,375.4424,359.5,379.4424,369.5,383.4424,365.5,379.4424" style="stroke:#181818;stroke-width:1.0;"/><text fill="#000000" font-family="sans-serif" font-size="13" font-weight="bold" lengthAdjust="spacing" textLength="9" x="365.5" y="361.3728">8</text><text fill="#000000" font-family="sans-serif" font-size="13" lengthAdjust="spacing" textLength="133" x="378.5" y="361.3728">keepSorting(sorting)</text><polygon fill="#181818" points="519.5,404.5934,529.5,408.5934,519.5,412.5934,523.5,408.5934" style="stroke:#181818;stroke-width:1.0;"/><line style="stroke:#181818;stroke-width:1.0;stroke-dasharray:2.0,2.0;" x1="358.5" x2="525.5" y1="408.5934" y2="408.5934"/><text fill="#000000" font-family="sans-serif" font-size="13" font-weight="bold" lengthAdjust="spacing" textLength="9" x="365.5" y="403.5238">9</text><text fill="#000000" font-family="sans-serif" font-size="13" lengthAdjust="spacing" textLength="141" x="378.5" y="403.5238">getVehicle(VehicleID)</text><path d="M455,423.5934 L725,423.5934 L725,430.7444 L715,440.7444 L455,440.7444 L455,423.5934 " fill="#EEEEEE" style="stroke:#000000;stroke-width:1.5;"/><rect fill="none" height="46.302" style="stroke:#000000;stroke-width:1.5;" width="477" x="455" y="423.5934"/><text fill="#000000" font-family="sans-serif" font-size="13" font-weight="bold" lengthAdjust="spacing" textLength="225" x="470" y="436.6748">loop until all vehicles retrieved</text><polygon fill="#181818" points="831,457.8954,841,461.8954,831,465.8954,835,461.8954" style="stroke:#181818;stroke-width:1.0;"/><line style="stroke:#181818;stroke-width:1.0;" x1="541.5" x2="837" y1="461.8954" y2="461.8954"/><text fill="#000000" font-family="sans-serif" font-size="13" font-weight="bold" lengthAdjust="spacing" textLength="18" x="548.5" y="456.8258">10</text><text fill="#000000" font-family="sans-serif" font-size="13" lengthAdjust="spacing" textLength="141" x="570.5" y="456.8258">getVehicle(VehicleID)</text><polygon fill="#181818" points="552.5,494.0464,542.5,498.0464,552.5,502.0464,548.5,498.0464" style="stroke:#181818;stroke-width:1.0;"/><line style="stroke:#181818;stroke-width:1.0;stroke-dasharray:2.0,2.0;" x1="546.5" x2="847" y1="498.0464" y2="498.0464"/><text fill="#000000" font-family="sans-serif" font-size="13" font-weight="bold" lengthAdjust="spacing" textLength="18" x="558.5" y="492.9768">11</text><text fill="#000000" font-family="sans-serif" font-size="13" lengthAdjust="spacing" textLength="70" x="580.5" y="492.9768">vehicleList</text><polygon fill="#181818" points="369.5,523.1974,359.5,527.1974,369.5,531.1974,365.5,527.1974" style="stroke:#181818;stroke-width:1.0;"/><line style="stroke:#181818;stroke-width:1.0;stroke-dasharray:2.0,2.0;" x1="363.5" x2="535.5" y1="527.1974" y2="527.1974"/><text fill="#000000" font-family="sans-serif" font-size="13" font-weight="bold" lengthAdjust="spacing" textLength="18" x="375.5" y="522.1278">12</text><text fill="#000000" font-family="sans-serif" font-size="13" lengthAdjust="spacing" textLength="70" x="397.5" y="522.1278">vehicleList</text><line style="stroke:#181818;stroke-width:1.0;stroke-dasharray:2.0,2.0;" x1="358.5" x2="400.5" y1="556.3484" y2="556.3484"/><line style="stroke:#181818;stroke-width:1.0;stroke-dasharray:2.0,2.0;" x1="400.5" x2="400.5" y1="556.3484" y2="569.3484"/><line style="stroke:#181818;stroke-width:1.0;stroke-dasharray:2.0,2.0;" x1="359.5" x2="400.5" y1="569.3484" y2="569.3484"/><polygon fill="#181818" points="369.5,565.3484,359.5,569.3484,369.5,573.3484,365.5,569.3484" style="stroke:#181818;stroke-width:1.0;"/><text fill="#000000" font-family="sans-serif" font-size="13" font-weight="bold" lengthAdjust="spacing" textLength="18" x="365.5" y="551.2788">13</text><text fill="#000000" font-family="sans-serif" font-size="13" lengthAdjust="spacing" textLength="135" x="387.5" y="551.2788">sortVehicles(sorting)</text><polygon fill="#181818" points="34.5,594.4994,24.5,598.4994,34.5,602.4994,30.5,598.4994" style="stroke:#181818;stroke-width:1.0;"/><line style="stroke:#181818;stroke-width:1.0;stroke-dasharray:2.0,2.0;" x1="28.5" x2="352.5" y1="598.4994" y2="598.4994"/><text fill="#000000" font-family="sans-serif" font-size="13" font-weight="bold" lengthAdjust="spacing" textLength="18" x="40.5" y="593.4298">14</text><text fill="#000000" font-family="sans-serif" font-size="13" lengthAdjust="spacing" textLength="109" x="62.5" y="593.4298">Displays the list.</text><text fill="#888888" font-family="sans-serif" font-size="10" lengthAdjust="spacing" textLength="31" x="910" y="14.2822">US008</text><!--SRC=[XLInJiCm4Dtz5QTEC1Gn8WOM418IB5Im6-UQM7Liuxi4zU-vf4wQf2ruYMA_T_VytYMqipxgf6keWm-cIg56uDIWel4aQhFJ9Mvuxn0I6jQ-T5C0LRe8FzQNiDMEK2csBD2FpUtj7QpXrH83LmWjLjOu9F28HGSt5PhTkecgGbrWEZ2KRZZuflx2f9Gs71AidjzMe0csjPAER8sDsZEixZyF5RiE7oyzfB7d8O_1SmhEOUfXhLd0Da7UVFcECP2LdliUHkbyjGMiFIYrhMRiH8AiRGth1v43z_2EtmsA1qvatlI78rZaGbu2NGkZDS8eaREWg-iHC994_B0dQE5GkiIPyUGsqtrXZGtfm9oT5tYEsNKSBhPaJHXPOxwKc27eAlpGm04naEoNTPQjJ8JsXOnMRnD1yAWMvR9F4rCtw6GK2M92HbzWCLJ-r-6UlaECWrsPU7qfYXpwLNw-FFsTIRVA59e8BeG8ZMVhG3jtd7-Hd2osMCmunppRz6_ZKm7pSCMIq-AJmDlZbtE2cyOuhpeD_ro5qm5O-jvvdQz35utln-N9KdHwJ_slu_Zfp8T2_G80]--></g></svg>